M48
; DRILL file {KiCad (5.1.9)-1} date 08/16/21 02:35:46
; FORMAT={-:-/ absolute / metric / decimal}
; #@! TF.CreationDate,2021-08-16T02:35:46+12:00
; #@! TF.GenerationSoftware,Kicad,Pcbnew,(5.1.9)-1
; #@! TF.FileFunction,Plated,1,2,PTH
FMAT,2
METRIC
T1C0.300
T2C0.400
T3C1.520
T4C3.200
%
G90
G05
T1
X146.87Y406.05
X148.11Y406.0
X152.56Y399.76
X154.46Y398.37
X154.85Y401.85
X156.04Y403.05
X158.89Y410.59
X159.91Y410.58
X160.37Y397.05
X161.69Y400.53
X161.7Y401.42
X161.72Y399.62
X166.39Y401.25
X166.43Y397.34
X168.42Y405.03
X168.42Y403.93
X168.49Y403.04
X170.04Y406.21
X171.1Y406.21
T2
X145.0Y407.0
X147.0Y407.0
X165.0Y406.45
X165.0Y405.0
X165.0Y402.0
X165.0Y399.0
X171.0Y411.0
X173.0Y409.0
X173.0Y405.0
X173.0Y401.0
T3
X140.0Y414.0
X140.0Y408.92
X140.0Y403.0
X140.0Y397.92
X183.0Y413.16
X183.0Y408.08
X183.0Y403.0
T4
X140.0Y422.0
X140.0Y390.0
X183.0Y422.0
X183.0Y390.0
T0
M30
