G04 #@! TF.GenerationSoftware,KiCad,Pcbnew,(5.1.9)-1*
G04 #@! TF.CreationDate,2021-08-16T02:32:56+12:00*
G04 #@! TF.ProjectId,Input,496e7075-742e-46b6-9963-61645f706362,rev?*
G04 #@! TF.SameCoordinates,Original*
G04 #@! TF.FileFunction,Paste,Top*
G04 #@! TF.FilePolarity,Positive*
%FSLAX46Y46*%
G04 Gerber Fmt 4.6, Leading zero omitted, Abs format (unit mm)*
G04 Created by KiCad (PCBNEW (5.1.9)-1) date 2021-08-16 02:32:56*
%MOMM*%
%LPD*%
G01*
G04 APERTURE LIST*
%ADD10R,0.533400X1.460500*%
%ADD11R,1.473200X0.355600*%
G04 APERTURE END LIST*
G36*
G01*
X149425000Y406762500D02*
X149425000Y407237500D01*
G75*
G02*
X149662500Y407475000I237500J0D01*
G01*
X150162500Y407475000D01*
G75*
G02*
X150400000Y407237500I0J-237500D01*
G01*
X150400000Y406762500D01*
G75*
G02*
X150162500Y406525000I-237500J0D01*
G01*
X149662500Y406525000D01*
G75*
G02*
X149425000Y406762500I0J237500D01*
G01*
G37*
G36*
G01*
X147600000Y406762500D02*
X147600000Y407237500D01*
G75*
G02*
X147837500Y407475000I237500J0D01*
G01*
X148337500Y407475000D01*
G75*
G02*
X148575000Y407237500I0J-237500D01*
G01*
X148575000Y406762500D01*
G75*
G02*
X148337500Y406525000I-237500J0D01*
G01*
X147837500Y406525000D01*
G75*
G02*
X147600000Y406762500I0J237500D01*
G01*
G37*
G36*
G01*
X148575000Y405237500D02*
X148575000Y404762500D01*
G75*
G02*
X148337500Y404525000I-237500J0D01*
G01*
X147837500Y404525000D01*
G75*
G02*
X147600000Y404762500I0J237500D01*
G01*
X147600000Y405237500D01*
G75*
G02*
X147837500Y405475000I237500J0D01*
G01*
X148337500Y405475000D01*
G75*
G02*
X148575000Y405237500I0J-237500D01*
G01*
G37*
G36*
G01*
X150400000Y405237500D02*
X150400000Y404762500D01*
G75*
G02*
X150162500Y404525000I-237500J0D01*
G01*
X149662500Y404525000D01*
G75*
G02*
X149425000Y404762500I0J237500D01*
G01*
X149425000Y405237500D01*
G75*
G02*
X149662500Y405475000I237500J0D01*
G01*
X150162500Y405475000D01*
G75*
G02*
X150400000Y405237500I0J-237500D01*
G01*
G37*
G36*
G01*
X149762500Y399675000D02*
X150237500Y399675000D01*
G75*
G02*
X150475000Y399437500I0J-237500D01*
G01*
X150475000Y398837500D01*
G75*
G02*
X150237500Y398600000I-237500J0D01*
G01*
X149762500Y398600000D01*
G75*
G02*
X149525000Y398837500I0J237500D01*
G01*
X149525000Y399437500D01*
G75*
G02*
X149762500Y399675000I237500J0D01*
G01*
G37*
G36*
G01*
X149762500Y401400000D02*
X150237500Y401400000D01*
G75*
G02*
X150475000Y401162500I0J-237500D01*
G01*
X150475000Y400562500D01*
G75*
G02*
X150237500Y400325000I-237500J0D01*
G01*
X149762500Y400325000D01*
G75*
G02*
X149525000Y400562500I0J237500D01*
G01*
X149525000Y401162500D01*
G75*
G02*
X149762500Y401400000I237500J0D01*
G01*
G37*
G36*
G01*
X158237500Y416425000D02*
X157762500Y416425000D01*
G75*
G02*
X157525000Y416662500I0J237500D01*
G01*
X157525000Y417162500D01*
G75*
G02*
X157762500Y417400000I237500J0D01*
G01*
X158237500Y417400000D01*
G75*
G02*
X158475000Y417162500I0J-237500D01*
G01*
X158475000Y416662500D01*
G75*
G02*
X158237500Y416425000I-237500J0D01*
G01*
G37*
G36*
G01*
X158237500Y414600000D02*
X157762500Y414600000D01*
G75*
G02*
X157525000Y414837500I0J237500D01*
G01*
X157525000Y415337500D01*
G75*
G02*
X157762500Y415575000I237500J0D01*
G01*
X158237500Y415575000D01*
G75*
G02*
X158475000Y415337500I0J-237500D01*
G01*
X158475000Y414837500D01*
G75*
G02*
X158237500Y414600000I-237500J0D01*
G01*
G37*
G36*
G01*
X153675000Y408237500D02*
X153675000Y407762500D01*
G75*
G02*
X153437500Y407525000I-237500J0D01*
G01*
X152837500Y407525000D01*
G75*
G02*
X152600000Y407762500I0J237500D01*
G01*
X152600000Y408237500D01*
G75*
G02*
X152837500Y408475000I237500J0D01*
G01*
X153437500Y408475000D01*
G75*
G02*
X153675000Y408237500I0J-237500D01*
G01*
G37*
G36*
G01*
X155400000Y408237500D02*
X155400000Y407762500D01*
G75*
G02*
X155162500Y407525000I-237500J0D01*
G01*
X154562500Y407525000D01*
G75*
G02*
X154325000Y407762500I0J237500D01*
G01*
X154325000Y408237500D01*
G75*
G02*
X154562500Y408475000I237500J0D01*
G01*
X155162500Y408475000D01*
G75*
G02*
X155400000Y408237500I0J-237500D01*
G01*
G37*
G36*
G01*
X168297500Y400465000D02*
X167822500Y400465000D01*
G75*
G02*
X167585000Y400702500I0J237500D01*
G01*
X167585000Y401302500D01*
G75*
G02*
X167822500Y401540000I237500J0D01*
G01*
X168297500Y401540000D01*
G75*
G02*
X168535000Y401302500I0J-237500D01*
G01*
X168535000Y400702500D01*
G75*
G02*
X168297500Y400465000I-237500J0D01*
G01*
G37*
G36*
G01*
X168297500Y398740000D02*
X167822500Y398740000D01*
G75*
G02*
X167585000Y398977500I0J237500D01*
G01*
X167585000Y399577500D01*
G75*
G02*
X167822500Y399815000I237500J0D01*
G01*
X168297500Y399815000D01*
G75*
G02*
X168535000Y399577500I0J-237500D01*
G01*
X168535000Y398977500D01*
G75*
G02*
X168297500Y398740000I-237500J0D01*
G01*
G37*
G36*
G01*
X159325000Y411762500D02*
X159325000Y412237500D01*
G75*
G02*
X159562500Y412475000I237500J0D01*
G01*
X160162500Y412475000D01*
G75*
G02*
X160400000Y412237500I0J-237500D01*
G01*
X160400000Y411762500D01*
G75*
G02*
X160162500Y411525000I-237500J0D01*
G01*
X159562500Y411525000D01*
G75*
G02*
X159325000Y411762500I0J237500D01*
G01*
G37*
G36*
G01*
X157600000Y411762500D02*
X157600000Y412237500D01*
G75*
G02*
X157837500Y412475000I237500J0D01*
G01*
X158437500Y412475000D01*
G75*
G02*
X158675000Y412237500I0J-237500D01*
G01*
X158675000Y411762500D01*
G75*
G02*
X158437500Y411525000I-237500J0D01*
G01*
X157837500Y411525000D01*
G75*
G02*
X157600000Y411762500I0J237500D01*
G01*
G37*
G36*
G01*
X171500000Y397340000D02*
X171500000Y397040000D01*
G75*
G02*
X171350000Y396890000I-150000J0D01*
G01*
X169700000Y396890000D01*
G75*
G02*
X169550000Y397040000I0J150000D01*
G01*
X169550000Y397340000D01*
G75*
G02*
X169700000Y397490000I150000J0D01*
G01*
X171350000Y397490000D01*
G75*
G02*
X171500000Y397340000I0J-150000D01*
G01*
G37*
G36*
G01*
X171500000Y398610000D02*
X171500000Y398310000D01*
G75*
G02*
X171350000Y398160000I-150000J0D01*
G01*
X169700000Y398160000D01*
G75*
G02*
X169550000Y398310000I0J150000D01*
G01*
X169550000Y398610000D01*
G75*
G02*
X169700000Y398760000I150000J0D01*
G01*
X171350000Y398760000D01*
G75*
G02*
X171500000Y398610000I0J-150000D01*
G01*
G37*
G36*
G01*
X171500000Y399880000D02*
X171500000Y399580000D01*
G75*
G02*
X171350000Y399430000I-150000J0D01*
G01*
X169700000Y399430000D01*
G75*
G02*
X169550000Y399580000I0J150000D01*
G01*
X169550000Y399880000D01*
G75*
G02*
X169700000Y400030000I150000J0D01*
G01*
X171350000Y400030000D01*
G75*
G02*
X171500000Y399880000I0J-150000D01*
G01*
G37*
G36*
G01*
X171500000Y401150000D02*
X171500000Y400850000D01*
G75*
G02*
X171350000Y400700000I-150000J0D01*
G01*
X169700000Y400700000D01*
G75*
G02*
X169550000Y400850000I0J150000D01*
G01*
X169550000Y401150000D01*
G75*
G02*
X169700000Y401300000I150000J0D01*
G01*
X171350000Y401300000D01*
G75*
G02*
X171500000Y401150000I0J-150000D01*
G01*
G37*
G36*
G01*
X171500000Y402420000D02*
X171500000Y402120000D01*
G75*
G02*
X171350000Y401970000I-150000J0D01*
G01*
X169700000Y401970000D01*
G75*
G02*
X169550000Y402120000I0J150000D01*
G01*
X169550000Y402420000D01*
G75*
G02*
X169700000Y402570000I150000J0D01*
G01*
X171350000Y402570000D01*
G75*
G02*
X171500000Y402420000I0J-150000D01*
G01*
G37*
G36*
G01*
X171500000Y403690000D02*
X171500000Y403390000D01*
G75*
G02*
X171350000Y403240000I-150000J0D01*
G01*
X169700000Y403240000D01*
G75*
G02*
X169550000Y403390000I0J150000D01*
G01*
X169550000Y403690000D01*
G75*
G02*
X169700000Y403840000I150000J0D01*
G01*
X171350000Y403840000D01*
G75*
G02*
X171500000Y403690000I0J-150000D01*
G01*
G37*
G36*
G01*
X171500000Y404960000D02*
X171500000Y404660000D01*
G75*
G02*
X171350000Y404510000I-150000J0D01*
G01*
X169700000Y404510000D01*
G75*
G02*
X169550000Y404660000I0J150000D01*
G01*
X169550000Y404960000D01*
G75*
G02*
X169700000Y405110000I150000J0D01*
G01*
X171350000Y405110000D01*
G75*
G02*
X171500000Y404960000I0J-150000D01*
G01*
G37*
G36*
G01*
X176450000Y404960000D02*
X176450000Y404660000D01*
G75*
G02*
X176300000Y404510000I-150000J0D01*
G01*
X174650000Y404510000D01*
G75*
G02*
X174500000Y404660000I0J150000D01*
G01*
X174500000Y404960000D01*
G75*
G02*
X174650000Y405110000I150000J0D01*
G01*
X176300000Y405110000D01*
G75*
G02*
X176450000Y404960000I0J-150000D01*
G01*
G37*
G36*
G01*
X176450000Y403690000D02*
X176450000Y403390000D01*
G75*
G02*
X176300000Y403240000I-150000J0D01*
G01*
X174650000Y403240000D01*
G75*
G02*
X174500000Y403390000I0J150000D01*
G01*
X174500000Y403690000D01*
G75*
G02*
X174650000Y403840000I150000J0D01*
G01*
X176300000Y403840000D01*
G75*
G02*
X176450000Y403690000I0J-150000D01*
G01*
G37*
G36*
G01*
X176450000Y402420000D02*
X176450000Y402120000D01*
G75*
G02*
X176300000Y401970000I-150000J0D01*
G01*
X174650000Y401970000D01*
G75*
G02*
X174500000Y402120000I0J150000D01*
G01*
X174500000Y402420000D01*
G75*
G02*
X174650000Y402570000I150000J0D01*
G01*
X176300000Y402570000D01*
G75*
G02*
X176450000Y402420000I0J-150000D01*
G01*
G37*
G36*
G01*
X176450000Y401150000D02*
X176450000Y400850000D01*
G75*
G02*
X176300000Y400700000I-150000J0D01*
G01*
X174650000Y400700000D01*
G75*
G02*
X174500000Y400850000I0J150000D01*
G01*
X174500000Y401150000D01*
G75*
G02*
X174650000Y401300000I150000J0D01*
G01*
X176300000Y401300000D01*
G75*
G02*
X176450000Y401150000I0J-150000D01*
G01*
G37*
G36*
G01*
X176450000Y399880000D02*
X176450000Y399580000D01*
G75*
G02*
X176300000Y399430000I-150000J0D01*
G01*
X174650000Y399430000D01*
G75*
G02*
X174500000Y399580000I0J150000D01*
G01*
X174500000Y399880000D01*
G75*
G02*
X174650000Y400030000I150000J0D01*
G01*
X176300000Y400030000D01*
G75*
G02*
X176450000Y399880000I0J-150000D01*
G01*
G37*
G36*
G01*
X176450000Y398610000D02*
X176450000Y398310000D01*
G75*
G02*
X176300000Y398160000I-150000J0D01*
G01*
X174650000Y398160000D01*
G75*
G02*
X174500000Y398310000I0J150000D01*
G01*
X174500000Y398610000D01*
G75*
G02*
X174650000Y398760000I150000J0D01*
G01*
X176300000Y398760000D01*
G75*
G02*
X176450000Y398610000I0J-150000D01*
G01*
G37*
G36*
G01*
X176450000Y397340000D02*
X176450000Y397040000D01*
G75*
G02*
X176300000Y396890000I-150000J0D01*
G01*
X174650000Y396890000D01*
G75*
G02*
X174500000Y397040000I0J150000D01*
G01*
X174500000Y397340000D01*
G75*
G02*
X174650000Y397490000I150000J0D01*
G01*
X176300000Y397490000D01*
G75*
G02*
X176450000Y397340000I0J-150000D01*
G01*
G37*
D10*
X155905000Y411275850D03*
X154635000Y411275850D03*
X153365000Y411275850D03*
X152095000Y411275850D03*
X152095000Y416724150D03*
X153365000Y416724150D03*
X154635000Y416724150D03*
X155905000Y416724150D03*
D11*
X157819400Y404949999D03*
X157819400Y404300000D03*
X157819400Y403649999D03*
X157819400Y403000000D03*
X157819400Y402349999D03*
X157819400Y401700000D03*
X157819400Y401049999D03*
X152180600Y401050001D03*
X152180600Y401700000D03*
X152180600Y402350001D03*
X152180600Y403000000D03*
X152180600Y403649999D03*
X152180600Y404300000D03*
X152180600Y404950001D03*
G36*
G01*
X174425000Y406762500D02*
X174425000Y407237500D01*
G75*
G02*
X174662500Y407475000I237500J0D01*
G01*
X175162500Y407475000D01*
G75*
G02*
X175400000Y407237500I0J-237500D01*
G01*
X175400000Y406762500D01*
G75*
G02*
X175162500Y406525000I-237500J0D01*
G01*
X174662500Y406525000D01*
G75*
G02*
X174425000Y406762500I0J237500D01*
G01*
G37*
G36*
G01*
X172600000Y406762500D02*
X172600000Y407237500D01*
G75*
G02*
X172837500Y407475000I237500J0D01*
G01*
X173337500Y407475000D01*
G75*
G02*
X173575000Y407237500I0J-237500D01*
G01*
X173575000Y406762500D01*
G75*
G02*
X173337500Y406525000I-237500J0D01*
G01*
X172837500Y406525000D01*
G75*
G02*
X172600000Y406762500I0J237500D01*
G01*
G37*
G36*
G01*
X167307500Y395242500D02*
X167307500Y395717500D01*
G75*
G02*
X167545000Y395955000I237500J0D01*
G01*
X168045000Y395955000D01*
G75*
G02*
X168282500Y395717500I0J-237500D01*
G01*
X168282500Y395242500D01*
G75*
G02*
X168045000Y395005000I-237500J0D01*
G01*
X167545000Y395005000D01*
G75*
G02*
X167307500Y395242500I0J237500D01*
G01*
G37*
G36*
G01*
X165482500Y395242500D02*
X165482500Y395717500D01*
G75*
G02*
X165720000Y395955000I237500J0D01*
G01*
X166220000Y395955000D01*
G75*
G02*
X166457500Y395717500I0J-237500D01*
G01*
X166457500Y395242500D01*
G75*
G02*
X166220000Y395005000I-237500J0D01*
G01*
X165720000Y395005000D01*
G75*
G02*
X165482500Y395242500I0J237500D01*
G01*
G37*
G36*
G01*
X164762500Y415662500D02*
X165237500Y415662500D01*
G75*
G02*
X165475000Y415425000I0J-237500D01*
G01*
X165475000Y414925000D01*
G75*
G02*
X165237500Y414687500I-237500J0D01*
G01*
X164762500Y414687500D01*
G75*
G02*
X164525000Y414925000I0J237500D01*
G01*
X164525000Y415425000D01*
G75*
G02*
X164762500Y415662500I237500J0D01*
G01*
G37*
G36*
G01*
X164762500Y417487500D02*
X165237500Y417487500D01*
G75*
G02*
X165475000Y417250000I0J-237500D01*
G01*
X165475000Y416750000D01*
G75*
G02*
X165237500Y416512500I-237500J0D01*
G01*
X164762500Y416512500D01*
G75*
G02*
X164525000Y416750000I0J237500D01*
G01*
X164525000Y417250000D01*
G75*
G02*
X164762500Y417487500I237500J0D01*
G01*
G37*
G36*
G01*
X161762500Y415662500D02*
X162237500Y415662500D01*
G75*
G02*
X162475000Y415425000I0J-237500D01*
G01*
X162475000Y414925000D01*
G75*
G02*
X162237500Y414687500I-237500J0D01*
G01*
X161762500Y414687500D01*
G75*
G02*
X161525000Y414925000I0J237500D01*
G01*
X161525000Y415425000D01*
G75*
G02*
X161762500Y415662500I237500J0D01*
G01*
G37*
G36*
G01*
X161762500Y417487500D02*
X162237500Y417487500D01*
G75*
G02*
X162475000Y417250000I0J-237500D01*
G01*
X162475000Y416750000D01*
G75*
G02*
X162237500Y416512500I-237500J0D01*
G01*
X161762500Y416512500D01*
G75*
G02*
X161525000Y416750000I0J237500D01*
G01*
X161525000Y417250000D01*
G75*
G02*
X161762500Y417487500I237500J0D01*
G01*
G37*
G36*
G01*
X156167500Y419087500D02*
X156167500Y418612500D01*
G75*
G02*
X155930000Y418375000I-237500J0D01*
G01*
X155430000Y418375000D01*
G75*
G02*
X155192500Y418612500I0J237500D01*
G01*
X155192500Y419087500D01*
G75*
G02*
X155430000Y419325000I237500J0D01*
G01*
X155930000Y419325000D01*
G75*
G02*
X156167500Y419087500I0J-237500D01*
G01*
G37*
G36*
G01*
X154342500Y419087500D02*
X154342500Y418612500D01*
G75*
G02*
X154105000Y418375000I-237500J0D01*
G01*
X153605000Y418375000D01*
G75*
G02*
X153367500Y418612500I0J237500D01*
G01*
X153367500Y419087500D01*
G75*
G02*
X153605000Y419325000I237500J0D01*
G01*
X154105000Y419325000D01*
G75*
G02*
X154342500Y419087500I0J-237500D01*
G01*
G37*
G36*
G01*
X163512500Y411762500D02*
X163512500Y412237500D01*
G75*
G02*
X163750000Y412475000I237500J0D01*
G01*
X164250000Y412475000D01*
G75*
G02*
X164487500Y412237500I0J-237500D01*
G01*
X164487500Y411762500D01*
G75*
G02*
X164250000Y411525000I-237500J0D01*
G01*
X163750000Y411525000D01*
G75*
G02*
X163512500Y411762500I0J237500D01*
G01*
G37*
G36*
G01*
X161687500Y411762500D02*
X161687500Y412237500D01*
G75*
G02*
X161925000Y412475000I237500J0D01*
G01*
X162425000Y412475000D01*
G75*
G02*
X162662500Y412237500I0J-237500D01*
G01*
X162662500Y411762500D01*
G75*
G02*
X162425000Y411525000I-237500J0D01*
G01*
X161925000Y411525000D01*
G75*
G02*
X161687500Y411762500I0J237500D01*
G01*
G37*
G36*
G01*
X166762500Y410487500D02*
X167237500Y410487500D01*
G75*
G02*
X167475000Y410250000I0J-237500D01*
G01*
X167475000Y409750000D01*
G75*
G02*
X167237500Y409512500I-237500J0D01*
G01*
X166762500Y409512500D01*
G75*
G02*
X166525000Y409750000I0J237500D01*
G01*
X166525000Y410250000D01*
G75*
G02*
X166762500Y410487500I237500J0D01*
G01*
G37*
G36*
G01*
X166762500Y412312500D02*
X167237500Y412312500D01*
G75*
G02*
X167475000Y412075000I0J-237500D01*
G01*
X167475000Y411575000D01*
G75*
G02*
X167237500Y411337500I-237500J0D01*
G01*
X166762500Y411337500D01*
G75*
G02*
X166525000Y411575000I0J237500D01*
G01*
X166525000Y412075000D01*
G75*
G02*
X166762500Y412312500I237500J0D01*
G01*
G37*
G36*
G01*
X163425000Y406762500D02*
X163425000Y407237500D01*
G75*
G02*
X163662500Y407475000I237500J0D01*
G01*
X164162500Y407475000D01*
G75*
G02*
X164400000Y407237500I0J-237500D01*
G01*
X164400000Y406762500D01*
G75*
G02*
X164162500Y406525000I-237500J0D01*
G01*
X163662500Y406525000D01*
G75*
G02*
X163425000Y406762500I0J237500D01*
G01*
G37*
G36*
G01*
X161600000Y406762500D02*
X161600000Y407237500D01*
G75*
G02*
X161837500Y407475000I237500J0D01*
G01*
X162337500Y407475000D01*
G75*
G02*
X162575000Y407237500I0J-237500D01*
G01*
X162575000Y406762500D01*
G75*
G02*
X162337500Y406525000I-237500J0D01*
G01*
X161837500Y406525000D01*
G75*
G02*
X161600000Y406762500I0J237500D01*
G01*
G37*
G36*
G01*
X163608200Y403691100D02*
X163608200Y403216100D01*
G75*
G02*
X163370700Y402978600I-237500J0D01*
G01*
X162870700Y402978600D01*
G75*
G02*
X162633200Y403216100I0J237500D01*
G01*
X162633200Y403691100D01*
G75*
G02*
X162870700Y403928600I237500J0D01*
G01*
X163370700Y403928600D01*
G75*
G02*
X163608200Y403691100I0J-237500D01*
G01*
G37*
G36*
G01*
X165433200Y403691100D02*
X165433200Y403216100D01*
G75*
G02*
X165195700Y402978600I-237500J0D01*
G01*
X164695700Y402978600D01*
G75*
G02*
X164458200Y403216100I0J237500D01*
G01*
X164458200Y403691100D01*
G75*
G02*
X164695700Y403928600I237500J0D01*
G01*
X165195700Y403928600D01*
G75*
G02*
X165433200Y403691100I0J-237500D01*
G01*
G37*
G36*
G01*
X148487500Y410237500D02*
X148487500Y409762500D01*
G75*
G02*
X148250000Y409525000I-237500J0D01*
G01*
X147750000Y409525000D01*
G75*
G02*
X147512500Y409762500I0J237500D01*
G01*
X147512500Y410237500D01*
G75*
G02*
X147750000Y410475000I237500J0D01*
G01*
X148250000Y410475000D01*
G75*
G02*
X148487500Y410237500I0J-237500D01*
G01*
G37*
G36*
G01*
X150312500Y410237500D02*
X150312500Y409762500D01*
G75*
G02*
X150075000Y409525000I-237500J0D01*
G01*
X149575000Y409525000D01*
G75*
G02*
X149337500Y409762500I0J237500D01*
G01*
X149337500Y410237500D01*
G75*
G02*
X149575000Y410475000I237500J0D01*
G01*
X150075000Y410475000D01*
G75*
G02*
X150312500Y410237500I0J-237500D01*
G01*
G37*
G36*
G01*
X166762500Y404537500D02*
X167237500Y404537500D01*
G75*
G02*
X167475000Y404300000I0J-237500D01*
G01*
X167475000Y403700000D01*
G75*
G02*
X167237500Y403462500I-237500J0D01*
G01*
X166762500Y403462500D01*
G75*
G02*
X166525000Y403700000I0J237500D01*
G01*
X166525000Y404300000D01*
G75*
G02*
X166762500Y404537500I237500J0D01*
G01*
G37*
G36*
G01*
X166762500Y406262500D02*
X167237500Y406262500D01*
G75*
G02*
X167475000Y406025000I0J-237500D01*
G01*
X167475000Y405425000D01*
G75*
G02*
X167237500Y405187500I-237500J0D01*
G01*
X166762500Y405187500D01*
G75*
G02*
X166525000Y405425000I0J237500D01*
G01*
X166525000Y406025000D01*
G75*
G02*
X166762500Y406262500I237500J0D01*
G01*
G37*
G36*
G01*
X163325000Y408762500D02*
X163325000Y409237500D01*
G75*
G02*
X163562500Y409475000I237500J0D01*
G01*
X164162500Y409475000D01*
G75*
G02*
X164400000Y409237500I0J-237500D01*
G01*
X164400000Y408762500D01*
G75*
G02*
X164162500Y408525000I-237500J0D01*
G01*
X163562500Y408525000D01*
G75*
G02*
X163325000Y408762500I0J237500D01*
G01*
G37*
G36*
G01*
X161600000Y408762500D02*
X161600000Y409237500D01*
G75*
G02*
X161837500Y409475000I237500J0D01*
G01*
X162437500Y409475000D01*
G75*
G02*
X162675000Y409237500I0J-237500D01*
G01*
X162675000Y408762500D01*
G75*
G02*
X162437500Y408525000I-237500J0D01*
G01*
X161837500Y408525000D01*
G75*
G02*
X161600000Y408762500I0J237500D01*
G01*
G37*
G36*
G01*
X159985700Y401096600D02*
X160460700Y401096600D01*
G75*
G02*
X160698200Y400859100I0J-237500D01*
G01*
X160698200Y400259100D01*
G75*
G02*
X160460700Y400021600I-237500J0D01*
G01*
X159985700Y400021600D01*
G75*
G02*
X159748200Y400259100I0J237500D01*
G01*
X159748200Y400859100D01*
G75*
G02*
X159985700Y401096600I237500J0D01*
G01*
G37*
G36*
G01*
X159985700Y402821600D02*
X160460700Y402821600D01*
G75*
G02*
X160698200Y402584100I0J-237500D01*
G01*
X160698200Y401984100D01*
G75*
G02*
X160460700Y401746600I-237500J0D01*
G01*
X159985700Y401746600D01*
G75*
G02*
X159748200Y401984100I0J237500D01*
G01*
X159748200Y402584100D01*
G75*
G02*
X159985700Y402821600I237500J0D01*
G01*
G37*
G36*
G01*
X162537500Y398237500D02*
X162537500Y397762500D01*
G75*
G02*
X162300000Y397525000I-237500J0D01*
G01*
X161700000Y397525000D01*
G75*
G02*
X161462500Y397762500I0J237500D01*
G01*
X161462500Y398237500D01*
G75*
G02*
X161700000Y398475000I237500J0D01*
G01*
X162300000Y398475000D01*
G75*
G02*
X162537500Y398237500I0J-237500D01*
G01*
G37*
G36*
G01*
X164262500Y398237500D02*
X164262500Y397762500D01*
G75*
G02*
X164025000Y397525000I-237500J0D01*
G01*
X163425000Y397525000D01*
G75*
G02*
X163187500Y397762500I0J237500D01*
G01*
X163187500Y398237500D01*
G75*
G02*
X163425000Y398475000I237500J0D01*
G01*
X164025000Y398475000D01*
G75*
G02*
X164262500Y398237500I0J-237500D01*
G01*
G37*
G36*
G01*
X148475000Y414412500D02*
X147525000Y414412500D01*
G75*
G02*
X147275000Y414662500I0J250000D01*
G01*
X147275000Y415337500D01*
G75*
G02*
X147525000Y415587500I250000J0D01*
G01*
X148475000Y415587500D01*
G75*
G02*
X148725000Y415337500I0J-250000D01*
G01*
X148725000Y414662500D01*
G75*
G02*
X148475000Y414412500I-250000J0D01*
G01*
G37*
G36*
G01*
X148475000Y412337500D02*
X147525000Y412337500D01*
G75*
G02*
X147275000Y412587500I0J250000D01*
G01*
X147275000Y413262500D01*
G75*
G02*
X147525000Y413512500I250000J0D01*
G01*
X148475000Y413512500D01*
G75*
G02*
X148725000Y413262500I0J-250000D01*
G01*
X148725000Y412587500D01*
G75*
G02*
X148475000Y412337500I-250000J0D01*
G01*
G37*
M02*
