G04 #@! TF.GenerationSoftware,KiCad,Pcbnew,5.1.10*
G04 #@! TF.CreationDate,2021-08-14T15:52:34+12:00*
G04 #@! TF.ProjectId,DClassAmplifier,44436c61-7373-4416-9d70-6c6966696572,rev?*
G04 #@! TF.SameCoordinates,Original*
G04 #@! TF.FileFunction,Legend,Bot*
G04 #@! TF.FilePolarity,Positive*
%FSLAX46Y46*%
G04 Gerber Fmt 4.6, Leading zero omitted, Abs format (unit mm)*
G04 Created by KiCad (PCBNEW 5.1.10) date 2021-08-14 15:52:34*
%MOMM*%
%LPD*%
G01*
G04 APERTURE LIST*
%ADD10C,0.150000*%
%ADD11C,0.010000*%
%ADD12C,0.120000*%
%ADD13C,0.100000*%
%ADD14C,1.500000*%
%ADD15C,3.000000*%
%ADD16R,3.000000X3.000000*%
%ADD17O,2.000000X1.905000*%
%ADD18R,2.000000X1.905000*%
%ADD19O,3.500000X3.500000*%
%ADD20C,2.000000*%
%ADD21C,1.905000*%
%ADD22C,1.600000*%
%ADD23R,1.600000X1.600000*%
%ADD24C,2.400000*%
%ADD25R,2.400000X2.400000*%
%ADD26C,5.700000*%
G04 APERTURE END LIST*
D10*
X175962857Y-110052380D02*
X175391428Y-110052380D01*
X175677142Y-111052380D02*
X175677142Y-110052380D01*
X175058095Y-111052380D02*
X175058095Y-110052380D01*
X174629523Y-111052380D02*
X174629523Y-110528571D01*
X174677142Y-110433333D01*
X174772380Y-110385714D01*
X174915238Y-110385714D01*
X175010476Y-110433333D01*
X175058095Y-110480952D01*
X173772380Y-111004761D02*
X173867619Y-111052380D01*
X174058095Y-111052380D01*
X174153333Y-111004761D01*
X174200952Y-110909523D01*
X174200952Y-110528571D01*
X174153333Y-110433333D01*
X174058095Y-110385714D01*
X173867619Y-110385714D01*
X173772380Y-110433333D01*
X173724761Y-110528571D01*
X173724761Y-110623809D01*
X174200952Y-110719047D01*
X172534285Y-111052380D02*
X172534285Y-110052380D01*
X172296190Y-110052380D01*
X172153333Y-110100000D01*
X172058095Y-110195238D01*
X172010476Y-110290476D01*
X171962857Y-110480952D01*
X171962857Y-110623809D01*
X172010476Y-110814285D01*
X172058095Y-110909523D01*
X172153333Y-111004761D01*
X172296190Y-111052380D01*
X172534285Y-111052380D01*
X170200952Y-110957142D02*
X170248571Y-111004761D01*
X170391428Y-111052380D01*
X170486666Y-111052380D01*
X170629523Y-111004761D01*
X170724761Y-110909523D01*
X170772380Y-110814285D01*
X170820000Y-110623809D01*
X170820000Y-110480952D01*
X170772380Y-110290476D01*
X170724761Y-110195238D01*
X170629523Y-110100000D01*
X170486666Y-110052380D01*
X170391428Y-110052380D01*
X170248571Y-110100000D01*
X170200952Y-110147619D01*
X169629523Y-111052380D02*
X169724761Y-111004761D01*
X169772380Y-110909523D01*
X169772380Y-110052380D01*
X168820000Y-111052380D02*
X168820000Y-110528571D01*
X168867619Y-110433333D01*
X168962857Y-110385714D01*
X169153333Y-110385714D01*
X169248571Y-110433333D01*
X168820000Y-111004761D02*
X168915238Y-111052380D01*
X169153333Y-111052380D01*
X169248571Y-111004761D01*
X169296190Y-110909523D01*
X169296190Y-110814285D01*
X169248571Y-110719047D01*
X169153333Y-110671428D01*
X168915238Y-110671428D01*
X168820000Y-110623809D01*
X168391428Y-111004761D02*
X168296190Y-111052380D01*
X168105714Y-111052380D01*
X168010476Y-111004761D01*
X167962857Y-110909523D01*
X167962857Y-110861904D01*
X168010476Y-110766666D01*
X168105714Y-110719047D01*
X168248571Y-110719047D01*
X168343809Y-110671428D01*
X168391428Y-110576190D01*
X168391428Y-110528571D01*
X168343809Y-110433333D01*
X168248571Y-110385714D01*
X168105714Y-110385714D01*
X168010476Y-110433333D01*
X167581904Y-111004761D02*
X167486666Y-111052380D01*
X167296190Y-111052380D01*
X167200952Y-111004761D01*
X167153333Y-110909523D01*
X167153333Y-110861904D01*
X167200952Y-110766666D01*
X167296190Y-110719047D01*
X167439047Y-110719047D01*
X167534285Y-110671428D01*
X167581904Y-110576190D01*
X167581904Y-110528571D01*
X167534285Y-110433333D01*
X167439047Y-110385714D01*
X167296190Y-110385714D01*
X167200952Y-110433333D01*
X166010476Y-110766666D02*
X165534285Y-110766666D01*
X166105714Y-111052380D02*
X165772380Y-110052380D01*
X165439047Y-111052380D01*
X165105714Y-111052380D02*
X165105714Y-110385714D01*
X165105714Y-110480952D02*
X165058095Y-110433333D01*
X164962857Y-110385714D01*
X164820000Y-110385714D01*
X164724761Y-110433333D01*
X164677142Y-110528571D01*
X164677142Y-111052380D01*
X164677142Y-110528571D02*
X164629523Y-110433333D01*
X164534285Y-110385714D01*
X164391428Y-110385714D01*
X164296190Y-110433333D01*
X164248571Y-110528571D01*
X164248571Y-111052380D01*
X163772380Y-110385714D02*
X163772380Y-111385714D01*
X163772380Y-110433333D02*
X163677142Y-110385714D01*
X163486666Y-110385714D01*
X163391428Y-110433333D01*
X163343809Y-110480952D01*
X163296190Y-110576190D01*
X163296190Y-110861904D01*
X163343809Y-110957142D01*
X163391428Y-111004761D01*
X163486666Y-111052380D01*
X163677142Y-111052380D01*
X163772380Y-111004761D01*
X162724761Y-111052380D02*
X162820000Y-111004761D01*
X162867619Y-110909523D01*
X162867619Y-110052380D01*
X162343809Y-111052380D02*
X162343809Y-110385714D01*
X162343809Y-110052380D02*
X162391428Y-110100000D01*
X162343809Y-110147619D01*
X162296190Y-110100000D01*
X162343809Y-110052380D01*
X162343809Y-110147619D01*
X162010476Y-110385714D02*
X161629523Y-110385714D01*
X161867619Y-111052380D02*
X161867619Y-110195238D01*
X161820000Y-110100000D01*
X161724761Y-110052380D01*
X161629523Y-110052380D01*
X161296190Y-111052380D02*
X161296190Y-110385714D01*
X161296190Y-110052380D02*
X161343809Y-110100000D01*
X161296190Y-110147619D01*
X161248571Y-110100000D01*
X161296190Y-110052380D01*
X161296190Y-110147619D01*
X160439047Y-111004761D02*
X160534285Y-111052380D01*
X160724761Y-111052380D01*
X160820000Y-111004761D01*
X160867619Y-110909523D01*
X160867619Y-110528571D01*
X160820000Y-110433333D01*
X160724761Y-110385714D01*
X160534285Y-110385714D01*
X160439047Y-110433333D01*
X160391428Y-110528571D01*
X160391428Y-110623809D01*
X160867619Y-110719047D01*
X159962857Y-111052380D02*
X159962857Y-110385714D01*
X159962857Y-110576190D02*
X159915238Y-110480952D01*
X159867619Y-110433333D01*
X159772380Y-110385714D01*
X159677142Y-110385714D01*
X158153333Y-111052380D02*
X158153333Y-110528571D01*
X158200952Y-110433333D01*
X158296190Y-110385714D01*
X158486666Y-110385714D01*
X158581904Y-110433333D01*
X158153333Y-111004761D02*
X158248571Y-111052380D01*
X158486666Y-111052380D01*
X158581904Y-111004761D01*
X158629523Y-110909523D01*
X158629523Y-110814285D01*
X158581904Y-110719047D01*
X158486666Y-110671428D01*
X158248571Y-110671428D01*
X158153333Y-110623809D01*
X157820000Y-110385714D02*
X157439047Y-110385714D01*
X157677142Y-110052380D02*
X157677142Y-110909523D01*
X157629523Y-111004761D01*
X157534285Y-111052380D01*
X157439047Y-111052380D01*
X156343809Y-111052380D02*
X156343809Y-110052380D01*
X155915238Y-111052380D02*
X155915238Y-110528571D01*
X155962857Y-110433333D01*
X156058095Y-110385714D01*
X156200952Y-110385714D01*
X156296190Y-110433333D01*
X156343809Y-110480952D01*
X155296190Y-111052380D02*
X155391428Y-111004761D01*
X155439047Y-110957142D01*
X155486666Y-110861904D01*
X155486666Y-110576190D01*
X155439047Y-110480952D01*
X155391428Y-110433333D01*
X155296190Y-110385714D01*
X155153333Y-110385714D01*
X155058095Y-110433333D01*
X155010476Y-110480952D01*
X154962857Y-110576190D01*
X154962857Y-110861904D01*
X155010476Y-110957142D01*
X155058095Y-111004761D01*
X155153333Y-111052380D01*
X155296190Y-111052380D01*
X154534285Y-111052380D02*
X154534285Y-110385714D01*
X154534285Y-110480952D02*
X154486666Y-110433333D01*
X154391428Y-110385714D01*
X154248571Y-110385714D01*
X154153333Y-110433333D01*
X154105714Y-110528571D01*
X154105714Y-111052380D01*
X154105714Y-110528571D02*
X154058095Y-110433333D01*
X153962857Y-110385714D01*
X153820000Y-110385714D01*
X153724761Y-110433333D01*
X153677142Y-110528571D01*
X153677142Y-111052380D01*
X152820000Y-111004761D02*
X152915238Y-111052380D01*
X153105714Y-111052380D01*
X153200952Y-111004761D01*
X153248571Y-110909523D01*
X153248571Y-110528571D01*
X153200952Y-110433333D01*
X153105714Y-110385714D01*
X152915238Y-110385714D01*
X152820000Y-110433333D01*
X152772380Y-110528571D01*
X152772380Y-110623809D01*
X153248571Y-110719047D01*
D11*
G36*
X158839732Y-84626904D02*
G01*
X158695091Y-84688397D01*
X158649268Y-84757500D01*
X158614221Y-84906087D01*
X158579235Y-85146019D01*
X158548677Y-85428405D01*
X158526913Y-85704353D01*
X158518309Y-85924975D01*
X158527232Y-86041378D01*
X158533959Y-86048667D01*
X158593618Y-85982391D01*
X158723404Y-85803587D01*
X158902067Y-85542288D01*
X159043123Y-85329000D01*
X159513102Y-84609334D01*
X159109942Y-84609334D01*
X158839732Y-84626904D01*
G37*
X158839732Y-84626904D02*
X158695091Y-84688397D01*
X158649268Y-84757500D01*
X158614221Y-84906087D01*
X158579235Y-85146019D01*
X158548677Y-85428405D01*
X158526913Y-85704353D01*
X158518309Y-85924975D01*
X158527232Y-86041378D01*
X158533959Y-86048667D01*
X158593618Y-85982391D01*
X158723404Y-85803587D01*
X158902067Y-85542288D01*
X159043123Y-85329000D01*
X159513102Y-84609334D01*
X159109942Y-84609334D01*
X158839732Y-84626904D01*
G36*
X155391480Y-95147687D02*
G01*
X155121765Y-95210072D01*
X154980161Y-95275149D01*
X154926979Y-95368334D01*
X154921000Y-95448974D01*
X154936242Y-95575971D01*
X155005582Y-95643856D01*
X155164435Y-95663798D01*
X155448220Y-95646966D01*
X155526327Y-95639867D01*
X155748216Y-95609622D01*
X155847600Y-95546618D01*
X155871055Y-95408873D01*
X155869807Y-95330267D01*
X155861960Y-95053440D01*
X155391480Y-95147687D01*
G37*
X155391480Y-95147687D02*
X155121765Y-95210072D01*
X154980161Y-95275149D01*
X154926979Y-95368334D01*
X154921000Y-95448974D01*
X154936242Y-95575971D01*
X155005582Y-95643856D01*
X155164435Y-95663798D01*
X155448220Y-95646966D01*
X155526327Y-95639867D01*
X155748216Y-95609622D01*
X155847600Y-95546618D01*
X155871055Y-95408873D01*
X155869807Y-95330267D01*
X155861960Y-95053440D01*
X155391480Y-95147687D01*
G36*
X156302809Y-95038966D02*
G01*
X156278357Y-95107541D01*
X156311058Y-95179696D01*
X156347281Y-95357596D01*
X156311952Y-95418848D01*
X156350138Y-95467220D01*
X156552288Y-95520463D01*
X156913141Y-95577417D01*
X157178718Y-95610058D01*
X157607934Y-95665702D01*
X158016804Y-95730306D01*
X158350825Y-95794663D01*
X158514303Y-95835656D01*
X158744271Y-95904413D01*
X158893490Y-95947041D01*
X158921500Y-95953750D01*
X158936687Y-95881022D01*
X158942666Y-95714219D01*
X158916500Y-95546113D01*
X158806993Y-95443572D01*
X158625166Y-95374360D01*
X158377809Y-95312023D01*
X158020106Y-95240141D01*
X157603947Y-95167130D01*
X157181220Y-95101408D01*
X156803814Y-95051389D01*
X156523618Y-95025492D01*
X156463188Y-95023674D01*
X156302809Y-95038966D01*
G37*
X156302809Y-95038966D02*
X156278357Y-95107541D01*
X156311058Y-95179696D01*
X156347281Y-95357596D01*
X156311952Y-95418848D01*
X156350138Y-95467220D01*
X156552288Y-95520463D01*
X156913141Y-95577417D01*
X157178718Y-95610058D01*
X157607934Y-95665702D01*
X158016804Y-95730306D01*
X158350825Y-95794663D01*
X158514303Y-95835656D01*
X158744271Y-95904413D01*
X158893490Y-95947041D01*
X158921500Y-95953750D01*
X158936687Y-95881022D01*
X158942666Y-95714219D01*
X158916500Y-95546113D01*
X158806993Y-95443572D01*
X158625166Y-95374360D01*
X158377809Y-95312023D01*
X158020106Y-95240141D01*
X157603947Y-95167130D01*
X157181220Y-95101408D01*
X156803814Y-95051389D01*
X156523618Y-95025492D01*
X156463188Y-95023674D01*
X156302809Y-95038966D01*
G36*
X160498289Y-95310561D02*
G01*
X159928870Y-95364995D01*
X159517141Y-95446337D01*
X159253089Y-95558032D01*
X159126706Y-95703524D01*
X159112000Y-95787508D01*
X159172362Y-95921647D01*
X159354194Y-95939729D01*
X159620000Y-95857967D01*
X159797854Y-95814413D01*
X160093017Y-95771186D01*
X160453599Y-95735279D01*
X160614833Y-95723894D01*
X160981416Y-95699413D01*
X161210971Y-95673648D01*
X161335544Y-95635967D01*
X161387182Y-95575740D01*
X161397933Y-95482335D01*
X161398000Y-95464091D01*
X161398000Y-95252394D01*
X160498289Y-95310561D01*
G37*
X160498289Y-95310561D02*
X159928870Y-95364995D01*
X159517141Y-95446337D01*
X159253089Y-95558032D01*
X159126706Y-95703524D01*
X159112000Y-95787508D01*
X159172362Y-95921647D01*
X159354194Y-95939729D01*
X159620000Y-95857967D01*
X159797854Y-95814413D01*
X160093017Y-95771186D01*
X160453599Y-95735279D01*
X160614833Y-95723894D01*
X160981416Y-95699413D01*
X161210971Y-95673648D01*
X161335544Y-95635967D01*
X161387182Y-95575740D01*
X161397933Y-95482335D01*
X161398000Y-95464091D01*
X161398000Y-95252394D01*
X160498289Y-95310561D01*
G36*
X162016125Y-95384443D02*
G01*
X161906464Y-95467912D01*
X161880113Y-95536513D01*
X161860913Y-95626924D01*
X161878965Y-95689791D01*
X161962835Y-95737259D01*
X162141090Y-95781477D01*
X162442295Y-95834592D01*
X162668000Y-95871556D01*
X163176903Y-95972184D01*
X163700699Y-96105359D01*
X164167309Y-96251688D01*
X164371574Y-96329955D01*
X164511820Y-96321152D01*
X164564067Y-96243748D01*
X164598021Y-96153290D01*
X164589778Y-96092869D01*
X164507999Y-96030196D01*
X164321342Y-95932985D01*
X164206315Y-95875191D01*
X163873369Y-95735784D01*
X163451990Y-95599094D01*
X163002232Y-95480803D01*
X162584152Y-95396592D01*
X162257804Y-95362143D01*
X162240998Y-95362000D01*
X162016125Y-95384443D01*
G37*
X162016125Y-95384443D02*
X161906464Y-95467912D01*
X161880113Y-95536513D01*
X161860913Y-95626924D01*
X161878965Y-95689791D01*
X161962835Y-95737259D01*
X162141090Y-95781477D01*
X162442295Y-95834592D01*
X162668000Y-95871556D01*
X163176903Y-95972184D01*
X163700699Y-96105359D01*
X164167309Y-96251688D01*
X164371574Y-96329955D01*
X164511820Y-96321152D01*
X164564067Y-96243748D01*
X164598021Y-96153290D01*
X164589778Y-96092869D01*
X164507999Y-96030196D01*
X164321342Y-95932985D01*
X164206315Y-95875191D01*
X163873369Y-95735784D01*
X163451990Y-95599094D01*
X163002232Y-95480803D01*
X162584152Y-95396592D01*
X162257804Y-95362143D01*
X162240998Y-95362000D01*
X162016125Y-95384443D01*
G36*
X155640666Y-95781590D02*
G01*
X155327082Y-95821934D01*
X155080677Y-95852271D01*
X154948073Y-95866889D01*
X154940553Y-95867386D01*
X154889563Y-95935361D01*
X154917276Y-96107497D01*
X155007604Y-96347641D01*
X155144459Y-96619639D01*
X155311754Y-96887336D01*
X155493401Y-97114579D01*
X155497421Y-97118834D01*
X155645093Y-97263182D01*
X155779908Y-97344353D01*
X155956227Y-97378970D01*
X156228409Y-97383656D01*
X156355775Y-97381314D01*
X156696273Y-97369662D01*
X157001955Y-97351616D01*
X157196111Y-97332366D01*
X157373016Y-97262558D01*
X157628783Y-97108981D01*
X157916211Y-96900924D01*
X158000145Y-96833427D01*
X158280501Y-96614598D01*
X158533684Y-96438806D01*
X158716235Y-96335566D01*
X158751867Y-96322864D01*
X158910226Y-96260561D01*
X158911422Y-96189351D01*
X158751721Y-96105317D01*
X158455833Y-96012306D01*
X157887345Y-95888348D01*
X157243111Y-95800320D01*
X156587347Y-95753485D01*
X155984269Y-95753105D01*
X155640666Y-95781590D01*
G37*
X155640666Y-95781590D02*
X155327082Y-95821934D01*
X155080677Y-95852271D01*
X154948073Y-95866889D01*
X154940553Y-95867386D01*
X154889563Y-95935361D01*
X154917276Y-96107497D01*
X155007604Y-96347641D01*
X155144459Y-96619639D01*
X155311754Y-96887336D01*
X155493401Y-97114579D01*
X155497421Y-97118834D01*
X155645093Y-97263182D01*
X155779908Y-97344353D01*
X155956227Y-97378970D01*
X156228409Y-97383656D01*
X156355775Y-97381314D01*
X156696273Y-97369662D01*
X157001955Y-97351616D01*
X157196111Y-97332366D01*
X157373016Y-97262558D01*
X157628783Y-97108981D01*
X157916211Y-96900924D01*
X158000145Y-96833427D01*
X158280501Y-96614598D01*
X158533684Y-96438806D01*
X158716235Y-96335566D01*
X158751867Y-96322864D01*
X158910226Y-96260561D01*
X158911422Y-96189351D01*
X158751721Y-96105317D01*
X158455833Y-96012306D01*
X157887345Y-95888348D01*
X157243111Y-95800320D01*
X156587347Y-95753485D01*
X155984269Y-95753105D01*
X155640666Y-95781590D01*
G36*
X156262450Y-84969167D02*
G01*
X155957239Y-85492033D01*
X155680259Y-86135803D01*
X155445562Y-86852644D01*
X155267200Y-87594722D01*
X155159223Y-88314203D01*
X155132880Y-88814481D01*
X155161446Y-89394986D01*
X155257553Y-89860992D01*
X155436271Y-90259003D01*
X155712672Y-90635518D01*
X155729264Y-90654541D01*
X156128919Y-90993992D01*
X156594754Y-91177613D01*
X156947008Y-91213334D01*
X157247156Y-91191744D01*
X157704036Y-91127782D01*
X158310749Y-91022654D01*
X159060399Y-90877567D01*
X159946087Y-90693730D01*
X160085666Y-90663870D01*
X160805031Y-90510589D01*
X161554678Y-90352914D01*
X162311466Y-90195539D01*
X163052253Y-90043156D01*
X163753897Y-89900459D01*
X164393256Y-89772141D01*
X164947188Y-89662895D01*
X165392552Y-89577413D01*
X165706206Y-89520390D01*
X165800666Y-89504888D01*
X166197730Y-89462241D01*
X166617172Y-89446828D01*
X167017949Y-89456767D01*
X167359016Y-89490170D01*
X167599329Y-89545154D01*
X167681774Y-89591281D01*
X167719857Y-89672676D01*
X167667286Y-89779695D01*
X167504846Y-89941946D01*
X167389016Y-90042366D01*
X167121163Y-90293976D01*
X166841954Y-90596993D01*
X166571592Y-90923869D01*
X166330278Y-91247054D01*
X166138216Y-91539000D01*
X166015607Y-91772157D01*
X165982653Y-91918977D01*
X165994763Y-91943652D01*
X166081313Y-91927865D01*
X166293366Y-91861675D01*
X166598519Y-91755832D01*
X166944495Y-91628583D01*
X167491280Y-91430496D01*
X167907066Y-91299749D01*
X168213858Y-91231131D01*
X168433660Y-91219429D01*
X168558499Y-91246317D01*
X168607735Y-91295503D01*
X168572062Y-91391424D01*
X168437153Y-91556684D01*
X168216489Y-91785962D01*
X167917150Y-92114159D01*
X167601305Y-92502514D01*
X167344512Y-92856621D01*
X167095449Y-93269421D01*
X166825925Y-93780026D01*
X166558775Y-94338740D01*
X166316834Y-94895870D01*
X166122938Y-95401720D01*
X166012905Y-95754462D01*
X165896233Y-96288581D01*
X165814533Y-96841417D01*
X165769297Y-97378145D01*
X165762018Y-97863941D01*
X165794192Y-98263980D01*
X165867311Y-98543436D01*
X165891327Y-98589032D01*
X165923083Y-98643350D01*
X165952382Y-98666959D01*
X165996854Y-98639467D01*
X166074128Y-98540488D01*
X166201834Y-98349631D01*
X166397601Y-98046508D01*
X166506312Y-97877788D01*
X166740547Y-97526155D01*
X166923329Y-97288218D01*
X167086891Y-97130466D01*
X167263469Y-97019389D01*
X167387259Y-96961983D01*
X167748698Y-96848756D01*
X168077890Y-96851294D01*
X168422867Y-96976808D01*
X168732751Y-97164006D01*
X169100592Y-97494586D01*
X169368494Y-97902431D01*
X169509116Y-98340806D01*
X169523615Y-98515834D01*
X169539275Y-98704376D01*
X169602158Y-98803564D01*
X169741416Y-98819607D01*
X169986202Y-98758714D01*
X170246656Y-98669828D01*
X170910327Y-98396249D01*
X171490624Y-98067638D01*
X172039781Y-97649886D01*
X172561858Y-97158061D01*
X172977199Y-96672225D01*
X173257077Y-96177371D01*
X173421634Y-95625986D01*
X173491015Y-94970555D01*
X173491196Y-94965909D01*
X173472664Y-94346344D01*
X173381247Y-93669600D01*
X173229599Y-92993013D01*
X173030374Y-92373921D01*
X172815305Y-91903276D01*
X172687098Y-91662126D01*
X172606091Y-91488019D01*
X172589613Y-91424208D01*
X172677370Y-91383917D01*
X172877162Y-91306320D01*
X173082000Y-91231238D01*
X173413247Y-91106659D01*
X173805648Y-90950852D01*
X174117874Y-90821306D01*
X174413819Y-90689173D01*
X174585159Y-90588136D01*
X174665511Y-90488957D01*
X174688487Y-90362393D01*
X174689201Y-90324334D01*
X174680666Y-90216337D01*
X174637964Y-90123587D01*
X174537060Y-90027647D01*
X174353917Y-89910086D01*
X174064500Y-89752467D01*
X173695660Y-89562334D01*
X173286043Y-89343584D01*
X172964370Y-89152528D01*
X172753090Y-89003437D01*
X172675021Y-88913413D01*
X172698338Y-88782686D01*
X172781502Y-88536870D01*
X172910750Y-88213374D01*
X173043134Y-87912749D01*
X173197072Y-87565227D01*
X173314719Y-87276850D01*
X173383417Y-87080261D01*
X173393450Y-87009228D01*
X173305182Y-87026939D01*
X173091593Y-87105050D01*
X172780790Y-87232308D01*
X172400879Y-87397461D01*
X172215781Y-87480726D01*
X171812434Y-87662434D01*
X171464803Y-87816048D01*
X171201452Y-87929176D01*
X171050942Y-87989431D01*
X171027889Y-87996000D01*
X170956939Y-87931895D01*
X170816549Y-87761675D01*
X170633618Y-87518481D01*
X170580801Y-87445137D01*
X170265193Y-87057830D01*
X169860013Y-86640293D01*
X169407571Y-86229825D01*
X168950178Y-85863722D01*
X168530142Y-85579282D01*
X168355197Y-85483193D01*
X167880398Y-85314263D01*
X167276882Y-85202898D01*
X166575122Y-85148932D01*
X165805590Y-85152201D01*
X164998759Y-85212541D01*
X164185103Y-85329788D01*
X163395092Y-85503777D01*
X163371330Y-85510070D01*
X162893635Y-85638536D01*
X162557609Y-85725721D01*
X162339986Y-85768685D01*
X162217500Y-85764486D01*
X162166884Y-85710183D01*
X162164873Y-85602835D01*
X162188200Y-85439502D01*
X162198904Y-85361863D01*
X162239420Y-85075717D01*
X162279620Y-84842651D01*
X162298830Y-84757500D01*
X162302811Y-84701738D01*
X162262553Y-84662004D01*
X162154633Y-84635635D01*
X161955626Y-84619971D01*
X161642110Y-84612350D01*
X161190660Y-84610110D01*
X161001539Y-84610102D01*
X159662333Y-84610870D01*
X159214936Y-85288059D01*
X159015370Y-85595439D01*
X158850467Y-85859294D01*
X158743864Y-86041320D01*
X158719045Y-86091624D01*
X158628860Y-86222305D01*
X158531374Y-86214665D01*
X158444983Y-86097758D01*
X158388086Y-85900634D01*
X158379078Y-85652347D01*
X158388796Y-85570104D01*
X158424903Y-85326064D01*
X158465973Y-85029594D01*
X158474001Y-84969167D01*
X158521334Y-84609334D01*
X156516039Y-84609334D01*
X156262450Y-84969167D01*
G37*
X156262450Y-84969167D02*
X155957239Y-85492033D01*
X155680259Y-86135803D01*
X155445562Y-86852644D01*
X155267200Y-87594722D01*
X155159223Y-88314203D01*
X155132880Y-88814481D01*
X155161446Y-89394986D01*
X155257553Y-89860992D01*
X155436271Y-90259003D01*
X155712672Y-90635518D01*
X155729264Y-90654541D01*
X156128919Y-90993992D01*
X156594754Y-91177613D01*
X156947008Y-91213334D01*
X157247156Y-91191744D01*
X157704036Y-91127782D01*
X158310749Y-91022654D01*
X159060399Y-90877567D01*
X159946087Y-90693730D01*
X160085666Y-90663870D01*
X160805031Y-90510589D01*
X161554678Y-90352914D01*
X162311466Y-90195539D01*
X163052253Y-90043156D01*
X163753897Y-89900459D01*
X164393256Y-89772141D01*
X164947188Y-89662895D01*
X165392552Y-89577413D01*
X165706206Y-89520390D01*
X165800666Y-89504888D01*
X166197730Y-89462241D01*
X166617172Y-89446828D01*
X167017949Y-89456767D01*
X167359016Y-89490170D01*
X167599329Y-89545154D01*
X167681774Y-89591281D01*
X167719857Y-89672676D01*
X167667286Y-89779695D01*
X167504846Y-89941946D01*
X167389016Y-90042366D01*
X167121163Y-90293976D01*
X166841954Y-90596993D01*
X166571592Y-90923869D01*
X166330278Y-91247054D01*
X166138216Y-91539000D01*
X166015607Y-91772157D01*
X165982653Y-91918977D01*
X165994763Y-91943652D01*
X166081313Y-91927865D01*
X166293366Y-91861675D01*
X166598519Y-91755832D01*
X166944495Y-91628583D01*
X167491280Y-91430496D01*
X167907066Y-91299749D01*
X168213858Y-91231131D01*
X168433660Y-91219429D01*
X168558499Y-91246317D01*
X168607735Y-91295503D01*
X168572062Y-91391424D01*
X168437153Y-91556684D01*
X168216489Y-91785962D01*
X167917150Y-92114159D01*
X167601305Y-92502514D01*
X167344512Y-92856621D01*
X167095449Y-93269421D01*
X166825925Y-93780026D01*
X166558775Y-94338740D01*
X166316834Y-94895870D01*
X166122938Y-95401720D01*
X166012905Y-95754462D01*
X165896233Y-96288581D01*
X165814533Y-96841417D01*
X165769297Y-97378145D01*
X165762018Y-97863941D01*
X165794192Y-98263980D01*
X165867311Y-98543436D01*
X165891327Y-98589032D01*
X165923083Y-98643350D01*
X165952382Y-98666959D01*
X165996854Y-98639467D01*
X166074128Y-98540488D01*
X166201834Y-98349631D01*
X166397601Y-98046508D01*
X166506312Y-97877788D01*
X166740547Y-97526155D01*
X166923329Y-97288218D01*
X167086891Y-97130466D01*
X167263469Y-97019389D01*
X167387259Y-96961983D01*
X167748698Y-96848756D01*
X168077890Y-96851294D01*
X168422867Y-96976808D01*
X168732751Y-97164006D01*
X169100592Y-97494586D01*
X169368494Y-97902431D01*
X169509116Y-98340806D01*
X169523615Y-98515834D01*
X169539275Y-98704376D01*
X169602158Y-98803564D01*
X169741416Y-98819607D01*
X169986202Y-98758714D01*
X170246656Y-98669828D01*
X170910327Y-98396249D01*
X171490624Y-98067638D01*
X172039781Y-97649886D01*
X172561858Y-97158061D01*
X172977199Y-96672225D01*
X173257077Y-96177371D01*
X173421634Y-95625986D01*
X173491015Y-94970555D01*
X173491196Y-94965909D01*
X173472664Y-94346344D01*
X173381247Y-93669600D01*
X173229599Y-92993013D01*
X173030374Y-92373921D01*
X172815305Y-91903276D01*
X172687098Y-91662126D01*
X172606091Y-91488019D01*
X172589613Y-91424208D01*
X172677370Y-91383917D01*
X172877162Y-91306320D01*
X173082000Y-91231238D01*
X173413247Y-91106659D01*
X173805648Y-90950852D01*
X174117874Y-90821306D01*
X174413819Y-90689173D01*
X174585159Y-90588136D01*
X174665511Y-90488957D01*
X174688487Y-90362393D01*
X174689201Y-90324334D01*
X174680666Y-90216337D01*
X174637964Y-90123587D01*
X174537060Y-90027647D01*
X174353917Y-89910086D01*
X174064500Y-89752467D01*
X173695660Y-89562334D01*
X173286043Y-89343584D01*
X172964370Y-89152528D01*
X172753090Y-89003437D01*
X172675021Y-88913413D01*
X172698338Y-88782686D01*
X172781502Y-88536870D01*
X172910750Y-88213374D01*
X173043134Y-87912749D01*
X173197072Y-87565227D01*
X173314719Y-87276850D01*
X173383417Y-87080261D01*
X173393450Y-87009228D01*
X173305182Y-87026939D01*
X173091593Y-87105050D01*
X172780790Y-87232308D01*
X172400879Y-87397461D01*
X172215781Y-87480726D01*
X171812434Y-87662434D01*
X171464803Y-87816048D01*
X171201452Y-87929176D01*
X171050942Y-87989431D01*
X171027889Y-87996000D01*
X170956939Y-87931895D01*
X170816549Y-87761675D01*
X170633618Y-87518481D01*
X170580801Y-87445137D01*
X170265193Y-87057830D01*
X169860013Y-86640293D01*
X169407571Y-86229825D01*
X168950178Y-85863722D01*
X168530142Y-85579282D01*
X168355197Y-85483193D01*
X167880398Y-85314263D01*
X167276882Y-85202898D01*
X166575122Y-85148932D01*
X165805590Y-85152201D01*
X164998759Y-85212541D01*
X164185103Y-85329788D01*
X163395092Y-85503777D01*
X163371330Y-85510070D01*
X162893635Y-85638536D01*
X162557609Y-85725721D01*
X162339986Y-85768685D01*
X162217500Y-85764486D01*
X162166884Y-85710183D01*
X162164873Y-85602835D01*
X162188200Y-85439502D01*
X162198904Y-85361863D01*
X162239420Y-85075717D01*
X162279620Y-84842651D01*
X162298830Y-84757500D01*
X162302811Y-84701738D01*
X162262553Y-84662004D01*
X162154633Y-84635635D01*
X161955626Y-84619971D01*
X161642110Y-84612350D01*
X161190660Y-84610110D01*
X161001539Y-84610102D01*
X159662333Y-84610870D01*
X159214936Y-85288059D01*
X159015370Y-85595439D01*
X158850467Y-85859294D01*
X158743864Y-86041320D01*
X158719045Y-86091624D01*
X158628860Y-86222305D01*
X158531374Y-86214665D01*
X158444983Y-86097758D01*
X158388086Y-85900634D01*
X158379078Y-85652347D01*
X158388796Y-85570104D01*
X158424903Y-85326064D01*
X158465973Y-85029594D01*
X158474001Y-84969167D01*
X158521334Y-84609334D01*
X156516039Y-84609334D01*
X156262450Y-84969167D01*
G36*
X166452180Y-89576129D02*
G01*
X166168246Y-89597227D01*
X165837477Y-89635691D01*
X165442558Y-89694475D01*
X164966176Y-89776531D01*
X164391015Y-89884814D01*
X163699761Y-90022277D01*
X162875101Y-90191874D01*
X162075333Y-90359493D01*
X161325847Y-90517669D01*
X160720978Y-90645714D01*
X160239603Y-90748174D01*
X159860594Y-90829598D01*
X159562828Y-90894535D01*
X159325177Y-90947532D01*
X159126516Y-90993136D01*
X159064257Y-91007729D01*
X158744758Y-91074560D01*
X158454298Y-91121206D01*
X158302257Y-91135174D01*
X158052504Y-91164938D01*
X157764438Y-91229461D01*
X157723800Y-91241251D01*
X157515310Y-91322262D01*
X157391993Y-91441148D01*
X157303416Y-91654275D01*
X157277537Y-91740003D01*
X157141269Y-92060605D01*
X156913718Y-92336517D01*
X156774811Y-92459427D01*
X156477603Y-92743253D01*
X156262162Y-93024253D01*
X156155453Y-93265117D01*
X156148666Y-93325796D01*
X156221866Y-93393094D01*
X156381500Y-93423417D01*
X156505412Y-93434266D01*
X156488086Y-93459642D01*
X156318375Y-93510307D01*
X156281291Y-93520170D01*
X156018821Y-93637113D01*
X155725668Y-93840353D01*
X155437709Y-94094927D01*
X155190820Y-94365872D01*
X155020878Y-94618228D01*
X154963333Y-94804524D01*
X154981108Y-94970972D01*
X155069927Y-95011544D01*
X155196166Y-94989226D01*
X155809846Y-94900020D01*
X156523944Y-94884810D01*
X157286753Y-94943215D01*
X157715000Y-95007768D01*
X158104027Y-95080040D01*
X158439460Y-95147342D01*
X158681099Y-95201304D01*
X158780973Y-95229695D01*
X158873882Y-95221515D01*
X158981453Y-95106715D01*
X159122009Y-94863031D01*
X159183960Y-94739979D01*
X159338465Y-94472484D01*
X159534494Y-94196841D01*
X159744925Y-93943389D01*
X159942636Y-93742469D01*
X160100506Y-93624418D01*
X160188494Y-93616272D01*
X160159789Y-93693020D01*
X160032663Y-93829047D01*
X159977985Y-93877070D01*
X159765528Y-94089620D01*
X159565557Y-94347748D01*
X159392608Y-94622018D01*
X159261213Y-94882994D01*
X159185907Y-95101238D01*
X159181224Y-95247316D01*
X159261697Y-95291791D01*
X159281333Y-95288049D01*
X159641437Y-95226061D01*
X160123796Y-95182405D01*
X160682152Y-95158755D01*
X161270246Y-95156787D01*
X161841821Y-95178175D01*
X162003943Y-95189458D01*
X162558470Y-95244141D01*
X163035442Y-95321855D01*
X163492175Y-95436930D01*
X163985983Y-95603701D01*
X164547600Y-95825523D01*
X164627144Y-95837228D01*
X164675016Y-95769115D01*
X164702671Y-95589047D01*
X164717667Y-95348268D01*
X164732834Y-95062782D01*
X164747379Y-94932151D01*
X164768583Y-94942081D01*
X164803727Y-95078277D01*
X164819567Y-95148239D01*
X164846274Y-95537011D01*
X164785450Y-96007558D01*
X164648011Y-96503881D01*
X164476056Y-96910227D01*
X164336923Y-97159164D01*
X164247859Y-97271602D01*
X164220190Y-97245547D01*
X164265239Y-97079003D01*
X164320582Y-96937606D01*
X164393068Y-96721911D01*
X164411966Y-96571626D01*
X164405364Y-96550080D01*
X164286459Y-96471029D01*
X164028767Y-96370135D01*
X163660015Y-96256324D01*
X163207930Y-96138519D01*
X162922000Y-96072655D01*
X162380184Y-95989128D01*
X161679362Y-95941217D01*
X161059333Y-95928983D01*
X160396832Y-95936938D01*
X159890957Y-95970062D01*
X159530033Y-96034868D01*
X159302384Y-96137867D01*
X159196335Y-96285574D01*
X159200210Y-96484499D01*
X159302332Y-96741155D01*
X159372838Y-96869673D01*
X159477770Y-97061879D01*
X159532891Y-97185067D01*
X159535333Y-97197540D01*
X159495486Y-97216018D01*
X159397415Y-97128523D01*
X159273324Y-96972249D01*
X159155421Y-96784388D01*
X159123323Y-96721724D01*
X158999470Y-96526646D01*
X158855344Y-96454672D01*
X158664795Y-96507865D01*
X158401673Y-96688284D01*
X158280108Y-96788188D01*
X157955630Y-97062102D01*
X157715233Y-97251337D01*
X157513960Y-97374300D01*
X157306854Y-97449398D01*
X157048960Y-97495039D01*
X156695319Y-97529630D01*
X156411375Y-97553338D01*
X155948065Y-97596693D01*
X155616056Y-97640863D01*
X155377487Y-97694228D01*
X155194493Y-97765168D01*
X155035541Y-97857862D01*
X154812820Y-98052365D01*
X154699546Y-98288877D01*
X154686672Y-98603699D01*
X154754147Y-98986977D01*
X154872703Y-99163127D01*
X155114803Y-99322254D01*
X155434710Y-99443249D01*
X155786684Y-99505005D01*
X155884905Y-99508807D01*
X156157480Y-99523316D01*
X156470007Y-99559362D01*
X156781033Y-99609316D01*
X157049105Y-99665548D01*
X157232768Y-99720428D01*
X157290569Y-99766326D01*
X157289962Y-99767425D01*
X157192513Y-99789466D01*
X156985732Y-99778867D01*
X156849096Y-99759999D01*
X156545626Y-99719213D01*
X156164030Y-99680636D01*
X155846707Y-99656623D01*
X155248415Y-99620167D01*
X154876559Y-100221583D01*
X154658537Y-100538499D01*
X154363491Y-100919288D01*
X154035208Y-101309173D01*
X153802685Y-101564942D01*
X153463822Y-101936065D01*
X153242733Y-102218600D01*
X153130736Y-102436577D01*
X153119151Y-102614027D01*
X153199297Y-102774982D01*
X153319061Y-102903742D01*
X153425516Y-102981851D01*
X153573758Y-103046404D01*
X153779438Y-103098696D01*
X154058209Y-103140023D01*
X154425722Y-103171677D01*
X154897628Y-103194955D01*
X155489579Y-103211151D01*
X156217227Y-103221560D01*
X157096223Y-103227476D01*
X157239510Y-103228046D01*
X158001475Y-103235075D01*
X158642345Y-103249757D01*
X159150044Y-103271576D01*
X159512496Y-103300015D01*
X159716010Y-103334069D01*
X159955231Y-103419428D01*
X160037944Y-103477847D01*
X159975869Y-103501696D01*
X159780728Y-103483348D01*
X159556500Y-103437874D01*
X159161183Y-103369713D01*
X158707792Y-103331100D01*
X158230506Y-103320307D01*
X157763505Y-103335607D01*
X157340970Y-103375270D01*
X156997079Y-103437569D01*
X156766014Y-103520775D01*
X156694088Y-103582614D01*
X156661211Y-103784524D01*
X156788780Y-104013487D01*
X157071483Y-104261948D01*
X157257901Y-104384205D01*
X157593923Y-104605928D01*
X157971064Y-104881080D01*
X158294979Y-105139638D01*
X158474407Y-105297351D01*
X158626610Y-105450277D01*
X158767855Y-105623213D01*
X158914408Y-105840954D01*
X159082538Y-106128296D01*
X159288510Y-106510034D01*
X159548592Y-107010966D01*
X159642123Y-107193117D01*
X159891893Y-107674710D01*
X160121298Y-108106713D01*
X160317451Y-108465677D01*
X160467465Y-108728156D01*
X160558452Y-108870702D01*
X160573457Y-108887530D01*
X160712452Y-108932513D01*
X160981579Y-108970237D01*
X161341723Y-108998867D01*
X161753771Y-109016570D01*
X162178607Y-109021510D01*
X162577117Y-109011852D01*
X162837333Y-108993716D01*
X163222794Y-108937666D01*
X163693190Y-108842038D01*
X164200078Y-108719537D01*
X164695016Y-108582867D01*
X165129561Y-108444731D01*
X165455270Y-108317833D01*
X165504333Y-108294294D01*
X165761666Y-108152880D01*
X166049256Y-107977500D01*
X166322955Y-107797257D01*
X166538613Y-107641254D01*
X166652082Y-107538594D01*
X166653269Y-107536902D01*
X166693723Y-107422311D01*
X166751687Y-107192905D01*
X166808943Y-106925942D01*
X166863952Y-106600899D01*
X166870966Y-106385928D01*
X166830007Y-106228722D01*
X166809245Y-106186628D01*
X166766011Y-106021868D01*
X166728893Y-105720318D01*
X166698616Y-105314438D01*
X166675905Y-104836686D01*
X166661485Y-104319522D01*
X166656080Y-103795404D01*
X166660415Y-103296789D01*
X166675214Y-102856139D01*
X166701203Y-102505909D01*
X166723517Y-102347000D01*
X166807471Y-101993867D01*
X166930962Y-101582783D01*
X167048443Y-101252725D01*
X167165259Y-100920763D01*
X167209765Y-100709509D01*
X167186513Y-100635838D01*
X167052378Y-100561482D01*
X166934506Y-100474996D01*
X166831566Y-100384442D01*
X166867529Y-100374585D01*
X166986000Y-100407599D01*
X167488328Y-100472064D01*
X167989348Y-100377820D01*
X168463452Y-100133738D01*
X168883810Y-99750119D01*
X169206102Y-99270144D01*
X169366007Y-98782310D01*
X169364214Y-98438092D01*
X168676019Y-98438092D01*
X168662908Y-98533765D01*
X168619323Y-98489014D01*
X168555909Y-98353167D01*
X168434303Y-98159852D01*
X168273462Y-98002557D01*
X168119642Y-97918219D01*
X168028446Y-97931999D01*
X168039179Y-98024242D01*
X168120364Y-98169364D01*
X168239537Y-98475310D01*
X168231653Y-98824530D01*
X168110728Y-99166641D01*
X167890780Y-99451262D01*
X167731934Y-99565458D01*
X167521759Y-99647301D01*
X167319521Y-99674368D01*
X167182469Y-99643693D01*
X167155333Y-99595334D01*
X167228919Y-99535937D01*
X167406271Y-99510675D01*
X167409893Y-99510667D01*
X167692499Y-99434699D01*
X167917978Y-99234614D01*
X168063408Y-98952135D01*
X168105865Y-98628987D01*
X168044632Y-98355324D01*
X167884635Y-98130514D01*
X167672399Y-98056408D01*
X167433419Y-98133273D01*
X167204742Y-98346500D01*
X167059999Y-98505847D01*
X166992698Y-98517308D01*
X166986939Y-98482880D01*
X167062662Y-98260851D01*
X167263346Y-98062913D01*
X167544653Y-97909768D01*
X167862245Y-97822117D01*
X168171783Y-97820661D01*
X168317145Y-97861803D01*
X168558055Y-98023187D01*
X168665435Y-98266524D01*
X168676019Y-98438092D01*
X169364214Y-98438092D01*
X169363497Y-98300639D01*
X169198546Y-97839154D01*
X168888331Y-97429138D01*
X168514671Y-97131833D01*
X168115544Y-96990117D01*
X167651395Y-96990832D01*
X167595102Y-96998974D01*
X167350114Y-97082508D01*
X167104264Y-97266292D01*
X166841097Y-97567437D01*
X166544157Y-98003057D01*
X166396106Y-98245877D01*
X166191538Y-98580866D01*
X166048575Y-98782686D01*
X165948254Y-98867104D01*
X165871610Y-98849888D01*
X165799677Y-98746805D01*
X165797801Y-98743313D01*
X165710290Y-98467432D01*
X165661915Y-98064068D01*
X165653338Y-97570642D01*
X165685222Y-97024575D01*
X165757499Y-96467637D01*
X165955932Y-95618315D01*
X166262500Y-94736747D01*
X166657413Y-93861185D01*
X167120886Y-93029880D01*
X167633130Y-92281084D01*
X168174358Y-91653049D01*
X168322147Y-91509837D01*
X168459843Y-91371476D01*
X168476113Y-91310713D01*
X168392184Y-91298000D01*
X168233591Y-91326854D01*
X167956203Y-91404686D01*
X167598768Y-91518400D01*
X167200036Y-91654900D01*
X166798757Y-91801091D01*
X166433681Y-91943876D01*
X166246829Y-92023040D01*
X166001859Y-92118846D01*
X165825563Y-92164738D01*
X165766340Y-92157622D01*
X165778663Y-92041322D01*
X165868040Y-91826117D01*
X166013226Y-91550982D01*
X166192981Y-91254895D01*
X166386061Y-90976833D01*
X166464377Y-90876802D01*
X166701366Y-90605784D01*
X166990314Y-90300790D01*
X167195342Y-90098366D01*
X167395945Y-89890990D01*
X167523781Y-89725025D01*
X167552390Y-89635071D01*
X167550936Y-89633380D01*
X167442317Y-89604766D01*
X167206059Y-89582853D01*
X166883820Y-89570795D01*
X166706594Y-89569442D01*
X166452180Y-89576129D01*
G37*
X166452180Y-89576129D02*
X166168246Y-89597227D01*
X165837477Y-89635691D01*
X165442558Y-89694475D01*
X164966176Y-89776531D01*
X164391015Y-89884814D01*
X163699761Y-90022277D01*
X162875101Y-90191874D01*
X162075333Y-90359493D01*
X161325847Y-90517669D01*
X160720978Y-90645714D01*
X160239603Y-90748174D01*
X159860594Y-90829598D01*
X159562828Y-90894535D01*
X159325177Y-90947532D01*
X159126516Y-90993136D01*
X159064257Y-91007729D01*
X158744758Y-91074560D01*
X158454298Y-91121206D01*
X158302257Y-91135174D01*
X158052504Y-91164938D01*
X157764438Y-91229461D01*
X157723800Y-91241251D01*
X157515310Y-91322262D01*
X157391993Y-91441148D01*
X157303416Y-91654275D01*
X157277537Y-91740003D01*
X157141269Y-92060605D01*
X156913718Y-92336517D01*
X156774811Y-92459427D01*
X156477603Y-92743253D01*
X156262162Y-93024253D01*
X156155453Y-93265117D01*
X156148666Y-93325796D01*
X156221866Y-93393094D01*
X156381500Y-93423417D01*
X156505412Y-93434266D01*
X156488086Y-93459642D01*
X156318375Y-93510307D01*
X156281291Y-93520170D01*
X156018821Y-93637113D01*
X155725668Y-93840353D01*
X155437709Y-94094927D01*
X155190820Y-94365872D01*
X155020878Y-94618228D01*
X154963333Y-94804524D01*
X154981108Y-94970972D01*
X155069927Y-95011544D01*
X155196166Y-94989226D01*
X155809846Y-94900020D01*
X156523944Y-94884810D01*
X157286753Y-94943215D01*
X157715000Y-95007768D01*
X158104027Y-95080040D01*
X158439460Y-95147342D01*
X158681099Y-95201304D01*
X158780973Y-95229695D01*
X158873882Y-95221515D01*
X158981453Y-95106715D01*
X159122009Y-94863031D01*
X159183960Y-94739979D01*
X159338465Y-94472484D01*
X159534494Y-94196841D01*
X159744925Y-93943389D01*
X159942636Y-93742469D01*
X160100506Y-93624418D01*
X160188494Y-93616272D01*
X160159789Y-93693020D01*
X160032663Y-93829047D01*
X159977985Y-93877070D01*
X159765528Y-94089620D01*
X159565557Y-94347748D01*
X159392608Y-94622018D01*
X159261213Y-94882994D01*
X159185907Y-95101238D01*
X159181224Y-95247316D01*
X159261697Y-95291791D01*
X159281333Y-95288049D01*
X159641437Y-95226061D01*
X160123796Y-95182405D01*
X160682152Y-95158755D01*
X161270246Y-95156787D01*
X161841821Y-95178175D01*
X162003943Y-95189458D01*
X162558470Y-95244141D01*
X163035442Y-95321855D01*
X163492175Y-95436930D01*
X163985983Y-95603701D01*
X164547600Y-95825523D01*
X164627144Y-95837228D01*
X164675016Y-95769115D01*
X164702671Y-95589047D01*
X164717667Y-95348268D01*
X164732834Y-95062782D01*
X164747379Y-94932151D01*
X164768583Y-94942081D01*
X164803727Y-95078277D01*
X164819567Y-95148239D01*
X164846274Y-95537011D01*
X164785450Y-96007558D01*
X164648011Y-96503881D01*
X164476056Y-96910227D01*
X164336923Y-97159164D01*
X164247859Y-97271602D01*
X164220190Y-97245547D01*
X164265239Y-97079003D01*
X164320582Y-96937606D01*
X164393068Y-96721911D01*
X164411966Y-96571626D01*
X164405364Y-96550080D01*
X164286459Y-96471029D01*
X164028767Y-96370135D01*
X163660015Y-96256324D01*
X163207930Y-96138519D01*
X162922000Y-96072655D01*
X162380184Y-95989128D01*
X161679362Y-95941217D01*
X161059333Y-95928983D01*
X160396832Y-95936938D01*
X159890957Y-95970062D01*
X159530033Y-96034868D01*
X159302384Y-96137867D01*
X159196335Y-96285574D01*
X159200210Y-96484499D01*
X159302332Y-96741155D01*
X159372838Y-96869673D01*
X159477770Y-97061879D01*
X159532891Y-97185067D01*
X159535333Y-97197540D01*
X159495486Y-97216018D01*
X159397415Y-97128523D01*
X159273324Y-96972249D01*
X159155421Y-96784388D01*
X159123323Y-96721724D01*
X158999470Y-96526646D01*
X158855344Y-96454672D01*
X158664795Y-96507865D01*
X158401673Y-96688284D01*
X158280108Y-96788188D01*
X157955630Y-97062102D01*
X157715233Y-97251337D01*
X157513960Y-97374300D01*
X157306854Y-97449398D01*
X157048960Y-97495039D01*
X156695319Y-97529630D01*
X156411375Y-97553338D01*
X155948065Y-97596693D01*
X155616056Y-97640863D01*
X155377487Y-97694228D01*
X155194493Y-97765168D01*
X155035541Y-97857862D01*
X154812820Y-98052365D01*
X154699546Y-98288877D01*
X154686672Y-98603699D01*
X154754147Y-98986977D01*
X154872703Y-99163127D01*
X155114803Y-99322254D01*
X155434710Y-99443249D01*
X155786684Y-99505005D01*
X155884905Y-99508807D01*
X156157480Y-99523316D01*
X156470007Y-99559362D01*
X156781033Y-99609316D01*
X157049105Y-99665548D01*
X157232768Y-99720428D01*
X157290569Y-99766326D01*
X157289962Y-99767425D01*
X157192513Y-99789466D01*
X156985732Y-99778867D01*
X156849096Y-99759999D01*
X156545626Y-99719213D01*
X156164030Y-99680636D01*
X155846707Y-99656623D01*
X155248415Y-99620167D01*
X154876559Y-100221583D01*
X154658537Y-100538499D01*
X154363491Y-100919288D01*
X154035208Y-101309173D01*
X153802685Y-101564942D01*
X153463822Y-101936065D01*
X153242733Y-102218600D01*
X153130736Y-102436577D01*
X153119151Y-102614027D01*
X153199297Y-102774982D01*
X153319061Y-102903742D01*
X153425516Y-102981851D01*
X153573758Y-103046404D01*
X153779438Y-103098696D01*
X154058209Y-103140023D01*
X154425722Y-103171677D01*
X154897628Y-103194955D01*
X155489579Y-103211151D01*
X156217227Y-103221560D01*
X157096223Y-103227476D01*
X157239510Y-103228046D01*
X158001475Y-103235075D01*
X158642345Y-103249757D01*
X159150044Y-103271576D01*
X159512496Y-103300015D01*
X159716010Y-103334069D01*
X159955231Y-103419428D01*
X160037944Y-103477847D01*
X159975869Y-103501696D01*
X159780728Y-103483348D01*
X159556500Y-103437874D01*
X159161183Y-103369713D01*
X158707792Y-103331100D01*
X158230506Y-103320307D01*
X157763505Y-103335607D01*
X157340970Y-103375270D01*
X156997079Y-103437569D01*
X156766014Y-103520775D01*
X156694088Y-103582614D01*
X156661211Y-103784524D01*
X156788780Y-104013487D01*
X157071483Y-104261948D01*
X157257901Y-104384205D01*
X157593923Y-104605928D01*
X157971064Y-104881080D01*
X158294979Y-105139638D01*
X158474407Y-105297351D01*
X158626610Y-105450277D01*
X158767855Y-105623213D01*
X158914408Y-105840954D01*
X159082538Y-106128296D01*
X159288510Y-106510034D01*
X159548592Y-107010966D01*
X159642123Y-107193117D01*
X159891893Y-107674710D01*
X160121298Y-108106713D01*
X160317451Y-108465677D01*
X160467465Y-108728156D01*
X160558452Y-108870702D01*
X160573457Y-108887530D01*
X160712452Y-108932513D01*
X160981579Y-108970237D01*
X161341723Y-108998867D01*
X161753771Y-109016570D01*
X162178607Y-109021510D01*
X162577117Y-109011852D01*
X162837333Y-108993716D01*
X163222794Y-108937666D01*
X163693190Y-108842038D01*
X164200078Y-108719537D01*
X164695016Y-108582867D01*
X165129561Y-108444731D01*
X165455270Y-108317833D01*
X165504333Y-108294294D01*
X165761666Y-108152880D01*
X166049256Y-107977500D01*
X166322955Y-107797257D01*
X166538613Y-107641254D01*
X166652082Y-107538594D01*
X166653269Y-107536902D01*
X166693723Y-107422311D01*
X166751687Y-107192905D01*
X166808943Y-106925942D01*
X166863952Y-106600899D01*
X166870966Y-106385928D01*
X166830007Y-106228722D01*
X166809245Y-106186628D01*
X166766011Y-106021868D01*
X166728893Y-105720318D01*
X166698616Y-105314438D01*
X166675905Y-104836686D01*
X166661485Y-104319522D01*
X166656080Y-103795404D01*
X166660415Y-103296789D01*
X166675214Y-102856139D01*
X166701203Y-102505909D01*
X166723517Y-102347000D01*
X166807471Y-101993867D01*
X166930962Y-101582783D01*
X167048443Y-101252725D01*
X167165259Y-100920763D01*
X167209765Y-100709509D01*
X167186513Y-100635838D01*
X167052378Y-100561482D01*
X166934506Y-100474996D01*
X166831566Y-100384442D01*
X166867529Y-100374585D01*
X166986000Y-100407599D01*
X167488328Y-100472064D01*
X167989348Y-100377820D01*
X168463452Y-100133738D01*
X168883810Y-99750119D01*
X169206102Y-99270144D01*
X169366007Y-98782310D01*
X169364214Y-98438092D01*
X168676019Y-98438092D01*
X168662908Y-98533765D01*
X168619323Y-98489014D01*
X168555909Y-98353167D01*
X168434303Y-98159852D01*
X168273462Y-98002557D01*
X168119642Y-97918219D01*
X168028446Y-97931999D01*
X168039179Y-98024242D01*
X168120364Y-98169364D01*
X168239537Y-98475310D01*
X168231653Y-98824530D01*
X168110728Y-99166641D01*
X167890780Y-99451262D01*
X167731934Y-99565458D01*
X167521759Y-99647301D01*
X167319521Y-99674368D01*
X167182469Y-99643693D01*
X167155333Y-99595334D01*
X167228919Y-99535937D01*
X167406271Y-99510675D01*
X167409893Y-99510667D01*
X167692499Y-99434699D01*
X167917978Y-99234614D01*
X168063408Y-98952135D01*
X168105865Y-98628987D01*
X168044632Y-98355324D01*
X167884635Y-98130514D01*
X167672399Y-98056408D01*
X167433419Y-98133273D01*
X167204742Y-98346500D01*
X167059999Y-98505847D01*
X166992698Y-98517308D01*
X166986939Y-98482880D01*
X167062662Y-98260851D01*
X167263346Y-98062913D01*
X167544653Y-97909768D01*
X167862245Y-97822117D01*
X168171783Y-97820661D01*
X168317145Y-97861803D01*
X168558055Y-98023187D01*
X168665435Y-98266524D01*
X168676019Y-98438092D01*
X169364214Y-98438092D01*
X169363497Y-98300639D01*
X169198546Y-97839154D01*
X168888331Y-97429138D01*
X168514671Y-97131833D01*
X168115544Y-96990117D01*
X167651395Y-96990832D01*
X167595102Y-96998974D01*
X167350114Y-97082508D01*
X167104264Y-97266292D01*
X166841097Y-97567437D01*
X166544157Y-98003057D01*
X166396106Y-98245877D01*
X166191538Y-98580866D01*
X166048575Y-98782686D01*
X165948254Y-98867104D01*
X165871610Y-98849888D01*
X165799677Y-98746805D01*
X165797801Y-98743313D01*
X165710290Y-98467432D01*
X165661915Y-98064068D01*
X165653338Y-97570642D01*
X165685222Y-97024575D01*
X165757499Y-96467637D01*
X165955932Y-95618315D01*
X166262500Y-94736747D01*
X166657413Y-93861185D01*
X167120886Y-93029880D01*
X167633130Y-92281084D01*
X168174358Y-91653049D01*
X168322147Y-91509837D01*
X168459843Y-91371476D01*
X168476113Y-91310713D01*
X168392184Y-91298000D01*
X168233591Y-91326854D01*
X167956203Y-91404686D01*
X167598768Y-91518400D01*
X167200036Y-91654900D01*
X166798757Y-91801091D01*
X166433681Y-91943876D01*
X166246829Y-92023040D01*
X166001859Y-92118846D01*
X165825563Y-92164738D01*
X165766340Y-92157622D01*
X165778663Y-92041322D01*
X165868040Y-91826117D01*
X166013226Y-91550982D01*
X166192981Y-91254895D01*
X166386061Y-90976833D01*
X166464377Y-90876802D01*
X166701366Y-90605784D01*
X166990314Y-90300790D01*
X167195342Y-90098366D01*
X167395945Y-89890990D01*
X167523781Y-89725025D01*
X167552390Y-89635071D01*
X167550936Y-89633380D01*
X167442317Y-89604766D01*
X167206059Y-89582853D01*
X166883820Y-89570795D01*
X166706594Y-89569442D01*
X166452180Y-89576129D01*
G36*
X156827320Y-109303164D02*
G01*
X156672083Y-109442788D01*
X156614333Y-109501334D01*
X156370986Y-109755334D01*
X156579931Y-109755334D01*
X156758301Y-109703070D01*
X156876850Y-109521664D01*
X156884750Y-109501334D01*
X156933438Y-109328649D01*
X156923653Y-109248103D01*
X156919152Y-109247334D01*
X156827320Y-109303164D01*
G37*
X156827320Y-109303164D02*
X156672083Y-109442788D01*
X156614333Y-109501334D01*
X156370986Y-109755334D01*
X156579931Y-109755334D01*
X156758301Y-109703070D01*
X156876850Y-109521664D01*
X156884750Y-109501334D01*
X156933438Y-109328649D01*
X156923653Y-109248103D01*
X156919152Y-109247334D01*
X156827320Y-109303164D01*
G36*
X158836760Y-106340991D02*
G01*
X158655600Y-106496566D01*
X158580938Y-106581543D01*
X158295095Y-106944774D01*
X158052012Y-107297212D01*
X157828695Y-107679009D01*
X157602153Y-108130319D01*
X157349392Y-108691295D01*
X157277565Y-108857682D01*
X157139766Y-109178961D01*
X157024966Y-109446617D01*
X156951467Y-109617976D01*
X156937946Y-109649500D01*
X156957237Y-109693253D01*
X157071707Y-109723897D01*
X157300741Y-109743239D01*
X157663726Y-109753083D01*
X158074533Y-109755334D01*
X159256517Y-109755334D01*
X159357725Y-109142498D01*
X159436164Y-108773941D01*
X159541246Y-108415424D01*
X159641078Y-108164953D01*
X159823223Y-107800243D01*
X159454629Y-107076816D01*
X159283061Y-106758954D01*
X159126179Y-106501714D01*
X159006918Y-106341188D01*
X158965610Y-106307177D01*
X158836760Y-106340991D01*
G37*
X158836760Y-106340991D02*
X158655600Y-106496566D01*
X158580938Y-106581543D01*
X158295095Y-106944774D01*
X158052012Y-107297212D01*
X157828695Y-107679009D01*
X157602153Y-108130319D01*
X157349392Y-108691295D01*
X157277565Y-108857682D01*
X157139766Y-109178961D01*
X157024966Y-109446617D01*
X156951467Y-109617976D01*
X156937946Y-109649500D01*
X156957237Y-109693253D01*
X157071707Y-109723897D01*
X157300741Y-109743239D01*
X157663726Y-109753083D01*
X158074533Y-109755334D01*
X159256517Y-109755334D01*
X159357725Y-109142498D01*
X159436164Y-108773941D01*
X159541246Y-108415424D01*
X159641078Y-108164953D01*
X159823223Y-107800243D01*
X159454629Y-107076816D01*
X159283061Y-106758954D01*
X159126179Y-106501714D01*
X159006918Y-106341188D01*
X158965610Y-106307177D01*
X158836760Y-106340991D01*
G36*
X166356209Y-108014563D02*
G01*
X166158624Y-108113689D01*
X165886632Y-108255872D01*
X165786001Y-108309505D01*
X165397377Y-108490261D01*
X164905156Y-108678754D01*
X164372214Y-108851731D01*
X164149666Y-108914617D01*
X163725881Y-109024619D01*
X163381660Y-109100419D01*
X163065144Y-109148240D01*
X162724474Y-109174304D01*
X162307794Y-109184833D01*
X161885768Y-109186254D01*
X161368473Y-109183962D01*
X160990998Y-109171054D01*
X160723829Y-109136617D01*
X160537452Y-109069735D01*
X160402355Y-108959495D01*
X160289023Y-108794983D01*
X160167943Y-108565283D01*
X160159026Y-108547687D01*
X160025650Y-108309622D01*
X159928546Y-108207987D01*
X159845288Y-108220377D01*
X159837517Y-108226478D01*
X159737400Y-108385577D01*
X159637726Y-108678544D01*
X159548750Y-109070200D01*
X159496806Y-109395500D01*
X159448665Y-109755334D01*
X165862959Y-109755334D01*
X166170479Y-108951907D01*
X166328508Y-108530198D01*
X166426664Y-108243393D01*
X166470840Y-108070354D01*
X166466930Y-107989945D01*
X166442168Y-107977334D01*
X166356209Y-108014563D01*
G37*
X166356209Y-108014563D02*
X166158624Y-108113689D01*
X165886632Y-108255872D01*
X165786001Y-108309505D01*
X165397377Y-108490261D01*
X164905156Y-108678754D01*
X164372214Y-108851731D01*
X164149666Y-108914617D01*
X163725881Y-109024619D01*
X163381660Y-109100419D01*
X163065144Y-109148240D01*
X162724474Y-109174304D01*
X162307794Y-109184833D01*
X161885768Y-109186254D01*
X161368473Y-109183962D01*
X160990998Y-109171054D01*
X160723829Y-109136617D01*
X160537452Y-109069735D01*
X160402355Y-108959495D01*
X160289023Y-108794983D01*
X160167943Y-108565283D01*
X160159026Y-108547687D01*
X160025650Y-108309622D01*
X159928546Y-108207987D01*
X159845288Y-108220377D01*
X159837517Y-108226478D01*
X159737400Y-108385577D01*
X159637726Y-108678544D01*
X159548750Y-109070200D01*
X159496806Y-109395500D01*
X159448665Y-109755334D01*
X165862959Y-109755334D01*
X166170479Y-108951907D01*
X166328508Y-108530198D01*
X166426664Y-108243393D01*
X166470840Y-108070354D01*
X166466930Y-107989945D01*
X166442168Y-107977334D01*
X166356209Y-108014563D01*
G36*
X166847592Y-104328771D02*
G01*
X166827977Y-104528237D01*
X166819635Y-104804127D01*
X166822625Y-105110170D01*
X166837008Y-105400094D01*
X166862845Y-105627630D01*
X166876541Y-105691334D01*
X166934104Y-105903000D01*
X166993946Y-105691334D01*
X167030419Y-105596354D01*
X167051390Y-105644434D01*
X167061817Y-105848277D01*
X167062227Y-105866284D01*
X167030484Y-106398644D01*
X166920304Y-107045512D01*
X166739696Y-107775793D01*
X166496669Y-108558388D01*
X166199232Y-109362201D01*
X166098769Y-109607167D01*
X166087533Y-109658401D01*
X166117126Y-109696277D01*
X166208703Y-109722796D01*
X166383421Y-109739961D01*
X166662435Y-109749770D01*
X167066899Y-109754226D01*
X167617970Y-109755330D01*
X167665207Y-109755334D01*
X169293865Y-109755334D01*
X169237312Y-109056834D01*
X169159988Y-108237623D01*
X169072546Y-107574338D01*
X168972788Y-107053755D01*
X168858520Y-106662652D01*
X168826075Y-106580334D01*
X168602963Y-106124996D01*
X168318863Y-105654540D01*
X168003378Y-105210043D01*
X167686111Y-104832584D01*
X167396664Y-104563243D01*
X167346500Y-104527167D01*
X167116805Y-104378310D01*
X166943699Y-104278390D01*
X166878418Y-104252000D01*
X166847592Y-104328771D01*
G37*
X166847592Y-104328771D02*
X166827977Y-104528237D01*
X166819635Y-104804127D01*
X166822625Y-105110170D01*
X166837008Y-105400094D01*
X166862845Y-105627630D01*
X166876541Y-105691334D01*
X166934104Y-105903000D01*
X166993946Y-105691334D01*
X167030419Y-105596354D01*
X167051390Y-105644434D01*
X167061817Y-105848277D01*
X167062227Y-105866284D01*
X167030484Y-106398644D01*
X166920304Y-107045512D01*
X166739696Y-107775793D01*
X166496669Y-108558388D01*
X166199232Y-109362201D01*
X166098769Y-109607167D01*
X166087533Y-109658401D01*
X166117126Y-109696277D01*
X166208703Y-109722796D01*
X166383421Y-109739961D01*
X166662435Y-109749770D01*
X167066899Y-109754226D01*
X167617970Y-109755330D01*
X167665207Y-109755334D01*
X169293865Y-109755334D01*
X169237312Y-109056834D01*
X169159988Y-108237623D01*
X169072546Y-107574338D01*
X168972788Y-107053755D01*
X168858520Y-106662652D01*
X168826075Y-106580334D01*
X168602963Y-106124996D01*
X168318863Y-105654540D01*
X168003378Y-105210043D01*
X167686111Y-104832584D01*
X167396664Y-104563243D01*
X167346500Y-104527167D01*
X167116805Y-104378310D01*
X166943699Y-104278390D01*
X166878418Y-104252000D01*
X166847592Y-104328771D01*
G36*
X169234185Y-107232555D02*
G01*
X169196216Y-107309284D01*
X169195219Y-107483121D01*
X169219277Y-107744500D01*
X169252915Y-108091518D01*
X169290326Y-108522645D01*
X169324199Y-108953019D01*
X169328684Y-109014500D01*
X169382023Y-109755334D01*
X173097522Y-109755334D01*
X172645261Y-109390308D01*
X172099034Y-108961535D01*
X171548454Y-108551363D01*
X171013720Y-108172990D01*
X170515031Y-107839610D01*
X170072588Y-107564421D01*
X169706590Y-107360618D01*
X169437236Y-107241398D01*
X169315997Y-107215334D01*
X169234185Y-107232555D01*
G37*
X169234185Y-107232555D02*
X169196216Y-107309284D01*
X169195219Y-107483121D01*
X169219277Y-107744500D01*
X169252915Y-108091518D01*
X169290326Y-108522645D01*
X169324199Y-108953019D01*
X169328684Y-109014500D01*
X169382023Y-109755334D01*
X173097522Y-109755334D01*
X172645261Y-109390308D01*
X172099034Y-108961535D01*
X171548454Y-108551363D01*
X171013720Y-108172990D01*
X170515031Y-107839610D01*
X170072588Y-107564421D01*
X169706590Y-107360618D01*
X169437236Y-107241398D01*
X169315997Y-107215334D01*
X169234185Y-107232555D01*
D12*
X142310000Y-67511252D02*
X142310000Y-66088748D01*
X140490000Y-67511252D02*
X140490000Y-66088748D01*
D13*
X143464285Y-66700000D02*
X143492857Y-66671428D01*
X143521428Y-66585714D01*
X143521428Y-66528571D01*
X143492857Y-66442857D01*
X143435714Y-66385714D01*
X143378571Y-66357142D01*
X143264285Y-66328571D01*
X143178571Y-66328571D01*
X143064285Y-66357142D01*
X143007142Y-66385714D01*
X142950000Y-66442857D01*
X142921428Y-66528571D01*
X142921428Y-66585714D01*
X142950000Y-66671428D01*
X142978571Y-66700000D01*
X143521428Y-67271428D02*
X143521428Y-66928571D01*
X143521428Y-67100000D02*
X142921428Y-67100000D01*
X143007142Y-67042857D01*
X143064285Y-66985714D01*
X143092857Y-66928571D01*
%LPC*%
D14*
X98970000Y-78220000D03*
X121320000Y-75650000D03*
D15*
X107170000Y-61500000D03*
D16*
X112250000Y-61500000D03*
D17*
X131400000Y-118080000D03*
X131400000Y-115540000D03*
D18*
X131400000Y-113000000D03*
D19*
X148060000Y-115540000D03*
D17*
X131400000Y-107280000D03*
X131400000Y-104740000D03*
D18*
X131400000Y-102200000D03*
D19*
X148060000Y-104740000D03*
D17*
X131400000Y-95180000D03*
X131400000Y-92640000D03*
D18*
X131400000Y-90100000D03*
D19*
X148060000Y-92640000D03*
D17*
X131400000Y-84480000D03*
X131400000Y-81940000D03*
D18*
X131400000Y-79400000D03*
D19*
X148060000Y-81940000D03*
D20*
X177500000Y-85250000D03*
X177500000Y-112750000D03*
D14*
X109675000Y-78325000D03*
X112400000Y-93500000D03*
X123400000Y-102675000D03*
X191000000Y-106000000D03*
X191000000Y-91750000D03*
X123325000Y-90850000D03*
X104850000Y-104450000D03*
X108250000Y-109650000D03*
X108750000Y-114950000D03*
X112210000Y-67400000D03*
D21*
X153088000Y-116000000D03*
X167312000Y-116000000D03*
X167312000Y-81500000D03*
X153088000Y-81500000D03*
D15*
X98975000Y-74100000D03*
D16*
X98975000Y-69020000D03*
D15*
X191000000Y-96170000D03*
D16*
X191000000Y-101250000D03*
D15*
X99025000Y-120030000D03*
X99025000Y-114950000D03*
D16*
X99025000Y-109870000D03*
D15*
X143670000Y-61500000D03*
D16*
X148750000Y-61500000D03*
D22*
X173700000Y-123000000D03*
D23*
X173700000Y-119500000D03*
D22*
X173700000Y-75000000D03*
D23*
X173700000Y-78500000D03*
D24*
X127000000Y-67250000D03*
D25*
X134500000Y-67250000D03*
G36*
G01*
X142050002Y-69025000D02*
X140749998Y-69025000D01*
G75*
G02*
X140500000Y-68775002I0J249998D01*
G01*
X140500000Y-67949998D01*
G75*
G02*
X140749998Y-67700000I249998J0D01*
G01*
X142050002Y-67700000D01*
G75*
G02*
X142300000Y-67949998I0J-249998D01*
G01*
X142300000Y-68775002D01*
G75*
G02*
X142050002Y-69025000I-249998J0D01*
G01*
G37*
G36*
G01*
X142050002Y-65900000D02*
X140749998Y-65900000D01*
G75*
G02*
X140500000Y-65650002I0J249998D01*
G01*
X140500000Y-64824998D01*
G75*
G02*
X140749998Y-64575000I249998J0D01*
G01*
X142050002Y-64575000D01*
G75*
G02*
X142300000Y-64824998I0J-249998D01*
G01*
X142300000Y-65650002D01*
G75*
G02*
X142050002Y-65900000I-249998J0D01*
G01*
G37*
D26*
X190000000Y-127500000D03*
X100000000Y-127500000D03*
X190000000Y-62500000D03*
X100000000Y-62500000D03*
M02*
