M48
; DRILL file {KiCad 5.1.10} date Sat Aug 14 15:52:35 2021
; FORMAT={-:-/ absolute / metric / decimal}
; #@! TF.CreationDate,2021-08-14T15:52:35+12:00
; #@! TF.GenerationSoftware,Kicad,Pcbnew,5.1.10
FMAT,2
METRIC
T1C0.400
T2C0.700
T3C0.800
T4C1.000
T5C1.100
T6C1.200
T7C1.270
T8C1.520
T9C3.200
T10C3.500
%
G90
G05
T1
X98.25Y-89.29
X98.57Y-82.98
X102.85Y-82.62
X103.02Y-103.0
X104.5Y-103.0
X105.25Y-90.75
X105.25Y-93.25
X105.25Y-95.5
X106.0Y-100.5
X106.0Y-103.0
X107.195Y-75.605
X108.0Y-90.75
X108.6Y-80.25
X109.369Y-94.619
X109.74Y-100.13
X109.75Y-105.6
X109.8Y-91.8
X110.6Y-80.25
X111.05Y-96.1
X111.25Y-78.0
X111.655Y-105.774
X112.325Y-96.375
X114.5Y-96.0
X114.5Y-100.5
X115.125Y-94.275
X116.0Y-90.0
X116.556Y-105.769
X118.0Y-90.0
X118.0Y-100.5
X118.0Y-102.5
X118.25Y-82.225
X118.25Y-83.625
X118.5Y-97.65
X119.1Y-109.561
X119.125Y-77.775
X120.0Y-90.0
X120.5Y-102.5
X123.1Y-95.0
X126.6Y-87.17
T2
X98.97Y-78.22
X104.85Y-104.45
X108.25Y-109.65
X108.75Y-114.95
X109.675Y-78.325
X112.21Y-67.4
X112.4Y-93.5
X121.32Y-75.65
X123.325Y-90.85
X123.4Y-102.675
X191.0Y-91.75
X191.0Y-106.0
T3
X173.7Y-75.0
X173.7Y-78.5
X173.7Y-119.5
X173.7Y-123.0
T4
X177.5Y-85.25
X177.5Y-112.75
T5
X131.4Y-79.4
X131.4Y-81.94
X131.4Y-84.48
X131.4Y-90.1
X131.4Y-92.64
X131.4Y-95.18
X131.4Y-102.2
X131.4Y-104.74
X131.4Y-107.28
X131.4Y-113.0
X131.4Y-115.54
X131.4Y-118.08
T6
X127.0Y-67.25
X134.5Y-67.25
T7
X153.088Y-81.5
X153.088Y-116.0
X167.312Y-81.5
X167.312Y-116.0
T8
X98.975Y-69.02
X98.975Y-74.1
X99.025Y-109.87
X99.025Y-114.95
X99.025Y-120.03
X107.17Y-61.5
X112.25Y-61.5
X143.67Y-61.5
X148.75Y-61.5
X191.0Y-96.17
X191.0Y-101.25
T9
X100.0Y-62.5
X100.0Y-127.5
X190.0Y-62.5
X190.0Y-127.5
T10
X148.06Y-81.94
X148.06Y-92.64
X148.06Y-104.74
X148.06Y-115.54
T0
M30
