G04 #@! TF.GenerationSoftware,KiCad,Pcbnew,5.1.10*
G04 #@! TF.CreationDate,2021-08-16T10:51:44+12:00*
G04 #@! TF.ProjectId,GateStage,47617465-5374-4616-9765-2e6b69636164,rev?*
G04 #@! TF.SameCoordinates,Original*
G04 #@! TF.FileFunction,Copper,L1,Top*
G04 #@! TF.FilePolarity,Positive*
%FSLAX46Y46*%
G04 Gerber Fmt 4.6, Leading zero omitted, Abs format (unit mm)*
G04 Created by KiCad (PCBNEW 5.1.10) date 2021-08-16 10:51:44*
%MOMM*%
%LPD*%
G01*
G04 APERTURE LIST*
G04 #@! TA.AperFunction,EtchedComponent*
%ADD10C,0.100000*%
G04 #@! TD*
G04 #@! TA.AperFunction,SMDPad,CuDef*
%ADD11R,1.650000X2.600000*%
G04 #@! TD*
G04 #@! TA.AperFunction,SMDPad,CuDef*
%ADD12R,0.850000X0.300000*%
G04 #@! TD*
G04 #@! TA.AperFunction,SMDPad,CuDef*
%ADD13C,2.000000*%
G04 #@! TD*
G04 #@! TA.AperFunction,ComponentPad*
%ADD14C,3.000000*%
G04 #@! TD*
G04 #@! TA.AperFunction,ComponentPad*
%ADD15R,3.000000X3.000000*%
G04 #@! TD*
G04 #@! TA.AperFunction,ComponentPad*
%ADD16C,5.500000*%
G04 #@! TD*
G04 #@! TA.AperFunction,ComponentPad*
%ADD17C,2.400000*%
G04 #@! TD*
G04 #@! TA.AperFunction,ComponentPad*
%ADD18R,2.400000X2.400000*%
G04 #@! TD*
G04 #@! TA.AperFunction,SMDPad,CuDef*
%ADD19R,6.400000X5.800000*%
G04 #@! TD*
G04 #@! TA.AperFunction,SMDPad,CuDef*
%ADD20R,2.200000X1.200000*%
G04 #@! TD*
G04 #@! TA.AperFunction,ComponentPad*
%ADD21O,2.000000X1.905000*%
G04 #@! TD*
G04 #@! TA.AperFunction,ComponentPad*
%ADD22R,2.000000X1.905000*%
G04 #@! TD*
G04 #@! TA.AperFunction,ViaPad*
%ADD23C,0.800000*%
G04 #@! TD*
G04 #@! TA.AperFunction,Conductor*
%ADD24C,0.250000*%
G04 #@! TD*
G04 #@! TA.AperFunction,Conductor*
%ADD25C,0.500000*%
G04 #@! TD*
G04 #@! TA.AperFunction,Conductor*
%ADD26C,0.254000*%
G04 #@! TD*
G04 #@! TA.AperFunction,Conductor*
%ADD27C,0.100000*%
G04 #@! TD*
G04 APERTURE END LIST*
D10*
G36*
X136000000Y-63000000D02*
G01*
X132000000Y-63000000D01*
X132000000Y-61000000D01*
X136000000Y-61000000D01*
X136000000Y-63000000D01*
G37*
G04 #@! TA.AperFunction,SMDPad,CuDef*
G36*
G01*
X148502998Y-47785000D02*
X149803002Y-47785000D01*
G75*
G02*
X150053000Y-48034998I0J-249998D01*
G01*
X150053000Y-48860002D01*
G75*
G02*
X149803002Y-49110000I-249998J0D01*
G01*
X148502998Y-49110000D01*
G75*
G02*
X148253000Y-48860002I0J249998D01*
G01*
X148253000Y-48034998D01*
G75*
G02*
X148502998Y-47785000I249998J0D01*
G01*
G37*
G04 #@! TD.AperFunction*
G04 #@! TA.AperFunction,SMDPad,CuDef*
G36*
G01*
X148502998Y-44660000D02*
X149803002Y-44660000D01*
G75*
G02*
X150053000Y-44909998I0J-249998D01*
G01*
X150053000Y-45735002D01*
G75*
G02*
X149803002Y-45985000I-249998J0D01*
G01*
X148502998Y-45985000D01*
G75*
G02*
X148253000Y-45735002I0J249998D01*
G01*
X148253000Y-44909998D01*
G75*
G02*
X148502998Y-44660000I249998J0D01*
G01*
G37*
G04 #@! TD.AperFunction*
D11*
X145878000Y-61310000D03*
D12*
X144428000Y-62310000D03*
X144428000Y-61810000D03*
X144428000Y-61310000D03*
X144428000Y-60810000D03*
X144428000Y-60310000D03*
X147328000Y-60310000D03*
X147328000Y-60810000D03*
X147328000Y-61310000D03*
X147328000Y-61810000D03*
X147328000Y-62310000D03*
D11*
X145653000Y-46885000D03*
D12*
X144203000Y-47885000D03*
X144203000Y-47385000D03*
X144203000Y-46885000D03*
X144203000Y-46385000D03*
X144203000Y-45885000D03*
X147103000Y-45885000D03*
X147103000Y-46385000D03*
X147103000Y-46885000D03*
X147103000Y-47385000D03*
X147103000Y-47885000D03*
D13*
X181000000Y-61610000D03*
X181200000Y-40610000D03*
G04 #@! TA.AperFunction,SMDPad,CuDef*
G36*
G01*
X151174999Y-62300000D02*
X154025001Y-62300000D01*
G75*
G02*
X154275000Y-62549999I0J-249999D01*
G01*
X154275000Y-63450001D01*
G75*
G02*
X154025001Y-63700000I-249999J0D01*
G01*
X151174999Y-63700000D01*
G75*
G02*
X150925000Y-63450001I0J249999D01*
G01*
X150925000Y-62549999D01*
G75*
G02*
X151174999Y-62300000I249999J0D01*
G01*
G37*
G04 #@! TD.AperFunction*
G04 #@! TA.AperFunction,SMDPad,CuDef*
G36*
G01*
X151174999Y-56200000D02*
X154025001Y-56200000D01*
G75*
G02*
X154275000Y-56449999I0J-249999D01*
G01*
X154275000Y-57350001D01*
G75*
G02*
X154025001Y-57600000I-249999J0D01*
G01*
X151174999Y-57600000D01*
G75*
G02*
X150925000Y-57350001I0J249999D01*
G01*
X150925000Y-56449999D01*
G75*
G02*
X151174999Y-56200000I249999J0D01*
G01*
G37*
G04 #@! TD.AperFunction*
G04 #@! TA.AperFunction,SMDPad,CuDef*
G36*
G01*
X151202999Y-37510000D02*
X154053001Y-37510000D01*
G75*
G02*
X154303000Y-37759999I0J-249999D01*
G01*
X154303000Y-38660001D01*
G75*
G02*
X154053001Y-38910000I-249999J0D01*
G01*
X151202999Y-38910000D01*
G75*
G02*
X150953000Y-38660001I0J249999D01*
G01*
X150953000Y-37759999D01*
G75*
G02*
X151202999Y-37510000I249999J0D01*
G01*
G37*
G04 #@! TD.AperFunction*
G04 #@! TA.AperFunction,SMDPad,CuDef*
G36*
G01*
X151202999Y-31410000D02*
X154053001Y-31410000D01*
G75*
G02*
X154303000Y-31659999I0J-249999D01*
G01*
X154303000Y-32560001D01*
G75*
G02*
X154053001Y-32810000I-249999J0D01*
G01*
X151202999Y-32810000D01*
G75*
G02*
X150953000Y-32560001I0J249999D01*
G01*
X150953000Y-31659999D01*
G75*
G02*
X151202999Y-31410000I249999J0D01*
G01*
G37*
G04 #@! TD.AperFunction*
G04 #@! TA.AperFunction,SMDPad,CuDef*
G36*
G01*
X151002999Y-72210000D02*
X153853001Y-72210000D01*
G75*
G02*
X154103000Y-72459999I0J-249999D01*
G01*
X154103000Y-73360001D01*
G75*
G02*
X153853001Y-73610000I-249999J0D01*
G01*
X151002999Y-73610000D01*
G75*
G02*
X150753000Y-73360001I0J249999D01*
G01*
X150753000Y-72459999D01*
G75*
G02*
X151002999Y-72210000I249999J0D01*
G01*
G37*
G04 #@! TD.AperFunction*
G04 #@! TA.AperFunction,SMDPad,CuDef*
G36*
G01*
X151002999Y-66110000D02*
X153853001Y-66110000D01*
G75*
G02*
X154103000Y-66359999I0J-249999D01*
G01*
X154103000Y-67260001D01*
G75*
G02*
X153853001Y-67510000I-249999J0D01*
G01*
X151002999Y-67510000D01*
G75*
G02*
X150753000Y-67260001I0J249999D01*
G01*
X150753000Y-66359999D01*
G75*
G02*
X151002999Y-66110000I249999J0D01*
G01*
G37*
G04 #@! TD.AperFunction*
G04 #@! TA.AperFunction,SMDPad,CuDef*
G36*
G01*
X151002999Y-49110000D02*
X153853001Y-49110000D01*
G75*
G02*
X154103000Y-49359999I0J-249999D01*
G01*
X154103000Y-50260001D01*
G75*
G02*
X153853001Y-50510000I-249999J0D01*
G01*
X151002999Y-50510000D01*
G75*
G02*
X150753000Y-50260001I0J249999D01*
G01*
X150753000Y-49359999D01*
G75*
G02*
X151002999Y-49110000I249999J0D01*
G01*
G37*
G04 #@! TD.AperFunction*
G04 #@! TA.AperFunction,SMDPad,CuDef*
G36*
G01*
X151002999Y-43010000D02*
X153853001Y-43010000D01*
G75*
G02*
X154103000Y-43259999I0J-249999D01*
G01*
X154103000Y-44160001D01*
G75*
G02*
X153853001Y-44410000I-249999J0D01*
G01*
X151002999Y-44410000D01*
G75*
G02*
X150753000Y-44160001I0J249999D01*
G01*
X150753000Y-43259999D01*
G75*
G02*
X151002999Y-43010000I249999J0D01*
G01*
G37*
G04 #@! TD.AperFunction*
G04 #@! TA.AperFunction,SMDPad,CuDef*
G36*
G01*
X145853000Y-58847500D02*
X145853000Y-58372500D01*
G75*
G02*
X146090500Y-58135000I237500J0D01*
G01*
X146590500Y-58135000D01*
G75*
G02*
X146828000Y-58372500I0J-237500D01*
G01*
X146828000Y-58847500D01*
G75*
G02*
X146590500Y-59085000I-237500J0D01*
G01*
X146090500Y-59085000D01*
G75*
G02*
X145853000Y-58847500I0J237500D01*
G01*
G37*
G04 #@! TD.AperFunction*
G04 #@! TA.AperFunction,SMDPad,CuDef*
G36*
G01*
X144028000Y-58847500D02*
X144028000Y-58372500D01*
G75*
G02*
X144265500Y-58135000I237500J0D01*
G01*
X144765500Y-58135000D01*
G75*
G02*
X145003000Y-58372500I0J-237500D01*
G01*
X145003000Y-58847500D01*
G75*
G02*
X144765500Y-59085000I-237500J0D01*
G01*
X144265500Y-59085000D01*
G75*
G02*
X144028000Y-58847500I0J237500D01*
G01*
G37*
G04 #@! TD.AperFunction*
G04 #@! TA.AperFunction,SMDPad,CuDef*
G36*
G01*
X142837500Y-43512500D02*
X142837500Y-43987500D01*
G75*
G02*
X142600000Y-44225000I-237500J0D01*
G01*
X142100000Y-44225000D01*
G75*
G02*
X141862500Y-43987500I0J237500D01*
G01*
X141862500Y-43512500D01*
G75*
G02*
X142100000Y-43275000I237500J0D01*
G01*
X142600000Y-43275000D01*
G75*
G02*
X142837500Y-43512500I0J-237500D01*
G01*
G37*
G04 #@! TD.AperFunction*
G04 #@! TA.AperFunction,SMDPad,CuDef*
G36*
G01*
X144662500Y-43512500D02*
X144662500Y-43987500D01*
G75*
G02*
X144425000Y-44225000I-237500J0D01*
G01*
X143925000Y-44225000D01*
G75*
G02*
X143687500Y-43987500I0J237500D01*
G01*
X143687500Y-43512500D01*
G75*
G02*
X143925000Y-43275000I237500J0D01*
G01*
X144425000Y-43275000D01*
G75*
G02*
X144662500Y-43512500I0J-237500D01*
G01*
G37*
G04 #@! TD.AperFunction*
X132000000Y-62000000D03*
X136000000Y-62000000D03*
D14*
X181828000Y-45950000D03*
X181828000Y-51030000D03*
D15*
X181828000Y-56110000D03*
D14*
X118828000Y-45690000D03*
D15*
X118828000Y-40610000D03*
D14*
X146560000Y-69200000D03*
D15*
X131320000Y-69200000D03*
D14*
X141480000Y-69200000D03*
X136400000Y-69200000D03*
D16*
X182828000Y-70110000D03*
X119828000Y-70110000D03*
X182828000Y-34110000D03*
X119828000Y-34110000D03*
G04 #@! TA.AperFunction,SMDPad,CuDef*
G36*
G01*
X148577998Y-62310000D02*
X149878002Y-62310000D01*
G75*
G02*
X150128000Y-62559998I0J-249998D01*
G01*
X150128000Y-63385002D01*
G75*
G02*
X149878002Y-63635000I-249998J0D01*
G01*
X148577998Y-63635000D01*
G75*
G02*
X148328000Y-63385002I0J249998D01*
G01*
X148328000Y-62559998D01*
G75*
G02*
X148577998Y-62310000I249998J0D01*
G01*
G37*
G04 #@! TD.AperFunction*
G04 #@! TA.AperFunction,SMDPad,CuDef*
G36*
G01*
X148577998Y-59185000D02*
X149878002Y-59185000D01*
G75*
G02*
X150128000Y-59434998I0J-249998D01*
G01*
X150128000Y-60260002D01*
G75*
G02*
X149878002Y-60510000I-249998J0D01*
G01*
X148577998Y-60510000D01*
G75*
G02*
X148328000Y-60260002I0J249998D01*
G01*
X148328000Y-59434998D01*
G75*
G02*
X148577998Y-59185000I249998J0D01*
G01*
G37*
G04 #@! TD.AperFunction*
G04 #@! TA.AperFunction,SMDPad,CuDef*
G36*
G01*
X142878002Y-46110000D02*
X141577998Y-46110000D01*
G75*
G02*
X141328000Y-45860002I0J249998D01*
G01*
X141328000Y-45034998D01*
G75*
G02*
X141577998Y-44785000I249998J0D01*
G01*
X142878002Y-44785000D01*
G75*
G02*
X143128000Y-45034998I0J-249998D01*
G01*
X143128000Y-45860002D01*
G75*
G02*
X142878002Y-46110000I-249998J0D01*
G01*
G37*
G04 #@! TD.AperFunction*
G04 #@! TA.AperFunction,SMDPad,CuDef*
G36*
G01*
X142878002Y-49235000D02*
X141577998Y-49235000D01*
G75*
G02*
X141328000Y-48985002I0J249998D01*
G01*
X141328000Y-48159998D01*
G75*
G02*
X141577998Y-47910000I249998J0D01*
G01*
X142878002Y-47910000D01*
G75*
G02*
X143128000Y-48159998I0J-249998D01*
G01*
X143128000Y-48985002D01*
G75*
G02*
X142878002Y-49235000I-249998J0D01*
G01*
G37*
G04 #@! TD.AperFunction*
G04 #@! TA.AperFunction,SMDPad,CuDef*
G36*
G01*
X143078002Y-60510000D02*
X141777998Y-60510000D01*
G75*
G02*
X141528000Y-60260002I0J249998D01*
G01*
X141528000Y-59434998D01*
G75*
G02*
X141777998Y-59185000I249998J0D01*
G01*
X143078002Y-59185000D01*
G75*
G02*
X143328000Y-59434998I0J-249998D01*
G01*
X143328000Y-60260002D01*
G75*
G02*
X143078002Y-60510000I-249998J0D01*
G01*
G37*
G04 #@! TD.AperFunction*
G04 #@! TA.AperFunction,SMDPad,CuDef*
G36*
G01*
X143078002Y-63635000D02*
X141777998Y-63635000D01*
G75*
G02*
X141528000Y-63385002I0J249998D01*
G01*
X141528000Y-62559998D01*
G75*
G02*
X141777998Y-62310000I249998J0D01*
G01*
X143078002Y-62310000D01*
G75*
G02*
X143328000Y-62559998I0J-249998D01*
G01*
X143328000Y-63385002D01*
G75*
G02*
X143078002Y-63635000I-249998J0D01*
G01*
G37*
G04 #@! TD.AperFunction*
D17*
X132828000Y-36250000D03*
D18*
X132828000Y-43750000D03*
G04 #@! TA.AperFunction,SMDPad,CuDef*
G36*
G01*
X125515500Y-49847500D02*
X125515500Y-49372500D01*
G75*
G02*
X125753000Y-49135000I237500J0D01*
G01*
X126353000Y-49135000D01*
G75*
G02*
X126590500Y-49372500I0J-237500D01*
G01*
X126590500Y-49847500D01*
G75*
G02*
X126353000Y-50085000I-237500J0D01*
G01*
X125753000Y-50085000D01*
G75*
G02*
X125515500Y-49847500I0J237500D01*
G01*
G37*
G04 #@! TD.AperFunction*
G04 #@! TA.AperFunction,SMDPad,CuDef*
G36*
G01*
X123790500Y-49847500D02*
X123790500Y-49372500D01*
G75*
G02*
X124028000Y-49135000I237500J0D01*
G01*
X124628000Y-49135000D01*
G75*
G02*
X124865500Y-49372500I0J-237500D01*
G01*
X124865500Y-49847500D01*
G75*
G02*
X124628000Y-50085000I-237500J0D01*
G01*
X124028000Y-50085000D01*
G75*
G02*
X123790500Y-49847500I0J237500D01*
G01*
G37*
G04 #@! TD.AperFunction*
G04 #@! TA.AperFunction,SMDPad,CuDef*
G36*
G01*
X125465500Y-58847500D02*
X125465500Y-58372500D01*
G75*
G02*
X125703000Y-58135000I237500J0D01*
G01*
X126303000Y-58135000D01*
G75*
G02*
X126540500Y-58372500I0J-237500D01*
G01*
X126540500Y-58847500D01*
G75*
G02*
X126303000Y-59085000I-237500J0D01*
G01*
X125703000Y-59085000D01*
G75*
G02*
X125465500Y-58847500I0J237500D01*
G01*
G37*
G04 #@! TD.AperFunction*
G04 #@! TA.AperFunction,SMDPad,CuDef*
G36*
G01*
X123740500Y-58847500D02*
X123740500Y-58372500D01*
G75*
G02*
X123978000Y-58135000I237500J0D01*
G01*
X124578000Y-58135000D01*
G75*
G02*
X124815500Y-58372500I0J-237500D01*
G01*
X124815500Y-58847500D01*
G75*
G02*
X124578000Y-59085000I-237500J0D01*
G01*
X123978000Y-59085000D01*
G75*
G02*
X123740500Y-58847500I0J237500D01*
G01*
G37*
G04 #@! TD.AperFunction*
D19*
X131153000Y-54135000D03*
D20*
X124853000Y-56415000D03*
X124853000Y-51855000D03*
D21*
X156228000Y-71890000D03*
X156228000Y-69350000D03*
D22*
X156228000Y-66810000D03*
D21*
X156228000Y-60340000D03*
X156228000Y-57800000D03*
D22*
X156228000Y-55260000D03*
D21*
X156228000Y-48790000D03*
X156228000Y-46250000D03*
D22*
X156228000Y-43710000D03*
D21*
X156228000Y-37190000D03*
X156228000Y-34650000D03*
D22*
X156228000Y-32110000D03*
D23*
X138512252Y-49387252D03*
X146325000Y-49085000D03*
X146296653Y-63553347D03*
X140675000Y-60175000D03*
X138512252Y-62007748D03*
X124400000Y-60050000D03*
X139600000Y-49810000D03*
X141987405Y-61537405D03*
X144823959Y-63823959D03*
X150100000Y-70550000D03*
X152650000Y-42150000D03*
X152650000Y-46885000D03*
D24*
X132000000Y-62000000D02*
X131100000Y-62000000D01*
X131100000Y-62000000D02*
X130250000Y-61150000D01*
X130250000Y-55038000D02*
X131153000Y-54135000D01*
X130250000Y-61150000D02*
X130250000Y-55038000D01*
D25*
X118828000Y-45690000D02*
X121840000Y-45690000D01*
X124328000Y-48178000D02*
X124328000Y-49610000D01*
X121840000Y-45690000D02*
X124328000Y-48178000D01*
X124328000Y-51330000D02*
X124853000Y-51855000D01*
X124328000Y-49610000D02*
X124328000Y-51330000D01*
D24*
X143165500Y-46385000D02*
X144203000Y-46385000D01*
X142228000Y-45447500D02*
X143165500Y-46385000D01*
X143390500Y-60810000D02*
X144428000Y-60810000D01*
X142428000Y-59847500D02*
X143390500Y-60810000D01*
D25*
X124278000Y-56990000D02*
X124853000Y-56415000D01*
X124278000Y-58610000D02*
X124278000Y-56990000D01*
X142228000Y-45671504D02*
X138512252Y-49387252D01*
X142228000Y-45447500D02*
X142228000Y-45671504D01*
D24*
X147103000Y-48307000D02*
X146325000Y-49085000D01*
X147103000Y-47885000D02*
X147103000Y-48307000D01*
X147328000Y-62310000D02*
X147328000Y-63097000D01*
X146871653Y-63553347D02*
X146296653Y-63553347D01*
X147328000Y-63097000D02*
X146871653Y-63553347D01*
X141002500Y-59847500D02*
X140675000Y-60175000D01*
X142428000Y-59847500D02*
X141002500Y-59847500D01*
D25*
X140345000Y-60175000D02*
X138512252Y-62007748D01*
X140675000Y-60175000D02*
X140345000Y-60175000D01*
X124278000Y-59928000D02*
X124400000Y-60050000D01*
X124278000Y-58610000D02*
X124278000Y-59928000D01*
D24*
X143590500Y-61810000D02*
X142428000Y-62972500D01*
X144428000Y-61810000D02*
X143590500Y-61810000D01*
X143415500Y-47385000D02*
X142228000Y-48572500D01*
X144203000Y-47385000D02*
X143415500Y-47385000D01*
X136972500Y-62972500D02*
X142428000Y-62972500D01*
X136000000Y-62000000D02*
X136972500Y-62972500D01*
X139600000Y-49244315D02*
X141959315Y-46885000D01*
X141959315Y-46885000D02*
X144203000Y-46885000D01*
X139600000Y-49810000D02*
X139600000Y-49244315D01*
X144203000Y-43778000D02*
X144175000Y-43750000D01*
X144203000Y-45885000D02*
X144203000Y-43778000D01*
X142214810Y-61310000D02*
X144428000Y-61310000D01*
X141987405Y-61537405D02*
X142214810Y-61310000D01*
X144428000Y-58697500D02*
X144515500Y-58610000D01*
X144428000Y-60310000D02*
X144428000Y-58697500D01*
D25*
X152628000Y-32110000D02*
X156228000Y-32110000D01*
X156228000Y-43710000D02*
X152428000Y-43710000D01*
X154240000Y-55260000D02*
X152600000Y-56900000D01*
X156228000Y-55260000D02*
X154240000Y-55260000D01*
X152428000Y-66810000D02*
X156228000Y-66810000D01*
D24*
X145728000Y-49810000D02*
X152428000Y-49810000D01*
X144203000Y-48285000D02*
X145728000Y-49810000D01*
X144203000Y-47885000D02*
X144203000Y-48285000D01*
X144428000Y-63428000D02*
X144823959Y-63823959D01*
X144428000Y-62310000D02*
X144428000Y-63428000D01*
D25*
X150100000Y-70582000D02*
X152428000Y-72910000D01*
X150100000Y-70550000D02*
X150100000Y-70582000D01*
D24*
X147103000Y-46885000D02*
X152650000Y-46885000D01*
D25*
X152650000Y-38232000D02*
X152628000Y-38210000D01*
X152650000Y-42150000D02*
X152650000Y-38232000D01*
D24*
X150910000Y-61310000D02*
X152600000Y-63000000D01*
X147328000Y-61310000D02*
X150910000Y-61310000D01*
D26*
X150201000Y-49283000D02*
X148055000Y-49283000D01*
X148055000Y-48110000D01*
X148052560Y-48085224D01*
X148045333Y-48061399D01*
X148033597Y-48039443D01*
X148017803Y-48020197D01*
X147998557Y-48004403D01*
X147976601Y-47992667D01*
X147952776Y-47985440D01*
X147928000Y-47983000D01*
X147856582Y-47983000D01*
X147856582Y-47735000D01*
X147850268Y-47670897D01*
X147831570Y-47609257D01*
X147801206Y-47552450D01*
X147760343Y-47502657D01*
X147710550Y-47461794D01*
X147653743Y-47431430D01*
X147592103Y-47412732D01*
X147528000Y-47406418D01*
X146806582Y-47406418D01*
X146806582Y-47363582D01*
X147528000Y-47363582D01*
X147592103Y-47357268D01*
X147653743Y-47338570D01*
X147656680Y-47337000D01*
X150201000Y-47337000D01*
X150201000Y-49283000D01*
G04 #@! TA.AperFunction,Conductor*
D27*
G36*
X150201000Y-49283000D02*
G01*
X148055000Y-49283000D01*
X148055000Y-48110000D01*
X148052560Y-48085224D01*
X148045333Y-48061399D01*
X148033597Y-48039443D01*
X148017803Y-48020197D01*
X147998557Y-48004403D01*
X147976601Y-47992667D01*
X147952776Y-47985440D01*
X147928000Y-47983000D01*
X147856582Y-47983000D01*
X147856582Y-47735000D01*
X147850268Y-47670897D01*
X147831570Y-47609257D01*
X147801206Y-47552450D01*
X147760343Y-47502657D01*
X147710550Y-47461794D01*
X147653743Y-47431430D01*
X147592103Y-47412732D01*
X147528000Y-47406418D01*
X146806582Y-47406418D01*
X146806582Y-47363582D01*
X147528000Y-47363582D01*
X147592103Y-47357268D01*
X147653743Y-47338570D01*
X147656680Y-47337000D01*
X150201000Y-47337000D01*
X150201000Y-49283000D01*
G37*
G04 #@! TD.AperFunction*
D26*
X180437938Y-36071473D02*
X180866527Y-36500062D01*
X181370494Y-36836802D01*
X181930472Y-37068752D01*
X182524942Y-37187000D01*
X182873000Y-37187000D01*
X182873000Y-47274115D01*
X174653246Y-47346625D01*
X174728614Y-47233829D01*
X174885182Y-46855839D01*
X174965000Y-46454567D01*
X174965000Y-46045433D01*
X174885182Y-45644161D01*
X174728614Y-45266171D01*
X174501311Y-44925989D01*
X174212011Y-44636689D01*
X173871829Y-44409386D01*
X173493839Y-44252818D01*
X173092567Y-44173000D01*
X172683433Y-44173000D01*
X172282161Y-44252818D01*
X171904171Y-44409386D01*
X171563989Y-44636689D01*
X171274689Y-44925989D01*
X171047386Y-45266171D01*
X170890818Y-45644161D01*
X170811000Y-46045433D01*
X170811000Y-46454567D01*
X170890818Y-46855839D01*
X171047386Y-47233829D01*
X171143442Y-47377587D01*
X160326880Y-47473005D01*
X160302126Y-47475664D01*
X160278689Y-47483000D01*
X153063596Y-47483000D01*
X153113436Y-47449698D01*
X153214698Y-47348436D01*
X153294259Y-47229364D01*
X153349062Y-47097058D01*
X153377000Y-46956603D01*
X153377000Y-46813397D01*
X153349062Y-46672942D01*
X153294259Y-46540636D01*
X153214698Y-46421564D01*
X153113436Y-46320302D01*
X152994364Y-46240741D01*
X152862058Y-46185938D01*
X152721603Y-46158000D01*
X152578397Y-46158000D01*
X152437942Y-46185938D01*
X152305636Y-46240741D01*
X152186564Y-46320302D01*
X152085302Y-46421564D01*
X152077661Y-46433000D01*
X147656680Y-46433000D01*
X147653743Y-46431430D01*
X147592103Y-46412732D01*
X147528000Y-46406418D01*
X146955000Y-46406418D01*
X146955000Y-46363582D01*
X147528000Y-46363582D01*
X147592103Y-46357268D01*
X147653743Y-46338570D01*
X147710550Y-46308206D01*
X147760343Y-46267343D01*
X147801206Y-46217550D01*
X147831570Y-46160743D01*
X147850268Y-46099103D01*
X147856582Y-46035000D01*
X147856582Y-45735000D01*
X147856430Y-45733452D01*
X147876601Y-45727333D01*
X147898557Y-45715597D01*
X147917803Y-45699803D01*
X147933597Y-45680557D01*
X147945333Y-45658601D01*
X147952560Y-45634776D01*
X147955000Y-45610000D01*
X147955000Y-44237000D01*
X150432002Y-44237000D01*
X150435535Y-44272877D01*
X150468460Y-44381414D01*
X150521926Y-44481443D01*
X150593880Y-44569120D01*
X150681557Y-44641074D01*
X150781586Y-44694540D01*
X150890123Y-44727465D01*
X151002999Y-44738582D01*
X153853001Y-44738582D01*
X153965877Y-44727465D01*
X154074414Y-44694540D01*
X154174443Y-44641074D01*
X154262120Y-44569120D01*
X154334074Y-44481443D01*
X154387540Y-44381414D01*
X154416181Y-44287000D01*
X154899418Y-44287000D01*
X154899418Y-44662500D01*
X154905732Y-44726603D01*
X154924430Y-44788243D01*
X154954794Y-44845050D01*
X154995657Y-44894843D01*
X155045450Y-44935706D01*
X155102257Y-44966070D01*
X155163897Y-44984768D01*
X155228000Y-44991082D01*
X157228000Y-44991082D01*
X157292103Y-44984768D01*
X157353743Y-44966070D01*
X157410550Y-44935706D01*
X157460343Y-44894843D01*
X157501206Y-44845050D01*
X157531570Y-44788243D01*
X157550268Y-44726603D01*
X157556582Y-44662500D01*
X157556582Y-42757500D01*
X157550268Y-42693397D01*
X157531570Y-42631757D01*
X157501206Y-42574950D01*
X157460343Y-42525157D01*
X157410550Y-42484294D01*
X157353743Y-42453930D01*
X157292103Y-42435232D01*
X157228000Y-42428918D01*
X155228000Y-42428918D01*
X155163897Y-42435232D01*
X155102257Y-42453930D01*
X155045450Y-42484294D01*
X154995657Y-42525157D01*
X154955000Y-42574699D01*
X154955000Y-36137000D01*
X160000000Y-36137000D01*
X160024776Y-36134560D01*
X160048601Y-36127333D01*
X160050029Y-36126570D01*
X171329168Y-36028490D01*
X171563989Y-36263311D01*
X171904171Y-36490614D01*
X172282161Y-36647182D01*
X172683433Y-36727000D01*
X173092567Y-36727000D01*
X173493839Y-36647182D01*
X173871829Y-36490614D01*
X174212011Y-36263311D01*
X174474180Y-36001142D01*
X180356765Y-35949989D01*
X180437938Y-36071473D01*
G04 #@! TA.AperFunction,Conductor*
D27*
G36*
X180437938Y-36071473D02*
G01*
X180866527Y-36500062D01*
X181370494Y-36836802D01*
X181930472Y-37068752D01*
X182524942Y-37187000D01*
X182873000Y-37187000D01*
X182873000Y-47274115D01*
X174653246Y-47346625D01*
X174728614Y-47233829D01*
X174885182Y-46855839D01*
X174965000Y-46454567D01*
X174965000Y-46045433D01*
X174885182Y-45644161D01*
X174728614Y-45266171D01*
X174501311Y-44925989D01*
X174212011Y-44636689D01*
X173871829Y-44409386D01*
X173493839Y-44252818D01*
X173092567Y-44173000D01*
X172683433Y-44173000D01*
X172282161Y-44252818D01*
X171904171Y-44409386D01*
X171563989Y-44636689D01*
X171274689Y-44925989D01*
X171047386Y-45266171D01*
X170890818Y-45644161D01*
X170811000Y-46045433D01*
X170811000Y-46454567D01*
X170890818Y-46855839D01*
X171047386Y-47233829D01*
X171143442Y-47377587D01*
X160326880Y-47473005D01*
X160302126Y-47475664D01*
X160278689Y-47483000D01*
X153063596Y-47483000D01*
X153113436Y-47449698D01*
X153214698Y-47348436D01*
X153294259Y-47229364D01*
X153349062Y-47097058D01*
X153377000Y-46956603D01*
X153377000Y-46813397D01*
X153349062Y-46672942D01*
X153294259Y-46540636D01*
X153214698Y-46421564D01*
X153113436Y-46320302D01*
X152994364Y-46240741D01*
X152862058Y-46185938D01*
X152721603Y-46158000D01*
X152578397Y-46158000D01*
X152437942Y-46185938D01*
X152305636Y-46240741D01*
X152186564Y-46320302D01*
X152085302Y-46421564D01*
X152077661Y-46433000D01*
X147656680Y-46433000D01*
X147653743Y-46431430D01*
X147592103Y-46412732D01*
X147528000Y-46406418D01*
X146955000Y-46406418D01*
X146955000Y-46363582D01*
X147528000Y-46363582D01*
X147592103Y-46357268D01*
X147653743Y-46338570D01*
X147710550Y-46308206D01*
X147760343Y-46267343D01*
X147801206Y-46217550D01*
X147831570Y-46160743D01*
X147850268Y-46099103D01*
X147856582Y-46035000D01*
X147856582Y-45735000D01*
X147856430Y-45733452D01*
X147876601Y-45727333D01*
X147898557Y-45715597D01*
X147917803Y-45699803D01*
X147933597Y-45680557D01*
X147945333Y-45658601D01*
X147952560Y-45634776D01*
X147955000Y-45610000D01*
X147955000Y-44237000D01*
X150432002Y-44237000D01*
X150435535Y-44272877D01*
X150468460Y-44381414D01*
X150521926Y-44481443D01*
X150593880Y-44569120D01*
X150681557Y-44641074D01*
X150781586Y-44694540D01*
X150890123Y-44727465D01*
X151002999Y-44738582D01*
X153853001Y-44738582D01*
X153965877Y-44727465D01*
X154074414Y-44694540D01*
X154174443Y-44641074D01*
X154262120Y-44569120D01*
X154334074Y-44481443D01*
X154387540Y-44381414D01*
X154416181Y-44287000D01*
X154899418Y-44287000D01*
X154899418Y-44662500D01*
X154905732Y-44726603D01*
X154924430Y-44788243D01*
X154954794Y-44845050D01*
X154995657Y-44894843D01*
X155045450Y-44935706D01*
X155102257Y-44966070D01*
X155163897Y-44984768D01*
X155228000Y-44991082D01*
X157228000Y-44991082D01*
X157292103Y-44984768D01*
X157353743Y-44966070D01*
X157410550Y-44935706D01*
X157460343Y-44894843D01*
X157501206Y-44845050D01*
X157531570Y-44788243D01*
X157550268Y-44726603D01*
X157556582Y-44662500D01*
X157556582Y-42757500D01*
X157550268Y-42693397D01*
X157531570Y-42631757D01*
X157501206Y-42574950D01*
X157460343Y-42525157D01*
X157410550Y-42484294D01*
X157353743Y-42453930D01*
X157292103Y-42435232D01*
X157228000Y-42428918D01*
X155228000Y-42428918D01*
X155163897Y-42435232D01*
X155102257Y-42453930D01*
X155045450Y-42484294D01*
X154995657Y-42525157D01*
X154955000Y-42574699D01*
X154955000Y-36137000D01*
X160000000Y-36137000D01*
X160024776Y-36134560D01*
X160048601Y-36127333D01*
X160050029Y-36126570D01*
X171329168Y-36028490D01*
X171563989Y-36263311D01*
X171904171Y-36490614D01*
X172282161Y-36647182D01*
X172683433Y-36727000D01*
X173092567Y-36727000D01*
X173493839Y-36647182D01*
X173871829Y-36490614D01*
X174212011Y-36263311D01*
X174474180Y-36001142D01*
X180356765Y-35949989D01*
X180437938Y-36071473D01*
G37*
G04 #@! TD.AperFunction*
D26*
X182473000Y-67043332D02*
X181930472Y-67151248D01*
X181370494Y-67383198D01*
X180866527Y-67719938D01*
X180437938Y-68148527D01*
X180101198Y-68652494D01*
X179869248Y-69212472D01*
X179751000Y-69806942D01*
X179751000Y-70413058D01*
X179762923Y-70473000D01*
X174635623Y-70473000D01*
X174728614Y-70333829D01*
X174885182Y-69955839D01*
X174965000Y-69554567D01*
X174965000Y-69145433D01*
X174885182Y-68744161D01*
X174728614Y-68366171D01*
X174501311Y-68025989D01*
X174212011Y-67736689D01*
X173871829Y-67509386D01*
X173493839Y-67352818D01*
X173092567Y-67273000D01*
X172683433Y-67273000D01*
X172282161Y-67352818D01*
X171904171Y-67509386D01*
X171563989Y-67736689D01*
X171274689Y-68025989D01*
X171047386Y-68366171D01*
X170890818Y-68744161D01*
X170811000Y-69145433D01*
X170811000Y-69554567D01*
X170890818Y-69955839D01*
X171047386Y-70333829D01*
X171140377Y-70473000D01*
X154527000Y-70473000D01*
X154527000Y-67387000D01*
X154899418Y-67387000D01*
X154899418Y-67762500D01*
X154905732Y-67826603D01*
X154924430Y-67888243D01*
X154954794Y-67945050D01*
X154995657Y-67994843D01*
X155045450Y-68035706D01*
X155102257Y-68066070D01*
X155163897Y-68084768D01*
X155228000Y-68091082D01*
X157228000Y-68091082D01*
X157292103Y-68084768D01*
X157353743Y-68066070D01*
X157410550Y-68035706D01*
X157460343Y-67994843D01*
X157501206Y-67945050D01*
X157531570Y-67888243D01*
X157550268Y-67826603D01*
X157556582Y-67762500D01*
X157556582Y-65857500D01*
X157550268Y-65793397D01*
X157531570Y-65731757D01*
X157501206Y-65674950D01*
X157460343Y-65625157D01*
X157410550Y-65584294D01*
X157353743Y-65553930D01*
X157292103Y-65535232D01*
X157228000Y-65528918D01*
X155228000Y-65528918D01*
X155163897Y-65535232D01*
X155102257Y-65553930D01*
X155045450Y-65584294D01*
X154995657Y-65625157D01*
X154954794Y-65674950D01*
X154924430Y-65731757D01*
X154905732Y-65793397D01*
X154899418Y-65857500D01*
X154899418Y-66233000D01*
X154527000Y-66233000D01*
X154527000Y-63732293D01*
X154559540Y-63671414D01*
X154592465Y-63562877D01*
X154603582Y-63450001D01*
X154603582Y-62549999D01*
X154592465Y-62437123D01*
X154559540Y-62328586D01*
X154527000Y-62267707D01*
X154527000Y-61400000D01*
X154524560Y-61375224D01*
X154517333Y-61351399D01*
X154505597Y-61329443D01*
X154489803Y-61310197D01*
X154470557Y-61294403D01*
X154448601Y-61282667D01*
X154424776Y-61275440D01*
X154400000Y-61273000D01*
X151512223Y-61273000D01*
X151245323Y-61006100D01*
X151231159Y-60988841D01*
X151162333Y-60932357D01*
X151083810Y-60890386D01*
X150998607Y-60864540D01*
X150932205Y-60858000D01*
X150910000Y-60855813D01*
X150887795Y-60858000D01*
X147881680Y-60858000D01*
X147878743Y-60856430D01*
X147817103Y-60837732D01*
X147753000Y-60831418D01*
X147031582Y-60831418D01*
X147031582Y-60788582D01*
X147753000Y-60788582D01*
X147817103Y-60782268D01*
X147878743Y-60763570D01*
X147935550Y-60733206D01*
X147943112Y-60727000D01*
X148000000Y-60727000D01*
X148024776Y-60724560D01*
X148048601Y-60717333D01*
X148070557Y-60705597D01*
X148089803Y-60689803D01*
X148105597Y-60670557D01*
X148117333Y-60648601D01*
X148124560Y-60624776D01*
X148127000Y-60600000D01*
X148127000Y-58927000D01*
X155574697Y-58927000D01*
X155688488Y-58987823D01*
X155929674Y-59060986D01*
X156117651Y-59079500D01*
X156338349Y-59079500D01*
X156526326Y-59060986D01*
X156767512Y-58987823D01*
X156881303Y-58927000D01*
X160000000Y-58927000D01*
X160031107Y-58923131D01*
X172125522Y-55867700D01*
X171904171Y-55959386D01*
X171563989Y-56186689D01*
X171274689Y-56475989D01*
X171047386Y-56816171D01*
X170890818Y-57194161D01*
X170811000Y-57595433D01*
X170811000Y-58004567D01*
X170890818Y-58405839D01*
X171047386Y-58783829D01*
X171274689Y-59124011D01*
X171563989Y-59413311D01*
X171904171Y-59640614D01*
X172282161Y-59797182D01*
X172683433Y-59877000D01*
X173092567Y-59877000D01*
X173493839Y-59797182D01*
X173871829Y-59640614D01*
X174212011Y-59413311D01*
X174501311Y-59124011D01*
X174728614Y-58783829D01*
X174885182Y-58405839D01*
X174965000Y-58004567D01*
X174965000Y-57595433D01*
X174885182Y-57194161D01*
X174728614Y-56816171D01*
X174501311Y-56475989D01*
X174212011Y-56186689D01*
X173871829Y-55959386D01*
X173493839Y-55802818D01*
X173092567Y-55723000D01*
X172698292Y-55723000D01*
X179015792Y-54127000D01*
X182473000Y-54127000D01*
X182473000Y-67043332D01*
G04 #@! TA.AperFunction,Conductor*
D27*
G36*
X182473000Y-67043332D02*
G01*
X181930472Y-67151248D01*
X181370494Y-67383198D01*
X180866527Y-67719938D01*
X180437938Y-68148527D01*
X180101198Y-68652494D01*
X179869248Y-69212472D01*
X179751000Y-69806942D01*
X179751000Y-70413058D01*
X179762923Y-70473000D01*
X174635623Y-70473000D01*
X174728614Y-70333829D01*
X174885182Y-69955839D01*
X174965000Y-69554567D01*
X174965000Y-69145433D01*
X174885182Y-68744161D01*
X174728614Y-68366171D01*
X174501311Y-68025989D01*
X174212011Y-67736689D01*
X173871829Y-67509386D01*
X173493839Y-67352818D01*
X173092567Y-67273000D01*
X172683433Y-67273000D01*
X172282161Y-67352818D01*
X171904171Y-67509386D01*
X171563989Y-67736689D01*
X171274689Y-68025989D01*
X171047386Y-68366171D01*
X170890818Y-68744161D01*
X170811000Y-69145433D01*
X170811000Y-69554567D01*
X170890818Y-69955839D01*
X171047386Y-70333829D01*
X171140377Y-70473000D01*
X154527000Y-70473000D01*
X154527000Y-67387000D01*
X154899418Y-67387000D01*
X154899418Y-67762500D01*
X154905732Y-67826603D01*
X154924430Y-67888243D01*
X154954794Y-67945050D01*
X154995657Y-67994843D01*
X155045450Y-68035706D01*
X155102257Y-68066070D01*
X155163897Y-68084768D01*
X155228000Y-68091082D01*
X157228000Y-68091082D01*
X157292103Y-68084768D01*
X157353743Y-68066070D01*
X157410550Y-68035706D01*
X157460343Y-67994843D01*
X157501206Y-67945050D01*
X157531570Y-67888243D01*
X157550268Y-67826603D01*
X157556582Y-67762500D01*
X157556582Y-65857500D01*
X157550268Y-65793397D01*
X157531570Y-65731757D01*
X157501206Y-65674950D01*
X157460343Y-65625157D01*
X157410550Y-65584294D01*
X157353743Y-65553930D01*
X157292103Y-65535232D01*
X157228000Y-65528918D01*
X155228000Y-65528918D01*
X155163897Y-65535232D01*
X155102257Y-65553930D01*
X155045450Y-65584294D01*
X154995657Y-65625157D01*
X154954794Y-65674950D01*
X154924430Y-65731757D01*
X154905732Y-65793397D01*
X154899418Y-65857500D01*
X154899418Y-66233000D01*
X154527000Y-66233000D01*
X154527000Y-63732293D01*
X154559540Y-63671414D01*
X154592465Y-63562877D01*
X154603582Y-63450001D01*
X154603582Y-62549999D01*
X154592465Y-62437123D01*
X154559540Y-62328586D01*
X154527000Y-62267707D01*
X154527000Y-61400000D01*
X154524560Y-61375224D01*
X154517333Y-61351399D01*
X154505597Y-61329443D01*
X154489803Y-61310197D01*
X154470557Y-61294403D01*
X154448601Y-61282667D01*
X154424776Y-61275440D01*
X154400000Y-61273000D01*
X151512223Y-61273000D01*
X151245323Y-61006100D01*
X151231159Y-60988841D01*
X151162333Y-60932357D01*
X151083810Y-60890386D01*
X150998607Y-60864540D01*
X150932205Y-60858000D01*
X150910000Y-60855813D01*
X150887795Y-60858000D01*
X147881680Y-60858000D01*
X147878743Y-60856430D01*
X147817103Y-60837732D01*
X147753000Y-60831418D01*
X147031582Y-60831418D01*
X147031582Y-60788582D01*
X147753000Y-60788582D01*
X147817103Y-60782268D01*
X147878743Y-60763570D01*
X147935550Y-60733206D01*
X147943112Y-60727000D01*
X148000000Y-60727000D01*
X148024776Y-60724560D01*
X148048601Y-60717333D01*
X148070557Y-60705597D01*
X148089803Y-60689803D01*
X148105597Y-60670557D01*
X148117333Y-60648601D01*
X148124560Y-60624776D01*
X148127000Y-60600000D01*
X148127000Y-58927000D01*
X155574697Y-58927000D01*
X155688488Y-58987823D01*
X155929674Y-59060986D01*
X156117651Y-59079500D01*
X156338349Y-59079500D01*
X156526326Y-59060986D01*
X156767512Y-58987823D01*
X156881303Y-58927000D01*
X160000000Y-58927000D01*
X160031107Y-58923131D01*
X172125522Y-55867700D01*
X171904171Y-55959386D01*
X171563989Y-56186689D01*
X171274689Y-56475989D01*
X171047386Y-56816171D01*
X170890818Y-57194161D01*
X170811000Y-57595433D01*
X170811000Y-58004567D01*
X170890818Y-58405839D01*
X171047386Y-58783829D01*
X171274689Y-59124011D01*
X171563989Y-59413311D01*
X171904171Y-59640614D01*
X172282161Y-59797182D01*
X172683433Y-59877000D01*
X173092567Y-59877000D01*
X173493839Y-59797182D01*
X173871829Y-59640614D01*
X174212011Y-59413311D01*
X174501311Y-59124011D01*
X174728614Y-58783829D01*
X174885182Y-58405839D01*
X174965000Y-58004567D01*
X174965000Y-57595433D01*
X174885182Y-57194161D01*
X174728614Y-56816171D01*
X174501311Y-56475989D01*
X174212011Y-56186689D01*
X173871829Y-55959386D01*
X173493839Y-55802818D01*
X173092567Y-55723000D01*
X172698292Y-55723000D01*
X179015792Y-54127000D01*
X182473000Y-54127000D01*
X182473000Y-67043332D01*
G37*
G04 #@! TD.AperFunction*
D26*
X150273000Y-63873000D02*
X148127000Y-63873000D01*
X148127000Y-62000000D01*
X148124560Y-61975224D01*
X148117333Y-61951399D01*
X148105597Y-61929443D01*
X148089803Y-61910197D01*
X148070557Y-61894403D01*
X148048601Y-61882667D01*
X148024776Y-61875440D01*
X148000000Y-61873000D01*
X147909743Y-61873000D01*
X147878743Y-61856430D01*
X147817103Y-61837732D01*
X147753000Y-61831418D01*
X147031582Y-61831418D01*
X147031582Y-61788582D01*
X147753000Y-61788582D01*
X147817103Y-61782268D01*
X147878743Y-61763570D01*
X147881680Y-61762000D01*
X150273000Y-61762000D01*
X150273000Y-63873000D01*
G04 #@! TA.AperFunction,Conductor*
D27*
G36*
X150273000Y-63873000D02*
G01*
X148127000Y-63873000D01*
X148127000Y-62000000D01*
X148124560Y-61975224D01*
X148117333Y-61951399D01*
X148105597Y-61929443D01*
X148089803Y-61910197D01*
X148070557Y-61894403D01*
X148048601Y-61882667D01*
X148024776Y-61875440D01*
X148000000Y-61873000D01*
X147909743Y-61873000D01*
X147878743Y-61856430D01*
X147817103Y-61837732D01*
X147753000Y-61831418D01*
X147031582Y-61831418D01*
X147031582Y-61788582D01*
X147753000Y-61788582D01*
X147817103Y-61782268D01*
X147878743Y-61763570D01*
X147881680Y-61762000D01*
X150273000Y-61762000D01*
X150273000Y-63873000D01*
G37*
G04 #@! TD.AperFunction*
D26*
X183650842Y-29536835D02*
X184447675Y-29754824D01*
X185193312Y-30110476D01*
X185864187Y-30592548D01*
X186439087Y-31185798D01*
X186899846Y-31871481D01*
X187231902Y-32627924D01*
X187425404Y-33433916D01*
X187476000Y-34122911D01*
X187476001Y-70094317D01*
X187401165Y-70932842D01*
X187183176Y-71729673D01*
X186827523Y-72475315D01*
X186345452Y-73146187D01*
X185752202Y-73721087D01*
X185066519Y-74181846D01*
X184310076Y-74513902D01*
X183504084Y-74707404D01*
X182815089Y-74758000D01*
X119843672Y-74758000D01*
X119005158Y-74683165D01*
X118208327Y-74465176D01*
X117462685Y-74109523D01*
X116791813Y-73627452D01*
X116216913Y-73034202D01*
X115756154Y-72348519D01*
X115424098Y-71592076D01*
X115230596Y-70786084D01*
X115180000Y-70097089D01*
X115180000Y-69806942D01*
X116751000Y-69806942D01*
X116751000Y-70413058D01*
X116869248Y-71007528D01*
X117101198Y-71567506D01*
X117437938Y-72071473D01*
X117866527Y-72500062D01*
X118370494Y-72836802D01*
X118930472Y-73068752D01*
X119524942Y-73187000D01*
X120131058Y-73187000D01*
X120725528Y-73068752D01*
X121285506Y-72836802D01*
X121789473Y-72500062D01*
X122218062Y-72071473D01*
X122554802Y-71567506D01*
X122786752Y-71007528D01*
X122905000Y-70413058D01*
X122905000Y-69806942D01*
X122786752Y-69212472D01*
X122554802Y-68652494D01*
X122218062Y-68148527D01*
X121789473Y-67719938D01*
X121759634Y-67700000D01*
X129491418Y-67700000D01*
X129491418Y-70700000D01*
X129497732Y-70764103D01*
X129516430Y-70825743D01*
X129546794Y-70882550D01*
X129587657Y-70932343D01*
X129637450Y-70973206D01*
X129694257Y-71003570D01*
X129755897Y-71022268D01*
X129820000Y-71028582D01*
X132820000Y-71028582D01*
X132884103Y-71022268D01*
X132945743Y-71003570D01*
X133002550Y-70973206D01*
X133052343Y-70932343D01*
X133093206Y-70882550D01*
X133123570Y-70825743D01*
X133142268Y-70764103D01*
X133148582Y-70700000D01*
X133148582Y-67700000D01*
X133142268Y-67635897D01*
X133123570Y-67574257D01*
X133093206Y-67517450D01*
X133052343Y-67467657D01*
X133002550Y-67426794D01*
X132945743Y-67396430D01*
X132884103Y-67377732D01*
X132820000Y-67371418D01*
X129820000Y-67371418D01*
X129755897Y-67377732D01*
X129694257Y-67396430D01*
X129637450Y-67426794D01*
X129587657Y-67467657D01*
X129546794Y-67517450D01*
X129516430Y-67574257D01*
X129497732Y-67635897D01*
X129491418Y-67700000D01*
X121759634Y-67700000D01*
X121285506Y-67383198D01*
X120725528Y-67151248D01*
X120131058Y-67033000D01*
X119524942Y-67033000D01*
X118930472Y-67151248D01*
X118370494Y-67383198D01*
X117866527Y-67719938D01*
X117437938Y-68148527D01*
X117101198Y-68652494D01*
X116869248Y-69212472D01*
X116751000Y-69806942D01*
X115180000Y-69806942D01*
X115180000Y-58372500D01*
X123411918Y-58372500D01*
X123411918Y-58847500D01*
X123422795Y-58957937D01*
X123455008Y-59064130D01*
X123507320Y-59161998D01*
X123577720Y-59247780D01*
X123663502Y-59318180D01*
X123701001Y-59338224D01*
X123701001Y-59837790D01*
X123700938Y-59837942D01*
X123673000Y-59978397D01*
X123673000Y-60121603D01*
X123700938Y-60262058D01*
X123755741Y-60394364D01*
X123835302Y-60513436D01*
X123936564Y-60614698D01*
X124055636Y-60694259D01*
X124187942Y-60749062D01*
X124328397Y-60777000D01*
X124471603Y-60777000D01*
X124612058Y-60749062D01*
X124744364Y-60694259D01*
X124863436Y-60614698D01*
X124964698Y-60513436D01*
X125044259Y-60394364D01*
X125099062Y-60262058D01*
X125127000Y-60121603D01*
X125127000Y-59978397D01*
X125099062Y-59837942D01*
X125044259Y-59705636D01*
X124964698Y-59586564D01*
X124863436Y-59485302D01*
X124855000Y-59479665D01*
X124855000Y-59338223D01*
X124892498Y-59318180D01*
X124978280Y-59247780D01*
X125048680Y-59161998D01*
X125100992Y-59064130D01*
X125133205Y-58957937D01*
X125144082Y-58847500D01*
X125144082Y-58372500D01*
X125133205Y-58262063D01*
X125100992Y-58155870D01*
X125048680Y-58058002D01*
X124978280Y-57972220D01*
X124892498Y-57901820D01*
X124855000Y-57881777D01*
X124855000Y-57343582D01*
X125953000Y-57343582D01*
X126017103Y-57337268D01*
X126078743Y-57318570D01*
X126135550Y-57288206D01*
X126185343Y-57247343D01*
X126226206Y-57197550D01*
X126256570Y-57140743D01*
X126275268Y-57079103D01*
X126281582Y-57015000D01*
X126281582Y-55815000D01*
X126275268Y-55750897D01*
X126256570Y-55689257D01*
X126226206Y-55632450D01*
X126185343Y-55582657D01*
X126135550Y-55541794D01*
X126078743Y-55511430D01*
X126017103Y-55492732D01*
X125953000Y-55486418D01*
X123753000Y-55486418D01*
X123688897Y-55492732D01*
X123627257Y-55511430D01*
X123570450Y-55541794D01*
X123520657Y-55582657D01*
X123479794Y-55632450D01*
X123449430Y-55689257D01*
X123430732Y-55750897D01*
X123424418Y-55815000D01*
X123424418Y-57015000D01*
X123430732Y-57079103D01*
X123449430Y-57140743D01*
X123479794Y-57197550D01*
X123520657Y-57247343D01*
X123570450Y-57288206D01*
X123627257Y-57318570D01*
X123688897Y-57337268D01*
X123701001Y-57338460D01*
X123701000Y-57881776D01*
X123663502Y-57901820D01*
X123577720Y-57972220D01*
X123507320Y-58058002D01*
X123455008Y-58155870D01*
X123422795Y-58262063D01*
X123411918Y-58372500D01*
X115180000Y-58372500D01*
X115180000Y-45510056D01*
X117001000Y-45510056D01*
X117001000Y-45869944D01*
X117071211Y-46222916D01*
X117208934Y-46555409D01*
X117408876Y-46854645D01*
X117663355Y-47109124D01*
X117962591Y-47309066D01*
X118295084Y-47446789D01*
X118648056Y-47517000D01*
X119007944Y-47517000D01*
X119360916Y-47446789D01*
X119693409Y-47309066D01*
X119992645Y-47109124D01*
X120247124Y-46854645D01*
X120447066Y-46555409D01*
X120566529Y-46267000D01*
X121600999Y-46267000D01*
X123751000Y-48417001D01*
X123751000Y-48881776D01*
X123713502Y-48901820D01*
X123627720Y-48972220D01*
X123557320Y-49058002D01*
X123505008Y-49155870D01*
X123472795Y-49262063D01*
X123461918Y-49372500D01*
X123461918Y-49847500D01*
X123472795Y-49957937D01*
X123505008Y-50064130D01*
X123557320Y-50161998D01*
X123627720Y-50247780D01*
X123713502Y-50318180D01*
X123751000Y-50338224D01*
X123751001Y-50926615D01*
X123688897Y-50932732D01*
X123627257Y-50951430D01*
X123570450Y-50981794D01*
X123520657Y-51022657D01*
X123479794Y-51072450D01*
X123449430Y-51129257D01*
X123430732Y-51190897D01*
X123424418Y-51255000D01*
X123424418Y-52455000D01*
X123430732Y-52519103D01*
X123449430Y-52580743D01*
X123479794Y-52637550D01*
X123520657Y-52687343D01*
X123570450Y-52728206D01*
X123627257Y-52758570D01*
X123688897Y-52777268D01*
X123753000Y-52783582D01*
X125953000Y-52783582D01*
X126017103Y-52777268D01*
X126078743Y-52758570D01*
X126135550Y-52728206D01*
X126185343Y-52687343D01*
X126226206Y-52637550D01*
X126256570Y-52580743D01*
X126275268Y-52519103D01*
X126281582Y-52455000D01*
X126281582Y-51255000D01*
X126275268Y-51190897D01*
X126256570Y-51129257D01*
X126226206Y-51072450D01*
X126185343Y-51022657D01*
X126135550Y-50981794D01*
X126078743Y-50951430D01*
X126017103Y-50932732D01*
X125953000Y-50926418D01*
X124905000Y-50926418D01*
X124905000Y-50338223D01*
X124942498Y-50318180D01*
X125028280Y-50247780D01*
X125098680Y-50161998D01*
X125150992Y-50064130D01*
X125183205Y-49957937D01*
X125194082Y-49847500D01*
X125194082Y-49372500D01*
X125183205Y-49262063D01*
X125150992Y-49155870D01*
X125098680Y-49058002D01*
X125028280Y-48972220D01*
X124942498Y-48901820D01*
X124905000Y-48881777D01*
X124905000Y-48206328D01*
X124907790Y-48177999D01*
X124905000Y-48149670D01*
X124905000Y-48149664D01*
X124896650Y-48064888D01*
X124863657Y-47956124D01*
X124810079Y-47855885D01*
X124737974Y-47768026D01*
X124715963Y-47749962D01*
X122268039Y-45302038D01*
X122249974Y-45280026D01*
X122162115Y-45207921D01*
X122061876Y-45154343D01*
X121990034Y-45132550D01*
X121953111Y-45121349D01*
X121898045Y-45115926D01*
X121868336Y-45113000D01*
X121868331Y-45113000D01*
X121840000Y-45110210D01*
X121811669Y-45113000D01*
X120566529Y-45113000D01*
X120447066Y-44824591D01*
X120247124Y-44525355D01*
X119992645Y-44270876D01*
X119693409Y-44070934D01*
X119360916Y-43933211D01*
X119007944Y-43863000D01*
X118648056Y-43863000D01*
X118295084Y-43933211D01*
X117962591Y-44070934D01*
X117663355Y-44270876D01*
X117408876Y-44525355D01*
X117208934Y-44824591D01*
X117071211Y-45157084D01*
X117001000Y-45510056D01*
X115180000Y-45510056D01*
X115180000Y-42550000D01*
X131299418Y-42550000D01*
X131299418Y-44950000D01*
X131305732Y-45014103D01*
X131324430Y-45075743D01*
X131354794Y-45132550D01*
X131395657Y-45182343D01*
X131445450Y-45223206D01*
X131502257Y-45253570D01*
X131563897Y-45272268D01*
X131628000Y-45278582D01*
X134028000Y-45278582D01*
X134092103Y-45272268D01*
X134153743Y-45253570D01*
X134210550Y-45223206D01*
X134260343Y-45182343D01*
X134301206Y-45132550D01*
X134323000Y-45091776D01*
X134323000Y-60673000D01*
X132000000Y-60673000D01*
X131969398Y-60676001D01*
X131938726Y-60678792D01*
X131937624Y-60679116D01*
X131936485Y-60679228D01*
X131907007Y-60688128D01*
X131877504Y-60696811D01*
X131876491Y-60697341D01*
X131875390Y-60697673D01*
X131848190Y-60712136D01*
X131820947Y-60726378D01*
X131820053Y-60727097D01*
X131819041Y-60727635D01*
X131795223Y-60747060D01*
X131771210Y-60766367D01*
X131770472Y-60767247D01*
X131769585Y-60767970D01*
X131749989Y-60791658D01*
X131730188Y-60815256D01*
X131729636Y-60816261D01*
X131728905Y-60817144D01*
X131714265Y-60844220D01*
X131699443Y-60871181D01*
X131699097Y-60872273D01*
X131698551Y-60873282D01*
X131689447Y-60902692D01*
X131680146Y-60932013D01*
X131680018Y-60933152D01*
X131679679Y-60934248D01*
X131676461Y-60964865D01*
X131673032Y-60995434D01*
X131673017Y-60997635D01*
X131673008Y-60997717D01*
X131673015Y-60997799D01*
X131673000Y-61000000D01*
X131673000Y-63000000D01*
X131676001Y-63030602D01*
X131678792Y-63061274D01*
X131679116Y-63062376D01*
X131679228Y-63063515D01*
X131688128Y-63092993D01*
X131696811Y-63122496D01*
X131697341Y-63123509D01*
X131697673Y-63124610D01*
X131712136Y-63151810D01*
X131726378Y-63179053D01*
X131727097Y-63179947D01*
X131727635Y-63180959D01*
X131747060Y-63204777D01*
X131766367Y-63228790D01*
X131767247Y-63229528D01*
X131767970Y-63230415D01*
X131791658Y-63250011D01*
X131815256Y-63269812D01*
X131816261Y-63270364D01*
X131817144Y-63271095D01*
X131844220Y-63285735D01*
X131871181Y-63300557D01*
X131872273Y-63300903D01*
X131873282Y-63301449D01*
X131902692Y-63310553D01*
X131932013Y-63319854D01*
X131933152Y-63319982D01*
X131934248Y-63320321D01*
X131964865Y-63323539D01*
X131995434Y-63326968D01*
X131997635Y-63326983D01*
X131997717Y-63326992D01*
X131997799Y-63326985D01*
X132000000Y-63327000D01*
X134323000Y-63327000D01*
X134323000Y-70750000D01*
X134329063Y-70812677D01*
X134347457Y-70874084D01*
X134377478Y-70930723D01*
X134417972Y-70980417D01*
X134467382Y-71021256D01*
X134523811Y-71051671D01*
X134585088Y-71070493D01*
X134648861Y-71076998D01*
X148998861Y-71126998D01*
X149063795Y-71120717D01*
X149125137Y-71102109D01*
X149181671Y-71071891D01*
X149231224Y-71031224D01*
X149271891Y-70981671D01*
X149302109Y-70925137D01*
X149320717Y-70863795D01*
X149327000Y-70800000D01*
X149327000Y-70478397D01*
X149373000Y-70478397D01*
X149373000Y-70621603D01*
X149400938Y-70762058D01*
X149455741Y-70894364D01*
X149535302Y-71013436D01*
X149636564Y-71114698D01*
X149755636Y-71194259D01*
X149887942Y-71249062D01*
X149966733Y-71264734D01*
X150681210Y-71979211D01*
X150593880Y-72050880D01*
X150521926Y-72138557D01*
X150468460Y-72238586D01*
X150435535Y-72347123D01*
X150424418Y-72459999D01*
X150424418Y-73360001D01*
X150435535Y-73472877D01*
X150468460Y-73581414D01*
X150521926Y-73681443D01*
X150593880Y-73769120D01*
X150681557Y-73841074D01*
X150781586Y-73894540D01*
X150890123Y-73927465D01*
X151002999Y-73938582D01*
X153853001Y-73938582D01*
X153965877Y-73927465D01*
X154074414Y-73894540D01*
X154174443Y-73841074D01*
X154262120Y-73769120D01*
X154334074Y-73681443D01*
X154387540Y-73581414D01*
X154420465Y-73472877D01*
X154431582Y-73360001D01*
X154431582Y-72459999D01*
X154420465Y-72347123D01*
X154387540Y-72238586D01*
X154334074Y-72138557D01*
X154262120Y-72050880D01*
X154174443Y-71978926D01*
X154074414Y-71925460D01*
X153965877Y-71892535D01*
X153853001Y-71881418D01*
X152215420Y-71881418D01*
X150827000Y-70492999D01*
X150827000Y-70478397D01*
X150799062Y-70337942D01*
X150744259Y-70205636D01*
X150664698Y-70086564D01*
X150563436Y-69985302D01*
X150444364Y-69905741D01*
X150312058Y-69850938D01*
X150171603Y-69823000D01*
X150028397Y-69823000D01*
X149887942Y-69850938D01*
X149755636Y-69905741D01*
X149636564Y-69985302D01*
X149535302Y-70086564D01*
X149455741Y-70205636D01*
X149400938Y-70337942D01*
X149373000Y-70478397D01*
X149327000Y-70478397D01*
X149327000Y-64327000D01*
X150400000Y-64327000D01*
X150463795Y-64320717D01*
X150525137Y-64302109D01*
X150581671Y-64271891D01*
X150631224Y-64231224D01*
X150671891Y-64181671D01*
X150702109Y-64125137D01*
X150720717Y-64063795D01*
X150727000Y-64000000D01*
X150727000Y-63811744D01*
X150765880Y-63859120D01*
X150853557Y-63931074D01*
X150953586Y-63984540D01*
X151062123Y-64017465D01*
X151174999Y-64028582D01*
X154025001Y-64028582D01*
X154073000Y-64023855D01*
X154073000Y-65825031D01*
X153965877Y-65792535D01*
X153853001Y-65781418D01*
X151002999Y-65781418D01*
X150890123Y-65792535D01*
X150781586Y-65825460D01*
X150681557Y-65878926D01*
X150593880Y-65950880D01*
X150521926Y-66038557D01*
X150468460Y-66138586D01*
X150435535Y-66247123D01*
X150424418Y-66359999D01*
X150424418Y-67260001D01*
X150435535Y-67372877D01*
X150468460Y-67481414D01*
X150521926Y-67581443D01*
X150593880Y-67669120D01*
X150681557Y-67741074D01*
X150781586Y-67794540D01*
X150890123Y-67827465D01*
X151002999Y-67838582D01*
X153853001Y-67838582D01*
X153965877Y-67827465D01*
X154073000Y-67794969D01*
X154073000Y-70600000D01*
X154079283Y-70663795D01*
X154097891Y-70725137D01*
X154128109Y-70781671D01*
X154168776Y-70831224D01*
X154218329Y-70871891D01*
X154274863Y-70902109D01*
X154336205Y-70920717D01*
X154400000Y-70927000D01*
X171527678Y-70927000D01*
X171563989Y-70963311D01*
X171904171Y-71190614D01*
X172282161Y-71347182D01*
X172683433Y-71427000D01*
X173092567Y-71427000D01*
X173493839Y-71347182D01*
X173871829Y-71190614D01*
X174212011Y-70963311D01*
X174248322Y-70927000D01*
X179853230Y-70927000D01*
X179869248Y-71007528D01*
X180101198Y-71567506D01*
X180437938Y-72071473D01*
X180866527Y-72500062D01*
X181370494Y-72836802D01*
X181930472Y-73068752D01*
X182524942Y-73187000D01*
X183131058Y-73187000D01*
X183725528Y-73068752D01*
X184285506Y-72836802D01*
X184789473Y-72500062D01*
X185218062Y-72071473D01*
X185554802Y-71567506D01*
X185786752Y-71007528D01*
X185905000Y-70413058D01*
X185905000Y-69806942D01*
X185786752Y-69212472D01*
X185554802Y-68652494D01*
X185218062Y-68148527D01*
X184789473Y-67719938D01*
X184285506Y-67383198D01*
X183725528Y-67151248D01*
X183131058Y-67033000D01*
X182927000Y-67033000D01*
X182927000Y-57938582D01*
X183328000Y-57938582D01*
X183392103Y-57932268D01*
X183453743Y-57913570D01*
X183510550Y-57883206D01*
X183560343Y-57842343D01*
X183601206Y-57792550D01*
X183631570Y-57735743D01*
X183650268Y-57674103D01*
X183656582Y-57610000D01*
X183656582Y-54610000D01*
X183650268Y-54545897D01*
X183631570Y-54484257D01*
X183601206Y-54427450D01*
X183560343Y-54377657D01*
X183510550Y-54336794D01*
X183453743Y-54306430D01*
X183392103Y-54287732D01*
X183328000Y-54281418D01*
X182927000Y-54281418D01*
X182927000Y-54000000D01*
X182920717Y-53936205D01*
X182902109Y-53874863D01*
X182871891Y-53818329D01*
X182831224Y-53768776D01*
X182781671Y-53728109D01*
X182725137Y-53697891D01*
X182663795Y-53679283D01*
X182600000Y-53673000D01*
X179000000Y-53673000D01*
X178919906Y-53682961D01*
X159959335Y-58473000D01*
X157366583Y-58473000D01*
X157463323Y-58292012D01*
X157536486Y-58050826D01*
X157561190Y-57800000D01*
X157536486Y-57549174D01*
X157463323Y-57307988D01*
X157344512Y-57085709D01*
X157184620Y-56890880D01*
X156989791Y-56730988D01*
X156767512Y-56612177D01*
X156533143Y-56541082D01*
X157228000Y-56541082D01*
X157292103Y-56534768D01*
X157353743Y-56516070D01*
X157410550Y-56485706D01*
X157460343Y-56444843D01*
X157501206Y-56395050D01*
X157531570Y-56338243D01*
X157550268Y-56276603D01*
X157556582Y-56212500D01*
X157556582Y-54307500D01*
X157550268Y-54243397D01*
X157531570Y-54181757D01*
X157501206Y-54124950D01*
X157460343Y-54075157D01*
X157410550Y-54034294D01*
X157353743Y-54003930D01*
X157292103Y-53985232D01*
X157228000Y-53978918D01*
X155228000Y-53978918D01*
X155163897Y-53985232D01*
X155102257Y-54003930D01*
X155045450Y-54034294D01*
X154995657Y-54075157D01*
X154954794Y-54124950D01*
X154924430Y-54181757D01*
X154905732Y-54243397D01*
X154899418Y-54307500D01*
X154899418Y-54683000D01*
X154268328Y-54683000D01*
X154239999Y-54680210D01*
X154211670Y-54683000D01*
X154211664Y-54683000D01*
X154126888Y-54691350D01*
X154018124Y-54724343D01*
X153917885Y-54777921D01*
X153871980Y-54815595D01*
X153852035Y-54831963D01*
X153852033Y-54831965D01*
X153830026Y-54850026D01*
X153811965Y-54872033D01*
X152812581Y-55871418D01*
X151174999Y-55871418D01*
X151062123Y-55882535D01*
X150953586Y-55915460D01*
X150853557Y-55968926D01*
X150765880Y-56040880D01*
X150693926Y-56128557D01*
X150640460Y-56228586D01*
X150607535Y-56337123D01*
X150596418Y-56449999D01*
X150596418Y-57350001D01*
X150607535Y-57462877D01*
X150640460Y-57571414D01*
X150693926Y-57671443D01*
X150765880Y-57759120D01*
X150853557Y-57831074D01*
X150953586Y-57884540D01*
X151062123Y-57917465D01*
X151174999Y-57928582D01*
X154025001Y-57928582D01*
X154137877Y-57917465D01*
X154246414Y-57884540D01*
X154346443Y-57831074D01*
X154434120Y-57759120D01*
X154506074Y-57671443D01*
X154559540Y-57571414D01*
X154592465Y-57462877D01*
X154603582Y-57350001D01*
X154603582Y-56449999D01*
X154592465Y-56337123D01*
X154559540Y-56228586D01*
X154506074Y-56128557D01*
X154434120Y-56040880D01*
X154346791Y-55969211D01*
X154479002Y-55837000D01*
X154899418Y-55837000D01*
X154899418Y-56212500D01*
X154905732Y-56276603D01*
X154924430Y-56338243D01*
X154954794Y-56395050D01*
X154995657Y-56444843D01*
X155045450Y-56485706D01*
X155102257Y-56516070D01*
X155163897Y-56534768D01*
X155228000Y-56541082D01*
X155922857Y-56541082D01*
X155688488Y-56612177D01*
X155466209Y-56730988D01*
X155271380Y-56890880D01*
X155111488Y-57085709D01*
X154992677Y-57307988D01*
X154919514Y-57549174D01*
X154894810Y-57800000D01*
X154919514Y-58050826D01*
X154992677Y-58292012D01*
X155089417Y-58473000D01*
X149327000Y-58473000D01*
X149327000Y-50262000D01*
X150424615Y-50262000D01*
X150435535Y-50372877D01*
X150468460Y-50481414D01*
X150521926Y-50581443D01*
X150593880Y-50669120D01*
X150681557Y-50741074D01*
X150781586Y-50794540D01*
X150890123Y-50827465D01*
X151002999Y-50838582D01*
X153853001Y-50838582D01*
X153965877Y-50827465D01*
X154074414Y-50794540D01*
X154174443Y-50741074D01*
X154262120Y-50669120D01*
X154334074Y-50581443D01*
X154387540Y-50481414D01*
X154420465Y-50372877D01*
X154431582Y-50260001D01*
X154431582Y-49359999D01*
X154420465Y-49247123D01*
X154387540Y-49138586D01*
X154334074Y-49038557D01*
X154262120Y-48950880D01*
X154174443Y-48878926D01*
X154074414Y-48825460D01*
X153965877Y-48792535D01*
X153853001Y-48781418D01*
X151002999Y-48781418D01*
X150890123Y-48792535D01*
X150781586Y-48825460D01*
X150681557Y-48878926D01*
X150655000Y-48900721D01*
X150655000Y-47886526D01*
X150702863Y-47912109D01*
X150764205Y-47930717D01*
X150828000Y-47937000D01*
X160328000Y-47937000D01*
X160391795Y-47930717D01*
X160406284Y-47926322D01*
X171528882Y-47828204D01*
X171563989Y-47863311D01*
X171904171Y-48090614D01*
X172282161Y-48247182D01*
X172683433Y-48327000D01*
X173092567Y-48327000D01*
X173493839Y-48247182D01*
X173871829Y-48090614D01*
X174212011Y-47863311D01*
X174271310Y-47804012D01*
X181464835Y-47740555D01*
X181648056Y-47777000D01*
X182007944Y-47777000D01*
X182224871Y-47733850D01*
X183002885Y-47726987D01*
X183063795Y-47720717D01*
X183125137Y-47702109D01*
X183181671Y-47671891D01*
X183231224Y-47631224D01*
X183271891Y-47581671D01*
X183302109Y-47525137D01*
X183320717Y-47463795D01*
X183327000Y-47400000D01*
X183327000Y-46995101D01*
X183447066Y-46815409D01*
X183584789Y-46482916D01*
X183655000Y-46129944D01*
X183655000Y-45770056D01*
X183584789Y-45417084D01*
X183447066Y-45084591D01*
X183327000Y-44904899D01*
X183327000Y-37148025D01*
X183725528Y-37068752D01*
X184285506Y-36836802D01*
X184789473Y-36500062D01*
X185218062Y-36071473D01*
X185554802Y-35567506D01*
X185786752Y-35007528D01*
X185905000Y-34413058D01*
X185905000Y-33806942D01*
X185786752Y-33212472D01*
X185554802Y-32652494D01*
X185218062Y-32148527D01*
X184789473Y-31719938D01*
X184285506Y-31383198D01*
X183725528Y-31151248D01*
X183131058Y-31033000D01*
X182524942Y-31033000D01*
X181930472Y-31151248D01*
X181370494Y-31383198D01*
X180866527Y-31719938D01*
X180437938Y-32148527D01*
X180101198Y-32652494D01*
X179869248Y-33212472D01*
X179751000Y-33806942D01*
X179751000Y-34413058D01*
X179869248Y-35007528D01*
X180072591Y-35498443D01*
X174765577Y-35544591D01*
X174885182Y-35255839D01*
X174965000Y-34854567D01*
X174965000Y-34445433D01*
X174885182Y-34044161D01*
X174728614Y-33666171D01*
X174501311Y-33325989D01*
X174212011Y-33036689D01*
X173871829Y-32809386D01*
X173493839Y-32652818D01*
X173092567Y-32573000D01*
X172683433Y-32573000D01*
X172282161Y-32652818D01*
X171904171Y-32809386D01*
X171563989Y-33036689D01*
X171274689Y-33325989D01*
X171047386Y-33666171D01*
X170890818Y-34044161D01*
X170811000Y-34445433D01*
X170811000Y-34854567D01*
X170890818Y-35255839D01*
X171023899Y-35577127D01*
X159997157Y-35673012D01*
X159936205Y-35679283D01*
X159923952Y-35683000D01*
X157033672Y-35683000D01*
X157184620Y-35559120D01*
X157344512Y-35364291D01*
X157463323Y-35142012D01*
X157536486Y-34900826D01*
X157561190Y-34650000D01*
X157536486Y-34399174D01*
X157463323Y-34157988D01*
X157344512Y-33935709D01*
X157184620Y-33740880D01*
X156989791Y-33580988D01*
X156767512Y-33462177D01*
X156533143Y-33391082D01*
X157228000Y-33391082D01*
X157292103Y-33384768D01*
X157353743Y-33366070D01*
X157410550Y-33335706D01*
X157460343Y-33294843D01*
X157501206Y-33245050D01*
X157531570Y-33188243D01*
X157550268Y-33126603D01*
X157556582Y-33062500D01*
X157556582Y-31157500D01*
X157550268Y-31093397D01*
X157531570Y-31031757D01*
X157501206Y-30974950D01*
X157460343Y-30925157D01*
X157410550Y-30884294D01*
X157353743Y-30853930D01*
X157292103Y-30835232D01*
X157228000Y-30828918D01*
X155228000Y-30828918D01*
X155163897Y-30835232D01*
X155102257Y-30853930D01*
X155045450Y-30884294D01*
X154995657Y-30925157D01*
X154954794Y-30974950D01*
X154924430Y-31031757D01*
X154905732Y-31093397D01*
X154899418Y-31157500D01*
X154899418Y-31533000D01*
X154616181Y-31533000D01*
X154587540Y-31438586D01*
X154534074Y-31338557D01*
X154462120Y-31250880D01*
X154374443Y-31178926D01*
X154274414Y-31125460D01*
X154165877Y-31092535D01*
X154053001Y-31081418D01*
X151202999Y-31081418D01*
X151090123Y-31092535D01*
X150981586Y-31125460D01*
X150881557Y-31178926D01*
X150793880Y-31250880D01*
X150721926Y-31338557D01*
X150668460Y-31438586D01*
X150635535Y-31547123D01*
X150624418Y-31659999D01*
X150624418Y-32560001D01*
X150635535Y-32672877D01*
X150668460Y-32781414D01*
X150721926Y-32881443D01*
X150793880Y-32969120D01*
X150881557Y-33041074D01*
X150981586Y-33094540D01*
X151090123Y-33127465D01*
X151202999Y-33138582D01*
X154053001Y-33138582D01*
X154165877Y-33127465D01*
X154274414Y-33094540D01*
X154374443Y-33041074D01*
X154462120Y-32969120D01*
X154534074Y-32881443D01*
X154587540Y-32781414D01*
X154616181Y-32687000D01*
X154899418Y-32687000D01*
X154899418Y-33062500D01*
X154905732Y-33126603D01*
X154924430Y-33188243D01*
X154954794Y-33245050D01*
X154995657Y-33294843D01*
X155045450Y-33335706D01*
X155102257Y-33366070D01*
X155163897Y-33384768D01*
X155228000Y-33391082D01*
X155922857Y-33391082D01*
X155688488Y-33462177D01*
X155466209Y-33580988D01*
X155271380Y-33740880D01*
X155111488Y-33935709D01*
X154992677Y-34157988D01*
X154919514Y-34399174D01*
X154894810Y-34650000D01*
X154919514Y-34900826D01*
X154992677Y-35142012D01*
X155111488Y-35364291D01*
X155271380Y-35559120D01*
X155422328Y-35683000D01*
X154828000Y-35683000D01*
X154764205Y-35689283D01*
X154702863Y-35707891D01*
X154646329Y-35738109D01*
X154596776Y-35778776D01*
X154556109Y-35828329D01*
X154525891Y-35884863D01*
X154507283Y-35946205D01*
X154501000Y-36010000D01*
X154501000Y-37398256D01*
X154462120Y-37350880D01*
X154374443Y-37278926D01*
X154274414Y-37225460D01*
X154165877Y-37192535D01*
X154053001Y-37181418D01*
X151202999Y-37181418D01*
X151090123Y-37192535D01*
X150981586Y-37225460D01*
X150881557Y-37278926D01*
X150793880Y-37350880D01*
X150721926Y-37438557D01*
X150668460Y-37538586D01*
X150635535Y-37647123D01*
X150624418Y-37759999D01*
X150624418Y-38660001D01*
X150635535Y-38772877D01*
X150668460Y-38881414D01*
X150721926Y-38981443D01*
X150793880Y-39069120D01*
X150881557Y-39141074D01*
X150981586Y-39194540D01*
X151090123Y-39227465D01*
X151202999Y-39238582D01*
X152073001Y-39238582D01*
X152073000Y-41704975D01*
X152005741Y-41805636D01*
X151950938Y-41937942D01*
X151923000Y-42078397D01*
X151923000Y-42221603D01*
X151950938Y-42362058D01*
X152005741Y-42494364D01*
X152085302Y-42613436D01*
X152153284Y-42681418D01*
X151002999Y-42681418D01*
X150890123Y-42692535D01*
X150781586Y-42725460D01*
X150681557Y-42778926D01*
X150593880Y-42850880D01*
X150521926Y-42938557D01*
X150468460Y-43038586D01*
X150435535Y-43147123D01*
X150424418Y-43259999D01*
X150424418Y-43783000D01*
X149327000Y-43783000D01*
X149327000Y-43000000D01*
X149320937Y-42937323D01*
X149302543Y-42875916D01*
X149272522Y-42819277D01*
X149232028Y-42769583D01*
X149182618Y-42728744D01*
X149126189Y-42698329D01*
X149064912Y-42679507D01*
X149001139Y-42673002D01*
X134651139Y-42623002D01*
X134586205Y-42629283D01*
X134524863Y-42647891D01*
X134468329Y-42678109D01*
X134418776Y-42718776D01*
X134378109Y-42768329D01*
X134356582Y-42808603D01*
X134356582Y-42550000D01*
X134350268Y-42485897D01*
X134331570Y-42424257D01*
X134301206Y-42367450D01*
X134260343Y-42317657D01*
X134210550Y-42276794D01*
X134153743Y-42246430D01*
X134092103Y-42227732D01*
X134028000Y-42221418D01*
X131628000Y-42221418D01*
X131563897Y-42227732D01*
X131502257Y-42246430D01*
X131445450Y-42276794D01*
X131395657Y-42317657D01*
X131354794Y-42367450D01*
X131324430Y-42424257D01*
X131305732Y-42485897D01*
X131299418Y-42550000D01*
X115180000Y-42550000D01*
X115180000Y-34125672D01*
X115208445Y-33806942D01*
X116751000Y-33806942D01*
X116751000Y-34413058D01*
X116869248Y-35007528D01*
X117101198Y-35567506D01*
X117437938Y-36071473D01*
X117866527Y-36500062D01*
X118370494Y-36836802D01*
X118930472Y-37068752D01*
X119524942Y-37187000D01*
X120131058Y-37187000D01*
X120725528Y-37068752D01*
X121285506Y-36836802D01*
X121789473Y-36500062D01*
X122218062Y-36071473D01*
X122554802Y-35567506D01*
X122786752Y-35007528D01*
X122905000Y-34413058D01*
X122905000Y-33806942D01*
X122786752Y-33212472D01*
X122554802Y-32652494D01*
X122218062Y-32148527D01*
X121789473Y-31719938D01*
X121285506Y-31383198D01*
X120725528Y-31151248D01*
X120131058Y-31033000D01*
X119524942Y-31033000D01*
X118930472Y-31151248D01*
X118370494Y-31383198D01*
X117866527Y-31719938D01*
X117437938Y-32148527D01*
X117101198Y-32652494D01*
X116869248Y-33212472D01*
X116751000Y-33806942D01*
X115208445Y-33806942D01*
X115254835Y-33287158D01*
X115472824Y-32490325D01*
X115828476Y-31744688D01*
X116310548Y-31073813D01*
X116903798Y-30498913D01*
X117589481Y-30038154D01*
X118345924Y-29706098D01*
X119151916Y-29512596D01*
X119840911Y-29462000D01*
X182812328Y-29462000D01*
X183650842Y-29536835D01*
G04 #@! TA.AperFunction,Conductor*
D27*
G36*
X183650842Y-29536835D02*
G01*
X184447675Y-29754824D01*
X185193312Y-30110476D01*
X185864187Y-30592548D01*
X186439087Y-31185798D01*
X186899846Y-31871481D01*
X187231902Y-32627924D01*
X187425404Y-33433916D01*
X187476000Y-34122911D01*
X187476001Y-70094317D01*
X187401165Y-70932842D01*
X187183176Y-71729673D01*
X186827523Y-72475315D01*
X186345452Y-73146187D01*
X185752202Y-73721087D01*
X185066519Y-74181846D01*
X184310076Y-74513902D01*
X183504084Y-74707404D01*
X182815089Y-74758000D01*
X119843672Y-74758000D01*
X119005158Y-74683165D01*
X118208327Y-74465176D01*
X117462685Y-74109523D01*
X116791813Y-73627452D01*
X116216913Y-73034202D01*
X115756154Y-72348519D01*
X115424098Y-71592076D01*
X115230596Y-70786084D01*
X115180000Y-70097089D01*
X115180000Y-69806942D01*
X116751000Y-69806942D01*
X116751000Y-70413058D01*
X116869248Y-71007528D01*
X117101198Y-71567506D01*
X117437938Y-72071473D01*
X117866527Y-72500062D01*
X118370494Y-72836802D01*
X118930472Y-73068752D01*
X119524942Y-73187000D01*
X120131058Y-73187000D01*
X120725528Y-73068752D01*
X121285506Y-72836802D01*
X121789473Y-72500062D01*
X122218062Y-72071473D01*
X122554802Y-71567506D01*
X122786752Y-71007528D01*
X122905000Y-70413058D01*
X122905000Y-69806942D01*
X122786752Y-69212472D01*
X122554802Y-68652494D01*
X122218062Y-68148527D01*
X121789473Y-67719938D01*
X121759634Y-67700000D01*
X129491418Y-67700000D01*
X129491418Y-70700000D01*
X129497732Y-70764103D01*
X129516430Y-70825743D01*
X129546794Y-70882550D01*
X129587657Y-70932343D01*
X129637450Y-70973206D01*
X129694257Y-71003570D01*
X129755897Y-71022268D01*
X129820000Y-71028582D01*
X132820000Y-71028582D01*
X132884103Y-71022268D01*
X132945743Y-71003570D01*
X133002550Y-70973206D01*
X133052343Y-70932343D01*
X133093206Y-70882550D01*
X133123570Y-70825743D01*
X133142268Y-70764103D01*
X133148582Y-70700000D01*
X133148582Y-67700000D01*
X133142268Y-67635897D01*
X133123570Y-67574257D01*
X133093206Y-67517450D01*
X133052343Y-67467657D01*
X133002550Y-67426794D01*
X132945743Y-67396430D01*
X132884103Y-67377732D01*
X132820000Y-67371418D01*
X129820000Y-67371418D01*
X129755897Y-67377732D01*
X129694257Y-67396430D01*
X129637450Y-67426794D01*
X129587657Y-67467657D01*
X129546794Y-67517450D01*
X129516430Y-67574257D01*
X129497732Y-67635897D01*
X129491418Y-67700000D01*
X121759634Y-67700000D01*
X121285506Y-67383198D01*
X120725528Y-67151248D01*
X120131058Y-67033000D01*
X119524942Y-67033000D01*
X118930472Y-67151248D01*
X118370494Y-67383198D01*
X117866527Y-67719938D01*
X117437938Y-68148527D01*
X117101198Y-68652494D01*
X116869248Y-69212472D01*
X116751000Y-69806942D01*
X115180000Y-69806942D01*
X115180000Y-58372500D01*
X123411918Y-58372500D01*
X123411918Y-58847500D01*
X123422795Y-58957937D01*
X123455008Y-59064130D01*
X123507320Y-59161998D01*
X123577720Y-59247780D01*
X123663502Y-59318180D01*
X123701001Y-59338224D01*
X123701001Y-59837790D01*
X123700938Y-59837942D01*
X123673000Y-59978397D01*
X123673000Y-60121603D01*
X123700938Y-60262058D01*
X123755741Y-60394364D01*
X123835302Y-60513436D01*
X123936564Y-60614698D01*
X124055636Y-60694259D01*
X124187942Y-60749062D01*
X124328397Y-60777000D01*
X124471603Y-60777000D01*
X124612058Y-60749062D01*
X124744364Y-60694259D01*
X124863436Y-60614698D01*
X124964698Y-60513436D01*
X125044259Y-60394364D01*
X125099062Y-60262058D01*
X125127000Y-60121603D01*
X125127000Y-59978397D01*
X125099062Y-59837942D01*
X125044259Y-59705636D01*
X124964698Y-59586564D01*
X124863436Y-59485302D01*
X124855000Y-59479665D01*
X124855000Y-59338223D01*
X124892498Y-59318180D01*
X124978280Y-59247780D01*
X125048680Y-59161998D01*
X125100992Y-59064130D01*
X125133205Y-58957937D01*
X125144082Y-58847500D01*
X125144082Y-58372500D01*
X125133205Y-58262063D01*
X125100992Y-58155870D01*
X125048680Y-58058002D01*
X124978280Y-57972220D01*
X124892498Y-57901820D01*
X124855000Y-57881777D01*
X124855000Y-57343582D01*
X125953000Y-57343582D01*
X126017103Y-57337268D01*
X126078743Y-57318570D01*
X126135550Y-57288206D01*
X126185343Y-57247343D01*
X126226206Y-57197550D01*
X126256570Y-57140743D01*
X126275268Y-57079103D01*
X126281582Y-57015000D01*
X126281582Y-55815000D01*
X126275268Y-55750897D01*
X126256570Y-55689257D01*
X126226206Y-55632450D01*
X126185343Y-55582657D01*
X126135550Y-55541794D01*
X126078743Y-55511430D01*
X126017103Y-55492732D01*
X125953000Y-55486418D01*
X123753000Y-55486418D01*
X123688897Y-55492732D01*
X123627257Y-55511430D01*
X123570450Y-55541794D01*
X123520657Y-55582657D01*
X123479794Y-55632450D01*
X123449430Y-55689257D01*
X123430732Y-55750897D01*
X123424418Y-55815000D01*
X123424418Y-57015000D01*
X123430732Y-57079103D01*
X123449430Y-57140743D01*
X123479794Y-57197550D01*
X123520657Y-57247343D01*
X123570450Y-57288206D01*
X123627257Y-57318570D01*
X123688897Y-57337268D01*
X123701001Y-57338460D01*
X123701000Y-57881776D01*
X123663502Y-57901820D01*
X123577720Y-57972220D01*
X123507320Y-58058002D01*
X123455008Y-58155870D01*
X123422795Y-58262063D01*
X123411918Y-58372500D01*
X115180000Y-58372500D01*
X115180000Y-45510056D01*
X117001000Y-45510056D01*
X117001000Y-45869944D01*
X117071211Y-46222916D01*
X117208934Y-46555409D01*
X117408876Y-46854645D01*
X117663355Y-47109124D01*
X117962591Y-47309066D01*
X118295084Y-47446789D01*
X118648056Y-47517000D01*
X119007944Y-47517000D01*
X119360916Y-47446789D01*
X119693409Y-47309066D01*
X119992645Y-47109124D01*
X120247124Y-46854645D01*
X120447066Y-46555409D01*
X120566529Y-46267000D01*
X121600999Y-46267000D01*
X123751000Y-48417001D01*
X123751000Y-48881776D01*
X123713502Y-48901820D01*
X123627720Y-48972220D01*
X123557320Y-49058002D01*
X123505008Y-49155870D01*
X123472795Y-49262063D01*
X123461918Y-49372500D01*
X123461918Y-49847500D01*
X123472795Y-49957937D01*
X123505008Y-50064130D01*
X123557320Y-50161998D01*
X123627720Y-50247780D01*
X123713502Y-50318180D01*
X123751000Y-50338224D01*
X123751001Y-50926615D01*
X123688897Y-50932732D01*
X123627257Y-50951430D01*
X123570450Y-50981794D01*
X123520657Y-51022657D01*
X123479794Y-51072450D01*
X123449430Y-51129257D01*
X123430732Y-51190897D01*
X123424418Y-51255000D01*
X123424418Y-52455000D01*
X123430732Y-52519103D01*
X123449430Y-52580743D01*
X123479794Y-52637550D01*
X123520657Y-52687343D01*
X123570450Y-52728206D01*
X123627257Y-52758570D01*
X123688897Y-52777268D01*
X123753000Y-52783582D01*
X125953000Y-52783582D01*
X126017103Y-52777268D01*
X126078743Y-52758570D01*
X126135550Y-52728206D01*
X126185343Y-52687343D01*
X126226206Y-52637550D01*
X126256570Y-52580743D01*
X126275268Y-52519103D01*
X126281582Y-52455000D01*
X126281582Y-51255000D01*
X126275268Y-51190897D01*
X126256570Y-51129257D01*
X126226206Y-51072450D01*
X126185343Y-51022657D01*
X126135550Y-50981794D01*
X126078743Y-50951430D01*
X126017103Y-50932732D01*
X125953000Y-50926418D01*
X124905000Y-50926418D01*
X124905000Y-50338223D01*
X124942498Y-50318180D01*
X125028280Y-50247780D01*
X125098680Y-50161998D01*
X125150992Y-50064130D01*
X125183205Y-49957937D01*
X125194082Y-49847500D01*
X125194082Y-49372500D01*
X125183205Y-49262063D01*
X125150992Y-49155870D01*
X125098680Y-49058002D01*
X125028280Y-48972220D01*
X124942498Y-48901820D01*
X124905000Y-48881777D01*
X124905000Y-48206328D01*
X124907790Y-48177999D01*
X124905000Y-48149670D01*
X124905000Y-48149664D01*
X124896650Y-48064888D01*
X124863657Y-47956124D01*
X124810079Y-47855885D01*
X124737974Y-47768026D01*
X124715963Y-47749962D01*
X122268039Y-45302038D01*
X122249974Y-45280026D01*
X122162115Y-45207921D01*
X122061876Y-45154343D01*
X121990034Y-45132550D01*
X121953111Y-45121349D01*
X121898045Y-45115926D01*
X121868336Y-45113000D01*
X121868331Y-45113000D01*
X121840000Y-45110210D01*
X121811669Y-45113000D01*
X120566529Y-45113000D01*
X120447066Y-44824591D01*
X120247124Y-44525355D01*
X119992645Y-44270876D01*
X119693409Y-44070934D01*
X119360916Y-43933211D01*
X119007944Y-43863000D01*
X118648056Y-43863000D01*
X118295084Y-43933211D01*
X117962591Y-44070934D01*
X117663355Y-44270876D01*
X117408876Y-44525355D01*
X117208934Y-44824591D01*
X117071211Y-45157084D01*
X117001000Y-45510056D01*
X115180000Y-45510056D01*
X115180000Y-42550000D01*
X131299418Y-42550000D01*
X131299418Y-44950000D01*
X131305732Y-45014103D01*
X131324430Y-45075743D01*
X131354794Y-45132550D01*
X131395657Y-45182343D01*
X131445450Y-45223206D01*
X131502257Y-45253570D01*
X131563897Y-45272268D01*
X131628000Y-45278582D01*
X134028000Y-45278582D01*
X134092103Y-45272268D01*
X134153743Y-45253570D01*
X134210550Y-45223206D01*
X134260343Y-45182343D01*
X134301206Y-45132550D01*
X134323000Y-45091776D01*
X134323000Y-60673000D01*
X132000000Y-60673000D01*
X131969398Y-60676001D01*
X131938726Y-60678792D01*
X131937624Y-60679116D01*
X131936485Y-60679228D01*
X131907007Y-60688128D01*
X131877504Y-60696811D01*
X131876491Y-60697341D01*
X131875390Y-60697673D01*
X131848190Y-60712136D01*
X131820947Y-60726378D01*
X131820053Y-60727097D01*
X131819041Y-60727635D01*
X131795223Y-60747060D01*
X131771210Y-60766367D01*
X131770472Y-60767247D01*
X131769585Y-60767970D01*
X131749989Y-60791658D01*
X131730188Y-60815256D01*
X131729636Y-60816261D01*
X131728905Y-60817144D01*
X131714265Y-60844220D01*
X131699443Y-60871181D01*
X131699097Y-60872273D01*
X131698551Y-60873282D01*
X131689447Y-60902692D01*
X131680146Y-60932013D01*
X131680018Y-60933152D01*
X131679679Y-60934248D01*
X131676461Y-60964865D01*
X131673032Y-60995434D01*
X131673017Y-60997635D01*
X131673008Y-60997717D01*
X131673015Y-60997799D01*
X131673000Y-61000000D01*
X131673000Y-63000000D01*
X131676001Y-63030602D01*
X131678792Y-63061274D01*
X131679116Y-63062376D01*
X131679228Y-63063515D01*
X131688128Y-63092993D01*
X131696811Y-63122496D01*
X131697341Y-63123509D01*
X131697673Y-63124610D01*
X131712136Y-63151810D01*
X131726378Y-63179053D01*
X131727097Y-63179947D01*
X131727635Y-63180959D01*
X131747060Y-63204777D01*
X131766367Y-63228790D01*
X131767247Y-63229528D01*
X131767970Y-63230415D01*
X131791658Y-63250011D01*
X131815256Y-63269812D01*
X131816261Y-63270364D01*
X131817144Y-63271095D01*
X131844220Y-63285735D01*
X131871181Y-63300557D01*
X131872273Y-63300903D01*
X131873282Y-63301449D01*
X131902692Y-63310553D01*
X131932013Y-63319854D01*
X131933152Y-63319982D01*
X131934248Y-63320321D01*
X131964865Y-63323539D01*
X131995434Y-63326968D01*
X131997635Y-63326983D01*
X131997717Y-63326992D01*
X131997799Y-63326985D01*
X132000000Y-63327000D01*
X134323000Y-63327000D01*
X134323000Y-70750000D01*
X134329063Y-70812677D01*
X134347457Y-70874084D01*
X134377478Y-70930723D01*
X134417972Y-70980417D01*
X134467382Y-71021256D01*
X134523811Y-71051671D01*
X134585088Y-71070493D01*
X134648861Y-71076998D01*
X148998861Y-71126998D01*
X149063795Y-71120717D01*
X149125137Y-71102109D01*
X149181671Y-71071891D01*
X149231224Y-71031224D01*
X149271891Y-70981671D01*
X149302109Y-70925137D01*
X149320717Y-70863795D01*
X149327000Y-70800000D01*
X149327000Y-70478397D01*
X149373000Y-70478397D01*
X149373000Y-70621603D01*
X149400938Y-70762058D01*
X149455741Y-70894364D01*
X149535302Y-71013436D01*
X149636564Y-71114698D01*
X149755636Y-71194259D01*
X149887942Y-71249062D01*
X149966733Y-71264734D01*
X150681210Y-71979211D01*
X150593880Y-72050880D01*
X150521926Y-72138557D01*
X150468460Y-72238586D01*
X150435535Y-72347123D01*
X150424418Y-72459999D01*
X150424418Y-73360001D01*
X150435535Y-73472877D01*
X150468460Y-73581414D01*
X150521926Y-73681443D01*
X150593880Y-73769120D01*
X150681557Y-73841074D01*
X150781586Y-73894540D01*
X150890123Y-73927465D01*
X151002999Y-73938582D01*
X153853001Y-73938582D01*
X153965877Y-73927465D01*
X154074414Y-73894540D01*
X154174443Y-73841074D01*
X154262120Y-73769120D01*
X154334074Y-73681443D01*
X154387540Y-73581414D01*
X154420465Y-73472877D01*
X154431582Y-73360001D01*
X154431582Y-72459999D01*
X154420465Y-72347123D01*
X154387540Y-72238586D01*
X154334074Y-72138557D01*
X154262120Y-72050880D01*
X154174443Y-71978926D01*
X154074414Y-71925460D01*
X153965877Y-71892535D01*
X153853001Y-71881418D01*
X152215420Y-71881418D01*
X150827000Y-70492999D01*
X150827000Y-70478397D01*
X150799062Y-70337942D01*
X150744259Y-70205636D01*
X150664698Y-70086564D01*
X150563436Y-69985302D01*
X150444364Y-69905741D01*
X150312058Y-69850938D01*
X150171603Y-69823000D01*
X150028397Y-69823000D01*
X149887942Y-69850938D01*
X149755636Y-69905741D01*
X149636564Y-69985302D01*
X149535302Y-70086564D01*
X149455741Y-70205636D01*
X149400938Y-70337942D01*
X149373000Y-70478397D01*
X149327000Y-70478397D01*
X149327000Y-64327000D01*
X150400000Y-64327000D01*
X150463795Y-64320717D01*
X150525137Y-64302109D01*
X150581671Y-64271891D01*
X150631224Y-64231224D01*
X150671891Y-64181671D01*
X150702109Y-64125137D01*
X150720717Y-64063795D01*
X150727000Y-64000000D01*
X150727000Y-63811744D01*
X150765880Y-63859120D01*
X150853557Y-63931074D01*
X150953586Y-63984540D01*
X151062123Y-64017465D01*
X151174999Y-64028582D01*
X154025001Y-64028582D01*
X154073000Y-64023855D01*
X154073000Y-65825031D01*
X153965877Y-65792535D01*
X153853001Y-65781418D01*
X151002999Y-65781418D01*
X150890123Y-65792535D01*
X150781586Y-65825460D01*
X150681557Y-65878926D01*
X150593880Y-65950880D01*
X150521926Y-66038557D01*
X150468460Y-66138586D01*
X150435535Y-66247123D01*
X150424418Y-66359999D01*
X150424418Y-67260001D01*
X150435535Y-67372877D01*
X150468460Y-67481414D01*
X150521926Y-67581443D01*
X150593880Y-67669120D01*
X150681557Y-67741074D01*
X150781586Y-67794540D01*
X150890123Y-67827465D01*
X151002999Y-67838582D01*
X153853001Y-67838582D01*
X153965877Y-67827465D01*
X154073000Y-67794969D01*
X154073000Y-70600000D01*
X154079283Y-70663795D01*
X154097891Y-70725137D01*
X154128109Y-70781671D01*
X154168776Y-70831224D01*
X154218329Y-70871891D01*
X154274863Y-70902109D01*
X154336205Y-70920717D01*
X154400000Y-70927000D01*
X171527678Y-70927000D01*
X171563989Y-70963311D01*
X171904171Y-71190614D01*
X172282161Y-71347182D01*
X172683433Y-71427000D01*
X173092567Y-71427000D01*
X173493839Y-71347182D01*
X173871829Y-71190614D01*
X174212011Y-70963311D01*
X174248322Y-70927000D01*
X179853230Y-70927000D01*
X179869248Y-71007528D01*
X180101198Y-71567506D01*
X180437938Y-72071473D01*
X180866527Y-72500062D01*
X181370494Y-72836802D01*
X181930472Y-73068752D01*
X182524942Y-73187000D01*
X183131058Y-73187000D01*
X183725528Y-73068752D01*
X184285506Y-72836802D01*
X184789473Y-72500062D01*
X185218062Y-72071473D01*
X185554802Y-71567506D01*
X185786752Y-71007528D01*
X185905000Y-70413058D01*
X185905000Y-69806942D01*
X185786752Y-69212472D01*
X185554802Y-68652494D01*
X185218062Y-68148527D01*
X184789473Y-67719938D01*
X184285506Y-67383198D01*
X183725528Y-67151248D01*
X183131058Y-67033000D01*
X182927000Y-67033000D01*
X182927000Y-57938582D01*
X183328000Y-57938582D01*
X183392103Y-57932268D01*
X183453743Y-57913570D01*
X183510550Y-57883206D01*
X183560343Y-57842343D01*
X183601206Y-57792550D01*
X183631570Y-57735743D01*
X183650268Y-57674103D01*
X183656582Y-57610000D01*
X183656582Y-54610000D01*
X183650268Y-54545897D01*
X183631570Y-54484257D01*
X183601206Y-54427450D01*
X183560343Y-54377657D01*
X183510550Y-54336794D01*
X183453743Y-54306430D01*
X183392103Y-54287732D01*
X183328000Y-54281418D01*
X182927000Y-54281418D01*
X182927000Y-54000000D01*
X182920717Y-53936205D01*
X182902109Y-53874863D01*
X182871891Y-53818329D01*
X182831224Y-53768776D01*
X182781671Y-53728109D01*
X182725137Y-53697891D01*
X182663795Y-53679283D01*
X182600000Y-53673000D01*
X179000000Y-53673000D01*
X178919906Y-53682961D01*
X159959335Y-58473000D01*
X157366583Y-58473000D01*
X157463323Y-58292012D01*
X157536486Y-58050826D01*
X157561190Y-57800000D01*
X157536486Y-57549174D01*
X157463323Y-57307988D01*
X157344512Y-57085709D01*
X157184620Y-56890880D01*
X156989791Y-56730988D01*
X156767512Y-56612177D01*
X156533143Y-56541082D01*
X157228000Y-56541082D01*
X157292103Y-56534768D01*
X157353743Y-56516070D01*
X157410550Y-56485706D01*
X157460343Y-56444843D01*
X157501206Y-56395050D01*
X157531570Y-56338243D01*
X157550268Y-56276603D01*
X157556582Y-56212500D01*
X157556582Y-54307500D01*
X157550268Y-54243397D01*
X157531570Y-54181757D01*
X157501206Y-54124950D01*
X157460343Y-54075157D01*
X157410550Y-54034294D01*
X157353743Y-54003930D01*
X157292103Y-53985232D01*
X157228000Y-53978918D01*
X155228000Y-53978918D01*
X155163897Y-53985232D01*
X155102257Y-54003930D01*
X155045450Y-54034294D01*
X154995657Y-54075157D01*
X154954794Y-54124950D01*
X154924430Y-54181757D01*
X154905732Y-54243397D01*
X154899418Y-54307500D01*
X154899418Y-54683000D01*
X154268328Y-54683000D01*
X154239999Y-54680210D01*
X154211670Y-54683000D01*
X154211664Y-54683000D01*
X154126888Y-54691350D01*
X154018124Y-54724343D01*
X153917885Y-54777921D01*
X153871980Y-54815595D01*
X153852035Y-54831963D01*
X153852033Y-54831965D01*
X153830026Y-54850026D01*
X153811965Y-54872033D01*
X152812581Y-55871418D01*
X151174999Y-55871418D01*
X151062123Y-55882535D01*
X150953586Y-55915460D01*
X150853557Y-55968926D01*
X150765880Y-56040880D01*
X150693926Y-56128557D01*
X150640460Y-56228586D01*
X150607535Y-56337123D01*
X150596418Y-56449999D01*
X150596418Y-57350001D01*
X150607535Y-57462877D01*
X150640460Y-57571414D01*
X150693926Y-57671443D01*
X150765880Y-57759120D01*
X150853557Y-57831074D01*
X150953586Y-57884540D01*
X151062123Y-57917465D01*
X151174999Y-57928582D01*
X154025001Y-57928582D01*
X154137877Y-57917465D01*
X154246414Y-57884540D01*
X154346443Y-57831074D01*
X154434120Y-57759120D01*
X154506074Y-57671443D01*
X154559540Y-57571414D01*
X154592465Y-57462877D01*
X154603582Y-57350001D01*
X154603582Y-56449999D01*
X154592465Y-56337123D01*
X154559540Y-56228586D01*
X154506074Y-56128557D01*
X154434120Y-56040880D01*
X154346791Y-55969211D01*
X154479002Y-55837000D01*
X154899418Y-55837000D01*
X154899418Y-56212500D01*
X154905732Y-56276603D01*
X154924430Y-56338243D01*
X154954794Y-56395050D01*
X154995657Y-56444843D01*
X155045450Y-56485706D01*
X155102257Y-56516070D01*
X155163897Y-56534768D01*
X155228000Y-56541082D01*
X155922857Y-56541082D01*
X155688488Y-56612177D01*
X155466209Y-56730988D01*
X155271380Y-56890880D01*
X155111488Y-57085709D01*
X154992677Y-57307988D01*
X154919514Y-57549174D01*
X154894810Y-57800000D01*
X154919514Y-58050826D01*
X154992677Y-58292012D01*
X155089417Y-58473000D01*
X149327000Y-58473000D01*
X149327000Y-50262000D01*
X150424615Y-50262000D01*
X150435535Y-50372877D01*
X150468460Y-50481414D01*
X150521926Y-50581443D01*
X150593880Y-50669120D01*
X150681557Y-50741074D01*
X150781586Y-50794540D01*
X150890123Y-50827465D01*
X151002999Y-50838582D01*
X153853001Y-50838582D01*
X153965877Y-50827465D01*
X154074414Y-50794540D01*
X154174443Y-50741074D01*
X154262120Y-50669120D01*
X154334074Y-50581443D01*
X154387540Y-50481414D01*
X154420465Y-50372877D01*
X154431582Y-50260001D01*
X154431582Y-49359999D01*
X154420465Y-49247123D01*
X154387540Y-49138586D01*
X154334074Y-49038557D01*
X154262120Y-48950880D01*
X154174443Y-48878926D01*
X154074414Y-48825460D01*
X153965877Y-48792535D01*
X153853001Y-48781418D01*
X151002999Y-48781418D01*
X150890123Y-48792535D01*
X150781586Y-48825460D01*
X150681557Y-48878926D01*
X150655000Y-48900721D01*
X150655000Y-47886526D01*
X150702863Y-47912109D01*
X150764205Y-47930717D01*
X150828000Y-47937000D01*
X160328000Y-47937000D01*
X160391795Y-47930717D01*
X160406284Y-47926322D01*
X171528882Y-47828204D01*
X171563989Y-47863311D01*
X171904171Y-48090614D01*
X172282161Y-48247182D01*
X172683433Y-48327000D01*
X173092567Y-48327000D01*
X173493839Y-48247182D01*
X173871829Y-48090614D01*
X174212011Y-47863311D01*
X174271310Y-47804012D01*
X181464835Y-47740555D01*
X181648056Y-47777000D01*
X182007944Y-47777000D01*
X182224871Y-47733850D01*
X183002885Y-47726987D01*
X183063795Y-47720717D01*
X183125137Y-47702109D01*
X183181671Y-47671891D01*
X183231224Y-47631224D01*
X183271891Y-47581671D01*
X183302109Y-47525137D01*
X183320717Y-47463795D01*
X183327000Y-47400000D01*
X183327000Y-46995101D01*
X183447066Y-46815409D01*
X183584789Y-46482916D01*
X183655000Y-46129944D01*
X183655000Y-45770056D01*
X183584789Y-45417084D01*
X183447066Y-45084591D01*
X183327000Y-44904899D01*
X183327000Y-37148025D01*
X183725528Y-37068752D01*
X184285506Y-36836802D01*
X184789473Y-36500062D01*
X185218062Y-36071473D01*
X185554802Y-35567506D01*
X185786752Y-35007528D01*
X185905000Y-34413058D01*
X185905000Y-33806942D01*
X185786752Y-33212472D01*
X185554802Y-32652494D01*
X185218062Y-32148527D01*
X184789473Y-31719938D01*
X184285506Y-31383198D01*
X183725528Y-31151248D01*
X183131058Y-31033000D01*
X182524942Y-31033000D01*
X181930472Y-31151248D01*
X181370494Y-31383198D01*
X180866527Y-31719938D01*
X180437938Y-32148527D01*
X180101198Y-32652494D01*
X179869248Y-33212472D01*
X179751000Y-33806942D01*
X179751000Y-34413058D01*
X179869248Y-35007528D01*
X180072591Y-35498443D01*
X174765577Y-35544591D01*
X174885182Y-35255839D01*
X174965000Y-34854567D01*
X174965000Y-34445433D01*
X174885182Y-34044161D01*
X174728614Y-33666171D01*
X174501311Y-33325989D01*
X174212011Y-33036689D01*
X173871829Y-32809386D01*
X173493839Y-32652818D01*
X173092567Y-32573000D01*
X172683433Y-32573000D01*
X172282161Y-32652818D01*
X171904171Y-32809386D01*
X171563989Y-33036689D01*
X171274689Y-33325989D01*
X171047386Y-33666171D01*
X170890818Y-34044161D01*
X170811000Y-34445433D01*
X170811000Y-34854567D01*
X170890818Y-35255839D01*
X171023899Y-35577127D01*
X159997157Y-35673012D01*
X159936205Y-35679283D01*
X159923952Y-35683000D01*
X157033672Y-35683000D01*
X157184620Y-35559120D01*
X157344512Y-35364291D01*
X157463323Y-35142012D01*
X157536486Y-34900826D01*
X157561190Y-34650000D01*
X157536486Y-34399174D01*
X157463323Y-34157988D01*
X157344512Y-33935709D01*
X157184620Y-33740880D01*
X156989791Y-33580988D01*
X156767512Y-33462177D01*
X156533143Y-33391082D01*
X157228000Y-33391082D01*
X157292103Y-33384768D01*
X157353743Y-33366070D01*
X157410550Y-33335706D01*
X157460343Y-33294843D01*
X157501206Y-33245050D01*
X157531570Y-33188243D01*
X157550268Y-33126603D01*
X157556582Y-33062500D01*
X157556582Y-31157500D01*
X157550268Y-31093397D01*
X157531570Y-31031757D01*
X157501206Y-30974950D01*
X157460343Y-30925157D01*
X157410550Y-30884294D01*
X157353743Y-30853930D01*
X157292103Y-30835232D01*
X157228000Y-30828918D01*
X155228000Y-30828918D01*
X155163897Y-30835232D01*
X155102257Y-30853930D01*
X155045450Y-30884294D01*
X154995657Y-30925157D01*
X154954794Y-30974950D01*
X154924430Y-31031757D01*
X154905732Y-31093397D01*
X154899418Y-31157500D01*
X154899418Y-31533000D01*
X154616181Y-31533000D01*
X154587540Y-31438586D01*
X154534074Y-31338557D01*
X154462120Y-31250880D01*
X154374443Y-31178926D01*
X154274414Y-31125460D01*
X154165877Y-31092535D01*
X154053001Y-31081418D01*
X151202999Y-31081418D01*
X151090123Y-31092535D01*
X150981586Y-31125460D01*
X150881557Y-31178926D01*
X150793880Y-31250880D01*
X150721926Y-31338557D01*
X150668460Y-31438586D01*
X150635535Y-31547123D01*
X150624418Y-31659999D01*
X150624418Y-32560001D01*
X150635535Y-32672877D01*
X150668460Y-32781414D01*
X150721926Y-32881443D01*
X150793880Y-32969120D01*
X150881557Y-33041074D01*
X150981586Y-33094540D01*
X151090123Y-33127465D01*
X151202999Y-33138582D01*
X154053001Y-33138582D01*
X154165877Y-33127465D01*
X154274414Y-33094540D01*
X154374443Y-33041074D01*
X154462120Y-32969120D01*
X154534074Y-32881443D01*
X154587540Y-32781414D01*
X154616181Y-32687000D01*
X154899418Y-32687000D01*
X154899418Y-33062500D01*
X154905732Y-33126603D01*
X154924430Y-33188243D01*
X154954794Y-33245050D01*
X154995657Y-33294843D01*
X155045450Y-33335706D01*
X155102257Y-33366070D01*
X155163897Y-33384768D01*
X155228000Y-33391082D01*
X155922857Y-33391082D01*
X155688488Y-33462177D01*
X155466209Y-33580988D01*
X155271380Y-33740880D01*
X155111488Y-33935709D01*
X154992677Y-34157988D01*
X154919514Y-34399174D01*
X154894810Y-34650000D01*
X154919514Y-34900826D01*
X154992677Y-35142012D01*
X155111488Y-35364291D01*
X155271380Y-35559120D01*
X155422328Y-35683000D01*
X154828000Y-35683000D01*
X154764205Y-35689283D01*
X154702863Y-35707891D01*
X154646329Y-35738109D01*
X154596776Y-35778776D01*
X154556109Y-35828329D01*
X154525891Y-35884863D01*
X154507283Y-35946205D01*
X154501000Y-36010000D01*
X154501000Y-37398256D01*
X154462120Y-37350880D01*
X154374443Y-37278926D01*
X154274414Y-37225460D01*
X154165877Y-37192535D01*
X154053001Y-37181418D01*
X151202999Y-37181418D01*
X151090123Y-37192535D01*
X150981586Y-37225460D01*
X150881557Y-37278926D01*
X150793880Y-37350880D01*
X150721926Y-37438557D01*
X150668460Y-37538586D01*
X150635535Y-37647123D01*
X150624418Y-37759999D01*
X150624418Y-38660001D01*
X150635535Y-38772877D01*
X150668460Y-38881414D01*
X150721926Y-38981443D01*
X150793880Y-39069120D01*
X150881557Y-39141074D01*
X150981586Y-39194540D01*
X151090123Y-39227465D01*
X151202999Y-39238582D01*
X152073001Y-39238582D01*
X152073000Y-41704975D01*
X152005741Y-41805636D01*
X151950938Y-41937942D01*
X151923000Y-42078397D01*
X151923000Y-42221603D01*
X151950938Y-42362058D01*
X152005741Y-42494364D01*
X152085302Y-42613436D01*
X152153284Y-42681418D01*
X151002999Y-42681418D01*
X150890123Y-42692535D01*
X150781586Y-42725460D01*
X150681557Y-42778926D01*
X150593880Y-42850880D01*
X150521926Y-42938557D01*
X150468460Y-43038586D01*
X150435535Y-43147123D01*
X150424418Y-43259999D01*
X150424418Y-43783000D01*
X149327000Y-43783000D01*
X149327000Y-43000000D01*
X149320937Y-42937323D01*
X149302543Y-42875916D01*
X149272522Y-42819277D01*
X149232028Y-42769583D01*
X149182618Y-42728744D01*
X149126189Y-42698329D01*
X149064912Y-42679507D01*
X149001139Y-42673002D01*
X134651139Y-42623002D01*
X134586205Y-42629283D01*
X134524863Y-42647891D01*
X134468329Y-42678109D01*
X134418776Y-42718776D01*
X134378109Y-42768329D01*
X134356582Y-42808603D01*
X134356582Y-42550000D01*
X134350268Y-42485897D01*
X134331570Y-42424257D01*
X134301206Y-42367450D01*
X134260343Y-42317657D01*
X134210550Y-42276794D01*
X134153743Y-42246430D01*
X134092103Y-42227732D01*
X134028000Y-42221418D01*
X131628000Y-42221418D01*
X131563897Y-42227732D01*
X131502257Y-42246430D01*
X131445450Y-42276794D01*
X131395657Y-42317657D01*
X131354794Y-42367450D01*
X131324430Y-42424257D01*
X131305732Y-42485897D01*
X131299418Y-42550000D01*
X115180000Y-42550000D01*
X115180000Y-34125672D01*
X115208445Y-33806942D01*
X116751000Y-33806942D01*
X116751000Y-34413058D01*
X116869248Y-35007528D01*
X117101198Y-35567506D01*
X117437938Y-36071473D01*
X117866527Y-36500062D01*
X118370494Y-36836802D01*
X118930472Y-37068752D01*
X119524942Y-37187000D01*
X120131058Y-37187000D01*
X120725528Y-37068752D01*
X121285506Y-36836802D01*
X121789473Y-36500062D01*
X122218062Y-36071473D01*
X122554802Y-35567506D01*
X122786752Y-35007528D01*
X122905000Y-34413058D01*
X122905000Y-33806942D01*
X122786752Y-33212472D01*
X122554802Y-32652494D01*
X122218062Y-32148527D01*
X121789473Y-31719938D01*
X121285506Y-31383198D01*
X120725528Y-31151248D01*
X120131058Y-31033000D01*
X119524942Y-31033000D01*
X118930472Y-31151248D01*
X118370494Y-31383198D01*
X117866527Y-31719938D01*
X117437938Y-32148527D01*
X117101198Y-32652494D01*
X116869248Y-33212472D01*
X116751000Y-33806942D01*
X115208445Y-33806942D01*
X115254835Y-33287158D01*
X115472824Y-32490325D01*
X115828476Y-31744688D01*
X116310548Y-31073813D01*
X116903798Y-30498913D01*
X117589481Y-30038154D01*
X118345924Y-29706098D01*
X119151916Y-29512596D01*
X119840911Y-29462000D01*
X182812328Y-29462000D01*
X183650842Y-29536835D01*
G37*
G04 #@! TD.AperFunction*
D26*
X141252011Y-43100004D02*
X141236688Y-43150518D01*
X141224428Y-43275000D01*
X141227500Y-43464250D01*
X141386250Y-43623000D01*
X142223000Y-43623000D01*
X142223000Y-43603000D01*
X142477000Y-43603000D01*
X142477000Y-43623000D01*
X142497000Y-43623000D01*
X142497000Y-43877000D01*
X142477000Y-43877000D01*
X142477000Y-43897000D01*
X142223000Y-43897000D01*
X142223000Y-43877000D01*
X141386250Y-43877000D01*
X141227500Y-44035750D01*
X141224428Y-44225000D01*
X141236688Y-44349482D01*
X141272998Y-44469180D01*
X141304577Y-44528259D01*
X141256556Y-44553926D01*
X141168880Y-44625880D01*
X141096926Y-44713556D01*
X141043460Y-44813585D01*
X141010535Y-44922123D01*
X140999418Y-45034998D01*
X140999418Y-45860002D01*
X141010535Y-45972877D01*
X141033831Y-46049672D01*
X138418931Y-48664572D01*
X138300194Y-48688190D01*
X138167888Y-48742993D01*
X138048816Y-48822554D01*
X137947554Y-48923816D01*
X137867993Y-49042888D01*
X137813190Y-49175194D01*
X137785252Y-49315649D01*
X137785252Y-49458855D01*
X137813190Y-49599310D01*
X137867993Y-49731616D01*
X137947554Y-49850688D01*
X138048816Y-49951950D01*
X138167888Y-50031511D01*
X138300194Y-50086314D01*
X138440649Y-50114252D01*
X138583855Y-50114252D01*
X138724310Y-50086314D01*
X138856616Y-50031511D01*
X138897398Y-50004261D01*
X138900938Y-50022058D01*
X138955741Y-50154364D01*
X139035302Y-50273436D01*
X139136564Y-50374698D01*
X139255636Y-50454259D01*
X139387942Y-50509062D01*
X139528397Y-50537000D01*
X139671603Y-50537000D01*
X139812058Y-50509062D01*
X139944364Y-50454259D01*
X140063436Y-50374698D01*
X140164698Y-50273436D01*
X140244259Y-50154364D01*
X140299062Y-50022058D01*
X140327000Y-49881603D01*
X140327000Y-49738397D01*
X140299062Y-49597942D01*
X140244259Y-49465636D01*
X140164698Y-49346564D01*
X140150836Y-49332702D01*
X140784037Y-48699502D01*
X140851748Y-48699502D01*
X140693000Y-48858250D01*
X140689928Y-49235000D01*
X140702188Y-49359482D01*
X140738498Y-49479180D01*
X140797463Y-49589494D01*
X140876815Y-49686185D01*
X140973506Y-49765537D01*
X141083820Y-49824502D01*
X141203518Y-49860812D01*
X141328000Y-49873072D01*
X141942250Y-49870000D01*
X142101000Y-49711250D01*
X142101000Y-48699500D01*
X142355000Y-48699500D01*
X142355000Y-49711250D01*
X142513750Y-49870000D01*
X143128000Y-49873072D01*
X143252482Y-49860812D01*
X143372180Y-49824502D01*
X143482494Y-49765537D01*
X143579185Y-49686185D01*
X143658537Y-49589494D01*
X143717502Y-49479180D01*
X143753812Y-49359482D01*
X143766072Y-49235000D01*
X143763000Y-48858250D01*
X143604250Y-48699500D01*
X142355000Y-48699500D01*
X142101000Y-48699500D01*
X142081000Y-48699500D01*
X142081000Y-48445500D01*
X142101000Y-48445500D01*
X142101000Y-48425500D01*
X142355000Y-48425500D01*
X142355000Y-48445500D01*
X143604250Y-48445500D01*
X143697466Y-48352284D01*
X143713897Y-48357268D01*
X143756343Y-48361449D01*
X143757540Y-48373607D01*
X143783386Y-48458809D01*
X143783387Y-48458810D01*
X143825358Y-48537333D01*
X143881842Y-48606159D01*
X143899096Y-48620319D01*
X145392681Y-50113905D01*
X145406841Y-50131159D01*
X145475667Y-50187643D01*
X145554190Y-50229614D01*
X145639392Y-50255460D01*
X145728000Y-50264187D01*
X145750205Y-50262000D01*
X148873000Y-50262000D01*
X148873000Y-58473000D01*
X148000000Y-58473000D01*
X147936205Y-58479283D01*
X147874863Y-58497891D01*
X147818329Y-58528109D01*
X147768776Y-58568776D01*
X147728109Y-58618329D01*
X147697891Y-58674863D01*
X147679283Y-58736205D01*
X147673000Y-58800000D01*
X147673000Y-59831418D01*
X146978327Y-59831418D01*
X146976206Y-59827450D01*
X146935343Y-59777657D01*
X146885550Y-59736794D01*
X146854918Y-59720421D01*
X146952482Y-59710812D01*
X147072180Y-59674502D01*
X147182494Y-59615537D01*
X147279185Y-59536185D01*
X147358537Y-59439494D01*
X147417502Y-59329180D01*
X147453812Y-59209482D01*
X147466072Y-59085000D01*
X147463000Y-58895750D01*
X147304250Y-58737000D01*
X146467500Y-58737000D01*
X146467500Y-58757000D01*
X146213500Y-58757000D01*
X146213500Y-58737000D01*
X146193500Y-58737000D01*
X146193500Y-58483000D01*
X146213500Y-58483000D01*
X146213500Y-57658750D01*
X146467500Y-57658750D01*
X146467500Y-58483000D01*
X147304250Y-58483000D01*
X147463000Y-58324250D01*
X147466072Y-58135000D01*
X147453812Y-58010518D01*
X147417502Y-57890820D01*
X147358537Y-57780506D01*
X147279185Y-57683815D01*
X147182494Y-57604463D01*
X147072180Y-57545498D01*
X146952482Y-57509188D01*
X146828000Y-57496928D01*
X146626250Y-57500000D01*
X146467500Y-57658750D01*
X146213500Y-57658750D01*
X146054750Y-57500000D01*
X145853000Y-57496928D01*
X145728518Y-57509188D01*
X145608820Y-57545498D01*
X145498506Y-57604463D01*
X145401815Y-57683815D01*
X145322463Y-57780506D01*
X145263498Y-57890820D01*
X145227188Y-58010518D01*
X145223976Y-58043131D01*
X145165780Y-57972220D01*
X145079998Y-57901820D01*
X144982130Y-57849508D01*
X144875937Y-57817295D01*
X144765500Y-57806418D01*
X144265500Y-57806418D01*
X144155063Y-57817295D01*
X144048870Y-57849508D01*
X143951002Y-57901820D01*
X143865220Y-57972220D01*
X143794820Y-58058002D01*
X143742508Y-58155870D01*
X143710295Y-58262063D01*
X143699418Y-58372500D01*
X143699418Y-58847500D01*
X143710295Y-58957937D01*
X143742508Y-59064130D01*
X143794820Y-59161998D01*
X143865220Y-59247780D01*
X143951002Y-59318180D01*
X143976001Y-59331542D01*
X143976000Y-59834077D01*
X143938897Y-59837732D01*
X143877257Y-59856430D01*
X143820450Y-59886794D01*
X143770657Y-59927657D01*
X143729794Y-59977450D01*
X143699430Y-60034257D01*
X143680732Y-60095897D01*
X143674418Y-60160000D01*
X143674418Y-60358000D01*
X143646930Y-60358000D01*
X143656582Y-60260002D01*
X143656582Y-59434998D01*
X143645465Y-59322123D01*
X143612540Y-59213585D01*
X143559074Y-59113556D01*
X143487120Y-59025880D01*
X143399444Y-58953926D01*
X143299415Y-58900460D01*
X143190877Y-58867535D01*
X143078002Y-58856418D01*
X141777998Y-58856418D01*
X141665123Y-58867535D01*
X141556585Y-58900460D01*
X141456556Y-58953926D01*
X141368880Y-59025880D01*
X141296926Y-59113556D01*
X141243460Y-59213585D01*
X141210535Y-59322123D01*
X141203308Y-59395500D01*
X141024705Y-59395500D01*
X141002500Y-59393313D01*
X140913892Y-59402040D01*
X140875844Y-59413582D01*
X140828690Y-59427886D01*
X140779002Y-59454445D01*
X140746603Y-59448000D01*
X140603397Y-59448000D01*
X140462942Y-59475938D01*
X140330636Y-59530741D01*
X140211564Y-59610302D01*
X140208387Y-59613479D01*
X140123124Y-59639343D01*
X140022885Y-59692921D01*
X139976980Y-59730595D01*
X139957035Y-59746963D01*
X139957033Y-59746965D01*
X139935026Y-59765026D01*
X139916965Y-59787033D01*
X138418931Y-61285068D01*
X138300194Y-61308686D01*
X138167888Y-61363489D01*
X138048816Y-61443050D01*
X137947554Y-61544312D01*
X137867993Y-61663384D01*
X137813190Y-61795690D01*
X137785252Y-61936145D01*
X137785252Y-62079351D01*
X137813190Y-62219806D01*
X137867993Y-62352112D01*
X137947554Y-62471184D01*
X138048816Y-62572446D01*
X138167888Y-62652007D01*
X138300194Y-62706810D01*
X138440649Y-62734748D01*
X138583855Y-62734748D01*
X138724310Y-62706810D01*
X138856616Y-62652007D01*
X138975688Y-62572446D01*
X139076950Y-62471184D01*
X139156511Y-62352112D01*
X139211314Y-62219806D01*
X139234932Y-62101069D01*
X140462233Y-60873768D01*
X140462942Y-60874062D01*
X140603397Y-60902000D01*
X140746603Y-60902000D01*
X140887058Y-60874062D01*
X141019364Y-60819259D01*
X141138436Y-60739698D01*
X141239698Y-60638436D01*
X141288416Y-60565523D01*
X141296926Y-60581444D01*
X141368880Y-60669120D01*
X141456556Y-60741074D01*
X141556585Y-60794540D01*
X141665123Y-60827465D01*
X141775421Y-60838328D01*
X141775347Y-60838343D01*
X141643041Y-60893146D01*
X141523969Y-60972707D01*
X141422707Y-61073969D01*
X141343146Y-61193041D01*
X141288343Y-61325347D01*
X141260405Y-61465802D01*
X141260405Y-61609008D01*
X141282701Y-61721096D01*
X141173506Y-61779463D01*
X141076815Y-61858815D01*
X140997463Y-61955506D01*
X140938498Y-62065820D01*
X140902188Y-62185518D01*
X140889928Y-62310000D01*
X140893000Y-62686750D01*
X141051750Y-62845500D01*
X142301000Y-62845500D01*
X142301000Y-62825500D01*
X142555000Y-62825500D01*
X142555000Y-62845500D01*
X143804250Y-62845500D01*
X143884103Y-62765647D01*
X143938897Y-62782268D01*
X143976000Y-62785923D01*
X143976001Y-63405785D01*
X143973813Y-63428000D01*
X143982540Y-63516607D01*
X144008386Y-63601809D01*
X144020755Y-63624950D01*
X144050358Y-63680333D01*
X144099399Y-63740090D01*
X144096959Y-63752356D01*
X144096959Y-63895562D01*
X144124897Y-64036017D01*
X144179700Y-64168323D01*
X144259261Y-64287395D01*
X144360523Y-64388657D01*
X144479595Y-64468218D01*
X144611901Y-64523021D01*
X144752356Y-64550959D01*
X144895562Y-64550959D01*
X145036017Y-64523021D01*
X145168323Y-64468218D01*
X145287395Y-64388657D01*
X145388657Y-64287395D01*
X145468218Y-64168323D01*
X145523021Y-64036017D01*
X145550959Y-63895562D01*
X145550959Y-63752356D01*
X145523021Y-63611901D01*
X145468218Y-63479595D01*
X145388657Y-63360523D01*
X145287395Y-63259261D01*
X145168323Y-63179700D01*
X145036017Y-63124897D01*
X144895562Y-63096959D01*
X144880000Y-63096959D01*
X144880000Y-62888311D01*
X144927257Y-62913570D01*
X144988897Y-62932268D01*
X145053000Y-62938582D01*
X145908148Y-62938582D01*
X145833217Y-62988649D01*
X145731955Y-63089911D01*
X145652394Y-63208983D01*
X145597591Y-63341289D01*
X145569653Y-63481744D01*
X145569653Y-63624950D01*
X145597591Y-63765405D01*
X145652394Y-63897711D01*
X145731955Y-64016783D01*
X145833217Y-64118045D01*
X145952289Y-64197606D01*
X146084595Y-64252409D01*
X146225050Y-64280347D01*
X146368256Y-64280347D01*
X146508711Y-64252409D01*
X146641017Y-64197606D01*
X146760089Y-64118045D01*
X146861351Y-64016783D01*
X146867785Y-64007153D01*
X146871653Y-64007534D01*
X146893858Y-64005347D01*
X146960260Y-63998807D01*
X147045463Y-63972961D01*
X147123986Y-63930990D01*
X147192812Y-63874506D01*
X147206976Y-63857247D01*
X147631910Y-63432315D01*
X147649159Y-63418159D01*
X147705643Y-63349333D01*
X147747614Y-63270810D01*
X147754097Y-63249437D01*
X147773460Y-63185608D01*
X147782187Y-63097001D01*
X147780000Y-63074796D01*
X147780000Y-62785923D01*
X147817103Y-62782268D01*
X147878743Y-62763570D01*
X147935550Y-62733206D01*
X147985343Y-62692343D01*
X147999418Y-62675192D01*
X147999418Y-63385002D01*
X148010535Y-63497877D01*
X148043460Y-63606415D01*
X148096926Y-63706444D01*
X148168880Y-63794120D01*
X148256556Y-63866074D01*
X148356585Y-63919540D01*
X148465123Y-63952465D01*
X148577998Y-63963582D01*
X148873000Y-63963582D01*
X148873000Y-70672557D01*
X148123142Y-70669944D01*
X148166347Y-70626739D01*
X148051655Y-70512047D01*
X148367214Y-70356038D01*
X148558020Y-69981255D01*
X148672044Y-69576449D01*
X148704902Y-69157176D01*
X148655334Y-68739549D01*
X148525243Y-68339617D01*
X148367214Y-68043962D01*
X148051653Y-67887952D01*
X146739605Y-69200000D01*
X146753748Y-69214143D01*
X146574143Y-69393748D01*
X146560000Y-69379605D01*
X146545858Y-69393748D01*
X146366253Y-69214143D01*
X146380395Y-69200000D01*
X145068347Y-67887952D01*
X144752786Y-68043962D01*
X144561980Y-68418745D01*
X144447956Y-68823551D01*
X144415098Y-69242824D01*
X144464666Y-69660451D01*
X144594757Y-70060383D01*
X144752786Y-70356038D01*
X145068345Y-70512047D01*
X144953653Y-70626739D01*
X144985927Y-70659013D01*
X142597402Y-70650691D01*
X142644645Y-70619124D01*
X142899124Y-70364645D01*
X143099066Y-70065409D01*
X143236789Y-69732916D01*
X143307000Y-69379944D01*
X143307000Y-69020056D01*
X143236789Y-68667084D01*
X143099066Y-68334591D01*
X142899124Y-68035355D01*
X142644645Y-67780876D01*
X142536098Y-67708347D01*
X145247952Y-67708347D01*
X146560000Y-69020395D01*
X147872048Y-67708347D01*
X147716038Y-67392786D01*
X147341255Y-67201980D01*
X146936449Y-67087956D01*
X146517176Y-67055098D01*
X146099549Y-67104666D01*
X145699617Y-67234757D01*
X145403962Y-67392786D01*
X145247952Y-67708347D01*
X142536098Y-67708347D01*
X142345409Y-67580934D01*
X142012916Y-67443211D01*
X141659944Y-67373000D01*
X141300056Y-67373000D01*
X140947084Y-67443211D01*
X140614591Y-67580934D01*
X140315355Y-67780876D01*
X140060876Y-68035355D01*
X139860934Y-68334591D01*
X139723211Y-68667084D01*
X139653000Y-69020056D01*
X139653000Y-69379944D01*
X139723211Y-69732916D01*
X139860934Y-70065409D01*
X140060876Y-70364645D01*
X140315355Y-70619124D01*
X140350883Y-70642863D01*
X137543755Y-70633082D01*
X137564645Y-70619124D01*
X137819124Y-70364645D01*
X138019066Y-70065409D01*
X138156789Y-69732916D01*
X138227000Y-69379944D01*
X138227000Y-69020056D01*
X138156789Y-68667084D01*
X138019066Y-68334591D01*
X137819124Y-68035355D01*
X137564645Y-67780876D01*
X137265409Y-67580934D01*
X136932916Y-67443211D01*
X136579944Y-67373000D01*
X136220056Y-67373000D01*
X135867084Y-67443211D01*
X135534591Y-67580934D01*
X135235355Y-67780876D01*
X134980876Y-68035355D01*
X134780934Y-68334591D01*
X134777000Y-68344089D01*
X134777000Y-63635000D01*
X140889928Y-63635000D01*
X140902188Y-63759482D01*
X140938498Y-63879180D01*
X140997463Y-63989494D01*
X141076815Y-64086185D01*
X141173506Y-64165537D01*
X141283820Y-64224502D01*
X141403518Y-64260812D01*
X141528000Y-64273072D01*
X142142250Y-64270000D01*
X142301000Y-64111250D01*
X142301000Y-63099500D01*
X142555000Y-63099500D01*
X142555000Y-64111250D01*
X142713750Y-64270000D01*
X143328000Y-64273072D01*
X143452482Y-64260812D01*
X143572180Y-64224502D01*
X143682494Y-64165537D01*
X143779185Y-64086185D01*
X143858537Y-63989494D01*
X143917502Y-63879180D01*
X143953812Y-63759482D01*
X143966072Y-63635000D01*
X143963000Y-63258250D01*
X143804250Y-63099500D01*
X142555000Y-63099500D01*
X142301000Y-63099500D01*
X141051750Y-63099500D01*
X140893000Y-63258250D01*
X140889928Y-63635000D01*
X134777000Y-63635000D01*
X134777000Y-63327000D01*
X136000000Y-63327000D01*
X136030602Y-63323999D01*
X136061274Y-63321208D01*
X136062376Y-63320884D01*
X136063515Y-63320772D01*
X136092993Y-63311872D01*
X136122496Y-63303189D01*
X136123509Y-63302659D01*
X136124610Y-63302327D01*
X136151810Y-63287864D01*
X136179053Y-63273622D01*
X136179947Y-63272903D01*
X136180959Y-63272365D01*
X136204777Y-63252940D01*
X136228790Y-63233633D01*
X136229528Y-63232753D01*
X136230415Y-63232030D01*
X136250011Y-63208342D01*
X136269812Y-63184744D01*
X136270364Y-63183739D01*
X136271095Y-63182856D01*
X136285735Y-63155780D01*
X136300557Y-63128819D01*
X136300903Y-63127727D01*
X136301449Y-63126718D01*
X136310553Y-63097308D01*
X136319854Y-63067987D01*
X136319982Y-63066848D01*
X136320321Y-63065752D01*
X136323539Y-63035135D01*
X136326968Y-63004566D01*
X136326983Y-63002365D01*
X136326992Y-63002283D01*
X136326985Y-63002201D01*
X136327000Y-63000000D01*
X136327000Y-61000000D01*
X136323999Y-60969398D01*
X136321208Y-60938726D01*
X136320884Y-60937624D01*
X136320772Y-60936485D01*
X136311872Y-60907007D01*
X136303189Y-60877504D01*
X136302659Y-60876491D01*
X136302327Y-60875390D01*
X136287864Y-60848190D01*
X136273622Y-60820947D01*
X136272903Y-60820053D01*
X136272365Y-60819041D01*
X136252940Y-60795223D01*
X136233633Y-60771210D01*
X136232753Y-60770472D01*
X136232030Y-60769585D01*
X136208342Y-60749989D01*
X136184744Y-60730188D01*
X136183739Y-60729636D01*
X136182856Y-60728905D01*
X136155780Y-60714265D01*
X136128819Y-60699443D01*
X136127727Y-60699097D01*
X136126718Y-60698551D01*
X136097308Y-60689447D01*
X136067987Y-60680146D01*
X136066848Y-60680018D01*
X136065752Y-60679679D01*
X136035135Y-60676461D01*
X136004566Y-60673032D01*
X136002365Y-60673017D01*
X136002283Y-60673008D01*
X136002201Y-60673015D01*
X136000000Y-60673000D01*
X134777000Y-60673000D01*
X134777000Y-43077443D01*
X141252011Y-43100004D01*
G04 #@! TA.AperFunction,Conductor*
D27*
G36*
X141252011Y-43100004D02*
G01*
X141236688Y-43150518D01*
X141224428Y-43275000D01*
X141227500Y-43464250D01*
X141386250Y-43623000D01*
X142223000Y-43623000D01*
X142223000Y-43603000D01*
X142477000Y-43603000D01*
X142477000Y-43623000D01*
X142497000Y-43623000D01*
X142497000Y-43877000D01*
X142477000Y-43877000D01*
X142477000Y-43897000D01*
X142223000Y-43897000D01*
X142223000Y-43877000D01*
X141386250Y-43877000D01*
X141227500Y-44035750D01*
X141224428Y-44225000D01*
X141236688Y-44349482D01*
X141272998Y-44469180D01*
X141304577Y-44528259D01*
X141256556Y-44553926D01*
X141168880Y-44625880D01*
X141096926Y-44713556D01*
X141043460Y-44813585D01*
X141010535Y-44922123D01*
X140999418Y-45034998D01*
X140999418Y-45860002D01*
X141010535Y-45972877D01*
X141033831Y-46049672D01*
X138418931Y-48664572D01*
X138300194Y-48688190D01*
X138167888Y-48742993D01*
X138048816Y-48822554D01*
X137947554Y-48923816D01*
X137867993Y-49042888D01*
X137813190Y-49175194D01*
X137785252Y-49315649D01*
X137785252Y-49458855D01*
X137813190Y-49599310D01*
X137867993Y-49731616D01*
X137947554Y-49850688D01*
X138048816Y-49951950D01*
X138167888Y-50031511D01*
X138300194Y-50086314D01*
X138440649Y-50114252D01*
X138583855Y-50114252D01*
X138724310Y-50086314D01*
X138856616Y-50031511D01*
X138897398Y-50004261D01*
X138900938Y-50022058D01*
X138955741Y-50154364D01*
X139035302Y-50273436D01*
X139136564Y-50374698D01*
X139255636Y-50454259D01*
X139387942Y-50509062D01*
X139528397Y-50537000D01*
X139671603Y-50537000D01*
X139812058Y-50509062D01*
X139944364Y-50454259D01*
X140063436Y-50374698D01*
X140164698Y-50273436D01*
X140244259Y-50154364D01*
X140299062Y-50022058D01*
X140327000Y-49881603D01*
X140327000Y-49738397D01*
X140299062Y-49597942D01*
X140244259Y-49465636D01*
X140164698Y-49346564D01*
X140150836Y-49332702D01*
X140784037Y-48699502D01*
X140851748Y-48699502D01*
X140693000Y-48858250D01*
X140689928Y-49235000D01*
X140702188Y-49359482D01*
X140738498Y-49479180D01*
X140797463Y-49589494D01*
X140876815Y-49686185D01*
X140973506Y-49765537D01*
X141083820Y-49824502D01*
X141203518Y-49860812D01*
X141328000Y-49873072D01*
X141942250Y-49870000D01*
X142101000Y-49711250D01*
X142101000Y-48699500D01*
X142355000Y-48699500D01*
X142355000Y-49711250D01*
X142513750Y-49870000D01*
X143128000Y-49873072D01*
X143252482Y-49860812D01*
X143372180Y-49824502D01*
X143482494Y-49765537D01*
X143579185Y-49686185D01*
X143658537Y-49589494D01*
X143717502Y-49479180D01*
X143753812Y-49359482D01*
X143766072Y-49235000D01*
X143763000Y-48858250D01*
X143604250Y-48699500D01*
X142355000Y-48699500D01*
X142101000Y-48699500D01*
X142081000Y-48699500D01*
X142081000Y-48445500D01*
X142101000Y-48445500D01*
X142101000Y-48425500D01*
X142355000Y-48425500D01*
X142355000Y-48445500D01*
X143604250Y-48445500D01*
X143697466Y-48352284D01*
X143713897Y-48357268D01*
X143756343Y-48361449D01*
X143757540Y-48373607D01*
X143783386Y-48458809D01*
X143783387Y-48458810D01*
X143825358Y-48537333D01*
X143881842Y-48606159D01*
X143899096Y-48620319D01*
X145392681Y-50113905D01*
X145406841Y-50131159D01*
X145475667Y-50187643D01*
X145554190Y-50229614D01*
X145639392Y-50255460D01*
X145728000Y-50264187D01*
X145750205Y-50262000D01*
X148873000Y-50262000D01*
X148873000Y-58473000D01*
X148000000Y-58473000D01*
X147936205Y-58479283D01*
X147874863Y-58497891D01*
X147818329Y-58528109D01*
X147768776Y-58568776D01*
X147728109Y-58618329D01*
X147697891Y-58674863D01*
X147679283Y-58736205D01*
X147673000Y-58800000D01*
X147673000Y-59831418D01*
X146978327Y-59831418D01*
X146976206Y-59827450D01*
X146935343Y-59777657D01*
X146885550Y-59736794D01*
X146854918Y-59720421D01*
X146952482Y-59710812D01*
X147072180Y-59674502D01*
X147182494Y-59615537D01*
X147279185Y-59536185D01*
X147358537Y-59439494D01*
X147417502Y-59329180D01*
X147453812Y-59209482D01*
X147466072Y-59085000D01*
X147463000Y-58895750D01*
X147304250Y-58737000D01*
X146467500Y-58737000D01*
X146467500Y-58757000D01*
X146213500Y-58757000D01*
X146213500Y-58737000D01*
X146193500Y-58737000D01*
X146193500Y-58483000D01*
X146213500Y-58483000D01*
X146213500Y-57658750D01*
X146467500Y-57658750D01*
X146467500Y-58483000D01*
X147304250Y-58483000D01*
X147463000Y-58324250D01*
X147466072Y-58135000D01*
X147453812Y-58010518D01*
X147417502Y-57890820D01*
X147358537Y-57780506D01*
X147279185Y-57683815D01*
X147182494Y-57604463D01*
X147072180Y-57545498D01*
X146952482Y-57509188D01*
X146828000Y-57496928D01*
X146626250Y-57500000D01*
X146467500Y-57658750D01*
X146213500Y-57658750D01*
X146054750Y-57500000D01*
X145853000Y-57496928D01*
X145728518Y-57509188D01*
X145608820Y-57545498D01*
X145498506Y-57604463D01*
X145401815Y-57683815D01*
X145322463Y-57780506D01*
X145263498Y-57890820D01*
X145227188Y-58010518D01*
X145223976Y-58043131D01*
X145165780Y-57972220D01*
X145079998Y-57901820D01*
X144982130Y-57849508D01*
X144875937Y-57817295D01*
X144765500Y-57806418D01*
X144265500Y-57806418D01*
X144155063Y-57817295D01*
X144048870Y-57849508D01*
X143951002Y-57901820D01*
X143865220Y-57972220D01*
X143794820Y-58058002D01*
X143742508Y-58155870D01*
X143710295Y-58262063D01*
X143699418Y-58372500D01*
X143699418Y-58847500D01*
X143710295Y-58957937D01*
X143742508Y-59064130D01*
X143794820Y-59161998D01*
X143865220Y-59247780D01*
X143951002Y-59318180D01*
X143976001Y-59331542D01*
X143976000Y-59834077D01*
X143938897Y-59837732D01*
X143877257Y-59856430D01*
X143820450Y-59886794D01*
X143770657Y-59927657D01*
X143729794Y-59977450D01*
X143699430Y-60034257D01*
X143680732Y-60095897D01*
X143674418Y-60160000D01*
X143674418Y-60358000D01*
X143646930Y-60358000D01*
X143656582Y-60260002D01*
X143656582Y-59434998D01*
X143645465Y-59322123D01*
X143612540Y-59213585D01*
X143559074Y-59113556D01*
X143487120Y-59025880D01*
X143399444Y-58953926D01*
X143299415Y-58900460D01*
X143190877Y-58867535D01*
X143078002Y-58856418D01*
X141777998Y-58856418D01*
X141665123Y-58867535D01*
X141556585Y-58900460D01*
X141456556Y-58953926D01*
X141368880Y-59025880D01*
X141296926Y-59113556D01*
X141243460Y-59213585D01*
X141210535Y-59322123D01*
X141203308Y-59395500D01*
X141024705Y-59395500D01*
X141002500Y-59393313D01*
X140913892Y-59402040D01*
X140875844Y-59413582D01*
X140828690Y-59427886D01*
X140779002Y-59454445D01*
X140746603Y-59448000D01*
X140603397Y-59448000D01*
X140462942Y-59475938D01*
X140330636Y-59530741D01*
X140211564Y-59610302D01*
X140208387Y-59613479D01*
X140123124Y-59639343D01*
X140022885Y-59692921D01*
X139976980Y-59730595D01*
X139957035Y-59746963D01*
X139957033Y-59746965D01*
X139935026Y-59765026D01*
X139916965Y-59787033D01*
X138418931Y-61285068D01*
X138300194Y-61308686D01*
X138167888Y-61363489D01*
X138048816Y-61443050D01*
X137947554Y-61544312D01*
X137867993Y-61663384D01*
X137813190Y-61795690D01*
X137785252Y-61936145D01*
X137785252Y-62079351D01*
X137813190Y-62219806D01*
X137867993Y-62352112D01*
X137947554Y-62471184D01*
X138048816Y-62572446D01*
X138167888Y-62652007D01*
X138300194Y-62706810D01*
X138440649Y-62734748D01*
X138583855Y-62734748D01*
X138724310Y-62706810D01*
X138856616Y-62652007D01*
X138975688Y-62572446D01*
X139076950Y-62471184D01*
X139156511Y-62352112D01*
X139211314Y-62219806D01*
X139234932Y-62101069D01*
X140462233Y-60873768D01*
X140462942Y-60874062D01*
X140603397Y-60902000D01*
X140746603Y-60902000D01*
X140887058Y-60874062D01*
X141019364Y-60819259D01*
X141138436Y-60739698D01*
X141239698Y-60638436D01*
X141288416Y-60565523D01*
X141296926Y-60581444D01*
X141368880Y-60669120D01*
X141456556Y-60741074D01*
X141556585Y-60794540D01*
X141665123Y-60827465D01*
X141775421Y-60838328D01*
X141775347Y-60838343D01*
X141643041Y-60893146D01*
X141523969Y-60972707D01*
X141422707Y-61073969D01*
X141343146Y-61193041D01*
X141288343Y-61325347D01*
X141260405Y-61465802D01*
X141260405Y-61609008D01*
X141282701Y-61721096D01*
X141173506Y-61779463D01*
X141076815Y-61858815D01*
X140997463Y-61955506D01*
X140938498Y-62065820D01*
X140902188Y-62185518D01*
X140889928Y-62310000D01*
X140893000Y-62686750D01*
X141051750Y-62845500D01*
X142301000Y-62845500D01*
X142301000Y-62825500D01*
X142555000Y-62825500D01*
X142555000Y-62845500D01*
X143804250Y-62845500D01*
X143884103Y-62765647D01*
X143938897Y-62782268D01*
X143976000Y-62785923D01*
X143976001Y-63405785D01*
X143973813Y-63428000D01*
X143982540Y-63516607D01*
X144008386Y-63601809D01*
X144020755Y-63624950D01*
X144050358Y-63680333D01*
X144099399Y-63740090D01*
X144096959Y-63752356D01*
X144096959Y-63895562D01*
X144124897Y-64036017D01*
X144179700Y-64168323D01*
X144259261Y-64287395D01*
X144360523Y-64388657D01*
X144479595Y-64468218D01*
X144611901Y-64523021D01*
X144752356Y-64550959D01*
X144895562Y-64550959D01*
X145036017Y-64523021D01*
X145168323Y-64468218D01*
X145287395Y-64388657D01*
X145388657Y-64287395D01*
X145468218Y-64168323D01*
X145523021Y-64036017D01*
X145550959Y-63895562D01*
X145550959Y-63752356D01*
X145523021Y-63611901D01*
X145468218Y-63479595D01*
X145388657Y-63360523D01*
X145287395Y-63259261D01*
X145168323Y-63179700D01*
X145036017Y-63124897D01*
X144895562Y-63096959D01*
X144880000Y-63096959D01*
X144880000Y-62888311D01*
X144927257Y-62913570D01*
X144988897Y-62932268D01*
X145053000Y-62938582D01*
X145908148Y-62938582D01*
X145833217Y-62988649D01*
X145731955Y-63089911D01*
X145652394Y-63208983D01*
X145597591Y-63341289D01*
X145569653Y-63481744D01*
X145569653Y-63624950D01*
X145597591Y-63765405D01*
X145652394Y-63897711D01*
X145731955Y-64016783D01*
X145833217Y-64118045D01*
X145952289Y-64197606D01*
X146084595Y-64252409D01*
X146225050Y-64280347D01*
X146368256Y-64280347D01*
X146508711Y-64252409D01*
X146641017Y-64197606D01*
X146760089Y-64118045D01*
X146861351Y-64016783D01*
X146867785Y-64007153D01*
X146871653Y-64007534D01*
X146893858Y-64005347D01*
X146960260Y-63998807D01*
X147045463Y-63972961D01*
X147123986Y-63930990D01*
X147192812Y-63874506D01*
X147206976Y-63857247D01*
X147631910Y-63432315D01*
X147649159Y-63418159D01*
X147705643Y-63349333D01*
X147747614Y-63270810D01*
X147754097Y-63249437D01*
X147773460Y-63185608D01*
X147782187Y-63097001D01*
X147780000Y-63074796D01*
X147780000Y-62785923D01*
X147817103Y-62782268D01*
X147878743Y-62763570D01*
X147935550Y-62733206D01*
X147985343Y-62692343D01*
X147999418Y-62675192D01*
X147999418Y-63385002D01*
X148010535Y-63497877D01*
X148043460Y-63606415D01*
X148096926Y-63706444D01*
X148168880Y-63794120D01*
X148256556Y-63866074D01*
X148356585Y-63919540D01*
X148465123Y-63952465D01*
X148577998Y-63963582D01*
X148873000Y-63963582D01*
X148873000Y-70672557D01*
X148123142Y-70669944D01*
X148166347Y-70626739D01*
X148051655Y-70512047D01*
X148367214Y-70356038D01*
X148558020Y-69981255D01*
X148672044Y-69576449D01*
X148704902Y-69157176D01*
X148655334Y-68739549D01*
X148525243Y-68339617D01*
X148367214Y-68043962D01*
X148051653Y-67887952D01*
X146739605Y-69200000D01*
X146753748Y-69214143D01*
X146574143Y-69393748D01*
X146560000Y-69379605D01*
X146545858Y-69393748D01*
X146366253Y-69214143D01*
X146380395Y-69200000D01*
X145068347Y-67887952D01*
X144752786Y-68043962D01*
X144561980Y-68418745D01*
X144447956Y-68823551D01*
X144415098Y-69242824D01*
X144464666Y-69660451D01*
X144594757Y-70060383D01*
X144752786Y-70356038D01*
X145068345Y-70512047D01*
X144953653Y-70626739D01*
X144985927Y-70659013D01*
X142597402Y-70650691D01*
X142644645Y-70619124D01*
X142899124Y-70364645D01*
X143099066Y-70065409D01*
X143236789Y-69732916D01*
X143307000Y-69379944D01*
X143307000Y-69020056D01*
X143236789Y-68667084D01*
X143099066Y-68334591D01*
X142899124Y-68035355D01*
X142644645Y-67780876D01*
X142536098Y-67708347D01*
X145247952Y-67708347D01*
X146560000Y-69020395D01*
X147872048Y-67708347D01*
X147716038Y-67392786D01*
X147341255Y-67201980D01*
X146936449Y-67087956D01*
X146517176Y-67055098D01*
X146099549Y-67104666D01*
X145699617Y-67234757D01*
X145403962Y-67392786D01*
X145247952Y-67708347D01*
X142536098Y-67708347D01*
X142345409Y-67580934D01*
X142012916Y-67443211D01*
X141659944Y-67373000D01*
X141300056Y-67373000D01*
X140947084Y-67443211D01*
X140614591Y-67580934D01*
X140315355Y-67780876D01*
X140060876Y-68035355D01*
X139860934Y-68334591D01*
X139723211Y-68667084D01*
X139653000Y-69020056D01*
X139653000Y-69379944D01*
X139723211Y-69732916D01*
X139860934Y-70065409D01*
X140060876Y-70364645D01*
X140315355Y-70619124D01*
X140350883Y-70642863D01*
X137543755Y-70633082D01*
X137564645Y-70619124D01*
X137819124Y-70364645D01*
X138019066Y-70065409D01*
X138156789Y-69732916D01*
X138227000Y-69379944D01*
X138227000Y-69020056D01*
X138156789Y-68667084D01*
X138019066Y-68334591D01*
X137819124Y-68035355D01*
X137564645Y-67780876D01*
X137265409Y-67580934D01*
X136932916Y-67443211D01*
X136579944Y-67373000D01*
X136220056Y-67373000D01*
X135867084Y-67443211D01*
X135534591Y-67580934D01*
X135235355Y-67780876D01*
X134980876Y-68035355D01*
X134780934Y-68334591D01*
X134777000Y-68344089D01*
X134777000Y-63635000D01*
X140889928Y-63635000D01*
X140902188Y-63759482D01*
X140938498Y-63879180D01*
X140997463Y-63989494D01*
X141076815Y-64086185D01*
X141173506Y-64165537D01*
X141283820Y-64224502D01*
X141403518Y-64260812D01*
X141528000Y-64273072D01*
X142142250Y-64270000D01*
X142301000Y-64111250D01*
X142301000Y-63099500D01*
X142555000Y-63099500D01*
X142555000Y-64111250D01*
X142713750Y-64270000D01*
X143328000Y-64273072D01*
X143452482Y-64260812D01*
X143572180Y-64224502D01*
X143682494Y-64165537D01*
X143779185Y-64086185D01*
X143858537Y-63989494D01*
X143917502Y-63879180D01*
X143953812Y-63759482D01*
X143966072Y-63635000D01*
X143963000Y-63258250D01*
X143804250Y-63099500D01*
X142555000Y-63099500D01*
X142301000Y-63099500D01*
X141051750Y-63099500D01*
X140893000Y-63258250D01*
X140889928Y-63635000D01*
X134777000Y-63635000D01*
X134777000Y-63327000D01*
X136000000Y-63327000D01*
X136030602Y-63323999D01*
X136061274Y-63321208D01*
X136062376Y-63320884D01*
X136063515Y-63320772D01*
X136092993Y-63311872D01*
X136122496Y-63303189D01*
X136123509Y-63302659D01*
X136124610Y-63302327D01*
X136151810Y-63287864D01*
X136179053Y-63273622D01*
X136179947Y-63272903D01*
X136180959Y-63272365D01*
X136204777Y-63252940D01*
X136228790Y-63233633D01*
X136229528Y-63232753D01*
X136230415Y-63232030D01*
X136250011Y-63208342D01*
X136269812Y-63184744D01*
X136270364Y-63183739D01*
X136271095Y-63182856D01*
X136285735Y-63155780D01*
X136300557Y-63128819D01*
X136300903Y-63127727D01*
X136301449Y-63126718D01*
X136310553Y-63097308D01*
X136319854Y-63067987D01*
X136319982Y-63066848D01*
X136320321Y-63065752D01*
X136323539Y-63035135D01*
X136326968Y-63004566D01*
X136326983Y-63002365D01*
X136326992Y-63002283D01*
X136326985Y-63002201D01*
X136327000Y-63000000D01*
X136327000Y-61000000D01*
X136323999Y-60969398D01*
X136321208Y-60938726D01*
X136320884Y-60937624D01*
X136320772Y-60936485D01*
X136311872Y-60907007D01*
X136303189Y-60877504D01*
X136302659Y-60876491D01*
X136302327Y-60875390D01*
X136287864Y-60848190D01*
X136273622Y-60820947D01*
X136272903Y-60820053D01*
X136272365Y-60819041D01*
X136252940Y-60795223D01*
X136233633Y-60771210D01*
X136232753Y-60770472D01*
X136232030Y-60769585D01*
X136208342Y-60749989D01*
X136184744Y-60730188D01*
X136183739Y-60729636D01*
X136182856Y-60728905D01*
X136155780Y-60714265D01*
X136128819Y-60699443D01*
X136127727Y-60699097D01*
X136126718Y-60698551D01*
X136097308Y-60689447D01*
X136067987Y-60680146D01*
X136066848Y-60680018D01*
X136065752Y-60679679D01*
X136035135Y-60676461D01*
X136004566Y-60673032D01*
X136002365Y-60673017D01*
X136002283Y-60673008D01*
X136002201Y-60673015D01*
X136000000Y-60673000D01*
X134777000Y-60673000D01*
X134777000Y-43077443D01*
X141252011Y-43100004D01*
G37*
G04 #@! TD.AperFunction*
D26*
X144575000Y-61831418D02*
X144281000Y-61831418D01*
X144281000Y-61788582D01*
X144575000Y-61788582D01*
X144575000Y-61831418D01*
G04 #@! TA.AperFunction,Conductor*
D27*
G36*
X144575000Y-61831418D02*
G01*
X144281000Y-61831418D01*
X144281000Y-61788582D01*
X144575000Y-61788582D01*
X144575000Y-61831418D01*
G37*
G04 #@! TD.AperFunction*
D26*
X144350000Y-47406418D02*
X144056000Y-47406418D01*
X144056000Y-47363582D01*
X144350000Y-47363582D01*
X144350000Y-47406418D01*
G04 #@! TA.AperFunction,Conductor*
D27*
G36*
X144350000Y-47406418D02*
G01*
X144056000Y-47406418D01*
X144056000Y-47363582D01*
X144350000Y-47363582D01*
X144350000Y-47406418D01*
G37*
G04 #@! TD.AperFunction*
M02*
