G04 #@! TF.GenerationSoftware,KiCad,Pcbnew,5.1.10*
G04 #@! TF.CreationDate,2021-08-16T10:51:44+12:00*
G04 #@! TF.ProjectId,GateStage,47617465-5374-4616-9765-2e6b69636164,rev?*
G04 #@! TF.SameCoordinates,Original*
G04 #@! TF.FileFunction,Paste,Top*
G04 #@! TF.FilePolarity,Positive*
%FSLAX46Y46*%
G04 Gerber Fmt 4.6, Leading zero omitted, Abs format (unit mm)*
G04 Created by KiCad (PCBNEW 5.1.10) date 2021-08-16 10:51:44*
%MOMM*%
%LPD*%
G01*
G04 APERTURE LIST*
%ADD10R,1.650000X2.600000*%
%ADD11R,0.850000X0.300000*%
%ADD12R,3.050000X2.750000*%
%ADD13R,2.200000X1.200000*%
G04 APERTURE END LIST*
G36*
G01*
X148502998Y-47785000D02*
X149803002Y-47785000D01*
G75*
G02*
X150053000Y-48034998I0J-249998D01*
G01*
X150053000Y-48860002D01*
G75*
G02*
X149803002Y-49110000I-249998J0D01*
G01*
X148502998Y-49110000D01*
G75*
G02*
X148253000Y-48860002I0J249998D01*
G01*
X148253000Y-48034998D01*
G75*
G02*
X148502998Y-47785000I249998J0D01*
G01*
G37*
G36*
G01*
X148502998Y-44660000D02*
X149803002Y-44660000D01*
G75*
G02*
X150053000Y-44909998I0J-249998D01*
G01*
X150053000Y-45735002D01*
G75*
G02*
X149803002Y-45985000I-249998J0D01*
G01*
X148502998Y-45985000D01*
G75*
G02*
X148253000Y-45735002I0J249998D01*
G01*
X148253000Y-44909998D01*
G75*
G02*
X148502998Y-44660000I249998J0D01*
G01*
G37*
D10*
X145878000Y-61310000D03*
D11*
X144428000Y-62310000D03*
X144428000Y-61810000D03*
X144428000Y-61310000D03*
X144428000Y-60810000D03*
X144428000Y-60310000D03*
X147328000Y-60310000D03*
X147328000Y-60810000D03*
X147328000Y-61310000D03*
X147328000Y-61810000D03*
X147328000Y-62310000D03*
D10*
X145653000Y-46885000D03*
D11*
X144203000Y-47885000D03*
X144203000Y-47385000D03*
X144203000Y-46885000D03*
X144203000Y-46385000D03*
X144203000Y-45885000D03*
X147103000Y-45885000D03*
X147103000Y-46385000D03*
X147103000Y-46885000D03*
X147103000Y-47385000D03*
X147103000Y-47885000D03*
G36*
G01*
X151174999Y-62300000D02*
X154025001Y-62300000D01*
G75*
G02*
X154275000Y-62549999I0J-249999D01*
G01*
X154275000Y-63450001D01*
G75*
G02*
X154025001Y-63700000I-249999J0D01*
G01*
X151174999Y-63700000D01*
G75*
G02*
X150925000Y-63450001I0J249999D01*
G01*
X150925000Y-62549999D01*
G75*
G02*
X151174999Y-62300000I249999J0D01*
G01*
G37*
G36*
G01*
X151174999Y-56200000D02*
X154025001Y-56200000D01*
G75*
G02*
X154275000Y-56449999I0J-249999D01*
G01*
X154275000Y-57350001D01*
G75*
G02*
X154025001Y-57600000I-249999J0D01*
G01*
X151174999Y-57600000D01*
G75*
G02*
X150925000Y-57350001I0J249999D01*
G01*
X150925000Y-56449999D01*
G75*
G02*
X151174999Y-56200000I249999J0D01*
G01*
G37*
G36*
G01*
X151202999Y-37510000D02*
X154053001Y-37510000D01*
G75*
G02*
X154303000Y-37759999I0J-249999D01*
G01*
X154303000Y-38660001D01*
G75*
G02*
X154053001Y-38910000I-249999J0D01*
G01*
X151202999Y-38910000D01*
G75*
G02*
X150953000Y-38660001I0J249999D01*
G01*
X150953000Y-37759999D01*
G75*
G02*
X151202999Y-37510000I249999J0D01*
G01*
G37*
G36*
G01*
X151202999Y-31410000D02*
X154053001Y-31410000D01*
G75*
G02*
X154303000Y-31659999I0J-249999D01*
G01*
X154303000Y-32560001D01*
G75*
G02*
X154053001Y-32810000I-249999J0D01*
G01*
X151202999Y-32810000D01*
G75*
G02*
X150953000Y-32560001I0J249999D01*
G01*
X150953000Y-31659999D01*
G75*
G02*
X151202999Y-31410000I249999J0D01*
G01*
G37*
G36*
G01*
X151002999Y-72210000D02*
X153853001Y-72210000D01*
G75*
G02*
X154103000Y-72459999I0J-249999D01*
G01*
X154103000Y-73360001D01*
G75*
G02*
X153853001Y-73610000I-249999J0D01*
G01*
X151002999Y-73610000D01*
G75*
G02*
X150753000Y-73360001I0J249999D01*
G01*
X150753000Y-72459999D01*
G75*
G02*
X151002999Y-72210000I249999J0D01*
G01*
G37*
G36*
G01*
X151002999Y-66110000D02*
X153853001Y-66110000D01*
G75*
G02*
X154103000Y-66359999I0J-249999D01*
G01*
X154103000Y-67260001D01*
G75*
G02*
X153853001Y-67510000I-249999J0D01*
G01*
X151002999Y-67510000D01*
G75*
G02*
X150753000Y-67260001I0J249999D01*
G01*
X150753000Y-66359999D01*
G75*
G02*
X151002999Y-66110000I249999J0D01*
G01*
G37*
G36*
G01*
X151002999Y-49110000D02*
X153853001Y-49110000D01*
G75*
G02*
X154103000Y-49359999I0J-249999D01*
G01*
X154103000Y-50260001D01*
G75*
G02*
X153853001Y-50510000I-249999J0D01*
G01*
X151002999Y-50510000D01*
G75*
G02*
X150753000Y-50260001I0J249999D01*
G01*
X150753000Y-49359999D01*
G75*
G02*
X151002999Y-49110000I249999J0D01*
G01*
G37*
G36*
G01*
X151002999Y-43010000D02*
X153853001Y-43010000D01*
G75*
G02*
X154103000Y-43259999I0J-249999D01*
G01*
X154103000Y-44160001D01*
G75*
G02*
X153853001Y-44410000I-249999J0D01*
G01*
X151002999Y-44410000D01*
G75*
G02*
X150753000Y-44160001I0J249999D01*
G01*
X150753000Y-43259999D01*
G75*
G02*
X151002999Y-43010000I249999J0D01*
G01*
G37*
G36*
G01*
X145853000Y-58847500D02*
X145853000Y-58372500D01*
G75*
G02*
X146090500Y-58135000I237500J0D01*
G01*
X146590500Y-58135000D01*
G75*
G02*
X146828000Y-58372500I0J-237500D01*
G01*
X146828000Y-58847500D01*
G75*
G02*
X146590500Y-59085000I-237500J0D01*
G01*
X146090500Y-59085000D01*
G75*
G02*
X145853000Y-58847500I0J237500D01*
G01*
G37*
G36*
G01*
X144028000Y-58847500D02*
X144028000Y-58372500D01*
G75*
G02*
X144265500Y-58135000I237500J0D01*
G01*
X144765500Y-58135000D01*
G75*
G02*
X145003000Y-58372500I0J-237500D01*
G01*
X145003000Y-58847500D01*
G75*
G02*
X144765500Y-59085000I-237500J0D01*
G01*
X144265500Y-59085000D01*
G75*
G02*
X144028000Y-58847500I0J237500D01*
G01*
G37*
G36*
G01*
X142837500Y-43512500D02*
X142837500Y-43987500D01*
G75*
G02*
X142600000Y-44225000I-237500J0D01*
G01*
X142100000Y-44225000D01*
G75*
G02*
X141862500Y-43987500I0J237500D01*
G01*
X141862500Y-43512500D01*
G75*
G02*
X142100000Y-43275000I237500J0D01*
G01*
X142600000Y-43275000D01*
G75*
G02*
X142837500Y-43512500I0J-237500D01*
G01*
G37*
G36*
G01*
X144662500Y-43512500D02*
X144662500Y-43987500D01*
G75*
G02*
X144425000Y-44225000I-237500J0D01*
G01*
X143925000Y-44225000D01*
G75*
G02*
X143687500Y-43987500I0J237500D01*
G01*
X143687500Y-43512500D01*
G75*
G02*
X143925000Y-43275000I237500J0D01*
G01*
X144425000Y-43275000D01*
G75*
G02*
X144662500Y-43512500I0J-237500D01*
G01*
G37*
G36*
G01*
X148577998Y-62310000D02*
X149878002Y-62310000D01*
G75*
G02*
X150128000Y-62559998I0J-249998D01*
G01*
X150128000Y-63385002D01*
G75*
G02*
X149878002Y-63635000I-249998J0D01*
G01*
X148577998Y-63635000D01*
G75*
G02*
X148328000Y-63385002I0J249998D01*
G01*
X148328000Y-62559998D01*
G75*
G02*
X148577998Y-62310000I249998J0D01*
G01*
G37*
G36*
G01*
X148577998Y-59185000D02*
X149878002Y-59185000D01*
G75*
G02*
X150128000Y-59434998I0J-249998D01*
G01*
X150128000Y-60260002D01*
G75*
G02*
X149878002Y-60510000I-249998J0D01*
G01*
X148577998Y-60510000D01*
G75*
G02*
X148328000Y-60260002I0J249998D01*
G01*
X148328000Y-59434998D01*
G75*
G02*
X148577998Y-59185000I249998J0D01*
G01*
G37*
G36*
G01*
X142878002Y-46110000D02*
X141577998Y-46110000D01*
G75*
G02*
X141328000Y-45860002I0J249998D01*
G01*
X141328000Y-45034998D01*
G75*
G02*
X141577998Y-44785000I249998J0D01*
G01*
X142878002Y-44785000D01*
G75*
G02*
X143128000Y-45034998I0J-249998D01*
G01*
X143128000Y-45860002D01*
G75*
G02*
X142878002Y-46110000I-249998J0D01*
G01*
G37*
G36*
G01*
X142878002Y-49235000D02*
X141577998Y-49235000D01*
G75*
G02*
X141328000Y-48985002I0J249998D01*
G01*
X141328000Y-48159998D01*
G75*
G02*
X141577998Y-47910000I249998J0D01*
G01*
X142878002Y-47910000D01*
G75*
G02*
X143128000Y-48159998I0J-249998D01*
G01*
X143128000Y-48985002D01*
G75*
G02*
X142878002Y-49235000I-249998J0D01*
G01*
G37*
G36*
G01*
X143078002Y-60510000D02*
X141777998Y-60510000D01*
G75*
G02*
X141528000Y-60260002I0J249998D01*
G01*
X141528000Y-59434998D01*
G75*
G02*
X141777998Y-59185000I249998J0D01*
G01*
X143078002Y-59185000D01*
G75*
G02*
X143328000Y-59434998I0J-249998D01*
G01*
X143328000Y-60260002D01*
G75*
G02*
X143078002Y-60510000I-249998J0D01*
G01*
G37*
G36*
G01*
X143078002Y-63635000D02*
X141777998Y-63635000D01*
G75*
G02*
X141528000Y-63385002I0J249998D01*
G01*
X141528000Y-62559998D01*
G75*
G02*
X141777998Y-62310000I249998J0D01*
G01*
X143078002Y-62310000D01*
G75*
G02*
X143328000Y-62559998I0J-249998D01*
G01*
X143328000Y-63385002D01*
G75*
G02*
X143078002Y-63635000I-249998J0D01*
G01*
G37*
G36*
G01*
X125515500Y-49847500D02*
X125515500Y-49372500D01*
G75*
G02*
X125753000Y-49135000I237500J0D01*
G01*
X126353000Y-49135000D01*
G75*
G02*
X126590500Y-49372500I0J-237500D01*
G01*
X126590500Y-49847500D01*
G75*
G02*
X126353000Y-50085000I-237500J0D01*
G01*
X125753000Y-50085000D01*
G75*
G02*
X125515500Y-49847500I0J237500D01*
G01*
G37*
G36*
G01*
X123790500Y-49847500D02*
X123790500Y-49372500D01*
G75*
G02*
X124028000Y-49135000I237500J0D01*
G01*
X124628000Y-49135000D01*
G75*
G02*
X124865500Y-49372500I0J-237500D01*
G01*
X124865500Y-49847500D01*
G75*
G02*
X124628000Y-50085000I-237500J0D01*
G01*
X124028000Y-50085000D01*
G75*
G02*
X123790500Y-49847500I0J237500D01*
G01*
G37*
G36*
G01*
X125465500Y-58847500D02*
X125465500Y-58372500D01*
G75*
G02*
X125703000Y-58135000I237500J0D01*
G01*
X126303000Y-58135000D01*
G75*
G02*
X126540500Y-58372500I0J-237500D01*
G01*
X126540500Y-58847500D01*
G75*
G02*
X126303000Y-59085000I-237500J0D01*
G01*
X125703000Y-59085000D01*
G75*
G02*
X125465500Y-58847500I0J237500D01*
G01*
G37*
G36*
G01*
X123740500Y-58847500D02*
X123740500Y-58372500D01*
G75*
G02*
X123978000Y-58135000I237500J0D01*
G01*
X124578000Y-58135000D01*
G75*
G02*
X124815500Y-58372500I0J-237500D01*
G01*
X124815500Y-58847500D01*
G75*
G02*
X124578000Y-59085000I-237500J0D01*
G01*
X123978000Y-59085000D01*
G75*
G02*
X123740500Y-58847500I0J237500D01*
G01*
G37*
D12*
X129478000Y-55660000D03*
X132828000Y-52610000D03*
X129478000Y-52610000D03*
X132828000Y-55660000D03*
D13*
X124853000Y-56415000D03*
X124853000Y-51855000D03*
M02*
