G04 #@! TF.GenerationSoftware,KiCad,Pcbnew,(5.1.9)-1*
G04 #@! TF.CreationDate,2021-08-16T02:32:56+12:00*
G04 #@! TF.ProjectId,Input,496e7075-742e-46b6-9963-61645f706362,rev?*
G04 #@! TF.SameCoordinates,Original*
G04 #@! TF.FileFunction,Copper,L2,Bot*
G04 #@! TF.FilePolarity,Positive*
%FSLAX46Y46*%
G04 Gerber Fmt 4.6, Leading zero omitted, Abs format (unit mm)*
G04 Created by KiCad (PCBNEW (5.1.9)-1) date 2021-08-16 02:32:56*
%MOMM*%
%LPD*%
G01*
G04 APERTURE LIST*
G04 #@! TA.AperFunction,ComponentPad*
%ADD10C,3.000000*%
G04 #@! TD*
G04 #@! TA.AperFunction,ComponentPad*
%ADD11R,3.000000X3.000000*%
G04 #@! TD*
G04 #@! TA.AperFunction,ComponentPad*
%ADD12C,5.700000*%
G04 #@! TD*
G04 #@! TA.AperFunction,ViaPad*
%ADD13C,0.800000*%
G04 #@! TD*
G04 #@! TA.AperFunction,ViaPad*
%ADD14C,0.500000*%
G04 #@! TD*
G04 #@! TA.AperFunction,Conductor*
%ADD15C,0.250000*%
G04 #@! TD*
G04 #@! TA.AperFunction,Conductor*
%ADD16C,0.254000*%
G04 #@! TD*
G04 #@! TA.AperFunction,Conductor*
%ADD17C,0.100000*%
G04 #@! TD*
G04 APERTURE END LIST*
D10*
X183000000Y413160000D03*
X183000000Y408080000D03*
D11*
X183000000Y403000000D03*
D10*
X140000000Y397920000D03*
D11*
X140000000Y403000000D03*
D10*
X140000000Y408920000D03*
D11*
X140000000Y414000000D03*
D12*
X183000000Y390000000D03*
X140000000Y390000000D03*
X183000000Y422000000D03*
X140000000Y422000000D03*
D13*
X165000000Y406450000D03*
X165000000Y405000000D03*
X165000000Y399000000D03*
X165000000Y402000000D03*
D14*
X159910000Y410580000D03*
X158890000Y410590000D03*
X168420000Y403930000D03*
X168420000Y405030000D03*
X168490000Y403040000D03*
X161690000Y400530000D03*
X161700000Y401420000D03*
X161720000Y399620000D03*
X166390000Y401250000D03*
X160370000Y397050000D03*
X154460000Y398370000D03*
X152560000Y399760000D03*
X156040000Y403050000D03*
X154850000Y401850000D03*
X146870000Y406050000D03*
X148110000Y406000000D03*
X166430000Y397340000D03*
X170040000Y406210000D03*
X171100000Y406210000D03*
D13*
X145000000Y407000000D03*
X147000000Y407000000D03*
X171000000Y411000000D03*
X173000000Y409000000D03*
X173000000Y405000000D03*
X173000000Y401000000D03*
D15*
X165000000Y406450000D02*
X165000000Y405000000D01*
X165000000Y399000000D02*
X165000000Y402000000D01*
X145000000Y407000000D02*
X147000000Y407000000D01*
X171000000Y411000000D02*
X173000000Y409000000D01*
X173000000Y405000000D02*
X173000000Y401000000D01*
D16*
X183768083Y426268827D02*
X184511891Y426065344D01*
X185207905Y425733362D01*
X185834130Y425283374D01*
X186370777Y424729597D01*
X186800871Y424089549D01*
X187110829Y423383447D01*
X187292065Y422628543D01*
X187340000Y421975793D01*
X187340001Y390029403D01*
X187268827Y389231917D01*
X187065344Y388488110D01*
X186733363Y387792096D01*
X186283374Y387165870D01*
X185729597Y386629223D01*
X185089549Y386199129D01*
X184383447Y385889171D01*
X183628543Y385707935D01*
X182975793Y385660000D01*
X140029392Y385660000D01*
X139231917Y385731173D01*
X138488110Y385934656D01*
X137792096Y386266637D01*
X137165870Y386716626D01*
X136629223Y387270403D01*
X136199129Y387910451D01*
X135889171Y388616553D01*
X135707935Y389371457D01*
X135660000Y390024207D01*
X135660000Y390343242D01*
X136515000Y390343242D01*
X136515000Y389656758D01*
X136648927Y388983463D01*
X136911633Y388349234D01*
X137293024Y387778442D01*
X137778442Y387293024D01*
X138349234Y386911633D01*
X138983463Y386648927D01*
X139656758Y386515000D01*
X140343242Y386515000D01*
X141016537Y386648927D01*
X141650766Y386911633D01*
X142221558Y387293024D01*
X142706976Y387778442D01*
X143088367Y388349234D01*
X143351073Y388983463D01*
X143485000Y389656758D01*
X143485000Y390343242D01*
X179515000Y390343242D01*
X179515000Y389656758D01*
X179648927Y388983463D01*
X179911633Y388349234D01*
X180293024Y387778442D01*
X180778442Y387293024D01*
X181349234Y386911633D01*
X181983463Y386648927D01*
X182656758Y386515000D01*
X183343242Y386515000D01*
X184016537Y386648927D01*
X184650766Y386911633D01*
X185221558Y387293024D01*
X185706976Y387778442D01*
X186088367Y388349234D01*
X186351073Y388983463D01*
X186485000Y389656758D01*
X186485000Y390343242D01*
X186351073Y391016537D01*
X186088367Y391650766D01*
X185706976Y392221558D01*
X185221558Y392706976D01*
X184650766Y393088367D01*
X184016537Y393351073D01*
X183343242Y393485000D01*
X182656758Y393485000D01*
X181983463Y393351073D01*
X181349234Y393088367D01*
X180778442Y392706976D01*
X180293024Y392221558D01*
X179911633Y391650766D01*
X179648927Y391016537D01*
X179515000Y390343242D01*
X143485000Y390343242D01*
X143351073Y391016537D01*
X143088367Y391650766D01*
X142706976Y392221558D01*
X142221558Y392706976D01*
X141650766Y393088367D01*
X141016537Y393351073D01*
X140343242Y393485000D01*
X139656758Y393485000D01*
X138983463Y393351073D01*
X138349234Y393088367D01*
X137778442Y392706976D01*
X137293024Y392221558D01*
X136911633Y391650766D01*
X136648927Y391016537D01*
X136515000Y390343242D01*
X135660000Y390343242D01*
X135660000Y396428347D01*
X138687952Y396428347D01*
X138843962Y396112786D01*
X139218745Y395921980D01*
X139623551Y395807956D01*
X140042824Y395775098D01*
X140460451Y395824666D01*
X140860383Y395954757D01*
X141156038Y396112786D01*
X141312048Y396428347D01*
X140000000Y397740395D01*
X138687952Y396428347D01*
X135660000Y396428347D01*
X135660000Y397877176D01*
X137855098Y397877176D01*
X137904666Y397459549D01*
X138034757Y397059617D01*
X138192786Y396763962D01*
X138508347Y396607952D01*
X139820395Y397920000D01*
X140179605Y397920000D01*
X141491653Y396607952D01*
X141807214Y396763962D01*
X141998020Y397138745D01*
X142112044Y397543551D01*
X142144902Y397962824D01*
X142095334Y398380451D01*
X141965243Y398780383D01*
X141807214Y399076038D01*
X141491653Y399232048D01*
X140179605Y397920000D01*
X139820395Y397920000D01*
X138508347Y399232048D01*
X138192786Y399076038D01*
X138001980Y398701255D01*
X137887956Y398296449D01*
X137855098Y397877176D01*
X135660000Y397877176D01*
X135660000Y399411653D01*
X138687952Y399411653D01*
X140000000Y398099605D01*
X141312048Y399411653D01*
X141156038Y399727214D01*
X140781255Y399918020D01*
X140376449Y400032044D01*
X139957176Y400064902D01*
X139539549Y400015334D01*
X139139617Y399885243D01*
X138843962Y399727214D01*
X138687952Y399411653D01*
X135660000Y399411653D01*
X135660000Y404500000D01*
X137861928Y404500000D01*
X137861928Y401500000D01*
X137874188Y401375518D01*
X137910498Y401255820D01*
X137969463Y401145506D01*
X138048815Y401048815D01*
X138145506Y400969463D01*
X138255820Y400910498D01*
X138375518Y400874188D01*
X138500000Y400861928D01*
X141500000Y400861928D01*
X141624482Y400874188D01*
X141744180Y400910498D01*
X141854494Y400969463D01*
X141951185Y401048815D01*
X142030537Y401145506D01*
X142089502Y401255820D01*
X142125812Y401375518D01*
X142138072Y401500000D01*
X142138072Y402101939D01*
X163965000Y402101939D01*
X163965000Y401898061D01*
X164004774Y401698102D01*
X164082795Y401509744D01*
X164196063Y401340226D01*
X164240001Y401296288D01*
X164240000Y399703711D01*
X164196063Y399659774D01*
X164082795Y399490256D01*
X164004774Y399301898D01*
X163965000Y399101939D01*
X163965000Y398898061D01*
X164004774Y398698102D01*
X164082795Y398509744D01*
X164196063Y398340226D01*
X164340226Y398196063D01*
X164509744Y398082795D01*
X164698102Y398004774D01*
X164898061Y397965000D01*
X165101939Y397965000D01*
X165301898Y398004774D01*
X165490256Y398082795D01*
X165659774Y398196063D01*
X165803937Y398340226D01*
X165917205Y398509744D01*
X165995226Y398698102D01*
X166035000Y398898061D01*
X166035000Y399101939D01*
X165995226Y399301898D01*
X165917205Y399490256D01*
X165803937Y399659774D01*
X165760000Y399703711D01*
X165760000Y401296289D01*
X165803937Y401340226D01*
X165917205Y401509744D01*
X165995226Y401698102D01*
X166035000Y401898061D01*
X166035000Y402101939D01*
X165995226Y402301898D01*
X165917205Y402490256D01*
X165803937Y402659774D01*
X165659774Y402803937D01*
X165490256Y402917205D01*
X165301898Y402995226D01*
X165101939Y403035000D01*
X164898061Y403035000D01*
X164698102Y402995226D01*
X164509744Y402917205D01*
X164340226Y402803937D01*
X164196063Y402659774D01*
X164082795Y402490256D01*
X164004774Y402301898D01*
X163965000Y402101939D01*
X142138072Y402101939D01*
X142138072Y404500000D01*
X142125812Y404624482D01*
X142089502Y404744180D01*
X142030537Y404854494D01*
X141951185Y404951185D01*
X141854494Y405030537D01*
X141744180Y405089502D01*
X141624482Y405125812D01*
X141500000Y405138072D01*
X138500000Y405138072D01*
X138375518Y405125812D01*
X138255820Y405089502D01*
X138145506Y405030537D01*
X138048815Y404951185D01*
X137969463Y404854494D01*
X137910498Y404744180D01*
X137874188Y404624482D01*
X137861928Y404500000D01*
X135660000Y404500000D01*
X135660000Y407428347D01*
X138687952Y407428347D01*
X138843962Y407112786D01*
X139218745Y406921980D01*
X139623551Y406807956D01*
X140042824Y406775098D01*
X140460451Y406824666D01*
X140860383Y406954757D01*
X141135744Y407101939D01*
X143965000Y407101939D01*
X143965000Y406898061D01*
X144004774Y406698102D01*
X144082795Y406509744D01*
X144196063Y406340226D01*
X144340226Y406196063D01*
X144509744Y406082795D01*
X144698102Y406004774D01*
X144898061Y405965000D01*
X145101939Y405965000D01*
X145301898Y406004774D01*
X145490256Y406082795D01*
X145659774Y406196063D01*
X145703711Y406240000D01*
X146296289Y406240000D01*
X146340226Y406196063D01*
X146509744Y406082795D01*
X146698102Y406004774D01*
X146898061Y405965000D01*
X147101939Y405965000D01*
X147301898Y406004774D01*
X147490256Y406082795D01*
X147659774Y406196063D01*
X147803937Y406340226D01*
X147917205Y406509744D01*
X147934682Y406551939D01*
X163965000Y406551939D01*
X163965000Y406348061D01*
X164004774Y406148102D01*
X164082795Y405959744D01*
X164196063Y405790226D01*
X164240000Y405746289D01*
X164240001Y405703712D01*
X164196063Y405659774D01*
X164082795Y405490256D01*
X164004774Y405301898D01*
X163965000Y405101939D01*
X163965000Y404898061D01*
X164004774Y404698102D01*
X164082795Y404509744D01*
X164196063Y404340226D01*
X164340226Y404196063D01*
X164509744Y404082795D01*
X164698102Y404004774D01*
X164898061Y403965000D01*
X165101939Y403965000D01*
X165301898Y404004774D01*
X165490256Y404082795D01*
X165659774Y404196063D01*
X165803937Y404340226D01*
X165917205Y404509744D01*
X165995226Y404698102D01*
X166035000Y404898061D01*
X166035000Y405101939D01*
X171965000Y405101939D01*
X171965000Y404898061D01*
X172004774Y404698102D01*
X172082795Y404509744D01*
X172196063Y404340226D01*
X172240000Y404296289D01*
X172240001Y401703712D01*
X172196063Y401659774D01*
X172082795Y401490256D01*
X172004774Y401301898D01*
X171965000Y401101939D01*
X171965000Y400898061D01*
X172004774Y400698102D01*
X172082795Y400509744D01*
X172196063Y400340226D01*
X172340226Y400196063D01*
X172509744Y400082795D01*
X172698102Y400004774D01*
X172898061Y399965000D01*
X173101939Y399965000D01*
X173301898Y400004774D01*
X173490256Y400082795D01*
X173659774Y400196063D01*
X173803937Y400340226D01*
X173917205Y400509744D01*
X173995226Y400698102D01*
X174035000Y400898061D01*
X174035000Y401101939D01*
X173995226Y401301898D01*
X173917205Y401490256D01*
X173803937Y401659774D01*
X173760000Y401703711D01*
X173760000Y404296289D01*
X173803937Y404340226D01*
X173910694Y404500000D01*
X180861928Y404500000D01*
X180861928Y401500000D01*
X180874188Y401375518D01*
X180910498Y401255820D01*
X180969463Y401145506D01*
X181048815Y401048815D01*
X181145506Y400969463D01*
X181255820Y400910498D01*
X181375518Y400874188D01*
X181500000Y400861928D01*
X184500000Y400861928D01*
X184624482Y400874188D01*
X184744180Y400910498D01*
X184854494Y400969463D01*
X184951185Y401048815D01*
X185030537Y401145506D01*
X185089502Y401255820D01*
X185125812Y401375518D01*
X185138072Y401500000D01*
X185138072Y404500000D01*
X185125812Y404624482D01*
X185089502Y404744180D01*
X185030537Y404854494D01*
X184951185Y404951185D01*
X184854494Y405030537D01*
X184744180Y405089502D01*
X184624482Y405125812D01*
X184500000Y405138072D01*
X181500000Y405138072D01*
X181375518Y405125812D01*
X181255820Y405089502D01*
X181145506Y405030537D01*
X181048815Y404951185D01*
X180969463Y404854494D01*
X180910498Y404744180D01*
X180874188Y404624482D01*
X180861928Y404500000D01*
X173910694Y404500000D01*
X173917205Y404509744D01*
X173995226Y404698102D01*
X174035000Y404898061D01*
X174035000Y405101939D01*
X173995226Y405301898D01*
X173917205Y405490256D01*
X173803937Y405659774D01*
X173659774Y405803937D01*
X173490256Y405917205D01*
X173301898Y405995226D01*
X173101939Y406035000D01*
X172898061Y406035000D01*
X172698102Y405995226D01*
X172509744Y405917205D01*
X172340226Y405803937D01*
X172196063Y405659774D01*
X172082795Y405490256D01*
X172004774Y405301898D01*
X171965000Y405101939D01*
X166035000Y405101939D01*
X165995226Y405301898D01*
X165917205Y405490256D01*
X165803937Y405659774D01*
X165760000Y405703711D01*
X165760000Y405746289D01*
X165803937Y405790226D01*
X165917205Y405959744D01*
X165995226Y406148102D01*
X166035000Y406348061D01*
X166035000Y406551939D01*
X165995226Y406751898D01*
X165917205Y406940256D01*
X165803937Y407109774D01*
X165659774Y407253937D01*
X165490256Y407367205D01*
X165301898Y407445226D01*
X165101939Y407485000D01*
X164898061Y407485000D01*
X164698102Y407445226D01*
X164509744Y407367205D01*
X164340226Y407253937D01*
X164196063Y407109774D01*
X164082795Y406940256D01*
X164004774Y406751898D01*
X163965000Y406551939D01*
X147934682Y406551939D01*
X147995226Y406698102D01*
X148035000Y406898061D01*
X148035000Y407101939D01*
X147995226Y407301898D01*
X147917205Y407490256D01*
X147803937Y407659774D01*
X147659774Y407803937D01*
X147490256Y407917205D01*
X147301898Y407995226D01*
X147101939Y408035000D01*
X146898061Y408035000D01*
X146698102Y407995226D01*
X146509744Y407917205D01*
X146340226Y407803937D01*
X146296289Y407760000D01*
X145703711Y407760000D01*
X145659774Y407803937D01*
X145490256Y407917205D01*
X145301898Y407995226D01*
X145101939Y408035000D01*
X144898061Y408035000D01*
X144698102Y407995226D01*
X144509744Y407917205D01*
X144340226Y407803937D01*
X144196063Y407659774D01*
X144082795Y407490256D01*
X144004774Y407301898D01*
X143965000Y407101939D01*
X141135744Y407101939D01*
X141156038Y407112786D01*
X141312048Y407428347D01*
X140000000Y408740395D01*
X138687952Y407428347D01*
X135660000Y407428347D01*
X135660000Y408877176D01*
X137855098Y408877176D01*
X137904666Y408459549D01*
X138034757Y408059617D01*
X138192786Y407763962D01*
X138508347Y407607952D01*
X139820395Y408920000D01*
X140179605Y408920000D01*
X141491653Y407607952D01*
X141807214Y407763962D01*
X141998020Y408138745D01*
X142112044Y408543551D01*
X142144902Y408962824D01*
X142095334Y409380451D01*
X141965243Y409780383D01*
X141807214Y410076038D01*
X141491653Y410232048D01*
X140179605Y408920000D01*
X139820395Y408920000D01*
X138508347Y410232048D01*
X138192786Y410076038D01*
X138001980Y409701255D01*
X137887956Y409296449D01*
X137855098Y408877176D01*
X135660000Y408877176D01*
X135660000Y410411653D01*
X138687952Y410411653D01*
X140000000Y409099605D01*
X141312048Y410411653D01*
X141156038Y410727214D01*
X140781255Y410918020D01*
X140376449Y411032044D01*
X139957176Y411064902D01*
X139539549Y411015334D01*
X139139617Y410885243D01*
X138843962Y410727214D01*
X138687952Y410411653D01*
X135660000Y410411653D01*
X135660000Y411101939D01*
X169965000Y411101939D01*
X169965000Y410898061D01*
X170004774Y410698102D01*
X170082795Y410509744D01*
X170196063Y410340226D01*
X170340226Y410196063D01*
X170509744Y410082795D01*
X170698102Y410004774D01*
X170898061Y409965000D01*
X170960199Y409965000D01*
X171965000Y408960198D01*
X171965000Y408898061D01*
X172004774Y408698102D01*
X172082795Y408509744D01*
X172196063Y408340226D01*
X172340226Y408196063D01*
X172509744Y408082795D01*
X172698102Y408004774D01*
X172898061Y407965000D01*
X173101939Y407965000D01*
X173301898Y408004774D01*
X173490256Y408082795D01*
X173659774Y408196063D01*
X173753990Y408290279D01*
X180865000Y408290279D01*
X180865000Y407869721D01*
X180947047Y407457244D01*
X181107988Y407068698D01*
X181341637Y406719017D01*
X181639017Y406421637D01*
X181988698Y406187988D01*
X182377244Y406027047D01*
X182789721Y405945000D01*
X183210279Y405945000D01*
X183622756Y406027047D01*
X184011302Y406187988D01*
X184360983Y406421637D01*
X184658363Y406719017D01*
X184892012Y407068698D01*
X185052953Y407457244D01*
X185135000Y407869721D01*
X185135000Y408290279D01*
X185052953Y408702756D01*
X184892012Y409091302D01*
X184658363Y409440983D01*
X184360983Y409738363D01*
X184011302Y409972012D01*
X183622756Y410132953D01*
X183210279Y410215000D01*
X182789721Y410215000D01*
X182377244Y410132953D01*
X181988698Y409972012D01*
X181639017Y409738363D01*
X181341637Y409440983D01*
X181107988Y409091302D01*
X180947047Y408702756D01*
X180865000Y408290279D01*
X173753990Y408290279D01*
X173803937Y408340226D01*
X173917205Y408509744D01*
X173995226Y408698102D01*
X174035000Y408898061D01*
X174035000Y409101939D01*
X173995226Y409301898D01*
X173917205Y409490256D01*
X173803937Y409659774D01*
X173659774Y409803937D01*
X173490256Y409917205D01*
X173301898Y409995226D01*
X173101939Y410035000D01*
X173039802Y410035000D01*
X172035000Y411039801D01*
X172035000Y411101939D01*
X171995226Y411301898D01*
X171917205Y411490256D01*
X171803937Y411659774D01*
X171795364Y411668347D01*
X181687952Y411668347D01*
X181843962Y411352786D01*
X182218745Y411161980D01*
X182623551Y411047956D01*
X183042824Y411015098D01*
X183460451Y411064666D01*
X183860383Y411194757D01*
X184156038Y411352786D01*
X184312048Y411668347D01*
X183000000Y412980395D01*
X181687952Y411668347D01*
X171795364Y411668347D01*
X171659774Y411803937D01*
X171490256Y411917205D01*
X171301898Y411995226D01*
X171101939Y412035000D01*
X170898061Y412035000D01*
X170698102Y411995226D01*
X170509744Y411917205D01*
X170340226Y411803937D01*
X170196063Y411659774D01*
X170082795Y411490256D01*
X170004774Y411301898D01*
X169965000Y411101939D01*
X135660000Y411101939D01*
X135660000Y415500000D01*
X137861928Y415500000D01*
X137861928Y412500000D01*
X137874188Y412375518D01*
X137910498Y412255820D01*
X137969463Y412145506D01*
X138048815Y412048815D01*
X138145506Y411969463D01*
X138255820Y411910498D01*
X138375518Y411874188D01*
X138500000Y411861928D01*
X141500000Y411861928D01*
X141624482Y411874188D01*
X141744180Y411910498D01*
X141854494Y411969463D01*
X141951185Y412048815D01*
X142030537Y412145506D01*
X142089502Y412255820D01*
X142125812Y412375518D01*
X142138072Y412500000D01*
X142138072Y413117176D01*
X180855098Y413117176D01*
X180904666Y412699549D01*
X181034757Y412299617D01*
X181192786Y412003962D01*
X181508347Y411847952D01*
X182820395Y413160000D01*
X183179605Y413160000D01*
X184491653Y411847952D01*
X184807214Y412003962D01*
X184998020Y412378745D01*
X185112044Y412783551D01*
X185144902Y413202824D01*
X185095334Y413620451D01*
X184965243Y414020383D01*
X184807214Y414316038D01*
X184491653Y414472048D01*
X183179605Y413160000D01*
X182820395Y413160000D01*
X181508347Y414472048D01*
X181192786Y414316038D01*
X181001980Y413941255D01*
X180887956Y413536449D01*
X180855098Y413117176D01*
X142138072Y413117176D01*
X142138072Y414651653D01*
X181687952Y414651653D01*
X183000000Y413339605D01*
X184312048Y414651653D01*
X184156038Y414967214D01*
X183781255Y415158020D01*
X183376449Y415272044D01*
X182957176Y415304902D01*
X182539549Y415255334D01*
X182139617Y415125243D01*
X181843962Y414967214D01*
X181687952Y414651653D01*
X142138072Y414651653D01*
X142138072Y415500000D01*
X142125812Y415624482D01*
X142089502Y415744180D01*
X142030537Y415854494D01*
X141951185Y415951185D01*
X141854494Y416030537D01*
X141744180Y416089502D01*
X141624482Y416125812D01*
X141500000Y416138072D01*
X138500000Y416138072D01*
X138375518Y416125812D01*
X138255820Y416089502D01*
X138145506Y416030537D01*
X138048815Y415951185D01*
X137969463Y415854494D01*
X137910498Y415744180D01*
X137874188Y415624482D01*
X137861928Y415500000D01*
X135660000Y415500000D01*
X135660000Y421970608D01*
X135693256Y422343242D01*
X136515000Y422343242D01*
X136515000Y421656758D01*
X136648927Y420983463D01*
X136911633Y420349234D01*
X137293024Y419778442D01*
X137778442Y419293024D01*
X138349234Y418911633D01*
X138983463Y418648927D01*
X139656758Y418515000D01*
X140343242Y418515000D01*
X141016537Y418648927D01*
X141650766Y418911633D01*
X142221558Y419293024D01*
X142706976Y419778442D01*
X143088367Y420349234D01*
X143351073Y420983463D01*
X143485000Y421656758D01*
X143485000Y422343242D01*
X179515000Y422343242D01*
X179515000Y421656758D01*
X179648927Y420983463D01*
X179911633Y420349234D01*
X180293024Y419778442D01*
X180778442Y419293024D01*
X181349234Y418911633D01*
X181983463Y418648927D01*
X182656758Y418515000D01*
X183343242Y418515000D01*
X184016537Y418648927D01*
X184650766Y418911633D01*
X185221558Y419293024D01*
X185706976Y419778442D01*
X186088367Y420349234D01*
X186351073Y420983463D01*
X186485000Y421656758D01*
X186485000Y422343242D01*
X186351073Y423016537D01*
X186088367Y423650766D01*
X185706976Y424221558D01*
X185221558Y424706976D01*
X184650766Y425088367D01*
X184016537Y425351073D01*
X183343242Y425485000D01*
X182656758Y425485000D01*
X181983463Y425351073D01*
X181349234Y425088367D01*
X180778442Y424706976D01*
X180293024Y424221558D01*
X179911633Y423650766D01*
X179648927Y423016537D01*
X179515000Y422343242D01*
X143485000Y422343242D01*
X143351073Y423016537D01*
X143088367Y423650766D01*
X142706976Y424221558D01*
X142221558Y424706976D01*
X141650766Y425088367D01*
X141016537Y425351073D01*
X140343242Y425485000D01*
X139656758Y425485000D01*
X138983463Y425351073D01*
X138349234Y425088367D01*
X137778442Y424706976D01*
X137293024Y424221558D01*
X136911633Y423650766D01*
X136648927Y423016537D01*
X136515000Y422343242D01*
X135693256Y422343242D01*
X135731173Y422768083D01*
X135934656Y423511891D01*
X136266638Y424207905D01*
X136716626Y424834130D01*
X137270403Y425370777D01*
X137910451Y425800871D01*
X138616553Y426110829D01*
X139371457Y426292065D01*
X140024207Y426340000D01*
X182970608Y426340000D01*
X183768083Y426268827D01*
G04 #@! TA.AperFunction,Conductor*
D17*
G36*
X183768083Y426268827D02*
G01*
X184511891Y426065344D01*
X185207905Y425733362D01*
X185834130Y425283374D01*
X186370777Y424729597D01*
X186800871Y424089549D01*
X187110829Y423383447D01*
X187292065Y422628543D01*
X187340000Y421975793D01*
X187340001Y390029403D01*
X187268827Y389231917D01*
X187065344Y388488110D01*
X186733363Y387792096D01*
X186283374Y387165870D01*
X185729597Y386629223D01*
X185089549Y386199129D01*
X184383447Y385889171D01*
X183628543Y385707935D01*
X182975793Y385660000D01*
X140029392Y385660000D01*
X139231917Y385731173D01*
X138488110Y385934656D01*
X137792096Y386266637D01*
X137165870Y386716626D01*
X136629223Y387270403D01*
X136199129Y387910451D01*
X135889171Y388616553D01*
X135707935Y389371457D01*
X135660000Y390024207D01*
X135660000Y390343242D01*
X136515000Y390343242D01*
X136515000Y389656758D01*
X136648927Y388983463D01*
X136911633Y388349234D01*
X137293024Y387778442D01*
X137778442Y387293024D01*
X138349234Y386911633D01*
X138983463Y386648927D01*
X139656758Y386515000D01*
X140343242Y386515000D01*
X141016537Y386648927D01*
X141650766Y386911633D01*
X142221558Y387293024D01*
X142706976Y387778442D01*
X143088367Y388349234D01*
X143351073Y388983463D01*
X143485000Y389656758D01*
X143485000Y390343242D01*
X179515000Y390343242D01*
X179515000Y389656758D01*
X179648927Y388983463D01*
X179911633Y388349234D01*
X180293024Y387778442D01*
X180778442Y387293024D01*
X181349234Y386911633D01*
X181983463Y386648927D01*
X182656758Y386515000D01*
X183343242Y386515000D01*
X184016537Y386648927D01*
X184650766Y386911633D01*
X185221558Y387293024D01*
X185706976Y387778442D01*
X186088367Y388349234D01*
X186351073Y388983463D01*
X186485000Y389656758D01*
X186485000Y390343242D01*
X186351073Y391016537D01*
X186088367Y391650766D01*
X185706976Y392221558D01*
X185221558Y392706976D01*
X184650766Y393088367D01*
X184016537Y393351073D01*
X183343242Y393485000D01*
X182656758Y393485000D01*
X181983463Y393351073D01*
X181349234Y393088367D01*
X180778442Y392706976D01*
X180293024Y392221558D01*
X179911633Y391650766D01*
X179648927Y391016537D01*
X179515000Y390343242D01*
X143485000Y390343242D01*
X143351073Y391016537D01*
X143088367Y391650766D01*
X142706976Y392221558D01*
X142221558Y392706976D01*
X141650766Y393088367D01*
X141016537Y393351073D01*
X140343242Y393485000D01*
X139656758Y393485000D01*
X138983463Y393351073D01*
X138349234Y393088367D01*
X137778442Y392706976D01*
X137293024Y392221558D01*
X136911633Y391650766D01*
X136648927Y391016537D01*
X136515000Y390343242D01*
X135660000Y390343242D01*
X135660000Y396428347D01*
X138687952Y396428347D01*
X138843962Y396112786D01*
X139218745Y395921980D01*
X139623551Y395807956D01*
X140042824Y395775098D01*
X140460451Y395824666D01*
X140860383Y395954757D01*
X141156038Y396112786D01*
X141312048Y396428347D01*
X140000000Y397740395D01*
X138687952Y396428347D01*
X135660000Y396428347D01*
X135660000Y397877176D01*
X137855098Y397877176D01*
X137904666Y397459549D01*
X138034757Y397059617D01*
X138192786Y396763962D01*
X138508347Y396607952D01*
X139820395Y397920000D01*
X140179605Y397920000D01*
X141491653Y396607952D01*
X141807214Y396763962D01*
X141998020Y397138745D01*
X142112044Y397543551D01*
X142144902Y397962824D01*
X142095334Y398380451D01*
X141965243Y398780383D01*
X141807214Y399076038D01*
X141491653Y399232048D01*
X140179605Y397920000D01*
X139820395Y397920000D01*
X138508347Y399232048D01*
X138192786Y399076038D01*
X138001980Y398701255D01*
X137887956Y398296449D01*
X137855098Y397877176D01*
X135660000Y397877176D01*
X135660000Y399411653D01*
X138687952Y399411653D01*
X140000000Y398099605D01*
X141312048Y399411653D01*
X141156038Y399727214D01*
X140781255Y399918020D01*
X140376449Y400032044D01*
X139957176Y400064902D01*
X139539549Y400015334D01*
X139139617Y399885243D01*
X138843962Y399727214D01*
X138687952Y399411653D01*
X135660000Y399411653D01*
X135660000Y404500000D01*
X137861928Y404500000D01*
X137861928Y401500000D01*
X137874188Y401375518D01*
X137910498Y401255820D01*
X137969463Y401145506D01*
X138048815Y401048815D01*
X138145506Y400969463D01*
X138255820Y400910498D01*
X138375518Y400874188D01*
X138500000Y400861928D01*
X141500000Y400861928D01*
X141624482Y400874188D01*
X141744180Y400910498D01*
X141854494Y400969463D01*
X141951185Y401048815D01*
X142030537Y401145506D01*
X142089502Y401255820D01*
X142125812Y401375518D01*
X142138072Y401500000D01*
X142138072Y402101939D01*
X163965000Y402101939D01*
X163965000Y401898061D01*
X164004774Y401698102D01*
X164082795Y401509744D01*
X164196063Y401340226D01*
X164240001Y401296288D01*
X164240000Y399703711D01*
X164196063Y399659774D01*
X164082795Y399490256D01*
X164004774Y399301898D01*
X163965000Y399101939D01*
X163965000Y398898061D01*
X164004774Y398698102D01*
X164082795Y398509744D01*
X164196063Y398340226D01*
X164340226Y398196063D01*
X164509744Y398082795D01*
X164698102Y398004774D01*
X164898061Y397965000D01*
X165101939Y397965000D01*
X165301898Y398004774D01*
X165490256Y398082795D01*
X165659774Y398196063D01*
X165803937Y398340226D01*
X165917205Y398509744D01*
X165995226Y398698102D01*
X166035000Y398898061D01*
X166035000Y399101939D01*
X165995226Y399301898D01*
X165917205Y399490256D01*
X165803937Y399659774D01*
X165760000Y399703711D01*
X165760000Y401296289D01*
X165803937Y401340226D01*
X165917205Y401509744D01*
X165995226Y401698102D01*
X166035000Y401898061D01*
X166035000Y402101939D01*
X165995226Y402301898D01*
X165917205Y402490256D01*
X165803937Y402659774D01*
X165659774Y402803937D01*
X165490256Y402917205D01*
X165301898Y402995226D01*
X165101939Y403035000D01*
X164898061Y403035000D01*
X164698102Y402995226D01*
X164509744Y402917205D01*
X164340226Y402803937D01*
X164196063Y402659774D01*
X164082795Y402490256D01*
X164004774Y402301898D01*
X163965000Y402101939D01*
X142138072Y402101939D01*
X142138072Y404500000D01*
X142125812Y404624482D01*
X142089502Y404744180D01*
X142030537Y404854494D01*
X141951185Y404951185D01*
X141854494Y405030537D01*
X141744180Y405089502D01*
X141624482Y405125812D01*
X141500000Y405138072D01*
X138500000Y405138072D01*
X138375518Y405125812D01*
X138255820Y405089502D01*
X138145506Y405030537D01*
X138048815Y404951185D01*
X137969463Y404854494D01*
X137910498Y404744180D01*
X137874188Y404624482D01*
X137861928Y404500000D01*
X135660000Y404500000D01*
X135660000Y407428347D01*
X138687952Y407428347D01*
X138843962Y407112786D01*
X139218745Y406921980D01*
X139623551Y406807956D01*
X140042824Y406775098D01*
X140460451Y406824666D01*
X140860383Y406954757D01*
X141135744Y407101939D01*
X143965000Y407101939D01*
X143965000Y406898061D01*
X144004774Y406698102D01*
X144082795Y406509744D01*
X144196063Y406340226D01*
X144340226Y406196063D01*
X144509744Y406082795D01*
X144698102Y406004774D01*
X144898061Y405965000D01*
X145101939Y405965000D01*
X145301898Y406004774D01*
X145490256Y406082795D01*
X145659774Y406196063D01*
X145703711Y406240000D01*
X146296289Y406240000D01*
X146340226Y406196063D01*
X146509744Y406082795D01*
X146698102Y406004774D01*
X146898061Y405965000D01*
X147101939Y405965000D01*
X147301898Y406004774D01*
X147490256Y406082795D01*
X147659774Y406196063D01*
X147803937Y406340226D01*
X147917205Y406509744D01*
X147934682Y406551939D01*
X163965000Y406551939D01*
X163965000Y406348061D01*
X164004774Y406148102D01*
X164082795Y405959744D01*
X164196063Y405790226D01*
X164240000Y405746289D01*
X164240001Y405703712D01*
X164196063Y405659774D01*
X164082795Y405490256D01*
X164004774Y405301898D01*
X163965000Y405101939D01*
X163965000Y404898061D01*
X164004774Y404698102D01*
X164082795Y404509744D01*
X164196063Y404340226D01*
X164340226Y404196063D01*
X164509744Y404082795D01*
X164698102Y404004774D01*
X164898061Y403965000D01*
X165101939Y403965000D01*
X165301898Y404004774D01*
X165490256Y404082795D01*
X165659774Y404196063D01*
X165803937Y404340226D01*
X165917205Y404509744D01*
X165995226Y404698102D01*
X166035000Y404898061D01*
X166035000Y405101939D01*
X171965000Y405101939D01*
X171965000Y404898061D01*
X172004774Y404698102D01*
X172082795Y404509744D01*
X172196063Y404340226D01*
X172240000Y404296289D01*
X172240001Y401703712D01*
X172196063Y401659774D01*
X172082795Y401490256D01*
X172004774Y401301898D01*
X171965000Y401101939D01*
X171965000Y400898061D01*
X172004774Y400698102D01*
X172082795Y400509744D01*
X172196063Y400340226D01*
X172340226Y400196063D01*
X172509744Y400082795D01*
X172698102Y400004774D01*
X172898061Y399965000D01*
X173101939Y399965000D01*
X173301898Y400004774D01*
X173490256Y400082795D01*
X173659774Y400196063D01*
X173803937Y400340226D01*
X173917205Y400509744D01*
X173995226Y400698102D01*
X174035000Y400898061D01*
X174035000Y401101939D01*
X173995226Y401301898D01*
X173917205Y401490256D01*
X173803937Y401659774D01*
X173760000Y401703711D01*
X173760000Y404296289D01*
X173803937Y404340226D01*
X173910694Y404500000D01*
X180861928Y404500000D01*
X180861928Y401500000D01*
X180874188Y401375518D01*
X180910498Y401255820D01*
X180969463Y401145506D01*
X181048815Y401048815D01*
X181145506Y400969463D01*
X181255820Y400910498D01*
X181375518Y400874188D01*
X181500000Y400861928D01*
X184500000Y400861928D01*
X184624482Y400874188D01*
X184744180Y400910498D01*
X184854494Y400969463D01*
X184951185Y401048815D01*
X185030537Y401145506D01*
X185089502Y401255820D01*
X185125812Y401375518D01*
X185138072Y401500000D01*
X185138072Y404500000D01*
X185125812Y404624482D01*
X185089502Y404744180D01*
X185030537Y404854494D01*
X184951185Y404951185D01*
X184854494Y405030537D01*
X184744180Y405089502D01*
X184624482Y405125812D01*
X184500000Y405138072D01*
X181500000Y405138072D01*
X181375518Y405125812D01*
X181255820Y405089502D01*
X181145506Y405030537D01*
X181048815Y404951185D01*
X180969463Y404854494D01*
X180910498Y404744180D01*
X180874188Y404624482D01*
X180861928Y404500000D01*
X173910694Y404500000D01*
X173917205Y404509744D01*
X173995226Y404698102D01*
X174035000Y404898061D01*
X174035000Y405101939D01*
X173995226Y405301898D01*
X173917205Y405490256D01*
X173803937Y405659774D01*
X173659774Y405803937D01*
X173490256Y405917205D01*
X173301898Y405995226D01*
X173101939Y406035000D01*
X172898061Y406035000D01*
X172698102Y405995226D01*
X172509744Y405917205D01*
X172340226Y405803937D01*
X172196063Y405659774D01*
X172082795Y405490256D01*
X172004774Y405301898D01*
X171965000Y405101939D01*
X166035000Y405101939D01*
X165995226Y405301898D01*
X165917205Y405490256D01*
X165803937Y405659774D01*
X165760000Y405703711D01*
X165760000Y405746289D01*
X165803937Y405790226D01*
X165917205Y405959744D01*
X165995226Y406148102D01*
X166035000Y406348061D01*
X166035000Y406551939D01*
X165995226Y406751898D01*
X165917205Y406940256D01*
X165803937Y407109774D01*
X165659774Y407253937D01*
X165490256Y407367205D01*
X165301898Y407445226D01*
X165101939Y407485000D01*
X164898061Y407485000D01*
X164698102Y407445226D01*
X164509744Y407367205D01*
X164340226Y407253937D01*
X164196063Y407109774D01*
X164082795Y406940256D01*
X164004774Y406751898D01*
X163965000Y406551939D01*
X147934682Y406551939D01*
X147995226Y406698102D01*
X148035000Y406898061D01*
X148035000Y407101939D01*
X147995226Y407301898D01*
X147917205Y407490256D01*
X147803937Y407659774D01*
X147659774Y407803937D01*
X147490256Y407917205D01*
X147301898Y407995226D01*
X147101939Y408035000D01*
X146898061Y408035000D01*
X146698102Y407995226D01*
X146509744Y407917205D01*
X146340226Y407803937D01*
X146296289Y407760000D01*
X145703711Y407760000D01*
X145659774Y407803937D01*
X145490256Y407917205D01*
X145301898Y407995226D01*
X145101939Y408035000D01*
X144898061Y408035000D01*
X144698102Y407995226D01*
X144509744Y407917205D01*
X144340226Y407803937D01*
X144196063Y407659774D01*
X144082795Y407490256D01*
X144004774Y407301898D01*
X143965000Y407101939D01*
X141135744Y407101939D01*
X141156038Y407112786D01*
X141312048Y407428347D01*
X140000000Y408740395D01*
X138687952Y407428347D01*
X135660000Y407428347D01*
X135660000Y408877176D01*
X137855098Y408877176D01*
X137904666Y408459549D01*
X138034757Y408059617D01*
X138192786Y407763962D01*
X138508347Y407607952D01*
X139820395Y408920000D01*
X140179605Y408920000D01*
X141491653Y407607952D01*
X141807214Y407763962D01*
X141998020Y408138745D01*
X142112044Y408543551D01*
X142144902Y408962824D01*
X142095334Y409380451D01*
X141965243Y409780383D01*
X141807214Y410076038D01*
X141491653Y410232048D01*
X140179605Y408920000D01*
X139820395Y408920000D01*
X138508347Y410232048D01*
X138192786Y410076038D01*
X138001980Y409701255D01*
X137887956Y409296449D01*
X137855098Y408877176D01*
X135660000Y408877176D01*
X135660000Y410411653D01*
X138687952Y410411653D01*
X140000000Y409099605D01*
X141312048Y410411653D01*
X141156038Y410727214D01*
X140781255Y410918020D01*
X140376449Y411032044D01*
X139957176Y411064902D01*
X139539549Y411015334D01*
X139139617Y410885243D01*
X138843962Y410727214D01*
X138687952Y410411653D01*
X135660000Y410411653D01*
X135660000Y411101939D01*
X169965000Y411101939D01*
X169965000Y410898061D01*
X170004774Y410698102D01*
X170082795Y410509744D01*
X170196063Y410340226D01*
X170340226Y410196063D01*
X170509744Y410082795D01*
X170698102Y410004774D01*
X170898061Y409965000D01*
X170960199Y409965000D01*
X171965000Y408960198D01*
X171965000Y408898061D01*
X172004774Y408698102D01*
X172082795Y408509744D01*
X172196063Y408340226D01*
X172340226Y408196063D01*
X172509744Y408082795D01*
X172698102Y408004774D01*
X172898061Y407965000D01*
X173101939Y407965000D01*
X173301898Y408004774D01*
X173490256Y408082795D01*
X173659774Y408196063D01*
X173753990Y408290279D01*
X180865000Y408290279D01*
X180865000Y407869721D01*
X180947047Y407457244D01*
X181107988Y407068698D01*
X181341637Y406719017D01*
X181639017Y406421637D01*
X181988698Y406187988D01*
X182377244Y406027047D01*
X182789721Y405945000D01*
X183210279Y405945000D01*
X183622756Y406027047D01*
X184011302Y406187988D01*
X184360983Y406421637D01*
X184658363Y406719017D01*
X184892012Y407068698D01*
X185052953Y407457244D01*
X185135000Y407869721D01*
X185135000Y408290279D01*
X185052953Y408702756D01*
X184892012Y409091302D01*
X184658363Y409440983D01*
X184360983Y409738363D01*
X184011302Y409972012D01*
X183622756Y410132953D01*
X183210279Y410215000D01*
X182789721Y410215000D01*
X182377244Y410132953D01*
X181988698Y409972012D01*
X181639017Y409738363D01*
X181341637Y409440983D01*
X181107988Y409091302D01*
X180947047Y408702756D01*
X180865000Y408290279D01*
X173753990Y408290279D01*
X173803937Y408340226D01*
X173917205Y408509744D01*
X173995226Y408698102D01*
X174035000Y408898061D01*
X174035000Y409101939D01*
X173995226Y409301898D01*
X173917205Y409490256D01*
X173803937Y409659774D01*
X173659774Y409803937D01*
X173490256Y409917205D01*
X173301898Y409995226D01*
X173101939Y410035000D01*
X173039802Y410035000D01*
X172035000Y411039801D01*
X172035000Y411101939D01*
X171995226Y411301898D01*
X171917205Y411490256D01*
X171803937Y411659774D01*
X171795364Y411668347D01*
X181687952Y411668347D01*
X181843962Y411352786D01*
X182218745Y411161980D01*
X182623551Y411047956D01*
X183042824Y411015098D01*
X183460451Y411064666D01*
X183860383Y411194757D01*
X184156038Y411352786D01*
X184312048Y411668347D01*
X183000000Y412980395D01*
X181687952Y411668347D01*
X171795364Y411668347D01*
X171659774Y411803937D01*
X171490256Y411917205D01*
X171301898Y411995226D01*
X171101939Y412035000D01*
X170898061Y412035000D01*
X170698102Y411995226D01*
X170509744Y411917205D01*
X170340226Y411803937D01*
X170196063Y411659774D01*
X170082795Y411490256D01*
X170004774Y411301898D01*
X169965000Y411101939D01*
X135660000Y411101939D01*
X135660000Y415500000D01*
X137861928Y415500000D01*
X137861928Y412500000D01*
X137874188Y412375518D01*
X137910498Y412255820D01*
X137969463Y412145506D01*
X138048815Y412048815D01*
X138145506Y411969463D01*
X138255820Y411910498D01*
X138375518Y411874188D01*
X138500000Y411861928D01*
X141500000Y411861928D01*
X141624482Y411874188D01*
X141744180Y411910498D01*
X141854494Y411969463D01*
X141951185Y412048815D01*
X142030537Y412145506D01*
X142089502Y412255820D01*
X142125812Y412375518D01*
X142138072Y412500000D01*
X142138072Y413117176D01*
X180855098Y413117176D01*
X180904666Y412699549D01*
X181034757Y412299617D01*
X181192786Y412003962D01*
X181508347Y411847952D01*
X182820395Y413160000D01*
X183179605Y413160000D01*
X184491653Y411847952D01*
X184807214Y412003962D01*
X184998020Y412378745D01*
X185112044Y412783551D01*
X185144902Y413202824D01*
X185095334Y413620451D01*
X184965243Y414020383D01*
X184807214Y414316038D01*
X184491653Y414472048D01*
X183179605Y413160000D01*
X182820395Y413160000D01*
X181508347Y414472048D01*
X181192786Y414316038D01*
X181001980Y413941255D01*
X180887956Y413536449D01*
X180855098Y413117176D01*
X142138072Y413117176D01*
X142138072Y414651653D01*
X181687952Y414651653D01*
X183000000Y413339605D01*
X184312048Y414651653D01*
X184156038Y414967214D01*
X183781255Y415158020D01*
X183376449Y415272044D01*
X182957176Y415304902D01*
X182539549Y415255334D01*
X182139617Y415125243D01*
X181843962Y414967214D01*
X181687952Y414651653D01*
X142138072Y414651653D01*
X142138072Y415500000D01*
X142125812Y415624482D01*
X142089502Y415744180D01*
X142030537Y415854494D01*
X141951185Y415951185D01*
X141854494Y416030537D01*
X141744180Y416089502D01*
X141624482Y416125812D01*
X141500000Y416138072D01*
X138500000Y416138072D01*
X138375518Y416125812D01*
X138255820Y416089502D01*
X138145506Y416030537D01*
X138048815Y415951185D01*
X137969463Y415854494D01*
X137910498Y415744180D01*
X137874188Y415624482D01*
X137861928Y415500000D01*
X135660000Y415500000D01*
X135660000Y421970608D01*
X135693256Y422343242D01*
X136515000Y422343242D01*
X136515000Y421656758D01*
X136648927Y420983463D01*
X136911633Y420349234D01*
X137293024Y419778442D01*
X137778442Y419293024D01*
X138349234Y418911633D01*
X138983463Y418648927D01*
X139656758Y418515000D01*
X140343242Y418515000D01*
X141016537Y418648927D01*
X141650766Y418911633D01*
X142221558Y419293024D01*
X142706976Y419778442D01*
X143088367Y420349234D01*
X143351073Y420983463D01*
X143485000Y421656758D01*
X143485000Y422343242D01*
X179515000Y422343242D01*
X179515000Y421656758D01*
X179648927Y420983463D01*
X179911633Y420349234D01*
X180293024Y419778442D01*
X180778442Y419293024D01*
X181349234Y418911633D01*
X181983463Y418648927D01*
X182656758Y418515000D01*
X183343242Y418515000D01*
X184016537Y418648927D01*
X184650766Y418911633D01*
X185221558Y419293024D01*
X185706976Y419778442D01*
X186088367Y420349234D01*
X186351073Y420983463D01*
X186485000Y421656758D01*
X186485000Y422343242D01*
X186351073Y423016537D01*
X186088367Y423650766D01*
X185706976Y424221558D01*
X185221558Y424706976D01*
X184650766Y425088367D01*
X184016537Y425351073D01*
X183343242Y425485000D01*
X182656758Y425485000D01*
X181983463Y425351073D01*
X181349234Y425088367D01*
X180778442Y424706976D01*
X180293024Y424221558D01*
X179911633Y423650766D01*
X179648927Y423016537D01*
X179515000Y422343242D01*
X143485000Y422343242D01*
X143351073Y423016537D01*
X143088367Y423650766D01*
X142706976Y424221558D01*
X142221558Y424706976D01*
X141650766Y425088367D01*
X141016537Y425351073D01*
X140343242Y425485000D01*
X139656758Y425485000D01*
X138983463Y425351073D01*
X138349234Y425088367D01*
X137778442Y424706976D01*
X137293024Y424221558D01*
X136911633Y423650766D01*
X136648927Y423016537D01*
X136515000Y422343242D01*
X135693256Y422343242D01*
X135731173Y422768083D01*
X135934656Y423511891D01*
X136266638Y424207905D01*
X136716626Y424834130D01*
X137270403Y425370777D01*
X137910451Y425800871D01*
X138616553Y426110829D01*
X139371457Y426292065D01*
X140024207Y426340000D01*
X182970608Y426340000D01*
X183768083Y426268827D01*
G37*
G04 #@! TD.AperFunction*
M02*
