%FSLAX45Y45*%
G04 Gerber Fmt 4.5, Leading zero omitted, Abs format (unit mm)*
G04 Created by KiCad (PCBNEW (5.1.9)-1) date 2021-08-16 02:36:11*
%MOMM*%
%LPD*%
G01*
G04 APERTURE LIST*
%TA.AperFunction,Profile*%
%ADD10C,0.050000*%
%TD*%
%ADD11C,0.200000*%
%ADD12C,0.300000*%
G04 APERTURE END LIST*
D10*
X18300000Y38500000D02*
X14000000Y38500000D01*
X14000000Y42700000D02*
X18300000Y42700000D01*
X13500000Y42200000D02*
G75*
G02*
X14000000Y42700000I500000J0D01*
G01*
X14000000Y38500000D02*
G75*
G02*
X13500000Y39000000I0J500000D01*
G01*
X13500000Y39000000D02*
X13500000Y42200000D01*
X18800000Y39000000D02*
G75*
G02*
X18300000Y38500000I-500000J0D01*
G01*
X18300000Y42700000D02*
G75*
G02*
X18800000Y42200000I0J-500000D01*
G01*
X18800000Y42200000D02*
X18800000Y39000000D01*
D11*
D12*
X13783928Y38031786D02*
X13783928Y38331786D01*
X13855357Y38331786D01*
X13898214Y38317500D01*
X13926786Y38288928D01*
X13941071Y38260357D01*
X13955357Y38203214D01*
X13955357Y38160357D01*
X13941071Y38103214D01*
X13926786Y38074643D01*
X13898214Y38046071D01*
X13855357Y38031786D01*
X13783928Y38031786D01*
X14083928Y38031786D02*
X14083928Y38231786D01*
X14083928Y38174643D02*
X14098214Y38203214D01*
X14112500Y38217500D01*
X14141071Y38231786D01*
X14169643Y38231786D01*
X14269643Y38031786D02*
X14269643Y38231786D01*
X14269643Y38331786D02*
X14255357Y38317500D01*
X14269643Y38303214D01*
X14283928Y38317500D01*
X14269643Y38331786D01*
X14269643Y38303214D01*
X14455357Y38031786D02*
X14426786Y38046071D01*
X14412500Y38074643D01*
X14412500Y38331786D01*
X14612500Y38031786D02*
X14583928Y38046071D01*
X14569643Y38074643D01*
X14569643Y38331786D01*
X14955357Y38031786D02*
X14955357Y38331786D01*
X15055357Y38117500D01*
X15155357Y38331786D01*
X15155357Y38031786D01*
X15426786Y38031786D02*
X15426786Y38188928D01*
X15412500Y38217500D01*
X15383928Y38231786D01*
X15326786Y38231786D01*
X15298214Y38217500D01*
X15426786Y38046071D02*
X15398214Y38031786D01*
X15326786Y38031786D01*
X15298214Y38046071D01*
X15283928Y38074643D01*
X15283928Y38103214D01*
X15298214Y38131786D01*
X15326786Y38146071D01*
X15398214Y38146071D01*
X15426786Y38160357D01*
X15569643Y38231786D02*
X15569643Y37931786D01*
X15569643Y38217500D02*
X15598214Y38231786D01*
X15655357Y38231786D01*
X15683928Y38217500D01*
X15698214Y38203214D01*
X15712500Y38174643D01*
X15712500Y38088928D01*
X15698214Y38060357D01*
X15683928Y38046071D01*
X15655357Y38031786D01*
X15598214Y38031786D01*
X15569643Y38046071D01*
X15841071Y38060357D02*
X15855357Y38046071D01*
X15841071Y38031786D01*
X15826786Y38046071D01*
X15841071Y38060357D01*
X15841071Y38031786D01*
X15841071Y38217500D02*
X15855357Y38203214D01*
X15841071Y38188928D01*
X15826786Y38203214D01*
X15841071Y38217500D01*
X15841071Y38188928D01*
M02*
