G04 #@! TF.GenerationSoftware,KiCad,Pcbnew,(5.1.9)-1*
G04 #@! TF.CreationDate,2021-08-16T02:32:56+12:00*
G04 #@! TF.ProjectId,Input,496e7075-742e-46b6-9963-61645f706362,rev?*
G04 #@! TF.SameCoordinates,Original*
G04 #@! TF.FileFunction,Copper,L1,Top*
G04 #@! TF.FilePolarity,Positive*
%FSLAX46Y46*%
G04 Gerber Fmt 4.6, Leading zero omitted, Abs format (unit mm)*
G04 Created by KiCad (PCBNEW (5.1.9)-1) date 2021-08-16 02:32:56*
%MOMM*%
%LPD*%
G01*
G04 APERTURE LIST*
G04 #@! TA.AperFunction,SMDPad,CuDef*
%ADD10R,0.533400X1.460500*%
G04 #@! TD*
G04 #@! TA.AperFunction,SMDPad,CuDef*
%ADD11R,1.473200X0.355600*%
G04 #@! TD*
G04 #@! TA.AperFunction,SMDPad,CuDef*
%ADD12C,2.000000*%
G04 #@! TD*
G04 #@! TA.AperFunction,ComponentPad*
%ADD13C,3.000000*%
G04 #@! TD*
G04 #@! TA.AperFunction,ComponentPad*
%ADD14R,3.000000X3.000000*%
G04 #@! TD*
G04 #@! TA.AperFunction,ComponentPad*
%ADD15C,5.700000*%
G04 #@! TD*
G04 #@! TA.AperFunction,ViaPad*
%ADD16C,0.800000*%
G04 #@! TD*
G04 #@! TA.AperFunction,ViaPad*
%ADD17C,0.500000*%
G04 #@! TD*
G04 #@! TA.AperFunction,Conductor*
%ADD18C,0.250000*%
G04 #@! TD*
G04 #@! TA.AperFunction,Conductor*
%ADD19C,0.254000*%
G04 #@! TD*
G04 #@! TA.AperFunction,Conductor*
%ADD20C,0.100000*%
G04 #@! TD*
G04 APERTURE END LIST*
G04 #@! TA.AperFunction,SMDPad,CuDef*
G36*
G01*
X149425000Y406762500D02*
X149425000Y407237500D01*
G75*
G02*
X149662500Y407475000I237500J0D01*
G01*
X150162500Y407475000D01*
G75*
G02*
X150400000Y407237500I0J-237500D01*
G01*
X150400000Y406762500D01*
G75*
G02*
X150162500Y406525000I-237500J0D01*
G01*
X149662500Y406525000D01*
G75*
G02*
X149425000Y406762500I0J237500D01*
G01*
G37*
G04 #@! TD.AperFunction*
G04 #@! TA.AperFunction,SMDPad,CuDef*
G36*
G01*
X147600000Y406762500D02*
X147600000Y407237500D01*
G75*
G02*
X147837500Y407475000I237500J0D01*
G01*
X148337500Y407475000D01*
G75*
G02*
X148575000Y407237500I0J-237500D01*
G01*
X148575000Y406762500D01*
G75*
G02*
X148337500Y406525000I-237500J0D01*
G01*
X147837500Y406525000D01*
G75*
G02*
X147600000Y406762500I0J237500D01*
G01*
G37*
G04 #@! TD.AperFunction*
G04 #@! TA.AperFunction,SMDPad,CuDef*
G36*
G01*
X148575000Y405237500D02*
X148575000Y404762500D01*
G75*
G02*
X148337500Y404525000I-237500J0D01*
G01*
X147837500Y404525000D01*
G75*
G02*
X147600000Y404762500I0J237500D01*
G01*
X147600000Y405237500D01*
G75*
G02*
X147837500Y405475000I237500J0D01*
G01*
X148337500Y405475000D01*
G75*
G02*
X148575000Y405237500I0J-237500D01*
G01*
G37*
G04 #@! TD.AperFunction*
G04 #@! TA.AperFunction,SMDPad,CuDef*
G36*
G01*
X150400000Y405237500D02*
X150400000Y404762500D01*
G75*
G02*
X150162500Y404525000I-237500J0D01*
G01*
X149662500Y404525000D01*
G75*
G02*
X149425000Y404762500I0J237500D01*
G01*
X149425000Y405237500D01*
G75*
G02*
X149662500Y405475000I237500J0D01*
G01*
X150162500Y405475000D01*
G75*
G02*
X150400000Y405237500I0J-237500D01*
G01*
G37*
G04 #@! TD.AperFunction*
G04 #@! TA.AperFunction,SMDPad,CuDef*
G36*
G01*
X149762500Y399675000D02*
X150237500Y399675000D01*
G75*
G02*
X150475000Y399437500I0J-237500D01*
G01*
X150475000Y398837500D01*
G75*
G02*
X150237500Y398600000I-237500J0D01*
G01*
X149762500Y398600000D01*
G75*
G02*
X149525000Y398837500I0J237500D01*
G01*
X149525000Y399437500D01*
G75*
G02*
X149762500Y399675000I237500J0D01*
G01*
G37*
G04 #@! TD.AperFunction*
G04 #@! TA.AperFunction,SMDPad,CuDef*
G36*
G01*
X149762500Y401400000D02*
X150237500Y401400000D01*
G75*
G02*
X150475000Y401162500I0J-237500D01*
G01*
X150475000Y400562500D01*
G75*
G02*
X150237500Y400325000I-237500J0D01*
G01*
X149762500Y400325000D01*
G75*
G02*
X149525000Y400562500I0J237500D01*
G01*
X149525000Y401162500D01*
G75*
G02*
X149762500Y401400000I237500J0D01*
G01*
G37*
G04 #@! TD.AperFunction*
G04 #@! TA.AperFunction,SMDPad,CuDef*
G36*
G01*
X158237500Y416425000D02*
X157762500Y416425000D01*
G75*
G02*
X157525000Y416662500I0J237500D01*
G01*
X157525000Y417162500D01*
G75*
G02*
X157762500Y417400000I237500J0D01*
G01*
X158237500Y417400000D01*
G75*
G02*
X158475000Y417162500I0J-237500D01*
G01*
X158475000Y416662500D01*
G75*
G02*
X158237500Y416425000I-237500J0D01*
G01*
G37*
G04 #@! TD.AperFunction*
G04 #@! TA.AperFunction,SMDPad,CuDef*
G36*
G01*
X158237500Y414600000D02*
X157762500Y414600000D01*
G75*
G02*
X157525000Y414837500I0J237500D01*
G01*
X157525000Y415337500D01*
G75*
G02*
X157762500Y415575000I237500J0D01*
G01*
X158237500Y415575000D01*
G75*
G02*
X158475000Y415337500I0J-237500D01*
G01*
X158475000Y414837500D01*
G75*
G02*
X158237500Y414600000I-237500J0D01*
G01*
G37*
G04 #@! TD.AperFunction*
G04 #@! TA.AperFunction,SMDPad,CuDef*
G36*
G01*
X153675000Y408237500D02*
X153675000Y407762500D01*
G75*
G02*
X153437500Y407525000I-237500J0D01*
G01*
X152837500Y407525000D01*
G75*
G02*
X152600000Y407762500I0J237500D01*
G01*
X152600000Y408237500D01*
G75*
G02*
X152837500Y408475000I237500J0D01*
G01*
X153437500Y408475000D01*
G75*
G02*
X153675000Y408237500I0J-237500D01*
G01*
G37*
G04 #@! TD.AperFunction*
G04 #@! TA.AperFunction,SMDPad,CuDef*
G36*
G01*
X155400000Y408237500D02*
X155400000Y407762500D01*
G75*
G02*
X155162500Y407525000I-237500J0D01*
G01*
X154562500Y407525000D01*
G75*
G02*
X154325000Y407762500I0J237500D01*
G01*
X154325000Y408237500D01*
G75*
G02*
X154562500Y408475000I237500J0D01*
G01*
X155162500Y408475000D01*
G75*
G02*
X155400000Y408237500I0J-237500D01*
G01*
G37*
G04 #@! TD.AperFunction*
G04 #@! TA.AperFunction,SMDPad,CuDef*
G36*
G01*
X168297500Y400465000D02*
X167822500Y400465000D01*
G75*
G02*
X167585000Y400702500I0J237500D01*
G01*
X167585000Y401302500D01*
G75*
G02*
X167822500Y401540000I237500J0D01*
G01*
X168297500Y401540000D01*
G75*
G02*
X168535000Y401302500I0J-237500D01*
G01*
X168535000Y400702500D01*
G75*
G02*
X168297500Y400465000I-237500J0D01*
G01*
G37*
G04 #@! TD.AperFunction*
G04 #@! TA.AperFunction,SMDPad,CuDef*
G36*
G01*
X168297500Y398740000D02*
X167822500Y398740000D01*
G75*
G02*
X167585000Y398977500I0J237500D01*
G01*
X167585000Y399577500D01*
G75*
G02*
X167822500Y399815000I237500J0D01*
G01*
X168297500Y399815000D01*
G75*
G02*
X168535000Y399577500I0J-237500D01*
G01*
X168535000Y398977500D01*
G75*
G02*
X168297500Y398740000I-237500J0D01*
G01*
G37*
G04 #@! TD.AperFunction*
G04 #@! TA.AperFunction,SMDPad,CuDef*
G36*
G01*
X159325000Y411762500D02*
X159325000Y412237500D01*
G75*
G02*
X159562500Y412475000I237500J0D01*
G01*
X160162500Y412475000D01*
G75*
G02*
X160400000Y412237500I0J-237500D01*
G01*
X160400000Y411762500D01*
G75*
G02*
X160162500Y411525000I-237500J0D01*
G01*
X159562500Y411525000D01*
G75*
G02*
X159325000Y411762500I0J237500D01*
G01*
G37*
G04 #@! TD.AperFunction*
G04 #@! TA.AperFunction,SMDPad,CuDef*
G36*
G01*
X157600000Y411762500D02*
X157600000Y412237500D01*
G75*
G02*
X157837500Y412475000I237500J0D01*
G01*
X158437500Y412475000D01*
G75*
G02*
X158675000Y412237500I0J-237500D01*
G01*
X158675000Y411762500D01*
G75*
G02*
X158437500Y411525000I-237500J0D01*
G01*
X157837500Y411525000D01*
G75*
G02*
X157600000Y411762500I0J237500D01*
G01*
G37*
G04 #@! TD.AperFunction*
G04 #@! TA.AperFunction,SMDPad,CuDef*
G36*
G01*
X171500000Y397340000D02*
X171500000Y397040000D01*
G75*
G02*
X171350000Y396890000I-150000J0D01*
G01*
X169700000Y396890000D01*
G75*
G02*
X169550000Y397040000I0J150000D01*
G01*
X169550000Y397340000D01*
G75*
G02*
X169700000Y397490000I150000J0D01*
G01*
X171350000Y397490000D01*
G75*
G02*
X171500000Y397340000I0J-150000D01*
G01*
G37*
G04 #@! TD.AperFunction*
G04 #@! TA.AperFunction,SMDPad,CuDef*
G36*
G01*
X171500000Y398610000D02*
X171500000Y398310000D01*
G75*
G02*
X171350000Y398160000I-150000J0D01*
G01*
X169700000Y398160000D01*
G75*
G02*
X169550000Y398310000I0J150000D01*
G01*
X169550000Y398610000D01*
G75*
G02*
X169700000Y398760000I150000J0D01*
G01*
X171350000Y398760000D01*
G75*
G02*
X171500000Y398610000I0J-150000D01*
G01*
G37*
G04 #@! TD.AperFunction*
G04 #@! TA.AperFunction,SMDPad,CuDef*
G36*
G01*
X171500000Y399880000D02*
X171500000Y399580000D01*
G75*
G02*
X171350000Y399430000I-150000J0D01*
G01*
X169700000Y399430000D01*
G75*
G02*
X169550000Y399580000I0J150000D01*
G01*
X169550000Y399880000D01*
G75*
G02*
X169700000Y400030000I150000J0D01*
G01*
X171350000Y400030000D01*
G75*
G02*
X171500000Y399880000I0J-150000D01*
G01*
G37*
G04 #@! TD.AperFunction*
G04 #@! TA.AperFunction,SMDPad,CuDef*
G36*
G01*
X171500000Y401150000D02*
X171500000Y400850000D01*
G75*
G02*
X171350000Y400700000I-150000J0D01*
G01*
X169700000Y400700000D01*
G75*
G02*
X169550000Y400850000I0J150000D01*
G01*
X169550000Y401150000D01*
G75*
G02*
X169700000Y401300000I150000J0D01*
G01*
X171350000Y401300000D01*
G75*
G02*
X171500000Y401150000I0J-150000D01*
G01*
G37*
G04 #@! TD.AperFunction*
G04 #@! TA.AperFunction,SMDPad,CuDef*
G36*
G01*
X171500000Y402420000D02*
X171500000Y402120000D01*
G75*
G02*
X171350000Y401970000I-150000J0D01*
G01*
X169700000Y401970000D01*
G75*
G02*
X169550000Y402120000I0J150000D01*
G01*
X169550000Y402420000D01*
G75*
G02*
X169700000Y402570000I150000J0D01*
G01*
X171350000Y402570000D01*
G75*
G02*
X171500000Y402420000I0J-150000D01*
G01*
G37*
G04 #@! TD.AperFunction*
G04 #@! TA.AperFunction,SMDPad,CuDef*
G36*
G01*
X171500000Y403690000D02*
X171500000Y403390000D01*
G75*
G02*
X171350000Y403240000I-150000J0D01*
G01*
X169700000Y403240000D01*
G75*
G02*
X169550000Y403390000I0J150000D01*
G01*
X169550000Y403690000D01*
G75*
G02*
X169700000Y403840000I150000J0D01*
G01*
X171350000Y403840000D01*
G75*
G02*
X171500000Y403690000I0J-150000D01*
G01*
G37*
G04 #@! TD.AperFunction*
G04 #@! TA.AperFunction,SMDPad,CuDef*
G36*
G01*
X171500000Y404960000D02*
X171500000Y404660000D01*
G75*
G02*
X171350000Y404510000I-150000J0D01*
G01*
X169700000Y404510000D01*
G75*
G02*
X169550000Y404660000I0J150000D01*
G01*
X169550000Y404960000D01*
G75*
G02*
X169700000Y405110000I150000J0D01*
G01*
X171350000Y405110000D01*
G75*
G02*
X171500000Y404960000I0J-150000D01*
G01*
G37*
G04 #@! TD.AperFunction*
G04 #@! TA.AperFunction,SMDPad,CuDef*
G36*
G01*
X176450000Y404960000D02*
X176450000Y404660000D01*
G75*
G02*
X176300000Y404510000I-150000J0D01*
G01*
X174650000Y404510000D01*
G75*
G02*
X174500000Y404660000I0J150000D01*
G01*
X174500000Y404960000D01*
G75*
G02*
X174650000Y405110000I150000J0D01*
G01*
X176300000Y405110000D01*
G75*
G02*
X176450000Y404960000I0J-150000D01*
G01*
G37*
G04 #@! TD.AperFunction*
G04 #@! TA.AperFunction,SMDPad,CuDef*
G36*
G01*
X176450000Y403690000D02*
X176450000Y403390000D01*
G75*
G02*
X176300000Y403240000I-150000J0D01*
G01*
X174650000Y403240000D01*
G75*
G02*
X174500000Y403390000I0J150000D01*
G01*
X174500000Y403690000D01*
G75*
G02*
X174650000Y403840000I150000J0D01*
G01*
X176300000Y403840000D01*
G75*
G02*
X176450000Y403690000I0J-150000D01*
G01*
G37*
G04 #@! TD.AperFunction*
G04 #@! TA.AperFunction,SMDPad,CuDef*
G36*
G01*
X176450000Y402420000D02*
X176450000Y402120000D01*
G75*
G02*
X176300000Y401970000I-150000J0D01*
G01*
X174650000Y401970000D01*
G75*
G02*
X174500000Y402120000I0J150000D01*
G01*
X174500000Y402420000D01*
G75*
G02*
X174650000Y402570000I150000J0D01*
G01*
X176300000Y402570000D01*
G75*
G02*
X176450000Y402420000I0J-150000D01*
G01*
G37*
G04 #@! TD.AperFunction*
G04 #@! TA.AperFunction,SMDPad,CuDef*
G36*
G01*
X176450000Y401150000D02*
X176450000Y400850000D01*
G75*
G02*
X176300000Y400700000I-150000J0D01*
G01*
X174650000Y400700000D01*
G75*
G02*
X174500000Y400850000I0J150000D01*
G01*
X174500000Y401150000D01*
G75*
G02*
X174650000Y401300000I150000J0D01*
G01*
X176300000Y401300000D01*
G75*
G02*
X176450000Y401150000I0J-150000D01*
G01*
G37*
G04 #@! TD.AperFunction*
G04 #@! TA.AperFunction,SMDPad,CuDef*
G36*
G01*
X176450000Y399880000D02*
X176450000Y399580000D01*
G75*
G02*
X176300000Y399430000I-150000J0D01*
G01*
X174650000Y399430000D01*
G75*
G02*
X174500000Y399580000I0J150000D01*
G01*
X174500000Y399880000D01*
G75*
G02*
X174650000Y400030000I150000J0D01*
G01*
X176300000Y400030000D01*
G75*
G02*
X176450000Y399880000I0J-150000D01*
G01*
G37*
G04 #@! TD.AperFunction*
G04 #@! TA.AperFunction,SMDPad,CuDef*
G36*
G01*
X176450000Y398610000D02*
X176450000Y398310000D01*
G75*
G02*
X176300000Y398160000I-150000J0D01*
G01*
X174650000Y398160000D01*
G75*
G02*
X174500000Y398310000I0J150000D01*
G01*
X174500000Y398610000D01*
G75*
G02*
X174650000Y398760000I150000J0D01*
G01*
X176300000Y398760000D01*
G75*
G02*
X176450000Y398610000I0J-150000D01*
G01*
G37*
G04 #@! TD.AperFunction*
G04 #@! TA.AperFunction,SMDPad,CuDef*
G36*
G01*
X176450000Y397340000D02*
X176450000Y397040000D01*
G75*
G02*
X176300000Y396890000I-150000J0D01*
G01*
X174650000Y396890000D01*
G75*
G02*
X174500000Y397040000I0J150000D01*
G01*
X174500000Y397340000D01*
G75*
G02*
X174650000Y397490000I150000J0D01*
G01*
X176300000Y397490000D01*
G75*
G02*
X176450000Y397340000I0J-150000D01*
G01*
G37*
G04 #@! TD.AperFunction*
D10*
X155905000Y411275850D03*
X154635000Y411275850D03*
X153365000Y411275850D03*
X152095000Y411275850D03*
X152095000Y416724150D03*
X153365000Y416724150D03*
X154635000Y416724150D03*
X155905000Y416724150D03*
D11*
X157819400Y404949999D03*
X157819400Y404300000D03*
X157819400Y403649999D03*
X157819400Y403000000D03*
X157819400Y402349999D03*
X157819400Y401700000D03*
X157819400Y401049999D03*
X152180600Y401050001D03*
X152180600Y401700000D03*
X152180600Y402350001D03*
X152180600Y403000000D03*
X152180600Y403649999D03*
X152180600Y404300000D03*
X152180600Y404950001D03*
D12*
X159000000Y408000000D03*
X176000000Y411000000D03*
X181000000Y397000000D03*
X158000000Y398000000D03*
X172000000Y414000000D03*
G04 #@! TA.AperFunction,SMDPad,CuDef*
G36*
G01*
X174425000Y406762500D02*
X174425000Y407237500D01*
G75*
G02*
X174662500Y407475000I237500J0D01*
G01*
X175162500Y407475000D01*
G75*
G02*
X175400000Y407237500I0J-237500D01*
G01*
X175400000Y406762500D01*
G75*
G02*
X175162500Y406525000I-237500J0D01*
G01*
X174662500Y406525000D01*
G75*
G02*
X174425000Y406762500I0J237500D01*
G01*
G37*
G04 #@! TD.AperFunction*
G04 #@! TA.AperFunction,SMDPad,CuDef*
G36*
G01*
X172600000Y406762500D02*
X172600000Y407237500D01*
G75*
G02*
X172837500Y407475000I237500J0D01*
G01*
X173337500Y407475000D01*
G75*
G02*
X173575000Y407237500I0J-237500D01*
G01*
X173575000Y406762500D01*
G75*
G02*
X173337500Y406525000I-237500J0D01*
G01*
X172837500Y406525000D01*
G75*
G02*
X172600000Y406762500I0J237500D01*
G01*
G37*
G04 #@! TD.AperFunction*
G04 #@! TA.AperFunction,SMDPad,CuDef*
G36*
G01*
X167307500Y395242500D02*
X167307500Y395717500D01*
G75*
G02*
X167545000Y395955000I237500J0D01*
G01*
X168045000Y395955000D01*
G75*
G02*
X168282500Y395717500I0J-237500D01*
G01*
X168282500Y395242500D01*
G75*
G02*
X168045000Y395005000I-237500J0D01*
G01*
X167545000Y395005000D01*
G75*
G02*
X167307500Y395242500I0J237500D01*
G01*
G37*
G04 #@! TD.AperFunction*
G04 #@! TA.AperFunction,SMDPad,CuDef*
G36*
G01*
X165482500Y395242500D02*
X165482500Y395717500D01*
G75*
G02*
X165720000Y395955000I237500J0D01*
G01*
X166220000Y395955000D01*
G75*
G02*
X166457500Y395717500I0J-237500D01*
G01*
X166457500Y395242500D01*
G75*
G02*
X166220000Y395005000I-237500J0D01*
G01*
X165720000Y395005000D01*
G75*
G02*
X165482500Y395242500I0J237500D01*
G01*
G37*
G04 #@! TD.AperFunction*
G04 #@! TA.AperFunction,SMDPad,CuDef*
G36*
G01*
X164762500Y415662500D02*
X165237500Y415662500D01*
G75*
G02*
X165475000Y415425000I0J-237500D01*
G01*
X165475000Y414925000D01*
G75*
G02*
X165237500Y414687500I-237500J0D01*
G01*
X164762500Y414687500D01*
G75*
G02*
X164525000Y414925000I0J237500D01*
G01*
X164525000Y415425000D01*
G75*
G02*
X164762500Y415662500I237500J0D01*
G01*
G37*
G04 #@! TD.AperFunction*
G04 #@! TA.AperFunction,SMDPad,CuDef*
G36*
G01*
X164762500Y417487500D02*
X165237500Y417487500D01*
G75*
G02*
X165475000Y417250000I0J-237500D01*
G01*
X165475000Y416750000D01*
G75*
G02*
X165237500Y416512500I-237500J0D01*
G01*
X164762500Y416512500D01*
G75*
G02*
X164525000Y416750000I0J237500D01*
G01*
X164525000Y417250000D01*
G75*
G02*
X164762500Y417487500I237500J0D01*
G01*
G37*
G04 #@! TD.AperFunction*
G04 #@! TA.AperFunction,SMDPad,CuDef*
G36*
G01*
X161762500Y415662500D02*
X162237500Y415662500D01*
G75*
G02*
X162475000Y415425000I0J-237500D01*
G01*
X162475000Y414925000D01*
G75*
G02*
X162237500Y414687500I-237500J0D01*
G01*
X161762500Y414687500D01*
G75*
G02*
X161525000Y414925000I0J237500D01*
G01*
X161525000Y415425000D01*
G75*
G02*
X161762500Y415662500I237500J0D01*
G01*
G37*
G04 #@! TD.AperFunction*
G04 #@! TA.AperFunction,SMDPad,CuDef*
G36*
G01*
X161762500Y417487500D02*
X162237500Y417487500D01*
G75*
G02*
X162475000Y417250000I0J-237500D01*
G01*
X162475000Y416750000D01*
G75*
G02*
X162237500Y416512500I-237500J0D01*
G01*
X161762500Y416512500D01*
G75*
G02*
X161525000Y416750000I0J237500D01*
G01*
X161525000Y417250000D01*
G75*
G02*
X161762500Y417487500I237500J0D01*
G01*
G37*
G04 #@! TD.AperFunction*
G04 #@! TA.AperFunction,SMDPad,CuDef*
G36*
G01*
X156167500Y419087500D02*
X156167500Y418612500D01*
G75*
G02*
X155930000Y418375000I-237500J0D01*
G01*
X155430000Y418375000D01*
G75*
G02*
X155192500Y418612500I0J237500D01*
G01*
X155192500Y419087500D01*
G75*
G02*
X155430000Y419325000I237500J0D01*
G01*
X155930000Y419325000D01*
G75*
G02*
X156167500Y419087500I0J-237500D01*
G01*
G37*
G04 #@! TD.AperFunction*
G04 #@! TA.AperFunction,SMDPad,CuDef*
G36*
G01*
X154342500Y419087500D02*
X154342500Y418612500D01*
G75*
G02*
X154105000Y418375000I-237500J0D01*
G01*
X153605000Y418375000D01*
G75*
G02*
X153367500Y418612500I0J237500D01*
G01*
X153367500Y419087500D01*
G75*
G02*
X153605000Y419325000I237500J0D01*
G01*
X154105000Y419325000D01*
G75*
G02*
X154342500Y419087500I0J-237500D01*
G01*
G37*
G04 #@! TD.AperFunction*
G04 #@! TA.AperFunction,SMDPad,CuDef*
G36*
G01*
X163512500Y411762500D02*
X163512500Y412237500D01*
G75*
G02*
X163750000Y412475000I237500J0D01*
G01*
X164250000Y412475000D01*
G75*
G02*
X164487500Y412237500I0J-237500D01*
G01*
X164487500Y411762500D01*
G75*
G02*
X164250000Y411525000I-237500J0D01*
G01*
X163750000Y411525000D01*
G75*
G02*
X163512500Y411762500I0J237500D01*
G01*
G37*
G04 #@! TD.AperFunction*
G04 #@! TA.AperFunction,SMDPad,CuDef*
G36*
G01*
X161687500Y411762500D02*
X161687500Y412237500D01*
G75*
G02*
X161925000Y412475000I237500J0D01*
G01*
X162425000Y412475000D01*
G75*
G02*
X162662500Y412237500I0J-237500D01*
G01*
X162662500Y411762500D01*
G75*
G02*
X162425000Y411525000I-237500J0D01*
G01*
X161925000Y411525000D01*
G75*
G02*
X161687500Y411762500I0J237500D01*
G01*
G37*
G04 #@! TD.AperFunction*
G04 #@! TA.AperFunction,SMDPad,CuDef*
G36*
G01*
X166762500Y410487500D02*
X167237500Y410487500D01*
G75*
G02*
X167475000Y410250000I0J-237500D01*
G01*
X167475000Y409750000D01*
G75*
G02*
X167237500Y409512500I-237500J0D01*
G01*
X166762500Y409512500D01*
G75*
G02*
X166525000Y409750000I0J237500D01*
G01*
X166525000Y410250000D01*
G75*
G02*
X166762500Y410487500I237500J0D01*
G01*
G37*
G04 #@! TD.AperFunction*
G04 #@! TA.AperFunction,SMDPad,CuDef*
G36*
G01*
X166762500Y412312500D02*
X167237500Y412312500D01*
G75*
G02*
X167475000Y412075000I0J-237500D01*
G01*
X167475000Y411575000D01*
G75*
G02*
X167237500Y411337500I-237500J0D01*
G01*
X166762500Y411337500D01*
G75*
G02*
X166525000Y411575000I0J237500D01*
G01*
X166525000Y412075000D01*
G75*
G02*
X166762500Y412312500I237500J0D01*
G01*
G37*
G04 #@! TD.AperFunction*
G04 #@! TA.AperFunction,SMDPad,CuDef*
G36*
G01*
X163425000Y406762500D02*
X163425000Y407237500D01*
G75*
G02*
X163662500Y407475000I237500J0D01*
G01*
X164162500Y407475000D01*
G75*
G02*
X164400000Y407237500I0J-237500D01*
G01*
X164400000Y406762500D01*
G75*
G02*
X164162500Y406525000I-237500J0D01*
G01*
X163662500Y406525000D01*
G75*
G02*
X163425000Y406762500I0J237500D01*
G01*
G37*
G04 #@! TD.AperFunction*
G04 #@! TA.AperFunction,SMDPad,CuDef*
G36*
G01*
X161600000Y406762500D02*
X161600000Y407237500D01*
G75*
G02*
X161837500Y407475000I237500J0D01*
G01*
X162337500Y407475000D01*
G75*
G02*
X162575000Y407237500I0J-237500D01*
G01*
X162575000Y406762500D01*
G75*
G02*
X162337500Y406525000I-237500J0D01*
G01*
X161837500Y406525000D01*
G75*
G02*
X161600000Y406762500I0J237500D01*
G01*
G37*
G04 #@! TD.AperFunction*
G04 #@! TA.AperFunction,SMDPad,CuDef*
G36*
G01*
X163608200Y403691100D02*
X163608200Y403216100D01*
G75*
G02*
X163370700Y402978600I-237500J0D01*
G01*
X162870700Y402978600D01*
G75*
G02*
X162633200Y403216100I0J237500D01*
G01*
X162633200Y403691100D01*
G75*
G02*
X162870700Y403928600I237500J0D01*
G01*
X163370700Y403928600D01*
G75*
G02*
X163608200Y403691100I0J-237500D01*
G01*
G37*
G04 #@! TD.AperFunction*
G04 #@! TA.AperFunction,SMDPad,CuDef*
G36*
G01*
X165433200Y403691100D02*
X165433200Y403216100D01*
G75*
G02*
X165195700Y402978600I-237500J0D01*
G01*
X164695700Y402978600D01*
G75*
G02*
X164458200Y403216100I0J237500D01*
G01*
X164458200Y403691100D01*
G75*
G02*
X164695700Y403928600I237500J0D01*
G01*
X165195700Y403928600D01*
G75*
G02*
X165433200Y403691100I0J-237500D01*
G01*
G37*
G04 #@! TD.AperFunction*
G04 #@! TA.AperFunction,SMDPad,CuDef*
G36*
G01*
X148487500Y410237500D02*
X148487500Y409762500D01*
G75*
G02*
X148250000Y409525000I-237500J0D01*
G01*
X147750000Y409525000D01*
G75*
G02*
X147512500Y409762500I0J237500D01*
G01*
X147512500Y410237500D01*
G75*
G02*
X147750000Y410475000I237500J0D01*
G01*
X148250000Y410475000D01*
G75*
G02*
X148487500Y410237500I0J-237500D01*
G01*
G37*
G04 #@! TD.AperFunction*
G04 #@! TA.AperFunction,SMDPad,CuDef*
G36*
G01*
X150312500Y410237500D02*
X150312500Y409762500D01*
G75*
G02*
X150075000Y409525000I-237500J0D01*
G01*
X149575000Y409525000D01*
G75*
G02*
X149337500Y409762500I0J237500D01*
G01*
X149337500Y410237500D01*
G75*
G02*
X149575000Y410475000I237500J0D01*
G01*
X150075000Y410475000D01*
G75*
G02*
X150312500Y410237500I0J-237500D01*
G01*
G37*
G04 #@! TD.AperFunction*
D13*
X183000000Y413160000D03*
X183000000Y408080000D03*
D14*
X183000000Y403000000D03*
D13*
X140000000Y397920000D03*
D14*
X140000000Y403000000D03*
D13*
X140000000Y408920000D03*
D14*
X140000000Y414000000D03*
D15*
X183000000Y390000000D03*
X140000000Y390000000D03*
X183000000Y422000000D03*
X140000000Y422000000D03*
G04 #@! TA.AperFunction,SMDPad,CuDef*
G36*
G01*
X166762500Y404537500D02*
X167237500Y404537500D01*
G75*
G02*
X167475000Y404300000I0J-237500D01*
G01*
X167475000Y403700000D01*
G75*
G02*
X167237500Y403462500I-237500J0D01*
G01*
X166762500Y403462500D01*
G75*
G02*
X166525000Y403700000I0J237500D01*
G01*
X166525000Y404300000D01*
G75*
G02*
X166762500Y404537500I237500J0D01*
G01*
G37*
G04 #@! TD.AperFunction*
G04 #@! TA.AperFunction,SMDPad,CuDef*
G36*
G01*
X166762500Y406262500D02*
X167237500Y406262500D01*
G75*
G02*
X167475000Y406025000I0J-237500D01*
G01*
X167475000Y405425000D01*
G75*
G02*
X167237500Y405187500I-237500J0D01*
G01*
X166762500Y405187500D01*
G75*
G02*
X166525000Y405425000I0J237500D01*
G01*
X166525000Y406025000D01*
G75*
G02*
X166762500Y406262500I237500J0D01*
G01*
G37*
G04 #@! TD.AperFunction*
G04 #@! TA.AperFunction,SMDPad,CuDef*
G36*
G01*
X163325000Y408762500D02*
X163325000Y409237500D01*
G75*
G02*
X163562500Y409475000I237500J0D01*
G01*
X164162500Y409475000D01*
G75*
G02*
X164400000Y409237500I0J-237500D01*
G01*
X164400000Y408762500D01*
G75*
G02*
X164162500Y408525000I-237500J0D01*
G01*
X163562500Y408525000D01*
G75*
G02*
X163325000Y408762500I0J237500D01*
G01*
G37*
G04 #@! TD.AperFunction*
G04 #@! TA.AperFunction,SMDPad,CuDef*
G36*
G01*
X161600000Y408762500D02*
X161600000Y409237500D01*
G75*
G02*
X161837500Y409475000I237500J0D01*
G01*
X162437500Y409475000D01*
G75*
G02*
X162675000Y409237500I0J-237500D01*
G01*
X162675000Y408762500D01*
G75*
G02*
X162437500Y408525000I-237500J0D01*
G01*
X161837500Y408525000D01*
G75*
G02*
X161600000Y408762500I0J237500D01*
G01*
G37*
G04 #@! TD.AperFunction*
G04 #@! TA.AperFunction,SMDPad,CuDef*
G36*
G01*
X159985700Y401096600D02*
X160460700Y401096600D01*
G75*
G02*
X160698200Y400859100I0J-237500D01*
G01*
X160698200Y400259100D01*
G75*
G02*
X160460700Y400021600I-237500J0D01*
G01*
X159985700Y400021600D01*
G75*
G02*
X159748200Y400259100I0J237500D01*
G01*
X159748200Y400859100D01*
G75*
G02*
X159985700Y401096600I237500J0D01*
G01*
G37*
G04 #@! TD.AperFunction*
G04 #@! TA.AperFunction,SMDPad,CuDef*
G36*
G01*
X159985700Y402821600D02*
X160460700Y402821600D01*
G75*
G02*
X160698200Y402584100I0J-237500D01*
G01*
X160698200Y401984100D01*
G75*
G02*
X160460700Y401746600I-237500J0D01*
G01*
X159985700Y401746600D01*
G75*
G02*
X159748200Y401984100I0J237500D01*
G01*
X159748200Y402584100D01*
G75*
G02*
X159985700Y402821600I237500J0D01*
G01*
G37*
G04 #@! TD.AperFunction*
G04 #@! TA.AperFunction,SMDPad,CuDef*
G36*
G01*
X162537500Y398237500D02*
X162537500Y397762500D01*
G75*
G02*
X162300000Y397525000I-237500J0D01*
G01*
X161700000Y397525000D01*
G75*
G02*
X161462500Y397762500I0J237500D01*
G01*
X161462500Y398237500D01*
G75*
G02*
X161700000Y398475000I237500J0D01*
G01*
X162300000Y398475000D01*
G75*
G02*
X162537500Y398237500I0J-237500D01*
G01*
G37*
G04 #@! TD.AperFunction*
G04 #@! TA.AperFunction,SMDPad,CuDef*
G36*
G01*
X164262500Y398237500D02*
X164262500Y397762500D01*
G75*
G02*
X164025000Y397525000I-237500J0D01*
G01*
X163425000Y397525000D01*
G75*
G02*
X163187500Y397762500I0J237500D01*
G01*
X163187500Y398237500D01*
G75*
G02*
X163425000Y398475000I237500J0D01*
G01*
X164025000Y398475000D01*
G75*
G02*
X164262500Y398237500I0J-237500D01*
G01*
G37*
G04 #@! TD.AperFunction*
G04 #@! TA.AperFunction,SMDPad,CuDef*
G36*
G01*
X148475000Y414412500D02*
X147525000Y414412500D01*
G75*
G02*
X147275000Y414662500I0J250000D01*
G01*
X147275000Y415337500D01*
G75*
G02*
X147525000Y415587500I250000J0D01*
G01*
X148475000Y415587500D01*
G75*
G02*
X148725000Y415337500I0J-250000D01*
G01*
X148725000Y414662500D01*
G75*
G02*
X148475000Y414412500I-250000J0D01*
G01*
G37*
G04 #@! TD.AperFunction*
G04 #@! TA.AperFunction,SMDPad,CuDef*
G36*
G01*
X148475000Y412337500D02*
X147525000Y412337500D01*
G75*
G02*
X147275000Y412587500I0J250000D01*
G01*
X147275000Y413262500D01*
G75*
G02*
X147525000Y413512500I250000J0D01*
G01*
X148475000Y413512500D01*
G75*
G02*
X148725000Y413262500I0J-250000D01*
G01*
X148725000Y412587500D01*
G75*
G02*
X148475000Y412337500I-250000J0D01*
G01*
G37*
G04 #@! TD.AperFunction*
D16*
X165000000Y406450000D03*
X165000000Y405000000D03*
X165000000Y399000000D03*
X165000000Y402000000D03*
D17*
X159910000Y410580000D03*
X158890000Y410590000D03*
X168420000Y403930000D03*
X168420000Y405030000D03*
X168490000Y403040000D03*
X161690000Y400530000D03*
X161700000Y401420000D03*
X161720000Y399620000D03*
X166390000Y401250000D03*
X160370000Y397050000D03*
X154460000Y398370000D03*
X152560000Y399760000D03*
X156040000Y403050000D03*
X154850000Y401850000D03*
X146870000Y406050000D03*
X148110000Y406000000D03*
X166430000Y397340000D03*
X170040000Y406210000D03*
X171100000Y406210000D03*
D16*
X145000000Y407000000D03*
X147000000Y407000000D03*
X171000000Y411000000D03*
X173000000Y409000000D03*
X173000000Y405000000D03*
X173000000Y401000000D03*
D18*
X141000000Y415000000D02*
X140000000Y414000000D01*
X148000000Y415000000D02*
X141000000Y415000000D01*
X148000000Y410000000D02*
X148000000Y412925000D01*
X148000000Y410000000D02*
X147000000Y410000000D01*
X147000000Y410000000D02*
X146000000Y409000000D01*
X149454489Y402350001D02*
X152180600Y402350001D01*
X146000000Y405804490D02*
X149454489Y402350001D01*
X146000000Y409000000D02*
X146000000Y405804490D01*
X157819400Y401700000D02*
X157819400Y401049999D01*
X157819400Y398180600D02*
X158000000Y398000000D01*
X157819400Y401049999D02*
X157819400Y398180600D01*
X158000000Y398000000D02*
X162000000Y398000000D01*
X170525000Y402270000D02*
X171500000Y402270000D01*
X170525000Y402270000D02*
X173730000Y402270000D01*
X175000000Y401000000D02*
X175475000Y401000000D01*
X173730000Y402270000D02*
X175000000Y401000000D01*
X162064400Y398000000D02*
X162000000Y398000000D01*
X166334400Y402270000D02*
X162064400Y398000000D01*
X170525000Y402270000D02*
X166334400Y402270000D01*
X164450000Y407000000D02*
X165000000Y406450000D01*
X163912500Y407000000D02*
X164450000Y407000000D01*
X164000000Y398000000D02*
X165000000Y399000000D01*
X163725000Y398000000D02*
X164000000Y398000000D01*
X165000000Y403507900D02*
X164945700Y403453600D01*
X165000000Y405000000D02*
X165000000Y403507900D01*
X165000000Y403399300D02*
X164945700Y403453600D01*
X165000000Y402000000D02*
X165000000Y403399300D01*
X160157301Y402349999D02*
X160223200Y402284100D01*
X157819400Y402349999D02*
X160157301Y402349999D01*
X161951200Y402284100D02*
X163120700Y403453600D01*
X160223200Y402284100D02*
X161951200Y402284100D01*
X164000000Y412000000D02*
X164000000Y411825000D01*
X164175000Y411825000D02*
X164000000Y412000000D01*
X164000000Y409137500D02*
X163862500Y409000000D01*
X164000000Y412000000D02*
X164000000Y409137500D01*
X166825000Y412000000D02*
X167000000Y411825000D01*
X164000000Y412000000D02*
X166825000Y412000000D01*
X157819400Y404300000D02*
X157819400Y404949999D01*
X160037499Y404949999D02*
X162087500Y407000000D01*
X157819400Y404949999D02*
X160037499Y404949999D01*
X162137500Y407050000D02*
X162087500Y407000000D01*
X162137500Y409000000D02*
X162137500Y407050000D01*
X167000000Y410000000D02*
X167137500Y410000000D01*
X167000000Y410000000D02*
X167000000Y409512500D01*
X160366989Y403649999D02*
X162441990Y405725000D01*
X157819400Y403649999D02*
X160366989Y403649999D01*
X167000000Y410000000D02*
X167000000Y405725000D01*
X167000000Y405725000D02*
X162441990Y405725000D01*
X153365000Y408227500D02*
X153137500Y408000000D01*
X153365000Y410275850D02*
X153365000Y408227500D01*
X153365000Y410927500D02*
X153365000Y410275850D01*
X158000000Y415087500D02*
X157525000Y415087500D01*
X156196400Y415087500D02*
X158000000Y415087500D01*
X153365000Y412256100D02*
X156196400Y415087500D01*
X153365000Y411275850D02*
X153365000Y412256100D01*
X154635000Y408227500D02*
X154862500Y408000000D01*
X154635000Y410275850D02*
X154635000Y408227500D01*
X162000000Y415175000D02*
X165000000Y415175000D01*
X170825000Y415175000D02*
X172000000Y414000000D01*
X165000000Y415175000D02*
X170825000Y415175000D01*
X173230000Y403540000D02*
X170525000Y403540000D01*
X174500000Y402270000D02*
X173230000Y403540000D01*
X175475000Y402270000D02*
X174500000Y402270000D01*
X161099990Y414274990D02*
X162000000Y415175000D01*
X154635000Y410275850D02*
X154635000Y411256100D01*
X170148232Y403540000D02*
X170525000Y403540000D01*
X169224990Y404463242D02*
X170148232Y403540000D01*
X169224990Y408029480D02*
X169224990Y404463242D01*
X172000000Y410804490D02*
X169224990Y408029480D01*
X172000000Y414000000D02*
X172000000Y410804490D01*
X156653890Y414274990D02*
X157904990Y414274990D01*
X154635000Y412256100D02*
X156653890Y414274990D01*
X154635000Y411275850D02*
X154635000Y412256100D01*
X157904990Y414274990D02*
X161099990Y414274990D01*
X157653890Y414274990D02*
X157904990Y414274990D01*
X157629150Y412000000D02*
X155905000Y410275850D01*
X158137500Y412000000D02*
X157629150Y412000000D01*
X153167200Y403000000D02*
X152180600Y403000000D01*
X155905000Y405737800D02*
X153167200Y403000000D01*
X155905000Y410275850D02*
X155905000Y405737800D01*
X141000000Y403000000D02*
X145000000Y407000000D01*
X140000000Y403000000D02*
X141000000Y403000000D01*
X147000000Y407000000D02*
X148087500Y407000000D01*
X148900010Y406187490D02*
X148087500Y407000000D01*
X148900010Y404729480D02*
X148900010Y406187490D01*
X150629490Y403000000D02*
X148900010Y404729480D01*
X152180600Y403000000D02*
X150629490Y403000000D01*
X150000000Y400470510D02*
X150000000Y400862500D01*
X169199990Y412800010D02*
X171000000Y411000000D01*
X158937510Y412800010D02*
X169199990Y412800010D01*
X158137500Y412000000D02*
X158937510Y412800010D01*
X173000000Y407087500D02*
X173087500Y407000000D01*
X173000000Y409000000D02*
X173000000Y407087500D01*
X173087500Y405087500D02*
X173000000Y405000000D01*
X173087500Y407000000D02*
X173087500Y405087500D01*
X173000000Y401000000D02*
X171000000Y401000000D01*
X155362500Y395500000D02*
X150000000Y400862500D01*
X169782500Y401000000D02*
X170525000Y401000000D01*
X168060000Y399277500D02*
X169782500Y401000000D01*
X168060000Y399277500D02*
X168060000Y398972500D01*
X165950000Y395500000D02*
X165970000Y395480000D01*
X164350000Y395500000D02*
X165950000Y395500000D01*
X164600000Y395500000D02*
X164350000Y395500000D01*
X164350000Y395500000D02*
X155362500Y395500000D01*
X167344990Y396854990D02*
X165970000Y395480000D01*
X167344990Y398562490D02*
X167344990Y396854990D01*
X168060000Y399277500D02*
X167344990Y398562490D01*
X155905000Y410275850D02*
X155905000Y411275850D01*
X175475000Y406437500D02*
X174912500Y407000000D01*
X175475000Y404810000D02*
X175475000Y406437500D01*
X174912500Y409912500D02*
X176000000Y411000000D01*
X174912500Y407000000D02*
X174912500Y409912500D01*
X180080000Y411000000D02*
X183000000Y408080000D01*
X176000000Y411000000D02*
X180080000Y411000000D01*
X180000001Y396000001D02*
X181000000Y397000000D01*
X175018231Y396000001D02*
X180000001Y396000001D01*
X171288232Y399730000D02*
X175018231Y396000001D01*
X170525000Y399730000D02*
X171288232Y399730000D01*
X181000000Y401000000D02*
X183000000Y403000000D01*
X181000000Y397000000D02*
X181000000Y401000000D01*
X170148232Y399730000D02*
X170525000Y399730000D01*
X167795000Y397376768D02*
X170148232Y399730000D01*
X167795000Y395480000D02*
X167795000Y397376768D01*
X149912500Y407000000D02*
X149912500Y405000000D01*
X151262501Y403649999D02*
X152180600Y403649999D01*
X149912500Y405000000D02*
X151262501Y403649999D01*
X151819150Y410000000D02*
X152095000Y410275850D01*
X149825000Y410000000D02*
X151819150Y410000000D01*
X152180600Y404300000D02*
X152180600Y404950001D01*
X152180600Y410190250D02*
X152095000Y410275850D01*
X152180600Y404950001D02*
X152180600Y410190250D01*
X152180600Y411190250D02*
X152095000Y411275850D01*
X152180600Y410190250D02*
X152180600Y411190250D01*
X154635000Y416412198D02*
X154635000Y416724150D01*
X152095000Y413872198D02*
X154635000Y416412198D01*
X152095000Y411275850D02*
X152095000Y413872198D01*
X152180600Y401700000D02*
X152180600Y401050001D01*
X153167200Y401700000D02*
X159000000Y407532800D01*
X159000000Y407532800D02*
X159000000Y408000000D01*
X152180600Y401700000D02*
X153167200Y401700000D01*
X162175000Y411175000D02*
X162175000Y412000000D01*
X159000000Y408000000D02*
X162175000Y411175000D01*
X162000000Y417000000D02*
X165000000Y417000000D01*
X162000000Y417000000D02*
X162000000Y417010000D01*
X162000000Y417000000D02*
X161990000Y417000000D01*
X153365000Y418360000D02*
X153855000Y418850000D01*
X153365000Y416724150D02*
X153365000Y418360000D01*
X153855000Y418850000D02*
X153855000Y418855000D01*
X159349990Y419650010D02*
X162000000Y417000000D01*
X154650010Y419650010D02*
X159349990Y419650010D01*
X153855000Y418855000D02*
X154650010Y419650010D01*
X155905000Y415724150D02*
X156188350Y415724150D01*
X156811650Y415724150D02*
X158000000Y416912500D01*
X155905000Y415724150D02*
X156811650Y415724150D01*
X155905000Y418625000D02*
X155680000Y418850000D01*
X155905000Y415724150D02*
X155905000Y418625000D01*
D19*
X183813246Y426519806D02*
X184600773Y426304362D01*
X185337716Y425952859D01*
X186000760Y425476413D01*
X186568956Y424890081D01*
X187024338Y424212400D01*
X187352519Y423464784D01*
X187543870Y422667749D01*
X187594000Y421985108D01*
X187594001Y390018096D01*
X187519806Y389186754D01*
X187304362Y388399226D01*
X186952859Y387662284D01*
X186476413Y386999240D01*
X185890081Y386431044D01*
X185212400Y385975662D01*
X184464784Y385647481D01*
X183667749Y385456130D01*
X182985108Y385406000D01*
X140018085Y385406000D01*
X139186754Y385480194D01*
X138399226Y385695638D01*
X137662284Y386047141D01*
X136999240Y386523587D01*
X136431044Y387109919D01*
X135975662Y387787600D01*
X135647481Y388535216D01*
X135456130Y389332251D01*
X135406000Y390014892D01*
X135406000Y390318226D01*
X136769000Y390318226D01*
X136769000Y389681774D01*
X136893166Y389057552D01*
X137136725Y388469548D01*
X137490319Y387940358D01*
X137940358Y387490319D01*
X138469548Y387136725D01*
X139057552Y386893166D01*
X139681774Y386769000D01*
X140318226Y386769000D01*
X140942448Y386893166D01*
X141530452Y387136725D01*
X142059642Y387490319D01*
X142509681Y387940358D01*
X142863275Y388469548D01*
X143106834Y389057552D01*
X143231000Y389681774D01*
X143231000Y390318226D01*
X179769000Y390318226D01*
X179769000Y389681774D01*
X179893166Y389057552D01*
X180136725Y388469548D01*
X180490319Y387940358D01*
X180940358Y387490319D01*
X181469548Y387136725D01*
X182057552Y386893166D01*
X182681774Y386769000D01*
X183318226Y386769000D01*
X183942448Y386893166D01*
X184530452Y387136725D01*
X185059642Y387490319D01*
X185509681Y387940358D01*
X185863275Y388469548D01*
X186106834Y389057552D01*
X186231000Y389681774D01*
X186231000Y390318226D01*
X186106834Y390942448D01*
X185863275Y391530452D01*
X185509681Y392059642D01*
X185059642Y392509681D01*
X184530452Y392863275D01*
X183942448Y393106834D01*
X183318226Y393231000D01*
X182681774Y393231000D01*
X182057552Y393106834D01*
X181469548Y392863275D01*
X180940358Y392509681D01*
X180490319Y392059642D01*
X180136725Y391530452D01*
X179893166Y390942448D01*
X179769000Y390318226D01*
X143231000Y390318226D01*
X143106834Y390942448D01*
X142863275Y391530452D01*
X142509681Y392059642D01*
X142059642Y392509681D01*
X141530452Y392863275D01*
X140942448Y393106834D01*
X140318226Y393231000D01*
X139681774Y393231000D01*
X139057552Y393106834D01*
X138469548Y392863275D01*
X137940358Y392509681D01*
X137490319Y392059642D01*
X137136725Y391530452D01*
X136893166Y390942448D01*
X136769000Y390318226D01*
X135406000Y390318226D01*
X135406000Y396428347D01*
X138687952Y396428347D01*
X138843962Y396112786D01*
X139218745Y395921980D01*
X139623551Y395807956D01*
X140042824Y395775098D01*
X140460451Y395824666D01*
X140860383Y395954757D01*
X141156038Y396112786D01*
X141312048Y396428347D01*
X140000000Y397740395D01*
X138687952Y396428347D01*
X135406000Y396428347D01*
X135406000Y397877176D01*
X137855098Y397877176D01*
X137904666Y397459549D01*
X138034757Y397059617D01*
X138192786Y396763962D01*
X138508347Y396607952D01*
X139820395Y397920000D01*
X140179605Y397920000D01*
X141491653Y396607952D01*
X141807214Y396763962D01*
X141998020Y397138745D01*
X142112044Y397543551D01*
X142144902Y397962824D01*
X142095334Y398380451D01*
X142023919Y398600000D01*
X148886928Y398600000D01*
X148899188Y398475518D01*
X148935498Y398355820D01*
X148994463Y398245506D01*
X149073815Y398148815D01*
X149170506Y398069463D01*
X149280820Y398010498D01*
X149400518Y397974188D01*
X149525000Y397961928D01*
X149714250Y397965000D01*
X149873000Y398123750D01*
X149873000Y399010500D01*
X149048750Y399010500D01*
X148890000Y398851750D01*
X148886928Y398600000D01*
X142023919Y398600000D01*
X141965243Y398780383D01*
X141807214Y399076038D01*
X141491653Y399232048D01*
X140179605Y397920000D01*
X139820395Y397920000D01*
X138508347Y399232048D01*
X138192786Y399076038D01*
X138001980Y398701255D01*
X137887956Y398296449D01*
X137855098Y397877176D01*
X135406000Y397877176D01*
X135406000Y399411653D01*
X138687952Y399411653D01*
X140000000Y398099605D01*
X141312048Y399411653D01*
X141156038Y399727214D01*
X140781255Y399918020D01*
X140376449Y400032044D01*
X139957176Y400064902D01*
X139539549Y400015334D01*
X139139617Y399885243D01*
X138843962Y399727214D01*
X138687952Y399411653D01*
X135406000Y399411653D01*
X135406000Y404500000D01*
X138117157Y404500000D01*
X138117157Y401500000D01*
X138124513Y401425311D01*
X138146299Y401353492D01*
X138181678Y401287304D01*
X138229289Y401229289D01*
X138287304Y401181678D01*
X138353492Y401146299D01*
X138425311Y401124513D01*
X138500000Y401117157D01*
X141500000Y401117157D01*
X141574689Y401124513D01*
X141646508Y401146299D01*
X141712696Y401181678D01*
X141770711Y401229289D01*
X141818322Y401287304D01*
X141853701Y401353492D01*
X141875487Y401425311D01*
X141882843Y401500000D01*
X141882843Y403167252D01*
X144934592Y406219000D01*
X145076922Y406219000D01*
X145227809Y406249013D01*
X145369942Y406307887D01*
X145494001Y406390780D01*
X145494001Y405829346D01*
X145491553Y405804490D01*
X145501322Y405705298D01*
X145530255Y405609916D01*
X145542905Y405586250D01*
X145577242Y405522011D01*
X145640474Y405444963D01*
X145659781Y405429118D01*
X149079117Y402009781D01*
X149094962Y401990474D01*
X149172010Y401927242D01*
X149233277Y401894494D01*
X149259914Y401880256D01*
X149355295Y401851323D01*
X149365183Y401850349D01*
X149429635Y401844001D01*
X149429642Y401844001D01*
X149454488Y401841554D01*
X149479334Y401844001D01*
X151061157Y401844001D01*
X151061157Y401522200D01*
X151068513Y401447511D01*
X151090299Y401375692D01*
X151090669Y401375001D01*
X151090299Y401374309D01*
X151068513Y401302490D01*
X151061157Y401227801D01*
X151061157Y400872201D01*
X151068513Y400797512D01*
X151090299Y400725693D01*
X151125678Y400659505D01*
X151173289Y400601490D01*
X151231304Y400553879D01*
X151297492Y400518500D01*
X151369311Y400496714D01*
X151444000Y400489358D01*
X152917200Y400489358D01*
X152991889Y400496714D01*
X153063708Y400518500D01*
X153129896Y400553879D01*
X153187911Y400601490D01*
X153235522Y400659505D01*
X153270901Y400725693D01*
X153292687Y400797512D01*
X153300043Y400872201D01*
X153300043Y401211529D01*
X153361775Y401230255D01*
X153449679Y401277241D01*
X153526727Y401340473D01*
X153542576Y401359785D01*
X156704258Y404521466D01*
X156699957Y404477800D01*
X156699957Y404122200D01*
X156707313Y404047511D01*
X156729099Y403975692D01*
X156729469Y403974999D01*
X156729099Y403974307D01*
X156707313Y403902488D01*
X156699957Y403827799D01*
X156699957Y403684666D01*
X156638460Y403635728D01*
X156557661Y403540243D01*
X156497042Y403430829D01*
X156458934Y403311691D01*
X156447800Y403209550D01*
X156606550Y403050800D01*
X157692400Y403050800D01*
X157692400Y403089356D01*
X157946400Y403089356D01*
X157946400Y403050800D01*
X159032250Y403050800D01*
X159125449Y403143999D01*
X159723567Y403143999D01*
X159641056Y403099896D01*
X159547051Y403022749D01*
X159469904Y402928744D01*
X159431021Y402855999D01*
X159125451Y402855999D01*
X159032250Y402949200D01*
X157946400Y402949200D01*
X157946400Y402910642D01*
X157692400Y402910642D01*
X157692400Y402949200D01*
X156606550Y402949200D01*
X156447800Y402790450D01*
X156458934Y402688309D01*
X156497042Y402569171D01*
X156557661Y402459757D01*
X156638460Y402364272D01*
X156699957Y402315334D01*
X156699957Y402172199D01*
X156707313Y402097510D01*
X156729099Y402025691D01*
X156729469Y402024999D01*
X156729099Y402024308D01*
X156707313Y401952489D01*
X156699957Y401877800D01*
X156699957Y401522200D01*
X156707313Y401447511D01*
X156729099Y401375692D01*
X156729469Y401374999D01*
X156729099Y401374307D01*
X156707313Y401302488D01*
X156699957Y401227799D01*
X156699957Y400872199D01*
X156707313Y400797510D01*
X156729099Y400725691D01*
X156764478Y400659503D01*
X156812089Y400601488D01*
X156870104Y400553877D01*
X156936292Y400518498D01*
X157008111Y400496712D01*
X157082800Y400489356D01*
X157313400Y400489356D01*
X157313401Y399202143D01*
X157119664Y399072693D01*
X156927307Y398880336D01*
X156776174Y398654149D01*
X156672071Y398402823D01*
X156619000Y398136017D01*
X156619000Y397863983D01*
X156672071Y397597177D01*
X156776174Y397345851D01*
X156927307Y397119664D01*
X157119664Y396927307D01*
X157345851Y396776174D01*
X157597177Y396672071D01*
X157863983Y396619000D01*
X158136017Y396619000D01*
X158402823Y396672071D01*
X158654149Y396776174D01*
X158880336Y396927307D01*
X159072693Y397119664D01*
X159223826Y397345851D01*
X159285192Y397494000D01*
X161143504Y397494000D01*
X161184204Y397417856D01*
X161261351Y397323851D01*
X161355356Y397246704D01*
X161462605Y397189378D01*
X161578977Y397154077D01*
X161700000Y397142157D01*
X162300000Y397142157D01*
X162421023Y397154077D01*
X162537395Y397189378D01*
X162644644Y397246704D01*
X162738649Y397323851D01*
X162815796Y397417856D01*
X162862500Y397505233D01*
X162909204Y397417856D01*
X162986351Y397323851D01*
X163080356Y397246704D01*
X163187605Y397189378D01*
X163303977Y397154077D01*
X163425000Y397142157D01*
X164025000Y397142157D01*
X164146023Y397154077D01*
X164262395Y397189378D01*
X164369644Y397246704D01*
X164463649Y397323851D01*
X164540796Y397417856D01*
X164598122Y397525105D01*
X164633423Y397641477D01*
X164645343Y397762500D01*
X164645343Y397929752D01*
X164934592Y398219000D01*
X165076922Y398219000D01*
X165227809Y398249013D01*
X165369942Y398307887D01*
X165497859Y398393358D01*
X165606642Y398502141D01*
X165692113Y398630058D01*
X165750987Y398772191D01*
X165781000Y398923078D01*
X165781000Y399076922D01*
X165750987Y399227809D01*
X165692113Y399369942D01*
X165606642Y399497859D01*
X165497859Y399606642D01*
X165369942Y399692113D01*
X165227809Y399750987D01*
X165076922Y399781000D01*
X164923078Y399781000D01*
X164772191Y399750987D01*
X164630058Y399692113D01*
X164502141Y399606642D01*
X164393358Y399497859D01*
X164307887Y399369942D01*
X164249013Y399227809D01*
X164219000Y399076922D01*
X164219000Y398934592D01*
X164131738Y398847330D01*
X164025000Y398857843D01*
X163637834Y398857843D01*
X166543992Y401764000D01*
X166989376Y401764000D01*
X166959188Y401664482D01*
X166946928Y401540000D01*
X166950000Y401288250D01*
X167108750Y401129500D01*
X167933000Y401129500D01*
X167933000Y401149500D01*
X168187000Y401149500D01*
X168187000Y401129500D01*
X168207000Y401129500D01*
X168207000Y400875500D01*
X168187000Y400875500D01*
X168187000Y400855500D01*
X167933000Y400855500D01*
X167933000Y400875500D01*
X167108750Y400875500D01*
X166950000Y400716750D01*
X166946928Y400465000D01*
X166959188Y400340518D01*
X166995498Y400220820D01*
X167054463Y400110506D01*
X167133815Y400013815D01*
X167230506Y399934463D01*
X167294893Y399900047D01*
X167249378Y399814895D01*
X167214077Y399698523D01*
X167202157Y399577500D01*
X167202157Y399135248D01*
X167004775Y398937866D01*
X166985463Y398922017D01*
X166922231Y398844969D01*
X166875245Y398757064D01*
X166846312Y398661682D01*
X166838990Y398587343D01*
X166838990Y398587336D01*
X166836543Y398562490D01*
X166838990Y398537643D01*
X166838991Y397064583D01*
X166112252Y396337843D01*
X165720000Y396337843D01*
X165598977Y396325923D01*
X165482605Y396290622D01*
X165375356Y396233296D01*
X165281351Y396156149D01*
X165204204Y396062144D01*
X165174194Y396006000D01*
X155572092Y396006000D01*
X150857843Y400720248D01*
X150857843Y401162500D01*
X150845923Y401283523D01*
X150810622Y401399895D01*
X150753296Y401507144D01*
X150676149Y401601149D01*
X150582144Y401678296D01*
X150474895Y401735622D01*
X150358523Y401770923D01*
X150237500Y401782843D01*
X149762500Y401782843D01*
X149641477Y401770923D01*
X149525105Y401735622D01*
X149417856Y401678296D01*
X149323851Y401601149D01*
X149246704Y401507144D01*
X149189378Y401399895D01*
X149154077Y401283523D01*
X149142157Y401162500D01*
X149142157Y400562500D01*
X149154077Y400441477D01*
X149189378Y400325105D01*
X149234893Y400239953D01*
X149170506Y400205537D01*
X149073815Y400126185D01*
X148994463Y400029494D01*
X148935498Y399919180D01*
X148899188Y399799482D01*
X148886928Y399675000D01*
X148890000Y399423250D01*
X149048750Y399264500D01*
X149873000Y399264500D01*
X149873000Y399284500D01*
X150127000Y399284500D01*
X150127000Y399264500D01*
X150147000Y399264500D01*
X150147000Y399010500D01*
X150127000Y399010500D01*
X150127000Y398123750D01*
X150285750Y397965000D01*
X150475000Y397961928D01*
X150599482Y397974188D01*
X150719180Y398010498D01*
X150829494Y398069463D01*
X150926185Y398148815D01*
X151005537Y398245506D01*
X151064502Y398355820D01*
X151100812Y398475518D01*
X151113072Y398600000D01*
X151110000Y398851750D01*
X150951252Y399010498D01*
X151110000Y399010498D01*
X151110000Y399036909D01*
X154987128Y395159780D01*
X155002973Y395140473D01*
X155080021Y395077241D01*
X155167925Y395030255D01*
X155263306Y395001322D01*
X155273194Y395000348D01*
X155337646Y394994000D01*
X155337653Y394994000D01*
X155362499Y394991553D01*
X155387345Y394994000D01*
X165152814Y394994000D01*
X165204204Y394897856D01*
X165281351Y394803851D01*
X165375356Y394726704D01*
X165482605Y394669378D01*
X165598977Y394634077D01*
X165720000Y394622157D01*
X166220000Y394622157D01*
X166341023Y394634077D01*
X166457395Y394669378D01*
X166564644Y394726704D01*
X166658649Y394803851D01*
X166735796Y394897856D01*
X166793122Y395005105D01*
X166828423Y395121477D01*
X166840343Y395242500D01*
X166840343Y395634752D01*
X166924828Y395719237D01*
X166924657Y395717500D01*
X166924657Y395242500D01*
X166936577Y395121477D01*
X166971878Y395005105D01*
X167029204Y394897856D01*
X167106351Y394803851D01*
X167200356Y394726704D01*
X167307605Y394669378D01*
X167423977Y394634077D01*
X167545000Y394622157D01*
X168045000Y394622157D01*
X168166023Y394634077D01*
X168282395Y394669378D01*
X168389644Y394726704D01*
X168483649Y394803851D01*
X168560796Y394897856D01*
X168618122Y395005105D01*
X168653423Y395121477D01*
X168665343Y395242500D01*
X168665343Y395717500D01*
X168653423Y395838523D01*
X168618122Y395954895D01*
X168560796Y396062144D01*
X168483649Y396156149D01*
X168389644Y396233296D01*
X168301000Y396280677D01*
X168301000Y397167177D01*
X169218932Y398085108D01*
X169256957Y398013968D01*
X169323223Y397933223D01*
X169403968Y397866957D01*
X169482464Y397825000D01*
X169403968Y397783043D01*
X169323223Y397716777D01*
X169256957Y397636032D01*
X169207717Y397543910D01*
X169177395Y397443953D01*
X169167157Y397340000D01*
X169167157Y397040000D01*
X169177395Y396936047D01*
X169207717Y396836090D01*
X169256957Y396743968D01*
X169323223Y396663223D01*
X169403968Y396596957D01*
X169496090Y396547717D01*
X169596047Y396517395D01*
X169700000Y396507157D01*
X171350000Y396507157D01*
X171453953Y396517395D01*
X171553910Y396547717D01*
X171646032Y396596957D01*
X171726777Y396663223D01*
X171793043Y396743968D01*
X171842283Y396836090D01*
X171872605Y396936047D01*
X171882843Y397040000D01*
X171882843Y397340000D01*
X171872605Y397443953D01*
X171842283Y397543910D01*
X171793043Y397636032D01*
X171726777Y397716777D01*
X171646032Y397783043D01*
X171567536Y397825000D01*
X171646032Y397866957D01*
X171726777Y397933223D01*
X171793043Y398013968D01*
X171842283Y398106090D01*
X171872605Y398206047D01*
X171882843Y398310000D01*
X171882843Y398419798D01*
X174642859Y395659781D01*
X174658704Y395640474D01*
X174735752Y395577242D01*
X174823656Y395530256D01*
X174919037Y395501323D01*
X174928925Y395500349D01*
X174993377Y395494001D01*
X174993384Y395494001D01*
X175018230Y395491554D01*
X175043076Y395494001D01*
X179975155Y395494001D01*
X180000001Y395491554D01*
X180024847Y395494001D01*
X180024855Y395494001D01*
X180099194Y395501323D01*
X180194576Y395530256D01*
X180282480Y395577242D01*
X180359528Y395640474D01*
X180375377Y395659786D01*
X180449028Y395733437D01*
X180597177Y395672071D01*
X180863983Y395619000D01*
X181136017Y395619000D01*
X181402823Y395672071D01*
X181654149Y395776174D01*
X181880336Y395927307D01*
X182072693Y396119664D01*
X182223826Y396345851D01*
X182327929Y396597177D01*
X182381000Y396863983D01*
X182381000Y397136017D01*
X182327929Y397402823D01*
X182223826Y397654149D01*
X182072693Y397880336D01*
X181880336Y398072693D01*
X181654149Y398223826D01*
X181506000Y398285192D01*
X181506000Y400790409D01*
X181832748Y401117157D01*
X184500000Y401117157D01*
X184574689Y401124513D01*
X184646508Y401146299D01*
X184712696Y401181678D01*
X184770711Y401229289D01*
X184818322Y401287304D01*
X184853701Y401353492D01*
X184875487Y401425311D01*
X184882843Y401500000D01*
X184882843Y404500000D01*
X184875487Y404574689D01*
X184853701Y404646508D01*
X184818322Y404712696D01*
X184770711Y404770711D01*
X184712696Y404818322D01*
X184646508Y404853701D01*
X184574689Y404875487D01*
X184500000Y404882843D01*
X181500000Y404882843D01*
X181425311Y404875487D01*
X181353492Y404853701D01*
X181287304Y404818322D01*
X181229289Y404770711D01*
X181181678Y404712696D01*
X181146299Y404646508D01*
X181124513Y404574689D01*
X181117157Y404500000D01*
X181117157Y401832748D01*
X180659781Y401375372D01*
X180640474Y401359527D01*
X180577242Y401282479D01*
X180559354Y401249013D01*
X180530255Y401194574D01*
X180501322Y401099192D01*
X180491553Y401000000D01*
X180494001Y400975144D01*
X180494000Y398285192D01*
X180345851Y398223826D01*
X180119664Y398072693D01*
X179927307Y397880336D01*
X179776174Y397654149D01*
X179672071Y397402823D01*
X179619000Y397136017D01*
X179619000Y396863983D01*
X179672071Y396597177D01*
X179709837Y396506001D01*
X175227823Y396506001D01*
X175226667Y396507157D01*
X176300000Y396507157D01*
X176403953Y396517395D01*
X176503910Y396547717D01*
X176596032Y396596957D01*
X176676777Y396663223D01*
X176743043Y396743968D01*
X176792283Y396836090D01*
X176822605Y396936047D01*
X176832843Y397040000D01*
X176832843Y397340000D01*
X176822605Y397443953D01*
X176792283Y397543910D01*
X176743043Y397636032D01*
X176676777Y397716777D01*
X176596032Y397783043D01*
X176517536Y397825000D01*
X176596032Y397866957D01*
X176676777Y397933223D01*
X176743043Y398013968D01*
X176792283Y398106090D01*
X176822605Y398206047D01*
X176832843Y398310000D01*
X176832843Y398610000D01*
X176822605Y398713953D01*
X176792283Y398813910D01*
X176759429Y398875375D01*
X176804494Y398899463D01*
X176901185Y398978815D01*
X176980537Y399075506D01*
X177039502Y399185820D01*
X177075812Y399305518D01*
X177088072Y399430000D01*
X177085000Y399444250D01*
X176926250Y399603000D01*
X175602000Y399603000D01*
X175602000Y399583000D01*
X175348000Y399583000D01*
X175348000Y399603000D01*
X174023750Y399603000D01*
X173865000Y399444250D01*
X173861928Y399430000D01*
X173874188Y399305518D01*
X173910498Y399185820D01*
X173969463Y399075506D01*
X174048815Y398978815D01*
X174145506Y398899463D01*
X174190571Y398875375D01*
X174157717Y398813910D01*
X174127395Y398713953D01*
X174117157Y398610000D01*
X174117157Y398310000D01*
X174127395Y398206047D01*
X174157717Y398106090D01*
X174206957Y398013968D01*
X174273223Y397933223D01*
X174353968Y397866957D01*
X174432464Y397825000D01*
X174353968Y397783043D01*
X174273223Y397716777D01*
X174206957Y397636032D01*
X174168932Y397564892D01*
X171882843Y399850980D01*
X171882843Y399880000D01*
X171872605Y399983953D01*
X171842283Y400083910D01*
X171793043Y400176032D01*
X171726777Y400256777D01*
X171646032Y400323043D01*
X171567536Y400365000D01*
X171646032Y400406957D01*
X171726777Y400473223D01*
X171743828Y400494000D01*
X172401499Y400494000D01*
X172502141Y400393358D01*
X172630058Y400307887D01*
X172772191Y400249013D01*
X172923078Y400219000D01*
X173076922Y400219000D01*
X173227809Y400249013D01*
X173369942Y400307887D01*
X173497859Y400393358D01*
X173606642Y400502141D01*
X173692113Y400630058D01*
X173750987Y400772191D01*
X173781000Y400923078D01*
X173781000Y401076922D01*
X173750987Y401227809D01*
X173692113Y401369942D01*
X173606642Y401497859D01*
X173497859Y401606642D01*
X173369942Y401692113D01*
X173227809Y401750987D01*
X173162388Y401764000D01*
X173520409Y401764000D01*
X174118704Y401165705D01*
X174117157Y401150000D01*
X174117157Y400850000D01*
X174127395Y400746047D01*
X174157717Y400646090D01*
X174190571Y400584625D01*
X174145506Y400560537D01*
X174048815Y400481185D01*
X173969463Y400384494D01*
X173910498Y400274180D01*
X173874188Y400154482D01*
X173861928Y400030000D01*
X173865000Y400015750D01*
X174023750Y399857000D01*
X175348000Y399857000D01*
X175348000Y399877000D01*
X175602000Y399877000D01*
X175602000Y399857000D01*
X176926250Y399857000D01*
X177085000Y400015750D01*
X177088072Y400030000D01*
X177075812Y400154482D01*
X177039502Y400274180D01*
X176980537Y400384494D01*
X176901185Y400481185D01*
X176804494Y400560537D01*
X176759429Y400584625D01*
X176792283Y400646090D01*
X176822605Y400746047D01*
X176832843Y400850000D01*
X176832843Y401150000D01*
X176822605Y401253953D01*
X176792283Y401353910D01*
X176743043Y401446032D01*
X176676777Y401526777D01*
X176596032Y401593043D01*
X176517536Y401635000D01*
X176596032Y401676957D01*
X176676777Y401743223D01*
X176743043Y401823968D01*
X176792283Y401916090D01*
X176822605Y402016047D01*
X176832843Y402120000D01*
X176832843Y402420000D01*
X176822605Y402523953D01*
X176792283Y402623910D01*
X176759429Y402685375D01*
X176804494Y402709463D01*
X176901185Y402788815D01*
X176980537Y402885506D01*
X177039502Y402995820D01*
X177075812Y403115518D01*
X177088072Y403240000D01*
X177085000Y403254250D01*
X176926250Y403413000D01*
X175602000Y403413000D01*
X175602000Y403393000D01*
X175348000Y403393000D01*
X175348000Y403413000D01*
X175328000Y403413000D01*
X175328000Y403667000D01*
X175348000Y403667000D01*
X175348000Y403687000D01*
X175602000Y403687000D01*
X175602000Y403667000D01*
X176926250Y403667000D01*
X177085000Y403825750D01*
X177088072Y403840000D01*
X177075812Y403964482D01*
X177039502Y404084180D01*
X176980537Y404194494D01*
X176901185Y404291185D01*
X176804494Y404370537D01*
X176759429Y404394625D01*
X176792283Y404456090D01*
X176822605Y404556047D01*
X176832843Y404660000D01*
X176832843Y404960000D01*
X176822605Y405063953D01*
X176792283Y405163910D01*
X176743043Y405256032D01*
X176676777Y405336777D01*
X176596032Y405403043D01*
X176503910Y405452283D01*
X176403953Y405482605D01*
X176300000Y405492843D01*
X175981000Y405492843D01*
X175981000Y406412655D01*
X175983447Y406437501D01*
X175981000Y406462347D01*
X175981000Y406462354D01*
X175973678Y406536693D01*
X175972434Y406540796D01*
X175944745Y406632075D01*
X175939719Y406641477D01*
X175897759Y406719979D01*
X175834527Y406797027D01*
X175815220Y406812872D01*
X175782843Y406845249D01*
X175782843Y407237500D01*
X175770923Y407358523D01*
X175735622Y407474895D01*
X175678296Y407582144D01*
X175601149Y407676149D01*
X175507144Y407753296D01*
X175418500Y407800677D01*
X175418500Y409702909D01*
X175449028Y409733437D01*
X175597177Y409672071D01*
X175863983Y409619000D01*
X176136017Y409619000D01*
X176402823Y409672071D01*
X176654149Y409776174D01*
X176880336Y409927307D01*
X177072693Y410119664D01*
X177223826Y410345851D01*
X177285192Y410494000D01*
X179870409Y410494000D01*
X181357249Y409007159D01*
X181333080Y408970987D01*
X181191286Y408628667D01*
X181119000Y408265262D01*
X181119000Y407894738D01*
X181191286Y407531333D01*
X181333080Y407189013D01*
X181538932Y406880933D01*
X181800933Y406618932D01*
X182109013Y406413080D01*
X182451333Y406271286D01*
X182814738Y406199000D01*
X183185262Y406199000D01*
X183548667Y406271286D01*
X183890987Y406413080D01*
X184199067Y406618932D01*
X184461068Y406880933D01*
X184666920Y407189013D01*
X184808714Y407531333D01*
X184881000Y407894738D01*
X184881000Y408265262D01*
X184808714Y408628667D01*
X184666920Y408970987D01*
X184461068Y409279067D01*
X184199067Y409541068D01*
X183890987Y409746920D01*
X183548667Y409888714D01*
X183185262Y409961000D01*
X182814738Y409961000D01*
X182451333Y409888714D01*
X182109013Y409746920D01*
X182072841Y409722751D01*
X180455376Y411340215D01*
X180439527Y411359527D01*
X180362479Y411422759D01*
X180274575Y411469745D01*
X180179193Y411498678D01*
X180104854Y411506000D01*
X180104846Y411506000D01*
X180080000Y411508447D01*
X180055154Y411506000D01*
X177285192Y411506000D01*
X177223826Y411654149D01*
X177214340Y411668347D01*
X181687952Y411668347D01*
X181843962Y411352786D01*
X182218745Y411161980D01*
X182623551Y411047956D01*
X183042824Y411015098D01*
X183460451Y411064666D01*
X183860383Y411194757D01*
X184156038Y411352786D01*
X184312048Y411668347D01*
X183000000Y412980395D01*
X181687952Y411668347D01*
X177214340Y411668347D01*
X177072693Y411880336D01*
X176880336Y412072693D01*
X176654149Y412223826D01*
X176402823Y412327929D01*
X176136017Y412381000D01*
X175863983Y412381000D01*
X175597177Y412327929D01*
X175345851Y412223826D01*
X175119664Y412072693D01*
X174927307Y411880336D01*
X174776174Y411654149D01*
X174672071Y411402823D01*
X174619000Y411136017D01*
X174619000Y410863983D01*
X174672071Y410597177D01*
X174733437Y410449028D01*
X174572280Y410287871D01*
X174552974Y410272027D01*
X174489742Y410194979D01*
X174472519Y410162757D01*
X174442755Y410107074D01*
X174413822Y410011692D01*
X174404053Y409912500D01*
X174406501Y409887644D01*
X174406500Y407800678D01*
X174317856Y407753296D01*
X174223851Y407676149D01*
X174146704Y407582144D01*
X174089378Y407474895D01*
X174054077Y407358523D01*
X174042157Y407237500D01*
X174042157Y406762500D01*
X174054077Y406641477D01*
X174089378Y406525105D01*
X174146704Y406417856D01*
X174223851Y406323851D01*
X174317856Y406246704D01*
X174425105Y406189378D01*
X174541477Y406154077D01*
X174662500Y406142157D01*
X174969001Y406142157D01*
X174969000Y405492843D01*
X174650000Y405492843D01*
X174546047Y405482605D01*
X174446090Y405452283D01*
X174353968Y405403043D01*
X174273223Y405336777D01*
X174206957Y405256032D01*
X174157717Y405163910D01*
X174127395Y405063953D01*
X174117157Y404960000D01*
X174117157Y404660000D01*
X174127395Y404556047D01*
X174157717Y404456090D01*
X174190571Y404394625D01*
X174145506Y404370537D01*
X174048815Y404291185D01*
X173969463Y404194494D01*
X173910498Y404084180D01*
X173874188Y403964482D01*
X173861928Y403840000D01*
X173865000Y403825750D01*
X174023748Y403667002D01*
X173865000Y403667002D01*
X173865000Y403620591D01*
X173605376Y403880215D01*
X173589527Y403899527D01*
X173512479Y403962759D01*
X173424575Y404009745D01*
X173329193Y404038678D01*
X173254854Y404046000D01*
X173254846Y404046000D01*
X173230000Y404048447D01*
X173205154Y404046000D01*
X171935570Y404046000D01*
X171951185Y404058815D01*
X172030537Y404155506D01*
X172089502Y404265820D01*
X172125812Y404385518D01*
X172138072Y404510000D01*
X172135000Y404524250D01*
X171976250Y404683000D01*
X170652000Y404683000D01*
X170652000Y404663000D01*
X170398000Y404663000D01*
X170398000Y404683000D01*
X170378000Y404683000D01*
X170378000Y404937000D01*
X170398000Y404937000D01*
X170398000Y405586250D01*
X170652000Y405586250D01*
X170652000Y404937000D01*
X171976250Y404937000D01*
X172135000Y405095750D01*
X172138072Y405110000D01*
X172125812Y405234482D01*
X172089502Y405354180D01*
X172030537Y405464494D01*
X171951185Y405561185D01*
X171854494Y405640537D01*
X171744180Y405699502D01*
X171624482Y405735812D01*
X171500000Y405748072D01*
X170810750Y405745000D01*
X170652000Y405586250D01*
X170398000Y405586250D01*
X170239250Y405745000D01*
X169730990Y405747265D01*
X169730990Y407237500D01*
X172217157Y407237500D01*
X172217157Y406762500D01*
X172229077Y406641477D01*
X172264378Y406525105D01*
X172321704Y406417856D01*
X172398851Y406323851D01*
X172492856Y406246704D01*
X172581500Y406199322D01*
X172581501Y405659668D01*
X172502141Y405606642D01*
X172393358Y405497859D01*
X172307887Y405369942D01*
X172249013Y405227809D01*
X172219000Y405076922D01*
X172219000Y404923078D01*
X172249013Y404772191D01*
X172307887Y404630058D01*
X172393358Y404502141D01*
X172502141Y404393358D01*
X172630058Y404307887D01*
X172772191Y404249013D01*
X172923078Y404219000D01*
X173076922Y404219000D01*
X173227809Y404249013D01*
X173369942Y404307887D01*
X173497859Y404393358D01*
X173606642Y404502141D01*
X173692113Y404630058D01*
X173750987Y404772191D01*
X173781000Y404923078D01*
X173781000Y405076922D01*
X173750987Y405227809D01*
X173692113Y405369942D01*
X173606642Y405497859D01*
X173593500Y405511001D01*
X173593500Y406199323D01*
X173682144Y406246704D01*
X173776149Y406323851D01*
X173853296Y406417856D01*
X173910622Y406525105D01*
X173945923Y406641477D01*
X173957843Y406762500D01*
X173957843Y407237500D01*
X173945923Y407358523D01*
X173910622Y407474895D01*
X173853296Y407582144D01*
X173776149Y407676149D01*
X173682144Y407753296D01*
X173574895Y407810622D01*
X173506000Y407831521D01*
X173506000Y408401499D01*
X173606642Y408502141D01*
X173692113Y408630058D01*
X173750987Y408772191D01*
X173781000Y408923078D01*
X173781000Y409076922D01*
X173750987Y409227809D01*
X173692113Y409369942D01*
X173606642Y409497859D01*
X173497859Y409606642D01*
X173369942Y409692113D01*
X173227809Y409750987D01*
X173076922Y409781000D01*
X172923078Y409781000D01*
X172772191Y409750987D01*
X172630058Y409692113D01*
X172502141Y409606642D01*
X172393358Y409497859D01*
X172307887Y409369942D01*
X172249013Y409227809D01*
X172219000Y409076922D01*
X172219000Y408923078D01*
X172249013Y408772191D01*
X172307887Y408630058D01*
X172393358Y408502141D01*
X172494000Y408401499D01*
X172494001Y407753908D01*
X172492856Y407753296D01*
X172398851Y407676149D01*
X172321704Y407582144D01*
X172264378Y407474895D01*
X172229077Y407358523D01*
X172217157Y407237500D01*
X169730990Y407237500D01*
X169730990Y407819889D01*
X172340220Y410429118D01*
X172359527Y410444963D01*
X172422759Y410522011D01*
X172469745Y410609915D01*
X172498678Y410705297D01*
X172506000Y410779636D01*
X172508448Y410804490D01*
X172506000Y410829344D01*
X172506000Y412714808D01*
X172654149Y412776174D01*
X172880336Y412927307D01*
X173070205Y413117176D01*
X180855098Y413117176D01*
X180904666Y412699549D01*
X181034757Y412299617D01*
X181192786Y412003962D01*
X181508347Y411847952D01*
X182820395Y413160000D01*
X183179605Y413160000D01*
X184491653Y411847952D01*
X184807214Y412003962D01*
X184998020Y412378745D01*
X185112044Y412783551D01*
X185144902Y413202824D01*
X185095334Y413620451D01*
X184965243Y414020383D01*
X184807214Y414316038D01*
X184491653Y414472048D01*
X183179605Y413160000D01*
X182820395Y413160000D01*
X181508347Y414472048D01*
X181192786Y414316038D01*
X181001980Y413941255D01*
X180887956Y413536449D01*
X180855098Y413117176D01*
X173070205Y413117176D01*
X173072693Y413119664D01*
X173223826Y413345851D01*
X173327929Y413597177D01*
X173381000Y413863983D01*
X173381000Y414136017D01*
X173327929Y414402823D01*
X173224860Y414651653D01*
X181687952Y414651653D01*
X183000000Y413339605D01*
X184312048Y414651653D01*
X184156038Y414967214D01*
X183781255Y415158020D01*
X183376449Y415272044D01*
X182957176Y415304902D01*
X182539549Y415255334D01*
X182139617Y415125243D01*
X181843962Y414967214D01*
X181687952Y414651653D01*
X173224860Y414651653D01*
X173223826Y414654149D01*
X173072693Y414880336D01*
X172880336Y415072693D01*
X172654149Y415223826D01*
X172402823Y415327929D01*
X172136017Y415381000D01*
X171863983Y415381000D01*
X171597177Y415327929D01*
X171449028Y415266563D01*
X171200376Y415515215D01*
X171184527Y415534527D01*
X171107479Y415597759D01*
X171019575Y415644745D01*
X170924193Y415673678D01*
X170849854Y415681000D01*
X170849846Y415681000D01*
X170825000Y415683447D01*
X170800154Y415681000D01*
X165800677Y415681000D01*
X165753296Y415769644D01*
X165676149Y415863649D01*
X165582144Y415940796D01*
X165474895Y415998122D01*
X165358523Y416033423D01*
X165237500Y416045343D01*
X164762500Y416045343D01*
X164641477Y416033423D01*
X164525105Y415998122D01*
X164417856Y415940796D01*
X164323851Y415863649D01*
X164246704Y415769644D01*
X164199323Y415681000D01*
X162800677Y415681000D01*
X162753296Y415769644D01*
X162676149Y415863649D01*
X162582144Y415940796D01*
X162474895Y415998122D01*
X162358523Y416033423D01*
X162237500Y416045343D01*
X161762500Y416045343D01*
X161641477Y416033423D01*
X161525105Y415998122D01*
X161417856Y415940796D01*
X161323851Y415863649D01*
X161246704Y415769644D01*
X161189378Y415662395D01*
X161154077Y415546023D01*
X161142157Y415425000D01*
X161142157Y415032748D01*
X160890399Y414780990D01*
X158852277Y414780990D01*
X158857843Y414837500D01*
X158857843Y415337500D01*
X158845923Y415458523D01*
X158810622Y415574895D01*
X158753296Y415682144D01*
X158676149Y415776149D01*
X158582144Y415853296D01*
X158474895Y415910622D01*
X158358523Y415945923D01*
X158237500Y415957843D01*
X157762500Y415957843D01*
X157760763Y415957672D01*
X157845249Y416042157D01*
X158237500Y416042157D01*
X158358523Y416054077D01*
X158474895Y416089378D01*
X158582144Y416146704D01*
X158676149Y416223851D01*
X158753296Y416317856D01*
X158810622Y416425105D01*
X158845923Y416541477D01*
X158857843Y416662500D01*
X158857843Y417162500D01*
X158845923Y417283523D01*
X158810622Y417399895D01*
X158753296Y417507144D01*
X158676149Y417601149D01*
X158582144Y417678296D01*
X158474895Y417735622D01*
X158358523Y417770923D01*
X158237500Y417782843D01*
X157762500Y417782843D01*
X157641477Y417770923D01*
X157525105Y417735622D01*
X157417856Y417678296D01*
X157323851Y417601149D01*
X157246704Y417507144D01*
X157189378Y417399895D01*
X157154077Y417283523D01*
X157142157Y417162500D01*
X157142157Y416770249D01*
X156602059Y416230150D01*
X156554543Y416230150D01*
X156554543Y417454400D01*
X156547187Y417529089D01*
X156525401Y417600908D01*
X156490022Y417667096D01*
X156442411Y417725111D01*
X156411000Y417750889D01*
X156411000Y418225456D01*
X156445796Y418267856D01*
X156503122Y418375105D01*
X156538423Y418491477D01*
X156550343Y418612500D01*
X156550343Y419087500D01*
X156544777Y419144010D01*
X159140399Y419144010D01*
X161142157Y417142251D01*
X161142157Y416750000D01*
X161154077Y416628977D01*
X161189378Y416512605D01*
X161246704Y416405356D01*
X161323851Y416311351D01*
X161417856Y416234204D01*
X161525105Y416176878D01*
X161641477Y416141577D01*
X161762500Y416129657D01*
X162237500Y416129657D01*
X162358523Y416141577D01*
X162474895Y416176878D01*
X162582144Y416234204D01*
X162676149Y416311351D01*
X162753296Y416405356D01*
X162800677Y416494000D01*
X164199323Y416494000D01*
X164246704Y416405356D01*
X164323851Y416311351D01*
X164417856Y416234204D01*
X164525105Y416176878D01*
X164641477Y416141577D01*
X164762500Y416129657D01*
X165237500Y416129657D01*
X165358523Y416141577D01*
X165474895Y416176878D01*
X165582144Y416234204D01*
X165676149Y416311351D01*
X165753296Y416405356D01*
X165810622Y416512605D01*
X165845923Y416628977D01*
X165857843Y416750000D01*
X165857843Y417250000D01*
X165845923Y417371023D01*
X165810622Y417487395D01*
X165753296Y417594644D01*
X165676149Y417688649D01*
X165582144Y417765796D01*
X165474895Y417823122D01*
X165358523Y417858423D01*
X165237500Y417870343D01*
X164762500Y417870343D01*
X164641477Y417858423D01*
X164525105Y417823122D01*
X164417856Y417765796D01*
X164323851Y417688649D01*
X164246704Y417594644D01*
X164199323Y417506000D01*
X162800677Y417506000D01*
X162753296Y417594644D01*
X162676149Y417688649D01*
X162582144Y417765796D01*
X162474895Y417823122D01*
X162358523Y417858423D01*
X162237500Y417870343D01*
X161845249Y417870343D01*
X159725366Y419990225D01*
X159709517Y420009537D01*
X159632469Y420072769D01*
X159544565Y420119755D01*
X159449183Y420148688D01*
X159374844Y420156010D01*
X159374836Y420156010D01*
X159349990Y420158457D01*
X159325144Y420156010D01*
X154674864Y420156010D01*
X154650010Y420158458D01*
X154625156Y420156010D01*
X154550817Y420148688D01*
X154455435Y420119755D01*
X154367531Y420072769D01*
X154290483Y420009537D01*
X154274638Y419990230D01*
X153992251Y419707843D01*
X153605000Y419707843D01*
X153483977Y419695923D01*
X153367605Y419660622D01*
X153260356Y419603296D01*
X153166351Y419526149D01*
X153089204Y419432144D01*
X153031878Y419324895D01*
X152996577Y419208523D01*
X152984657Y419087500D01*
X152984657Y418694162D01*
X152942242Y418642479D01*
X152932900Y418625001D01*
X152895255Y418554574D01*
X152866322Y418459192D01*
X152856553Y418360000D01*
X152859001Y418335144D01*
X152859001Y417849288D01*
X152816968Y417901465D01*
X152721002Y417981693D01*
X152611228Y418041658D01*
X152491865Y418079054D01*
X152380750Y418089400D01*
X152222000Y417930650D01*
X152222000Y416851150D01*
X152242000Y416851150D01*
X152242000Y416597150D01*
X152222000Y416597150D01*
X152222000Y415517650D01*
X152380750Y415358900D01*
X152491865Y415369246D01*
X152611228Y415406642D01*
X152721002Y415466607D01*
X152816968Y415546835D01*
X152895438Y415644244D01*
X152906095Y415664625D01*
X152951792Y415640199D01*
X153023611Y415618413D01*
X153098300Y415611057D01*
X153118267Y415611057D01*
X151754781Y414247570D01*
X151735474Y414231725D01*
X151672242Y414154677D01*
X151662425Y414136310D01*
X151625255Y414066772D01*
X151596322Y413971390D01*
X151586553Y413872198D01*
X151589001Y413847342D01*
X151589000Y412302589D01*
X151557589Y412276811D01*
X151509978Y412218796D01*
X151474599Y412152608D01*
X151452813Y412080789D01*
X151445457Y412006100D01*
X151445457Y410545600D01*
X151449357Y410506000D01*
X150631496Y410506000D01*
X150590796Y410582144D01*
X150513649Y410676149D01*
X150419644Y410753296D01*
X150312395Y410810622D01*
X150196023Y410845923D01*
X150075000Y410857843D01*
X149575000Y410857843D01*
X149453977Y410845923D01*
X149337605Y410810622D01*
X149230356Y410753296D01*
X149136351Y410676149D01*
X149059204Y410582144D01*
X149001878Y410474895D01*
X148966577Y410358523D01*
X148954657Y410237500D01*
X148954657Y409762500D01*
X148966577Y409641477D01*
X149001878Y409525105D01*
X149059204Y409417856D01*
X149136351Y409323851D01*
X149230356Y409246704D01*
X149337605Y409189378D01*
X149453977Y409154077D01*
X149575000Y409142157D01*
X150075000Y409142157D01*
X150196023Y409154077D01*
X150312395Y409189378D01*
X150419644Y409246704D01*
X150513649Y409323851D01*
X150590796Y409417856D01*
X150631496Y409494000D01*
X151674601Y409494000D01*
X151674600Y405510644D01*
X151444000Y405510644D01*
X151369311Y405503288D01*
X151297492Y405481502D01*
X151231304Y405446123D01*
X151173289Y405398512D01*
X151125678Y405340497D01*
X151090299Y405274309D01*
X151068513Y405202490D01*
X151061157Y405127801D01*
X151061157Y404772201D01*
X151068513Y404697512D01*
X151090299Y404625693D01*
X151090669Y404625001D01*
X151090299Y404624308D01*
X151070163Y404557929D01*
X150782843Y404845248D01*
X150782843Y405237500D01*
X150770923Y405358523D01*
X150735622Y405474895D01*
X150678296Y405582144D01*
X150601149Y405676149D01*
X150507144Y405753296D01*
X150418500Y405800677D01*
X150418500Y406199323D01*
X150507144Y406246704D01*
X150601149Y406323851D01*
X150678296Y406417856D01*
X150735622Y406525105D01*
X150770923Y406641477D01*
X150782843Y406762500D01*
X150782843Y407237500D01*
X150770923Y407358523D01*
X150735622Y407474895D01*
X150678296Y407582144D01*
X150601149Y407676149D01*
X150507144Y407753296D01*
X150399895Y407810622D01*
X150283523Y407845923D01*
X150162500Y407857843D01*
X149662500Y407857843D01*
X149541477Y407845923D01*
X149425105Y407810622D01*
X149317856Y407753296D01*
X149223851Y407676149D01*
X149146704Y407582144D01*
X149089378Y407474895D01*
X149054077Y407358523D01*
X149042157Y407237500D01*
X149042157Y406762500D01*
X149042328Y406760764D01*
X148957843Y406845249D01*
X148957843Y407237500D01*
X148945923Y407358523D01*
X148910622Y407474895D01*
X148853296Y407582144D01*
X148776149Y407676149D01*
X148682144Y407753296D01*
X148574895Y407810622D01*
X148458523Y407845923D01*
X148337500Y407857843D01*
X147837500Y407857843D01*
X147716477Y407845923D01*
X147600105Y407810622D01*
X147492856Y407753296D01*
X147398851Y407676149D01*
X147397074Y407673984D01*
X147369942Y407692113D01*
X147227809Y407750987D01*
X147076922Y407781000D01*
X146923078Y407781000D01*
X146772191Y407750987D01*
X146630058Y407692113D01*
X146506000Y407609220D01*
X146506000Y408790409D01*
X147199108Y409483516D01*
X147234204Y409417856D01*
X147311351Y409323851D01*
X147405356Y409246704D01*
X147512605Y409189378D01*
X147628977Y409154077D01*
X147750000Y409142157D01*
X148250000Y409142157D01*
X148371023Y409154077D01*
X148487395Y409189378D01*
X148594644Y409246704D01*
X148688649Y409323851D01*
X148765796Y409417856D01*
X148823122Y409525105D01*
X148858423Y409641477D01*
X148870343Y409762500D01*
X148870343Y410237500D01*
X148858423Y410358523D01*
X148823122Y410474895D01*
X148765796Y410582144D01*
X148688649Y410676149D01*
X148594644Y410753296D01*
X148506000Y410800677D01*
X148506000Y411957710D01*
X148598462Y411966817D01*
X148717179Y412002829D01*
X148826589Y412061310D01*
X148922488Y412140012D01*
X149001190Y412235911D01*
X149059671Y412345321D01*
X149095683Y412464038D01*
X149107843Y412587500D01*
X149107843Y413262500D01*
X149095683Y413385962D01*
X149059671Y413504679D01*
X149001190Y413614089D01*
X148922488Y413709988D01*
X148826589Y413788690D01*
X148717179Y413847171D01*
X148598462Y413883183D01*
X148475000Y413895343D01*
X147525000Y413895343D01*
X147401538Y413883183D01*
X147282821Y413847171D01*
X147173411Y413788690D01*
X147077512Y413709988D01*
X146998810Y413614089D01*
X146940329Y413504679D01*
X146904317Y413385962D01*
X146892157Y413262500D01*
X146892157Y412587500D01*
X146904317Y412464038D01*
X146940329Y412345321D01*
X146998810Y412235911D01*
X147077512Y412140012D01*
X147173411Y412061310D01*
X147282821Y412002829D01*
X147401538Y411966817D01*
X147494001Y411957710D01*
X147494000Y410800678D01*
X147405356Y410753296D01*
X147311351Y410676149D01*
X147234204Y410582144D01*
X147193504Y410506000D01*
X147024854Y410506000D01*
X147000000Y410508448D01*
X146975146Y410506000D01*
X146900807Y410498678D01*
X146805425Y410469745D01*
X146717521Y410422759D01*
X146640473Y410359527D01*
X146624629Y410340221D01*
X145659785Y409375376D01*
X145640473Y409359527D01*
X145577241Y409282479D01*
X145530255Y409194574D01*
X145501322Y409099192D01*
X145494000Y409024853D01*
X145494000Y409024846D01*
X145491553Y409000000D01*
X145494000Y408975154D01*
X145494000Y407609220D01*
X145369942Y407692113D01*
X145227809Y407750987D01*
X145076922Y407781000D01*
X144923078Y407781000D01*
X144772191Y407750987D01*
X144630058Y407692113D01*
X144502141Y407606642D01*
X144393358Y407497859D01*
X144307887Y407369942D01*
X144249013Y407227809D01*
X144219000Y407076922D01*
X144219000Y406934592D01*
X141871672Y404587264D01*
X141853701Y404646508D01*
X141818322Y404712696D01*
X141770711Y404770711D01*
X141712696Y404818322D01*
X141646508Y404853701D01*
X141574689Y404875487D01*
X141500000Y404882843D01*
X138500000Y404882843D01*
X138425311Y404875487D01*
X138353492Y404853701D01*
X138287304Y404818322D01*
X138229289Y404770711D01*
X138181678Y404712696D01*
X138146299Y404646508D01*
X138124513Y404574689D01*
X138117157Y404500000D01*
X135406000Y404500000D01*
X135406000Y407428347D01*
X138687952Y407428347D01*
X138843962Y407112786D01*
X139218745Y406921980D01*
X139623551Y406807956D01*
X140042824Y406775098D01*
X140460451Y406824666D01*
X140860383Y406954757D01*
X141156038Y407112786D01*
X141312048Y407428347D01*
X140000000Y408740395D01*
X138687952Y407428347D01*
X135406000Y407428347D01*
X135406000Y408877176D01*
X137855098Y408877176D01*
X137904666Y408459549D01*
X138034757Y408059617D01*
X138192786Y407763962D01*
X138508347Y407607952D01*
X139820395Y408920000D01*
X140179605Y408920000D01*
X141491653Y407607952D01*
X141807214Y407763962D01*
X141998020Y408138745D01*
X142112044Y408543551D01*
X142144902Y408962824D01*
X142095334Y409380451D01*
X141965243Y409780383D01*
X141807214Y410076038D01*
X141491653Y410232048D01*
X140179605Y408920000D01*
X139820395Y408920000D01*
X138508347Y410232048D01*
X138192786Y410076038D01*
X138001980Y409701255D01*
X137887956Y409296449D01*
X137855098Y408877176D01*
X135406000Y408877176D01*
X135406000Y410411653D01*
X138687952Y410411653D01*
X140000000Y409099605D01*
X141312048Y410411653D01*
X141156038Y410727214D01*
X140781255Y410918020D01*
X140376449Y411032044D01*
X139957176Y411064902D01*
X139539549Y411015334D01*
X139139617Y410885243D01*
X138843962Y410727214D01*
X138687952Y410411653D01*
X135406000Y410411653D01*
X135406000Y415500000D01*
X138117157Y415500000D01*
X138117157Y412500000D01*
X138124513Y412425311D01*
X138146299Y412353492D01*
X138181678Y412287304D01*
X138229289Y412229289D01*
X138287304Y412181678D01*
X138353492Y412146299D01*
X138425311Y412124513D01*
X138500000Y412117157D01*
X141500000Y412117157D01*
X141574689Y412124513D01*
X141646508Y412146299D01*
X141712696Y412181678D01*
X141770711Y412229289D01*
X141818322Y412287304D01*
X141853701Y412353492D01*
X141875487Y412425311D01*
X141882843Y412500000D01*
X141882843Y414494000D01*
X146917979Y414494000D01*
X146940329Y414420321D01*
X146998810Y414310911D01*
X147077512Y414215012D01*
X147173411Y414136310D01*
X147282821Y414077829D01*
X147401538Y414041817D01*
X147525000Y414029657D01*
X148475000Y414029657D01*
X148598462Y414041817D01*
X148717179Y414077829D01*
X148826589Y414136310D01*
X148922488Y414215012D01*
X149001190Y414310911D01*
X149059671Y414420321D01*
X149095683Y414539038D01*
X149107843Y414662500D01*
X149107843Y415337500D01*
X149095683Y415460962D01*
X149059671Y415579679D01*
X149001190Y415689089D01*
X148922488Y415784988D01*
X148826589Y415863690D01*
X148717179Y415922171D01*
X148598462Y415958183D01*
X148475000Y415970343D01*
X147525000Y415970343D01*
X147401538Y415958183D01*
X147282821Y415922171D01*
X147173411Y415863690D01*
X147077512Y415784988D01*
X146998810Y415689089D01*
X146940329Y415579679D01*
X146917979Y415506000D01*
X141882252Y415506000D01*
X141875487Y415574689D01*
X141853701Y415646508D01*
X141818322Y415712696D01*
X141770711Y415770711D01*
X141712696Y415818322D01*
X141646508Y415853701D01*
X141574689Y415875487D01*
X141500000Y415882843D01*
X138500000Y415882843D01*
X138425311Y415875487D01*
X138353492Y415853701D01*
X138287304Y415818322D01*
X138229289Y415770711D01*
X138181678Y415712696D01*
X138146299Y415646508D01*
X138124513Y415574689D01*
X138117157Y415500000D01*
X135406000Y415500000D01*
X135406000Y415999700D01*
X151190254Y415999700D01*
X151201383Y415875112D01*
X151236603Y415755089D01*
X151294562Y415644244D01*
X151373032Y415546835D01*
X151468998Y415466607D01*
X151578772Y415406642D01*
X151698135Y415369246D01*
X151809250Y415358900D01*
X151968000Y415517650D01*
X151968000Y416597150D01*
X151352050Y416597150D01*
X151193300Y416438400D01*
X151190254Y415999700D01*
X135406000Y415999700D01*
X135406000Y417448600D01*
X151190254Y417448600D01*
X151193300Y417009900D01*
X151352050Y416851150D01*
X151968000Y416851150D01*
X151968000Y417930650D01*
X151809250Y418089400D01*
X151698135Y418079054D01*
X151578772Y418041658D01*
X151468998Y417981693D01*
X151373032Y417901465D01*
X151294562Y417804056D01*
X151236603Y417693211D01*
X151201383Y417573188D01*
X151190254Y417448600D01*
X135406000Y417448600D01*
X135406000Y421981915D01*
X135436014Y422318226D01*
X136769000Y422318226D01*
X136769000Y421681774D01*
X136893166Y421057552D01*
X137136725Y420469548D01*
X137490319Y419940358D01*
X137940358Y419490319D01*
X138469548Y419136725D01*
X139057552Y418893166D01*
X139681774Y418769000D01*
X140318226Y418769000D01*
X140942448Y418893166D01*
X141530452Y419136725D01*
X142059642Y419490319D01*
X142509681Y419940358D01*
X142863275Y420469548D01*
X143106834Y421057552D01*
X143231000Y421681774D01*
X143231000Y422318226D01*
X179769000Y422318226D01*
X179769000Y421681774D01*
X179893166Y421057552D01*
X180136725Y420469548D01*
X180490319Y419940358D01*
X180940358Y419490319D01*
X181469548Y419136725D01*
X182057552Y418893166D01*
X182681774Y418769000D01*
X183318226Y418769000D01*
X183942448Y418893166D01*
X184530452Y419136725D01*
X185059642Y419490319D01*
X185509681Y419940358D01*
X185863275Y420469548D01*
X186106834Y421057552D01*
X186231000Y421681774D01*
X186231000Y422318226D01*
X186106834Y422942448D01*
X185863275Y423530452D01*
X185509681Y424059642D01*
X185059642Y424509681D01*
X184530452Y424863275D01*
X183942448Y425106834D01*
X183318226Y425231000D01*
X182681774Y425231000D01*
X182057552Y425106834D01*
X181469548Y424863275D01*
X180940358Y424509681D01*
X180490319Y424059642D01*
X180136725Y423530452D01*
X179893166Y422942448D01*
X179769000Y422318226D01*
X143231000Y422318226D01*
X143106834Y422942448D01*
X142863275Y423530452D01*
X142509681Y424059642D01*
X142059642Y424509681D01*
X141530452Y424863275D01*
X140942448Y425106834D01*
X140318226Y425231000D01*
X139681774Y425231000D01*
X139057552Y425106834D01*
X138469548Y424863275D01*
X137940358Y424509681D01*
X137490319Y424059642D01*
X137136725Y423530452D01*
X136893166Y422942448D01*
X136769000Y422318226D01*
X135436014Y422318226D01*
X135480194Y422813246D01*
X135695638Y423600773D01*
X136047141Y424337716D01*
X136523587Y425000760D01*
X137109919Y425568956D01*
X137787600Y426024338D01*
X138535216Y426352519D01*
X139332251Y426543870D01*
X140014892Y426594000D01*
X182981915Y426594000D01*
X183813246Y426519806D01*
G04 #@! TA.AperFunction,Conductor*
D20*
G36*
X183813246Y426519806D02*
G01*
X184600773Y426304362D01*
X185337716Y425952859D01*
X186000760Y425476413D01*
X186568956Y424890081D01*
X187024338Y424212400D01*
X187352519Y423464784D01*
X187543870Y422667749D01*
X187594000Y421985108D01*
X187594001Y390018096D01*
X187519806Y389186754D01*
X187304362Y388399226D01*
X186952859Y387662284D01*
X186476413Y386999240D01*
X185890081Y386431044D01*
X185212400Y385975662D01*
X184464784Y385647481D01*
X183667749Y385456130D01*
X182985108Y385406000D01*
X140018085Y385406000D01*
X139186754Y385480194D01*
X138399226Y385695638D01*
X137662284Y386047141D01*
X136999240Y386523587D01*
X136431044Y387109919D01*
X135975662Y387787600D01*
X135647481Y388535216D01*
X135456130Y389332251D01*
X135406000Y390014892D01*
X135406000Y390318226D01*
X136769000Y390318226D01*
X136769000Y389681774D01*
X136893166Y389057552D01*
X137136725Y388469548D01*
X137490319Y387940358D01*
X137940358Y387490319D01*
X138469548Y387136725D01*
X139057552Y386893166D01*
X139681774Y386769000D01*
X140318226Y386769000D01*
X140942448Y386893166D01*
X141530452Y387136725D01*
X142059642Y387490319D01*
X142509681Y387940358D01*
X142863275Y388469548D01*
X143106834Y389057552D01*
X143231000Y389681774D01*
X143231000Y390318226D01*
X179769000Y390318226D01*
X179769000Y389681774D01*
X179893166Y389057552D01*
X180136725Y388469548D01*
X180490319Y387940358D01*
X180940358Y387490319D01*
X181469548Y387136725D01*
X182057552Y386893166D01*
X182681774Y386769000D01*
X183318226Y386769000D01*
X183942448Y386893166D01*
X184530452Y387136725D01*
X185059642Y387490319D01*
X185509681Y387940358D01*
X185863275Y388469548D01*
X186106834Y389057552D01*
X186231000Y389681774D01*
X186231000Y390318226D01*
X186106834Y390942448D01*
X185863275Y391530452D01*
X185509681Y392059642D01*
X185059642Y392509681D01*
X184530452Y392863275D01*
X183942448Y393106834D01*
X183318226Y393231000D01*
X182681774Y393231000D01*
X182057552Y393106834D01*
X181469548Y392863275D01*
X180940358Y392509681D01*
X180490319Y392059642D01*
X180136725Y391530452D01*
X179893166Y390942448D01*
X179769000Y390318226D01*
X143231000Y390318226D01*
X143106834Y390942448D01*
X142863275Y391530452D01*
X142509681Y392059642D01*
X142059642Y392509681D01*
X141530452Y392863275D01*
X140942448Y393106834D01*
X140318226Y393231000D01*
X139681774Y393231000D01*
X139057552Y393106834D01*
X138469548Y392863275D01*
X137940358Y392509681D01*
X137490319Y392059642D01*
X137136725Y391530452D01*
X136893166Y390942448D01*
X136769000Y390318226D01*
X135406000Y390318226D01*
X135406000Y396428347D01*
X138687952Y396428347D01*
X138843962Y396112786D01*
X139218745Y395921980D01*
X139623551Y395807956D01*
X140042824Y395775098D01*
X140460451Y395824666D01*
X140860383Y395954757D01*
X141156038Y396112786D01*
X141312048Y396428347D01*
X140000000Y397740395D01*
X138687952Y396428347D01*
X135406000Y396428347D01*
X135406000Y397877176D01*
X137855098Y397877176D01*
X137904666Y397459549D01*
X138034757Y397059617D01*
X138192786Y396763962D01*
X138508347Y396607952D01*
X139820395Y397920000D01*
X140179605Y397920000D01*
X141491653Y396607952D01*
X141807214Y396763962D01*
X141998020Y397138745D01*
X142112044Y397543551D01*
X142144902Y397962824D01*
X142095334Y398380451D01*
X142023919Y398600000D01*
X148886928Y398600000D01*
X148899188Y398475518D01*
X148935498Y398355820D01*
X148994463Y398245506D01*
X149073815Y398148815D01*
X149170506Y398069463D01*
X149280820Y398010498D01*
X149400518Y397974188D01*
X149525000Y397961928D01*
X149714250Y397965000D01*
X149873000Y398123750D01*
X149873000Y399010500D01*
X149048750Y399010500D01*
X148890000Y398851750D01*
X148886928Y398600000D01*
X142023919Y398600000D01*
X141965243Y398780383D01*
X141807214Y399076038D01*
X141491653Y399232048D01*
X140179605Y397920000D01*
X139820395Y397920000D01*
X138508347Y399232048D01*
X138192786Y399076038D01*
X138001980Y398701255D01*
X137887956Y398296449D01*
X137855098Y397877176D01*
X135406000Y397877176D01*
X135406000Y399411653D01*
X138687952Y399411653D01*
X140000000Y398099605D01*
X141312048Y399411653D01*
X141156038Y399727214D01*
X140781255Y399918020D01*
X140376449Y400032044D01*
X139957176Y400064902D01*
X139539549Y400015334D01*
X139139617Y399885243D01*
X138843962Y399727214D01*
X138687952Y399411653D01*
X135406000Y399411653D01*
X135406000Y404500000D01*
X138117157Y404500000D01*
X138117157Y401500000D01*
X138124513Y401425311D01*
X138146299Y401353492D01*
X138181678Y401287304D01*
X138229289Y401229289D01*
X138287304Y401181678D01*
X138353492Y401146299D01*
X138425311Y401124513D01*
X138500000Y401117157D01*
X141500000Y401117157D01*
X141574689Y401124513D01*
X141646508Y401146299D01*
X141712696Y401181678D01*
X141770711Y401229289D01*
X141818322Y401287304D01*
X141853701Y401353492D01*
X141875487Y401425311D01*
X141882843Y401500000D01*
X141882843Y403167252D01*
X144934592Y406219000D01*
X145076922Y406219000D01*
X145227809Y406249013D01*
X145369942Y406307887D01*
X145494001Y406390780D01*
X145494001Y405829346D01*
X145491553Y405804490D01*
X145501322Y405705298D01*
X145530255Y405609916D01*
X145542905Y405586250D01*
X145577242Y405522011D01*
X145640474Y405444963D01*
X145659781Y405429118D01*
X149079117Y402009781D01*
X149094962Y401990474D01*
X149172010Y401927242D01*
X149233277Y401894494D01*
X149259914Y401880256D01*
X149355295Y401851323D01*
X149365183Y401850349D01*
X149429635Y401844001D01*
X149429642Y401844001D01*
X149454488Y401841554D01*
X149479334Y401844001D01*
X151061157Y401844001D01*
X151061157Y401522200D01*
X151068513Y401447511D01*
X151090299Y401375692D01*
X151090669Y401375001D01*
X151090299Y401374309D01*
X151068513Y401302490D01*
X151061157Y401227801D01*
X151061157Y400872201D01*
X151068513Y400797512D01*
X151090299Y400725693D01*
X151125678Y400659505D01*
X151173289Y400601490D01*
X151231304Y400553879D01*
X151297492Y400518500D01*
X151369311Y400496714D01*
X151444000Y400489358D01*
X152917200Y400489358D01*
X152991889Y400496714D01*
X153063708Y400518500D01*
X153129896Y400553879D01*
X153187911Y400601490D01*
X153235522Y400659505D01*
X153270901Y400725693D01*
X153292687Y400797512D01*
X153300043Y400872201D01*
X153300043Y401211529D01*
X153361775Y401230255D01*
X153449679Y401277241D01*
X153526727Y401340473D01*
X153542576Y401359785D01*
X156704258Y404521466D01*
X156699957Y404477800D01*
X156699957Y404122200D01*
X156707313Y404047511D01*
X156729099Y403975692D01*
X156729469Y403974999D01*
X156729099Y403974307D01*
X156707313Y403902488D01*
X156699957Y403827799D01*
X156699957Y403684666D01*
X156638460Y403635728D01*
X156557661Y403540243D01*
X156497042Y403430829D01*
X156458934Y403311691D01*
X156447800Y403209550D01*
X156606550Y403050800D01*
X157692400Y403050800D01*
X157692400Y403089356D01*
X157946400Y403089356D01*
X157946400Y403050800D01*
X159032250Y403050800D01*
X159125449Y403143999D01*
X159723567Y403143999D01*
X159641056Y403099896D01*
X159547051Y403022749D01*
X159469904Y402928744D01*
X159431021Y402855999D01*
X159125451Y402855999D01*
X159032250Y402949200D01*
X157946400Y402949200D01*
X157946400Y402910642D01*
X157692400Y402910642D01*
X157692400Y402949200D01*
X156606550Y402949200D01*
X156447800Y402790450D01*
X156458934Y402688309D01*
X156497042Y402569171D01*
X156557661Y402459757D01*
X156638460Y402364272D01*
X156699957Y402315334D01*
X156699957Y402172199D01*
X156707313Y402097510D01*
X156729099Y402025691D01*
X156729469Y402024999D01*
X156729099Y402024308D01*
X156707313Y401952489D01*
X156699957Y401877800D01*
X156699957Y401522200D01*
X156707313Y401447511D01*
X156729099Y401375692D01*
X156729469Y401374999D01*
X156729099Y401374307D01*
X156707313Y401302488D01*
X156699957Y401227799D01*
X156699957Y400872199D01*
X156707313Y400797510D01*
X156729099Y400725691D01*
X156764478Y400659503D01*
X156812089Y400601488D01*
X156870104Y400553877D01*
X156936292Y400518498D01*
X157008111Y400496712D01*
X157082800Y400489356D01*
X157313400Y400489356D01*
X157313401Y399202143D01*
X157119664Y399072693D01*
X156927307Y398880336D01*
X156776174Y398654149D01*
X156672071Y398402823D01*
X156619000Y398136017D01*
X156619000Y397863983D01*
X156672071Y397597177D01*
X156776174Y397345851D01*
X156927307Y397119664D01*
X157119664Y396927307D01*
X157345851Y396776174D01*
X157597177Y396672071D01*
X157863983Y396619000D01*
X158136017Y396619000D01*
X158402823Y396672071D01*
X158654149Y396776174D01*
X158880336Y396927307D01*
X159072693Y397119664D01*
X159223826Y397345851D01*
X159285192Y397494000D01*
X161143504Y397494000D01*
X161184204Y397417856D01*
X161261351Y397323851D01*
X161355356Y397246704D01*
X161462605Y397189378D01*
X161578977Y397154077D01*
X161700000Y397142157D01*
X162300000Y397142157D01*
X162421023Y397154077D01*
X162537395Y397189378D01*
X162644644Y397246704D01*
X162738649Y397323851D01*
X162815796Y397417856D01*
X162862500Y397505233D01*
X162909204Y397417856D01*
X162986351Y397323851D01*
X163080356Y397246704D01*
X163187605Y397189378D01*
X163303977Y397154077D01*
X163425000Y397142157D01*
X164025000Y397142157D01*
X164146023Y397154077D01*
X164262395Y397189378D01*
X164369644Y397246704D01*
X164463649Y397323851D01*
X164540796Y397417856D01*
X164598122Y397525105D01*
X164633423Y397641477D01*
X164645343Y397762500D01*
X164645343Y397929752D01*
X164934592Y398219000D01*
X165076922Y398219000D01*
X165227809Y398249013D01*
X165369942Y398307887D01*
X165497859Y398393358D01*
X165606642Y398502141D01*
X165692113Y398630058D01*
X165750987Y398772191D01*
X165781000Y398923078D01*
X165781000Y399076922D01*
X165750987Y399227809D01*
X165692113Y399369942D01*
X165606642Y399497859D01*
X165497859Y399606642D01*
X165369942Y399692113D01*
X165227809Y399750987D01*
X165076922Y399781000D01*
X164923078Y399781000D01*
X164772191Y399750987D01*
X164630058Y399692113D01*
X164502141Y399606642D01*
X164393358Y399497859D01*
X164307887Y399369942D01*
X164249013Y399227809D01*
X164219000Y399076922D01*
X164219000Y398934592D01*
X164131738Y398847330D01*
X164025000Y398857843D01*
X163637834Y398857843D01*
X166543992Y401764000D01*
X166989376Y401764000D01*
X166959188Y401664482D01*
X166946928Y401540000D01*
X166950000Y401288250D01*
X167108750Y401129500D01*
X167933000Y401129500D01*
X167933000Y401149500D01*
X168187000Y401149500D01*
X168187000Y401129500D01*
X168207000Y401129500D01*
X168207000Y400875500D01*
X168187000Y400875500D01*
X168187000Y400855500D01*
X167933000Y400855500D01*
X167933000Y400875500D01*
X167108750Y400875500D01*
X166950000Y400716750D01*
X166946928Y400465000D01*
X166959188Y400340518D01*
X166995498Y400220820D01*
X167054463Y400110506D01*
X167133815Y400013815D01*
X167230506Y399934463D01*
X167294893Y399900047D01*
X167249378Y399814895D01*
X167214077Y399698523D01*
X167202157Y399577500D01*
X167202157Y399135248D01*
X167004775Y398937866D01*
X166985463Y398922017D01*
X166922231Y398844969D01*
X166875245Y398757064D01*
X166846312Y398661682D01*
X166838990Y398587343D01*
X166838990Y398587336D01*
X166836543Y398562490D01*
X166838990Y398537643D01*
X166838991Y397064583D01*
X166112252Y396337843D01*
X165720000Y396337843D01*
X165598977Y396325923D01*
X165482605Y396290622D01*
X165375356Y396233296D01*
X165281351Y396156149D01*
X165204204Y396062144D01*
X165174194Y396006000D01*
X155572092Y396006000D01*
X150857843Y400720248D01*
X150857843Y401162500D01*
X150845923Y401283523D01*
X150810622Y401399895D01*
X150753296Y401507144D01*
X150676149Y401601149D01*
X150582144Y401678296D01*
X150474895Y401735622D01*
X150358523Y401770923D01*
X150237500Y401782843D01*
X149762500Y401782843D01*
X149641477Y401770923D01*
X149525105Y401735622D01*
X149417856Y401678296D01*
X149323851Y401601149D01*
X149246704Y401507144D01*
X149189378Y401399895D01*
X149154077Y401283523D01*
X149142157Y401162500D01*
X149142157Y400562500D01*
X149154077Y400441477D01*
X149189378Y400325105D01*
X149234893Y400239953D01*
X149170506Y400205537D01*
X149073815Y400126185D01*
X148994463Y400029494D01*
X148935498Y399919180D01*
X148899188Y399799482D01*
X148886928Y399675000D01*
X148890000Y399423250D01*
X149048750Y399264500D01*
X149873000Y399264500D01*
X149873000Y399284500D01*
X150127000Y399284500D01*
X150127000Y399264500D01*
X150147000Y399264500D01*
X150147000Y399010500D01*
X150127000Y399010500D01*
X150127000Y398123750D01*
X150285750Y397965000D01*
X150475000Y397961928D01*
X150599482Y397974188D01*
X150719180Y398010498D01*
X150829494Y398069463D01*
X150926185Y398148815D01*
X151005537Y398245506D01*
X151064502Y398355820D01*
X151100812Y398475518D01*
X151113072Y398600000D01*
X151110000Y398851750D01*
X150951252Y399010498D01*
X151110000Y399010498D01*
X151110000Y399036909D01*
X154987128Y395159780D01*
X155002973Y395140473D01*
X155080021Y395077241D01*
X155167925Y395030255D01*
X155263306Y395001322D01*
X155273194Y395000348D01*
X155337646Y394994000D01*
X155337653Y394994000D01*
X155362499Y394991553D01*
X155387345Y394994000D01*
X165152814Y394994000D01*
X165204204Y394897856D01*
X165281351Y394803851D01*
X165375356Y394726704D01*
X165482605Y394669378D01*
X165598977Y394634077D01*
X165720000Y394622157D01*
X166220000Y394622157D01*
X166341023Y394634077D01*
X166457395Y394669378D01*
X166564644Y394726704D01*
X166658649Y394803851D01*
X166735796Y394897856D01*
X166793122Y395005105D01*
X166828423Y395121477D01*
X166840343Y395242500D01*
X166840343Y395634752D01*
X166924828Y395719237D01*
X166924657Y395717500D01*
X166924657Y395242500D01*
X166936577Y395121477D01*
X166971878Y395005105D01*
X167029204Y394897856D01*
X167106351Y394803851D01*
X167200356Y394726704D01*
X167307605Y394669378D01*
X167423977Y394634077D01*
X167545000Y394622157D01*
X168045000Y394622157D01*
X168166023Y394634077D01*
X168282395Y394669378D01*
X168389644Y394726704D01*
X168483649Y394803851D01*
X168560796Y394897856D01*
X168618122Y395005105D01*
X168653423Y395121477D01*
X168665343Y395242500D01*
X168665343Y395717500D01*
X168653423Y395838523D01*
X168618122Y395954895D01*
X168560796Y396062144D01*
X168483649Y396156149D01*
X168389644Y396233296D01*
X168301000Y396280677D01*
X168301000Y397167177D01*
X169218932Y398085108D01*
X169256957Y398013968D01*
X169323223Y397933223D01*
X169403968Y397866957D01*
X169482464Y397825000D01*
X169403968Y397783043D01*
X169323223Y397716777D01*
X169256957Y397636032D01*
X169207717Y397543910D01*
X169177395Y397443953D01*
X169167157Y397340000D01*
X169167157Y397040000D01*
X169177395Y396936047D01*
X169207717Y396836090D01*
X169256957Y396743968D01*
X169323223Y396663223D01*
X169403968Y396596957D01*
X169496090Y396547717D01*
X169596047Y396517395D01*
X169700000Y396507157D01*
X171350000Y396507157D01*
X171453953Y396517395D01*
X171553910Y396547717D01*
X171646032Y396596957D01*
X171726777Y396663223D01*
X171793043Y396743968D01*
X171842283Y396836090D01*
X171872605Y396936047D01*
X171882843Y397040000D01*
X171882843Y397340000D01*
X171872605Y397443953D01*
X171842283Y397543910D01*
X171793043Y397636032D01*
X171726777Y397716777D01*
X171646032Y397783043D01*
X171567536Y397825000D01*
X171646032Y397866957D01*
X171726777Y397933223D01*
X171793043Y398013968D01*
X171842283Y398106090D01*
X171872605Y398206047D01*
X171882843Y398310000D01*
X171882843Y398419798D01*
X174642859Y395659781D01*
X174658704Y395640474D01*
X174735752Y395577242D01*
X174823656Y395530256D01*
X174919037Y395501323D01*
X174928925Y395500349D01*
X174993377Y395494001D01*
X174993384Y395494001D01*
X175018230Y395491554D01*
X175043076Y395494001D01*
X179975155Y395494001D01*
X180000001Y395491554D01*
X180024847Y395494001D01*
X180024855Y395494001D01*
X180099194Y395501323D01*
X180194576Y395530256D01*
X180282480Y395577242D01*
X180359528Y395640474D01*
X180375377Y395659786D01*
X180449028Y395733437D01*
X180597177Y395672071D01*
X180863983Y395619000D01*
X181136017Y395619000D01*
X181402823Y395672071D01*
X181654149Y395776174D01*
X181880336Y395927307D01*
X182072693Y396119664D01*
X182223826Y396345851D01*
X182327929Y396597177D01*
X182381000Y396863983D01*
X182381000Y397136017D01*
X182327929Y397402823D01*
X182223826Y397654149D01*
X182072693Y397880336D01*
X181880336Y398072693D01*
X181654149Y398223826D01*
X181506000Y398285192D01*
X181506000Y400790409D01*
X181832748Y401117157D01*
X184500000Y401117157D01*
X184574689Y401124513D01*
X184646508Y401146299D01*
X184712696Y401181678D01*
X184770711Y401229289D01*
X184818322Y401287304D01*
X184853701Y401353492D01*
X184875487Y401425311D01*
X184882843Y401500000D01*
X184882843Y404500000D01*
X184875487Y404574689D01*
X184853701Y404646508D01*
X184818322Y404712696D01*
X184770711Y404770711D01*
X184712696Y404818322D01*
X184646508Y404853701D01*
X184574689Y404875487D01*
X184500000Y404882843D01*
X181500000Y404882843D01*
X181425311Y404875487D01*
X181353492Y404853701D01*
X181287304Y404818322D01*
X181229289Y404770711D01*
X181181678Y404712696D01*
X181146299Y404646508D01*
X181124513Y404574689D01*
X181117157Y404500000D01*
X181117157Y401832748D01*
X180659781Y401375372D01*
X180640474Y401359527D01*
X180577242Y401282479D01*
X180559354Y401249013D01*
X180530255Y401194574D01*
X180501322Y401099192D01*
X180491553Y401000000D01*
X180494001Y400975144D01*
X180494000Y398285192D01*
X180345851Y398223826D01*
X180119664Y398072693D01*
X179927307Y397880336D01*
X179776174Y397654149D01*
X179672071Y397402823D01*
X179619000Y397136017D01*
X179619000Y396863983D01*
X179672071Y396597177D01*
X179709837Y396506001D01*
X175227823Y396506001D01*
X175226667Y396507157D01*
X176300000Y396507157D01*
X176403953Y396517395D01*
X176503910Y396547717D01*
X176596032Y396596957D01*
X176676777Y396663223D01*
X176743043Y396743968D01*
X176792283Y396836090D01*
X176822605Y396936047D01*
X176832843Y397040000D01*
X176832843Y397340000D01*
X176822605Y397443953D01*
X176792283Y397543910D01*
X176743043Y397636032D01*
X176676777Y397716777D01*
X176596032Y397783043D01*
X176517536Y397825000D01*
X176596032Y397866957D01*
X176676777Y397933223D01*
X176743043Y398013968D01*
X176792283Y398106090D01*
X176822605Y398206047D01*
X176832843Y398310000D01*
X176832843Y398610000D01*
X176822605Y398713953D01*
X176792283Y398813910D01*
X176759429Y398875375D01*
X176804494Y398899463D01*
X176901185Y398978815D01*
X176980537Y399075506D01*
X177039502Y399185820D01*
X177075812Y399305518D01*
X177088072Y399430000D01*
X177085000Y399444250D01*
X176926250Y399603000D01*
X175602000Y399603000D01*
X175602000Y399583000D01*
X175348000Y399583000D01*
X175348000Y399603000D01*
X174023750Y399603000D01*
X173865000Y399444250D01*
X173861928Y399430000D01*
X173874188Y399305518D01*
X173910498Y399185820D01*
X173969463Y399075506D01*
X174048815Y398978815D01*
X174145506Y398899463D01*
X174190571Y398875375D01*
X174157717Y398813910D01*
X174127395Y398713953D01*
X174117157Y398610000D01*
X174117157Y398310000D01*
X174127395Y398206047D01*
X174157717Y398106090D01*
X174206957Y398013968D01*
X174273223Y397933223D01*
X174353968Y397866957D01*
X174432464Y397825000D01*
X174353968Y397783043D01*
X174273223Y397716777D01*
X174206957Y397636032D01*
X174168932Y397564892D01*
X171882843Y399850980D01*
X171882843Y399880000D01*
X171872605Y399983953D01*
X171842283Y400083910D01*
X171793043Y400176032D01*
X171726777Y400256777D01*
X171646032Y400323043D01*
X171567536Y400365000D01*
X171646032Y400406957D01*
X171726777Y400473223D01*
X171743828Y400494000D01*
X172401499Y400494000D01*
X172502141Y400393358D01*
X172630058Y400307887D01*
X172772191Y400249013D01*
X172923078Y400219000D01*
X173076922Y400219000D01*
X173227809Y400249013D01*
X173369942Y400307887D01*
X173497859Y400393358D01*
X173606642Y400502141D01*
X173692113Y400630058D01*
X173750987Y400772191D01*
X173781000Y400923078D01*
X173781000Y401076922D01*
X173750987Y401227809D01*
X173692113Y401369942D01*
X173606642Y401497859D01*
X173497859Y401606642D01*
X173369942Y401692113D01*
X173227809Y401750987D01*
X173162388Y401764000D01*
X173520409Y401764000D01*
X174118704Y401165705D01*
X174117157Y401150000D01*
X174117157Y400850000D01*
X174127395Y400746047D01*
X174157717Y400646090D01*
X174190571Y400584625D01*
X174145506Y400560537D01*
X174048815Y400481185D01*
X173969463Y400384494D01*
X173910498Y400274180D01*
X173874188Y400154482D01*
X173861928Y400030000D01*
X173865000Y400015750D01*
X174023750Y399857000D01*
X175348000Y399857000D01*
X175348000Y399877000D01*
X175602000Y399877000D01*
X175602000Y399857000D01*
X176926250Y399857000D01*
X177085000Y400015750D01*
X177088072Y400030000D01*
X177075812Y400154482D01*
X177039502Y400274180D01*
X176980537Y400384494D01*
X176901185Y400481185D01*
X176804494Y400560537D01*
X176759429Y400584625D01*
X176792283Y400646090D01*
X176822605Y400746047D01*
X176832843Y400850000D01*
X176832843Y401150000D01*
X176822605Y401253953D01*
X176792283Y401353910D01*
X176743043Y401446032D01*
X176676777Y401526777D01*
X176596032Y401593043D01*
X176517536Y401635000D01*
X176596032Y401676957D01*
X176676777Y401743223D01*
X176743043Y401823968D01*
X176792283Y401916090D01*
X176822605Y402016047D01*
X176832843Y402120000D01*
X176832843Y402420000D01*
X176822605Y402523953D01*
X176792283Y402623910D01*
X176759429Y402685375D01*
X176804494Y402709463D01*
X176901185Y402788815D01*
X176980537Y402885506D01*
X177039502Y402995820D01*
X177075812Y403115518D01*
X177088072Y403240000D01*
X177085000Y403254250D01*
X176926250Y403413000D01*
X175602000Y403413000D01*
X175602000Y403393000D01*
X175348000Y403393000D01*
X175348000Y403413000D01*
X175328000Y403413000D01*
X175328000Y403667000D01*
X175348000Y403667000D01*
X175348000Y403687000D01*
X175602000Y403687000D01*
X175602000Y403667000D01*
X176926250Y403667000D01*
X177085000Y403825750D01*
X177088072Y403840000D01*
X177075812Y403964482D01*
X177039502Y404084180D01*
X176980537Y404194494D01*
X176901185Y404291185D01*
X176804494Y404370537D01*
X176759429Y404394625D01*
X176792283Y404456090D01*
X176822605Y404556047D01*
X176832843Y404660000D01*
X176832843Y404960000D01*
X176822605Y405063953D01*
X176792283Y405163910D01*
X176743043Y405256032D01*
X176676777Y405336777D01*
X176596032Y405403043D01*
X176503910Y405452283D01*
X176403953Y405482605D01*
X176300000Y405492843D01*
X175981000Y405492843D01*
X175981000Y406412655D01*
X175983447Y406437501D01*
X175981000Y406462347D01*
X175981000Y406462354D01*
X175973678Y406536693D01*
X175972434Y406540796D01*
X175944745Y406632075D01*
X175939719Y406641477D01*
X175897759Y406719979D01*
X175834527Y406797027D01*
X175815220Y406812872D01*
X175782843Y406845249D01*
X175782843Y407237500D01*
X175770923Y407358523D01*
X175735622Y407474895D01*
X175678296Y407582144D01*
X175601149Y407676149D01*
X175507144Y407753296D01*
X175418500Y407800677D01*
X175418500Y409702909D01*
X175449028Y409733437D01*
X175597177Y409672071D01*
X175863983Y409619000D01*
X176136017Y409619000D01*
X176402823Y409672071D01*
X176654149Y409776174D01*
X176880336Y409927307D01*
X177072693Y410119664D01*
X177223826Y410345851D01*
X177285192Y410494000D01*
X179870409Y410494000D01*
X181357249Y409007159D01*
X181333080Y408970987D01*
X181191286Y408628667D01*
X181119000Y408265262D01*
X181119000Y407894738D01*
X181191286Y407531333D01*
X181333080Y407189013D01*
X181538932Y406880933D01*
X181800933Y406618932D01*
X182109013Y406413080D01*
X182451333Y406271286D01*
X182814738Y406199000D01*
X183185262Y406199000D01*
X183548667Y406271286D01*
X183890987Y406413080D01*
X184199067Y406618932D01*
X184461068Y406880933D01*
X184666920Y407189013D01*
X184808714Y407531333D01*
X184881000Y407894738D01*
X184881000Y408265262D01*
X184808714Y408628667D01*
X184666920Y408970987D01*
X184461068Y409279067D01*
X184199067Y409541068D01*
X183890987Y409746920D01*
X183548667Y409888714D01*
X183185262Y409961000D01*
X182814738Y409961000D01*
X182451333Y409888714D01*
X182109013Y409746920D01*
X182072841Y409722751D01*
X180455376Y411340215D01*
X180439527Y411359527D01*
X180362479Y411422759D01*
X180274575Y411469745D01*
X180179193Y411498678D01*
X180104854Y411506000D01*
X180104846Y411506000D01*
X180080000Y411508447D01*
X180055154Y411506000D01*
X177285192Y411506000D01*
X177223826Y411654149D01*
X177214340Y411668347D01*
X181687952Y411668347D01*
X181843962Y411352786D01*
X182218745Y411161980D01*
X182623551Y411047956D01*
X183042824Y411015098D01*
X183460451Y411064666D01*
X183860383Y411194757D01*
X184156038Y411352786D01*
X184312048Y411668347D01*
X183000000Y412980395D01*
X181687952Y411668347D01*
X177214340Y411668347D01*
X177072693Y411880336D01*
X176880336Y412072693D01*
X176654149Y412223826D01*
X176402823Y412327929D01*
X176136017Y412381000D01*
X175863983Y412381000D01*
X175597177Y412327929D01*
X175345851Y412223826D01*
X175119664Y412072693D01*
X174927307Y411880336D01*
X174776174Y411654149D01*
X174672071Y411402823D01*
X174619000Y411136017D01*
X174619000Y410863983D01*
X174672071Y410597177D01*
X174733437Y410449028D01*
X174572280Y410287871D01*
X174552974Y410272027D01*
X174489742Y410194979D01*
X174472519Y410162757D01*
X174442755Y410107074D01*
X174413822Y410011692D01*
X174404053Y409912500D01*
X174406501Y409887644D01*
X174406500Y407800678D01*
X174317856Y407753296D01*
X174223851Y407676149D01*
X174146704Y407582144D01*
X174089378Y407474895D01*
X174054077Y407358523D01*
X174042157Y407237500D01*
X174042157Y406762500D01*
X174054077Y406641477D01*
X174089378Y406525105D01*
X174146704Y406417856D01*
X174223851Y406323851D01*
X174317856Y406246704D01*
X174425105Y406189378D01*
X174541477Y406154077D01*
X174662500Y406142157D01*
X174969001Y406142157D01*
X174969000Y405492843D01*
X174650000Y405492843D01*
X174546047Y405482605D01*
X174446090Y405452283D01*
X174353968Y405403043D01*
X174273223Y405336777D01*
X174206957Y405256032D01*
X174157717Y405163910D01*
X174127395Y405063953D01*
X174117157Y404960000D01*
X174117157Y404660000D01*
X174127395Y404556047D01*
X174157717Y404456090D01*
X174190571Y404394625D01*
X174145506Y404370537D01*
X174048815Y404291185D01*
X173969463Y404194494D01*
X173910498Y404084180D01*
X173874188Y403964482D01*
X173861928Y403840000D01*
X173865000Y403825750D01*
X174023748Y403667002D01*
X173865000Y403667002D01*
X173865000Y403620591D01*
X173605376Y403880215D01*
X173589527Y403899527D01*
X173512479Y403962759D01*
X173424575Y404009745D01*
X173329193Y404038678D01*
X173254854Y404046000D01*
X173254846Y404046000D01*
X173230000Y404048447D01*
X173205154Y404046000D01*
X171935570Y404046000D01*
X171951185Y404058815D01*
X172030537Y404155506D01*
X172089502Y404265820D01*
X172125812Y404385518D01*
X172138072Y404510000D01*
X172135000Y404524250D01*
X171976250Y404683000D01*
X170652000Y404683000D01*
X170652000Y404663000D01*
X170398000Y404663000D01*
X170398000Y404683000D01*
X170378000Y404683000D01*
X170378000Y404937000D01*
X170398000Y404937000D01*
X170398000Y405586250D01*
X170652000Y405586250D01*
X170652000Y404937000D01*
X171976250Y404937000D01*
X172135000Y405095750D01*
X172138072Y405110000D01*
X172125812Y405234482D01*
X172089502Y405354180D01*
X172030537Y405464494D01*
X171951185Y405561185D01*
X171854494Y405640537D01*
X171744180Y405699502D01*
X171624482Y405735812D01*
X171500000Y405748072D01*
X170810750Y405745000D01*
X170652000Y405586250D01*
X170398000Y405586250D01*
X170239250Y405745000D01*
X169730990Y405747265D01*
X169730990Y407237500D01*
X172217157Y407237500D01*
X172217157Y406762500D01*
X172229077Y406641477D01*
X172264378Y406525105D01*
X172321704Y406417856D01*
X172398851Y406323851D01*
X172492856Y406246704D01*
X172581500Y406199322D01*
X172581501Y405659668D01*
X172502141Y405606642D01*
X172393358Y405497859D01*
X172307887Y405369942D01*
X172249013Y405227809D01*
X172219000Y405076922D01*
X172219000Y404923078D01*
X172249013Y404772191D01*
X172307887Y404630058D01*
X172393358Y404502141D01*
X172502141Y404393358D01*
X172630058Y404307887D01*
X172772191Y404249013D01*
X172923078Y404219000D01*
X173076922Y404219000D01*
X173227809Y404249013D01*
X173369942Y404307887D01*
X173497859Y404393358D01*
X173606642Y404502141D01*
X173692113Y404630058D01*
X173750987Y404772191D01*
X173781000Y404923078D01*
X173781000Y405076922D01*
X173750987Y405227809D01*
X173692113Y405369942D01*
X173606642Y405497859D01*
X173593500Y405511001D01*
X173593500Y406199323D01*
X173682144Y406246704D01*
X173776149Y406323851D01*
X173853296Y406417856D01*
X173910622Y406525105D01*
X173945923Y406641477D01*
X173957843Y406762500D01*
X173957843Y407237500D01*
X173945923Y407358523D01*
X173910622Y407474895D01*
X173853296Y407582144D01*
X173776149Y407676149D01*
X173682144Y407753296D01*
X173574895Y407810622D01*
X173506000Y407831521D01*
X173506000Y408401499D01*
X173606642Y408502141D01*
X173692113Y408630058D01*
X173750987Y408772191D01*
X173781000Y408923078D01*
X173781000Y409076922D01*
X173750987Y409227809D01*
X173692113Y409369942D01*
X173606642Y409497859D01*
X173497859Y409606642D01*
X173369942Y409692113D01*
X173227809Y409750987D01*
X173076922Y409781000D01*
X172923078Y409781000D01*
X172772191Y409750987D01*
X172630058Y409692113D01*
X172502141Y409606642D01*
X172393358Y409497859D01*
X172307887Y409369942D01*
X172249013Y409227809D01*
X172219000Y409076922D01*
X172219000Y408923078D01*
X172249013Y408772191D01*
X172307887Y408630058D01*
X172393358Y408502141D01*
X172494000Y408401499D01*
X172494001Y407753908D01*
X172492856Y407753296D01*
X172398851Y407676149D01*
X172321704Y407582144D01*
X172264378Y407474895D01*
X172229077Y407358523D01*
X172217157Y407237500D01*
X169730990Y407237500D01*
X169730990Y407819889D01*
X172340220Y410429118D01*
X172359527Y410444963D01*
X172422759Y410522011D01*
X172469745Y410609915D01*
X172498678Y410705297D01*
X172506000Y410779636D01*
X172508448Y410804490D01*
X172506000Y410829344D01*
X172506000Y412714808D01*
X172654149Y412776174D01*
X172880336Y412927307D01*
X173070205Y413117176D01*
X180855098Y413117176D01*
X180904666Y412699549D01*
X181034757Y412299617D01*
X181192786Y412003962D01*
X181508347Y411847952D01*
X182820395Y413160000D01*
X183179605Y413160000D01*
X184491653Y411847952D01*
X184807214Y412003962D01*
X184998020Y412378745D01*
X185112044Y412783551D01*
X185144902Y413202824D01*
X185095334Y413620451D01*
X184965243Y414020383D01*
X184807214Y414316038D01*
X184491653Y414472048D01*
X183179605Y413160000D01*
X182820395Y413160000D01*
X181508347Y414472048D01*
X181192786Y414316038D01*
X181001980Y413941255D01*
X180887956Y413536449D01*
X180855098Y413117176D01*
X173070205Y413117176D01*
X173072693Y413119664D01*
X173223826Y413345851D01*
X173327929Y413597177D01*
X173381000Y413863983D01*
X173381000Y414136017D01*
X173327929Y414402823D01*
X173224860Y414651653D01*
X181687952Y414651653D01*
X183000000Y413339605D01*
X184312048Y414651653D01*
X184156038Y414967214D01*
X183781255Y415158020D01*
X183376449Y415272044D01*
X182957176Y415304902D01*
X182539549Y415255334D01*
X182139617Y415125243D01*
X181843962Y414967214D01*
X181687952Y414651653D01*
X173224860Y414651653D01*
X173223826Y414654149D01*
X173072693Y414880336D01*
X172880336Y415072693D01*
X172654149Y415223826D01*
X172402823Y415327929D01*
X172136017Y415381000D01*
X171863983Y415381000D01*
X171597177Y415327929D01*
X171449028Y415266563D01*
X171200376Y415515215D01*
X171184527Y415534527D01*
X171107479Y415597759D01*
X171019575Y415644745D01*
X170924193Y415673678D01*
X170849854Y415681000D01*
X170849846Y415681000D01*
X170825000Y415683447D01*
X170800154Y415681000D01*
X165800677Y415681000D01*
X165753296Y415769644D01*
X165676149Y415863649D01*
X165582144Y415940796D01*
X165474895Y415998122D01*
X165358523Y416033423D01*
X165237500Y416045343D01*
X164762500Y416045343D01*
X164641477Y416033423D01*
X164525105Y415998122D01*
X164417856Y415940796D01*
X164323851Y415863649D01*
X164246704Y415769644D01*
X164199323Y415681000D01*
X162800677Y415681000D01*
X162753296Y415769644D01*
X162676149Y415863649D01*
X162582144Y415940796D01*
X162474895Y415998122D01*
X162358523Y416033423D01*
X162237500Y416045343D01*
X161762500Y416045343D01*
X161641477Y416033423D01*
X161525105Y415998122D01*
X161417856Y415940796D01*
X161323851Y415863649D01*
X161246704Y415769644D01*
X161189378Y415662395D01*
X161154077Y415546023D01*
X161142157Y415425000D01*
X161142157Y415032748D01*
X160890399Y414780990D01*
X158852277Y414780990D01*
X158857843Y414837500D01*
X158857843Y415337500D01*
X158845923Y415458523D01*
X158810622Y415574895D01*
X158753296Y415682144D01*
X158676149Y415776149D01*
X158582144Y415853296D01*
X158474895Y415910622D01*
X158358523Y415945923D01*
X158237500Y415957843D01*
X157762500Y415957843D01*
X157760763Y415957672D01*
X157845249Y416042157D01*
X158237500Y416042157D01*
X158358523Y416054077D01*
X158474895Y416089378D01*
X158582144Y416146704D01*
X158676149Y416223851D01*
X158753296Y416317856D01*
X158810622Y416425105D01*
X158845923Y416541477D01*
X158857843Y416662500D01*
X158857843Y417162500D01*
X158845923Y417283523D01*
X158810622Y417399895D01*
X158753296Y417507144D01*
X158676149Y417601149D01*
X158582144Y417678296D01*
X158474895Y417735622D01*
X158358523Y417770923D01*
X158237500Y417782843D01*
X157762500Y417782843D01*
X157641477Y417770923D01*
X157525105Y417735622D01*
X157417856Y417678296D01*
X157323851Y417601149D01*
X157246704Y417507144D01*
X157189378Y417399895D01*
X157154077Y417283523D01*
X157142157Y417162500D01*
X157142157Y416770249D01*
X156602059Y416230150D01*
X156554543Y416230150D01*
X156554543Y417454400D01*
X156547187Y417529089D01*
X156525401Y417600908D01*
X156490022Y417667096D01*
X156442411Y417725111D01*
X156411000Y417750889D01*
X156411000Y418225456D01*
X156445796Y418267856D01*
X156503122Y418375105D01*
X156538423Y418491477D01*
X156550343Y418612500D01*
X156550343Y419087500D01*
X156544777Y419144010D01*
X159140399Y419144010D01*
X161142157Y417142251D01*
X161142157Y416750000D01*
X161154077Y416628977D01*
X161189378Y416512605D01*
X161246704Y416405356D01*
X161323851Y416311351D01*
X161417856Y416234204D01*
X161525105Y416176878D01*
X161641477Y416141577D01*
X161762500Y416129657D01*
X162237500Y416129657D01*
X162358523Y416141577D01*
X162474895Y416176878D01*
X162582144Y416234204D01*
X162676149Y416311351D01*
X162753296Y416405356D01*
X162800677Y416494000D01*
X164199323Y416494000D01*
X164246704Y416405356D01*
X164323851Y416311351D01*
X164417856Y416234204D01*
X164525105Y416176878D01*
X164641477Y416141577D01*
X164762500Y416129657D01*
X165237500Y416129657D01*
X165358523Y416141577D01*
X165474895Y416176878D01*
X165582144Y416234204D01*
X165676149Y416311351D01*
X165753296Y416405356D01*
X165810622Y416512605D01*
X165845923Y416628977D01*
X165857843Y416750000D01*
X165857843Y417250000D01*
X165845923Y417371023D01*
X165810622Y417487395D01*
X165753296Y417594644D01*
X165676149Y417688649D01*
X165582144Y417765796D01*
X165474895Y417823122D01*
X165358523Y417858423D01*
X165237500Y417870343D01*
X164762500Y417870343D01*
X164641477Y417858423D01*
X164525105Y417823122D01*
X164417856Y417765796D01*
X164323851Y417688649D01*
X164246704Y417594644D01*
X164199323Y417506000D01*
X162800677Y417506000D01*
X162753296Y417594644D01*
X162676149Y417688649D01*
X162582144Y417765796D01*
X162474895Y417823122D01*
X162358523Y417858423D01*
X162237500Y417870343D01*
X161845249Y417870343D01*
X159725366Y419990225D01*
X159709517Y420009537D01*
X159632469Y420072769D01*
X159544565Y420119755D01*
X159449183Y420148688D01*
X159374844Y420156010D01*
X159374836Y420156010D01*
X159349990Y420158457D01*
X159325144Y420156010D01*
X154674864Y420156010D01*
X154650010Y420158458D01*
X154625156Y420156010D01*
X154550817Y420148688D01*
X154455435Y420119755D01*
X154367531Y420072769D01*
X154290483Y420009537D01*
X154274638Y419990230D01*
X153992251Y419707843D01*
X153605000Y419707843D01*
X153483977Y419695923D01*
X153367605Y419660622D01*
X153260356Y419603296D01*
X153166351Y419526149D01*
X153089204Y419432144D01*
X153031878Y419324895D01*
X152996577Y419208523D01*
X152984657Y419087500D01*
X152984657Y418694162D01*
X152942242Y418642479D01*
X152932900Y418625001D01*
X152895255Y418554574D01*
X152866322Y418459192D01*
X152856553Y418360000D01*
X152859001Y418335144D01*
X152859001Y417849288D01*
X152816968Y417901465D01*
X152721002Y417981693D01*
X152611228Y418041658D01*
X152491865Y418079054D01*
X152380750Y418089400D01*
X152222000Y417930650D01*
X152222000Y416851150D01*
X152242000Y416851150D01*
X152242000Y416597150D01*
X152222000Y416597150D01*
X152222000Y415517650D01*
X152380750Y415358900D01*
X152491865Y415369246D01*
X152611228Y415406642D01*
X152721002Y415466607D01*
X152816968Y415546835D01*
X152895438Y415644244D01*
X152906095Y415664625D01*
X152951792Y415640199D01*
X153023611Y415618413D01*
X153098300Y415611057D01*
X153118267Y415611057D01*
X151754781Y414247570D01*
X151735474Y414231725D01*
X151672242Y414154677D01*
X151662425Y414136310D01*
X151625255Y414066772D01*
X151596322Y413971390D01*
X151586553Y413872198D01*
X151589001Y413847342D01*
X151589000Y412302589D01*
X151557589Y412276811D01*
X151509978Y412218796D01*
X151474599Y412152608D01*
X151452813Y412080789D01*
X151445457Y412006100D01*
X151445457Y410545600D01*
X151449357Y410506000D01*
X150631496Y410506000D01*
X150590796Y410582144D01*
X150513649Y410676149D01*
X150419644Y410753296D01*
X150312395Y410810622D01*
X150196023Y410845923D01*
X150075000Y410857843D01*
X149575000Y410857843D01*
X149453977Y410845923D01*
X149337605Y410810622D01*
X149230356Y410753296D01*
X149136351Y410676149D01*
X149059204Y410582144D01*
X149001878Y410474895D01*
X148966577Y410358523D01*
X148954657Y410237500D01*
X148954657Y409762500D01*
X148966577Y409641477D01*
X149001878Y409525105D01*
X149059204Y409417856D01*
X149136351Y409323851D01*
X149230356Y409246704D01*
X149337605Y409189378D01*
X149453977Y409154077D01*
X149575000Y409142157D01*
X150075000Y409142157D01*
X150196023Y409154077D01*
X150312395Y409189378D01*
X150419644Y409246704D01*
X150513649Y409323851D01*
X150590796Y409417856D01*
X150631496Y409494000D01*
X151674601Y409494000D01*
X151674600Y405510644D01*
X151444000Y405510644D01*
X151369311Y405503288D01*
X151297492Y405481502D01*
X151231304Y405446123D01*
X151173289Y405398512D01*
X151125678Y405340497D01*
X151090299Y405274309D01*
X151068513Y405202490D01*
X151061157Y405127801D01*
X151061157Y404772201D01*
X151068513Y404697512D01*
X151090299Y404625693D01*
X151090669Y404625001D01*
X151090299Y404624308D01*
X151070163Y404557929D01*
X150782843Y404845248D01*
X150782843Y405237500D01*
X150770923Y405358523D01*
X150735622Y405474895D01*
X150678296Y405582144D01*
X150601149Y405676149D01*
X150507144Y405753296D01*
X150418500Y405800677D01*
X150418500Y406199323D01*
X150507144Y406246704D01*
X150601149Y406323851D01*
X150678296Y406417856D01*
X150735622Y406525105D01*
X150770923Y406641477D01*
X150782843Y406762500D01*
X150782843Y407237500D01*
X150770923Y407358523D01*
X150735622Y407474895D01*
X150678296Y407582144D01*
X150601149Y407676149D01*
X150507144Y407753296D01*
X150399895Y407810622D01*
X150283523Y407845923D01*
X150162500Y407857843D01*
X149662500Y407857843D01*
X149541477Y407845923D01*
X149425105Y407810622D01*
X149317856Y407753296D01*
X149223851Y407676149D01*
X149146704Y407582144D01*
X149089378Y407474895D01*
X149054077Y407358523D01*
X149042157Y407237500D01*
X149042157Y406762500D01*
X149042328Y406760764D01*
X148957843Y406845249D01*
X148957843Y407237500D01*
X148945923Y407358523D01*
X148910622Y407474895D01*
X148853296Y407582144D01*
X148776149Y407676149D01*
X148682144Y407753296D01*
X148574895Y407810622D01*
X148458523Y407845923D01*
X148337500Y407857843D01*
X147837500Y407857843D01*
X147716477Y407845923D01*
X147600105Y407810622D01*
X147492856Y407753296D01*
X147398851Y407676149D01*
X147397074Y407673984D01*
X147369942Y407692113D01*
X147227809Y407750987D01*
X147076922Y407781000D01*
X146923078Y407781000D01*
X146772191Y407750987D01*
X146630058Y407692113D01*
X146506000Y407609220D01*
X146506000Y408790409D01*
X147199108Y409483516D01*
X147234204Y409417856D01*
X147311351Y409323851D01*
X147405356Y409246704D01*
X147512605Y409189378D01*
X147628977Y409154077D01*
X147750000Y409142157D01*
X148250000Y409142157D01*
X148371023Y409154077D01*
X148487395Y409189378D01*
X148594644Y409246704D01*
X148688649Y409323851D01*
X148765796Y409417856D01*
X148823122Y409525105D01*
X148858423Y409641477D01*
X148870343Y409762500D01*
X148870343Y410237500D01*
X148858423Y410358523D01*
X148823122Y410474895D01*
X148765796Y410582144D01*
X148688649Y410676149D01*
X148594644Y410753296D01*
X148506000Y410800677D01*
X148506000Y411957710D01*
X148598462Y411966817D01*
X148717179Y412002829D01*
X148826589Y412061310D01*
X148922488Y412140012D01*
X149001190Y412235911D01*
X149059671Y412345321D01*
X149095683Y412464038D01*
X149107843Y412587500D01*
X149107843Y413262500D01*
X149095683Y413385962D01*
X149059671Y413504679D01*
X149001190Y413614089D01*
X148922488Y413709988D01*
X148826589Y413788690D01*
X148717179Y413847171D01*
X148598462Y413883183D01*
X148475000Y413895343D01*
X147525000Y413895343D01*
X147401538Y413883183D01*
X147282821Y413847171D01*
X147173411Y413788690D01*
X147077512Y413709988D01*
X146998810Y413614089D01*
X146940329Y413504679D01*
X146904317Y413385962D01*
X146892157Y413262500D01*
X146892157Y412587500D01*
X146904317Y412464038D01*
X146940329Y412345321D01*
X146998810Y412235911D01*
X147077512Y412140012D01*
X147173411Y412061310D01*
X147282821Y412002829D01*
X147401538Y411966817D01*
X147494001Y411957710D01*
X147494000Y410800678D01*
X147405356Y410753296D01*
X147311351Y410676149D01*
X147234204Y410582144D01*
X147193504Y410506000D01*
X147024854Y410506000D01*
X147000000Y410508448D01*
X146975146Y410506000D01*
X146900807Y410498678D01*
X146805425Y410469745D01*
X146717521Y410422759D01*
X146640473Y410359527D01*
X146624629Y410340221D01*
X145659785Y409375376D01*
X145640473Y409359527D01*
X145577241Y409282479D01*
X145530255Y409194574D01*
X145501322Y409099192D01*
X145494000Y409024853D01*
X145494000Y409024846D01*
X145491553Y409000000D01*
X145494000Y408975154D01*
X145494000Y407609220D01*
X145369942Y407692113D01*
X145227809Y407750987D01*
X145076922Y407781000D01*
X144923078Y407781000D01*
X144772191Y407750987D01*
X144630058Y407692113D01*
X144502141Y407606642D01*
X144393358Y407497859D01*
X144307887Y407369942D01*
X144249013Y407227809D01*
X144219000Y407076922D01*
X144219000Y406934592D01*
X141871672Y404587264D01*
X141853701Y404646508D01*
X141818322Y404712696D01*
X141770711Y404770711D01*
X141712696Y404818322D01*
X141646508Y404853701D01*
X141574689Y404875487D01*
X141500000Y404882843D01*
X138500000Y404882843D01*
X138425311Y404875487D01*
X138353492Y404853701D01*
X138287304Y404818322D01*
X138229289Y404770711D01*
X138181678Y404712696D01*
X138146299Y404646508D01*
X138124513Y404574689D01*
X138117157Y404500000D01*
X135406000Y404500000D01*
X135406000Y407428347D01*
X138687952Y407428347D01*
X138843962Y407112786D01*
X139218745Y406921980D01*
X139623551Y406807956D01*
X140042824Y406775098D01*
X140460451Y406824666D01*
X140860383Y406954757D01*
X141156038Y407112786D01*
X141312048Y407428347D01*
X140000000Y408740395D01*
X138687952Y407428347D01*
X135406000Y407428347D01*
X135406000Y408877176D01*
X137855098Y408877176D01*
X137904666Y408459549D01*
X138034757Y408059617D01*
X138192786Y407763962D01*
X138508347Y407607952D01*
X139820395Y408920000D01*
X140179605Y408920000D01*
X141491653Y407607952D01*
X141807214Y407763962D01*
X141998020Y408138745D01*
X142112044Y408543551D01*
X142144902Y408962824D01*
X142095334Y409380451D01*
X141965243Y409780383D01*
X141807214Y410076038D01*
X141491653Y410232048D01*
X140179605Y408920000D01*
X139820395Y408920000D01*
X138508347Y410232048D01*
X138192786Y410076038D01*
X138001980Y409701255D01*
X137887956Y409296449D01*
X137855098Y408877176D01*
X135406000Y408877176D01*
X135406000Y410411653D01*
X138687952Y410411653D01*
X140000000Y409099605D01*
X141312048Y410411653D01*
X141156038Y410727214D01*
X140781255Y410918020D01*
X140376449Y411032044D01*
X139957176Y411064902D01*
X139539549Y411015334D01*
X139139617Y410885243D01*
X138843962Y410727214D01*
X138687952Y410411653D01*
X135406000Y410411653D01*
X135406000Y415500000D01*
X138117157Y415500000D01*
X138117157Y412500000D01*
X138124513Y412425311D01*
X138146299Y412353492D01*
X138181678Y412287304D01*
X138229289Y412229289D01*
X138287304Y412181678D01*
X138353492Y412146299D01*
X138425311Y412124513D01*
X138500000Y412117157D01*
X141500000Y412117157D01*
X141574689Y412124513D01*
X141646508Y412146299D01*
X141712696Y412181678D01*
X141770711Y412229289D01*
X141818322Y412287304D01*
X141853701Y412353492D01*
X141875487Y412425311D01*
X141882843Y412500000D01*
X141882843Y414494000D01*
X146917979Y414494000D01*
X146940329Y414420321D01*
X146998810Y414310911D01*
X147077512Y414215012D01*
X147173411Y414136310D01*
X147282821Y414077829D01*
X147401538Y414041817D01*
X147525000Y414029657D01*
X148475000Y414029657D01*
X148598462Y414041817D01*
X148717179Y414077829D01*
X148826589Y414136310D01*
X148922488Y414215012D01*
X149001190Y414310911D01*
X149059671Y414420321D01*
X149095683Y414539038D01*
X149107843Y414662500D01*
X149107843Y415337500D01*
X149095683Y415460962D01*
X149059671Y415579679D01*
X149001190Y415689089D01*
X148922488Y415784988D01*
X148826589Y415863690D01*
X148717179Y415922171D01*
X148598462Y415958183D01*
X148475000Y415970343D01*
X147525000Y415970343D01*
X147401538Y415958183D01*
X147282821Y415922171D01*
X147173411Y415863690D01*
X147077512Y415784988D01*
X146998810Y415689089D01*
X146940329Y415579679D01*
X146917979Y415506000D01*
X141882252Y415506000D01*
X141875487Y415574689D01*
X141853701Y415646508D01*
X141818322Y415712696D01*
X141770711Y415770711D01*
X141712696Y415818322D01*
X141646508Y415853701D01*
X141574689Y415875487D01*
X141500000Y415882843D01*
X138500000Y415882843D01*
X138425311Y415875487D01*
X138353492Y415853701D01*
X138287304Y415818322D01*
X138229289Y415770711D01*
X138181678Y415712696D01*
X138146299Y415646508D01*
X138124513Y415574689D01*
X138117157Y415500000D01*
X135406000Y415500000D01*
X135406000Y415999700D01*
X151190254Y415999700D01*
X151201383Y415875112D01*
X151236603Y415755089D01*
X151294562Y415644244D01*
X151373032Y415546835D01*
X151468998Y415466607D01*
X151578772Y415406642D01*
X151698135Y415369246D01*
X151809250Y415358900D01*
X151968000Y415517650D01*
X151968000Y416597150D01*
X151352050Y416597150D01*
X151193300Y416438400D01*
X151190254Y415999700D01*
X135406000Y415999700D01*
X135406000Y417448600D01*
X151190254Y417448600D01*
X151193300Y417009900D01*
X151352050Y416851150D01*
X151968000Y416851150D01*
X151968000Y417930650D01*
X151809250Y418089400D01*
X151698135Y418079054D01*
X151578772Y418041658D01*
X151468998Y417981693D01*
X151373032Y417901465D01*
X151294562Y417804056D01*
X151236603Y417693211D01*
X151201383Y417573188D01*
X151190254Y417448600D01*
X135406000Y417448600D01*
X135406000Y421981915D01*
X135436014Y422318226D01*
X136769000Y422318226D01*
X136769000Y421681774D01*
X136893166Y421057552D01*
X137136725Y420469548D01*
X137490319Y419940358D01*
X137940358Y419490319D01*
X138469548Y419136725D01*
X139057552Y418893166D01*
X139681774Y418769000D01*
X140318226Y418769000D01*
X140942448Y418893166D01*
X141530452Y419136725D01*
X142059642Y419490319D01*
X142509681Y419940358D01*
X142863275Y420469548D01*
X143106834Y421057552D01*
X143231000Y421681774D01*
X143231000Y422318226D01*
X179769000Y422318226D01*
X179769000Y421681774D01*
X179893166Y421057552D01*
X180136725Y420469548D01*
X180490319Y419940358D01*
X180940358Y419490319D01*
X181469548Y419136725D01*
X182057552Y418893166D01*
X182681774Y418769000D01*
X183318226Y418769000D01*
X183942448Y418893166D01*
X184530452Y419136725D01*
X185059642Y419490319D01*
X185509681Y419940358D01*
X185863275Y420469548D01*
X186106834Y421057552D01*
X186231000Y421681774D01*
X186231000Y422318226D01*
X186106834Y422942448D01*
X185863275Y423530452D01*
X185509681Y424059642D01*
X185059642Y424509681D01*
X184530452Y424863275D01*
X183942448Y425106834D01*
X183318226Y425231000D01*
X182681774Y425231000D01*
X182057552Y425106834D01*
X181469548Y424863275D01*
X180940358Y424509681D01*
X180490319Y424059642D01*
X180136725Y423530452D01*
X179893166Y422942448D01*
X179769000Y422318226D01*
X143231000Y422318226D01*
X143106834Y422942448D01*
X142863275Y423530452D01*
X142509681Y424059642D01*
X142059642Y424509681D01*
X141530452Y424863275D01*
X140942448Y425106834D01*
X140318226Y425231000D01*
X139681774Y425231000D01*
X139057552Y425106834D01*
X138469548Y424863275D01*
X137940358Y424509681D01*
X137490319Y424059642D01*
X137136725Y423530452D01*
X136893166Y422942448D01*
X136769000Y422318226D01*
X135436014Y422318226D01*
X135480194Y422813246D01*
X135695638Y423600773D01*
X136047141Y424337716D01*
X136523587Y425000760D01*
X137109919Y425568956D01*
X137787600Y426024338D01*
X138535216Y426352519D01*
X139332251Y426543870D01*
X140014892Y426594000D01*
X182981915Y426594000D01*
X183813246Y426519806D01*
G37*
G04 #@! TD.AperFunction*
D19*
X164219000Y405076922D02*
X164219000Y404923078D01*
X164249013Y404772191D01*
X164307887Y404630058D01*
X164393358Y404502141D01*
X164494000Y404401499D01*
X164494000Y404275050D01*
X164458305Y404264222D01*
X164351056Y404206896D01*
X164257051Y404129749D01*
X164179904Y404035744D01*
X164122578Y403928495D01*
X164087277Y403812123D01*
X164075357Y403691100D01*
X164075357Y403216100D01*
X164087277Y403095077D01*
X164122578Y402978705D01*
X164179904Y402871456D01*
X164257051Y402777451D01*
X164351056Y402700304D01*
X164458305Y402642978D01*
X164494000Y402632150D01*
X164494000Y402598501D01*
X164393358Y402497859D01*
X164307887Y402369942D01*
X164249013Y402227809D01*
X164219000Y402076922D01*
X164219000Y401923078D01*
X164249013Y401772191D01*
X164307887Y401630058D01*
X164393358Y401502141D01*
X164502141Y401393358D01*
X164630058Y401307887D01*
X164648893Y401300085D01*
X162206652Y398857843D01*
X161700000Y398857843D01*
X161578977Y398845923D01*
X161462605Y398810622D01*
X161355356Y398753296D01*
X161261351Y398676149D01*
X161184204Y398582144D01*
X161143504Y398506000D01*
X159285192Y398506000D01*
X159223826Y398654149D01*
X159072693Y398880336D01*
X158880336Y399072693D01*
X158654149Y399223826D01*
X158402823Y399327929D01*
X158325400Y399343329D01*
X158325400Y400021600D01*
X159110128Y400021600D01*
X159122388Y399897118D01*
X159158698Y399777420D01*
X159217663Y399667106D01*
X159297015Y399570415D01*
X159393706Y399491063D01*
X159504020Y399432098D01*
X159623718Y399395788D01*
X159748200Y399383528D01*
X159937450Y399386600D01*
X160096200Y399545350D01*
X160096200Y400432100D01*
X160350200Y400432100D01*
X160350200Y399545350D01*
X160508950Y399386600D01*
X160698200Y399383528D01*
X160822682Y399395788D01*
X160942380Y399432098D01*
X161052694Y399491063D01*
X161149385Y399570415D01*
X161228737Y399667106D01*
X161287702Y399777420D01*
X161324012Y399897118D01*
X161336272Y400021600D01*
X161333200Y400273350D01*
X161174450Y400432100D01*
X160350200Y400432100D01*
X160096200Y400432100D01*
X159271950Y400432100D01*
X159113200Y400273350D01*
X159110128Y400021600D01*
X158325400Y400021600D01*
X158325400Y400489356D01*
X158556000Y400489356D01*
X158630689Y400496712D01*
X158702508Y400518498D01*
X158768696Y400553877D01*
X158826711Y400601488D01*
X158874322Y400659503D01*
X158909701Y400725691D01*
X158931487Y400797510D01*
X158938843Y400872199D01*
X158938843Y401227799D01*
X158931487Y401302488D01*
X158909701Y401374307D01*
X158909331Y401374999D01*
X158909701Y401375692D01*
X158931487Y401447511D01*
X158938843Y401522200D01*
X158938843Y401843999D01*
X159383064Y401843999D01*
X159412578Y401746705D01*
X159458093Y401661553D01*
X159393706Y401627137D01*
X159297015Y401547785D01*
X159217663Y401451094D01*
X159158698Y401340780D01*
X159122388Y401221082D01*
X159110128Y401096600D01*
X159113200Y400844850D01*
X159271950Y400686100D01*
X160096200Y400686100D01*
X160096200Y400706100D01*
X160350200Y400706100D01*
X160350200Y400686100D01*
X161174450Y400686100D01*
X161333200Y400844850D01*
X161336272Y401096600D01*
X161324012Y401221082D01*
X161287702Y401340780D01*
X161228737Y401451094D01*
X161149385Y401547785D01*
X161052694Y401627137D01*
X160988307Y401661553D01*
X161033822Y401746705D01*
X161043346Y401778100D01*
X161926354Y401778100D01*
X161951200Y401775653D01*
X161976046Y401778100D01*
X161976054Y401778100D01*
X162050393Y401785422D01*
X162145775Y401814355D01*
X162233679Y401861341D01*
X162310727Y401924573D01*
X162326576Y401943885D01*
X162978449Y402595757D01*
X163370700Y402595757D01*
X163491723Y402607677D01*
X163608095Y402642978D01*
X163715344Y402700304D01*
X163809349Y402777451D01*
X163886496Y402871456D01*
X163943822Y402978705D01*
X163979123Y403095077D01*
X163991043Y403216100D01*
X163991043Y403691100D01*
X163979123Y403812123D01*
X163943822Y403928495D01*
X163886496Y404035744D01*
X163809349Y404129749D01*
X163715344Y404206896D01*
X163608095Y404264222D01*
X163491723Y404299523D01*
X163370700Y404311443D01*
X162870700Y404311443D01*
X162749677Y404299523D01*
X162633305Y404264222D01*
X162526056Y404206896D01*
X162432051Y404129749D01*
X162354904Y404035744D01*
X162297578Y403928495D01*
X162262277Y403812123D01*
X162250357Y403691100D01*
X162250357Y403298849D01*
X161741609Y402790100D01*
X161043346Y402790100D01*
X161033822Y402821495D01*
X160976496Y402928744D01*
X160899349Y403022749D01*
X160805344Y403099896D01*
X160698095Y403157222D01*
X160583506Y403191982D01*
X160649468Y403227240D01*
X160726516Y403290472D01*
X160742365Y403309784D01*
X162651582Y405219000D01*
X164247261Y405219000D01*
X164219000Y405076922D01*
G04 #@! TA.AperFunction,Conductor*
D20*
G36*
X164219000Y405076922D02*
G01*
X164219000Y404923078D01*
X164249013Y404772191D01*
X164307887Y404630058D01*
X164393358Y404502141D01*
X164494000Y404401499D01*
X164494000Y404275050D01*
X164458305Y404264222D01*
X164351056Y404206896D01*
X164257051Y404129749D01*
X164179904Y404035744D01*
X164122578Y403928495D01*
X164087277Y403812123D01*
X164075357Y403691100D01*
X164075357Y403216100D01*
X164087277Y403095077D01*
X164122578Y402978705D01*
X164179904Y402871456D01*
X164257051Y402777451D01*
X164351056Y402700304D01*
X164458305Y402642978D01*
X164494000Y402632150D01*
X164494000Y402598501D01*
X164393358Y402497859D01*
X164307887Y402369942D01*
X164249013Y402227809D01*
X164219000Y402076922D01*
X164219000Y401923078D01*
X164249013Y401772191D01*
X164307887Y401630058D01*
X164393358Y401502141D01*
X164502141Y401393358D01*
X164630058Y401307887D01*
X164648893Y401300085D01*
X162206652Y398857843D01*
X161700000Y398857843D01*
X161578977Y398845923D01*
X161462605Y398810622D01*
X161355356Y398753296D01*
X161261351Y398676149D01*
X161184204Y398582144D01*
X161143504Y398506000D01*
X159285192Y398506000D01*
X159223826Y398654149D01*
X159072693Y398880336D01*
X158880336Y399072693D01*
X158654149Y399223826D01*
X158402823Y399327929D01*
X158325400Y399343329D01*
X158325400Y400021600D01*
X159110128Y400021600D01*
X159122388Y399897118D01*
X159158698Y399777420D01*
X159217663Y399667106D01*
X159297015Y399570415D01*
X159393706Y399491063D01*
X159504020Y399432098D01*
X159623718Y399395788D01*
X159748200Y399383528D01*
X159937450Y399386600D01*
X160096200Y399545350D01*
X160096200Y400432100D01*
X160350200Y400432100D01*
X160350200Y399545350D01*
X160508950Y399386600D01*
X160698200Y399383528D01*
X160822682Y399395788D01*
X160942380Y399432098D01*
X161052694Y399491063D01*
X161149385Y399570415D01*
X161228737Y399667106D01*
X161287702Y399777420D01*
X161324012Y399897118D01*
X161336272Y400021600D01*
X161333200Y400273350D01*
X161174450Y400432100D01*
X160350200Y400432100D01*
X160096200Y400432100D01*
X159271950Y400432100D01*
X159113200Y400273350D01*
X159110128Y400021600D01*
X158325400Y400021600D01*
X158325400Y400489356D01*
X158556000Y400489356D01*
X158630689Y400496712D01*
X158702508Y400518498D01*
X158768696Y400553877D01*
X158826711Y400601488D01*
X158874322Y400659503D01*
X158909701Y400725691D01*
X158931487Y400797510D01*
X158938843Y400872199D01*
X158938843Y401227799D01*
X158931487Y401302488D01*
X158909701Y401374307D01*
X158909331Y401374999D01*
X158909701Y401375692D01*
X158931487Y401447511D01*
X158938843Y401522200D01*
X158938843Y401843999D01*
X159383064Y401843999D01*
X159412578Y401746705D01*
X159458093Y401661553D01*
X159393706Y401627137D01*
X159297015Y401547785D01*
X159217663Y401451094D01*
X159158698Y401340780D01*
X159122388Y401221082D01*
X159110128Y401096600D01*
X159113200Y400844850D01*
X159271950Y400686100D01*
X160096200Y400686100D01*
X160096200Y400706100D01*
X160350200Y400706100D01*
X160350200Y400686100D01*
X161174450Y400686100D01*
X161333200Y400844850D01*
X161336272Y401096600D01*
X161324012Y401221082D01*
X161287702Y401340780D01*
X161228737Y401451094D01*
X161149385Y401547785D01*
X161052694Y401627137D01*
X160988307Y401661553D01*
X161033822Y401746705D01*
X161043346Y401778100D01*
X161926354Y401778100D01*
X161951200Y401775653D01*
X161976046Y401778100D01*
X161976054Y401778100D01*
X162050393Y401785422D01*
X162145775Y401814355D01*
X162233679Y401861341D01*
X162310727Y401924573D01*
X162326576Y401943885D01*
X162978449Y402595757D01*
X163370700Y402595757D01*
X163491723Y402607677D01*
X163608095Y402642978D01*
X163715344Y402700304D01*
X163809349Y402777451D01*
X163886496Y402871456D01*
X163943822Y402978705D01*
X163979123Y403095077D01*
X163991043Y403216100D01*
X163991043Y403691100D01*
X163979123Y403812123D01*
X163943822Y403928495D01*
X163886496Y404035744D01*
X163809349Y404129749D01*
X163715344Y404206896D01*
X163608095Y404264222D01*
X163491723Y404299523D01*
X163370700Y404311443D01*
X162870700Y404311443D01*
X162749677Y404299523D01*
X162633305Y404264222D01*
X162526056Y404206896D01*
X162432051Y404129749D01*
X162354904Y404035744D01*
X162297578Y403928495D01*
X162262277Y403812123D01*
X162250357Y403691100D01*
X162250357Y403298849D01*
X161741609Y402790100D01*
X161043346Y402790100D01*
X161033822Y402821495D01*
X160976496Y402928744D01*
X160899349Y403022749D01*
X160805344Y403099896D01*
X160698095Y403157222D01*
X160583506Y403191982D01*
X160649468Y403227240D01*
X160726516Y403290472D01*
X160742365Y403309784D01*
X162651582Y405219000D01*
X164247261Y405219000D01*
X164219000Y405076922D01*
G37*
G04 #@! TD.AperFunction*
D19*
X170219000Y411065408D02*
X170219000Y410923078D01*
X170249013Y410772191D01*
X170307887Y410630058D01*
X170393358Y410502141D01*
X170502141Y410393358D01*
X170630058Y410307887D01*
X170741602Y410261684D01*
X168884775Y408404856D01*
X168865463Y408389007D01*
X168802231Y408311959D01*
X168755245Y408224054D01*
X168726312Y408128672D01*
X168718990Y408054333D01*
X168718990Y408054326D01*
X168716543Y408029480D01*
X168718990Y408004634D01*
X168718991Y404488098D01*
X168716543Y404463242D01*
X168726312Y404364050D01*
X168755245Y404268668D01*
X168775485Y404230802D01*
X168802232Y404180763D01*
X168865464Y404103715D01*
X168884770Y404087871D01*
X169177696Y403794945D01*
X169177395Y403793953D01*
X169167157Y403690000D01*
X169167157Y403390000D01*
X169177395Y403286047D01*
X169207717Y403186090D01*
X169256957Y403093968D01*
X169323223Y403013223D01*
X169403968Y402946957D01*
X169482464Y402905000D01*
X169403968Y402863043D01*
X169323223Y402796777D01*
X169306172Y402776000D01*
X166359254Y402776000D01*
X166334400Y402778448D01*
X166276620Y402772757D01*
X166235207Y402768678D01*
X166139825Y402739745D01*
X166051921Y402692759D01*
X165974873Y402629527D01*
X165959030Y402610222D01*
X165699915Y402351107D01*
X165692113Y402369942D01*
X165606642Y402497859D01*
X165506000Y402598501D01*
X165506000Y402681947D01*
X165540344Y402700304D01*
X165634349Y402777451D01*
X165711496Y402871456D01*
X165768822Y402978705D01*
X165804123Y403095077D01*
X165816043Y403216100D01*
X165816043Y403462500D01*
X165886928Y403462500D01*
X165899188Y403338018D01*
X165935498Y403218320D01*
X165994463Y403108006D01*
X166073815Y403011315D01*
X166170506Y402931963D01*
X166280820Y402872998D01*
X166400518Y402836688D01*
X166525000Y402824428D01*
X166714250Y402827500D01*
X166873000Y402986250D01*
X166873000Y403873000D01*
X167127000Y403873000D01*
X167127000Y402986250D01*
X167285750Y402827500D01*
X167475000Y402824428D01*
X167599482Y402836688D01*
X167719180Y402872998D01*
X167829494Y402931963D01*
X167926185Y403011315D01*
X168005537Y403108006D01*
X168064502Y403218320D01*
X168100812Y403338018D01*
X168113072Y403462500D01*
X168110000Y403714250D01*
X167951250Y403873000D01*
X167127000Y403873000D01*
X166873000Y403873000D01*
X166048750Y403873000D01*
X165890000Y403714250D01*
X165886928Y403462500D01*
X165816043Y403462500D01*
X165816043Y403691100D01*
X165804123Y403812123D01*
X165768822Y403928495D01*
X165711496Y404035744D01*
X165634349Y404129749D01*
X165540344Y404206896D01*
X165506000Y404225253D01*
X165506000Y404401499D01*
X165606642Y404502141D01*
X165692113Y404630058D01*
X165750987Y404772191D01*
X165781000Y404923078D01*
X165781000Y405076922D01*
X165752739Y405219000D01*
X166179854Y405219000D01*
X166189378Y405187605D01*
X166234893Y405102453D01*
X166170506Y405068037D01*
X166073815Y404988685D01*
X165994463Y404891994D01*
X165935498Y404781680D01*
X165899188Y404661982D01*
X165886928Y404537500D01*
X165890000Y404285750D01*
X166048750Y404127000D01*
X166873000Y404127000D01*
X166873000Y404147000D01*
X167127000Y404147000D01*
X167127000Y404127000D01*
X167951250Y404127000D01*
X168110000Y404285750D01*
X168113072Y404537500D01*
X168100812Y404661982D01*
X168064502Y404781680D01*
X168005537Y404891994D01*
X167926185Y404988685D01*
X167829494Y405068037D01*
X167765107Y405102453D01*
X167810622Y405187605D01*
X167845923Y405303977D01*
X167857843Y405425000D01*
X167857843Y406025000D01*
X167845923Y406146023D01*
X167810622Y406262395D01*
X167753296Y406369644D01*
X167676149Y406463649D01*
X167582144Y406540796D01*
X167506000Y406581496D01*
X167506000Y409193504D01*
X167582144Y409234204D01*
X167676149Y409311351D01*
X167753296Y409405356D01*
X167810622Y409512605D01*
X167845923Y409628977D01*
X167857843Y409750000D01*
X167857843Y410250000D01*
X167845923Y410371023D01*
X167810622Y410487395D01*
X167753296Y410594644D01*
X167676149Y410688649D01*
X167582144Y410765796D01*
X167474895Y410823122D01*
X167358523Y410858423D01*
X167237500Y410870343D01*
X166762500Y410870343D01*
X166641477Y410858423D01*
X166525105Y410823122D01*
X166417856Y410765796D01*
X166323851Y410688649D01*
X166246704Y410594644D01*
X166189378Y410487395D01*
X166154077Y410371023D01*
X166142157Y410250000D01*
X166142157Y409750000D01*
X166154077Y409628977D01*
X166189378Y409512605D01*
X166246704Y409405356D01*
X166323851Y409311351D01*
X166417856Y409234204D01*
X166494000Y409193504D01*
X166494001Y406581496D01*
X166417856Y406540796D01*
X166323851Y406463649D01*
X166246704Y406369644D01*
X166189378Y406262395D01*
X166179854Y406231000D01*
X165752739Y406231000D01*
X165781000Y406373078D01*
X165781000Y406526922D01*
X165750987Y406677809D01*
X165692113Y406819942D01*
X165606642Y406947859D01*
X165497859Y407056642D01*
X165369942Y407142113D01*
X165227809Y407200987D01*
X165076922Y407231000D01*
X164934591Y407231000D01*
X164825376Y407340215D01*
X164809527Y407359527D01*
X164757721Y407402043D01*
X164735622Y407474895D01*
X164678296Y407582144D01*
X164601149Y407676149D01*
X164507144Y407753296D01*
X164399895Y407810622D01*
X164283523Y407845923D01*
X164162500Y407857843D01*
X163662500Y407857843D01*
X163541477Y407845923D01*
X163425105Y407810622D01*
X163317856Y407753296D01*
X163223851Y407676149D01*
X163146704Y407582144D01*
X163089378Y407474895D01*
X163054077Y407358523D01*
X163042157Y407237500D01*
X163042157Y406762500D01*
X163054077Y406641477D01*
X163089378Y406525105D01*
X163146704Y406417856D01*
X163223851Y406323851D01*
X163317856Y406246704D01*
X163347236Y406231000D01*
X162652764Y406231000D01*
X162682144Y406246704D01*
X162776149Y406323851D01*
X162853296Y406417856D01*
X162910622Y406525105D01*
X162945923Y406641477D01*
X162957843Y406762500D01*
X162957843Y407237500D01*
X162945923Y407358523D01*
X162910622Y407474895D01*
X162853296Y407582144D01*
X162776149Y407676149D01*
X162682144Y407753296D01*
X162643500Y407773952D01*
X162643500Y408179854D01*
X162674895Y408189378D01*
X162782144Y408246704D01*
X162876149Y408323851D01*
X162953296Y408417856D01*
X163000000Y408505233D01*
X163046704Y408417856D01*
X163123851Y408323851D01*
X163217856Y408246704D01*
X163325105Y408189378D01*
X163441477Y408154077D01*
X163562500Y408142157D01*
X164162500Y408142157D01*
X164283523Y408154077D01*
X164399895Y408189378D01*
X164507144Y408246704D01*
X164601149Y408323851D01*
X164678296Y408417856D01*
X164735622Y408525105D01*
X164770923Y408641477D01*
X164782843Y408762500D01*
X164782843Y409237500D01*
X164770923Y409358523D01*
X164735622Y409474895D01*
X164678296Y409582144D01*
X164601149Y409676149D01*
X164507144Y409753296D01*
X164506000Y409753907D01*
X164506000Y411199323D01*
X164594644Y411246704D01*
X164688649Y411323851D01*
X164765796Y411417856D01*
X164806496Y411494000D01*
X166150135Y411494000D01*
X166154077Y411453977D01*
X166189378Y411337605D01*
X166246704Y411230356D01*
X166323851Y411136351D01*
X166417856Y411059204D01*
X166525105Y411001878D01*
X166641477Y410966577D01*
X166762500Y410954657D01*
X167237500Y410954657D01*
X167358523Y410966577D01*
X167474895Y411001878D01*
X167582144Y411059204D01*
X167676149Y411136351D01*
X167753296Y411230356D01*
X167810622Y411337605D01*
X167845923Y411453977D01*
X167857843Y411575000D01*
X167857843Y412075000D01*
X167845923Y412196023D01*
X167816199Y412294010D01*
X168990399Y412294010D01*
X170219000Y411065408D01*
G04 #@! TA.AperFunction,Conductor*
D20*
G36*
X170219000Y411065408D02*
G01*
X170219000Y410923078D01*
X170249013Y410772191D01*
X170307887Y410630058D01*
X170393358Y410502141D01*
X170502141Y410393358D01*
X170630058Y410307887D01*
X170741602Y410261684D01*
X168884775Y408404856D01*
X168865463Y408389007D01*
X168802231Y408311959D01*
X168755245Y408224054D01*
X168726312Y408128672D01*
X168718990Y408054333D01*
X168718990Y408054326D01*
X168716543Y408029480D01*
X168718990Y408004634D01*
X168718991Y404488098D01*
X168716543Y404463242D01*
X168726312Y404364050D01*
X168755245Y404268668D01*
X168775485Y404230802D01*
X168802232Y404180763D01*
X168865464Y404103715D01*
X168884770Y404087871D01*
X169177696Y403794945D01*
X169177395Y403793953D01*
X169167157Y403690000D01*
X169167157Y403390000D01*
X169177395Y403286047D01*
X169207717Y403186090D01*
X169256957Y403093968D01*
X169323223Y403013223D01*
X169403968Y402946957D01*
X169482464Y402905000D01*
X169403968Y402863043D01*
X169323223Y402796777D01*
X169306172Y402776000D01*
X166359254Y402776000D01*
X166334400Y402778448D01*
X166276620Y402772757D01*
X166235207Y402768678D01*
X166139825Y402739745D01*
X166051921Y402692759D01*
X165974873Y402629527D01*
X165959030Y402610222D01*
X165699915Y402351107D01*
X165692113Y402369942D01*
X165606642Y402497859D01*
X165506000Y402598501D01*
X165506000Y402681947D01*
X165540344Y402700304D01*
X165634349Y402777451D01*
X165711496Y402871456D01*
X165768822Y402978705D01*
X165804123Y403095077D01*
X165816043Y403216100D01*
X165816043Y403462500D01*
X165886928Y403462500D01*
X165899188Y403338018D01*
X165935498Y403218320D01*
X165994463Y403108006D01*
X166073815Y403011315D01*
X166170506Y402931963D01*
X166280820Y402872998D01*
X166400518Y402836688D01*
X166525000Y402824428D01*
X166714250Y402827500D01*
X166873000Y402986250D01*
X166873000Y403873000D01*
X167127000Y403873000D01*
X167127000Y402986250D01*
X167285750Y402827500D01*
X167475000Y402824428D01*
X167599482Y402836688D01*
X167719180Y402872998D01*
X167829494Y402931963D01*
X167926185Y403011315D01*
X168005537Y403108006D01*
X168064502Y403218320D01*
X168100812Y403338018D01*
X168113072Y403462500D01*
X168110000Y403714250D01*
X167951250Y403873000D01*
X167127000Y403873000D01*
X166873000Y403873000D01*
X166048750Y403873000D01*
X165890000Y403714250D01*
X165886928Y403462500D01*
X165816043Y403462500D01*
X165816043Y403691100D01*
X165804123Y403812123D01*
X165768822Y403928495D01*
X165711496Y404035744D01*
X165634349Y404129749D01*
X165540344Y404206896D01*
X165506000Y404225253D01*
X165506000Y404401499D01*
X165606642Y404502141D01*
X165692113Y404630058D01*
X165750987Y404772191D01*
X165781000Y404923078D01*
X165781000Y405076922D01*
X165752739Y405219000D01*
X166179854Y405219000D01*
X166189378Y405187605D01*
X166234893Y405102453D01*
X166170506Y405068037D01*
X166073815Y404988685D01*
X165994463Y404891994D01*
X165935498Y404781680D01*
X165899188Y404661982D01*
X165886928Y404537500D01*
X165890000Y404285750D01*
X166048750Y404127000D01*
X166873000Y404127000D01*
X166873000Y404147000D01*
X167127000Y404147000D01*
X167127000Y404127000D01*
X167951250Y404127000D01*
X168110000Y404285750D01*
X168113072Y404537500D01*
X168100812Y404661982D01*
X168064502Y404781680D01*
X168005537Y404891994D01*
X167926185Y404988685D01*
X167829494Y405068037D01*
X167765107Y405102453D01*
X167810622Y405187605D01*
X167845923Y405303977D01*
X167857843Y405425000D01*
X167857843Y406025000D01*
X167845923Y406146023D01*
X167810622Y406262395D01*
X167753296Y406369644D01*
X167676149Y406463649D01*
X167582144Y406540796D01*
X167506000Y406581496D01*
X167506000Y409193504D01*
X167582144Y409234204D01*
X167676149Y409311351D01*
X167753296Y409405356D01*
X167810622Y409512605D01*
X167845923Y409628977D01*
X167857843Y409750000D01*
X167857843Y410250000D01*
X167845923Y410371023D01*
X167810622Y410487395D01*
X167753296Y410594644D01*
X167676149Y410688649D01*
X167582144Y410765796D01*
X167474895Y410823122D01*
X167358523Y410858423D01*
X167237500Y410870343D01*
X166762500Y410870343D01*
X166641477Y410858423D01*
X166525105Y410823122D01*
X166417856Y410765796D01*
X166323851Y410688649D01*
X166246704Y410594644D01*
X166189378Y410487395D01*
X166154077Y410371023D01*
X166142157Y410250000D01*
X166142157Y409750000D01*
X166154077Y409628977D01*
X166189378Y409512605D01*
X166246704Y409405356D01*
X166323851Y409311351D01*
X166417856Y409234204D01*
X166494000Y409193504D01*
X166494001Y406581496D01*
X166417856Y406540796D01*
X166323851Y406463649D01*
X166246704Y406369644D01*
X166189378Y406262395D01*
X166179854Y406231000D01*
X165752739Y406231000D01*
X165781000Y406373078D01*
X165781000Y406526922D01*
X165750987Y406677809D01*
X165692113Y406819942D01*
X165606642Y406947859D01*
X165497859Y407056642D01*
X165369942Y407142113D01*
X165227809Y407200987D01*
X165076922Y407231000D01*
X164934591Y407231000D01*
X164825376Y407340215D01*
X164809527Y407359527D01*
X164757721Y407402043D01*
X164735622Y407474895D01*
X164678296Y407582144D01*
X164601149Y407676149D01*
X164507144Y407753296D01*
X164399895Y407810622D01*
X164283523Y407845923D01*
X164162500Y407857843D01*
X163662500Y407857843D01*
X163541477Y407845923D01*
X163425105Y407810622D01*
X163317856Y407753296D01*
X163223851Y407676149D01*
X163146704Y407582144D01*
X163089378Y407474895D01*
X163054077Y407358523D01*
X163042157Y407237500D01*
X163042157Y406762500D01*
X163054077Y406641477D01*
X163089378Y406525105D01*
X163146704Y406417856D01*
X163223851Y406323851D01*
X163317856Y406246704D01*
X163347236Y406231000D01*
X162652764Y406231000D01*
X162682144Y406246704D01*
X162776149Y406323851D01*
X162853296Y406417856D01*
X162910622Y406525105D01*
X162945923Y406641477D01*
X162957843Y406762500D01*
X162957843Y407237500D01*
X162945923Y407358523D01*
X162910622Y407474895D01*
X162853296Y407582144D01*
X162776149Y407676149D01*
X162682144Y407753296D01*
X162643500Y407773952D01*
X162643500Y408179854D01*
X162674895Y408189378D01*
X162782144Y408246704D01*
X162876149Y408323851D01*
X162953296Y408417856D01*
X163000000Y408505233D01*
X163046704Y408417856D01*
X163123851Y408323851D01*
X163217856Y408246704D01*
X163325105Y408189378D01*
X163441477Y408154077D01*
X163562500Y408142157D01*
X164162500Y408142157D01*
X164283523Y408154077D01*
X164399895Y408189378D01*
X164507144Y408246704D01*
X164601149Y408323851D01*
X164678296Y408417856D01*
X164735622Y408525105D01*
X164770923Y408641477D01*
X164782843Y408762500D01*
X164782843Y409237500D01*
X164770923Y409358523D01*
X164735622Y409474895D01*
X164678296Y409582144D01*
X164601149Y409676149D01*
X164507144Y409753296D01*
X164506000Y409753907D01*
X164506000Y411199323D01*
X164594644Y411246704D01*
X164688649Y411323851D01*
X164765796Y411417856D01*
X164806496Y411494000D01*
X166150135Y411494000D01*
X166154077Y411453977D01*
X166189378Y411337605D01*
X166246704Y411230356D01*
X166323851Y411136351D01*
X166417856Y411059204D01*
X166525105Y411001878D01*
X166641477Y410966577D01*
X166762500Y410954657D01*
X167237500Y410954657D01*
X167358523Y410966577D01*
X167474895Y411001878D01*
X167582144Y411059204D01*
X167676149Y411136351D01*
X167753296Y411230356D01*
X167810622Y411337605D01*
X167845923Y411453977D01*
X167857843Y411575000D01*
X167857843Y412075000D01*
X167845923Y412196023D01*
X167816199Y412294010D01*
X168990399Y412294010D01*
X170219000Y411065408D01*
G37*
G04 #@! TD.AperFunction*
D19*
X146630058Y406307887D02*
X146772191Y406249013D01*
X146923078Y406219000D01*
X147076922Y406219000D01*
X147227809Y406249013D01*
X147369942Y406307887D01*
X147397074Y406326016D01*
X147398851Y406323851D01*
X147492856Y406246704D01*
X147600105Y406189378D01*
X147716477Y406154077D01*
X147837500Y406142157D01*
X148229751Y406142157D01*
X148317579Y406054329D01*
X148214500Y405951250D01*
X148214500Y405127000D01*
X148234500Y405127000D01*
X148234500Y404873000D01*
X148214500Y404873000D01*
X148214500Y404853000D01*
X147960500Y404853000D01*
X147960500Y404873000D01*
X147940500Y404873000D01*
X147940500Y405127000D01*
X147960500Y405127000D01*
X147960500Y405951250D01*
X147801750Y406110000D01*
X147600000Y406113072D01*
X147475518Y406100812D01*
X147355820Y406064502D01*
X147245506Y406005537D01*
X147148815Y405926185D01*
X147069463Y405829494D01*
X147010498Y405719180D01*
X146974188Y405599482D01*
X146969383Y405550698D01*
X146506000Y406014081D01*
X146506000Y406390780D01*
X146630058Y406307887D01*
G04 #@! TA.AperFunction,Conductor*
D20*
G36*
X146630058Y406307887D02*
G01*
X146772191Y406249013D01*
X146923078Y406219000D01*
X147076922Y406219000D01*
X147227809Y406249013D01*
X147369942Y406307887D01*
X147397074Y406326016D01*
X147398851Y406323851D01*
X147492856Y406246704D01*
X147600105Y406189378D01*
X147716477Y406154077D01*
X147837500Y406142157D01*
X148229751Y406142157D01*
X148317579Y406054329D01*
X148214500Y405951250D01*
X148214500Y405127000D01*
X148234500Y405127000D01*
X148234500Y404873000D01*
X148214500Y404873000D01*
X148214500Y404853000D01*
X147960500Y404853000D01*
X147960500Y404873000D01*
X147940500Y404873000D01*
X147940500Y405127000D01*
X147960500Y405127000D01*
X147960500Y405951250D01*
X147801750Y406110000D01*
X147600000Y406113072D01*
X147475518Y406100812D01*
X147355820Y406064502D01*
X147245506Y406005537D01*
X147148815Y405926185D01*
X147069463Y405829494D01*
X147010498Y405719180D01*
X146974188Y405599482D01*
X146969383Y405550698D01*
X146506000Y406014081D01*
X146506000Y406390780D01*
X146630058Y406307887D01*
G37*
G04 #@! TD.AperFunction*
D19*
X161304657Y412237500D02*
X161304657Y411762500D01*
X161316577Y411641477D01*
X161351878Y411525105D01*
X161409204Y411417856D01*
X161486351Y411323851D01*
X161553309Y411268901D01*
X159550972Y409266563D01*
X159402823Y409327929D01*
X159136017Y409381000D01*
X158863983Y409381000D01*
X158597177Y409327929D01*
X158345851Y409223826D01*
X158119664Y409072693D01*
X157927307Y408880336D01*
X157776174Y408654149D01*
X157672071Y408402823D01*
X157619000Y408136017D01*
X157619000Y407863983D01*
X157672071Y407597177D01*
X157776174Y407345851D01*
X157904863Y407153254D01*
X156405149Y405653540D01*
X156411000Y405712946D01*
X156413448Y405737800D01*
X156411000Y405762654D01*
X156411000Y410066259D01*
X157557104Y411212362D01*
X157600105Y411189378D01*
X157716477Y411154077D01*
X157837500Y411142157D01*
X158437500Y411142157D01*
X158558523Y411154077D01*
X158674895Y411189378D01*
X158760047Y411234893D01*
X158794463Y411170506D01*
X158873815Y411073815D01*
X158970506Y410994463D01*
X159080820Y410935498D01*
X159200518Y410899188D01*
X159325000Y410886928D01*
X159576750Y410890000D01*
X159735500Y411048750D01*
X159735500Y411873000D01*
X159989500Y411873000D01*
X159989500Y411048750D01*
X160148250Y410890000D01*
X160400000Y410886928D01*
X160524482Y410899188D01*
X160644180Y410935498D01*
X160754494Y410994463D01*
X160851185Y411073815D01*
X160930537Y411170506D01*
X160989502Y411280820D01*
X161025812Y411400518D01*
X161038072Y411525000D01*
X161035000Y411714250D01*
X160876250Y411873000D01*
X159989500Y411873000D01*
X159735500Y411873000D01*
X159715500Y411873000D01*
X159715500Y412127000D01*
X159735500Y412127000D01*
X159735500Y412147000D01*
X159989500Y412147000D01*
X159989500Y412127000D01*
X160876250Y412127000D01*
X161035000Y412285750D01*
X161035134Y412294010D01*
X161310223Y412294010D01*
X161304657Y412237500D01*
G04 #@! TA.AperFunction,Conductor*
D20*
G36*
X161304657Y412237500D02*
G01*
X161304657Y411762500D01*
X161316577Y411641477D01*
X161351878Y411525105D01*
X161409204Y411417856D01*
X161486351Y411323851D01*
X161553309Y411268901D01*
X159550972Y409266563D01*
X159402823Y409327929D01*
X159136017Y409381000D01*
X158863983Y409381000D01*
X158597177Y409327929D01*
X158345851Y409223826D01*
X158119664Y409072693D01*
X157927307Y408880336D01*
X157776174Y408654149D01*
X157672071Y408402823D01*
X157619000Y408136017D01*
X157619000Y407863983D01*
X157672071Y407597177D01*
X157776174Y407345851D01*
X157904863Y407153254D01*
X156405149Y405653540D01*
X156411000Y405712946D01*
X156413448Y405737800D01*
X156411000Y405762654D01*
X156411000Y410066259D01*
X157557104Y411212362D01*
X157600105Y411189378D01*
X157716477Y411154077D01*
X157837500Y411142157D01*
X158437500Y411142157D01*
X158558523Y411154077D01*
X158674895Y411189378D01*
X158760047Y411234893D01*
X158794463Y411170506D01*
X158873815Y411073815D01*
X158970506Y410994463D01*
X159080820Y410935498D01*
X159200518Y410899188D01*
X159325000Y410886928D01*
X159576750Y410890000D01*
X159735500Y411048750D01*
X159735500Y411873000D01*
X159989500Y411873000D01*
X159989500Y411048750D01*
X160148250Y410890000D01*
X160400000Y410886928D01*
X160524482Y410899188D01*
X160644180Y410935498D01*
X160754494Y410994463D01*
X160851185Y411073815D01*
X160930537Y411170506D01*
X160989502Y411280820D01*
X161025812Y411400518D01*
X161038072Y411525000D01*
X161035000Y411714250D01*
X160876250Y411873000D01*
X159989500Y411873000D01*
X159735500Y411873000D01*
X159715500Y411873000D01*
X159715500Y412127000D01*
X159735500Y412127000D01*
X159735500Y412147000D01*
X159989500Y412147000D01*
X159989500Y412127000D01*
X160876250Y412127000D01*
X161035000Y412285750D01*
X161035134Y412294010D01*
X161310223Y412294010D01*
X161304657Y412237500D01*
G37*
G04 #@! TD.AperFunction*
M02*
