G04 #@! TF.GenerationSoftware,KiCad,Pcbnew,5.1.10*
G04 #@! TF.CreationDate,2021-08-14T15:52:34+12:00*
G04 #@! TF.ProjectId,DClassAmplifier,44436c61-7373-4416-9d70-6c6966696572,rev?*
G04 #@! TF.SameCoordinates,Original*
G04 #@! TF.FileFunction,Soldermask,Top*
G04 #@! TF.FilePolarity,Negative*
%FSLAX46Y46*%
G04 Gerber Fmt 4.6, Leading zero omitted, Abs format (unit mm)*
G04 Created by KiCad (PCBNEW 5.1.10) date 2021-08-14 15:52:34*
%MOMM*%
%LPD*%
G01*
G04 APERTURE LIST*
%ADD10C,1.500000*%
%ADD11C,3.000000*%
%ADD12R,3.000000X3.000000*%
%ADD13R,6.400000X5.800000*%
%ADD14R,2.200000X1.200000*%
%ADD15O,2.000000X1.905000*%
%ADD16R,2.000000X1.905000*%
%ADD17O,3.500000X3.500000*%
%ADD18R,0.533400X1.460500*%
%ADD19R,1.473200X0.355600*%
%ADD20C,2.000000*%
%ADD21C,0.100000*%
%ADD22C,1.905000*%
%ADD23R,1.650000X2.600000*%
%ADD24R,0.850000X0.300000*%
%ADD25C,1.600000*%
%ADD26R,1.600000X1.600000*%
%ADD27C,2.400000*%
%ADD28R,2.400000X2.400000*%
%ADD29C,5.700000*%
G04 APERTURE END LIST*
D10*
X98970000Y-78220000D03*
X121320000Y-75650000D03*
D11*
X107170000Y-61500000D03*
D12*
X112250000Y-61500000D03*
D13*
X147655000Y-72885000D03*
D14*
X141355000Y-75165000D03*
X141355000Y-70605000D03*
G36*
G01*
X139327500Y-74417500D02*
X138852500Y-74417500D01*
G75*
G02*
X138615000Y-74180000I0J237500D01*
G01*
X138615000Y-73580000D01*
G75*
G02*
X138852500Y-73342500I237500J0D01*
G01*
X139327500Y-73342500D01*
G75*
G02*
X139565000Y-73580000I0J-237500D01*
G01*
X139565000Y-74180000D01*
G75*
G02*
X139327500Y-74417500I-237500J0D01*
G01*
G37*
G36*
G01*
X139327500Y-76142500D02*
X138852500Y-76142500D01*
G75*
G02*
X138615000Y-75905000I0J237500D01*
G01*
X138615000Y-75305000D01*
G75*
G02*
X138852500Y-75067500I237500J0D01*
G01*
X139327500Y-75067500D01*
G75*
G02*
X139565000Y-75305000I0J-237500D01*
G01*
X139565000Y-75905000D01*
G75*
G02*
X139327500Y-76142500I-237500J0D01*
G01*
G37*
G36*
G01*
X142575000Y-68757500D02*
X142575000Y-68282500D01*
G75*
G02*
X142812500Y-68045000I237500J0D01*
G01*
X143412500Y-68045000D01*
G75*
G02*
X143650000Y-68282500I0J-237500D01*
G01*
X143650000Y-68757500D01*
G75*
G02*
X143412500Y-68995000I-237500J0D01*
G01*
X142812500Y-68995000D01*
G75*
G02*
X142575000Y-68757500I0J237500D01*
G01*
G37*
G36*
G01*
X140850000Y-68757500D02*
X140850000Y-68282500D01*
G75*
G02*
X141087500Y-68045000I237500J0D01*
G01*
X141687500Y-68045000D01*
G75*
G02*
X141925000Y-68282500I0J-237500D01*
G01*
X141925000Y-68757500D01*
G75*
G02*
X141687500Y-68995000I-237500J0D01*
G01*
X141087500Y-68995000D01*
G75*
G02*
X140850000Y-68757500I0J237500D01*
G01*
G37*
D15*
X131400000Y-118080000D03*
X131400000Y-115540000D03*
D16*
X131400000Y-113000000D03*
D17*
X148060000Y-115540000D03*
D15*
X131400000Y-107280000D03*
X131400000Y-104740000D03*
D16*
X131400000Y-102200000D03*
D17*
X148060000Y-104740000D03*
D15*
X131400000Y-95180000D03*
X131400000Y-92640000D03*
D16*
X131400000Y-90100000D03*
D17*
X148060000Y-92640000D03*
D15*
X131400000Y-84480000D03*
X131400000Y-81940000D03*
D16*
X131400000Y-79400000D03*
D17*
X148060000Y-81940000D03*
D18*
X102395000Y-98654150D03*
X101125000Y-98654150D03*
X99855000Y-98654150D03*
X98585000Y-98654150D03*
X98585000Y-93205850D03*
X99855000Y-93205850D03*
X101125000Y-93205850D03*
X102395000Y-93205850D03*
D19*
X111948800Y-82180002D03*
X111948800Y-82830001D03*
X111948800Y-83480002D03*
X111948800Y-84130001D03*
X111948800Y-84780002D03*
X111948800Y-85430001D03*
X111948800Y-86080002D03*
X106310000Y-86080000D03*
X106310000Y-85430001D03*
X106310000Y-84780000D03*
X106310000Y-84130001D03*
X106310000Y-83480002D03*
X106310000Y-82830001D03*
X106310000Y-82180000D03*
D20*
X177500000Y-85250000D03*
X177500000Y-112750000D03*
G36*
G01*
X118812500Y-80437500D02*
X118812500Y-80912500D01*
G75*
G02*
X118575000Y-81150000I-237500J0D01*
G01*
X118075000Y-81150000D01*
G75*
G02*
X117837500Y-80912500I0J237500D01*
G01*
X117837500Y-80437500D01*
G75*
G02*
X118075000Y-80200000I237500J0D01*
G01*
X118575000Y-80200000D01*
G75*
G02*
X118812500Y-80437500I0J-237500D01*
G01*
G37*
G36*
G01*
X120637500Y-80437500D02*
X120637500Y-80912500D01*
G75*
G02*
X120400000Y-81150000I-237500J0D01*
G01*
X119900000Y-81150000D01*
G75*
G02*
X119662500Y-80912500I0J237500D01*
G01*
X119662500Y-80437500D01*
G75*
G02*
X119900000Y-80200000I237500J0D01*
G01*
X120400000Y-80200000D01*
G75*
G02*
X120637500Y-80437500I0J-237500D01*
G01*
G37*
G36*
G01*
X110237500Y-88975000D02*
X109762500Y-88975000D01*
G75*
G02*
X109525000Y-88737500I0J237500D01*
G01*
X109525000Y-88237500D01*
G75*
G02*
X109762500Y-88000000I237500J0D01*
G01*
X110237500Y-88000000D01*
G75*
G02*
X110475000Y-88237500I0J-237500D01*
G01*
X110475000Y-88737500D01*
G75*
G02*
X110237500Y-88975000I-237500J0D01*
G01*
G37*
G36*
G01*
X110237500Y-90800000D02*
X109762500Y-90800000D01*
G75*
G02*
X109525000Y-90562500I0J237500D01*
G01*
X109525000Y-90062500D01*
G75*
G02*
X109762500Y-89825000I237500J0D01*
G01*
X110237500Y-89825000D01*
G75*
G02*
X110475000Y-90062500I0J-237500D01*
G01*
X110475000Y-90562500D01*
G75*
G02*
X110237500Y-90800000I-237500J0D01*
G01*
G37*
G36*
G01*
X112062500Y-90087500D02*
X112062500Y-90562500D01*
G75*
G02*
X111825000Y-90800000I-237500J0D01*
G01*
X111325000Y-90800000D01*
G75*
G02*
X111087500Y-90562500I0J237500D01*
G01*
X111087500Y-90087500D01*
G75*
G02*
X111325000Y-89850000I237500J0D01*
G01*
X111825000Y-89850000D01*
G75*
G02*
X112062500Y-90087500I0J-237500D01*
G01*
G37*
G36*
G01*
X113887500Y-90087500D02*
X113887500Y-90562500D01*
G75*
G02*
X113650000Y-90800000I-237500J0D01*
G01*
X113150000Y-90800000D01*
G75*
G02*
X112912500Y-90562500I0J237500D01*
G01*
X112912500Y-90087500D01*
G75*
G02*
X113150000Y-89850000I237500J0D01*
G01*
X113650000Y-89850000D01*
G75*
G02*
X113887500Y-90087500I0J-237500D01*
G01*
G37*
D21*
G36*
X113125000Y-87550602D02*
G01*
X113149534Y-87550602D01*
X113198365Y-87555412D01*
X113246490Y-87564984D01*
X113293445Y-87579228D01*
X113338778Y-87598005D01*
X113382051Y-87621136D01*
X113422850Y-87648396D01*
X113460779Y-87679524D01*
X113495476Y-87714221D01*
X113526604Y-87752150D01*
X113553864Y-87792949D01*
X113576995Y-87836222D01*
X113595772Y-87881555D01*
X113610016Y-87928510D01*
X113619588Y-87976635D01*
X113624398Y-88025466D01*
X113624398Y-88050000D01*
X113625000Y-88050000D01*
X113625000Y-88550000D01*
X113624398Y-88550000D01*
X113624398Y-88574534D01*
X113619588Y-88623365D01*
X113610016Y-88671490D01*
X113595772Y-88718445D01*
X113576995Y-88763778D01*
X113553864Y-88807051D01*
X113526604Y-88847850D01*
X113495476Y-88885779D01*
X113460779Y-88920476D01*
X113422850Y-88951604D01*
X113382051Y-88978864D01*
X113338778Y-89001995D01*
X113293445Y-89020772D01*
X113246490Y-89035016D01*
X113198365Y-89044588D01*
X113149534Y-89049398D01*
X113125000Y-89049398D01*
X113125000Y-89050000D01*
X112625000Y-89050000D01*
X112625000Y-87550000D01*
X113125000Y-87550000D01*
X113125000Y-87550602D01*
G37*
G36*
X112325000Y-89050000D02*
G01*
X111825000Y-89050000D01*
X111825000Y-89049398D01*
X111800466Y-89049398D01*
X111751635Y-89044588D01*
X111703510Y-89035016D01*
X111656555Y-89020772D01*
X111611222Y-89001995D01*
X111567949Y-88978864D01*
X111527150Y-88951604D01*
X111489221Y-88920476D01*
X111454524Y-88885779D01*
X111423396Y-88847850D01*
X111396136Y-88807051D01*
X111373005Y-88763778D01*
X111354228Y-88718445D01*
X111339984Y-88671490D01*
X111330412Y-88623365D01*
X111325602Y-88574534D01*
X111325602Y-88550000D01*
X111325000Y-88550000D01*
X111325000Y-88050000D01*
X111325602Y-88050000D01*
X111325602Y-88025466D01*
X111330412Y-87976635D01*
X111339984Y-87928510D01*
X111354228Y-87881555D01*
X111373005Y-87836222D01*
X111396136Y-87792949D01*
X111423396Y-87752150D01*
X111454524Y-87714221D01*
X111489221Y-87679524D01*
X111527150Y-87648396D01*
X111567949Y-87621136D01*
X111611222Y-87598005D01*
X111656555Y-87579228D01*
X111703510Y-87564984D01*
X111751635Y-87555412D01*
X111800466Y-87550602D01*
X111825000Y-87550602D01*
X111825000Y-87550000D01*
X112325000Y-87550000D01*
X112325000Y-89050000D01*
G37*
G36*
G01*
X104375000Y-78612500D02*
X104375000Y-78137500D01*
G75*
G02*
X104612500Y-77900000I237500J0D01*
G01*
X105112500Y-77900000D01*
G75*
G02*
X105350000Y-78137500I0J-237500D01*
G01*
X105350000Y-78612500D01*
G75*
G02*
X105112500Y-78850000I-237500J0D01*
G01*
X104612500Y-78850000D01*
G75*
G02*
X104375000Y-78612500I0J237500D01*
G01*
G37*
G36*
G01*
X102550000Y-78612500D02*
X102550000Y-78137500D01*
G75*
G02*
X102787500Y-77900000I237500J0D01*
G01*
X103287500Y-77900000D01*
G75*
G02*
X103525000Y-78137500I0J-237500D01*
G01*
X103525000Y-78612500D01*
G75*
G02*
X103287500Y-78850000I-237500J0D01*
G01*
X102787500Y-78850000D01*
G75*
G02*
X102550000Y-78612500I0J237500D01*
G01*
G37*
G36*
G01*
X106162500Y-79725000D02*
X106637500Y-79725000D01*
G75*
G02*
X106875000Y-79962500I0J-237500D01*
G01*
X106875000Y-80462500D01*
G75*
G02*
X106637500Y-80700000I-237500J0D01*
G01*
X106162500Y-80700000D01*
G75*
G02*
X105925000Y-80462500I0J237500D01*
G01*
X105925000Y-79962500D01*
G75*
G02*
X106162500Y-79725000I237500J0D01*
G01*
G37*
G36*
G01*
X106162500Y-77900000D02*
X106637500Y-77900000D01*
G75*
G02*
X106875000Y-78137500I0J-237500D01*
G01*
X106875000Y-78637500D01*
G75*
G02*
X106637500Y-78875000I-237500J0D01*
G01*
X106162500Y-78875000D01*
G75*
G02*
X105925000Y-78637500I0J237500D01*
G01*
X105925000Y-78137500D01*
G75*
G02*
X106162500Y-77900000I237500J0D01*
G01*
G37*
G36*
X103300000Y-81199398D02*
G01*
X103275466Y-81199398D01*
X103226635Y-81194588D01*
X103178510Y-81185016D01*
X103131555Y-81170772D01*
X103086222Y-81151995D01*
X103042949Y-81128864D01*
X103002150Y-81101604D01*
X102964221Y-81070476D01*
X102929524Y-81035779D01*
X102898396Y-80997850D01*
X102871136Y-80957051D01*
X102848005Y-80913778D01*
X102829228Y-80868445D01*
X102814984Y-80821490D01*
X102805412Y-80773365D01*
X102800602Y-80724534D01*
X102800602Y-80700000D01*
X102800000Y-80700000D01*
X102800000Y-80200000D01*
X102800602Y-80200000D01*
X102800602Y-80175466D01*
X102805412Y-80126635D01*
X102814984Y-80078510D01*
X102829228Y-80031555D01*
X102848005Y-79986222D01*
X102871136Y-79942949D01*
X102898396Y-79902150D01*
X102929524Y-79864221D01*
X102964221Y-79829524D01*
X103002150Y-79798396D01*
X103042949Y-79771136D01*
X103086222Y-79748005D01*
X103131555Y-79729228D01*
X103178510Y-79714984D01*
X103226635Y-79705412D01*
X103275466Y-79700602D01*
X103300000Y-79700602D01*
X103300000Y-79700000D01*
X103800000Y-79700000D01*
X103800000Y-81200000D01*
X103300000Y-81200000D01*
X103300000Y-81199398D01*
G37*
G36*
X104100000Y-79700000D02*
G01*
X104600000Y-79700000D01*
X104600000Y-79700602D01*
X104624534Y-79700602D01*
X104673365Y-79705412D01*
X104721490Y-79714984D01*
X104768445Y-79729228D01*
X104813778Y-79748005D01*
X104857051Y-79771136D01*
X104897850Y-79798396D01*
X104935779Y-79829524D01*
X104970476Y-79864221D01*
X105001604Y-79902150D01*
X105028864Y-79942949D01*
X105051995Y-79986222D01*
X105070772Y-80031555D01*
X105085016Y-80078510D01*
X105094588Y-80126635D01*
X105099398Y-80175466D01*
X105099398Y-80200000D01*
X105100000Y-80200000D01*
X105100000Y-80700000D01*
X105099398Y-80700000D01*
X105099398Y-80724534D01*
X105094588Y-80773365D01*
X105085016Y-80821490D01*
X105070772Y-80868445D01*
X105051995Y-80913778D01*
X105028864Y-80957051D01*
X105001604Y-80997850D01*
X104970476Y-81035779D01*
X104935779Y-81070476D01*
X104897850Y-81101604D01*
X104857051Y-81128864D01*
X104813778Y-81151995D01*
X104768445Y-81170772D01*
X104721490Y-81185016D01*
X104673365Y-81194588D01*
X104624534Y-81199398D01*
X104600000Y-81199398D01*
X104600000Y-81200000D01*
X104100000Y-81200000D01*
X104100000Y-79700000D01*
G37*
G36*
G01*
X100225000Y-83192500D02*
X100225000Y-83667500D01*
G75*
G02*
X99987500Y-83905000I-237500J0D01*
G01*
X99387500Y-83905000D01*
G75*
G02*
X99150000Y-83667500I0J237500D01*
G01*
X99150000Y-83192500D01*
G75*
G02*
X99387500Y-82955000I237500J0D01*
G01*
X99987500Y-82955000D01*
G75*
G02*
X100225000Y-83192500I0J-237500D01*
G01*
G37*
G36*
G01*
X101950000Y-83192500D02*
X101950000Y-83667500D01*
G75*
G02*
X101712500Y-83905000I-237500J0D01*
G01*
X101112500Y-83905000D01*
G75*
G02*
X100875000Y-83667500I0J237500D01*
G01*
X100875000Y-83192500D01*
G75*
G02*
X101112500Y-82955000I237500J0D01*
G01*
X101712500Y-82955000D01*
G75*
G02*
X101950000Y-83192500I0J-237500D01*
G01*
G37*
G36*
G01*
X103802500Y-99625000D02*
X104277500Y-99625000D01*
G75*
G02*
X104515000Y-99862500I0J-237500D01*
G01*
X104515000Y-100462500D01*
G75*
G02*
X104277500Y-100700000I-237500J0D01*
G01*
X103802500Y-100700000D01*
G75*
G02*
X103565000Y-100462500I0J237500D01*
G01*
X103565000Y-99862500D01*
G75*
G02*
X103802500Y-99625000I237500J0D01*
G01*
G37*
G36*
G01*
X103802500Y-97900000D02*
X104277500Y-97900000D01*
G75*
G02*
X104515000Y-98137500I0J-237500D01*
G01*
X104515000Y-98737500D01*
G75*
G02*
X104277500Y-98975000I-237500J0D01*
G01*
X103802500Y-98975000D01*
G75*
G02*
X103565000Y-98737500I0J237500D01*
G01*
X103565000Y-98137500D01*
G75*
G02*
X103802500Y-97900000I237500J0D01*
G01*
G37*
G36*
G01*
X108625000Y-92787500D02*
X108625000Y-93262500D01*
G75*
G02*
X108387500Y-93500000I-237500J0D01*
G01*
X107787500Y-93500000D01*
G75*
G02*
X107550000Y-93262500I0J237500D01*
G01*
X107550000Y-92787500D01*
G75*
G02*
X107787500Y-92550000I237500J0D01*
G01*
X108387500Y-92550000D01*
G75*
G02*
X108625000Y-92787500I0J-237500D01*
G01*
G37*
G36*
G01*
X110350000Y-92787500D02*
X110350000Y-93262500D01*
G75*
G02*
X110112500Y-93500000I-237500J0D01*
G01*
X109512500Y-93500000D01*
G75*
G02*
X109275000Y-93262500I0J237500D01*
G01*
X109275000Y-92787500D01*
G75*
G02*
X109512500Y-92550000I237500J0D01*
G01*
X110112500Y-92550000D01*
G75*
G02*
X110350000Y-92787500I0J-237500D01*
G01*
G37*
G36*
G01*
X100215000Y-80112500D02*
X100215000Y-80587500D01*
G75*
G02*
X99977500Y-80825000I-237500J0D01*
G01*
X99377500Y-80825000D01*
G75*
G02*
X99140000Y-80587500I0J237500D01*
G01*
X99140000Y-80112500D01*
G75*
G02*
X99377500Y-79875000I237500J0D01*
G01*
X99977500Y-79875000D01*
G75*
G02*
X100215000Y-80112500I0J-237500D01*
G01*
G37*
G36*
G01*
X101940000Y-80112500D02*
X101940000Y-80587500D01*
G75*
G02*
X101702500Y-80825000I-237500J0D01*
G01*
X101102500Y-80825000D01*
G75*
G02*
X100865000Y-80587500I0J237500D01*
G01*
X100865000Y-80112500D01*
G75*
G02*
X101102500Y-79875000I237500J0D01*
G01*
X101702500Y-79875000D01*
G75*
G02*
X101940000Y-80112500I0J-237500D01*
G01*
G37*
G36*
G01*
X100025000Y-100187500D02*
X100025000Y-100662500D01*
G75*
G02*
X99787500Y-100900000I-237500J0D01*
G01*
X99187500Y-100900000D01*
G75*
G02*
X98950000Y-100662500I0J237500D01*
G01*
X98950000Y-100187500D01*
G75*
G02*
X99187500Y-99950000I237500J0D01*
G01*
X99787500Y-99950000D01*
G75*
G02*
X100025000Y-100187500I0J-237500D01*
G01*
G37*
G36*
G01*
X101750000Y-100187500D02*
X101750000Y-100662500D01*
G75*
G02*
X101512500Y-100900000I-237500J0D01*
G01*
X100912500Y-100900000D01*
G75*
G02*
X100675000Y-100662500I0J237500D01*
G01*
X100675000Y-100187500D01*
G75*
G02*
X100912500Y-99950000I237500J0D01*
G01*
X101512500Y-99950000D01*
G75*
G02*
X101750000Y-100187500I0J-237500D01*
G01*
G37*
D10*
X109675000Y-78325000D03*
X112400000Y-93500000D03*
X123400000Y-102675000D03*
X191000000Y-106000000D03*
X191000000Y-91750000D03*
X123325000Y-90850000D03*
X104850000Y-104450000D03*
X108250000Y-109650000D03*
X108750000Y-114950000D03*
X112210000Y-67400000D03*
G36*
G01*
X107365000Y-99075000D02*
X107065000Y-99075000D01*
G75*
G02*
X106915000Y-98925000I0J150000D01*
G01*
X106915000Y-97275000D01*
G75*
G02*
X107065000Y-97125000I150000J0D01*
G01*
X107365000Y-97125000D01*
G75*
G02*
X107515000Y-97275000I0J-150000D01*
G01*
X107515000Y-98925000D01*
G75*
G02*
X107365000Y-99075000I-150000J0D01*
G01*
G37*
G36*
G01*
X108635000Y-99075000D02*
X108335000Y-99075000D01*
G75*
G02*
X108185000Y-98925000I0J150000D01*
G01*
X108185000Y-97275000D01*
G75*
G02*
X108335000Y-97125000I150000J0D01*
G01*
X108635000Y-97125000D01*
G75*
G02*
X108785000Y-97275000I0J-150000D01*
G01*
X108785000Y-98925000D01*
G75*
G02*
X108635000Y-99075000I-150000J0D01*
G01*
G37*
G36*
G01*
X109905000Y-99075000D02*
X109605000Y-99075000D01*
G75*
G02*
X109455000Y-98925000I0J150000D01*
G01*
X109455000Y-97275000D01*
G75*
G02*
X109605000Y-97125000I150000J0D01*
G01*
X109905000Y-97125000D01*
G75*
G02*
X110055000Y-97275000I0J-150000D01*
G01*
X110055000Y-98925000D01*
G75*
G02*
X109905000Y-99075000I-150000J0D01*
G01*
G37*
G36*
G01*
X111175000Y-99075000D02*
X110875000Y-99075000D01*
G75*
G02*
X110725000Y-98925000I0J150000D01*
G01*
X110725000Y-97275000D01*
G75*
G02*
X110875000Y-97125000I150000J0D01*
G01*
X111175000Y-97125000D01*
G75*
G02*
X111325000Y-97275000I0J-150000D01*
G01*
X111325000Y-98925000D01*
G75*
G02*
X111175000Y-99075000I-150000J0D01*
G01*
G37*
G36*
G01*
X112445000Y-99075000D02*
X112145000Y-99075000D01*
G75*
G02*
X111995000Y-98925000I0J150000D01*
G01*
X111995000Y-97275000D01*
G75*
G02*
X112145000Y-97125000I150000J0D01*
G01*
X112445000Y-97125000D01*
G75*
G02*
X112595000Y-97275000I0J-150000D01*
G01*
X112595000Y-98925000D01*
G75*
G02*
X112445000Y-99075000I-150000J0D01*
G01*
G37*
G36*
G01*
X113715000Y-99075000D02*
X113415000Y-99075000D01*
G75*
G02*
X113265000Y-98925000I0J150000D01*
G01*
X113265000Y-97275000D01*
G75*
G02*
X113415000Y-97125000I150000J0D01*
G01*
X113715000Y-97125000D01*
G75*
G02*
X113865000Y-97275000I0J-150000D01*
G01*
X113865000Y-98925000D01*
G75*
G02*
X113715000Y-99075000I-150000J0D01*
G01*
G37*
G36*
G01*
X114985000Y-99075000D02*
X114685000Y-99075000D01*
G75*
G02*
X114535000Y-98925000I0J150000D01*
G01*
X114535000Y-97275000D01*
G75*
G02*
X114685000Y-97125000I150000J0D01*
G01*
X114985000Y-97125000D01*
G75*
G02*
X115135000Y-97275000I0J-150000D01*
G01*
X115135000Y-98925000D01*
G75*
G02*
X114985000Y-99075000I-150000J0D01*
G01*
G37*
G36*
G01*
X114985000Y-104025000D02*
X114685000Y-104025000D01*
G75*
G02*
X114535000Y-103875000I0J150000D01*
G01*
X114535000Y-102225000D01*
G75*
G02*
X114685000Y-102075000I150000J0D01*
G01*
X114985000Y-102075000D01*
G75*
G02*
X115135000Y-102225000I0J-150000D01*
G01*
X115135000Y-103875000D01*
G75*
G02*
X114985000Y-104025000I-150000J0D01*
G01*
G37*
G36*
G01*
X113715000Y-104025000D02*
X113415000Y-104025000D01*
G75*
G02*
X113265000Y-103875000I0J150000D01*
G01*
X113265000Y-102225000D01*
G75*
G02*
X113415000Y-102075000I150000J0D01*
G01*
X113715000Y-102075000D01*
G75*
G02*
X113865000Y-102225000I0J-150000D01*
G01*
X113865000Y-103875000D01*
G75*
G02*
X113715000Y-104025000I-150000J0D01*
G01*
G37*
G36*
G01*
X112445000Y-104025000D02*
X112145000Y-104025000D01*
G75*
G02*
X111995000Y-103875000I0J150000D01*
G01*
X111995000Y-102225000D01*
G75*
G02*
X112145000Y-102075000I150000J0D01*
G01*
X112445000Y-102075000D01*
G75*
G02*
X112595000Y-102225000I0J-150000D01*
G01*
X112595000Y-103875000D01*
G75*
G02*
X112445000Y-104025000I-150000J0D01*
G01*
G37*
G36*
G01*
X111175000Y-104025000D02*
X110875000Y-104025000D01*
G75*
G02*
X110725000Y-103875000I0J150000D01*
G01*
X110725000Y-102225000D01*
G75*
G02*
X110875000Y-102075000I150000J0D01*
G01*
X111175000Y-102075000D01*
G75*
G02*
X111325000Y-102225000I0J-150000D01*
G01*
X111325000Y-103875000D01*
G75*
G02*
X111175000Y-104025000I-150000J0D01*
G01*
G37*
G36*
G01*
X109905000Y-104025000D02*
X109605000Y-104025000D01*
G75*
G02*
X109455000Y-103875000I0J150000D01*
G01*
X109455000Y-102225000D01*
G75*
G02*
X109605000Y-102075000I150000J0D01*
G01*
X109905000Y-102075000D01*
G75*
G02*
X110055000Y-102225000I0J-150000D01*
G01*
X110055000Y-103875000D01*
G75*
G02*
X109905000Y-104025000I-150000J0D01*
G01*
G37*
G36*
G01*
X108635000Y-104025000D02*
X108335000Y-104025000D01*
G75*
G02*
X108185000Y-103875000I0J150000D01*
G01*
X108185000Y-102225000D01*
G75*
G02*
X108335000Y-102075000I150000J0D01*
G01*
X108635000Y-102075000D01*
G75*
G02*
X108785000Y-102225000I0J-150000D01*
G01*
X108785000Y-103875000D01*
G75*
G02*
X108635000Y-104025000I-150000J0D01*
G01*
G37*
G36*
G01*
X107365000Y-104025000D02*
X107065000Y-104025000D01*
G75*
G02*
X106915000Y-103875000I0J150000D01*
G01*
X106915000Y-102225000D01*
G75*
G02*
X107065000Y-102075000I150000J0D01*
G01*
X107365000Y-102075000D01*
G75*
G02*
X107515000Y-102225000I0J-150000D01*
G01*
X107515000Y-103875000D01*
G75*
G02*
X107365000Y-104025000I-150000J0D01*
G01*
G37*
G36*
G01*
X114362500Y-105312500D02*
X114362500Y-104837500D01*
G75*
G02*
X114600000Y-104600000I237500J0D01*
G01*
X115100000Y-104600000D01*
G75*
G02*
X115337500Y-104837500I0J-237500D01*
G01*
X115337500Y-105312500D01*
G75*
G02*
X115100000Y-105550000I-237500J0D01*
G01*
X114600000Y-105550000D01*
G75*
G02*
X114362500Y-105312500I0J237500D01*
G01*
G37*
G36*
G01*
X112537500Y-105312500D02*
X112537500Y-104837500D01*
G75*
G02*
X112775000Y-104600000I237500J0D01*
G01*
X113275000Y-104600000D01*
G75*
G02*
X113512500Y-104837500I0J-237500D01*
G01*
X113512500Y-105312500D01*
G75*
G02*
X113275000Y-105550000I-237500J0D01*
G01*
X112775000Y-105550000D01*
G75*
G02*
X112537500Y-105312500I0J237500D01*
G01*
G37*
G36*
G01*
X109250000Y-96312500D02*
X109250000Y-95837500D01*
G75*
G02*
X109487500Y-95600000I237500J0D01*
G01*
X109987500Y-95600000D01*
G75*
G02*
X110225000Y-95837500I0J-237500D01*
G01*
X110225000Y-96312500D01*
G75*
G02*
X109987500Y-96550000I-237500J0D01*
G01*
X109487500Y-96550000D01*
G75*
G02*
X109250000Y-96312500I0J237500D01*
G01*
G37*
G36*
G01*
X107425000Y-96312500D02*
X107425000Y-95837500D01*
G75*
G02*
X107662500Y-95600000I237500J0D01*
G01*
X108162500Y-95600000D01*
G75*
G02*
X108400000Y-95837500I0J-237500D01*
G01*
X108400000Y-96312500D01*
G75*
G02*
X108162500Y-96550000I-237500J0D01*
G01*
X107662500Y-96550000D01*
G75*
G02*
X107425000Y-96312500I0J237500D01*
G01*
G37*
G36*
G01*
X100762500Y-102187500D02*
X100762500Y-101712500D01*
G75*
G02*
X101000000Y-101475000I237500J0D01*
G01*
X101500000Y-101475000D01*
G75*
G02*
X101737500Y-101712500I0J-237500D01*
G01*
X101737500Y-102187500D01*
G75*
G02*
X101500000Y-102425000I-237500J0D01*
G01*
X101000000Y-102425000D01*
G75*
G02*
X100762500Y-102187500I0J237500D01*
G01*
G37*
G36*
G01*
X98937500Y-102187500D02*
X98937500Y-101712500D01*
G75*
G02*
X99175000Y-101475000I237500J0D01*
G01*
X99675000Y-101475000D01*
G75*
G02*
X99912500Y-101712500I0J-237500D01*
G01*
X99912500Y-102187500D01*
G75*
G02*
X99675000Y-102425000I-237500J0D01*
G01*
X99175000Y-102425000D01*
G75*
G02*
X98937500Y-102187500I0J237500D01*
G01*
G37*
G36*
G01*
X100762500Y-103712500D02*
X100762500Y-103237500D01*
G75*
G02*
X101000000Y-103000000I237500J0D01*
G01*
X101500000Y-103000000D01*
G75*
G02*
X101737500Y-103237500I0J-237500D01*
G01*
X101737500Y-103712500D01*
G75*
G02*
X101500000Y-103950000I-237500J0D01*
G01*
X101000000Y-103950000D01*
G75*
G02*
X100762500Y-103712500I0J237500D01*
G01*
G37*
G36*
G01*
X98937500Y-103712500D02*
X98937500Y-103237500D01*
G75*
G02*
X99175000Y-103000000I237500J0D01*
G01*
X99675000Y-103000000D01*
G75*
G02*
X99912500Y-103237500I0J-237500D01*
G01*
X99912500Y-103712500D01*
G75*
G02*
X99675000Y-103950000I-237500J0D01*
G01*
X99175000Y-103950000D01*
G75*
G02*
X98937500Y-103712500I0J237500D01*
G01*
G37*
G36*
G01*
X100850000Y-91137500D02*
X100850000Y-91612500D01*
G75*
G02*
X100612500Y-91850000I-237500J0D01*
G01*
X100112500Y-91850000D01*
G75*
G02*
X99875000Y-91612500I0J237500D01*
G01*
X99875000Y-91137500D01*
G75*
G02*
X100112500Y-90900000I237500J0D01*
G01*
X100612500Y-90900000D01*
G75*
G02*
X100850000Y-91137500I0J-237500D01*
G01*
G37*
G36*
G01*
X102675000Y-91137500D02*
X102675000Y-91612500D01*
G75*
G02*
X102437500Y-91850000I-237500J0D01*
G01*
X101937500Y-91850000D01*
G75*
G02*
X101700000Y-91612500I0J237500D01*
G01*
X101700000Y-91137500D01*
G75*
G02*
X101937500Y-90900000I237500J0D01*
G01*
X102437500Y-90900000D01*
G75*
G02*
X102675000Y-91137500I0J-237500D01*
G01*
G37*
G36*
G01*
X104287500Y-95487500D02*
X103812500Y-95487500D01*
G75*
G02*
X103575000Y-95250000I0J237500D01*
G01*
X103575000Y-94750000D01*
G75*
G02*
X103812500Y-94512500I237500J0D01*
G01*
X104287500Y-94512500D01*
G75*
G02*
X104525000Y-94750000I0J-237500D01*
G01*
X104525000Y-95250000D01*
G75*
G02*
X104287500Y-95487500I-237500J0D01*
G01*
G37*
G36*
G01*
X104287500Y-97312500D02*
X103812500Y-97312500D01*
G75*
G02*
X103575000Y-97075000I0J237500D01*
G01*
X103575000Y-96575000D01*
G75*
G02*
X103812500Y-96337500I237500J0D01*
G01*
X104287500Y-96337500D01*
G75*
G02*
X104525000Y-96575000I0J-237500D01*
G01*
X104525000Y-97075000D01*
G75*
G02*
X104287500Y-97312500I-237500J0D01*
G01*
G37*
G36*
G01*
X125424999Y-118400000D02*
X128275001Y-118400000D01*
G75*
G02*
X128525000Y-118649999I0J-249999D01*
G01*
X128525000Y-119550001D01*
G75*
G02*
X128275001Y-119800000I-249999J0D01*
G01*
X125424999Y-119800000D01*
G75*
G02*
X125175000Y-119550001I0J249999D01*
G01*
X125175000Y-118649999D01*
G75*
G02*
X125424999Y-118400000I249999J0D01*
G01*
G37*
G36*
G01*
X125424999Y-112300000D02*
X128275001Y-112300000D01*
G75*
G02*
X128525000Y-112549999I0J-249999D01*
G01*
X128525000Y-113450001D01*
G75*
G02*
X128275001Y-113700000I-249999J0D01*
G01*
X125424999Y-113700000D01*
G75*
G02*
X125175000Y-113450001I0J249999D01*
G01*
X125175000Y-112549999D01*
G75*
G02*
X125424999Y-112300000I249999J0D01*
G01*
G37*
G36*
G01*
X119650000Y-104462500D02*
X119650000Y-103987500D01*
G75*
G02*
X119887500Y-103750000I237500J0D01*
G01*
X120387500Y-103750000D01*
G75*
G02*
X120625000Y-103987500I0J-237500D01*
G01*
X120625000Y-104462500D01*
G75*
G02*
X120387500Y-104700000I-237500J0D01*
G01*
X119887500Y-104700000D01*
G75*
G02*
X119650000Y-104462500I0J237500D01*
G01*
G37*
G36*
G01*
X117825000Y-104462500D02*
X117825000Y-103987500D01*
G75*
G02*
X118062500Y-103750000I237500J0D01*
G01*
X118562500Y-103750000D01*
G75*
G02*
X118800000Y-103987500I0J-237500D01*
G01*
X118800000Y-104462500D01*
G75*
G02*
X118562500Y-104700000I-237500J0D01*
G01*
X118062500Y-104700000D01*
G75*
G02*
X117825000Y-104462500I0J237500D01*
G01*
G37*
G36*
G01*
X125424999Y-108125000D02*
X128275001Y-108125000D01*
G75*
G02*
X128525000Y-108374999I0J-249999D01*
G01*
X128525000Y-109275001D01*
G75*
G02*
X128275001Y-109525000I-249999J0D01*
G01*
X125424999Y-109525000D01*
G75*
G02*
X125175000Y-109275001I0J249999D01*
G01*
X125175000Y-108374999D01*
G75*
G02*
X125424999Y-108125000I249999J0D01*
G01*
G37*
G36*
G01*
X125424999Y-102025000D02*
X128275001Y-102025000D01*
G75*
G02*
X128525000Y-102274999I0J-249999D01*
G01*
X128525000Y-103175001D01*
G75*
G02*
X128275001Y-103425000I-249999J0D01*
G01*
X125424999Y-103425000D01*
G75*
G02*
X125175000Y-103175001I0J249999D01*
G01*
X125175000Y-102274999D01*
G75*
G02*
X125424999Y-102025000I249999J0D01*
G01*
G37*
G36*
G01*
X125424999Y-95600000D02*
X128275001Y-95600000D01*
G75*
G02*
X128525000Y-95849999I0J-249999D01*
G01*
X128525000Y-96750001D01*
G75*
G02*
X128275001Y-97000000I-249999J0D01*
G01*
X125424999Y-97000000D01*
G75*
G02*
X125175000Y-96750001I0J249999D01*
G01*
X125175000Y-95849999D01*
G75*
G02*
X125424999Y-95600000I249999J0D01*
G01*
G37*
G36*
G01*
X125424999Y-89500000D02*
X128275001Y-89500000D01*
G75*
G02*
X128525000Y-89749999I0J-249999D01*
G01*
X128525000Y-90650001D01*
G75*
G02*
X128275001Y-90900000I-249999J0D01*
G01*
X125424999Y-90900000D01*
G75*
G02*
X125175000Y-90650001I0J249999D01*
G01*
X125175000Y-89749999D01*
G75*
G02*
X125424999Y-89500000I249999J0D01*
G01*
G37*
G36*
G01*
X119650000Y-92612500D02*
X119650000Y-92137500D01*
G75*
G02*
X119887500Y-91900000I237500J0D01*
G01*
X120387500Y-91900000D01*
G75*
G02*
X120625000Y-92137500I0J-237500D01*
G01*
X120625000Y-92612500D01*
G75*
G02*
X120387500Y-92850000I-237500J0D01*
G01*
X119887500Y-92850000D01*
G75*
G02*
X119650000Y-92612500I0J237500D01*
G01*
G37*
G36*
G01*
X117825000Y-92612500D02*
X117825000Y-92137500D01*
G75*
G02*
X118062500Y-91900000I237500J0D01*
G01*
X118562500Y-91900000D01*
G75*
G02*
X118800000Y-92137500I0J-237500D01*
G01*
X118800000Y-92612500D01*
G75*
G02*
X118562500Y-92850000I-237500J0D01*
G01*
X118062500Y-92850000D01*
G75*
G02*
X117825000Y-92612500I0J237500D01*
G01*
G37*
G36*
G01*
X125424999Y-78750000D02*
X128275001Y-78750000D01*
G75*
G02*
X128525000Y-78999999I0J-249999D01*
G01*
X128525000Y-79900001D01*
G75*
G02*
X128275001Y-80150000I-249999J0D01*
G01*
X125424999Y-80150000D01*
G75*
G02*
X125175000Y-79900001I0J249999D01*
G01*
X125175000Y-78999999D01*
G75*
G02*
X125424999Y-78750000I249999J0D01*
G01*
G37*
G36*
G01*
X125424999Y-84850000D02*
X128275001Y-84850000D01*
G75*
G02*
X128525000Y-85099999I0J-249999D01*
G01*
X128525000Y-86000001D01*
G75*
G02*
X128275001Y-86250000I-249999J0D01*
G01*
X125424999Y-86250000D01*
G75*
G02*
X125175000Y-86000001I0J249999D01*
G01*
X125175000Y-85099999D01*
G75*
G02*
X125424999Y-84850000I249999J0D01*
G01*
G37*
G36*
G01*
X100982500Y-82127500D02*
X100982500Y-81652500D01*
G75*
G02*
X101220000Y-81415000I237500J0D01*
G01*
X101720000Y-81415000D01*
G75*
G02*
X101957500Y-81652500I0J-237500D01*
G01*
X101957500Y-82127500D01*
G75*
G02*
X101720000Y-82365000I-237500J0D01*
G01*
X101220000Y-82365000D01*
G75*
G02*
X100982500Y-82127500I0J237500D01*
G01*
G37*
G36*
G01*
X99157500Y-82127500D02*
X99157500Y-81652500D01*
G75*
G02*
X99395000Y-81415000I237500J0D01*
G01*
X99895000Y-81415000D01*
G75*
G02*
X100132500Y-81652500I0J-237500D01*
G01*
X100132500Y-82127500D01*
G75*
G02*
X99895000Y-82365000I-237500J0D01*
G01*
X99395000Y-82365000D01*
G75*
G02*
X99157500Y-82127500I0J237500D01*
G01*
G37*
G36*
G01*
X118087500Y-86287500D02*
X118562500Y-86287500D01*
G75*
G02*
X118800000Y-86525000I0J-237500D01*
G01*
X118800000Y-87025000D01*
G75*
G02*
X118562500Y-87262500I-237500J0D01*
G01*
X118087500Y-87262500D01*
G75*
G02*
X117850000Y-87025000I0J237500D01*
G01*
X117850000Y-86525000D01*
G75*
G02*
X118087500Y-86287500I237500J0D01*
G01*
G37*
G36*
G01*
X118087500Y-84462500D02*
X118562500Y-84462500D01*
G75*
G02*
X118800000Y-84700000I0J-237500D01*
G01*
X118800000Y-85200000D01*
G75*
G02*
X118562500Y-85437500I-237500J0D01*
G01*
X118087500Y-85437500D01*
G75*
G02*
X117850000Y-85200000I0J237500D01*
G01*
X117850000Y-84700000D01*
G75*
G02*
X118087500Y-84462500I237500J0D01*
G01*
G37*
G36*
G01*
X115425000Y-86537500D02*
X115425000Y-87012500D01*
G75*
G02*
X115187500Y-87250000I-237500J0D01*
G01*
X114687500Y-87250000D01*
G75*
G02*
X114450000Y-87012500I0J237500D01*
G01*
X114450000Y-86537500D01*
G75*
G02*
X114687500Y-86300000I237500J0D01*
G01*
X115187500Y-86300000D01*
G75*
G02*
X115425000Y-86537500I0J-237500D01*
G01*
G37*
G36*
G01*
X117250000Y-86537500D02*
X117250000Y-87012500D01*
G75*
G02*
X117012500Y-87250000I-237500J0D01*
G01*
X116512500Y-87250000D01*
G75*
G02*
X116275000Y-87012500I0J237500D01*
G01*
X116275000Y-86537500D01*
G75*
G02*
X116512500Y-86300000I237500J0D01*
G01*
X117012500Y-86300000D01*
G75*
G02*
X117250000Y-86537500I0J-237500D01*
G01*
G37*
G36*
G01*
X101662500Y-86237500D02*
X101662500Y-86712500D01*
G75*
G02*
X101425000Y-86950000I-237500J0D01*
G01*
X100925000Y-86950000D01*
G75*
G02*
X100687500Y-86712500I0J237500D01*
G01*
X100687500Y-86237500D01*
G75*
G02*
X100925000Y-86000000I237500J0D01*
G01*
X101425000Y-86000000D01*
G75*
G02*
X101662500Y-86237500I0J-237500D01*
G01*
G37*
G36*
G01*
X103487500Y-86237500D02*
X103487500Y-86712500D01*
G75*
G02*
X103250000Y-86950000I-237500J0D01*
G01*
X102750000Y-86950000D01*
G75*
G02*
X102512500Y-86712500I0J237500D01*
G01*
X102512500Y-86237500D01*
G75*
G02*
X102750000Y-86000000I237500J0D01*
G01*
X103250000Y-86000000D01*
G75*
G02*
X103487500Y-86237500I0J-237500D01*
G01*
G37*
G36*
G01*
X115450000Y-81962500D02*
X115450000Y-82437500D01*
G75*
G02*
X115212500Y-82675000I-237500J0D01*
G01*
X114712500Y-82675000D01*
G75*
G02*
X114475000Y-82437500I0J237500D01*
G01*
X114475000Y-81962500D01*
G75*
G02*
X114712500Y-81725000I237500J0D01*
G01*
X115212500Y-81725000D01*
G75*
G02*
X115450000Y-81962500I0J-237500D01*
G01*
G37*
G36*
G01*
X117275000Y-81962500D02*
X117275000Y-82437500D01*
G75*
G02*
X117037500Y-82675000I-237500J0D01*
G01*
X116537500Y-82675000D01*
G75*
G02*
X116300000Y-82437500I0J237500D01*
G01*
X116300000Y-81962500D01*
G75*
G02*
X116537500Y-81725000I237500J0D01*
G01*
X117037500Y-81725000D01*
G75*
G02*
X117275000Y-81962500I0J-237500D01*
G01*
G37*
G36*
G01*
X100862500Y-89325000D02*
X101337500Y-89325000D01*
G75*
G02*
X101575000Y-89562500I0J-237500D01*
G01*
X101575000Y-90062500D01*
G75*
G02*
X101337500Y-90300000I-237500J0D01*
G01*
X100862500Y-90300000D01*
G75*
G02*
X100625000Y-90062500I0J237500D01*
G01*
X100625000Y-89562500D01*
G75*
G02*
X100862500Y-89325000I237500J0D01*
G01*
G37*
G36*
G01*
X100862500Y-87500000D02*
X101337500Y-87500000D01*
G75*
G02*
X101575000Y-87737500I0J-237500D01*
G01*
X101575000Y-88237500D01*
G75*
G02*
X101337500Y-88475000I-237500J0D01*
G01*
X100862500Y-88475000D01*
G75*
G02*
X100625000Y-88237500I0J237500D01*
G01*
X100625000Y-87737500D01*
G75*
G02*
X100862500Y-87500000I237500J0D01*
G01*
G37*
G36*
G01*
X99812500Y-88475000D02*
X99337500Y-88475000D01*
G75*
G02*
X99100000Y-88237500I0J237500D01*
G01*
X99100000Y-87737500D01*
G75*
G02*
X99337500Y-87500000I237500J0D01*
G01*
X99812500Y-87500000D01*
G75*
G02*
X100050000Y-87737500I0J-237500D01*
G01*
X100050000Y-88237500D01*
G75*
G02*
X99812500Y-88475000I-237500J0D01*
G01*
G37*
G36*
G01*
X99812500Y-90300000D02*
X99337500Y-90300000D01*
G75*
G02*
X99100000Y-90062500I0J237500D01*
G01*
X99100000Y-89562500D01*
G75*
G02*
X99337500Y-89325000I237500J0D01*
G01*
X99812500Y-89325000D01*
G75*
G02*
X100050000Y-89562500I0J-237500D01*
G01*
X100050000Y-90062500D01*
G75*
G02*
X99812500Y-90300000I-237500J0D01*
G01*
G37*
G36*
G01*
X117252500Y-78645000D02*
X117727500Y-78645000D01*
G75*
G02*
X117965000Y-78882500I0J-237500D01*
G01*
X117965000Y-79382500D01*
G75*
G02*
X117727500Y-79620000I-237500J0D01*
G01*
X117252500Y-79620000D01*
G75*
G02*
X117015000Y-79382500I0J237500D01*
G01*
X117015000Y-78882500D01*
G75*
G02*
X117252500Y-78645000I237500J0D01*
G01*
G37*
G36*
G01*
X117252500Y-76820000D02*
X117727500Y-76820000D01*
G75*
G02*
X117965000Y-77057500I0J-237500D01*
G01*
X117965000Y-77557500D01*
G75*
G02*
X117727500Y-77795000I-237500J0D01*
G01*
X117252500Y-77795000D01*
G75*
G02*
X117015000Y-77557500I0J237500D01*
G01*
X117015000Y-77057500D01*
G75*
G02*
X117252500Y-76820000I237500J0D01*
G01*
G37*
G36*
G01*
X113637500Y-77787500D02*
X113162500Y-77787500D01*
G75*
G02*
X112925000Y-77550000I0J237500D01*
G01*
X112925000Y-77050000D01*
G75*
G02*
X113162500Y-76812500I237500J0D01*
G01*
X113637500Y-76812500D01*
G75*
G02*
X113875000Y-77050000I0J-237500D01*
G01*
X113875000Y-77550000D01*
G75*
G02*
X113637500Y-77787500I-237500J0D01*
G01*
G37*
G36*
G01*
X113637500Y-79612500D02*
X113162500Y-79612500D01*
G75*
G02*
X112925000Y-79375000I0J237500D01*
G01*
X112925000Y-78875000D01*
G75*
G02*
X113162500Y-78637500I237500J0D01*
G01*
X113637500Y-78637500D01*
G75*
G02*
X113875000Y-78875000I0J-237500D01*
G01*
X113875000Y-79375000D01*
G75*
G02*
X113637500Y-79612500I-237500J0D01*
G01*
G37*
G36*
G01*
X102512500Y-85187500D02*
X102512500Y-84712500D01*
G75*
G02*
X102750000Y-84475000I237500J0D01*
G01*
X103250000Y-84475000D01*
G75*
G02*
X103487500Y-84712500I0J-237500D01*
G01*
X103487500Y-85187500D01*
G75*
G02*
X103250000Y-85425000I-237500J0D01*
G01*
X102750000Y-85425000D01*
G75*
G02*
X102512500Y-85187500I0J237500D01*
G01*
G37*
G36*
G01*
X100687500Y-85187500D02*
X100687500Y-84712500D01*
G75*
G02*
X100925000Y-84475000I237500J0D01*
G01*
X101425000Y-84475000D01*
G75*
G02*
X101662500Y-84712500I0J-237500D01*
G01*
X101662500Y-85187500D01*
G75*
G02*
X101425000Y-85425000I-237500J0D01*
G01*
X100925000Y-85425000D01*
G75*
G02*
X100687500Y-85187500I0J237500D01*
G01*
G37*
D22*
X153088000Y-116000000D03*
X167312000Y-116000000D03*
X167312000Y-81500000D03*
X153088000Y-81500000D03*
D21*
G36*
X102375602Y-88250000D02*
G01*
X102375602Y-88225466D01*
X102380412Y-88176635D01*
X102389984Y-88128510D01*
X102404228Y-88081555D01*
X102423005Y-88036222D01*
X102446136Y-87992949D01*
X102473396Y-87952150D01*
X102504524Y-87914221D01*
X102539221Y-87879524D01*
X102577150Y-87848396D01*
X102617949Y-87821136D01*
X102661222Y-87798005D01*
X102706555Y-87779228D01*
X102753510Y-87764984D01*
X102801635Y-87755412D01*
X102850466Y-87750602D01*
X102875000Y-87750602D01*
X102875000Y-87750000D01*
X103375000Y-87750000D01*
X103375000Y-87750602D01*
X103399534Y-87750602D01*
X103448365Y-87755412D01*
X103496490Y-87764984D01*
X103543445Y-87779228D01*
X103588778Y-87798005D01*
X103632051Y-87821136D01*
X103672850Y-87848396D01*
X103710779Y-87879524D01*
X103745476Y-87914221D01*
X103776604Y-87952150D01*
X103803864Y-87992949D01*
X103826995Y-88036222D01*
X103845772Y-88081555D01*
X103860016Y-88128510D01*
X103869588Y-88176635D01*
X103874398Y-88225466D01*
X103874398Y-88250000D01*
X103875000Y-88250000D01*
X103875000Y-88750000D01*
X102375000Y-88750000D01*
X102375000Y-88250000D01*
X102375602Y-88250000D01*
G37*
G36*
X103875000Y-89050000D02*
G01*
X103875000Y-89550000D01*
X103874398Y-89550000D01*
X103874398Y-89574534D01*
X103869588Y-89623365D01*
X103860016Y-89671490D01*
X103845772Y-89718445D01*
X103826995Y-89763778D01*
X103803864Y-89807051D01*
X103776604Y-89847850D01*
X103745476Y-89885779D01*
X103710779Y-89920476D01*
X103672850Y-89951604D01*
X103632051Y-89978864D01*
X103588778Y-90001995D01*
X103543445Y-90020772D01*
X103496490Y-90035016D01*
X103448365Y-90044588D01*
X103399534Y-90049398D01*
X103375000Y-90049398D01*
X103375000Y-90050000D01*
X102875000Y-90050000D01*
X102875000Y-90049398D01*
X102850466Y-90049398D01*
X102801635Y-90044588D01*
X102753510Y-90035016D01*
X102706555Y-90020772D01*
X102661222Y-90001995D01*
X102617949Y-89978864D01*
X102577150Y-89951604D01*
X102539221Y-89920476D01*
X102504524Y-89885779D01*
X102473396Y-89847850D01*
X102446136Y-89807051D01*
X102423005Y-89763778D01*
X102404228Y-89718445D01*
X102389984Y-89671490D01*
X102380412Y-89623365D01*
X102375602Y-89574534D01*
X102375602Y-89550000D01*
X102375000Y-89550000D01*
X102375000Y-89050000D01*
X103875000Y-89050000D01*
G37*
G36*
X116199398Y-78875000D02*
G01*
X116199398Y-78899534D01*
X116194588Y-78948365D01*
X116185016Y-78996490D01*
X116170772Y-79043445D01*
X116151995Y-79088778D01*
X116128864Y-79132051D01*
X116101604Y-79172850D01*
X116070476Y-79210779D01*
X116035779Y-79245476D01*
X115997850Y-79276604D01*
X115957051Y-79303864D01*
X115913778Y-79326995D01*
X115868445Y-79345772D01*
X115821490Y-79360016D01*
X115773365Y-79369588D01*
X115724534Y-79374398D01*
X115700000Y-79374398D01*
X115700000Y-79375000D01*
X115200000Y-79375000D01*
X115200000Y-79374398D01*
X115175466Y-79374398D01*
X115126635Y-79369588D01*
X115078510Y-79360016D01*
X115031555Y-79345772D01*
X114986222Y-79326995D01*
X114942949Y-79303864D01*
X114902150Y-79276604D01*
X114864221Y-79245476D01*
X114829524Y-79210779D01*
X114798396Y-79172850D01*
X114771136Y-79132051D01*
X114748005Y-79088778D01*
X114729228Y-79043445D01*
X114714984Y-78996490D01*
X114705412Y-78948365D01*
X114700602Y-78899534D01*
X114700602Y-78875000D01*
X114700000Y-78875000D01*
X114700000Y-78375000D01*
X116200000Y-78375000D01*
X116200000Y-78875000D01*
X116199398Y-78875000D01*
G37*
G36*
X114700000Y-78075000D02*
G01*
X114700000Y-77575000D01*
X114700602Y-77575000D01*
X114700602Y-77550466D01*
X114705412Y-77501635D01*
X114714984Y-77453510D01*
X114729228Y-77406555D01*
X114748005Y-77361222D01*
X114771136Y-77317949D01*
X114798396Y-77277150D01*
X114829524Y-77239221D01*
X114864221Y-77204524D01*
X114902150Y-77173396D01*
X114942949Y-77146136D01*
X114986222Y-77123005D01*
X115031555Y-77104228D01*
X115078510Y-77089984D01*
X115126635Y-77080412D01*
X115175466Y-77075602D01*
X115200000Y-77075602D01*
X115200000Y-77075000D01*
X115700000Y-77075000D01*
X115700000Y-77075602D01*
X115724534Y-77075602D01*
X115773365Y-77080412D01*
X115821490Y-77089984D01*
X115868445Y-77104228D01*
X115913778Y-77123005D01*
X115957051Y-77146136D01*
X115997850Y-77173396D01*
X116035779Y-77204524D01*
X116070476Y-77239221D01*
X116101604Y-77277150D01*
X116128864Y-77317949D01*
X116151995Y-77361222D01*
X116170772Y-77406555D01*
X116185016Y-77453510D01*
X116194588Y-77501635D01*
X116199398Y-77550466D01*
X116199398Y-77575000D01*
X116200000Y-77575000D01*
X116200000Y-78075000D01*
X114700000Y-78075000D01*
G37*
D11*
X98975000Y-74100000D03*
D12*
X98975000Y-69020000D03*
D11*
X191000000Y-96170000D03*
D12*
X191000000Y-101250000D03*
D11*
X99025000Y-120030000D03*
X99025000Y-114950000D03*
D12*
X99025000Y-109870000D03*
D11*
X143670000Y-61500000D03*
D12*
X148750000Y-61500000D03*
D23*
X119700000Y-106850000D03*
D24*
X118250000Y-107850000D03*
X118250000Y-107350000D03*
X118250000Y-106850000D03*
X118250000Y-106350000D03*
X118250000Y-105850000D03*
X121150000Y-105850000D03*
X121150000Y-106350000D03*
X121150000Y-106850000D03*
X121150000Y-107350000D03*
X121150000Y-107850000D03*
D23*
X119700000Y-95000000D03*
D24*
X118250000Y-96000000D03*
X118250000Y-95500000D03*
X118250000Y-95000000D03*
X118250000Y-94500000D03*
X118250000Y-94000000D03*
X121150000Y-94000000D03*
X121150000Y-94500000D03*
X121150000Y-95000000D03*
X121150000Y-95500000D03*
X121150000Y-96000000D03*
D25*
X173700000Y-123000000D03*
D26*
X173700000Y-119500000D03*
D25*
X173700000Y-75000000D03*
D26*
X173700000Y-78500000D03*
G36*
G01*
X122449998Y-107900000D02*
X123750002Y-107900000D01*
G75*
G02*
X124000000Y-108149998I0J-249998D01*
G01*
X124000000Y-108975002D01*
G75*
G02*
X123750002Y-109225000I-249998J0D01*
G01*
X122449998Y-109225000D01*
G75*
G02*
X122200000Y-108975002I0J249998D01*
G01*
X122200000Y-108149998D01*
G75*
G02*
X122449998Y-107900000I249998J0D01*
G01*
G37*
G36*
G01*
X122449998Y-104775000D02*
X123750002Y-104775000D01*
G75*
G02*
X124000000Y-105024998I0J-249998D01*
G01*
X124000000Y-105850002D01*
G75*
G02*
X123750002Y-106100000I-249998J0D01*
G01*
X122449998Y-106100000D01*
G75*
G02*
X122200000Y-105850002I0J249998D01*
G01*
X122200000Y-105024998D01*
G75*
G02*
X122449998Y-104775000I249998J0D01*
G01*
G37*
G36*
G01*
X121350002Y-110300000D02*
X120049998Y-110300000D01*
G75*
G02*
X119800000Y-110050002I0J249998D01*
G01*
X119800000Y-109224998D01*
G75*
G02*
X120049998Y-108975000I249998J0D01*
G01*
X121350002Y-108975000D01*
G75*
G02*
X121600000Y-109224998I0J-249998D01*
G01*
X121600000Y-110050002D01*
G75*
G02*
X121350002Y-110300000I-249998J0D01*
G01*
G37*
G36*
G01*
X121350002Y-113425000D02*
X120049998Y-113425000D01*
G75*
G02*
X119800000Y-113175002I0J249998D01*
G01*
X119800000Y-112349998D01*
G75*
G02*
X120049998Y-112100000I249998J0D01*
G01*
X121350002Y-112100000D01*
G75*
G02*
X121600000Y-112349998I0J-249998D01*
G01*
X121600000Y-113175002D01*
G75*
G02*
X121350002Y-113425000I-249998J0D01*
G01*
G37*
G36*
G01*
X122449998Y-95837500D02*
X123750002Y-95837500D01*
G75*
G02*
X124000000Y-96087498I0J-249998D01*
G01*
X124000000Y-96912502D01*
G75*
G02*
X123750002Y-97162500I-249998J0D01*
G01*
X122449998Y-97162500D01*
G75*
G02*
X122200000Y-96912502I0J249998D01*
G01*
X122200000Y-96087498D01*
G75*
G02*
X122449998Y-95837500I249998J0D01*
G01*
G37*
G36*
G01*
X122449998Y-92712500D02*
X123750002Y-92712500D01*
G75*
G02*
X124000000Y-92962498I0J-249998D01*
G01*
X124000000Y-93787502D01*
G75*
G02*
X123750002Y-94037500I-249998J0D01*
G01*
X122449998Y-94037500D01*
G75*
G02*
X122200000Y-93787502I0J249998D01*
G01*
X122200000Y-92962498D01*
G75*
G02*
X122449998Y-92712500I249998J0D01*
G01*
G37*
G36*
G01*
X121350002Y-98500000D02*
X120049998Y-98500000D01*
G75*
G02*
X119800000Y-98250002I0J249998D01*
G01*
X119800000Y-97424998D01*
G75*
G02*
X120049998Y-97175000I249998J0D01*
G01*
X121350002Y-97175000D01*
G75*
G02*
X121600000Y-97424998I0J-249998D01*
G01*
X121600000Y-98250002D01*
G75*
G02*
X121350002Y-98500000I-249998J0D01*
G01*
G37*
G36*
G01*
X121350002Y-101625000D02*
X120049998Y-101625000D01*
G75*
G02*
X119800000Y-101375002I0J249998D01*
G01*
X119800000Y-100549998D01*
G75*
G02*
X120049998Y-100300000I249998J0D01*
G01*
X121350002Y-100300000D01*
G75*
G02*
X121600000Y-100549998I0J-249998D01*
G01*
X121600000Y-101375002D01*
G75*
G02*
X121350002Y-101625000I-249998J0D01*
G01*
G37*
G36*
G01*
X116200000Y-85462500D02*
X116200000Y-84987500D01*
G75*
G02*
X116437500Y-84750000I237500J0D01*
G01*
X117037500Y-84750000D01*
G75*
G02*
X117275000Y-84987500I0J-237500D01*
G01*
X117275000Y-85462500D01*
G75*
G02*
X117037500Y-85700000I-237500J0D01*
G01*
X116437500Y-85700000D01*
G75*
G02*
X116200000Y-85462500I0J237500D01*
G01*
G37*
G36*
G01*
X114475000Y-85462500D02*
X114475000Y-84987500D01*
G75*
G02*
X114712500Y-84750000I237500J0D01*
G01*
X115312500Y-84750000D01*
G75*
G02*
X115550000Y-84987500I0J-237500D01*
G01*
X115550000Y-85462500D01*
G75*
G02*
X115312500Y-85700000I-237500J0D01*
G01*
X114712500Y-85700000D01*
G75*
G02*
X114475000Y-85462500I0J237500D01*
G01*
G37*
G36*
G01*
X115537500Y-88062500D02*
X115537500Y-88537500D01*
G75*
G02*
X115300000Y-88775000I-237500J0D01*
G01*
X114700000Y-88775000D01*
G75*
G02*
X114462500Y-88537500I0J237500D01*
G01*
X114462500Y-88062500D01*
G75*
G02*
X114700000Y-87825000I237500J0D01*
G01*
X115300000Y-87825000D01*
G75*
G02*
X115537500Y-88062500I0J-237500D01*
G01*
G37*
G36*
G01*
X117262500Y-88062500D02*
X117262500Y-88537500D01*
G75*
G02*
X117025000Y-88775000I-237500J0D01*
G01*
X116425000Y-88775000D01*
G75*
G02*
X116187500Y-88537500I0J237500D01*
G01*
X116187500Y-88062500D01*
G75*
G02*
X116425000Y-87825000I237500J0D01*
G01*
X117025000Y-87825000D01*
G75*
G02*
X117262500Y-88062500I0J-237500D01*
G01*
G37*
G36*
G01*
X116200000Y-83962500D02*
X116200000Y-83487500D01*
G75*
G02*
X116437500Y-83250000I237500J0D01*
G01*
X117037500Y-83250000D01*
G75*
G02*
X117275000Y-83487500I0J-237500D01*
G01*
X117275000Y-83962500D01*
G75*
G02*
X117037500Y-84200000I-237500J0D01*
G01*
X116437500Y-84200000D01*
G75*
G02*
X116200000Y-83962500I0J237500D01*
G01*
G37*
G36*
G01*
X114475000Y-83962500D02*
X114475000Y-83487500D01*
G75*
G02*
X114712500Y-83250000I237500J0D01*
G01*
X115312500Y-83250000D01*
G75*
G02*
X115550000Y-83487500I0J-237500D01*
G01*
X115550000Y-83962500D01*
G75*
G02*
X115312500Y-84200000I-237500J0D01*
G01*
X114712500Y-84200000D01*
G75*
G02*
X114475000Y-83962500I0J237500D01*
G01*
G37*
G36*
G01*
X116187500Y-80912500D02*
X116187500Y-80437500D01*
G75*
G02*
X116425000Y-80200000I237500J0D01*
G01*
X117025000Y-80200000D01*
G75*
G02*
X117262500Y-80437500I0J-237500D01*
G01*
X117262500Y-80912500D01*
G75*
G02*
X117025000Y-81150000I-237500J0D01*
G01*
X116425000Y-81150000D01*
G75*
G02*
X116187500Y-80912500I0J237500D01*
G01*
G37*
G36*
G01*
X114462500Y-80912500D02*
X114462500Y-80437500D01*
G75*
G02*
X114700000Y-80200000I237500J0D01*
G01*
X115300000Y-80200000D01*
G75*
G02*
X115537500Y-80437500I0J-237500D01*
G01*
X115537500Y-80912500D01*
G75*
G02*
X115300000Y-81150000I-237500J0D01*
G01*
X114700000Y-81150000D01*
G75*
G02*
X114462500Y-80912500I0J237500D01*
G01*
G37*
D27*
X127000000Y-67250000D03*
D28*
X134500000Y-67250000D03*
D29*
X190000000Y-127500000D03*
X100000000Y-127500000D03*
X190000000Y-62500000D03*
X100000000Y-62500000D03*
M02*
