G04 #@! TF.GenerationSoftware,KiCad,Pcbnew,5.1.10*
G04 #@! TF.CreationDate,2021-08-14T17:22:50+12:00*
G04 #@! TF.ProjectId,GateStage,47617465-5374-4616-9765-2e6b69636164,rev?*
G04 #@! TF.SameCoordinates,Original*
G04 #@! TF.FileFunction,Legend,Bot*
G04 #@! TF.FilePolarity,Positive*
%FSLAX46Y46*%
G04 Gerber Fmt 4.6, Leading zero omitted, Abs format (unit mm)*
G04 Created by KiCad (PCBNEW 5.1.10) date 2021-08-14 17:22:50*
%MOMM*%
%LPD*%
G01*
G04 APERTURE LIST*
%ADD10C,0.120000*%
%ADD11C,0.150000*%
%ADD12C,3.000000*%
%ADD13R,3.000000X3.000000*%
%ADD14C,5.500000*%
%ADD15C,2.400000*%
%ADD16R,2.400000X2.400000*%
%ADD17O,2.000000X1.905000*%
%ADD18R,2.000000X1.905000*%
%ADD19O,3.500000X3.500000*%
G04 APERTURE END LIST*
D10*
X123960000Y-43711252D02*
X123960000Y-42288748D01*
X122140000Y-43711252D02*
X122140000Y-42288748D01*
D11*
X125114285Y-42900000D02*
X125142857Y-42871428D01*
X125171428Y-42785714D01*
X125171428Y-42728571D01*
X125142857Y-42642857D01*
X125085714Y-42585714D01*
X125028571Y-42557142D01*
X124914285Y-42528571D01*
X124828571Y-42528571D01*
X124714285Y-42557142D01*
X124657142Y-42585714D01*
X124600000Y-42642857D01*
X124571428Y-42728571D01*
X124571428Y-42785714D01*
X124600000Y-42871428D01*
X124628571Y-42900000D01*
X125171428Y-43471428D02*
X125171428Y-43128571D01*
X125171428Y-43300000D02*
X124571428Y-43300000D01*
X124657142Y-43242857D01*
X124714285Y-43185714D01*
X124742857Y-43128571D01*
%LPC*%
D12*
X181828000Y-45950000D03*
X181828000Y-51030000D03*
D13*
X181828000Y-56110000D03*
D12*
X118828000Y-45690000D03*
D13*
X118828000Y-40610000D03*
D12*
X146560000Y-69200000D03*
D13*
X131320000Y-69200000D03*
D12*
X141480000Y-69200000D03*
X136400000Y-69200000D03*
D14*
X182828000Y-70110000D03*
X119828000Y-70110000D03*
X182828000Y-34110000D03*
X119828000Y-34110000D03*
D15*
X132828000Y-36250000D03*
D16*
X132828000Y-43750000D03*
G36*
G01*
X123700001Y-42100000D02*
X122399999Y-42100000D01*
G75*
G02*
X122150000Y-41850001I0J249999D01*
G01*
X122150000Y-41024999D01*
G75*
G02*
X122399999Y-40775000I249999J0D01*
G01*
X123700001Y-40775000D01*
G75*
G02*
X123950000Y-41024999I0J-249999D01*
G01*
X123950000Y-41850001D01*
G75*
G02*
X123700001Y-42100000I-249999J0D01*
G01*
G37*
G36*
G01*
X123700001Y-45225000D02*
X122399999Y-45225000D01*
G75*
G02*
X122150000Y-44975001I0J249999D01*
G01*
X122150000Y-44149999D01*
G75*
G02*
X122399999Y-43900000I249999J0D01*
G01*
X123700001Y-43900000D01*
G75*
G02*
X123950000Y-44149999I0J-249999D01*
G01*
X123950000Y-44975001D01*
G75*
G02*
X123700001Y-45225000I-249999J0D01*
G01*
G37*
D17*
X156228000Y-71890000D03*
X156228000Y-69350000D03*
D18*
X156228000Y-66810000D03*
D19*
X172888000Y-69350000D03*
D17*
X156228000Y-60340000D03*
X156228000Y-57800000D03*
D18*
X156228000Y-55260000D03*
D19*
X172888000Y-57800000D03*
D17*
X156228000Y-48790000D03*
X156228000Y-46250000D03*
D18*
X156228000Y-43710000D03*
D19*
X172888000Y-46250000D03*
D17*
X156228000Y-37190000D03*
X156228000Y-34650000D03*
D18*
X156228000Y-32110000D03*
D19*
X172888000Y-34650000D03*
M02*
