G04 #@! TF.GenerationSoftware,KiCad,Pcbnew,5.1.10*
G04 #@! TF.CreationDate,2021-08-14T17:22:50+12:00*
G04 #@! TF.ProjectId,GateStage,47617465-5374-4616-9765-2e6b69636164,rev?*
G04 #@! TF.SameCoordinates,Original*
G04 #@! TF.FileFunction,Legend,Top*
G04 #@! TF.FilePolarity,Positive*
%FSLAX46Y46*%
G04 Gerber Fmt 4.6, Leading zero omitted, Abs format (unit mm)*
G04 Created by KiCad (PCBNEW 5.1.10) date 2021-08-14 17:22:50*
%MOMM*%
%LPD*%
G01*
G04 APERTURE LIST*
%ADD10C,0.150000*%
%ADD11C,0.120000*%
%ADD12C,0.250000*%
%ADD13R,1.650000X2.600000*%
%ADD14R,0.850000X0.300000*%
%ADD15C,2.000000*%
%ADD16C,3.000000*%
%ADD17R,3.000000X3.000000*%
%ADD18C,5.500000*%
%ADD19C,2.400000*%
%ADD20R,2.400000X2.400000*%
%ADD21R,6.400000X5.800000*%
%ADD22R,2.200000X1.200000*%
%ADD23O,2.000000X1.905000*%
%ADD24R,2.000000X1.905000*%
%ADD25O,3.500000X3.500000*%
G04 APERTURE END LIST*
D10*
X117542857Y-48742857D02*
X118000000Y-48742857D01*
X117771428Y-48971428D02*
X117771428Y-48514285D01*
X118600000Y-48971428D02*
X118257142Y-48971428D01*
X118428571Y-48971428D02*
X118428571Y-48371428D01*
X118371428Y-48457142D01*
X118314285Y-48514285D01*
X118257142Y-48542857D01*
X118942857Y-48628571D02*
X118885714Y-48600000D01*
X118857142Y-48571428D01*
X118828571Y-48514285D01*
X118828571Y-48485714D01*
X118857142Y-48428571D01*
X118885714Y-48400000D01*
X118942857Y-48371428D01*
X119057142Y-48371428D01*
X119114285Y-48400000D01*
X119142857Y-48428571D01*
X119171428Y-48485714D01*
X119171428Y-48514285D01*
X119142857Y-48571428D01*
X119114285Y-48600000D01*
X119057142Y-48628571D01*
X118942857Y-48628571D01*
X118885714Y-48657142D01*
X118857142Y-48685714D01*
X118828571Y-48742857D01*
X118828571Y-48857142D01*
X118857142Y-48914285D01*
X118885714Y-48942857D01*
X118942857Y-48971428D01*
X119057142Y-48971428D01*
X119114285Y-48942857D01*
X119142857Y-48914285D01*
X119171428Y-48857142D01*
X119171428Y-48742857D01*
X119142857Y-48685714D01*
X119114285Y-48657142D01*
X119057142Y-48628571D01*
X119342857Y-48371428D02*
X119542857Y-48971428D01*
X119742857Y-48371428D01*
X117500000Y-37200000D02*
X117442857Y-37171428D01*
X117357142Y-37171428D01*
X117271428Y-37200000D01*
X117214285Y-37257142D01*
X117185714Y-37314285D01*
X117157142Y-37428571D01*
X117157142Y-37514285D01*
X117185714Y-37628571D01*
X117214285Y-37685714D01*
X117271428Y-37742857D01*
X117357142Y-37771428D01*
X117414285Y-37771428D01*
X117500000Y-37742857D01*
X117528571Y-37714285D01*
X117528571Y-37514285D01*
X117414285Y-37514285D01*
X117785714Y-37771428D02*
X117785714Y-37171428D01*
X118128571Y-37771428D01*
X118128571Y-37171428D01*
X118414285Y-37771428D02*
X118414285Y-37171428D01*
X118557142Y-37171428D01*
X118642857Y-37200000D01*
X118700000Y-37257142D01*
X118728571Y-37314285D01*
X118757142Y-37428571D01*
X118757142Y-37514285D01*
X118728571Y-37628571D01*
X118700000Y-37685714D01*
X118642857Y-37742857D01*
X118557142Y-37771428D01*
X118414285Y-37771428D01*
X119014285Y-37771428D02*
X119014285Y-37171428D01*
X119242857Y-37171428D01*
X119300000Y-37200000D01*
X119328571Y-37228571D01*
X119357142Y-37285714D01*
X119357142Y-37371428D01*
X119328571Y-37428571D01*
X119300000Y-37457142D01*
X119242857Y-37485714D01*
X119014285Y-37485714D01*
X119557142Y-37171428D02*
X119700000Y-37771428D01*
X119814285Y-37342857D01*
X119928571Y-37771428D01*
X120071428Y-37171428D01*
X120642857Y-37771428D02*
X120442857Y-37485714D01*
X120300000Y-37771428D02*
X120300000Y-37171428D01*
X120528571Y-37171428D01*
X120585714Y-37200000D01*
X120614285Y-37228571D01*
X120642857Y-37285714D01*
X120642857Y-37371428D01*
X120614285Y-37428571D01*
X120585714Y-37457142D01*
X120528571Y-37485714D01*
X120300000Y-37485714D01*
X186221428Y-47507142D02*
X186821428Y-47307142D01*
X186221428Y-47107142D01*
X186878571Y-47050000D02*
X186878571Y-46592857D01*
X186221428Y-46335714D02*
X186221428Y-46221428D01*
X186250000Y-46164285D01*
X186307142Y-46107142D01*
X186421428Y-46078571D01*
X186621428Y-46078571D01*
X186735714Y-46107142D01*
X186792857Y-46164285D01*
X186821428Y-46221428D01*
X186821428Y-46335714D01*
X186792857Y-46392857D01*
X186735714Y-46450000D01*
X186621428Y-46478571D01*
X186421428Y-46478571D01*
X186307142Y-46450000D01*
X186250000Y-46392857D01*
X186221428Y-46335714D01*
X186221428Y-45821428D02*
X186707142Y-45821428D01*
X186764285Y-45792857D01*
X186792857Y-45764285D01*
X186821428Y-45707142D01*
X186821428Y-45592857D01*
X186792857Y-45535714D01*
X186764285Y-45507142D01*
X186707142Y-45478571D01*
X186221428Y-45478571D01*
X186221428Y-45278571D02*
X186221428Y-44935714D01*
X186821428Y-45107142D02*
X186221428Y-45107142D01*
X186592857Y-44735714D02*
X186592857Y-44278571D01*
X186821428Y-44507142D02*
X186364285Y-44507142D01*
X186371428Y-57407142D02*
X186971428Y-57207142D01*
X186371428Y-57007142D01*
X187028571Y-56950000D02*
X187028571Y-56492857D01*
X186371428Y-56235714D02*
X186371428Y-56121428D01*
X186400000Y-56064285D01*
X186457142Y-56007142D01*
X186571428Y-55978571D01*
X186771428Y-55978571D01*
X186885714Y-56007142D01*
X186942857Y-56064285D01*
X186971428Y-56121428D01*
X186971428Y-56235714D01*
X186942857Y-56292857D01*
X186885714Y-56350000D01*
X186771428Y-56378571D01*
X186571428Y-56378571D01*
X186457142Y-56350000D01*
X186400000Y-56292857D01*
X186371428Y-56235714D01*
X186371428Y-55721428D02*
X186857142Y-55721428D01*
X186914285Y-55692857D01*
X186942857Y-55664285D01*
X186971428Y-55607142D01*
X186971428Y-55492857D01*
X186942857Y-55435714D01*
X186914285Y-55407142D01*
X186857142Y-55378571D01*
X186371428Y-55378571D01*
X186371428Y-55178571D02*
X186371428Y-54835714D01*
X186971428Y-55007142D02*
X186371428Y-55007142D01*
X186742857Y-54635714D02*
X186742857Y-54178571D01*
X186350000Y-51557142D02*
X186321428Y-51614285D01*
X186321428Y-51700000D01*
X186350000Y-51785714D01*
X186407142Y-51842857D01*
X186464285Y-51871428D01*
X186578571Y-51900000D01*
X186664285Y-51900000D01*
X186778571Y-51871428D01*
X186835714Y-51842857D01*
X186892857Y-51785714D01*
X186921428Y-51700000D01*
X186921428Y-51642857D01*
X186892857Y-51557142D01*
X186864285Y-51528571D01*
X186664285Y-51528571D01*
X186664285Y-51642857D01*
X186921428Y-51271428D02*
X186321428Y-51271428D01*
X186921428Y-50928571D01*
X186321428Y-50928571D01*
X186921428Y-50642857D02*
X186321428Y-50642857D01*
X186321428Y-50500000D01*
X186350000Y-50414285D01*
X186407142Y-50357142D01*
X186464285Y-50328571D01*
X186578571Y-50300000D01*
X186664285Y-50300000D01*
X186778571Y-50328571D01*
X186835714Y-50357142D01*
X186892857Y-50414285D01*
X186921428Y-50500000D01*
X186921428Y-50642857D01*
X146292857Y-73400000D02*
X146235714Y-73371428D01*
X146150000Y-73371428D01*
X146064285Y-73400000D01*
X146007142Y-73457142D01*
X145978571Y-73514285D01*
X145950000Y-73628571D01*
X145950000Y-73714285D01*
X145978571Y-73828571D01*
X146007142Y-73885714D01*
X146064285Y-73942857D01*
X146150000Y-73971428D01*
X146207142Y-73971428D01*
X146292857Y-73942857D01*
X146321428Y-73914285D01*
X146321428Y-73714285D01*
X146207142Y-73714285D01*
X146578571Y-73971428D02*
X146578571Y-73371428D01*
X146921428Y-73971428D01*
X146921428Y-73371428D01*
X147207142Y-73971428D02*
X147207142Y-73371428D01*
X147350000Y-73371428D01*
X147435714Y-73400000D01*
X147492857Y-73457142D01*
X147521428Y-73514285D01*
X147550000Y-73628571D01*
X147550000Y-73714285D01*
X147521428Y-73828571D01*
X147492857Y-73885714D01*
X147435714Y-73942857D01*
X147350000Y-73971428D01*
X147207142Y-73971428D01*
X139528571Y-73971428D02*
X139528571Y-73371428D01*
X139814285Y-73971428D02*
X139814285Y-73371428D01*
X140157142Y-73971428D01*
X140157142Y-73371428D01*
X140357142Y-73371428D02*
X140557142Y-73971428D01*
X140757142Y-73371428D01*
X140814285Y-74028571D02*
X141271428Y-74028571D01*
X141385714Y-73942857D02*
X141471428Y-73971428D01*
X141614285Y-73971428D01*
X141671428Y-73942857D01*
X141700000Y-73914285D01*
X141728571Y-73857142D01*
X141728571Y-73800000D01*
X141700000Y-73742857D01*
X141671428Y-73714285D01*
X141614285Y-73685714D01*
X141500000Y-73657142D01*
X141442857Y-73628571D01*
X141414285Y-73600000D01*
X141385714Y-73542857D01*
X141385714Y-73485714D01*
X141414285Y-73428571D01*
X141442857Y-73400000D01*
X141500000Y-73371428D01*
X141642857Y-73371428D01*
X141728571Y-73400000D01*
X141985714Y-73971428D02*
X141985714Y-73371428D01*
X142214285Y-73371428D01*
X142271428Y-73400000D01*
X142300000Y-73428571D01*
X142328571Y-73485714D01*
X142328571Y-73571428D01*
X142300000Y-73628571D01*
X142271428Y-73657142D01*
X142214285Y-73685714D01*
X141985714Y-73685714D01*
X142528571Y-73371428D02*
X142671428Y-73971428D01*
X142785714Y-73542857D01*
X142900000Y-73971428D01*
X143042857Y-73371428D01*
X143271428Y-73971428D02*
X143271428Y-73371428D01*
X143471428Y-73800000D01*
X143671428Y-73371428D01*
X143671428Y-73971428D01*
X135242857Y-73942857D02*
X135328571Y-73971428D01*
X135471428Y-73971428D01*
X135528571Y-73942857D01*
X135557142Y-73914285D01*
X135585714Y-73857142D01*
X135585714Y-73800000D01*
X135557142Y-73742857D01*
X135528571Y-73714285D01*
X135471428Y-73685714D01*
X135357142Y-73657142D01*
X135300000Y-73628571D01*
X135271428Y-73600000D01*
X135242857Y-73542857D01*
X135242857Y-73485714D01*
X135271428Y-73428571D01*
X135300000Y-73400000D01*
X135357142Y-73371428D01*
X135500000Y-73371428D01*
X135585714Y-73400000D01*
X135842857Y-73971428D02*
X135842857Y-73371428D01*
X136071428Y-73371428D01*
X136128571Y-73400000D01*
X136157142Y-73428571D01*
X136185714Y-73485714D01*
X136185714Y-73571428D01*
X136157142Y-73628571D01*
X136128571Y-73657142D01*
X136071428Y-73685714D01*
X135842857Y-73685714D01*
X136385714Y-73371428D02*
X136528571Y-73971428D01*
X136642857Y-73542857D01*
X136757142Y-73971428D01*
X136900000Y-73371428D01*
X137128571Y-73971428D02*
X137128571Y-73371428D01*
X137328571Y-73800000D01*
X137528571Y-73371428D01*
X137528571Y-73971428D01*
X129842857Y-73742857D02*
X130300000Y-73742857D01*
X130071428Y-73971428D02*
X130071428Y-73514285D01*
X130900000Y-73971428D02*
X130557142Y-73971428D01*
X130728571Y-73971428D02*
X130728571Y-73371428D01*
X130671428Y-73457142D01*
X130614285Y-73514285D01*
X130557142Y-73542857D01*
X131271428Y-73371428D02*
X131328571Y-73371428D01*
X131385714Y-73400000D01*
X131414285Y-73428571D01*
X131442857Y-73485714D01*
X131471428Y-73600000D01*
X131471428Y-73742857D01*
X131442857Y-73857142D01*
X131414285Y-73914285D01*
X131385714Y-73942857D01*
X131328571Y-73971428D01*
X131271428Y-73971428D01*
X131214285Y-73942857D01*
X131185714Y-73914285D01*
X131157142Y-73857142D01*
X131128571Y-73742857D01*
X131128571Y-73600000D01*
X131157142Y-73485714D01*
X131185714Y-73428571D01*
X131214285Y-73400000D01*
X131271428Y-73371428D01*
X131642857Y-73371428D02*
X131842857Y-73971428D01*
X132042857Y-73371428D01*
D11*
X150063000Y-46173748D02*
X150063000Y-47596252D01*
X148243000Y-46173748D02*
X148243000Y-47596252D01*
D12*
X147878000Y-62960000D02*
G75*
G03*
X147878000Y-62960000I-125000J0D01*
G01*
X147653000Y-48535000D02*
G75*
G03*
X147653000Y-48535000I-125000J0D01*
G01*
D11*
X182200000Y-61610000D02*
G75*
G03*
X182200000Y-61610000I-1200000J0D01*
G01*
X182400000Y-40610000D02*
G75*
G03*
X182400000Y-40610000I-1200000J0D01*
G01*
X154310000Y-57772936D02*
X154310000Y-62127064D01*
X150890000Y-57772936D02*
X150890000Y-62127064D01*
X154338000Y-32982936D02*
X154338000Y-37337064D01*
X150918000Y-32982936D02*
X150918000Y-37337064D01*
X154138000Y-67682936D02*
X154138000Y-72037064D01*
X150718000Y-67682936D02*
X150718000Y-72037064D01*
X154138000Y-44582936D02*
X154138000Y-48937064D01*
X150718000Y-44582936D02*
X150718000Y-48937064D01*
X145173276Y-58087500D02*
X145682724Y-58087500D01*
X145173276Y-59132500D02*
X145682724Y-59132500D01*
X143517224Y-44272500D02*
X143007776Y-44272500D01*
X143517224Y-43227500D02*
X143007776Y-43227500D01*
X185638000Y-58650000D02*
X178018000Y-58650000D01*
X185638000Y-43410000D02*
X178018000Y-43410000D01*
X184368000Y-58650000D02*
X184368000Y-43410000D01*
X178018000Y-58650000D02*
X178018000Y-43410000D01*
X185638000Y-58650000D02*
X185638000Y-43410000D01*
X116288000Y-48230000D02*
X116288000Y-38070000D01*
X115018000Y-48230000D02*
X122638000Y-48230000D01*
X122638000Y-48230000D02*
X122638000Y-38070000D01*
X122638000Y-38070000D02*
X115018000Y-38070000D01*
X115018000Y-38070000D02*
X115018000Y-48230000D01*
X128780000Y-65390000D02*
X128780000Y-73010000D01*
X149100000Y-73010000D02*
X149100000Y-65390000D01*
X149100000Y-71740000D02*
X128780000Y-71740000D01*
X128780000Y-65390000D02*
X149100000Y-65390000D01*
X128780000Y-73010000D02*
X149100000Y-73010000D01*
X150138000Y-60698748D02*
X150138000Y-62121252D01*
X148318000Y-60698748D02*
X148318000Y-62121252D01*
X141318000Y-47721252D02*
X141318000Y-46298748D01*
X143138000Y-47721252D02*
X143138000Y-46298748D01*
X141518000Y-62121252D02*
X141518000Y-60698748D01*
X143338000Y-62121252D02*
X143338000Y-60698748D01*
X141948000Y-40000000D02*
G75*
G03*
X141948000Y-40000000I-9120000J0D01*
G01*
X123747000Y-40000000D02*
X141909000Y-40000000D01*
X123748000Y-39960000D02*
X141908000Y-39960000D01*
X123748000Y-39920000D02*
X141908000Y-39920000D01*
X123748000Y-39880000D02*
X141908000Y-39880000D01*
X123749000Y-39840000D02*
X141907000Y-39840000D01*
X123750000Y-39800000D02*
X141906000Y-39800000D01*
X123751000Y-39760000D02*
X141905000Y-39760000D01*
X123752000Y-39720000D02*
X141904000Y-39720000D01*
X123753000Y-39680000D02*
X141903000Y-39680000D01*
X123755000Y-39640000D02*
X141901000Y-39640000D01*
X123756000Y-39600000D02*
X141900000Y-39600000D01*
X123758000Y-39560000D02*
X141898000Y-39560000D01*
X123760000Y-39520000D02*
X141896000Y-39520000D01*
X123762000Y-39480000D02*
X141894000Y-39480000D01*
X123765000Y-39440000D02*
X141891000Y-39440000D01*
X123767000Y-39400000D02*
X141889000Y-39400000D01*
X123770000Y-39360000D02*
X141886000Y-39360000D01*
X123773000Y-39320000D02*
X141883000Y-39320000D01*
X123776000Y-39279000D02*
X141880000Y-39279000D01*
X123779000Y-39239000D02*
X141877000Y-39239000D01*
X123783000Y-39199000D02*
X141873000Y-39199000D01*
X123786000Y-39159000D02*
X141870000Y-39159000D01*
X123790000Y-39119000D02*
X141866000Y-39119000D01*
X123794000Y-39079000D02*
X141862000Y-39079000D01*
X123798000Y-39039000D02*
X141858000Y-39039000D01*
X123802000Y-38999000D02*
X141854000Y-38999000D01*
X123807000Y-38959000D02*
X141849000Y-38959000D01*
X123812000Y-38919000D02*
X141844000Y-38919000D01*
X123817000Y-38879000D02*
X141839000Y-38879000D01*
X123822000Y-38839000D02*
X141834000Y-38839000D01*
X123827000Y-38799000D02*
X141829000Y-38799000D01*
X123832000Y-38759000D02*
X141824000Y-38759000D01*
X123838000Y-38719000D02*
X141818000Y-38719000D01*
X123844000Y-38679000D02*
X141812000Y-38679000D01*
X123849000Y-38639000D02*
X141807000Y-38639000D01*
X123856000Y-38599000D02*
X141800000Y-38599000D01*
X123862000Y-38559000D02*
X141794000Y-38559000D01*
X123868000Y-38519000D02*
X141788000Y-38519000D01*
X123875000Y-38479000D02*
X141781000Y-38479000D01*
X123882000Y-38439000D02*
X141774000Y-38439000D01*
X123889000Y-38399000D02*
X141767000Y-38399000D01*
X123896000Y-38359000D02*
X141760000Y-38359000D01*
X123904000Y-38319000D02*
X141752000Y-38319000D01*
X123911000Y-38279000D02*
X141745000Y-38279000D01*
X123919000Y-38239000D02*
X141737000Y-38239000D01*
X123927000Y-38199000D02*
X141729000Y-38199000D01*
X123935000Y-38159000D02*
X141721000Y-38159000D01*
X123943000Y-38119000D02*
X141713000Y-38119000D01*
X123952000Y-38079000D02*
X141704000Y-38079000D01*
X123961000Y-38039000D02*
X141695000Y-38039000D01*
X123970000Y-37999000D02*
X141686000Y-37999000D01*
X123979000Y-37959000D02*
X141677000Y-37959000D01*
X123988000Y-37919000D02*
X141668000Y-37919000D01*
X123997000Y-37879000D02*
X141659000Y-37879000D01*
X124007000Y-37839000D02*
X141649000Y-37839000D01*
X124017000Y-37799000D02*
X141639000Y-37799000D01*
X124027000Y-37759000D02*
X141629000Y-37759000D01*
X124037000Y-37719000D02*
X141619000Y-37719000D01*
X124048000Y-37679000D02*
X131388000Y-37679000D01*
X134268000Y-37679000D02*
X141608000Y-37679000D01*
X124058000Y-37639000D02*
X131388000Y-37639000D01*
X134268000Y-37639000D02*
X141598000Y-37639000D01*
X124069000Y-37599000D02*
X131388000Y-37599000D01*
X134268000Y-37599000D02*
X141587000Y-37599000D01*
X124080000Y-37559000D02*
X131388000Y-37559000D01*
X134268000Y-37559000D02*
X141576000Y-37559000D01*
X124091000Y-37519000D02*
X131388000Y-37519000D01*
X134268000Y-37519000D02*
X141565000Y-37519000D01*
X124103000Y-37479000D02*
X131388000Y-37479000D01*
X134268000Y-37479000D02*
X141553000Y-37479000D01*
X124114000Y-37439000D02*
X131388000Y-37439000D01*
X134268000Y-37439000D02*
X141542000Y-37439000D01*
X124126000Y-37399000D02*
X131388000Y-37399000D01*
X134268000Y-37399000D02*
X141530000Y-37399000D01*
X124138000Y-37359000D02*
X131388000Y-37359000D01*
X134268000Y-37359000D02*
X141518000Y-37359000D01*
X124150000Y-37319000D02*
X131388000Y-37319000D01*
X134268000Y-37319000D02*
X141506000Y-37319000D01*
X124163000Y-37279000D02*
X131388000Y-37279000D01*
X134268000Y-37279000D02*
X141493000Y-37279000D01*
X124175000Y-37239000D02*
X131388000Y-37239000D01*
X134268000Y-37239000D02*
X141481000Y-37239000D01*
X124188000Y-37199000D02*
X131388000Y-37199000D01*
X134268000Y-37199000D02*
X141468000Y-37199000D01*
X124201000Y-37159000D02*
X131388000Y-37159000D01*
X134268000Y-37159000D02*
X141455000Y-37159000D01*
X124214000Y-37119000D02*
X131388000Y-37119000D01*
X134268000Y-37119000D02*
X141442000Y-37119000D01*
X124228000Y-37079000D02*
X131388000Y-37079000D01*
X134268000Y-37079000D02*
X141428000Y-37079000D01*
X124241000Y-37039000D02*
X131388000Y-37039000D01*
X134268000Y-37039000D02*
X141415000Y-37039000D01*
X124255000Y-36999000D02*
X131388000Y-36999000D01*
X134268000Y-36999000D02*
X141401000Y-36999000D01*
X124269000Y-36959000D02*
X131388000Y-36959000D01*
X134268000Y-36959000D02*
X141387000Y-36959000D01*
X124283000Y-36919000D02*
X131388000Y-36919000D01*
X134268000Y-36919000D02*
X141373000Y-36919000D01*
X124298000Y-36879000D02*
X131388000Y-36879000D01*
X134268000Y-36879000D02*
X141358000Y-36879000D01*
X124312000Y-36839000D02*
X131388000Y-36839000D01*
X134268000Y-36839000D02*
X141344000Y-36839000D01*
X124327000Y-36799000D02*
X131388000Y-36799000D01*
X134268000Y-36799000D02*
X141329000Y-36799000D01*
X124342000Y-36759000D02*
X131388000Y-36759000D01*
X134268000Y-36759000D02*
X141314000Y-36759000D01*
X124358000Y-36719000D02*
X131388000Y-36719000D01*
X134268000Y-36719000D02*
X141298000Y-36719000D01*
X124373000Y-36679000D02*
X131388000Y-36679000D01*
X134268000Y-36679000D02*
X141283000Y-36679000D01*
X124389000Y-36639000D02*
X131388000Y-36639000D01*
X134268000Y-36639000D02*
X141267000Y-36639000D01*
X124405000Y-36599000D02*
X131388000Y-36599000D01*
X134268000Y-36599000D02*
X141251000Y-36599000D01*
X124421000Y-36559000D02*
X131388000Y-36559000D01*
X134268000Y-36559000D02*
X141235000Y-36559000D01*
X124438000Y-36519000D02*
X131388000Y-36519000D01*
X134268000Y-36519000D02*
X141218000Y-36519000D01*
X124454000Y-36479000D02*
X131388000Y-36479000D01*
X134268000Y-36479000D02*
X141202000Y-36479000D01*
X124471000Y-36439000D02*
X131388000Y-36439000D01*
X134268000Y-36439000D02*
X141185000Y-36439000D01*
X124488000Y-36399000D02*
X131388000Y-36399000D01*
X134268000Y-36399000D02*
X141168000Y-36399000D01*
X124505000Y-36359000D02*
X131388000Y-36359000D01*
X134268000Y-36359000D02*
X141151000Y-36359000D01*
X124523000Y-36319000D02*
X131388000Y-36319000D01*
X134268000Y-36319000D02*
X141133000Y-36319000D01*
X124541000Y-36279000D02*
X131388000Y-36279000D01*
X134268000Y-36279000D02*
X141115000Y-36279000D01*
X124559000Y-36239000D02*
X131388000Y-36239000D01*
X134268000Y-36239000D02*
X141097000Y-36239000D01*
X124577000Y-36199000D02*
X131388000Y-36199000D01*
X134268000Y-36199000D02*
X141079000Y-36199000D01*
X124595000Y-36159000D02*
X131388000Y-36159000D01*
X134268000Y-36159000D02*
X141061000Y-36159000D01*
X124614000Y-36119000D02*
X131388000Y-36119000D01*
X134268000Y-36119000D02*
X141042000Y-36119000D01*
X124633000Y-36079000D02*
X131388000Y-36079000D01*
X134268000Y-36079000D02*
X141023000Y-36079000D01*
X124652000Y-36039000D02*
X131388000Y-36039000D01*
X134268000Y-36039000D02*
X141004000Y-36039000D01*
X124672000Y-35999000D02*
X131388000Y-35999000D01*
X134268000Y-35999000D02*
X140984000Y-35999000D01*
X124691000Y-35959000D02*
X131388000Y-35959000D01*
X134268000Y-35959000D02*
X140965000Y-35959000D01*
X124711000Y-35919000D02*
X131388000Y-35919000D01*
X134268000Y-35919000D02*
X140945000Y-35919000D01*
X124731000Y-35879000D02*
X131388000Y-35879000D01*
X134268000Y-35879000D02*
X140925000Y-35879000D01*
X124752000Y-35839000D02*
X131388000Y-35839000D01*
X134268000Y-35839000D02*
X140904000Y-35839000D01*
X124772000Y-35799000D02*
X131388000Y-35799000D01*
X134268000Y-35799000D02*
X140884000Y-35799000D01*
X124793000Y-35759000D02*
X131388000Y-35759000D01*
X134268000Y-35759000D02*
X140863000Y-35759000D01*
X124814000Y-35719000D02*
X131388000Y-35719000D01*
X134268000Y-35719000D02*
X140842000Y-35719000D01*
X124836000Y-35679000D02*
X131388000Y-35679000D01*
X134268000Y-35679000D02*
X140820000Y-35679000D01*
X124857000Y-35639000D02*
X131388000Y-35639000D01*
X134268000Y-35639000D02*
X140799000Y-35639000D01*
X124879000Y-35599000D02*
X131388000Y-35599000D01*
X134268000Y-35599000D02*
X140777000Y-35599000D01*
X124901000Y-35559000D02*
X131388000Y-35559000D01*
X134268000Y-35559000D02*
X140755000Y-35559000D01*
X124924000Y-35519000D02*
X131388000Y-35519000D01*
X134268000Y-35519000D02*
X140732000Y-35519000D01*
X124946000Y-35479000D02*
X131388000Y-35479000D01*
X134268000Y-35479000D02*
X140710000Y-35479000D01*
X124969000Y-35439000D02*
X131388000Y-35439000D01*
X134268000Y-35439000D02*
X140687000Y-35439000D01*
X124993000Y-35399000D02*
X131388000Y-35399000D01*
X134268000Y-35399000D02*
X140663000Y-35399000D01*
X125016000Y-35359000D02*
X131388000Y-35359000D01*
X134268000Y-35359000D02*
X140640000Y-35359000D01*
X125040000Y-35319000D02*
X131388000Y-35319000D01*
X134268000Y-35319000D02*
X140616000Y-35319000D01*
X125064000Y-35279000D02*
X131388000Y-35279000D01*
X134268000Y-35279000D02*
X140592000Y-35279000D01*
X125088000Y-35239000D02*
X131388000Y-35239000D01*
X134268000Y-35239000D02*
X140568000Y-35239000D01*
X125113000Y-35199000D02*
X131388000Y-35199000D01*
X134268000Y-35199000D02*
X140543000Y-35199000D01*
X125138000Y-35159000D02*
X131388000Y-35159000D01*
X134268000Y-35159000D02*
X140518000Y-35159000D01*
X125163000Y-35119000D02*
X131388000Y-35119000D01*
X134268000Y-35119000D02*
X140493000Y-35119000D01*
X125188000Y-35079000D02*
X131388000Y-35079000D01*
X134268000Y-35079000D02*
X140468000Y-35079000D01*
X125214000Y-35039000D02*
X131388000Y-35039000D01*
X134268000Y-35039000D02*
X140442000Y-35039000D01*
X125240000Y-34999000D02*
X131388000Y-34999000D01*
X134268000Y-34999000D02*
X140416000Y-34999000D01*
X125267000Y-34959000D02*
X131388000Y-34959000D01*
X134268000Y-34959000D02*
X140389000Y-34959000D01*
X125293000Y-34919000D02*
X131388000Y-34919000D01*
X134268000Y-34919000D02*
X140363000Y-34919000D01*
X125320000Y-34879000D02*
X131388000Y-34879000D01*
X134268000Y-34879000D02*
X140336000Y-34879000D01*
X125348000Y-34839000D02*
X131388000Y-34839000D01*
X134268000Y-34839000D02*
X140308000Y-34839000D01*
X125375000Y-34799000D02*
X140281000Y-34799000D01*
X125403000Y-34759000D02*
X140253000Y-34759000D01*
X125431000Y-34719000D02*
X140225000Y-34719000D01*
X125460000Y-34679000D02*
X140196000Y-34679000D01*
X125489000Y-34639000D02*
X140167000Y-34639000D01*
X125518000Y-34599000D02*
X140138000Y-34599000D01*
X125548000Y-34559000D02*
X140108000Y-34559000D01*
X125578000Y-34519000D02*
X140078000Y-34519000D01*
X125608000Y-34479000D02*
X140048000Y-34479000D01*
X125638000Y-34439000D02*
X140018000Y-34439000D01*
X125669000Y-34399000D02*
X139987000Y-34399000D01*
X125701000Y-34359000D02*
X139955000Y-34359000D01*
X125732000Y-34319000D02*
X139924000Y-34319000D01*
X125764000Y-34279000D02*
X139892000Y-34279000D01*
X125797000Y-34239000D02*
X139859000Y-34239000D01*
X125829000Y-34199000D02*
X139827000Y-34199000D01*
X125863000Y-34159000D02*
X139793000Y-34159000D01*
X125896000Y-34119000D02*
X139760000Y-34119000D01*
X125930000Y-34079000D02*
X139726000Y-34079000D01*
X125964000Y-34039000D02*
X139692000Y-34039000D01*
X125999000Y-33999000D02*
X139657000Y-33999000D01*
X126034000Y-33959000D02*
X139622000Y-33959000D01*
X126070000Y-33919000D02*
X139586000Y-33919000D01*
X126106000Y-33879000D02*
X139550000Y-33879000D01*
X126142000Y-33839000D02*
X139514000Y-33839000D01*
X126179000Y-33799000D02*
X139477000Y-33799000D01*
X126216000Y-33759000D02*
X139440000Y-33759000D01*
X126254000Y-33719000D02*
X139402000Y-33719000D01*
X126292000Y-33679000D02*
X139364000Y-33679000D01*
X126331000Y-33639000D02*
X139325000Y-33639000D01*
X126370000Y-33599000D02*
X139286000Y-33599000D01*
X126410000Y-33559000D02*
X139246000Y-33559000D01*
X126450000Y-33519000D02*
X139206000Y-33519000D01*
X126491000Y-33479000D02*
X139165000Y-33479000D01*
X126532000Y-33439000D02*
X139124000Y-33439000D01*
X126574000Y-33399000D02*
X139082000Y-33399000D01*
X126616000Y-33359000D02*
X139040000Y-33359000D01*
X126658000Y-33319000D02*
X138998000Y-33319000D01*
X126702000Y-33279000D02*
X138954000Y-33279000D01*
X126746000Y-33239000D02*
X138910000Y-33239000D01*
X126790000Y-33199000D02*
X138866000Y-33199000D01*
X126835000Y-33159000D02*
X138821000Y-33159000D01*
X126881000Y-33119000D02*
X138775000Y-33119000D01*
X126927000Y-33079000D02*
X138729000Y-33079000D01*
X126974000Y-33039000D02*
X138682000Y-33039000D01*
X127022000Y-32999000D02*
X138634000Y-32999000D01*
X127070000Y-32959000D02*
X138586000Y-32959000D01*
X127119000Y-32919000D02*
X138537000Y-32919000D01*
X127168000Y-32879000D02*
X138488000Y-32879000D01*
X127219000Y-32839000D02*
X138437000Y-32839000D01*
X127270000Y-32799000D02*
X138386000Y-32799000D01*
X127322000Y-32759000D02*
X138334000Y-32759000D01*
X127374000Y-32719000D02*
X138282000Y-32719000D01*
X127428000Y-32679000D02*
X138228000Y-32679000D01*
X127482000Y-32639000D02*
X138174000Y-32639000D01*
X127537000Y-32599000D02*
X138119000Y-32599000D01*
X127593000Y-32559000D02*
X138063000Y-32559000D01*
X127650000Y-32519000D02*
X138006000Y-32519000D01*
X127708000Y-32479000D02*
X137948000Y-32479000D01*
X127766000Y-32439000D02*
X137890000Y-32439000D01*
X127826000Y-32399000D02*
X137830000Y-32399000D01*
X127887000Y-32359000D02*
X137769000Y-32359000D01*
X127949000Y-32319000D02*
X137707000Y-32319000D01*
X128012000Y-32279000D02*
X137644000Y-32279000D01*
X128076000Y-32239000D02*
X137580000Y-32239000D01*
X128142000Y-32199000D02*
X137514000Y-32199000D01*
X128208000Y-32159000D02*
X137448000Y-32159000D01*
X128276000Y-32119000D02*
X137380000Y-32119000D01*
X128346000Y-32079000D02*
X137310000Y-32079000D01*
X128416000Y-32039000D02*
X137240000Y-32039000D01*
X128489000Y-31999000D02*
X137167000Y-31999000D01*
X128563000Y-31959000D02*
X137093000Y-31959000D01*
X128638000Y-31919000D02*
X137018000Y-31919000D01*
X128715000Y-31879000D02*
X136941000Y-31879000D01*
X128795000Y-31839000D02*
X136861000Y-31839000D01*
X128876000Y-31800000D02*
X136780000Y-31800000D01*
X128959000Y-31760000D02*
X136697000Y-31760000D01*
X129044000Y-31720000D02*
X136612000Y-31720000D01*
X129132000Y-31680000D02*
X136524000Y-31680000D01*
X129223000Y-31640000D02*
X136433000Y-31640000D01*
X129316000Y-31600000D02*
X136340000Y-31600000D01*
X129412000Y-31560000D02*
X136244000Y-31560000D01*
X129511000Y-31520000D02*
X136145000Y-31520000D01*
X129614000Y-31480000D02*
X136042000Y-31480000D01*
X129721000Y-31440000D02*
X135935000Y-31440000D01*
X129832000Y-31400000D02*
X135824000Y-31400000D01*
X129948000Y-31360000D02*
X135708000Y-31360000D01*
X130069000Y-31320000D02*
X135587000Y-31320000D01*
X130196000Y-31280000D02*
X135460000Y-31280000D01*
X130330000Y-31240000D02*
X135326000Y-31240000D01*
X130473000Y-31200000D02*
X135183000Y-31200000D01*
X130625000Y-31160000D02*
X135031000Y-31160000D01*
X130789000Y-31120000D02*
X134867000Y-31120000D01*
X130968000Y-31080000D02*
X134688000Y-31080000D01*
X131167000Y-31040000D02*
X134489000Y-31040000D01*
X131393000Y-31000000D02*
X134263000Y-31000000D01*
X131662000Y-30960000D02*
X133994000Y-30960000D01*
X132014000Y-30920000D02*
X133642000Y-30920000D01*
X132788000Y-30880000D02*
X132868000Y-30880000D01*
X127713000Y-49759440D02*
X127713000Y-47959440D01*
X126813000Y-48859440D02*
X128613000Y-48859440D01*
X125044233Y-49100000D02*
X125336767Y-49100000D01*
X125044233Y-50120000D02*
X125336767Y-50120000D01*
X124994233Y-58100000D02*
X125286767Y-58100000D01*
X124994233Y-59120000D02*
X125286767Y-59120000D01*
X128083000Y-50685000D02*
X126583000Y-50685000D01*
X126583000Y-50685000D02*
X126583000Y-50955000D01*
X126583000Y-50955000D02*
X123753000Y-50955000D01*
X128083000Y-57585000D02*
X126583000Y-57585000D01*
X126583000Y-57585000D02*
X126583000Y-57315000D01*
X126583000Y-57315000D02*
X125483000Y-57315000D01*
X159918000Y-64230000D02*
X159918000Y-74470000D01*
X175808000Y-64230000D02*
X175808000Y-74470000D01*
X175808000Y-64230000D02*
X159918000Y-64230000D01*
X175808000Y-74470000D02*
X159918000Y-74470000D01*
X159918000Y-66810000D02*
X157378000Y-66810000D01*
X159918000Y-69350000D02*
X157378000Y-69350000D01*
X159918000Y-71890000D02*
X157378000Y-71890000D01*
X159918000Y-52680000D02*
X159918000Y-62920000D01*
X175808000Y-52680000D02*
X175808000Y-62920000D01*
X175808000Y-52680000D02*
X159918000Y-52680000D01*
X175808000Y-62920000D02*
X159918000Y-62920000D01*
X159918000Y-55260000D02*
X157378000Y-55260000D01*
X159918000Y-57800000D02*
X157378000Y-57800000D01*
X159918000Y-60340000D02*
X157378000Y-60340000D01*
X159918000Y-41130000D02*
X159918000Y-51370000D01*
X175808000Y-41130000D02*
X175808000Y-51370000D01*
X175808000Y-41130000D02*
X159918000Y-41130000D01*
X175808000Y-51370000D02*
X159918000Y-51370000D01*
X159918000Y-43710000D02*
X157378000Y-43710000D01*
X159918000Y-46250000D02*
X157378000Y-46250000D01*
X159918000Y-48790000D02*
X157378000Y-48790000D01*
X159918000Y-29530000D02*
X159918000Y-39770000D01*
X175808000Y-29530000D02*
X175808000Y-39770000D01*
X175808000Y-29530000D02*
X159918000Y-29530000D01*
X175808000Y-39770000D02*
X159918000Y-39770000D01*
X159918000Y-32110000D02*
X157378000Y-32110000D01*
X159918000Y-34650000D02*
X157378000Y-34650000D01*
X159918000Y-37190000D02*
X157378000Y-37190000D01*
D10*
X148250000Y-43914285D02*
X148221428Y-43942857D01*
X148135714Y-43971428D01*
X148078571Y-43971428D01*
X147992857Y-43942857D01*
X147935714Y-43885714D01*
X147907142Y-43828571D01*
X147878571Y-43714285D01*
X147878571Y-43628571D01*
X147907142Y-43514285D01*
X147935714Y-43457142D01*
X147992857Y-43400000D01*
X148078571Y-43371428D01*
X148135714Y-43371428D01*
X148221428Y-43400000D01*
X148250000Y-43428571D01*
X148792857Y-43371428D02*
X148507142Y-43371428D01*
X148478571Y-43657142D01*
X148507142Y-43628571D01*
X148564285Y-43600000D01*
X148707142Y-43600000D01*
X148764285Y-43628571D01*
X148792857Y-43657142D01*
X148821428Y-43714285D01*
X148821428Y-43857142D01*
X148792857Y-43914285D01*
X148764285Y-43942857D01*
X148707142Y-43971428D01*
X148564285Y-43971428D01*
X148507142Y-43942857D01*
X148478571Y-43914285D01*
X143942857Y-63321428D02*
X143942857Y-63807142D01*
X143971428Y-63864285D01*
X144000000Y-63892857D01*
X144057142Y-63921428D01*
X144171428Y-63921428D01*
X144228571Y-63892857D01*
X144257142Y-63864285D01*
X144285714Y-63807142D01*
X144285714Y-63321428D01*
X144514285Y-63321428D02*
X144885714Y-63321428D01*
X144685714Y-63550000D01*
X144771428Y-63550000D01*
X144828571Y-63578571D01*
X144857142Y-63607142D01*
X144885714Y-63664285D01*
X144885714Y-63807142D01*
X144857142Y-63864285D01*
X144828571Y-63892857D01*
X144771428Y-63921428D01*
X144600000Y-63921428D01*
X144542857Y-63892857D01*
X144514285Y-63864285D01*
X146742857Y-44321428D02*
X146742857Y-44807142D01*
X146771428Y-44864285D01*
X146800000Y-44892857D01*
X146857142Y-44921428D01*
X146971428Y-44921428D01*
X147028571Y-44892857D01*
X147057142Y-44864285D01*
X147085714Y-44807142D01*
X147085714Y-44321428D01*
X147342857Y-44378571D02*
X147371428Y-44350000D01*
X147428571Y-44321428D01*
X147571428Y-44321428D01*
X147628571Y-44350000D01*
X147657142Y-44378571D01*
X147685714Y-44435714D01*
X147685714Y-44492857D01*
X147657142Y-44578571D01*
X147314285Y-44921428D01*
X147685714Y-44921428D01*
X151250000Y-55721428D02*
X151050000Y-55435714D01*
X150907142Y-55721428D02*
X150907142Y-55121428D01*
X151135714Y-55121428D01*
X151192857Y-55150000D01*
X151221428Y-55178571D01*
X151250000Y-55235714D01*
X151250000Y-55321428D01*
X151221428Y-55378571D01*
X151192857Y-55407142D01*
X151135714Y-55435714D01*
X150907142Y-55435714D01*
X151764285Y-55121428D02*
X151650000Y-55121428D01*
X151592857Y-55150000D01*
X151564285Y-55178571D01*
X151507142Y-55264285D01*
X151478571Y-55378571D01*
X151478571Y-55607142D01*
X151507142Y-55664285D01*
X151535714Y-55692857D01*
X151592857Y-55721428D01*
X151707142Y-55721428D01*
X151764285Y-55692857D01*
X151792857Y-55664285D01*
X151821428Y-55607142D01*
X151821428Y-55464285D01*
X151792857Y-55407142D01*
X151764285Y-55378571D01*
X151707142Y-55350000D01*
X151592857Y-55350000D01*
X151535714Y-55378571D01*
X151507142Y-55407142D01*
X151478571Y-55464285D01*
X151250000Y-30871428D02*
X151050000Y-30585714D01*
X150907142Y-30871428D02*
X150907142Y-30271428D01*
X151135714Y-30271428D01*
X151192857Y-30300000D01*
X151221428Y-30328571D01*
X151250000Y-30385714D01*
X151250000Y-30471428D01*
X151221428Y-30528571D01*
X151192857Y-30557142D01*
X151135714Y-30585714D01*
X150907142Y-30585714D01*
X151792857Y-30271428D02*
X151507142Y-30271428D01*
X151478571Y-30557142D01*
X151507142Y-30528571D01*
X151564285Y-30500000D01*
X151707142Y-30500000D01*
X151764285Y-30528571D01*
X151792857Y-30557142D01*
X151821428Y-30614285D01*
X151821428Y-30757142D01*
X151792857Y-30814285D01*
X151764285Y-30842857D01*
X151707142Y-30871428D01*
X151564285Y-30871428D01*
X151507142Y-30842857D01*
X151478571Y-30814285D01*
X151100000Y-65471428D02*
X150900000Y-65185714D01*
X150757142Y-65471428D02*
X150757142Y-64871428D01*
X150985714Y-64871428D01*
X151042857Y-64900000D01*
X151071428Y-64928571D01*
X151100000Y-64985714D01*
X151100000Y-65071428D01*
X151071428Y-65128571D01*
X151042857Y-65157142D01*
X150985714Y-65185714D01*
X150757142Y-65185714D01*
X151614285Y-65071428D02*
X151614285Y-65471428D01*
X151471428Y-64842857D02*
X151328571Y-65271428D01*
X151700000Y-65271428D01*
X150950000Y-42521428D02*
X150750000Y-42235714D01*
X150607142Y-42521428D02*
X150607142Y-41921428D01*
X150835714Y-41921428D01*
X150892857Y-41950000D01*
X150921428Y-41978571D01*
X150950000Y-42035714D01*
X150950000Y-42121428D01*
X150921428Y-42178571D01*
X150892857Y-42207142D01*
X150835714Y-42235714D01*
X150607142Y-42235714D01*
X151150000Y-41921428D02*
X151521428Y-41921428D01*
X151321428Y-42150000D01*
X151407142Y-42150000D01*
X151464285Y-42178571D01*
X151492857Y-42207142D01*
X151521428Y-42264285D01*
X151521428Y-42407142D01*
X151492857Y-42464285D01*
X151464285Y-42492857D01*
X151407142Y-42521428D01*
X151235714Y-42521428D01*
X151178571Y-42492857D01*
X151150000Y-42464285D01*
X144900000Y-57721428D02*
X144700000Y-57435714D01*
X144557142Y-57721428D02*
X144557142Y-57121428D01*
X144785714Y-57121428D01*
X144842857Y-57150000D01*
X144871428Y-57178571D01*
X144900000Y-57235714D01*
X144900000Y-57321428D01*
X144871428Y-57378571D01*
X144842857Y-57407142D01*
X144785714Y-57435714D01*
X144557142Y-57435714D01*
X145128571Y-57178571D02*
X145157142Y-57150000D01*
X145214285Y-57121428D01*
X145357142Y-57121428D01*
X145414285Y-57150000D01*
X145442857Y-57178571D01*
X145471428Y-57235714D01*
X145471428Y-57292857D01*
X145442857Y-57378571D01*
X145100000Y-57721428D01*
X145471428Y-57721428D01*
X144250000Y-42821428D02*
X144050000Y-42535714D01*
X143907142Y-42821428D02*
X143907142Y-42221428D01*
X144135714Y-42221428D01*
X144192857Y-42250000D01*
X144221428Y-42278571D01*
X144250000Y-42335714D01*
X144250000Y-42421428D01*
X144221428Y-42478571D01*
X144192857Y-42507142D01*
X144135714Y-42535714D01*
X143907142Y-42535714D01*
X144821428Y-42821428D02*
X144478571Y-42821428D01*
X144650000Y-42821428D02*
X144650000Y-42221428D01*
X144592857Y-42307142D01*
X144535714Y-42364285D01*
X144478571Y-42392857D01*
X178350000Y-42421428D02*
X178350000Y-42850000D01*
X178321428Y-42935714D01*
X178264285Y-42992857D01*
X178178571Y-43021428D01*
X178121428Y-43021428D01*
X178578571Y-42421428D02*
X178950000Y-42421428D01*
X178750000Y-42650000D01*
X178835714Y-42650000D01*
X178892857Y-42678571D01*
X178921428Y-42707142D01*
X178950000Y-42764285D01*
X178950000Y-42907142D01*
X178921428Y-42964285D01*
X178892857Y-42992857D01*
X178835714Y-43021428D01*
X178664285Y-43021428D01*
X178607142Y-42992857D01*
X178578571Y-42964285D01*
X115250000Y-37221428D02*
X115250000Y-37650000D01*
X115221428Y-37735714D01*
X115164285Y-37792857D01*
X115078571Y-37821428D01*
X115021428Y-37821428D01*
X115507142Y-37278571D02*
X115535714Y-37250000D01*
X115592857Y-37221428D01*
X115735714Y-37221428D01*
X115792857Y-37250000D01*
X115821428Y-37278571D01*
X115850000Y-37335714D01*
X115850000Y-37392857D01*
X115821428Y-37478571D01*
X115478571Y-37821428D01*
X115850000Y-37821428D01*
X129100000Y-64521428D02*
X129100000Y-64950000D01*
X129071428Y-65035714D01*
X129014285Y-65092857D01*
X128928571Y-65121428D01*
X128871428Y-65121428D01*
X129700000Y-65121428D02*
X129357142Y-65121428D01*
X129528571Y-65121428D02*
X129528571Y-64521428D01*
X129471428Y-64607142D01*
X129414285Y-64664285D01*
X129357142Y-64692857D01*
X148400000Y-58614285D02*
X148371428Y-58642857D01*
X148285714Y-58671428D01*
X148228571Y-58671428D01*
X148142857Y-58642857D01*
X148085714Y-58585714D01*
X148057142Y-58528571D01*
X148028571Y-58414285D01*
X148028571Y-58328571D01*
X148057142Y-58214285D01*
X148085714Y-58157142D01*
X148142857Y-58100000D01*
X148228571Y-58071428D01*
X148285714Y-58071428D01*
X148371428Y-58100000D01*
X148400000Y-58128571D01*
X148914285Y-58071428D02*
X148800000Y-58071428D01*
X148742857Y-58100000D01*
X148714285Y-58128571D01*
X148657142Y-58214285D01*
X148628571Y-58328571D01*
X148628571Y-58557142D01*
X148657142Y-58614285D01*
X148685714Y-58642857D01*
X148742857Y-58671428D01*
X148857142Y-58671428D01*
X148914285Y-58642857D01*
X148942857Y-58614285D01*
X148971428Y-58557142D01*
X148971428Y-58414285D01*
X148942857Y-58357142D01*
X148914285Y-58328571D01*
X148857142Y-58300000D01*
X148742857Y-58300000D01*
X148685714Y-58328571D01*
X148657142Y-58357142D01*
X148628571Y-58414285D01*
X140300000Y-49364285D02*
X140271428Y-49392857D01*
X140185714Y-49421428D01*
X140128571Y-49421428D01*
X140042857Y-49392857D01*
X139985714Y-49335714D01*
X139957142Y-49278571D01*
X139928571Y-49164285D01*
X139928571Y-49078571D01*
X139957142Y-48964285D01*
X139985714Y-48907142D01*
X140042857Y-48850000D01*
X140128571Y-48821428D01*
X140185714Y-48821428D01*
X140271428Y-48850000D01*
X140300000Y-48878571D01*
X140814285Y-49021428D02*
X140814285Y-49421428D01*
X140671428Y-48792857D02*
X140528571Y-49221428D01*
X140900000Y-49221428D01*
X141750000Y-58514285D02*
X141721428Y-58542857D01*
X141635714Y-58571428D01*
X141578571Y-58571428D01*
X141492857Y-58542857D01*
X141435714Y-58485714D01*
X141407142Y-58428571D01*
X141378571Y-58314285D01*
X141378571Y-58228571D01*
X141407142Y-58114285D01*
X141435714Y-58057142D01*
X141492857Y-58000000D01*
X141578571Y-57971428D01*
X141635714Y-57971428D01*
X141721428Y-58000000D01*
X141750000Y-58028571D01*
X141950000Y-57971428D02*
X142321428Y-57971428D01*
X142121428Y-58200000D01*
X142207142Y-58200000D01*
X142264285Y-58228571D01*
X142292857Y-58257142D01*
X142321428Y-58314285D01*
X142321428Y-58457142D01*
X142292857Y-58514285D01*
X142264285Y-58542857D01*
X142207142Y-58571428D01*
X142035714Y-58571428D01*
X141978571Y-58542857D01*
X141950000Y-58514285D01*
X132650000Y-30314285D02*
X132621428Y-30342857D01*
X132535714Y-30371428D01*
X132478571Y-30371428D01*
X132392857Y-30342857D01*
X132335714Y-30285714D01*
X132307142Y-30228571D01*
X132278571Y-30114285D01*
X132278571Y-30028571D01*
X132307142Y-29914285D01*
X132335714Y-29857142D01*
X132392857Y-29800000D01*
X132478571Y-29771428D01*
X132535714Y-29771428D01*
X132621428Y-29800000D01*
X132650000Y-29828571D01*
X132878571Y-29828571D02*
X132907142Y-29800000D01*
X132964285Y-29771428D01*
X133107142Y-29771428D01*
X133164285Y-29800000D01*
X133192857Y-29828571D01*
X133221428Y-29885714D01*
X133221428Y-29942857D01*
X133192857Y-30028571D01*
X132850000Y-30371428D01*
X133221428Y-30371428D01*
X123850000Y-48614285D02*
X123821428Y-48642857D01*
X123735714Y-48671428D01*
X123678571Y-48671428D01*
X123592857Y-48642857D01*
X123535714Y-48585714D01*
X123507142Y-48528571D01*
X123478571Y-48414285D01*
X123478571Y-48328571D01*
X123507142Y-48214285D01*
X123535714Y-48157142D01*
X123592857Y-48100000D01*
X123678571Y-48071428D01*
X123735714Y-48071428D01*
X123821428Y-48100000D01*
X123850000Y-48128571D01*
X124192857Y-48328571D02*
X124135714Y-48300000D01*
X124107142Y-48271428D01*
X124078571Y-48214285D01*
X124078571Y-48185714D01*
X124107142Y-48128571D01*
X124135714Y-48100000D01*
X124192857Y-48071428D01*
X124307142Y-48071428D01*
X124364285Y-48100000D01*
X124392857Y-48128571D01*
X124421428Y-48185714D01*
X124421428Y-48214285D01*
X124392857Y-48271428D01*
X124364285Y-48300000D01*
X124307142Y-48328571D01*
X124192857Y-48328571D01*
X124135714Y-48357142D01*
X124107142Y-48385714D01*
X124078571Y-48442857D01*
X124078571Y-48557142D01*
X124107142Y-48614285D01*
X124135714Y-48642857D01*
X124192857Y-48671428D01*
X124307142Y-48671428D01*
X124364285Y-48642857D01*
X124392857Y-48614285D01*
X124421428Y-48557142D01*
X124421428Y-48442857D01*
X124392857Y-48385714D01*
X124364285Y-48357142D01*
X124307142Y-48328571D01*
X122250000Y-58514285D02*
X122221428Y-58542857D01*
X122135714Y-58571428D01*
X122078571Y-58571428D01*
X121992857Y-58542857D01*
X121935714Y-58485714D01*
X121907142Y-58428571D01*
X121878571Y-58314285D01*
X121878571Y-58228571D01*
X121907142Y-58114285D01*
X121935714Y-58057142D01*
X121992857Y-58000000D01*
X122078571Y-57971428D01*
X122135714Y-57971428D01*
X122221428Y-58000000D01*
X122250000Y-58028571D01*
X122450000Y-57971428D02*
X122850000Y-57971428D01*
X122592857Y-58571428D01*
X133642857Y-49821428D02*
X133642857Y-50307142D01*
X133671428Y-50364285D01*
X133700000Y-50392857D01*
X133757142Y-50421428D01*
X133871428Y-50421428D01*
X133928571Y-50392857D01*
X133957142Y-50364285D01*
X133985714Y-50307142D01*
X133985714Y-49821428D01*
X134585714Y-50421428D02*
X134242857Y-50421428D01*
X134414285Y-50421428D02*
X134414285Y-49821428D01*
X134357142Y-49907142D01*
X134300000Y-49964285D01*
X134242857Y-49992857D01*
X159042857Y-74428571D02*
X158985714Y-74400000D01*
X158928571Y-74342857D01*
X158842857Y-74257142D01*
X158785714Y-74228571D01*
X158728571Y-74228571D01*
X158757142Y-74371428D02*
X158700000Y-74342857D01*
X158642857Y-74285714D01*
X158614285Y-74171428D01*
X158614285Y-73971428D01*
X158642857Y-73857142D01*
X158700000Y-73800000D01*
X158757142Y-73771428D01*
X158871428Y-73771428D01*
X158928571Y-73800000D01*
X158985714Y-73857142D01*
X159014285Y-73971428D01*
X159014285Y-74171428D01*
X158985714Y-74285714D01*
X158928571Y-74342857D01*
X158871428Y-74371428D01*
X158757142Y-74371428D01*
X159528571Y-73971428D02*
X159528571Y-74371428D01*
X159385714Y-73742857D02*
X159242857Y-74171428D01*
X159614285Y-74171428D01*
X159042857Y-62928571D02*
X158985714Y-62900000D01*
X158928571Y-62842857D01*
X158842857Y-62757142D01*
X158785714Y-62728571D01*
X158728571Y-62728571D01*
X158757142Y-62871428D02*
X158700000Y-62842857D01*
X158642857Y-62785714D01*
X158614285Y-62671428D01*
X158614285Y-62471428D01*
X158642857Y-62357142D01*
X158700000Y-62300000D01*
X158757142Y-62271428D01*
X158871428Y-62271428D01*
X158928571Y-62300000D01*
X158985714Y-62357142D01*
X159014285Y-62471428D01*
X159014285Y-62671428D01*
X158985714Y-62785714D01*
X158928571Y-62842857D01*
X158871428Y-62871428D01*
X158757142Y-62871428D01*
X159214285Y-62271428D02*
X159585714Y-62271428D01*
X159385714Y-62500000D01*
X159471428Y-62500000D01*
X159528571Y-62528571D01*
X159557142Y-62557142D01*
X159585714Y-62614285D01*
X159585714Y-62757142D01*
X159557142Y-62814285D01*
X159528571Y-62842857D01*
X159471428Y-62871428D01*
X159300000Y-62871428D01*
X159242857Y-62842857D01*
X159214285Y-62814285D01*
X159092857Y-51378571D02*
X159035714Y-51350000D01*
X158978571Y-51292857D01*
X158892857Y-51207142D01*
X158835714Y-51178571D01*
X158778571Y-51178571D01*
X158807142Y-51321428D02*
X158750000Y-51292857D01*
X158692857Y-51235714D01*
X158664285Y-51121428D01*
X158664285Y-50921428D01*
X158692857Y-50807142D01*
X158750000Y-50750000D01*
X158807142Y-50721428D01*
X158921428Y-50721428D01*
X158978571Y-50750000D01*
X159035714Y-50807142D01*
X159064285Y-50921428D01*
X159064285Y-51121428D01*
X159035714Y-51235714D01*
X158978571Y-51292857D01*
X158921428Y-51321428D01*
X158807142Y-51321428D01*
X159292857Y-50778571D02*
X159321428Y-50750000D01*
X159378571Y-50721428D01*
X159521428Y-50721428D01*
X159578571Y-50750000D01*
X159607142Y-50778571D01*
X159635714Y-50835714D01*
X159635714Y-50892857D01*
X159607142Y-50978571D01*
X159264285Y-51321428D01*
X159635714Y-51321428D01*
X159142857Y-39728571D02*
X159085714Y-39700000D01*
X159028571Y-39642857D01*
X158942857Y-39557142D01*
X158885714Y-39528571D01*
X158828571Y-39528571D01*
X158857142Y-39671428D02*
X158800000Y-39642857D01*
X158742857Y-39585714D01*
X158714285Y-39471428D01*
X158714285Y-39271428D01*
X158742857Y-39157142D01*
X158800000Y-39100000D01*
X158857142Y-39071428D01*
X158971428Y-39071428D01*
X159028571Y-39100000D01*
X159085714Y-39157142D01*
X159114285Y-39271428D01*
X159114285Y-39471428D01*
X159085714Y-39585714D01*
X159028571Y-39642857D01*
X158971428Y-39671428D01*
X158857142Y-39671428D01*
X159685714Y-39671428D02*
X159342857Y-39671428D01*
X159514285Y-39671428D02*
X159514285Y-39071428D01*
X159457142Y-39157142D01*
X159400000Y-39214285D01*
X159342857Y-39242857D01*
%LPC*%
G36*
G01*
X148502999Y-47785000D02*
X149803001Y-47785000D01*
G75*
G02*
X150053000Y-48034999I0J-249999D01*
G01*
X150053000Y-48860001D01*
G75*
G02*
X149803001Y-49110000I-249999J0D01*
G01*
X148502999Y-49110000D01*
G75*
G02*
X148253000Y-48860001I0J249999D01*
G01*
X148253000Y-48034999D01*
G75*
G02*
X148502999Y-47785000I249999J0D01*
G01*
G37*
G36*
G01*
X148502999Y-44660000D02*
X149803001Y-44660000D01*
G75*
G02*
X150053000Y-44909999I0J-249999D01*
G01*
X150053000Y-45735001D01*
G75*
G02*
X149803001Y-45985000I-249999J0D01*
G01*
X148502999Y-45985000D01*
G75*
G02*
X148253000Y-45735001I0J249999D01*
G01*
X148253000Y-44909999D01*
G75*
G02*
X148502999Y-44660000I249999J0D01*
G01*
G37*
D13*
X145878000Y-61310000D03*
D14*
X144428000Y-62310000D03*
X144428000Y-61810000D03*
X144428000Y-61310000D03*
X144428000Y-60810000D03*
X144428000Y-60310000D03*
X147328000Y-60310000D03*
X147328000Y-60810000D03*
X147328000Y-61310000D03*
X147328000Y-61810000D03*
X147328000Y-62310000D03*
D13*
X145653000Y-46885000D03*
D14*
X144203000Y-47885000D03*
X144203000Y-47385000D03*
X144203000Y-46885000D03*
X144203000Y-46385000D03*
X144203000Y-45885000D03*
X147103000Y-45885000D03*
X147103000Y-46385000D03*
X147103000Y-46885000D03*
X147103000Y-47385000D03*
X147103000Y-47885000D03*
D15*
X181000000Y-61610000D03*
X181200000Y-40610000D03*
G36*
G01*
X151174999Y-62300000D02*
X154025001Y-62300000D01*
G75*
G02*
X154275000Y-62549999I0J-249999D01*
G01*
X154275000Y-63450001D01*
G75*
G02*
X154025001Y-63700000I-249999J0D01*
G01*
X151174999Y-63700000D01*
G75*
G02*
X150925000Y-63450001I0J249999D01*
G01*
X150925000Y-62549999D01*
G75*
G02*
X151174999Y-62300000I249999J0D01*
G01*
G37*
G36*
G01*
X151174999Y-56200000D02*
X154025001Y-56200000D01*
G75*
G02*
X154275000Y-56449999I0J-249999D01*
G01*
X154275000Y-57350001D01*
G75*
G02*
X154025001Y-57600000I-249999J0D01*
G01*
X151174999Y-57600000D01*
G75*
G02*
X150925000Y-57350001I0J249999D01*
G01*
X150925000Y-56449999D01*
G75*
G02*
X151174999Y-56200000I249999J0D01*
G01*
G37*
G36*
G01*
X151202999Y-37510000D02*
X154053001Y-37510000D01*
G75*
G02*
X154303000Y-37759999I0J-249999D01*
G01*
X154303000Y-38660001D01*
G75*
G02*
X154053001Y-38910000I-249999J0D01*
G01*
X151202999Y-38910000D01*
G75*
G02*
X150953000Y-38660001I0J249999D01*
G01*
X150953000Y-37759999D01*
G75*
G02*
X151202999Y-37510000I249999J0D01*
G01*
G37*
G36*
G01*
X151202999Y-31410000D02*
X154053001Y-31410000D01*
G75*
G02*
X154303000Y-31659999I0J-249999D01*
G01*
X154303000Y-32560001D01*
G75*
G02*
X154053001Y-32810000I-249999J0D01*
G01*
X151202999Y-32810000D01*
G75*
G02*
X150953000Y-32560001I0J249999D01*
G01*
X150953000Y-31659999D01*
G75*
G02*
X151202999Y-31410000I249999J0D01*
G01*
G37*
G36*
G01*
X151002999Y-72210000D02*
X153853001Y-72210000D01*
G75*
G02*
X154103000Y-72459999I0J-249999D01*
G01*
X154103000Y-73360001D01*
G75*
G02*
X153853001Y-73610000I-249999J0D01*
G01*
X151002999Y-73610000D01*
G75*
G02*
X150753000Y-73360001I0J249999D01*
G01*
X150753000Y-72459999D01*
G75*
G02*
X151002999Y-72210000I249999J0D01*
G01*
G37*
G36*
G01*
X151002999Y-66110000D02*
X153853001Y-66110000D01*
G75*
G02*
X154103000Y-66359999I0J-249999D01*
G01*
X154103000Y-67260001D01*
G75*
G02*
X153853001Y-67510000I-249999J0D01*
G01*
X151002999Y-67510000D01*
G75*
G02*
X150753000Y-67260001I0J249999D01*
G01*
X150753000Y-66359999D01*
G75*
G02*
X151002999Y-66110000I249999J0D01*
G01*
G37*
G36*
G01*
X151002999Y-49110000D02*
X153853001Y-49110000D01*
G75*
G02*
X154103000Y-49359999I0J-249999D01*
G01*
X154103000Y-50260001D01*
G75*
G02*
X153853001Y-50510000I-249999J0D01*
G01*
X151002999Y-50510000D01*
G75*
G02*
X150753000Y-50260001I0J249999D01*
G01*
X150753000Y-49359999D01*
G75*
G02*
X151002999Y-49110000I249999J0D01*
G01*
G37*
G36*
G01*
X151002999Y-43010000D02*
X153853001Y-43010000D01*
G75*
G02*
X154103000Y-43259999I0J-249999D01*
G01*
X154103000Y-44160001D01*
G75*
G02*
X153853001Y-44410000I-249999J0D01*
G01*
X151002999Y-44410000D01*
G75*
G02*
X150753000Y-44160001I0J249999D01*
G01*
X150753000Y-43259999D01*
G75*
G02*
X151002999Y-43010000I249999J0D01*
G01*
G37*
G36*
G01*
X145853000Y-58847500D02*
X145853000Y-58372500D01*
G75*
G02*
X146090500Y-58135000I237500J0D01*
G01*
X146590500Y-58135000D01*
G75*
G02*
X146828000Y-58372500I0J-237500D01*
G01*
X146828000Y-58847500D01*
G75*
G02*
X146590500Y-59085000I-237500J0D01*
G01*
X146090500Y-59085000D01*
G75*
G02*
X145853000Y-58847500I0J237500D01*
G01*
G37*
G36*
G01*
X144028000Y-58847500D02*
X144028000Y-58372500D01*
G75*
G02*
X144265500Y-58135000I237500J0D01*
G01*
X144765500Y-58135000D01*
G75*
G02*
X145003000Y-58372500I0J-237500D01*
G01*
X145003000Y-58847500D01*
G75*
G02*
X144765500Y-59085000I-237500J0D01*
G01*
X144265500Y-59085000D01*
G75*
G02*
X144028000Y-58847500I0J237500D01*
G01*
G37*
G36*
G01*
X142837500Y-43512500D02*
X142837500Y-43987500D01*
G75*
G02*
X142600000Y-44225000I-237500J0D01*
G01*
X142100000Y-44225000D01*
G75*
G02*
X141862500Y-43987500I0J237500D01*
G01*
X141862500Y-43512500D01*
G75*
G02*
X142100000Y-43275000I237500J0D01*
G01*
X142600000Y-43275000D01*
G75*
G02*
X142837500Y-43512500I0J-237500D01*
G01*
G37*
G36*
G01*
X144662500Y-43512500D02*
X144662500Y-43987500D01*
G75*
G02*
X144425000Y-44225000I-237500J0D01*
G01*
X143925000Y-44225000D01*
G75*
G02*
X143687500Y-43987500I0J237500D01*
G01*
X143687500Y-43512500D01*
G75*
G02*
X143925000Y-43275000I237500J0D01*
G01*
X144425000Y-43275000D01*
G75*
G02*
X144662500Y-43512500I0J-237500D01*
G01*
G37*
D16*
X181828000Y-45950000D03*
X181828000Y-51030000D03*
D17*
X181828000Y-56110000D03*
D16*
X118828000Y-45690000D03*
D17*
X118828000Y-40610000D03*
D16*
X146560000Y-69200000D03*
D17*
X131320000Y-69200000D03*
D16*
X141480000Y-69200000D03*
X136400000Y-69200000D03*
D18*
X182828000Y-70110000D03*
X119828000Y-70110000D03*
X182828000Y-34110000D03*
X119828000Y-34110000D03*
G36*
G01*
X148577999Y-62310000D02*
X149878001Y-62310000D01*
G75*
G02*
X150128000Y-62559999I0J-249999D01*
G01*
X150128000Y-63385001D01*
G75*
G02*
X149878001Y-63635000I-249999J0D01*
G01*
X148577999Y-63635000D01*
G75*
G02*
X148328000Y-63385001I0J249999D01*
G01*
X148328000Y-62559999D01*
G75*
G02*
X148577999Y-62310000I249999J0D01*
G01*
G37*
G36*
G01*
X148577999Y-59185000D02*
X149878001Y-59185000D01*
G75*
G02*
X150128000Y-59434999I0J-249999D01*
G01*
X150128000Y-60260001D01*
G75*
G02*
X149878001Y-60510000I-249999J0D01*
G01*
X148577999Y-60510000D01*
G75*
G02*
X148328000Y-60260001I0J249999D01*
G01*
X148328000Y-59434999D01*
G75*
G02*
X148577999Y-59185000I249999J0D01*
G01*
G37*
G36*
G01*
X142878001Y-46110000D02*
X141577999Y-46110000D01*
G75*
G02*
X141328000Y-45860001I0J249999D01*
G01*
X141328000Y-45034999D01*
G75*
G02*
X141577999Y-44785000I249999J0D01*
G01*
X142878001Y-44785000D01*
G75*
G02*
X143128000Y-45034999I0J-249999D01*
G01*
X143128000Y-45860001D01*
G75*
G02*
X142878001Y-46110000I-249999J0D01*
G01*
G37*
G36*
G01*
X142878001Y-49235000D02*
X141577999Y-49235000D01*
G75*
G02*
X141328000Y-48985001I0J249999D01*
G01*
X141328000Y-48159999D01*
G75*
G02*
X141577999Y-47910000I249999J0D01*
G01*
X142878001Y-47910000D01*
G75*
G02*
X143128000Y-48159999I0J-249999D01*
G01*
X143128000Y-48985001D01*
G75*
G02*
X142878001Y-49235000I-249999J0D01*
G01*
G37*
G36*
G01*
X143078001Y-60510000D02*
X141777999Y-60510000D01*
G75*
G02*
X141528000Y-60260001I0J249999D01*
G01*
X141528000Y-59434999D01*
G75*
G02*
X141777999Y-59185000I249999J0D01*
G01*
X143078001Y-59185000D01*
G75*
G02*
X143328000Y-59434999I0J-249999D01*
G01*
X143328000Y-60260001D01*
G75*
G02*
X143078001Y-60510000I-249999J0D01*
G01*
G37*
G36*
G01*
X143078001Y-63635000D02*
X141777999Y-63635000D01*
G75*
G02*
X141528000Y-63385001I0J249999D01*
G01*
X141528000Y-62559999D01*
G75*
G02*
X141777999Y-62310000I249999J0D01*
G01*
X143078001Y-62310000D01*
G75*
G02*
X143328000Y-62559999I0J-249999D01*
G01*
X143328000Y-63385001D01*
G75*
G02*
X143078001Y-63635000I-249999J0D01*
G01*
G37*
D19*
X132828000Y-36250000D03*
D20*
X132828000Y-43750000D03*
G36*
G01*
X125515500Y-49847500D02*
X125515500Y-49372500D01*
G75*
G02*
X125753000Y-49135000I237500J0D01*
G01*
X126353000Y-49135000D01*
G75*
G02*
X126590500Y-49372500I0J-237500D01*
G01*
X126590500Y-49847500D01*
G75*
G02*
X126353000Y-50085000I-237500J0D01*
G01*
X125753000Y-50085000D01*
G75*
G02*
X125515500Y-49847500I0J237500D01*
G01*
G37*
G36*
G01*
X123790500Y-49847500D02*
X123790500Y-49372500D01*
G75*
G02*
X124028000Y-49135000I237500J0D01*
G01*
X124628000Y-49135000D01*
G75*
G02*
X124865500Y-49372500I0J-237500D01*
G01*
X124865500Y-49847500D01*
G75*
G02*
X124628000Y-50085000I-237500J0D01*
G01*
X124028000Y-50085000D01*
G75*
G02*
X123790500Y-49847500I0J237500D01*
G01*
G37*
G36*
G01*
X125465500Y-58847500D02*
X125465500Y-58372500D01*
G75*
G02*
X125703000Y-58135000I237500J0D01*
G01*
X126303000Y-58135000D01*
G75*
G02*
X126540500Y-58372500I0J-237500D01*
G01*
X126540500Y-58847500D01*
G75*
G02*
X126303000Y-59085000I-237500J0D01*
G01*
X125703000Y-59085000D01*
G75*
G02*
X125465500Y-58847500I0J237500D01*
G01*
G37*
G36*
G01*
X123740500Y-58847500D02*
X123740500Y-58372500D01*
G75*
G02*
X123978000Y-58135000I237500J0D01*
G01*
X124578000Y-58135000D01*
G75*
G02*
X124815500Y-58372500I0J-237500D01*
G01*
X124815500Y-58847500D01*
G75*
G02*
X124578000Y-59085000I-237500J0D01*
G01*
X123978000Y-59085000D01*
G75*
G02*
X123740500Y-58847500I0J237500D01*
G01*
G37*
D21*
X131153000Y-54135000D03*
D22*
X124853000Y-56415000D03*
X124853000Y-51855000D03*
D23*
X156228000Y-71890000D03*
X156228000Y-69350000D03*
D24*
X156228000Y-66810000D03*
D25*
X172888000Y-69350000D03*
D23*
X156228000Y-60340000D03*
X156228000Y-57800000D03*
D24*
X156228000Y-55260000D03*
D25*
X172888000Y-57800000D03*
D23*
X156228000Y-48790000D03*
X156228000Y-46250000D03*
D24*
X156228000Y-43710000D03*
D25*
X172888000Y-46250000D03*
D23*
X156228000Y-37190000D03*
X156228000Y-34650000D03*
D24*
X156228000Y-32110000D03*
D25*
X172888000Y-34650000D03*
M02*
