%FSLAX45Y45*%
G04 Gerber Fmt 4.5, Leading zero omitted, Abs format (unit mm)*
G04 Created by KiCad (PCBNEW 5.1.10) date 2021-08-14 17:23:02*
%MOMM*%
%LPD*%
G01*
G04 APERTURE LIST*
%TA.AperFunction,Profile*%
%ADD10C,0.050000*%
%TD*%
%ADD11C,0.200000*%
%ADD12C,0.300000*%
G04 APERTURE END LIST*
D10*
X11482800Y-3461000D02*
X11482800Y-3411000D01*
X11482800Y-7011000D02*
X11482800Y-3461000D01*
X11982800Y-7511000D02*
X18282800Y-7511000D01*
X18282800Y-2911000D02*
X11982800Y-2911000D01*
X18782800Y-3411000D02*
X18782800Y-7011000D01*
X11982800Y-7511000D02*
G75*
G02*
X11482800Y-7011000I0J500000D01*
G01*
X11482800Y-3411000D02*
G75*
G02*
X11982800Y-2911000I500000J0D01*
G01*
X18282800Y-2911000D02*
G75*
G02*
X18782800Y-3411000I0J-500000D01*
G01*
X18782800Y-7011000D02*
G75*
G02*
X18282800Y-7511000I-500000J0D01*
G01*
D11*
X12420000Y-5985000D02*
X12460000Y-6025000D01*
X12460000Y-5985000D02*
X12420000Y-6025000D01*
X13831225Y-4918725D02*
X13871225Y-4958725D01*
X13871225Y-4918725D02*
X13831225Y-4958725D01*
X13831225Y-6180775D02*
X13871225Y-6220775D01*
X13871225Y-6180775D02*
X13831225Y-6220775D01*
X13940000Y-4961000D02*
X13980000Y-5001000D01*
X13980000Y-4961000D02*
X13940000Y-5001000D01*
X14047500Y-5997500D02*
X14087500Y-6037500D01*
X14087500Y-5997500D02*
X14047500Y-6037500D01*
X14178740Y-6133740D02*
X14218740Y-6173740D01*
X14218740Y-6133740D02*
X14178740Y-6173740D01*
X14462396Y-6362396D02*
X14502396Y-6402396D01*
X14502396Y-6362396D02*
X14462396Y-6402396D01*
X14609665Y-6335335D02*
X14649665Y-6375335D01*
X14649665Y-6335335D02*
X14609665Y-6375335D01*
X14612500Y-4888500D02*
X14652500Y-4928500D01*
X14652500Y-4888500D02*
X14612500Y-4928500D01*
X14990000Y-7035000D02*
X15030000Y-7075000D01*
X15030000Y-7035000D02*
X14990000Y-7075000D01*
X15245000Y-4195000D02*
X15285000Y-4235000D01*
X15285000Y-4195000D02*
X15245000Y-4235000D01*
X15245000Y-4668500D02*
X15285000Y-4708500D01*
X15285000Y-4668500D02*
X15245000Y-4708500D01*
X15677800Y-3211000D02*
G75*
G03*
X15677800Y-3211000I-55000J0D01*
G01*
X15677800Y-3465000D02*
G75*
G03*
X15677800Y-3465000I-55000J0D01*
G01*
X15677800Y-3719000D02*
G75*
G03*
X15677800Y-3719000I-55000J0D01*
G01*
X15677800Y-4371000D02*
G75*
G03*
X15677800Y-4371000I-55000J0D01*
G01*
X15677800Y-4625000D02*
G75*
G03*
X15677800Y-4625000I-55000J0D01*
G01*
X15677800Y-4879000D02*
G75*
G03*
X15677800Y-4879000I-55000J0D01*
G01*
X15677800Y-5526000D02*
G75*
G03*
X15677800Y-5526000I-55000J0D01*
G01*
X15677800Y-5780000D02*
G75*
G03*
X15677800Y-5780000I-55000J0D01*
G01*
X15677800Y-6034000D02*
G75*
G03*
X15677800Y-6034000I-55000J0D01*
G01*
X15677800Y-6681000D02*
G75*
G03*
X15677800Y-6681000I-55000J0D01*
G01*
X15677800Y-6935000D02*
G75*
G03*
X15677800Y-6935000I-55000J0D01*
G01*
X15677800Y-7189000D02*
G75*
G03*
X15677800Y-7189000I-55000J0D01*
G01*
X13282800Y-3565000D02*
X13282800Y-3685000D01*
X13222800Y-3625000D02*
X13342800Y-3625000D01*
X13282800Y-4315000D02*
X13282800Y-4435000D01*
X13222800Y-4375000D02*
X13342800Y-4375000D01*
X11936541Y-4114741D02*
X11936541Y-4007259D01*
X11829059Y-4007259D01*
X11829059Y-4114741D01*
X11936541Y-4114741D01*
X11936541Y-4622741D02*
X11936541Y-4515259D01*
X11829059Y-4515259D01*
X11829059Y-4622741D01*
X11936541Y-4622741D01*
X13185741Y-6973741D02*
X13185741Y-6866259D01*
X13078259Y-6866259D01*
X13078259Y-6973741D01*
X13185741Y-6973741D01*
X13693741Y-6973741D02*
X13693741Y-6866259D01*
X13586259Y-6866259D01*
X13586259Y-6973741D01*
X13693741Y-6973741D01*
X14201741Y-6973741D02*
X14201741Y-6866259D01*
X14094259Y-6866259D01*
X14094259Y-6973741D01*
X14201741Y-6973741D01*
X14709741Y-6973741D02*
X14709741Y-6866259D01*
X14602259Y-6866259D01*
X14602259Y-6973741D01*
X14709741Y-6973741D01*
X18236541Y-4648741D02*
X18236541Y-4541259D01*
X18129059Y-4541259D01*
X18129059Y-4648741D01*
X18236541Y-4648741D01*
X18236541Y-5156741D02*
X18236541Y-5049259D01*
X18129059Y-5049259D01*
X18129059Y-5156741D01*
X18236541Y-5156741D01*
X18236541Y-5664741D02*
X18236541Y-5557259D01*
X18129059Y-5557259D01*
X18129059Y-5664741D01*
X18236541Y-5664741D01*
X11982800Y-3571000D02*
X12142800Y-3411000D01*
X11982800Y-3251000D01*
X11822800Y-3411000D01*
X11982800Y-3571000D01*
X11982800Y-7171000D02*
X12142800Y-7011000D01*
X11982800Y-6851000D01*
X11822800Y-7011000D01*
X11982800Y-7171000D01*
X18282800Y-3571000D02*
X18442800Y-3411000D01*
X18282800Y-3251000D01*
X18122800Y-3411000D01*
X18282800Y-3571000D01*
X18282800Y-7171000D02*
X18442800Y-7011000D01*
X18282800Y-6851000D01*
X18122800Y-7011000D01*
X18282800Y-7171000D01*
X17113800Y-3290000D02*
X17463800Y-3640000D01*
X17463800Y-3290000D02*
X17113800Y-3640000D01*
X17463800Y-3465000D02*
G75*
G03*
X17463800Y-3465000I-175000J0D01*
G01*
X17113800Y-4450000D02*
X17463800Y-4800000D01*
X17463800Y-4450000D02*
X17113800Y-4800000D01*
X17463800Y-4625000D02*
G75*
G03*
X17463800Y-4625000I-175000J0D01*
G01*
X17113800Y-5605000D02*
X17463800Y-5955000D01*
X17463800Y-5605000D02*
X17113800Y-5955000D01*
X17463800Y-5780000D02*
G75*
G03*
X17463800Y-5780000I-175000J0D01*
G01*
X17113800Y-6760000D02*
X17463800Y-7110000D01*
X17463800Y-6760000D02*
X17113800Y-7110000D01*
X17463800Y-6935000D02*
G75*
G03*
X17463800Y-6935000I-175000J0D01*
G01*
D12*
X11766728Y-7979214D02*
X11766728Y-7679214D01*
X11838157Y-7679214D01*
X11881014Y-7693500D01*
X11909586Y-7722071D01*
X11923871Y-7750643D01*
X11938157Y-7807786D01*
X11938157Y-7850643D01*
X11923871Y-7907786D01*
X11909586Y-7936357D01*
X11881014Y-7964929D01*
X11838157Y-7979214D01*
X11766728Y-7979214D01*
X12066728Y-7979214D02*
X12066728Y-7779214D01*
X12066728Y-7836357D02*
X12081014Y-7807786D01*
X12095300Y-7793500D01*
X12123871Y-7779214D01*
X12152443Y-7779214D01*
X12252443Y-7979214D02*
X12252443Y-7779214D01*
X12252443Y-7679214D02*
X12238157Y-7693500D01*
X12252443Y-7707786D01*
X12266728Y-7693500D01*
X12252443Y-7679214D01*
X12252443Y-7707786D01*
X12438157Y-7979214D02*
X12409586Y-7964929D01*
X12395300Y-7936357D01*
X12395300Y-7679214D01*
X12595300Y-7979214D02*
X12566728Y-7964929D01*
X12552443Y-7936357D01*
X12552443Y-7679214D01*
X12938157Y-7979214D02*
X12938157Y-7679214D01*
X13038157Y-7893500D01*
X13138157Y-7679214D01*
X13138157Y-7979214D01*
X13409586Y-7979214D02*
X13409586Y-7822071D01*
X13395300Y-7793500D01*
X13366728Y-7779214D01*
X13309586Y-7779214D01*
X13281014Y-7793500D01*
X13409586Y-7964929D02*
X13381014Y-7979214D01*
X13309586Y-7979214D01*
X13281014Y-7964929D01*
X13266728Y-7936357D01*
X13266728Y-7907786D01*
X13281014Y-7879214D01*
X13309586Y-7864929D01*
X13381014Y-7864929D01*
X13409586Y-7850643D01*
X13552443Y-7779214D02*
X13552443Y-8079214D01*
X13552443Y-7793500D02*
X13581014Y-7779214D01*
X13638157Y-7779214D01*
X13666728Y-7793500D01*
X13681014Y-7807786D01*
X13695300Y-7836357D01*
X13695300Y-7922071D01*
X13681014Y-7950643D01*
X13666728Y-7964929D01*
X13638157Y-7979214D01*
X13581014Y-7979214D01*
X13552443Y-7964929D01*
X13823871Y-7950643D02*
X13838157Y-7964929D01*
X13823871Y-7979214D01*
X13809586Y-7964929D01*
X13823871Y-7950643D01*
X13823871Y-7979214D01*
X13823871Y-7793500D02*
X13838157Y-7807786D01*
X13823871Y-7822071D01*
X13809586Y-7807786D01*
X13823871Y-7793500D01*
X13823871Y-7822071D01*
X11440300Y-8453500D02*
X11480300Y-8493500D01*
X11480300Y-8453500D02*
X11440300Y-8493500D01*
X11823871Y-8309214D02*
X11852443Y-8309214D01*
X11881014Y-8323500D01*
X11895300Y-8337786D01*
X11909586Y-8366357D01*
X11923871Y-8423500D01*
X11923871Y-8494929D01*
X11909586Y-8552072D01*
X11895300Y-8580643D01*
X11881014Y-8594929D01*
X11852443Y-8609214D01*
X11823871Y-8609214D01*
X11795300Y-8594929D01*
X11781014Y-8580643D01*
X11766728Y-8552072D01*
X11752443Y-8494929D01*
X11752443Y-8423500D01*
X11766728Y-8366357D01*
X11781014Y-8337786D01*
X11795300Y-8323500D01*
X11823871Y-8309214D01*
X12052443Y-8580643D02*
X12066728Y-8594929D01*
X12052443Y-8609214D01*
X12038157Y-8594929D01*
X12052443Y-8580643D01*
X12052443Y-8609214D01*
X12323871Y-8409214D02*
X12323871Y-8609214D01*
X12252443Y-8294929D02*
X12181014Y-8509214D01*
X12366728Y-8509214D01*
X12538157Y-8309214D02*
X12566728Y-8309214D01*
X12595300Y-8323500D01*
X12609586Y-8337786D01*
X12623871Y-8366357D01*
X12638157Y-8423500D01*
X12638157Y-8494929D01*
X12623871Y-8552072D01*
X12609586Y-8580643D01*
X12595300Y-8594929D01*
X12566728Y-8609214D01*
X12538157Y-8609214D01*
X12509586Y-8594929D01*
X12495300Y-8580643D01*
X12481014Y-8552072D01*
X12466728Y-8494929D01*
X12466728Y-8423500D01*
X12481014Y-8366357D01*
X12495300Y-8337786D01*
X12509586Y-8323500D01*
X12538157Y-8309214D01*
X12823871Y-8309214D02*
X12852443Y-8309214D01*
X12881014Y-8323500D01*
X12895300Y-8337786D01*
X12909586Y-8366357D01*
X12923871Y-8423500D01*
X12923871Y-8494929D01*
X12909586Y-8552072D01*
X12895300Y-8580643D01*
X12881014Y-8594929D01*
X12852443Y-8609214D01*
X12823871Y-8609214D01*
X12795300Y-8594929D01*
X12781014Y-8580643D01*
X12766728Y-8552072D01*
X12752443Y-8494929D01*
X12752443Y-8423500D01*
X12766728Y-8366357D01*
X12781014Y-8337786D01*
X12795300Y-8323500D01*
X12823871Y-8309214D01*
X13052443Y-8609214D02*
X13052443Y-8409214D01*
X13052443Y-8437786D02*
X13066728Y-8423500D01*
X13095300Y-8409214D01*
X13138157Y-8409214D01*
X13166728Y-8423500D01*
X13181014Y-8452072D01*
X13181014Y-8609214D01*
X13181014Y-8452072D02*
X13195300Y-8423500D01*
X13223871Y-8409214D01*
X13266728Y-8409214D01*
X13295300Y-8423500D01*
X13309586Y-8452072D01*
X13309586Y-8609214D01*
X13452443Y-8609214D02*
X13452443Y-8409214D01*
X13452443Y-8437786D02*
X13466728Y-8423500D01*
X13495300Y-8409214D01*
X13538157Y-8409214D01*
X13566728Y-8423500D01*
X13581014Y-8452072D01*
X13581014Y-8609214D01*
X13581014Y-8452072D02*
X13595300Y-8423500D01*
X13623871Y-8409214D01*
X13666728Y-8409214D01*
X13695300Y-8423500D01*
X13709586Y-8452072D01*
X13709586Y-8609214D01*
X14295300Y-8294929D02*
X14038157Y-8680643D01*
X14681014Y-8309214D02*
X14709586Y-8309214D01*
X14738157Y-8323500D01*
X14752443Y-8337786D01*
X14766728Y-8366357D01*
X14781014Y-8423500D01*
X14781014Y-8494929D01*
X14766728Y-8552072D01*
X14752443Y-8580643D01*
X14738157Y-8594929D01*
X14709586Y-8609214D01*
X14681014Y-8609214D01*
X14652443Y-8594929D01*
X14638157Y-8580643D01*
X14623871Y-8552072D01*
X14609586Y-8494929D01*
X14609586Y-8423500D01*
X14623871Y-8366357D01*
X14638157Y-8337786D01*
X14652443Y-8323500D01*
X14681014Y-8309214D01*
X14909586Y-8580643D02*
X14923871Y-8594929D01*
X14909586Y-8609214D01*
X14895300Y-8594929D01*
X14909586Y-8580643D01*
X14909586Y-8609214D01*
X15109586Y-8309214D02*
X15138157Y-8309214D01*
X15166728Y-8323500D01*
X15181014Y-8337786D01*
X15195300Y-8366357D01*
X15209586Y-8423500D01*
X15209586Y-8494929D01*
X15195300Y-8552072D01*
X15181014Y-8580643D01*
X15166728Y-8594929D01*
X15138157Y-8609214D01*
X15109586Y-8609214D01*
X15081014Y-8594929D01*
X15066728Y-8580643D01*
X15052443Y-8552072D01*
X15038157Y-8494929D01*
X15038157Y-8423500D01*
X15052443Y-8366357D01*
X15066728Y-8337786D01*
X15081014Y-8323500D01*
X15109586Y-8309214D01*
X15495300Y-8609214D02*
X15323871Y-8609214D01*
X15409586Y-8609214D02*
X15409586Y-8309214D01*
X15381014Y-8352071D01*
X15352443Y-8380643D01*
X15323871Y-8394929D01*
X15766728Y-8309214D02*
X15623871Y-8309214D01*
X15609586Y-8452072D01*
X15623871Y-8437786D01*
X15652443Y-8423500D01*
X15723871Y-8423500D01*
X15752443Y-8437786D01*
X15766728Y-8452072D01*
X15781014Y-8480643D01*
X15781014Y-8552072D01*
X15766728Y-8580643D01*
X15752443Y-8594929D01*
X15723871Y-8609214D01*
X15652443Y-8609214D01*
X15623871Y-8594929D01*
X15609586Y-8580643D01*
X15881014Y-8309214D02*
X16081014Y-8309214D01*
X15952443Y-8609214D01*
X16181014Y-8309214D02*
X16181014Y-8366357D01*
X16295300Y-8309214D02*
X16295300Y-8366357D01*
X16738157Y-8723500D02*
X16723871Y-8709214D01*
X16695300Y-8666357D01*
X16681014Y-8637786D01*
X16666728Y-8594929D01*
X16652443Y-8523500D01*
X16652443Y-8466357D01*
X16666728Y-8394929D01*
X16681014Y-8352071D01*
X16695300Y-8323500D01*
X16723871Y-8280643D01*
X16738157Y-8266357D01*
X17009586Y-8609214D02*
X16838157Y-8609214D01*
X16923871Y-8609214D02*
X16923871Y-8309214D01*
X16895300Y-8352071D01*
X16866728Y-8380643D01*
X16838157Y-8394929D01*
X17123871Y-8337786D02*
X17138157Y-8323500D01*
X17166728Y-8309214D01*
X17238157Y-8309214D01*
X17266728Y-8323500D01*
X17281014Y-8337786D01*
X17295300Y-8366357D01*
X17295300Y-8394929D01*
X17281014Y-8437786D01*
X17109586Y-8609214D01*
X17295300Y-8609214D01*
X17652443Y-8609214D02*
X17652443Y-8309214D01*
X17781014Y-8609214D02*
X17781014Y-8452072D01*
X17766728Y-8423500D01*
X17738157Y-8409214D01*
X17695300Y-8409214D01*
X17666728Y-8423500D01*
X17652443Y-8437786D01*
X17966728Y-8609214D02*
X17938157Y-8594929D01*
X17923871Y-8580643D01*
X17909586Y-8552072D01*
X17909586Y-8466357D01*
X17923871Y-8437786D01*
X17938157Y-8423500D01*
X17966728Y-8409214D01*
X18009586Y-8409214D01*
X18038157Y-8423500D01*
X18052443Y-8437786D01*
X18066728Y-8466357D01*
X18066728Y-8552072D01*
X18052443Y-8580643D01*
X18038157Y-8594929D01*
X18009586Y-8609214D01*
X17966728Y-8609214D01*
X18238157Y-8609214D02*
X18209586Y-8594929D01*
X18195300Y-8566357D01*
X18195300Y-8309214D01*
X18466728Y-8594929D02*
X18438157Y-8609214D01*
X18381014Y-8609214D01*
X18352443Y-8594929D01*
X18338157Y-8566357D01*
X18338157Y-8452072D01*
X18352443Y-8423500D01*
X18381014Y-8409214D01*
X18438157Y-8409214D01*
X18466728Y-8423500D01*
X18481014Y-8452072D01*
X18481014Y-8480643D01*
X18338157Y-8509214D01*
X18595300Y-8594929D02*
X18623871Y-8609214D01*
X18681014Y-8609214D01*
X18709586Y-8594929D01*
X18723871Y-8566357D01*
X18723871Y-8552072D01*
X18709586Y-8523500D01*
X18681014Y-8509214D01*
X18638157Y-8509214D01*
X18609586Y-8494929D01*
X18595300Y-8466357D01*
X18595300Y-8452072D01*
X18609586Y-8423500D01*
X18638157Y-8409214D01*
X18681014Y-8409214D01*
X18709586Y-8423500D01*
X18823871Y-8723500D02*
X18838157Y-8709214D01*
X18866728Y-8666357D01*
X18881014Y-8637786D01*
X18895300Y-8594929D01*
X18909586Y-8523500D01*
X18909586Y-8466357D01*
X18895300Y-8394929D01*
X18881014Y-8352071D01*
X18866728Y-8323500D01*
X18838157Y-8280643D01*
X18823871Y-8266357D01*
X11480300Y-8869500D02*
G75*
G03*
X11480300Y-8869500I-55000J0D01*
G01*
X11923871Y-9005214D02*
X11752443Y-9005214D01*
X11838157Y-9005214D02*
X11838157Y-8705214D01*
X11809586Y-8748072D01*
X11781014Y-8776643D01*
X11752443Y-8790929D01*
X12052443Y-8976643D02*
X12066728Y-8990929D01*
X12052443Y-9005214D01*
X12038157Y-8990929D01*
X12052443Y-8976643D01*
X12052443Y-9005214D01*
X12352443Y-9005214D02*
X12181014Y-9005214D01*
X12266728Y-9005214D02*
X12266728Y-8705214D01*
X12238157Y-8748072D01*
X12209586Y-8776643D01*
X12181014Y-8790929D01*
X12538157Y-8705214D02*
X12566728Y-8705214D01*
X12595300Y-8719500D01*
X12609586Y-8733786D01*
X12623871Y-8762357D01*
X12638157Y-8819500D01*
X12638157Y-8890929D01*
X12623871Y-8948072D01*
X12609586Y-8976643D01*
X12595300Y-8990929D01*
X12566728Y-9005214D01*
X12538157Y-9005214D01*
X12509586Y-8990929D01*
X12495300Y-8976643D01*
X12481014Y-8948072D01*
X12466728Y-8890929D01*
X12466728Y-8819500D01*
X12481014Y-8762357D01*
X12495300Y-8733786D01*
X12509586Y-8719500D01*
X12538157Y-8705214D01*
X12823871Y-8705214D02*
X12852443Y-8705214D01*
X12881014Y-8719500D01*
X12895300Y-8733786D01*
X12909586Y-8762357D01*
X12923871Y-8819500D01*
X12923871Y-8890929D01*
X12909586Y-8948072D01*
X12895300Y-8976643D01*
X12881014Y-8990929D01*
X12852443Y-9005214D01*
X12823871Y-9005214D01*
X12795300Y-8990929D01*
X12781014Y-8976643D01*
X12766728Y-8948072D01*
X12752443Y-8890929D01*
X12752443Y-8819500D01*
X12766728Y-8762357D01*
X12781014Y-8733786D01*
X12795300Y-8719500D01*
X12823871Y-8705214D01*
X13052443Y-9005214D02*
X13052443Y-8805214D01*
X13052443Y-8833786D02*
X13066728Y-8819500D01*
X13095300Y-8805214D01*
X13138157Y-8805214D01*
X13166728Y-8819500D01*
X13181014Y-8848072D01*
X13181014Y-9005214D01*
X13181014Y-8848072D02*
X13195300Y-8819500D01*
X13223871Y-8805214D01*
X13266728Y-8805214D01*
X13295300Y-8819500D01*
X13309586Y-8848072D01*
X13309586Y-9005214D01*
X13452443Y-9005214D02*
X13452443Y-8805214D01*
X13452443Y-8833786D02*
X13466728Y-8819500D01*
X13495300Y-8805214D01*
X13538157Y-8805214D01*
X13566728Y-8819500D01*
X13581014Y-8848072D01*
X13581014Y-9005214D01*
X13581014Y-8848072D02*
X13595300Y-8819500D01*
X13623871Y-8805214D01*
X13666728Y-8805214D01*
X13695300Y-8819500D01*
X13709586Y-8848072D01*
X13709586Y-9005214D01*
X14295300Y-8690929D02*
X14038157Y-9076643D01*
X14681014Y-8705214D02*
X14709586Y-8705214D01*
X14738157Y-8719500D01*
X14752443Y-8733786D01*
X14766728Y-8762357D01*
X14781014Y-8819500D01*
X14781014Y-8890929D01*
X14766728Y-8948072D01*
X14752443Y-8976643D01*
X14738157Y-8990929D01*
X14709586Y-9005214D01*
X14681014Y-9005214D01*
X14652443Y-8990929D01*
X14638157Y-8976643D01*
X14623871Y-8948072D01*
X14609586Y-8890929D01*
X14609586Y-8819500D01*
X14623871Y-8762357D01*
X14638157Y-8733786D01*
X14652443Y-8719500D01*
X14681014Y-8705214D01*
X14909586Y-8976643D02*
X14923871Y-8990929D01*
X14909586Y-9005214D01*
X14895300Y-8990929D01*
X14909586Y-8976643D01*
X14909586Y-9005214D01*
X15109586Y-8705214D02*
X15138157Y-8705214D01*
X15166728Y-8719500D01*
X15181014Y-8733786D01*
X15195300Y-8762357D01*
X15209586Y-8819500D01*
X15209586Y-8890929D01*
X15195300Y-8948072D01*
X15181014Y-8976643D01*
X15166728Y-8990929D01*
X15138157Y-9005214D01*
X15109586Y-9005214D01*
X15081014Y-8990929D01*
X15066728Y-8976643D01*
X15052443Y-8948072D01*
X15038157Y-8890929D01*
X15038157Y-8819500D01*
X15052443Y-8762357D01*
X15066728Y-8733786D01*
X15081014Y-8719500D01*
X15109586Y-8705214D01*
X15466728Y-8805214D02*
X15466728Y-9005214D01*
X15395300Y-8690929D02*
X15323871Y-8905214D01*
X15509586Y-8905214D01*
X15595300Y-8705214D02*
X15781014Y-8705214D01*
X15681014Y-8819500D01*
X15723871Y-8819500D01*
X15752443Y-8833786D01*
X15766728Y-8848072D01*
X15781014Y-8876643D01*
X15781014Y-8948072D01*
X15766728Y-8976643D01*
X15752443Y-8990929D01*
X15723871Y-9005214D01*
X15638157Y-9005214D01*
X15609586Y-8990929D01*
X15595300Y-8976643D01*
X15881014Y-8705214D02*
X16066728Y-8705214D01*
X15966728Y-8819500D01*
X16009586Y-8819500D01*
X16038157Y-8833786D01*
X16052443Y-8848072D01*
X16066728Y-8876643D01*
X16066728Y-8948072D01*
X16052443Y-8976643D01*
X16038157Y-8990929D01*
X16009586Y-9005214D01*
X15923871Y-9005214D01*
X15895300Y-8990929D01*
X15881014Y-8976643D01*
X16181014Y-8705214D02*
X16181014Y-8762357D01*
X16295300Y-8705214D02*
X16295300Y-8762357D01*
X16738157Y-9119500D02*
X16723871Y-9105214D01*
X16695300Y-9062357D01*
X16681014Y-9033786D01*
X16666728Y-8990929D01*
X16652443Y-8919500D01*
X16652443Y-8862357D01*
X16666728Y-8790929D01*
X16681014Y-8748072D01*
X16695300Y-8719500D01*
X16723871Y-8676643D01*
X16738157Y-8662357D01*
X17009586Y-9005214D02*
X16838157Y-9005214D01*
X16923871Y-9005214D02*
X16923871Y-8705214D01*
X16895300Y-8748072D01*
X16866728Y-8776643D01*
X16838157Y-8790929D01*
X17123871Y-8733786D02*
X17138157Y-8719500D01*
X17166728Y-8705214D01*
X17238157Y-8705214D01*
X17266728Y-8719500D01*
X17281014Y-8733786D01*
X17295300Y-8762357D01*
X17295300Y-8790929D01*
X17281014Y-8833786D01*
X17109586Y-9005214D01*
X17295300Y-9005214D01*
X17652443Y-9005214D02*
X17652443Y-8705214D01*
X17781014Y-9005214D02*
X17781014Y-8848072D01*
X17766728Y-8819500D01*
X17738157Y-8805214D01*
X17695300Y-8805214D01*
X17666728Y-8819500D01*
X17652443Y-8833786D01*
X17966728Y-9005214D02*
X17938157Y-8990929D01*
X17923871Y-8976643D01*
X17909586Y-8948072D01*
X17909586Y-8862357D01*
X17923871Y-8833786D01*
X17938157Y-8819500D01*
X17966728Y-8805214D01*
X18009586Y-8805214D01*
X18038157Y-8819500D01*
X18052443Y-8833786D01*
X18066728Y-8862357D01*
X18066728Y-8948072D01*
X18052443Y-8976643D01*
X18038157Y-8990929D01*
X18009586Y-9005214D01*
X17966728Y-9005214D01*
X18238157Y-9005214D02*
X18209586Y-8990929D01*
X18195300Y-8962357D01*
X18195300Y-8705214D01*
X18466728Y-8990929D02*
X18438157Y-9005214D01*
X18381014Y-9005214D01*
X18352443Y-8990929D01*
X18338157Y-8962357D01*
X18338157Y-8848072D01*
X18352443Y-8819500D01*
X18381014Y-8805214D01*
X18438157Y-8805214D01*
X18466728Y-8819500D01*
X18481014Y-8848072D01*
X18481014Y-8876643D01*
X18338157Y-8905214D01*
X18595300Y-8990929D02*
X18623871Y-9005214D01*
X18681014Y-9005214D01*
X18709586Y-8990929D01*
X18723871Y-8962357D01*
X18723871Y-8948072D01*
X18709586Y-8919500D01*
X18681014Y-8905214D01*
X18638157Y-8905214D01*
X18609586Y-8890929D01*
X18595300Y-8862357D01*
X18595300Y-8848072D01*
X18609586Y-8819500D01*
X18638157Y-8805214D01*
X18681014Y-8805214D01*
X18709586Y-8819500D01*
X18823871Y-9119500D02*
X18838157Y-9105214D01*
X18866728Y-9062357D01*
X18881014Y-9033786D01*
X18895300Y-8990929D01*
X18909586Y-8919500D01*
X18909586Y-8862357D01*
X18895300Y-8790929D01*
X18881014Y-8748072D01*
X18866728Y-8719500D01*
X18838157Y-8676643D01*
X18823871Y-8662357D01*
X11420300Y-9205500D02*
X11420300Y-9325500D01*
X11360300Y-9265500D02*
X11480300Y-9265500D01*
X11923871Y-9401214D02*
X11752443Y-9401214D01*
X11838157Y-9401214D02*
X11838157Y-9101214D01*
X11809586Y-9144072D01*
X11781014Y-9172643D01*
X11752443Y-9186929D01*
X12052443Y-9372643D02*
X12066728Y-9386929D01*
X12052443Y-9401214D01*
X12038157Y-9386929D01*
X12052443Y-9372643D01*
X12052443Y-9401214D01*
X12181014Y-9129786D02*
X12195300Y-9115500D01*
X12223871Y-9101214D01*
X12295300Y-9101214D01*
X12323871Y-9115500D01*
X12338157Y-9129786D01*
X12352443Y-9158357D01*
X12352443Y-9186929D01*
X12338157Y-9229786D01*
X12166728Y-9401214D01*
X12352443Y-9401214D01*
X12538157Y-9101214D02*
X12566728Y-9101214D01*
X12595300Y-9115500D01*
X12609586Y-9129786D01*
X12623871Y-9158357D01*
X12638157Y-9215500D01*
X12638157Y-9286929D01*
X12623871Y-9344072D01*
X12609586Y-9372643D01*
X12595300Y-9386929D01*
X12566728Y-9401214D01*
X12538157Y-9401214D01*
X12509586Y-9386929D01*
X12495300Y-9372643D01*
X12481014Y-9344072D01*
X12466728Y-9286929D01*
X12466728Y-9215500D01*
X12481014Y-9158357D01*
X12495300Y-9129786D01*
X12509586Y-9115500D01*
X12538157Y-9101214D01*
X12823871Y-9101214D02*
X12852443Y-9101214D01*
X12881014Y-9115500D01*
X12895300Y-9129786D01*
X12909586Y-9158357D01*
X12923871Y-9215500D01*
X12923871Y-9286929D01*
X12909586Y-9344072D01*
X12895300Y-9372643D01*
X12881014Y-9386929D01*
X12852443Y-9401214D01*
X12823871Y-9401214D01*
X12795300Y-9386929D01*
X12781014Y-9372643D01*
X12766728Y-9344072D01*
X12752443Y-9286929D01*
X12752443Y-9215500D01*
X12766728Y-9158357D01*
X12781014Y-9129786D01*
X12795300Y-9115500D01*
X12823871Y-9101214D01*
X13052443Y-9401214D02*
X13052443Y-9201214D01*
X13052443Y-9229786D02*
X13066728Y-9215500D01*
X13095300Y-9201214D01*
X13138157Y-9201214D01*
X13166728Y-9215500D01*
X13181014Y-9244072D01*
X13181014Y-9401214D01*
X13181014Y-9244072D02*
X13195300Y-9215500D01*
X13223871Y-9201214D01*
X13266728Y-9201214D01*
X13295300Y-9215500D01*
X13309586Y-9244072D01*
X13309586Y-9401214D01*
X13452443Y-9401214D02*
X13452443Y-9201214D01*
X13452443Y-9229786D02*
X13466728Y-9215500D01*
X13495300Y-9201214D01*
X13538157Y-9201214D01*
X13566728Y-9215500D01*
X13581014Y-9244072D01*
X13581014Y-9401214D01*
X13581014Y-9244072D02*
X13595300Y-9215500D01*
X13623871Y-9201214D01*
X13666728Y-9201214D01*
X13695300Y-9215500D01*
X13709586Y-9244072D01*
X13709586Y-9401214D01*
X14295300Y-9086929D02*
X14038157Y-9472643D01*
X14681014Y-9101214D02*
X14709586Y-9101214D01*
X14738157Y-9115500D01*
X14752443Y-9129786D01*
X14766728Y-9158357D01*
X14781014Y-9215500D01*
X14781014Y-9286929D01*
X14766728Y-9344072D01*
X14752443Y-9372643D01*
X14738157Y-9386929D01*
X14709586Y-9401214D01*
X14681014Y-9401214D01*
X14652443Y-9386929D01*
X14638157Y-9372643D01*
X14623871Y-9344072D01*
X14609586Y-9286929D01*
X14609586Y-9215500D01*
X14623871Y-9158357D01*
X14638157Y-9129786D01*
X14652443Y-9115500D01*
X14681014Y-9101214D01*
X14909586Y-9372643D02*
X14923871Y-9386929D01*
X14909586Y-9401214D01*
X14895300Y-9386929D01*
X14909586Y-9372643D01*
X14909586Y-9401214D01*
X15109586Y-9101214D02*
X15138157Y-9101214D01*
X15166728Y-9115500D01*
X15181014Y-9129786D01*
X15195300Y-9158357D01*
X15209586Y-9215500D01*
X15209586Y-9286929D01*
X15195300Y-9344072D01*
X15181014Y-9372643D01*
X15166728Y-9386929D01*
X15138157Y-9401214D01*
X15109586Y-9401214D01*
X15081014Y-9386929D01*
X15066728Y-9372643D01*
X15052443Y-9344072D01*
X15038157Y-9286929D01*
X15038157Y-9215500D01*
X15052443Y-9158357D01*
X15066728Y-9129786D01*
X15081014Y-9115500D01*
X15109586Y-9101214D01*
X15466728Y-9201214D02*
X15466728Y-9401214D01*
X15395300Y-9086929D02*
X15323871Y-9301214D01*
X15509586Y-9301214D01*
X15595300Y-9101214D02*
X15795300Y-9101214D01*
X15666728Y-9401214D01*
X15895300Y-9129786D02*
X15909586Y-9115500D01*
X15938157Y-9101214D01*
X16009586Y-9101214D01*
X16038157Y-9115500D01*
X16052443Y-9129786D01*
X16066728Y-9158357D01*
X16066728Y-9186929D01*
X16052443Y-9229786D01*
X15881014Y-9401214D01*
X16066728Y-9401214D01*
X16181014Y-9101214D02*
X16181014Y-9158357D01*
X16295300Y-9101214D02*
X16295300Y-9158357D01*
X16738157Y-9515500D02*
X16723871Y-9501214D01*
X16695300Y-9458357D01*
X16681014Y-9429786D01*
X16666728Y-9386929D01*
X16652443Y-9315500D01*
X16652443Y-9258357D01*
X16666728Y-9186929D01*
X16681014Y-9144072D01*
X16695300Y-9115500D01*
X16723871Y-9072643D01*
X16738157Y-9058357D01*
X16838157Y-9129786D02*
X16852443Y-9115500D01*
X16881014Y-9101214D01*
X16952443Y-9101214D01*
X16981014Y-9115500D01*
X16995300Y-9129786D01*
X17009586Y-9158357D01*
X17009586Y-9186929D01*
X16995300Y-9229786D01*
X16823871Y-9401214D01*
X17009586Y-9401214D01*
X17366728Y-9401214D02*
X17366728Y-9101214D01*
X17495300Y-9401214D02*
X17495300Y-9244072D01*
X17481014Y-9215500D01*
X17452443Y-9201214D01*
X17409586Y-9201214D01*
X17381014Y-9215500D01*
X17366728Y-9229786D01*
X17681014Y-9401214D02*
X17652443Y-9386929D01*
X17638157Y-9372643D01*
X17623871Y-9344072D01*
X17623871Y-9258357D01*
X17638157Y-9229786D01*
X17652443Y-9215500D01*
X17681014Y-9201214D01*
X17723871Y-9201214D01*
X17752443Y-9215500D01*
X17766728Y-9229786D01*
X17781014Y-9258357D01*
X17781014Y-9344072D01*
X17766728Y-9372643D01*
X17752443Y-9386929D01*
X17723871Y-9401214D01*
X17681014Y-9401214D01*
X17952443Y-9401214D02*
X17923871Y-9386929D01*
X17909586Y-9358357D01*
X17909586Y-9101214D01*
X18181014Y-9386929D02*
X18152443Y-9401214D01*
X18095300Y-9401214D01*
X18066728Y-9386929D01*
X18052443Y-9358357D01*
X18052443Y-9244072D01*
X18066728Y-9215500D01*
X18095300Y-9201214D01*
X18152443Y-9201214D01*
X18181014Y-9215500D01*
X18195300Y-9244072D01*
X18195300Y-9272643D01*
X18052443Y-9301214D01*
X18309586Y-9386929D02*
X18338157Y-9401214D01*
X18395300Y-9401214D01*
X18423871Y-9386929D01*
X18438157Y-9358357D01*
X18438157Y-9344072D01*
X18423871Y-9315500D01*
X18395300Y-9301214D01*
X18352443Y-9301214D01*
X18323871Y-9286929D01*
X18309586Y-9258357D01*
X18309586Y-9244072D01*
X18323871Y-9215500D01*
X18352443Y-9201214D01*
X18395300Y-9201214D01*
X18423871Y-9215500D01*
X18538157Y-9515500D02*
X18552443Y-9501214D01*
X18581014Y-9458357D01*
X18595300Y-9429786D01*
X18609586Y-9386929D01*
X18623871Y-9315500D01*
X18623871Y-9258357D01*
X18609586Y-9186929D01*
X18595300Y-9144072D01*
X18581014Y-9115500D01*
X18552443Y-9072643D01*
X18538157Y-9058357D01*
X11458040Y-9715241D02*
X11458040Y-9607760D01*
X11350559Y-9607760D01*
X11350559Y-9715241D01*
X11458040Y-9715241D01*
X11923871Y-9797214D02*
X11752443Y-9797214D01*
X11838157Y-9797214D02*
X11838157Y-9497214D01*
X11809586Y-9540072D01*
X11781014Y-9568643D01*
X11752443Y-9582929D01*
X12052443Y-9768643D02*
X12066728Y-9782929D01*
X12052443Y-9797214D01*
X12038157Y-9782929D01*
X12052443Y-9768643D01*
X12052443Y-9797214D01*
X12338157Y-9497214D02*
X12195300Y-9497214D01*
X12181014Y-9640072D01*
X12195300Y-9625786D01*
X12223871Y-9611500D01*
X12295300Y-9611500D01*
X12323871Y-9625786D01*
X12338157Y-9640072D01*
X12352443Y-9668643D01*
X12352443Y-9740072D01*
X12338157Y-9768643D01*
X12323871Y-9782929D01*
X12295300Y-9797214D01*
X12223871Y-9797214D01*
X12195300Y-9782929D01*
X12181014Y-9768643D01*
X12466728Y-9525786D02*
X12481014Y-9511500D01*
X12509586Y-9497214D01*
X12581014Y-9497214D01*
X12609586Y-9511500D01*
X12623871Y-9525786D01*
X12638157Y-9554357D01*
X12638157Y-9582929D01*
X12623871Y-9625786D01*
X12452443Y-9797214D01*
X12638157Y-9797214D01*
X12823871Y-9497214D02*
X12852443Y-9497214D01*
X12881014Y-9511500D01*
X12895300Y-9525786D01*
X12909586Y-9554357D01*
X12923871Y-9611500D01*
X12923871Y-9682929D01*
X12909586Y-9740072D01*
X12895300Y-9768643D01*
X12881014Y-9782929D01*
X12852443Y-9797214D01*
X12823871Y-9797214D01*
X12795300Y-9782929D01*
X12781014Y-9768643D01*
X12766728Y-9740072D01*
X12752443Y-9682929D01*
X12752443Y-9611500D01*
X12766728Y-9554357D01*
X12781014Y-9525786D01*
X12795300Y-9511500D01*
X12823871Y-9497214D01*
X13052443Y-9797214D02*
X13052443Y-9597214D01*
X13052443Y-9625786D02*
X13066728Y-9611500D01*
X13095300Y-9597214D01*
X13138157Y-9597214D01*
X13166728Y-9611500D01*
X13181014Y-9640072D01*
X13181014Y-9797214D01*
X13181014Y-9640072D02*
X13195300Y-9611500D01*
X13223871Y-9597214D01*
X13266728Y-9597214D01*
X13295300Y-9611500D01*
X13309586Y-9640072D01*
X13309586Y-9797214D01*
X13452443Y-9797214D02*
X13452443Y-9597214D01*
X13452443Y-9625786D02*
X13466728Y-9611500D01*
X13495300Y-9597214D01*
X13538157Y-9597214D01*
X13566728Y-9611500D01*
X13581014Y-9640072D01*
X13581014Y-9797214D01*
X13581014Y-9640072D02*
X13595300Y-9611500D01*
X13623871Y-9597214D01*
X13666728Y-9597214D01*
X13695300Y-9611500D01*
X13709586Y-9640072D01*
X13709586Y-9797214D01*
X14295300Y-9482929D02*
X14038157Y-9868643D01*
X14681014Y-9497214D02*
X14709586Y-9497214D01*
X14738157Y-9511500D01*
X14752443Y-9525786D01*
X14766728Y-9554357D01*
X14781014Y-9611500D01*
X14781014Y-9682929D01*
X14766728Y-9740072D01*
X14752443Y-9768643D01*
X14738157Y-9782929D01*
X14709586Y-9797214D01*
X14681014Y-9797214D01*
X14652443Y-9782929D01*
X14638157Y-9768643D01*
X14623871Y-9740072D01*
X14609586Y-9682929D01*
X14609586Y-9611500D01*
X14623871Y-9554357D01*
X14638157Y-9525786D01*
X14652443Y-9511500D01*
X14681014Y-9497214D01*
X14909586Y-9768643D02*
X14923871Y-9782929D01*
X14909586Y-9797214D01*
X14895300Y-9782929D01*
X14909586Y-9768643D01*
X14909586Y-9797214D01*
X15109586Y-9497214D02*
X15138157Y-9497214D01*
X15166728Y-9511500D01*
X15181014Y-9525786D01*
X15195300Y-9554357D01*
X15209586Y-9611500D01*
X15209586Y-9682929D01*
X15195300Y-9740072D01*
X15181014Y-9768643D01*
X15166728Y-9782929D01*
X15138157Y-9797214D01*
X15109586Y-9797214D01*
X15081014Y-9782929D01*
X15066728Y-9768643D01*
X15052443Y-9740072D01*
X15038157Y-9682929D01*
X15038157Y-9611500D01*
X15052443Y-9554357D01*
X15066728Y-9525786D01*
X15081014Y-9511500D01*
X15109586Y-9497214D01*
X15481014Y-9497214D02*
X15338157Y-9497214D01*
X15323871Y-9640072D01*
X15338157Y-9625786D01*
X15366728Y-9611500D01*
X15438157Y-9611500D01*
X15466728Y-9625786D01*
X15481014Y-9640072D01*
X15495300Y-9668643D01*
X15495300Y-9740072D01*
X15481014Y-9768643D01*
X15466728Y-9782929D01*
X15438157Y-9797214D01*
X15366728Y-9797214D01*
X15338157Y-9782929D01*
X15323871Y-9768643D01*
X15638157Y-9797214D02*
X15695300Y-9797214D01*
X15723871Y-9782929D01*
X15738157Y-9768643D01*
X15766728Y-9725786D01*
X15781014Y-9668643D01*
X15781014Y-9554357D01*
X15766728Y-9525786D01*
X15752443Y-9511500D01*
X15723871Y-9497214D01*
X15666728Y-9497214D01*
X15638157Y-9511500D01*
X15623871Y-9525786D01*
X15609586Y-9554357D01*
X15609586Y-9625786D01*
X15623871Y-9654357D01*
X15638157Y-9668643D01*
X15666728Y-9682929D01*
X15723871Y-9682929D01*
X15752443Y-9668643D01*
X15766728Y-9654357D01*
X15781014Y-9625786D01*
X15952443Y-9625786D02*
X15923871Y-9611500D01*
X15909586Y-9597214D01*
X15895300Y-9568643D01*
X15895300Y-9554357D01*
X15909586Y-9525786D01*
X15923871Y-9511500D01*
X15952443Y-9497214D01*
X16009586Y-9497214D01*
X16038157Y-9511500D01*
X16052443Y-9525786D01*
X16066728Y-9554357D01*
X16066728Y-9568643D01*
X16052443Y-9597214D01*
X16038157Y-9611500D01*
X16009586Y-9625786D01*
X15952443Y-9625786D01*
X15923871Y-9640072D01*
X15909586Y-9654357D01*
X15895300Y-9682929D01*
X15895300Y-9740072D01*
X15909586Y-9768643D01*
X15923871Y-9782929D01*
X15952443Y-9797214D01*
X16009586Y-9797214D01*
X16038157Y-9782929D01*
X16052443Y-9768643D01*
X16066728Y-9740072D01*
X16066728Y-9682929D01*
X16052443Y-9654357D01*
X16038157Y-9640072D01*
X16009586Y-9625786D01*
X16181014Y-9497214D02*
X16181014Y-9554357D01*
X16295300Y-9497214D02*
X16295300Y-9554357D01*
X16738157Y-9911500D02*
X16723871Y-9897214D01*
X16695300Y-9854357D01*
X16681014Y-9825786D01*
X16666728Y-9782929D01*
X16652443Y-9711500D01*
X16652443Y-9654357D01*
X16666728Y-9582929D01*
X16681014Y-9540072D01*
X16695300Y-9511500D01*
X16723871Y-9468643D01*
X16738157Y-9454357D01*
X16866728Y-9797214D02*
X16923871Y-9797214D01*
X16952443Y-9782929D01*
X16966728Y-9768643D01*
X16995300Y-9725786D01*
X17009586Y-9668643D01*
X17009586Y-9554357D01*
X16995300Y-9525786D01*
X16981014Y-9511500D01*
X16952443Y-9497214D01*
X16895300Y-9497214D01*
X16866728Y-9511500D01*
X16852443Y-9525786D01*
X16838157Y-9554357D01*
X16838157Y-9625786D01*
X16852443Y-9654357D01*
X16866728Y-9668643D01*
X16895300Y-9682929D01*
X16952443Y-9682929D01*
X16981014Y-9668643D01*
X16995300Y-9654357D01*
X17009586Y-9625786D01*
X17366728Y-9797214D02*
X17366728Y-9497214D01*
X17495300Y-9797214D02*
X17495300Y-9640072D01*
X17481014Y-9611500D01*
X17452443Y-9597214D01*
X17409586Y-9597214D01*
X17381014Y-9611500D01*
X17366728Y-9625786D01*
X17681014Y-9797214D02*
X17652443Y-9782929D01*
X17638157Y-9768643D01*
X17623871Y-9740072D01*
X17623871Y-9654357D01*
X17638157Y-9625786D01*
X17652443Y-9611500D01*
X17681014Y-9597214D01*
X17723871Y-9597214D01*
X17752443Y-9611500D01*
X17766728Y-9625786D01*
X17781014Y-9654357D01*
X17781014Y-9740072D01*
X17766728Y-9768643D01*
X17752443Y-9782929D01*
X17723871Y-9797214D01*
X17681014Y-9797214D01*
X17952443Y-9797214D02*
X17923871Y-9782929D01*
X17909586Y-9754357D01*
X17909586Y-9497214D01*
X18181014Y-9782929D02*
X18152443Y-9797214D01*
X18095300Y-9797214D01*
X18066728Y-9782929D01*
X18052443Y-9754357D01*
X18052443Y-9640072D01*
X18066728Y-9611500D01*
X18095300Y-9597214D01*
X18152443Y-9597214D01*
X18181014Y-9611500D01*
X18195300Y-9640072D01*
X18195300Y-9668643D01*
X18052443Y-9697214D01*
X18309586Y-9782929D02*
X18338157Y-9797214D01*
X18395300Y-9797214D01*
X18423871Y-9782929D01*
X18438157Y-9754357D01*
X18438157Y-9740072D01*
X18423871Y-9711500D01*
X18395300Y-9697214D01*
X18352443Y-9697214D01*
X18323871Y-9682929D01*
X18309586Y-9654357D01*
X18309586Y-9640072D01*
X18323871Y-9611500D01*
X18352443Y-9597214D01*
X18395300Y-9597214D01*
X18423871Y-9611500D01*
X18538157Y-9911500D02*
X18552443Y-9897214D01*
X18581014Y-9854357D01*
X18595300Y-9825786D01*
X18609586Y-9782929D01*
X18623871Y-9711500D01*
X18623871Y-9654357D01*
X18609586Y-9582929D01*
X18595300Y-9540072D01*
X18581014Y-9511500D01*
X18552443Y-9468643D01*
X18538157Y-9454357D01*
X11320300Y-10217500D02*
X11480300Y-10057500D01*
X11320300Y-9897500D01*
X11160300Y-10057500D01*
X11320300Y-10217500D01*
X11738157Y-9893214D02*
X11923871Y-9893214D01*
X11823871Y-10007500D01*
X11866728Y-10007500D01*
X11895300Y-10021786D01*
X11909586Y-10036072D01*
X11923871Y-10064643D01*
X11923871Y-10136072D01*
X11909586Y-10164643D01*
X11895300Y-10178929D01*
X11866728Y-10193214D01*
X11781014Y-10193214D01*
X11752443Y-10178929D01*
X11738157Y-10164643D01*
X12052443Y-10164643D02*
X12066728Y-10178929D01*
X12052443Y-10193214D01*
X12038157Y-10178929D01*
X12052443Y-10164643D01*
X12052443Y-10193214D01*
X12181014Y-9921786D02*
X12195300Y-9907500D01*
X12223871Y-9893214D01*
X12295300Y-9893214D01*
X12323871Y-9907500D01*
X12338157Y-9921786D01*
X12352443Y-9950357D01*
X12352443Y-9978929D01*
X12338157Y-10021786D01*
X12166728Y-10193214D01*
X12352443Y-10193214D01*
X12538157Y-9893214D02*
X12566728Y-9893214D01*
X12595300Y-9907500D01*
X12609586Y-9921786D01*
X12623871Y-9950357D01*
X12638157Y-10007500D01*
X12638157Y-10078929D01*
X12623871Y-10136072D01*
X12609586Y-10164643D01*
X12595300Y-10178929D01*
X12566728Y-10193214D01*
X12538157Y-10193214D01*
X12509586Y-10178929D01*
X12495300Y-10164643D01*
X12481014Y-10136072D01*
X12466728Y-10078929D01*
X12466728Y-10007500D01*
X12481014Y-9950357D01*
X12495300Y-9921786D01*
X12509586Y-9907500D01*
X12538157Y-9893214D01*
X12823871Y-9893214D02*
X12852443Y-9893214D01*
X12881014Y-9907500D01*
X12895300Y-9921786D01*
X12909586Y-9950357D01*
X12923871Y-10007500D01*
X12923871Y-10078929D01*
X12909586Y-10136072D01*
X12895300Y-10164643D01*
X12881014Y-10178929D01*
X12852443Y-10193214D01*
X12823871Y-10193214D01*
X12795300Y-10178929D01*
X12781014Y-10164643D01*
X12766728Y-10136072D01*
X12752443Y-10078929D01*
X12752443Y-10007500D01*
X12766728Y-9950357D01*
X12781014Y-9921786D01*
X12795300Y-9907500D01*
X12823871Y-9893214D01*
X13052443Y-10193214D02*
X13052443Y-9993214D01*
X13052443Y-10021786D02*
X13066728Y-10007500D01*
X13095300Y-9993214D01*
X13138157Y-9993214D01*
X13166728Y-10007500D01*
X13181014Y-10036072D01*
X13181014Y-10193214D01*
X13181014Y-10036072D02*
X13195300Y-10007500D01*
X13223871Y-9993214D01*
X13266728Y-9993214D01*
X13295300Y-10007500D01*
X13309586Y-10036072D01*
X13309586Y-10193214D01*
X13452443Y-10193214D02*
X13452443Y-9993214D01*
X13452443Y-10021786D02*
X13466728Y-10007500D01*
X13495300Y-9993214D01*
X13538157Y-9993214D01*
X13566728Y-10007500D01*
X13581014Y-10036072D01*
X13581014Y-10193214D01*
X13581014Y-10036072D02*
X13595300Y-10007500D01*
X13623871Y-9993214D01*
X13666728Y-9993214D01*
X13695300Y-10007500D01*
X13709586Y-10036072D01*
X13709586Y-10193214D01*
X14295300Y-9878929D02*
X14038157Y-10264643D01*
X14681014Y-9893214D02*
X14709586Y-9893214D01*
X14738157Y-9907500D01*
X14752443Y-9921786D01*
X14766728Y-9950357D01*
X14781014Y-10007500D01*
X14781014Y-10078929D01*
X14766728Y-10136072D01*
X14752443Y-10164643D01*
X14738157Y-10178929D01*
X14709586Y-10193214D01*
X14681014Y-10193214D01*
X14652443Y-10178929D01*
X14638157Y-10164643D01*
X14623871Y-10136072D01*
X14609586Y-10078929D01*
X14609586Y-10007500D01*
X14623871Y-9950357D01*
X14638157Y-9921786D01*
X14652443Y-9907500D01*
X14681014Y-9893214D01*
X14909586Y-10164643D02*
X14923871Y-10178929D01*
X14909586Y-10193214D01*
X14895300Y-10178929D01*
X14909586Y-10164643D01*
X14909586Y-10193214D01*
X15209586Y-10193214D02*
X15038157Y-10193214D01*
X15123871Y-10193214D02*
X15123871Y-9893214D01*
X15095300Y-9936072D01*
X15066728Y-9964643D01*
X15038157Y-9978929D01*
X15323871Y-9921786D02*
X15338157Y-9907500D01*
X15366728Y-9893214D01*
X15438157Y-9893214D01*
X15466728Y-9907500D01*
X15481014Y-9921786D01*
X15495300Y-9950357D01*
X15495300Y-9978929D01*
X15481014Y-10021786D01*
X15309586Y-10193214D01*
X15495300Y-10193214D01*
X15752443Y-9893214D02*
X15695300Y-9893214D01*
X15666728Y-9907500D01*
X15652443Y-9921786D01*
X15623871Y-9964643D01*
X15609586Y-10021786D01*
X15609586Y-10136072D01*
X15623871Y-10164643D01*
X15638157Y-10178929D01*
X15666728Y-10193214D01*
X15723871Y-10193214D01*
X15752443Y-10178929D01*
X15766728Y-10164643D01*
X15781014Y-10136072D01*
X15781014Y-10064643D01*
X15766728Y-10036072D01*
X15752443Y-10021786D01*
X15723871Y-10007500D01*
X15666728Y-10007500D01*
X15638157Y-10021786D01*
X15623871Y-10036072D01*
X15609586Y-10064643D01*
X15966728Y-9893214D02*
X15995300Y-9893214D01*
X16023871Y-9907500D01*
X16038157Y-9921786D01*
X16052443Y-9950357D01*
X16066728Y-10007500D01*
X16066728Y-10078929D01*
X16052443Y-10136072D01*
X16038157Y-10164643D01*
X16023871Y-10178929D01*
X15995300Y-10193214D01*
X15966728Y-10193214D01*
X15938157Y-10178929D01*
X15923871Y-10164643D01*
X15909586Y-10136072D01*
X15895300Y-10078929D01*
X15895300Y-10007500D01*
X15909586Y-9950357D01*
X15923871Y-9921786D01*
X15938157Y-9907500D01*
X15966728Y-9893214D01*
X16181014Y-9893214D02*
X16181014Y-9950357D01*
X16295300Y-9893214D02*
X16295300Y-9950357D01*
X16738157Y-10307500D02*
X16723871Y-10293214D01*
X16695300Y-10250357D01*
X16681014Y-10221786D01*
X16666728Y-10178929D01*
X16652443Y-10107500D01*
X16652443Y-10050357D01*
X16666728Y-9978929D01*
X16681014Y-9936072D01*
X16695300Y-9907500D01*
X16723871Y-9864643D01*
X16738157Y-9850357D01*
X16981014Y-9993214D02*
X16981014Y-10193214D01*
X16909586Y-9878929D02*
X16838157Y-10093214D01*
X17023871Y-10093214D01*
X17366728Y-10193214D02*
X17366728Y-9893214D01*
X17495300Y-10193214D02*
X17495300Y-10036072D01*
X17481014Y-10007500D01*
X17452443Y-9993214D01*
X17409586Y-9993214D01*
X17381014Y-10007500D01*
X17366728Y-10021786D01*
X17681014Y-10193214D02*
X17652443Y-10178929D01*
X17638157Y-10164643D01*
X17623871Y-10136072D01*
X17623871Y-10050357D01*
X17638157Y-10021786D01*
X17652443Y-10007500D01*
X17681014Y-9993214D01*
X17723871Y-9993214D01*
X17752443Y-10007500D01*
X17766728Y-10021786D01*
X17781014Y-10050357D01*
X17781014Y-10136072D01*
X17766728Y-10164643D01*
X17752443Y-10178929D01*
X17723871Y-10193214D01*
X17681014Y-10193214D01*
X17952443Y-10193214D02*
X17923871Y-10178929D01*
X17909586Y-10150357D01*
X17909586Y-9893214D01*
X18181014Y-10178929D02*
X18152443Y-10193214D01*
X18095300Y-10193214D01*
X18066728Y-10178929D01*
X18052443Y-10150357D01*
X18052443Y-10036072D01*
X18066728Y-10007500D01*
X18095300Y-9993214D01*
X18152443Y-9993214D01*
X18181014Y-10007500D01*
X18195300Y-10036072D01*
X18195300Y-10064643D01*
X18052443Y-10093214D01*
X18309586Y-10178929D02*
X18338157Y-10193214D01*
X18395300Y-10193214D01*
X18423871Y-10178929D01*
X18438157Y-10150357D01*
X18438157Y-10136072D01*
X18423871Y-10107500D01*
X18395300Y-10093214D01*
X18352443Y-10093214D01*
X18323871Y-10078929D01*
X18309586Y-10050357D01*
X18309586Y-10036072D01*
X18323871Y-10007500D01*
X18352443Y-9993214D01*
X18395300Y-9993214D01*
X18423871Y-10007500D01*
X18538157Y-10307500D02*
X18552443Y-10293214D01*
X18581014Y-10250357D01*
X18595300Y-10221786D01*
X18609586Y-10178929D01*
X18623871Y-10107500D01*
X18623871Y-10050357D01*
X18609586Y-9978929D01*
X18595300Y-9936072D01*
X18581014Y-9907500D01*
X18552443Y-9864643D01*
X18538157Y-9850357D01*
X11130300Y-10332500D02*
X11480300Y-10682500D01*
X11480300Y-10332500D02*
X11130300Y-10682500D01*
X11480300Y-10507500D02*
G75*
G03*
X11480300Y-10507500I-175000J0D01*
G01*
X11738157Y-10343214D02*
X11923871Y-10343214D01*
X11823871Y-10457500D01*
X11866728Y-10457500D01*
X11895300Y-10471786D01*
X11909586Y-10486072D01*
X11923871Y-10514643D01*
X11923871Y-10586072D01*
X11909586Y-10614643D01*
X11895300Y-10628929D01*
X11866728Y-10643214D01*
X11781014Y-10643214D01*
X11752443Y-10628929D01*
X11738157Y-10614643D01*
X12052443Y-10614643D02*
X12066728Y-10628929D01*
X12052443Y-10643214D01*
X12038157Y-10628929D01*
X12052443Y-10614643D01*
X12052443Y-10643214D01*
X12338157Y-10343214D02*
X12195300Y-10343214D01*
X12181014Y-10486072D01*
X12195300Y-10471786D01*
X12223871Y-10457500D01*
X12295300Y-10457500D01*
X12323871Y-10471786D01*
X12338157Y-10486072D01*
X12352443Y-10514643D01*
X12352443Y-10586072D01*
X12338157Y-10614643D01*
X12323871Y-10628929D01*
X12295300Y-10643214D01*
X12223871Y-10643214D01*
X12195300Y-10628929D01*
X12181014Y-10614643D01*
X12538157Y-10343214D02*
X12566728Y-10343214D01*
X12595300Y-10357500D01*
X12609586Y-10371786D01*
X12623871Y-10400357D01*
X12638157Y-10457500D01*
X12638157Y-10528929D01*
X12623871Y-10586072D01*
X12609586Y-10614643D01*
X12595300Y-10628929D01*
X12566728Y-10643214D01*
X12538157Y-10643214D01*
X12509586Y-10628929D01*
X12495300Y-10614643D01*
X12481014Y-10586072D01*
X12466728Y-10528929D01*
X12466728Y-10457500D01*
X12481014Y-10400357D01*
X12495300Y-10371786D01*
X12509586Y-10357500D01*
X12538157Y-10343214D01*
X12823871Y-10343214D02*
X12852443Y-10343214D01*
X12881014Y-10357500D01*
X12895300Y-10371786D01*
X12909586Y-10400357D01*
X12923871Y-10457500D01*
X12923871Y-10528929D01*
X12909586Y-10586072D01*
X12895300Y-10614643D01*
X12881014Y-10628929D01*
X12852443Y-10643214D01*
X12823871Y-10643214D01*
X12795300Y-10628929D01*
X12781014Y-10614643D01*
X12766728Y-10586072D01*
X12752443Y-10528929D01*
X12752443Y-10457500D01*
X12766728Y-10400357D01*
X12781014Y-10371786D01*
X12795300Y-10357500D01*
X12823871Y-10343214D01*
X13052443Y-10643214D02*
X13052443Y-10443214D01*
X13052443Y-10471786D02*
X13066728Y-10457500D01*
X13095300Y-10443214D01*
X13138157Y-10443214D01*
X13166728Y-10457500D01*
X13181014Y-10486072D01*
X13181014Y-10643214D01*
X13181014Y-10486072D02*
X13195300Y-10457500D01*
X13223871Y-10443214D01*
X13266728Y-10443214D01*
X13295300Y-10457500D01*
X13309586Y-10486072D01*
X13309586Y-10643214D01*
X13452443Y-10643214D02*
X13452443Y-10443214D01*
X13452443Y-10471786D02*
X13466728Y-10457500D01*
X13495300Y-10443214D01*
X13538157Y-10443214D01*
X13566728Y-10457500D01*
X13581014Y-10486072D01*
X13581014Y-10643214D01*
X13581014Y-10486072D02*
X13595300Y-10457500D01*
X13623871Y-10443214D01*
X13666728Y-10443214D01*
X13695300Y-10457500D01*
X13709586Y-10486072D01*
X13709586Y-10643214D01*
X14295300Y-10328929D02*
X14038157Y-10714643D01*
X14681014Y-10343214D02*
X14709586Y-10343214D01*
X14738157Y-10357500D01*
X14752443Y-10371786D01*
X14766728Y-10400357D01*
X14781014Y-10457500D01*
X14781014Y-10528929D01*
X14766728Y-10586072D01*
X14752443Y-10614643D01*
X14738157Y-10628929D01*
X14709586Y-10643214D01*
X14681014Y-10643214D01*
X14652443Y-10628929D01*
X14638157Y-10614643D01*
X14623871Y-10586072D01*
X14609586Y-10528929D01*
X14609586Y-10457500D01*
X14623871Y-10400357D01*
X14638157Y-10371786D01*
X14652443Y-10357500D01*
X14681014Y-10343214D01*
X14909586Y-10614643D02*
X14923871Y-10628929D01*
X14909586Y-10643214D01*
X14895300Y-10628929D01*
X14909586Y-10614643D01*
X14909586Y-10643214D01*
X15209586Y-10643214D02*
X15038157Y-10643214D01*
X15123871Y-10643214D02*
X15123871Y-10343214D01*
X15095300Y-10386072D01*
X15066728Y-10414643D01*
X15038157Y-10428929D01*
X15309586Y-10343214D02*
X15495300Y-10343214D01*
X15395300Y-10457500D01*
X15438157Y-10457500D01*
X15466728Y-10471786D01*
X15481014Y-10486072D01*
X15495300Y-10514643D01*
X15495300Y-10586072D01*
X15481014Y-10614643D01*
X15466728Y-10628929D01*
X15438157Y-10643214D01*
X15352443Y-10643214D01*
X15323871Y-10628929D01*
X15309586Y-10614643D01*
X15595300Y-10343214D02*
X15795300Y-10343214D01*
X15666728Y-10643214D01*
X15952443Y-10471786D02*
X15923871Y-10457500D01*
X15909586Y-10443214D01*
X15895300Y-10414643D01*
X15895300Y-10400357D01*
X15909586Y-10371786D01*
X15923871Y-10357500D01*
X15952443Y-10343214D01*
X16009586Y-10343214D01*
X16038157Y-10357500D01*
X16052443Y-10371786D01*
X16066728Y-10400357D01*
X16066728Y-10414643D01*
X16052443Y-10443214D01*
X16038157Y-10457500D01*
X16009586Y-10471786D01*
X15952443Y-10471786D01*
X15923871Y-10486072D01*
X15909586Y-10500357D01*
X15895300Y-10528929D01*
X15895300Y-10586072D01*
X15909586Y-10614643D01*
X15923871Y-10628929D01*
X15952443Y-10643214D01*
X16009586Y-10643214D01*
X16038157Y-10628929D01*
X16052443Y-10614643D01*
X16066728Y-10586072D01*
X16066728Y-10528929D01*
X16052443Y-10500357D01*
X16038157Y-10486072D01*
X16009586Y-10471786D01*
X16181014Y-10343214D02*
X16181014Y-10400357D01*
X16295300Y-10343214D02*
X16295300Y-10400357D01*
X16738157Y-10757500D02*
X16723871Y-10743214D01*
X16695300Y-10700357D01*
X16681014Y-10671786D01*
X16666728Y-10628929D01*
X16652443Y-10557500D01*
X16652443Y-10500357D01*
X16666728Y-10428929D01*
X16681014Y-10386072D01*
X16695300Y-10357500D01*
X16723871Y-10314643D01*
X16738157Y-10300357D01*
X16981014Y-10443214D02*
X16981014Y-10643214D01*
X16909586Y-10328929D02*
X16838157Y-10543214D01*
X17023871Y-10543214D01*
X17366728Y-10643214D02*
X17366728Y-10343214D01*
X17495300Y-10643214D02*
X17495300Y-10486072D01*
X17481014Y-10457500D01*
X17452443Y-10443214D01*
X17409586Y-10443214D01*
X17381014Y-10457500D01*
X17366728Y-10471786D01*
X17681014Y-10643214D02*
X17652443Y-10628929D01*
X17638157Y-10614643D01*
X17623871Y-10586072D01*
X17623871Y-10500357D01*
X17638157Y-10471786D01*
X17652443Y-10457500D01*
X17681014Y-10443214D01*
X17723871Y-10443214D01*
X17752443Y-10457500D01*
X17766728Y-10471786D01*
X17781014Y-10500357D01*
X17781014Y-10586072D01*
X17766728Y-10614643D01*
X17752443Y-10628929D01*
X17723871Y-10643214D01*
X17681014Y-10643214D01*
X17952443Y-10643214D02*
X17923871Y-10628929D01*
X17909586Y-10600357D01*
X17909586Y-10343214D01*
X18181014Y-10628929D02*
X18152443Y-10643214D01*
X18095300Y-10643214D01*
X18066728Y-10628929D01*
X18052443Y-10600357D01*
X18052443Y-10486072D01*
X18066728Y-10457500D01*
X18095300Y-10443214D01*
X18152443Y-10443214D01*
X18181014Y-10457500D01*
X18195300Y-10486072D01*
X18195300Y-10514643D01*
X18052443Y-10543214D01*
X18309586Y-10628929D02*
X18338157Y-10643214D01*
X18395300Y-10643214D01*
X18423871Y-10628929D01*
X18438157Y-10600357D01*
X18438157Y-10586072D01*
X18423871Y-10557500D01*
X18395300Y-10543214D01*
X18352443Y-10543214D01*
X18323871Y-10528929D01*
X18309586Y-10500357D01*
X18309586Y-10486072D01*
X18323871Y-10457500D01*
X18352443Y-10443214D01*
X18395300Y-10443214D01*
X18423871Y-10457500D01*
X18538157Y-10757500D02*
X18552443Y-10743214D01*
X18581014Y-10700357D01*
X18595300Y-10671786D01*
X18609586Y-10628929D01*
X18623871Y-10557500D01*
X18623871Y-10500357D01*
X18609586Y-10428929D01*
X18595300Y-10386072D01*
X18581014Y-10357500D01*
X18552443Y-10314643D01*
X18538157Y-10300357D01*
X19081014Y-10757500D02*
X19066728Y-10743214D01*
X19038157Y-10700357D01*
X19023871Y-10671786D01*
X19009586Y-10628929D01*
X18995300Y-10557500D01*
X18995300Y-10500357D01*
X19009586Y-10428929D01*
X19023871Y-10386072D01*
X19038157Y-10357500D01*
X19066728Y-10314643D01*
X19081014Y-10300357D01*
X19195300Y-10443214D02*
X19195300Y-10643214D01*
X19195300Y-10471786D02*
X19209586Y-10457500D01*
X19238157Y-10443214D01*
X19281014Y-10443214D01*
X19309586Y-10457500D01*
X19323871Y-10486072D01*
X19323871Y-10643214D01*
X19509586Y-10643214D02*
X19481014Y-10628929D01*
X19466728Y-10614643D01*
X19452443Y-10586072D01*
X19452443Y-10500357D01*
X19466728Y-10471786D01*
X19481014Y-10457500D01*
X19509586Y-10443214D01*
X19552443Y-10443214D01*
X19581014Y-10457500D01*
X19595300Y-10471786D01*
X19609586Y-10500357D01*
X19609586Y-10586072D01*
X19595300Y-10614643D01*
X19581014Y-10628929D01*
X19552443Y-10643214D01*
X19509586Y-10643214D01*
X19695300Y-10443214D02*
X19809586Y-10443214D01*
X19738157Y-10343214D02*
X19738157Y-10600357D01*
X19752443Y-10628929D01*
X19781014Y-10643214D01*
X19809586Y-10643214D01*
X20138157Y-10443214D02*
X20138157Y-10743214D01*
X20138157Y-10457500D02*
X20166728Y-10443214D01*
X20223871Y-10443214D01*
X20252443Y-10457500D01*
X20266728Y-10471786D01*
X20281014Y-10500357D01*
X20281014Y-10586072D01*
X20266728Y-10614643D01*
X20252443Y-10628929D01*
X20223871Y-10643214D01*
X20166728Y-10643214D01*
X20138157Y-10628929D01*
X20452443Y-10643214D02*
X20423871Y-10628929D01*
X20409586Y-10600357D01*
X20409586Y-10343214D01*
X20695300Y-10643214D02*
X20695300Y-10486072D01*
X20681014Y-10457500D01*
X20652443Y-10443214D01*
X20595300Y-10443214D01*
X20566728Y-10457500D01*
X20695300Y-10628929D02*
X20666728Y-10643214D01*
X20595300Y-10643214D01*
X20566728Y-10628929D01*
X20552443Y-10600357D01*
X20552443Y-10571786D01*
X20566728Y-10543214D01*
X20595300Y-10528929D01*
X20666728Y-10528929D01*
X20695300Y-10514643D01*
X20795300Y-10443214D02*
X20909586Y-10443214D01*
X20838157Y-10343214D02*
X20838157Y-10600357D01*
X20852443Y-10628929D01*
X20881014Y-10643214D01*
X20909586Y-10643214D01*
X21123871Y-10628929D02*
X21095300Y-10643214D01*
X21038157Y-10643214D01*
X21009586Y-10628929D01*
X20995300Y-10600357D01*
X20995300Y-10486072D01*
X21009586Y-10457500D01*
X21038157Y-10443214D01*
X21095300Y-10443214D01*
X21123871Y-10457500D01*
X21138157Y-10486072D01*
X21138157Y-10514643D01*
X20995300Y-10543214D01*
X21395300Y-10643214D02*
X21395300Y-10343214D01*
X21395300Y-10628929D02*
X21366728Y-10643214D01*
X21309586Y-10643214D01*
X21281014Y-10628929D01*
X21266728Y-10614643D01*
X21252443Y-10586072D01*
X21252443Y-10500357D01*
X21266728Y-10471786D01*
X21281014Y-10457500D01*
X21309586Y-10443214D01*
X21366728Y-10443214D01*
X21395300Y-10457500D01*
X21509586Y-10757500D02*
X21523871Y-10743214D01*
X21552443Y-10700357D01*
X21566728Y-10671786D01*
X21581014Y-10628929D01*
X21595300Y-10557500D01*
X21595300Y-10500357D01*
X21581014Y-10428929D01*
X21566728Y-10386072D01*
X21552443Y-10357500D01*
X21523871Y-10314643D01*
X21509586Y-10300357D01*
M02*
