M48
; DRILL file {KiCad 5.1.10} date Sat Aug 14 17:23:02 2021
; FORMAT={-:-/ absolute / metric / decimal}
; #@! TF.CreationDate,2021-08-14T17:23:02+12:00
; #@! TF.GenerationSoftware,Kicad,Pcbnew,5.1.10
FMAT,2
METRIC
T1C0.400
T2C1.100
T3C1.200
T4C1.520
T5C3.200
T6C3.500
%
G90
G05
T1
X124.4Y-60.05
X138.512Y-49.387
X138.512Y-62.008
X139.6Y-49.81
X140.675Y-60.175
X141.987Y-61.537
X144.824Y-63.824
X146.297Y-63.553
X146.325Y-49.085
X150.1Y-70.55
X152.65Y-42.15
X152.65Y-46.885
T2
X156.228Y-32.11
X156.228Y-34.65
X156.228Y-37.19
X156.228Y-43.71
X156.228Y-46.25
X156.228Y-48.79
X156.228Y-55.26
X156.228Y-57.8
X156.228Y-60.34
X156.228Y-66.81
X156.228Y-69.35
X156.228Y-71.89
T3
X132.828Y-36.25
X132.828Y-43.75
T4
X118.828Y-40.61
X118.828Y-45.69
X131.32Y-69.2
X136.4Y-69.2
X141.48Y-69.2
X146.56Y-69.2
X181.828Y-45.95
X181.828Y-51.03
X181.828Y-56.11
T5
X119.828Y-34.11
X119.828Y-70.11
X182.828Y-34.11
X182.828Y-70.11
T6
X172.888Y-34.65
X172.888Y-46.25
X172.888Y-57.8
X172.888Y-69.35
T0
M30
