G04 #@! TF.GenerationSoftware,KiCad,Pcbnew,5.1.10*
G04 #@! TF.CreationDate,2021-08-16T10:52:11+12:00*
G04 #@! TF.ProjectId,DClassAmplifier,44436c61-7373-4416-9d70-6c6966696572,rev?*
G04 #@! TF.SameCoordinates,Original*
G04 #@! TF.FileFunction,Legend,Top*
G04 #@! TF.FilePolarity,Positive*
%FSLAX46Y46*%
G04 Gerber Fmt 4.6, Leading zero omitted, Abs format (unit mm)*
G04 Created by KiCad (PCBNEW 5.1.10) date 2021-08-16 10:52:11*
%MOMM*%
%LPD*%
G01*
G04 APERTURE LIST*
%ADD10C,0.100000*%
%ADD11C,0.120000*%
%ADD12C,0.150000*%
%ADD13C,0.050000*%
%ADD14C,0.127000*%
%ADD15C,0.250000*%
%ADD16C,0.075000*%
%ADD17C,1.500000*%
%ADD18C,3.000000*%
%ADD19R,3.000000X3.000000*%
%ADD20R,6.400000X5.800000*%
%ADD21R,2.200000X1.200000*%
%ADD22O,2.000000X1.905000*%
%ADD23R,2.000000X1.905000*%
%ADD24O,3.500000X3.500000*%
%ADD25R,0.533400X1.460500*%
%ADD26R,1.473200X0.355600*%
%ADD27C,2.000000*%
%ADD28C,1.905000*%
%ADD29R,1.650000X2.600000*%
%ADD30R,0.850000X0.300000*%
%ADD31C,1.600000*%
%ADD32R,1.600000X1.600000*%
%ADD33C,2.400000*%
%ADD34R,2.400000X2.400000*%
%ADD35C,5.700000*%
G04 APERTURE END LIST*
D10*
X105742857Y-67442857D02*
X106200000Y-67442857D01*
X105971428Y-67671428D02*
X105971428Y-67214285D01*
X106800000Y-67671428D02*
X106457142Y-67671428D01*
X106628571Y-67671428D02*
X106628571Y-67071428D01*
X106571428Y-67157142D01*
X106514285Y-67214285D01*
X106457142Y-67242857D01*
X107171428Y-67071428D02*
X107228571Y-67071428D01*
X107285714Y-67100000D01*
X107314285Y-67128571D01*
X107342857Y-67185714D01*
X107371428Y-67300000D01*
X107371428Y-67442857D01*
X107342857Y-67557142D01*
X107314285Y-67614285D01*
X107285714Y-67642857D01*
X107228571Y-67671428D01*
X107171428Y-67671428D01*
X107114285Y-67642857D01*
X107085714Y-67614285D01*
X107057142Y-67557142D01*
X107028571Y-67442857D01*
X107028571Y-67300000D01*
X107057142Y-67185714D01*
X107085714Y-67128571D01*
X107114285Y-67100000D01*
X107171428Y-67071428D01*
X107542857Y-67071428D02*
X107742857Y-67671428D01*
X107942857Y-67071428D01*
D11*
X106308114Y-103700000D02*
G75*
G03*
X106308114Y-103700000I-158114J0D01*
G01*
X106200000Y-103700000D02*
G75*
G03*
X106200000Y-103700000I-50000J0D01*
G01*
X106595321Y-99949944D02*
G75*
G02*
X106599999Y-101199999I-5321J-625056D01*
G01*
D12*
X106085595Y-122803571D02*
X106418928Y-122803571D01*
X106561785Y-123327380D02*
X106085595Y-123327380D01*
X106085595Y-122327380D01*
X106561785Y-122327380D01*
X107561785Y-123232142D02*
X107514166Y-123279761D01*
X107371309Y-123327380D01*
X107276071Y-123327380D01*
X107133214Y-123279761D01*
X107037976Y-123184523D01*
X106990357Y-123089285D01*
X106942738Y-122898809D01*
X106942738Y-122755952D01*
X106990357Y-122565476D01*
X107037976Y-122470238D01*
X107133214Y-122375000D01*
X107276071Y-122327380D01*
X107371309Y-122327380D01*
X107514166Y-122375000D01*
X107561785Y-122422619D01*
X107990357Y-122803571D02*
X108323690Y-122803571D01*
X108466547Y-123327380D02*
X107990357Y-123327380D01*
X107990357Y-122327380D01*
X108466547Y-122327380D01*
X108895119Y-123327380D02*
X108895119Y-122327380D01*
X109466547Y-123327380D01*
X109466547Y-122327380D01*
X110371309Y-122660714D02*
X110371309Y-123327380D01*
X110133214Y-122279761D02*
X109895119Y-122994047D01*
X110514166Y-122994047D01*
X111085595Y-122327380D02*
X111180833Y-122327380D01*
X111276071Y-122375000D01*
X111323690Y-122422619D01*
X111371309Y-122517857D01*
X111418928Y-122708333D01*
X111418928Y-122946428D01*
X111371309Y-123136904D01*
X111323690Y-123232142D01*
X111276071Y-123279761D01*
X111180833Y-123327380D01*
X111085595Y-123327380D01*
X110990357Y-123279761D01*
X110942738Y-123232142D01*
X110895119Y-123136904D01*
X110847500Y-122946428D01*
X110847500Y-122708333D01*
X110895119Y-122517857D01*
X110942738Y-122422619D01*
X110990357Y-122375000D01*
X111085595Y-122327380D01*
X112323690Y-122327380D02*
X111847500Y-122327380D01*
X111799880Y-122803571D01*
X111847500Y-122755952D01*
X111942738Y-122708333D01*
X112180833Y-122708333D01*
X112276071Y-122755952D01*
X112323690Y-122803571D01*
X112371309Y-122898809D01*
X112371309Y-123136904D01*
X112323690Y-123232142D01*
X112276071Y-123279761D01*
X112180833Y-123327380D01*
X111942738Y-123327380D01*
X111847500Y-123279761D01*
X111799880Y-123232142D01*
X106228452Y-124405952D02*
X106133214Y-124358333D01*
X106085595Y-124310714D01*
X106037976Y-124215476D01*
X106037976Y-124167857D01*
X106085595Y-124072619D01*
X106133214Y-124025000D01*
X106228452Y-123977380D01*
X106418928Y-123977380D01*
X106514166Y-124025000D01*
X106561785Y-124072619D01*
X106609404Y-124167857D01*
X106609404Y-124215476D01*
X106561785Y-124310714D01*
X106514166Y-124358333D01*
X106418928Y-124405952D01*
X106228452Y-124405952D01*
X106133214Y-124453571D01*
X106085595Y-124501190D01*
X106037976Y-124596428D01*
X106037976Y-124786904D01*
X106085595Y-124882142D01*
X106133214Y-124929761D01*
X106228452Y-124977380D01*
X106418928Y-124977380D01*
X106514166Y-124929761D01*
X106561785Y-124882142D01*
X106609404Y-124786904D01*
X106609404Y-124596428D01*
X106561785Y-124501190D01*
X106514166Y-124453571D01*
X106418928Y-124405952D01*
X107228452Y-123977380D02*
X107323690Y-123977380D01*
X107418928Y-124025000D01*
X107466547Y-124072619D01*
X107514166Y-124167857D01*
X107561785Y-124358333D01*
X107561785Y-124596428D01*
X107514166Y-124786904D01*
X107466547Y-124882142D01*
X107418928Y-124929761D01*
X107323690Y-124977380D01*
X107228452Y-124977380D01*
X107133214Y-124929761D01*
X107085595Y-124882142D01*
X107037976Y-124786904D01*
X106990357Y-124596428D01*
X106990357Y-124358333D01*
X107037976Y-124167857D01*
X107085595Y-124072619D01*
X107133214Y-124025000D01*
X107228452Y-123977380D01*
X107895119Y-123977380D02*
X108133214Y-124977380D01*
X108323690Y-124263095D01*
X108514166Y-124977380D01*
X108752261Y-123977380D01*
X109895119Y-124977380D02*
X109895119Y-123977380D01*
X110133214Y-123977380D01*
X110276071Y-124025000D01*
X110371309Y-124120238D01*
X110418928Y-124215476D01*
X110466547Y-124405952D01*
X110466547Y-124548809D01*
X110418928Y-124739285D01*
X110371309Y-124834523D01*
X110276071Y-124929761D01*
X110133214Y-124977380D01*
X109895119Y-124977380D01*
X112228452Y-124882142D02*
X112180833Y-124929761D01*
X112037976Y-124977380D01*
X111942738Y-124977380D01*
X111799880Y-124929761D01*
X111704642Y-124834523D01*
X111657023Y-124739285D01*
X111609404Y-124548809D01*
X111609404Y-124405952D01*
X111657023Y-124215476D01*
X111704642Y-124120238D01*
X111799880Y-124025000D01*
X111942738Y-123977380D01*
X112037976Y-123977380D01*
X112180833Y-124025000D01*
X112228452Y-124072619D01*
X112799880Y-124977380D02*
X112704642Y-124929761D01*
X112657023Y-124834523D01*
X112657023Y-123977380D01*
X113609404Y-124977380D02*
X113609404Y-124453571D01*
X113561785Y-124358333D01*
X113466547Y-124310714D01*
X113276071Y-124310714D01*
X113180833Y-124358333D01*
X113609404Y-124929761D02*
X113514166Y-124977380D01*
X113276071Y-124977380D01*
X113180833Y-124929761D01*
X113133214Y-124834523D01*
X113133214Y-124739285D01*
X113180833Y-124644047D01*
X113276071Y-124596428D01*
X113514166Y-124596428D01*
X113609404Y-124548809D01*
X114037976Y-124929761D02*
X114133214Y-124977380D01*
X114323690Y-124977380D01*
X114418928Y-124929761D01*
X114466547Y-124834523D01*
X114466547Y-124786904D01*
X114418928Y-124691666D01*
X114323690Y-124644047D01*
X114180833Y-124644047D01*
X114085595Y-124596428D01*
X114037976Y-124501190D01*
X114037976Y-124453571D01*
X114085595Y-124358333D01*
X114180833Y-124310714D01*
X114323690Y-124310714D01*
X114418928Y-124358333D01*
X114847500Y-124929761D02*
X114942738Y-124977380D01*
X115133214Y-124977380D01*
X115228452Y-124929761D01*
X115276071Y-124834523D01*
X115276071Y-124786904D01*
X115228452Y-124691666D01*
X115133214Y-124644047D01*
X114990357Y-124644047D01*
X114895119Y-124596428D01*
X114847500Y-124501190D01*
X114847500Y-124453571D01*
X114895119Y-124358333D01*
X114990357Y-124310714D01*
X115133214Y-124310714D01*
X115228452Y-124358333D01*
X116418928Y-124691666D02*
X116895119Y-124691666D01*
X116323690Y-124977380D02*
X116657023Y-123977380D01*
X116990357Y-124977380D01*
X117323690Y-124977380D02*
X117323690Y-124310714D01*
X117323690Y-124405952D02*
X117371309Y-124358333D01*
X117466547Y-124310714D01*
X117609404Y-124310714D01*
X117704642Y-124358333D01*
X117752261Y-124453571D01*
X117752261Y-124977380D01*
X117752261Y-124453571D02*
X117799880Y-124358333D01*
X117895119Y-124310714D01*
X118037976Y-124310714D01*
X118133214Y-124358333D01*
X118180833Y-124453571D01*
X118180833Y-124977380D01*
X118657023Y-124310714D02*
X118657023Y-125310714D01*
X118657023Y-124358333D02*
X118752261Y-124310714D01*
X118942738Y-124310714D01*
X119037976Y-124358333D01*
X119085595Y-124405952D01*
X119133214Y-124501190D01*
X119133214Y-124786904D01*
X119085595Y-124882142D01*
X119037976Y-124929761D01*
X118942738Y-124977380D01*
X118752261Y-124977380D01*
X118657023Y-124929761D01*
X119704642Y-124977380D02*
X119609404Y-124929761D01*
X119561785Y-124834523D01*
X119561785Y-123977380D01*
X120085595Y-124977380D02*
X120085595Y-124310714D01*
X120085595Y-123977380D02*
X120037976Y-124025000D01*
X120085595Y-124072619D01*
X120133214Y-124025000D01*
X120085595Y-123977380D01*
X120085595Y-124072619D01*
X120418928Y-124310714D02*
X120799880Y-124310714D01*
X120561785Y-124977380D02*
X120561785Y-124120238D01*
X120609404Y-124025000D01*
X120704642Y-123977380D01*
X120799880Y-123977380D01*
X121133214Y-124977380D02*
X121133214Y-124310714D01*
X121133214Y-123977380D02*
X121085595Y-124025000D01*
X121133214Y-124072619D01*
X121180833Y-124025000D01*
X121133214Y-123977380D01*
X121133214Y-124072619D01*
X121990357Y-124929761D02*
X121895119Y-124977380D01*
X121704642Y-124977380D01*
X121609404Y-124929761D01*
X121561785Y-124834523D01*
X121561785Y-124453571D01*
X121609404Y-124358333D01*
X121704642Y-124310714D01*
X121895119Y-124310714D01*
X121990357Y-124358333D01*
X122037976Y-124453571D01*
X122037976Y-124548809D01*
X121561785Y-124644047D01*
X122466547Y-124977380D02*
X122466547Y-124310714D01*
X122466547Y-124501190D02*
X122514166Y-124405952D01*
X122561785Y-124358333D01*
X122657023Y-124310714D01*
X122752261Y-124310714D01*
X106657023Y-126627380D02*
X106323690Y-126151190D01*
X106085595Y-126627380D02*
X106085595Y-125627380D01*
X106466547Y-125627380D01*
X106561785Y-125675000D01*
X106609404Y-125722619D01*
X106657023Y-125817857D01*
X106657023Y-125960714D01*
X106609404Y-126055952D01*
X106561785Y-126103571D01*
X106466547Y-126151190D01*
X106085595Y-126151190D01*
X107085595Y-126103571D02*
X107418928Y-126103571D01*
X107561785Y-126627380D02*
X107085595Y-126627380D01*
X107085595Y-125627380D01*
X107561785Y-125627380D01*
X107847500Y-125627380D02*
X108180833Y-126627380D01*
X108514166Y-125627380D01*
X110133214Y-126627380D02*
X109561785Y-126627380D01*
X109847500Y-126627380D02*
X109847500Y-125627380D01*
X109752261Y-125770238D01*
X109657023Y-125865476D01*
X109561785Y-125913095D01*
X110561785Y-126532142D02*
X110609404Y-126579761D01*
X110561785Y-126627380D01*
X110514166Y-126579761D01*
X110561785Y-126532142D01*
X110561785Y-126627380D01*
X111561785Y-126627380D02*
X110990357Y-126627380D01*
X111276071Y-126627380D02*
X111276071Y-125627380D01*
X111180833Y-125770238D01*
X111085595Y-125865476D01*
X110990357Y-125913095D01*
X113276071Y-126627380D02*
X112704642Y-126627380D01*
X112990357Y-126627380D02*
X112990357Y-125627380D01*
X112895119Y-125770238D01*
X112799880Y-125865476D01*
X112704642Y-125913095D01*
X114133214Y-125960714D02*
X114133214Y-126627380D01*
X113895119Y-125579761D02*
X113657023Y-126294047D01*
X114276071Y-126294047D01*
X115371309Y-125579761D02*
X114514166Y-126865476D01*
X115895119Y-125627380D02*
X115990357Y-125627380D01*
X116085595Y-125675000D01*
X116133214Y-125722619D01*
X116180833Y-125817857D01*
X116228452Y-126008333D01*
X116228452Y-126246428D01*
X116180833Y-126436904D01*
X116133214Y-126532142D01*
X116085595Y-126579761D01*
X115990357Y-126627380D01*
X115895119Y-126627380D01*
X115799880Y-126579761D01*
X115752261Y-126532142D01*
X115704642Y-126436904D01*
X115657023Y-126246428D01*
X115657023Y-126008333D01*
X115704642Y-125817857D01*
X115752261Y-125722619D01*
X115799880Y-125675000D01*
X115895119Y-125627380D01*
X116799880Y-126055952D02*
X116704642Y-126008333D01*
X116657023Y-125960714D01*
X116609404Y-125865476D01*
X116609404Y-125817857D01*
X116657023Y-125722619D01*
X116704642Y-125675000D01*
X116799880Y-125627380D01*
X116990357Y-125627380D01*
X117085595Y-125675000D01*
X117133214Y-125722619D01*
X117180833Y-125817857D01*
X117180833Y-125865476D01*
X117133214Y-125960714D01*
X117085595Y-126008333D01*
X116990357Y-126055952D01*
X116799880Y-126055952D01*
X116704642Y-126103571D01*
X116657023Y-126151190D01*
X116609404Y-126246428D01*
X116609404Y-126436904D01*
X116657023Y-126532142D01*
X116704642Y-126579761D01*
X116799880Y-126627380D01*
X116990357Y-126627380D01*
X117085595Y-126579761D01*
X117133214Y-126532142D01*
X117180833Y-126436904D01*
X117180833Y-126246428D01*
X117133214Y-126151190D01*
X117085595Y-126103571D01*
X116990357Y-126055952D01*
X118323690Y-125579761D02*
X117466547Y-126865476D01*
X118609404Y-125722619D02*
X118657023Y-125675000D01*
X118752261Y-125627380D01*
X118990357Y-125627380D01*
X119085595Y-125675000D01*
X119133214Y-125722619D01*
X119180833Y-125817857D01*
X119180833Y-125913095D01*
X119133214Y-126055952D01*
X118561785Y-126627380D01*
X119180833Y-126627380D01*
X120133214Y-126627380D02*
X119561785Y-126627380D01*
X119847500Y-126627380D02*
X119847500Y-125627380D01*
X119752261Y-125770238D01*
X119657023Y-125865476D01*
X119561785Y-125913095D01*
X106037976Y-128229761D02*
X106180833Y-128277380D01*
X106418928Y-128277380D01*
X106514166Y-128229761D01*
X106561785Y-128182142D01*
X106609404Y-128086904D01*
X106609404Y-127991666D01*
X106561785Y-127896428D01*
X106514166Y-127848809D01*
X106418928Y-127801190D01*
X106228452Y-127753571D01*
X106133214Y-127705952D01*
X106085595Y-127658333D01*
X106037976Y-127563095D01*
X106037976Y-127467857D01*
X106085595Y-127372619D01*
X106133214Y-127325000D01*
X106228452Y-127277380D01*
X106466547Y-127277380D01*
X106609404Y-127325000D01*
X107037976Y-128277380D02*
X107037976Y-127277380D01*
X107466547Y-128277380D02*
X107466547Y-127753571D01*
X107418928Y-127658333D01*
X107323690Y-127610714D01*
X107180833Y-127610714D01*
X107085595Y-127658333D01*
X107037976Y-127705952D01*
X108371309Y-128277380D02*
X108371309Y-127753571D01*
X108323690Y-127658333D01*
X108228452Y-127610714D01*
X108037976Y-127610714D01*
X107942738Y-127658333D01*
X108371309Y-128229761D02*
X108276071Y-128277380D01*
X108037976Y-128277380D01*
X107942738Y-128229761D01*
X107895119Y-128134523D01*
X107895119Y-128039285D01*
X107942738Y-127944047D01*
X108037976Y-127896428D01*
X108276071Y-127896428D01*
X108371309Y-127848809D01*
X108847500Y-128277380D02*
X108847500Y-127610714D01*
X108847500Y-127801190D02*
X108895119Y-127705952D01*
X108942738Y-127658333D01*
X109037976Y-127610714D01*
X109133214Y-127610714D01*
X109609404Y-128277380D02*
X109514166Y-128229761D01*
X109466547Y-128182142D01*
X109418928Y-128086904D01*
X109418928Y-127801190D01*
X109466547Y-127705952D01*
X109514166Y-127658333D01*
X109609404Y-127610714D01*
X109752261Y-127610714D01*
X109847500Y-127658333D01*
X109895119Y-127705952D01*
X109942738Y-127801190D01*
X109942738Y-128086904D01*
X109895119Y-128182142D01*
X109847500Y-128229761D01*
X109752261Y-128277380D01*
X109609404Y-128277380D01*
X110371309Y-127610714D02*
X110371309Y-128277380D01*
X110371309Y-127705952D02*
X110418928Y-127658333D01*
X110514166Y-127610714D01*
X110657023Y-127610714D01*
X110752261Y-127658333D01*
X110799880Y-127753571D01*
X110799880Y-128277380D01*
X112037976Y-128277380D02*
X112037976Y-127277380D01*
X112371309Y-127991666D01*
X112704642Y-127277380D01*
X112704642Y-128277380D01*
X113609404Y-128229761D02*
X113514166Y-128277380D01*
X113323690Y-128277380D01*
X113228452Y-128229761D01*
X113180833Y-128182142D01*
X113133214Y-128086904D01*
X113133214Y-127801190D01*
X113180833Y-127705952D01*
X113228452Y-127658333D01*
X113323690Y-127610714D01*
X113514166Y-127610714D01*
X113609404Y-127658333D01*
X113895119Y-127277380D02*
X114466547Y-127277380D01*
X114180833Y-128277380D02*
X114180833Y-127277380D01*
X115228452Y-128277380D02*
X115228452Y-127753571D01*
X115180833Y-127658333D01*
X115085595Y-127610714D01*
X114895119Y-127610714D01*
X114799880Y-127658333D01*
X115228452Y-128229761D02*
X115133214Y-128277380D01*
X114895119Y-128277380D01*
X114799880Y-128229761D01*
X114752261Y-128134523D01*
X114752261Y-128039285D01*
X114799880Y-127944047D01*
X114895119Y-127896428D01*
X115133214Y-127896428D01*
X115228452Y-127848809D01*
X116133214Y-127610714D02*
X116133214Y-128420238D01*
X116085595Y-128515476D01*
X116037976Y-128563095D01*
X115942738Y-128610714D01*
X115799880Y-128610714D01*
X115704642Y-128563095D01*
X116133214Y-128229761D02*
X116037976Y-128277380D01*
X115847500Y-128277380D01*
X115752261Y-128229761D01*
X115704642Y-128182142D01*
X115657023Y-128086904D01*
X115657023Y-127801190D01*
X115704642Y-127705952D01*
X115752261Y-127658333D01*
X115847500Y-127610714D01*
X116037976Y-127610714D01*
X116133214Y-127658333D01*
X117037976Y-127610714D02*
X117037976Y-128420238D01*
X116990357Y-128515476D01*
X116942738Y-128563095D01*
X116847500Y-128610714D01*
X116704642Y-128610714D01*
X116609404Y-128563095D01*
X117037976Y-128229761D02*
X116942738Y-128277380D01*
X116752261Y-128277380D01*
X116657023Y-128229761D01*
X116609404Y-128182142D01*
X116561785Y-128086904D01*
X116561785Y-127801190D01*
X116609404Y-127705952D01*
X116657023Y-127658333D01*
X116752261Y-127610714D01*
X116942738Y-127610714D01*
X117037976Y-127658333D01*
X117942738Y-128277380D02*
X117942738Y-127753571D01*
X117895119Y-127658333D01*
X117799880Y-127610714D01*
X117609404Y-127610714D01*
X117514166Y-127658333D01*
X117942738Y-128229761D02*
X117847500Y-128277380D01*
X117609404Y-128277380D01*
X117514166Y-128229761D01*
X117466547Y-128134523D01*
X117466547Y-128039285D01*
X117514166Y-127944047D01*
X117609404Y-127896428D01*
X117847500Y-127896428D01*
X117942738Y-127848809D01*
X118418928Y-128277380D02*
X118418928Y-127610714D01*
X118418928Y-127801190D02*
X118466547Y-127705952D01*
X118514166Y-127658333D01*
X118609404Y-127610714D01*
X118704642Y-127610714D01*
X118895119Y-127610714D02*
X119276071Y-127610714D01*
X119037976Y-127277380D02*
X119037976Y-128134523D01*
X119085595Y-128229761D01*
X119180833Y-128277380D01*
X119276071Y-128277380D01*
X106371309Y-128927380D02*
X106371309Y-129641666D01*
X106323690Y-129784523D01*
X106228452Y-129879761D01*
X106085595Y-129927380D01*
X105990357Y-129927380D01*
X106990357Y-129927380D02*
X106895119Y-129879761D01*
X106847500Y-129832142D01*
X106799880Y-129736904D01*
X106799880Y-129451190D01*
X106847500Y-129355952D01*
X106895119Y-129308333D01*
X106990357Y-129260714D01*
X107133214Y-129260714D01*
X107228452Y-129308333D01*
X107276071Y-129355952D01*
X107323690Y-129451190D01*
X107323690Y-129736904D01*
X107276071Y-129832142D01*
X107228452Y-129879761D01*
X107133214Y-129927380D01*
X106990357Y-129927380D01*
X107704642Y-129879761D02*
X107799880Y-129927380D01*
X107990357Y-129927380D01*
X108085595Y-129879761D01*
X108133214Y-129784523D01*
X108133214Y-129736904D01*
X108085595Y-129641666D01*
X107990357Y-129594047D01*
X107847500Y-129594047D01*
X107752261Y-129546428D01*
X107704642Y-129451190D01*
X107704642Y-129403571D01*
X107752261Y-129308333D01*
X107847500Y-129260714D01*
X107990357Y-129260714D01*
X108085595Y-129308333D01*
X108561785Y-129927380D02*
X108561785Y-128927380D01*
X108990357Y-129927380D02*
X108990357Y-129403571D01*
X108942738Y-129308333D01*
X108847500Y-129260714D01*
X108704642Y-129260714D01*
X108609404Y-129308333D01*
X108561785Y-129355952D01*
X110561785Y-129403571D02*
X110704642Y-129451190D01*
X110752261Y-129498809D01*
X110799880Y-129594047D01*
X110799880Y-129736904D01*
X110752261Y-129832142D01*
X110704642Y-129879761D01*
X110609404Y-129927380D01*
X110228452Y-129927380D01*
X110228452Y-128927380D01*
X110561785Y-128927380D01*
X110657023Y-128975000D01*
X110704642Y-129022619D01*
X110752261Y-129117857D01*
X110752261Y-129213095D01*
X110704642Y-129308333D01*
X110657023Y-129355952D01*
X110561785Y-129403571D01*
X110228452Y-129403571D01*
X111609404Y-129879761D02*
X111514166Y-129927380D01*
X111323690Y-129927380D01*
X111228452Y-129879761D01*
X111180833Y-129784523D01*
X111180833Y-129403571D01*
X111228452Y-129308333D01*
X111323690Y-129260714D01*
X111514166Y-129260714D01*
X111609404Y-129308333D01*
X111657023Y-129403571D01*
X111657023Y-129498809D01*
X111180833Y-129594047D01*
X112085595Y-129260714D02*
X112085595Y-129927380D01*
X112085595Y-129355952D02*
X112133214Y-129308333D01*
X112228452Y-129260714D01*
X112371309Y-129260714D01*
X112466547Y-129308333D01*
X112514166Y-129403571D01*
X112514166Y-129927380D01*
X112847500Y-129260714D02*
X113228452Y-129260714D01*
X112990357Y-129927380D02*
X112990357Y-129070238D01*
X113037976Y-128975000D01*
X113133214Y-128927380D01*
X113228452Y-128927380D01*
X113942738Y-129879761D02*
X113847500Y-129927380D01*
X113657023Y-129927380D01*
X113561785Y-129879761D01*
X113514166Y-129784523D01*
X113514166Y-129403571D01*
X113561785Y-129308333D01*
X113657023Y-129260714D01*
X113847500Y-129260714D01*
X113942738Y-129308333D01*
X113990357Y-129403571D01*
X113990357Y-129498809D01*
X113514166Y-129594047D01*
X114561785Y-129927380D02*
X114466547Y-129879761D01*
X114418928Y-129784523D01*
X114418928Y-128927380D01*
X115085595Y-129927380D02*
X114990357Y-129879761D01*
X114942738Y-129784523D01*
X114942738Y-128927380D01*
X106037976Y-131529761D02*
X106180833Y-131577380D01*
X106418928Y-131577380D01*
X106514166Y-131529761D01*
X106561785Y-131482142D01*
X106609404Y-131386904D01*
X106609404Y-131291666D01*
X106561785Y-131196428D01*
X106514166Y-131148809D01*
X106418928Y-131101190D01*
X106228452Y-131053571D01*
X106133214Y-131005952D01*
X106085595Y-130958333D01*
X106037976Y-130863095D01*
X106037976Y-130767857D01*
X106085595Y-130672619D01*
X106133214Y-130625000D01*
X106228452Y-130577380D01*
X106466547Y-130577380D01*
X106609404Y-130625000D01*
X107466547Y-131577380D02*
X107466547Y-131053571D01*
X107418928Y-130958333D01*
X107323690Y-130910714D01*
X107133214Y-130910714D01*
X107037976Y-130958333D01*
X107466547Y-131529761D02*
X107371309Y-131577380D01*
X107133214Y-131577380D01*
X107037976Y-131529761D01*
X106990357Y-131434523D01*
X106990357Y-131339285D01*
X107037976Y-131244047D01*
X107133214Y-131196428D01*
X107371309Y-131196428D01*
X107466547Y-131148809D01*
X108371309Y-130910714D02*
X108371309Y-131577380D01*
X107942738Y-130910714D02*
X107942738Y-131434523D01*
X107990357Y-131529761D01*
X108085595Y-131577380D01*
X108228452Y-131577380D01*
X108323690Y-131529761D01*
X108371309Y-131482142D01*
X108990357Y-131577380D02*
X108895119Y-131529761D01*
X108847500Y-131434523D01*
X108847500Y-130577380D01*
X110704642Y-131577380D02*
X110371309Y-131101190D01*
X110133214Y-131577380D02*
X110133214Y-130577380D01*
X110514166Y-130577380D01*
X110609404Y-130625000D01*
X110657023Y-130672619D01*
X110704642Y-130767857D01*
X110704642Y-130910714D01*
X110657023Y-131005952D01*
X110609404Y-131053571D01*
X110514166Y-131101190D01*
X110133214Y-131101190D01*
X111561785Y-131577380D02*
X111561785Y-131053571D01*
X111514166Y-130958333D01*
X111418928Y-130910714D01*
X111228452Y-130910714D01*
X111133214Y-130958333D01*
X111561785Y-131529761D02*
X111466547Y-131577380D01*
X111228452Y-131577380D01*
X111133214Y-131529761D01*
X111085595Y-131434523D01*
X111085595Y-131339285D01*
X111133214Y-131244047D01*
X111228452Y-131196428D01*
X111466547Y-131196428D01*
X111561785Y-131148809D01*
X112037976Y-131577380D02*
X112037976Y-130910714D01*
X112037976Y-131005952D02*
X112085595Y-130958333D01*
X112180833Y-130910714D01*
X112323690Y-130910714D01*
X112418928Y-130958333D01*
X112466547Y-131053571D01*
X112466547Y-131577380D01*
X112466547Y-131053571D02*
X112514166Y-130958333D01*
X112609404Y-130910714D01*
X112752261Y-130910714D01*
X112847500Y-130958333D01*
X112895119Y-131053571D01*
X112895119Y-131577380D01*
X113323690Y-131529761D02*
X113418928Y-131577380D01*
X113609404Y-131577380D01*
X113704642Y-131529761D01*
X113752261Y-131434523D01*
X113752261Y-131386904D01*
X113704642Y-131291666D01*
X113609404Y-131244047D01*
X113466547Y-131244047D01*
X113371309Y-131196428D01*
X113323690Y-131101190D01*
X113323690Y-131053571D01*
X113371309Y-130958333D01*
X113466547Y-130910714D01*
X113609404Y-130910714D01*
X113704642Y-130958333D01*
X114609404Y-131577380D02*
X114609404Y-131053571D01*
X114561785Y-130958333D01*
X114466547Y-130910714D01*
X114276071Y-130910714D01*
X114180833Y-130958333D01*
X114609404Y-131529761D02*
X114514166Y-131577380D01*
X114276071Y-131577380D01*
X114180833Y-131529761D01*
X114133214Y-131434523D01*
X114133214Y-131339285D01*
X114180833Y-131244047D01*
X114276071Y-131196428D01*
X114514166Y-131196428D01*
X114609404Y-131148809D01*
X114990357Y-130910714D02*
X115228452Y-131577380D01*
X115466547Y-130910714D02*
X115228452Y-131577380D01*
X115133214Y-131815476D01*
X115085595Y-131863095D01*
X114990357Y-131910714D01*
D11*
X97800000Y-78200000D02*
G75*
G02*
X96800000Y-78200000I-500000J250000D01*
G01*
X95800000Y-78200000D02*
G75*
G02*
X96800000Y-78200000I500000J-250000D01*
G01*
X104200000Y-68900000D02*
X104200000Y-68400000D01*
X103950000Y-69900000D02*
X104450000Y-69900000D01*
X103450000Y-69400000D02*
X104950000Y-69400000D01*
X102950000Y-68900000D02*
X105450000Y-68900000D01*
X107510000Y-114170000D02*
X107510000Y-115670000D01*
X107510000Y-115670000D02*
X107010000Y-115670000D01*
X107010000Y-115670000D02*
X107010000Y-114170000D01*
X107010000Y-114170000D02*
X106010000Y-114170000D01*
X106010000Y-114170000D02*
X106010000Y-115670000D01*
X106010000Y-115670000D02*
X105760000Y-115670000D01*
X105760000Y-115670000D02*
X105760000Y-114170000D01*
X105760000Y-114170000D02*
X104760000Y-114170000D01*
X105460000Y-106750000D02*
X106460000Y-105750000D01*
X104460000Y-105750000D02*
X105460000Y-106750000D01*
X103460000Y-104750000D02*
X102460000Y-105750000D01*
X104460000Y-105750000D02*
X103460000Y-104750000D01*
X112230000Y-68960000D02*
X112230000Y-68460000D01*
X111980000Y-69960000D02*
X112480000Y-69960000D01*
X111480000Y-69460000D02*
X112980000Y-69460000D01*
X110980000Y-68960000D02*
X113480000Y-68960000D01*
X104730000Y-110490000D02*
X104730000Y-108990000D01*
X104730000Y-108990000D02*
X105230000Y-108990000D01*
X105230000Y-108990000D02*
X105230000Y-110490000D01*
X105230000Y-110490000D02*
X106230000Y-110490000D01*
X106230000Y-110490000D02*
X106230000Y-108990000D01*
X106230000Y-108990000D02*
X106480000Y-108990000D01*
X106480000Y-108990000D02*
X106480000Y-110490000D01*
X106480000Y-110490000D02*
X107480000Y-110490000D01*
X99920000Y-78220000D02*
G75*
G03*
X99920000Y-78220000I-950000J0D01*
G01*
X122270000Y-75650000D02*
G75*
G03*
X122270000Y-75650000I-950000J0D01*
G01*
X114790000Y-57690000D02*
X104630000Y-57690000D01*
X114790000Y-65310000D02*
X114790000Y-57690000D01*
X104630000Y-65310000D02*
X114790000Y-65310000D01*
X104630000Y-57690000D02*
X104630000Y-65310000D01*
X104630000Y-58960000D02*
X114790000Y-58960000D01*
X143085000Y-76065000D02*
X141985000Y-76065000D01*
X143085000Y-76335000D02*
X143085000Y-76065000D01*
X144585000Y-76335000D02*
X143085000Y-76335000D01*
X143085000Y-69705000D02*
X140255000Y-69705000D01*
X143085000Y-69435000D02*
X143085000Y-69705000D01*
X144585000Y-69435000D02*
X143085000Y-69435000D01*
X139600000Y-74888767D02*
X139600000Y-74596233D01*
X138580000Y-74888767D02*
X138580000Y-74596233D01*
X142103733Y-69030000D02*
X142396267Y-69030000D01*
X142103733Y-68010000D02*
X142396267Y-68010000D01*
X135090000Y-110420000D02*
X135090000Y-120660000D01*
X150980000Y-110420000D02*
X150980000Y-120660000D01*
X150980000Y-110420000D02*
X135090000Y-110420000D01*
X150980000Y-120660000D02*
X135090000Y-120660000D01*
X135090000Y-113000000D02*
X132550000Y-113000000D01*
X135090000Y-115540000D02*
X132550000Y-115540000D01*
X135090000Y-118080000D02*
X132550000Y-118080000D01*
X135090000Y-99620000D02*
X135090000Y-109860000D01*
X150980000Y-99620000D02*
X150980000Y-109860000D01*
X150980000Y-99620000D02*
X135090000Y-99620000D01*
X150980000Y-109860000D02*
X135090000Y-109860000D01*
X135090000Y-102200000D02*
X132550000Y-102200000D01*
X135090000Y-104740000D02*
X132550000Y-104740000D01*
X135090000Y-107280000D02*
X132550000Y-107280000D01*
X135090000Y-87520000D02*
X135090000Y-97760000D01*
X150980000Y-87520000D02*
X150980000Y-97760000D01*
X150980000Y-87520000D02*
X135090000Y-87520000D01*
X150980000Y-97760000D02*
X135090000Y-97760000D01*
X135090000Y-90100000D02*
X132550000Y-90100000D01*
X135090000Y-92640000D02*
X132550000Y-92640000D01*
X135090000Y-95180000D02*
X132550000Y-95180000D01*
X135090000Y-76820000D02*
X135090000Y-87060000D01*
X150980000Y-76820000D02*
X150980000Y-87060000D01*
X150980000Y-76820000D02*
X135090000Y-76820000D01*
X150980000Y-87060000D02*
X135090000Y-87060000D01*
X135090000Y-79400000D02*
X132550000Y-79400000D01*
X135090000Y-81940000D02*
X132550000Y-81940000D01*
X135090000Y-84480000D02*
X132550000Y-84480000D01*
X103431421Y-92780000D02*
G75*
G03*
X103431421Y-92780000I-141421J0D01*
G01*
X103340000Y-92780000D02*
G75*
G03*
X103340000Y-92780000I-50000J0D01*
G01*
X97861100Y-93809100D02*
X97861100Y-98050900D01*
X103118900Y-98050900D02*
X103118900Y-93809100D01*
D13*
X102991900Y-96262317D02*
G75*
G02*
X102991900Y-95597683I0J332317D01*
G01*
D11*
X111504300Y-81669462D02*
X111504300Y-81450301D01*
X106754500Y-86590540D02*
X106754500Y-86809701D01*
X106754500Y-81450301D02*
X106754500Y-81669460D01*
X111504300Y-81450301D02*
X106754500Y-81450301D01*
X111504300Y-86809701D02*
X111504300Y-86590542D01*
X106754500Y-86809701D02*
X111504300Y-86809701D01*
X105779400Y-81480001D02*
G75*
G03*
X105779400Y-81480001I-50000J0D01*
G01*
X105870821Y-81480001D02*
G75*
G03*
X105870821Y-81480001I-141421J0D01*
G01*
D13*
X109504050Y-81577301D02*
G75*
G02*
X108754750Y-81577301I-374650J0D01*
G01*
D11*
X170000000Y-114750000D02*
X170000000Y-83250000D01*
X185000000Y-114750000D02*
X170000000Y-114750000D01*
X185000000Y-83250000D02*
X185000000Y-114750000D01*
X170000000Y-83250000D02*
X185000000Y-83250000D01*
X119492224Y-81197500D02*
X118982776Y-81197500D01*
X119492224Y-80152500D02*
X118982776Y-80152500D01*
X109477500Y-89654724D02*
X109477500Y-89145276D01*
X110522500Y-89654724D02*
X110522500Y-89145276D01*
X112742224Y-90847500D02*
X112232776Y-90847500D01*
X112742224Y-89802500D02*
X112232776Y-89802500D01*
X111075000Y-88600000D02*
X111075000Y-88000000D01*
X113175000Y-89300000D02*
X111775000Y-89300000D01*
X113875000Y-88000000D02*
X113875000Y-88600000D01*
X111775000Y-87300000D02*
X113175000Y-87300000D01*
X111075000Y-88000000D02*
G75*
G02*
X111775000Y-87300000I700000J0D01*
G01*
X111775000Y-89300000D02*
G75*
G02*
X111075000Y-88600000I0J700000D01*
G01*
X113875000Y-88600000D02*
G75*
G02*
X113175000Y-89300000I-700000J0D01*
G01*
X113175000Y-87300000D02*
G75*
G02*
X113875000Y-88000000I0J-700000D01*
G01*
X103695276Y-77852500D02*
X104204724Y-77852500D01*
X103695276Y-78897500D02*
X104204724Y-78897500D01*
X106922500Y-79045276D02*
X106922500Y-79554724D01*
X105877500Y-79045276D02*
X105877500Y-79554724D01*
X105350000Y-80150000D02*
X105350000Y-80750000D01*
X103250000Y-79450000D02*
X104650000Y-79450000D01*
X102550000Y-80750000D02*
X102550000Y-80150000D01*
X104650000Y-81450000D02*
X103250000Y-81450000D01*
X105350000Y-80750000D02*
G75*
G02*
X104650000Y-81450000I-700000J0D01*
G01*
X104650000Y-79450000D02*
G75*
G02*
X105350000Y-80150000I0J-700000D01*
G01*
X102550000Y-80150000D02*
G75*
G02*
X103250000Y-79450000I700000J0D01*
G01*
X103250000Y-81450000D02*
G75*
G02*
X102550000Y-80750000I0J700000D01*
G01*
X100696267Y-83940000D02*
X100403733Y-83940000D01*
X100696267Y-82920000D02*
X100403733Y-82920000D01*
X104550000Y-99153733D02*
X104550000Y-99446267D01*
X103530000Y-99153733D02*
X103530000Y-99446267D01*
X109096267Y-93535000D02*
X108803733Y-93535000D01*
X109096267Y-92515000D02*
X108803733Y-92515000D01*
X100686267Y-80860000D02*
X100393733Y-80860000D01*
X100686267Y-79840000D02*
X100393733Y-79840000D01*
X100496267Y-100935000D02*
X100203733Y-100935000D01*
X100496267Y-99915000D02*
X100203733Y-99915000D01*
X110625000Y-78325000D02*
G75*
G03*
X110625000Y-78325000I-950000J0D01*
G01*
X113350000Y-93500000D02*
G75*
G03*
X113350000Y-93500000I-950000J0D01*
G01*
X124350000Y-102675000D02*
G75*
G03*
X124350000Y-102675000I-950000J0D01*
G01*
X191950000Y-106000000D02*
G75*
G03*
X191950000Y-106000000I-950000J0D01*
G01*
X191950000Y-91750000D02*
G75*
G03*
X191950000Y-91750000I-950000J0D01*
G01*
X124275000Y-90850000D02*
G75*
G03*
X124275000Y-90850000I-950000J0D01*
G01*
X105800000Y-104450000D02*
G75*
G03*
X105800000Y-104450000I-950000J0D01*
G01*
X109200000Y-109650000D02*
G75*
G03*
X109200000Y-109650000I-950000J0D01*
G01*
X109700000Y-114950000D02*
G75*
G03*
X109700000Y-114950000I-950000J0D01*
G01*
X113160000Y-67400000D02*
G75*
G03*
X113160000Y-67400000I-950000J0D01*
G01*
X115460000Y-100575000D02*
X115460000Y-98625000D01*
X115460000Y-100575000D02*
X115460000Y-102525000D01*
X106590000Y-100575000D02*
X106590000Y-98625000D01*
X106590000Y-100575000D02*
X106590000Y-104025000D01*
X113682776Y-104552500D02*
X114192224Y-104552500D01*
X113682776Y-105597500D02*
X114192224Y-105597500D01*
X108570276Y-95552500D02*
X109079724Y-95552500D01*
X108570276Y-96597500D02*
X109079724Y-96597500D01*
X100082776Y-101427500D02*
X100592224Y-101427500D01*
X100082776Y-102472500D02*
X100592224Y-102472500D01*
X100082776Y-102952500D02*
X100592224Y-102952500D01*
X100082776Y-103997500D02*
X100592224Y-103997500D01*
X101529724Y-91897500D02*
X101020276Y-91897500D01*
X101529724Y-90852500D02*
X101020276Y-90852500D01*
X103527500Y-96167224D02*
X103527500Y-95657776D01*
X104572500Y-96167224D02*
X104572500Y-95657776D01*
X128560000Y-113872936D02*
X128560000Y-118227064D01*
X125140000Y-113872936D02*
X125140000Y-118227064D01*
X118970276Y-103702500D02*
X119479724Y-103702500D01*
X118970276Y-104747500D02*
X119479724Y-104747500D01*
X128560000Y-103597936D02*
X128560000Y-107952064D01*
X125140000Y-103597936D02*
X125140000Y-107952064D01*
X128560000Y-91072936D02*
X128560000Y-95427064D01*
X125140000Y-91072936D02*
X125140000Y-95427064D01*
X118970276Y-91852500D02*
X119479724Y-91852500D01*
X118970276Y-92897500D02*
X119479724Y-92897500D01*
X125140000Y-80322936D02*
X125140000Y-84677064D01*
X128560000Y-80322936D02*
X128560000Y-84677064D01*
X100302776Y-81367500D02*
X100812224Y-81367500D01*
X100302776Y-82412500D02*
X100812224Y-82412500D01*
X118847500Y-85607776D02*
X118847500Y-86117224D01*
X117802500Y-85607776D02*
X117802500Y-86117224D01*
X116104724Y-87297500D02*
X115595276Y-87297500D01*
X116104724Y-86252500D02*
X115595276Y-86252500D01*
X102342224Y-86997500D02*
X101832776Y-86997500D01*
X102342224Y-85952500D02*
X101832776Y-85952500D01*
X116129724Y-82722500D02*
X115620276Y-82722500D01*
X116129724Y-81677500D02*
X115620276Y-81677500D01*
X101622500Y-88645276D02*
X101622500Y-89154724D01*
X100577500Y-88645276D02*
X100577500Y-89154724D01*
X99052500Y-89154724D02*
X99052500Y-88645276D01*
X100097500Y-89154724D02*
X100097500Y-88645276D01*
X118012500Y-77965276D02*
X118012500Y-78474724D01*
X116967500Y-77965276D02*
X116967500Y-78474724D01*
X112877500Y-78467224D02*
X112877500Y-77957776D01*
X113922500Y-78467224D02*
X113922500Y-77957776D01*
X101832776Y-84427500D02*
X102342224Y-84427500D01*
X101832776Y-85472500D02*
X102342224Y-85472500D01*
D14*
X168455000Y-132256000D02*
X151945000Y-132256000D01*
X151945000Y-99744000D02*
X168455000Y-99744000D01*
X168455000Y-99744000D02*
X168455000Y-114476000D01*
X168455000Y-117524000D02*
X168455000Y-132256000D01*
X151945000Y-117524000D02*
X151945000Y-132256000D01*
X151945000Y-99744000D02*
X151945000Y-114476000D01*
X151945000Y-65244000D02*
X168455000Y-65244000D01*
X168455000Y-97756000D02*
X151945000Y-97756000D01*
X151945000Y-97756000D02*
X151945000Y-83024000D01*
X151945000Y-79976000D02*
X151945000Y-65244000D01*
X168455000Y-79976000D02*
X168455000Y-65244000D01*
X168455000Y-97756000D02*
X168455000Y-83024000D01*
D11*
X103425000Y-90300000D02*
X102825000Y-90300000D01*
X104125000Y-88200000D02*
X104125000Y-89600000D01*
X102825000Y-87500000D02*
X103425000Y-87500000D01*
X102125000Y-89600000D02*
X102125000Y-88200000D01*
X102825000Y-90300000D02*
G75*
G02*
X102125000Y-89600000I0J700000D01*
G01*
X104125000Y-89600000D02*
G75*
G02*
X103425000Y-90300000I-700000J0D01*
G01*
X103425000Y-87500000D02*
G75*
G02*
X104125000Y-88200000I0J-700000D01*
G01*
X102125000Y-88200000D02*
G75*
G02*
X102825000Y-87500000I700000J0D01*
G01*
X115150000Y-76825000D02*
X115750000Y-76825000D01*
X114450000Y-78925000D02*
X114450000Y-77525000D01*
X115750000Y-79625000D02*
X115150000Y-79625000D01*
X116450000Y-77525000D02*
X116450000Y-78925000D01*
X115750000Y-76825000D02*
G75*
G02*
X116450000Y-77525000I0J-700000D01*
G01*
X114450000Y-77525000D02*
G75*
G02*
X115150000Y-76825000I700000J0D01*
G01*
X115150000Y-79625000D02*
G75*
G02*
X114450000Y-78925000I0J700000D01*
G01*
X116450000Y-78925000D02*
G75*
G02*
X115750000Y-79625000I-700000J0D01*
G01*
X96435000Y-76640000D02*
X96435000Y-66480000D01*
X95165000Y-76640000D02*
X102785000Y-76640000D01*
X102785000Y-76640000D02*
X102785000Y-66480000D01*
X102785000Y-66480000D02*
X95165000Y-66480000D01*
X95165000Y-66480000D02*
X95165000Y-76640000D01*
X193540000Y-93630000D02*
X193540000Y-103790000D01*
X194810000Y-93630000D02*
X187190000Y-93630000D01*
X187190000Y-93630000D02*
X187190000Y-103790000D01*
X187190000Y-103790000D02*
X194810000Y-103790000D01*
X194810000Y-103790000D02*
X194810000Y-93630000D01*
X95215000Y-107330000D02*
X102835000Y-107330000D01*
X95215000Y-122570000D02*
X102835000Y-122570000D01*
X96485000Y-107330000D02*
X96485000Y-122570000D01*
X102835000Y-107330000D02*
X102835000Y-122570000D01*
X95215000Y-107330000D02*
X95215000Y-122570000D01*
X141130000Y-58960000D02*
X151290000Y-58960000D01*
X141130000Y-57690000D02*
X141130000Y-65310000D01*
X141130000Y-65310000D02*
X151290000Y-65310000D01*
X151290000Y-65310000D02*
X151290000Y-57690000D01*
X151290000Y-57690000D02*
X141130000Y-57690000D01*
D15*
X121700000Y-108500000D02*
G75*
G03*
X121700000Y-108500000I-125000J0D01*
G01*
X121700000Y-96650000D02*
G75*
G03*
X121700000Y-96650000I-125000J0D01*
G01*
D11*
X177820000Y-121250000D02*
G75*
G03*
X177820000Y-121250000I-4120000J0D01*
G01*
X177780000Y-121250000D02*
X169620000Y-121250000D01*
X177780000Y-121290000D02*
X169620000Y-121290000D01*
X177780000Y-121330000D02*
X169620000Y-121330000D01*
X177779000Y-121370000D02*
X169621000Y-121370000D01*
X177777000Y-121410000D02*
X169623000Y-121410000D01*
X177776000Y-121450000D02*
X169624000Y-121450000D01*
X177774000Y-121490000D02*
X169626000Y-121490000D01*
X177771000Y-121530000D02*
X169629000Y-121530000D01*
X177768000Y-121570000D02*
X169632000Y-121570000D01*
X177765000Y-121610000D02*
X169635000Y-121610000D01*
X177761000Y-121650000D02*
X169639000Y-121650000D01*
X177757000Y-121690000D02*
X169643000Y-121690000D01*
X177752000Y-121730000D02*
X169648000Y-121730000D01*
X177748000Y-121770000D02*
X169652000Y-121770000D01*
X177742000Y-121810000D02*
X169658000Y-121810000D01*
X177737000Y-121850000D02*
X169663000Y-121850000D01*
X177730000Y-121890000D02*
X169670000Y-121890000D01*
X177724000Y-121930000D02*
X169676000Y-121930000D01*
X177717000Y-121971000D02*
X174740000Y-121971000D01*
X172660000Y-121971000D02*
X169683000Y-121971000D01*
X177710000Y-122011000D02*
X174740000Y-122011000D01*
X172660000Y-122011000D02*
X169690000Y-122011000D01*
X177702000Y-122051000D02*
X174740000Y-122051000D01*
X172660000Y-122051000D02*
X169698000Y-122051000D01*
X177694000Y-122091000D02*
X174740000Y-122091000D01*
X172660000Y-122091000D02*
X169706000Y-122091000D01*
X177685000Y-122131000D02*
X174740000Y-122131000D01*
X172660000Y-122131000D02*
X169715000Y-122131000D01*
X177676000Y-122171000D02*
X174740000Y-122171000D01*
X172660000Y-122171000D02*
X169724000Y-122171000D01*
X177667000Y-122211000D02*
X174740000Y-122211000D01*
X172660000Y-122211000D02*
X169733000Y-122211000D01*
X177657000Y-122251000D02*
X174740000Y-122251000D01*
X172660000Y-122251000D02*
X169743000Y-122251000D01*
X177647000Y-122291000D02*
X174740000Y-122291000D01*
X172660000Y-122291000D02*
X169753000Y-122291000D01*
X177636000Y-122331000D02*
X174740000Y-122331000D01*
X172660000Y-122331000D02*
X169764000Y-122331000D01*
X177625000Y-122371000D02*
X174740000Y-122371000D01*
X172660000Y-122371000D02*
X169775000Y-122371000D01*
X177614000Y-122411000D02*
X174740000Y-122411000D01*
X172660000Y-122411000D02*
X169786000Y-122411000D01*
X177602000Y-122451000D02*
X174740000Y-122451000D01*
X172660000Y-122451000D02*
X169798000Y-122451000D01*
X177589000Y-122491000D02*
X174740000Y-122491000D01*
X172660000Y-122491000D02*
X169811000Y-122491000D01*
X177577000Y-122531000D02*
X174740000Y-122531000D01*
X172660000Y-122531000D02*
X169823000Y-122531000D01*
X177563000Y-122571000D02*
X174740000Y-122571000D01*
X172660000Y-122571000D02*
X169837000Y-122571000D01*
X177550000Y-122611000D02*
X174740000Y-122611000D01*
X172660000Y-122611000D02*
X169850000Y-122611000D01*
X177535000Y-122651000D02*
X174740000Y-122651000D01*
X172660000Y-122651000D02*
X169865000Y-122651000D01*
X177521000Y-122691000D02*
X174740000Y-122691000D01*
X172660000Y-122691000D02*
X169879000Y-122691000D01*
X177505000Y-122731000D02*
X174740000Y-122731000D01*
X172660000Y-122731000D02*
X169895000Y-122731000D01*
X177490000Y-122771000D02*
X174740000Y-122771000D01*
X172660000Y-122771000D02*
X169910000Y-122771000D01*
X177474000Y-122811000D02*
X174740000Y-122811000D01*
X172660000Y-122811000D02*
X169926000Y-122811000D01*
X177457000Y-122851000D02*
X174740000Y-122851000D01*
X172660000Y-122851000D02*
X169943000Y-122851000D01*
X177440000Y-122891000D02*
X174740000Y-122891000D01*
X172660000Y-122891000D02*
X169960000Y-122891000D01*
X177422000Y-122931000D02*
X174740000Y-122931000D01*
X172660000Y-122931000D02*
X169978000Y-122931000D01*
X177404000Y-122971000D02*
X174740000Y-122971000D01*
X172660000Y-122971000D02*
X169996000Y-122971000D01*
X177386000Y-123011000D02*
X174740000Y-123011000D01*
X172660000Y-123011000D02*
X170014000Y-123011000D01*
X177366000Y-123051000D02*
X174740000Y-123051000D01*
X172660000Y-123051000D02*
X170034000Y-123051000D01*
X177347000Y-123091000D02*
X174740000Y-123091000D01*
X172660000Y-123091000D02*
X170053000Y-123091000D01*
X177327000Y-123131000D02*
X174740000Y-123131000D01*
X172660000Y-123131000D02*
X170073000Y-123131000D01*
X177306000Y-123171000D02*
X174740000Y-123171000D01*
X172660000Y-123171000D02*
X170094000Y-123171000D01*
X177284000Y-123211000D02*
X174740000Y-123211000D01*
X172660000Y-123211000D02*
X170116000Y-123211000D01*
X177262000Y-123251000D02*
X174740000Y-123251000D01*
X172660000Y-123251000D02*
X170138000Y-123251000D01*
X177240000Y-123291000D02*
X174740000Y-123291000D01*
X172660000Y-123291000D02*
X170160000Y-123291000D01*
X177217000Y-123331000D02*
X174740000Y-123331000D01*
X172660000Y-123331000D02*
X170183000Y-123331000D01*
X177193000Y-123371000D02*
X174740000Y-123371000D01*
X172660000Y-123371000D02*
X170207000Y-123371000D01*
X177169000Y-123411000D02*
X174740000Y-123411000D01*
X172660000Y-123411000D02*
X170231000Y-123411000D01*
X177144000Y-123451000D02*
X174740000Y-123451000D01*
X172660000Y-123451000D02*
X170256000Y-123451000D01*
X177118000Y-123491000D02*
X174740000Y-123491000D01*
X172660000Y-123491000D02*
X170282000Y-123491000D01*
X177092000Y-123531000D02*
X174740000Y-123531000D01*
X172660000Y-123531000D02*
X170308000Y-123531000D01*
X177065000Y-123571000D02*
X174740000Y-123571000D01*
X172660000Y-123571000D02*
X170335000Y-123571000D01*
X177038000Y-123611000D02*
X174740000Y-123611000D01*
X172660000Y-123611000D02*
X170362000Y-123611000D01*
X177009000Y-123651000D02*
X174740000Y-123651000D01*
X172660000Y-123651000D02*
X170391000Y-123651000D01*
X176980000Y-123691000D02*
X174740000Y-123691000D01*
X172660000Y-123691000D02*
X170420000Y-123691000D01*
X176950000Y-123731000D02*
X174740000Y-123731000D01*
X172660000Y-123731000D02*
X170450000Y-123731000D01*
X176920000Y-123771000D02*
X174740000Y-123771000D01*
X172660000Y-123771000D02*
X170480000Y-123771000D01*
X176889000Y-123811000D02*
X174740000Y-123811000D01*
X172660000Y-123811000D02*
X170511000Y-123811000D01*
X176856000Y-123851000D02*
X174740000Y-123851000D01*
X172660000Y-123851000D02*
X170544000Y-123851000D01*
X176824000Y-123891000D02*
X174740000Y-123891000D01*
X172660000Y-123891000D02*
X170576000Y-123891000D01*
X176790000Y-123931000D02*
X174740000Y-123931000D01*
X172660000Y-123931000D02*
X170610000Y-123931000D01*
X176755000Y-123971000D02*
X174740000Y-123971000D01*
X172660000Y-123971000D02*
X170645000Y-123971000D01*
X176719000Y-124011000D02*
X174740000Y-124011000D01*
X172660000Y-124011000D02*
X170681000Y-124011000D01*
X176683000Y-124051000D02*
X170717000Y-124051000D01*
X176645000Y-124091000D02*
X170755000Y-124091000D01*
X176607000Y-124131000D02*
X170793000Y-124131000D01*
X176567000Y-124171000D02*
X170833000Y-124171000D01*
X176526000Y-124211000D02*
X170874000Y-124211000D01*
X176484000Y-124251000D02*
X170916000Y-124251000D01*
X176441000Y-124291000D02*
X170959000Y-124291000D01*
X176397000Y-124331000D02*
X171003000Y-124331000D01*
X176351000Y-124371000D02*
X171049000Y-124371000D01*
X176304000Y-124411000D02*
X171096000Y-124411000D01*
X176256000Y-124451000D02*
X171144000Y-124451000D01*
X176205000Y-124491000D02*
X171195000Y-124491000D01*
X176154000Y-124531000D02*
X171246000Y-124531000D01*
X176100000Y-124571000D02*
X171300000Y-124571000D01*
X176045000Y-124611000D02*
X171355000Y-124611000D01*
X175987000Y-124651000D02*
X171413000Y-124651000D01*
X175928000Y-124691000D02*
X171472000Y-124691000D01*
X175866000Y-124731000D02*
X171534000Y-124731000D01*
X175802000Y-124771000D02*
X171598000Y-124771000D01*
X175734000Y-124811000D02*
X171666000Y-124811000D01*
X175664000Y-124851000D02*
X171736000Y-124851000D01*
X175590000Y-124891000D02*
X171810000Y-124891000D01*
X175513000Y-124931000D02*
X171887000Y-124931000D01*
X175431000Y-124971000D02*
X171969000Y-124971000D01*
X175345000Y-125011000D02*
X172055000Y-125011000D01*
X175252000Y-125051000D02*
X172148000Y-125051000D01*
X175153000Y-125091000D02*
X172247000Y-125091000D01*
X175046000Y-125131000D02*
X172354000Y-125131000D01*
X174929000Y-125171000D02*
X172471000Y-125171000D01*
X174798000Y-125211000D02*
X172602000Y-125211000D01*
X174648000Y-125251000D02*
X172752000Y-125251000D01*
X174468000Y-125291000D02*
X172932000Y-125291000D01*
X174233000Y-125331000D02*
X173167000Y-125331000D01*
X176015000Y-116840302D02*
X176015000Y-117640302D01*
X176415000Y-117240302D02*
X175615000Y-117240302D01*
X177820000Y-76750000D02*
G75*
G03*
X177820000Y-76750000I-4120000J0D01*
G01*
X169620000Y-76750000D02*
X177780000Y-76750000D01*
X169620000Y-76710000D02*
X177780000Y-76710000D01*
X169620000Y-76670000D02*
X177780000Y-76670000D01*
X169621000Y-76630000D02*
X177779000Y-76630000D01*
X169623000Y-76590000D02*
X177777000Y-76590000D01*
X169624000Y-76550000D02*
X177776000Y-76550000D01*
X169626000Y-76510000D02*
X177774000Y-76510000D01*
X169629000Y-76470000D02*
X177771000Y-76470000D01*
X169632000Y-76430000D02*
X177768000Y-76430000D01*
X169635000Y-76390000D02*
X177765000Y-76390000D01*
X169639000Y-76350000D02*
X177761000Y-76350000D01*
X169643000Y-76310000D02*
X177757000Y-76310000D01*
X169648000Y-76270000D02*
X177752000Y-76270000D01*
X169652000Y-76230000D02*
X177748000Y-76230000D01*
X169658000Y-76190000D02*
X177742000Y-76190000D01*
X169663000Y-76150000D02*
X177737000Y-76150000D01*
X169670000Y-76110000D02*
X177730000Y-76110000D01*
X169676000Y-76070000D02*
X177724000Y-76070000D01*
X169683000Y-76029000D02*
X172660000Y-76029000D01*
X174740000Y-76029000D02*
X177717000Y-76029000D01*
X169690000Y-75989000D02*
X172660000Y-75989000D01*
X174740000Y-75989000D02*
X177710000Y-75989000D01*
X169698000Y-75949000D02*
X172660000Y-75949000D01*
X174740000Y-75949000D02*
X177702000Y-75949000D01*
X169706000Y-75909000D02*
X172660000Y-75909000D01*
X174740000Y-75909000D02*
X177694000Y-75909000D01*
X169715000Y-75869000D02*
X172660000Y-75869000D01*
X174740000Y-75869000D02*
X177685000Y-75869000D01*
X169724000Y-75829000D02*
X172660000Y-75829000D01*
X174740000Y-75829000D02*
X177676000Y-75829000D01*
X169733000Y-75789000D02*
X172660000Y-75789000D01*
X174740000Y-75789000D02*
X177667000Y-75789000D01*
X169743000Y-75749000D02*
X172660000Y-75749000D01*
X174740000Y-75749000D02*
X177657000Y-75749000D01*
X169753000Y-75709000D02*
X172660000Y-75709000D01*
X174740000Y-75709000D02*
X177647000Y-75709000D01*
X169764000Y-75669000D02*
X172660000Y-75669000D01*
X174740000Y-75669000D02*
X177636000Y-75669000D01*
X169775000Y-75629000D02*
X172660000Y-75629000D01*
X174740000Y-75629000D02*
X177625000Y-75629000D01*
X169786000Y-75589000D02*
X172660000Y-75589000D01*
X174740000Y-75589000D02*
X177614000Y-75589000D01*
X169798000Y-75549000D02*
X172660000Y-75549000D01*
X174740000Y-75549000D02*
X177602000Y-75549000D01*
X169811000Y-75509000D02*
X172660000Y-75509000D01*
X174740000Y-75509000D02*
X177589000Y-75509000D01*
X169823000Y-75469000D02*
X172660000Y-75469000D01*
X174740000Y-75469000D02*
X177577000Y-75469000D01*
X169837000Y-75429000D02*
X172660000Y-75429000D01*
X174740000Y-75429000D02*
X177563000Y-75429000D01*
X169850000Y-75389000D02*
X172660000Y-75389000D01*
X174740000Y-75389000D02*
X177550000Y-75389000D01*
X169865000Y-75349000D02*
X172660000Y-75349000D01*
X174740000Y-75349000D02*
X177535000Y-75349000D01*
X169879000Y-75309000D02*
X172660000Y-75309000D01*
X174740000Y-75309000D02*
X177521000Y-75309000D01*
X169895000Y-75269000D02*
X172660000Y-75269000D01*
X174740000Y-75269000D02*
X177505000Y-75269000D01*
X169910000Y-75229000D02*
X172660000Y-75229000D01*
X174740000Y-75229000D02*
X177490000Y-75229000D01*
X169926000Y-75189000D02*
X172660000Y-75189000D01*
X174740000Y-75189000D02*
X177474000Y-75189000D01*
X169943000Y-75149000D02*
X172660000Y-75149000D01*
X174740000Y-75149000D02*
X177457000Y-75149000D01*
X169960000Y-75109000D02*
X172660000Y-75109000D01*
X174740000Y-75109000D02*
X177440000Y-75109000D01*
X169978000Y-75069000D02*
X172660000Y-75069000D01*
X174740000Y-75069000D02*
X177422000Y-75069000D01*
X169996000Y-75029000D02*
X172660000Y-75029000D01*
X174740000Y-75029000D02*
X177404000Y-75029000D01*
X170014000Y-74989000D02*
X172660000Y-74989000D01*
X174740000Y-74989000D02*
X177386000Y-74989000D01*
X170034000Y-74949000D02*
X172660000Y-74949000D01*
X174740000Y-74949000D02*
X177366000Y-74949000D01*
X170053000Y-74909000D02*
X172660000Y-74909000D01*
X174740000Y-74909000D02*
X177347000Y-74909000D01*
X170073000Y-74869000D02*
X172660000Y-74869000D01*
X174740000Y-74869000D02*
X177327000Y-74869000D01*
X170094000Y-74829000D02*
X172660000Y-74829000D01*
X174740000Y-74829000D02*
X177306000Y-74829000D01*
X170116000Y-74789000D02*
X172660000Y-74789000D01*
X174740000Y-74789000D02*
X177284000Y-74789000D01*
X170138000Y-74749000D02*
X172660000Y-74749000D01*
X174740000Y-74749000D02*
X177262000Y-74749000D01*
X170160000Y-74709000D02*
X172660000Y-74709000D01*
X174740000Y-74709000D02*
X177240000Y-74709000D01*
X170183000Y-74669000D02*
X172660000Y-74669000D01*
X174740000Y-74669000D02*
X177217000Y-74669000D01*
X170207000Y-74629000D02*
X172660000Y-74629000D01*
X174740000Y-74629000D02*
X177193000Y-74629000D01*
X170231000Y-74589000D02*
X172660000Y-74589000D01*
X174740000Y-74589000D02*
X177169000Y-74589000D01*
X170256000Y-74549000D02*
X172660000Y-74549000D01*
X174740000Y-74549000D02*
X177144000Y-74549000D01*
X170282000Y-74509000D02*
X172660000Y-74509000D01*
X174740000Y-74509000D02*
X177118000Y-74509000D01*
X170308000Y-74469000D02*
X172660000Y-74469000D01*
X174740000Y-74469000D02*
X177092000Y-74469000D01*
X170335000Y-74429000D02*
X172660000Y-74429000D01*
X174740000Y-74429000D02*
X177065000Y-74429000D01*
X170362000Y-74389000D02*
X172660000Y-74389000D01*
X174740000Y-74389000D02*
X177038000Y-74389000D01*
X170391000Y-74349000D02*
X172660000Y-74349000D01*
X174740000Y-74349000D02*
X177009000Y-74349000D01*
X170420000Y-74309000D02*
X172660000Y-74309000D01*
X174740000Y-74309000D02*
X176980000Y-74309000D01*
X170450000Y-74269000D02*
X172660000Y-74269000D01*
X174740000Y-74269000D02*
X176950000Y-74269000D01*
X170480000Y-74229000D02*
X172660000Y-74229000D01*
X174740000Y-74229000D02*
X176920000Y-74229000D01*
X170511000Y-74189000D02*
X172660000Y-74189000D01*
X174740000Y-74189000D02*
X176889000Y-74189000D01*
X170544000Y-74149000D02*
X172660000Y-74149000D01*
X174740000Y-74149000D02*
X176856000Y-74149000D01*
X170576000Y-74109000D02*
X172660000Y-74109000D01*
X174740000Y-74109000D02*
X176824000Y-74109000D01*
X170610000Y-74069000D02*
X172660000Y-74069000D01*
X174740000Y-74069000D02*
X176790000Y-74069000D01*
X170645000Y-74029000D02*
X172660000Y-74029000D01*
X174740000Y-74029000D02*
X176755000Y-74029000D01*
X170681000Y-73989000D02*
X172660000Y-73989000D01*
X174740000Y-73989000D02*
X176719000Y-73989000D01*
X170717000Y-73949000D02*
X176683000Y-73949000D01*
X170755000Y-73909000D02*
X176645000Y-73909000D01*
X170793000Y-73869000D02*
X176607000Y-73869000D01*
X170833000Y-73829000D02*
X176567000Y-73829000D01*
X170874000Y-73789000D02*
X176526000Y-73789000D01*
X170916000Y-73749000D02*
X176484000Y-73749000D01*
X170959000Y-73709000D02*
X176441000Y-73709000D01*
X171003000Y-73669000D02*
X176397000Y-73669000D01*
X171049000Y-73629000D02*
X176351000Y-73629000D01*
X171096000Y-73589000D02*
X176304000Y-73589000D01*
X171144000Y-73549000D02*
X176256000Y-73549000D01*
X171195000Y-73509000D02*
X176205000Y-73509000D01*
X171246000Y-73469000D02*
X176154000Y-73469000D01*
X171300000Y-73429000D02*
X176100000Y-73429000D01*
X171355000Y-73389000D02*
X176045000Y-73389000D01*
X171413000Y-73349000D02*
X175987000Y-73349000D01*
X171472000Y-73309000D02*
X175928000Y-73309000D01*
X171534000Y-73269000D02*
X175866000Y-73269000D01*
X171598000Y-73229000D02*
X175802000Y-73229000D01*
X171666000Y-73189000D02*
X175734000Y-73189000D01*
X171736000Y-73149000D02*
X175664000Y-73149000D01*
X171810000Y-73109000D02*
X175590000Y-73109000D01*
X171887000Y-73069000D02*
X175513000Y-73069000D01*
X171969000Y-73029000D02*
X175431000Y-73029000D01*
X172055000Y-72989000D02*
X175345000Y-72989000D01*
X172148000Y-72949000D02*
X175252000Y-72949000D01*
X172247000Y-72909000D02*
X175153000Y-72909000D01*
X172354000Y-72869000D02*
X175046000Y-72869000D01*
X172471000Y-72829000D02*
X174929000Y-72829000D01*
X172602000Y-72789000D02*
X174798000Y-72789000D01*
X172752000Y-72749000D02*
X174648000Y-72749000D01*
X172932000Y-72709000D02*
X174468000Y-72709000D01*
X173167000Y-72669000D02*
X174233000Y-72669000D01*
X171385000Y-81159698D02*
X171385000Y-80359698D01*
X170985000Y-80759698D02*
X171785000Y-80759698D01*
X124010000Y-106288748D02*
X124010000Y-107711252D01*
X122190000Y-106288748D02*
X122190000Y-107711252D01*
X119790000Y-111911252D02*
X119790000Y-110488748D01*
X121610000Y-111911252D02*
X121610000Y-110488748D01*
X124010000Y-94226248D02*
X124010000Y-95648752D01*
X122190000Y-94226248D02*
X122190000Y-95648752D01*
X119790000Y-100111252D02*
X119790000Y-98688748D01*
X121610000Y-100111252D02*
X121610000Y-98688748D01*
X115728733Y-84715000D02*
X116021267Y-84715000D01*
X115728733Y-85735000D02*
X116021267Y-85735000D01*
X116008767Y-88810000D02*
X115716233Y-88810000D01*
X116008767Y-87790000D02*
X115716233Y-87790000D01*
X115728733Y-83215000D02*
X116021267Y-83215000D01*
X115728733Y-84235000D02*
X116021267Y-84235000D01*
X115716233Y-80165000D02*
X116008767Y-80165000D01*
X115716233Y-81185000D02*
X116008767Y-81185000D01*
X139870000Y-67250000D02*
G75*
G03*
X139870000Y-67250000I-9120000J0D01*
G01*
X130750000Y-76331000D02*
X130750000Y-58169000D01*
X130710000Y-76330000D02*
X130710000Y-58170000D01*
X130670000Y-76330000D02*
X130670000Y-58170000D01*
X130630000Y-76330000D02*
X130630000Y-58170000D01*
X130590000Y-76329000D02*
X130590000Y-58171000D01*
X130550000Y-76328000D02*
X130550000Y-58172000D01*
X130510000Y-76327000D02*
X130510000Y-58173000D01*
X130470000Y-76326000D02*
X130470000Y-58174000D01*
X130430000Y-76325000D02*
X130430000Y-58175000D01*
X130390000Y-76323000D02*
X130390000Y-58177000D01*
X130350000Y-76322000D02*
X130350000Y-58178000D01*
X130310000Y-76320000D02*
X130310000Y-58180000D01*
X130270000Y-76318000D02*
X130270000Y-58182000D01*
X130230000Y-76316000D02*
X130230000Y-58184000D01*
X130190000Y-76313000D02*
X130190000Y-58187000D01*
X130150000Y-76311000D02*
X130150000Y-58189000D01*
X130110000Y-76308000D02*
X130110000Y-58192000D01*
X130070000Y-76305000D02*
X130070000Y-58195000D01*
X130029000Y-76302000D02*
X130029000Y-58198000D01*
X129989000Y-76299000D02*
X129989000Y-58201000D01*
X129949000Y-76295000D02*
X129949000Y-58205000D01*
X129909000Y-76292000D02*
X129909000Y-58208000D01*
X129869000Y-76288000D02*
X129869000Y-58212000D01*
X129829000Y-76284000D02*
X129829000Y-58216000D01*
X129789000Y-76280000D02*
X129789000Y-58220000D01*
X129749000Y-76276000D02*
X129749000Y-58224000D01*
X129709000Y-76271000D02*
X129709000Y-58229000D01*
X129669000Y-76266000D02*
X129669000Y-58234000D01*
X129629000Y-76261000D02*
X129629000Y-58239000D01*
X129589000Y-76256000D02*
X129589000Y-58244000D01*
X129549000Y-76251000D02*
X129549000Y-58249000D01*
X129509000Y-76246000D02*
X129509000Y-58254000D01*
X129469000Y-76240000D02*
X129469000Y-58260000D01*
X129429000Y-76234000D02*
X129429000Y-58266000D01*
X129389000Y-76229000D02*
X129389000Y-58271000D01*
X129349000Y-76222000D02*
X129349000Y-58278000D01*
X129309000Y-76216000D02*
X129309000Y-58284000D01*
X129269000Y-76210000D02*
X129269000Y-58290000D01*
X129229000Y-76203000D02*
X129229000Y-58297000D01*
X129189000Y-76196000D02*
X129189000Y-58304000D01*
X129149000Y-76189000D02*
X129149000Y-58311000D01*
X129109000Y-76182000D02*
X129109000Y-58318000D01*
X129069000Y-76174000D02*
X129069000Y-58326000D01*
X129029000Y-76167000D02*
X129029000Y-58333000D01*
X128989000Y-76159000D02*
X128989000Y-58341000D01*
X128949000Y-76151000D02*
X128949000Y-58349000D01*
X128909000Y-76143000D02*
X128909000Y-58357000D01*
X128869000Y-76135000D02*
X128869000Y-58365000D01*
X128829000Y-76126000D02*
X128829000Y-58374000D01*
X128789000Y-76117000D02*
X128789000Y-58383000D01*
X128749000Y-76108000D02*
X128749000Y-58392000D01*
X128709000Y-76099000D02*
X128709000Y-58401000D01*
X128669000Y-76090000D02*
X128669000Y-58410000D01*
X128629000Y-76081000D02*
X128629000Y-58419000D01*
X128589000Y-76071000D02*
X128589000Y-58429000D01*
X128549000Y-76061000D02*
X128549000Y-58439000D01*
X128509000Y-76051000D02*
X128509000Y-58449000D01*
X128469000Y-76041000D02*
X128469000Y-58459000D01*
X128429000Y-76030000D02*
X128429000Y-68690000D01*
X128429000Y-65810000D02*
X128429000Y-58470000D01*
X128389000Y-76020000D02*
X128389000Y-68690000D01*
X128389000Y-65810000D02*
X128389000Y-58480000D01*
X128349000Y-76009000D02*
X128349000Y-68690000D01*
X128349000Y-65810000D02*
X128349000Y-58491000D01*
X128309000Y-75998000D02*
X128309000Y-68690000D01*
X128309000Y-65810000D02*
X128309000Y-58502000D01*
X128269000Y-75987000D02*
X128269000Y-68690000D01*
X128269000Y-65810000D02*
X128269000Y-58513000D01*
X128229000Y-75975000D02*
X128229000Y-68690000D01*
X128229000Y-65810000D02*
X128229000Y-58525000D01*
X128189000Y-75964000D02*
X128189000Y-68690000D01*
X128189000Y-65810000D02*
X128189000Y-58536000D01*
X128149000Y-75952000D02*
X128149000Y-68690000D01*
X128149000Y-65810000D02*
X128149000Y-58548000D01*
X128109000Y-75940000D02*
X128109000Y-68690000D01*
X128109000Y-65810000D02*
X128109000Y-58560000D01*
X128069000Y-75928000D02*
X128069000Y-68690000D01*
X128069000Y-65810000D02*
X128069000Y-58572000D01*
X128029000Y-75915000D02*
X128029000Y-68690000D01*
X128029000Y-65810000D02*
X128029000Y-58585000D01*
X127989000Y-75903000D02*
X127989000Y-68690000D01*
X127989000Y-65810000D02*
X127989000Y-58597000D01*
X127949000Y-75890000D02*
X127949000Y-68690000D01*
X127949000Y-65810000D02*
X127949000Y-58610000D01*
X127909000Y-75877000D02*
X127909000Y-68690000D01*
X127909000Y-65810000D02*
X127909000Y-58623000D01*
X127869000Y-75864000D02*
X127869000Y-68690000D01*
X127869000Y-65810000D02*
X127869000Y-58636000D01*
X127829000Y-75850000D02*
X127829000Y-68690000D01*
X127829000Y-65810000D02*
X127829000Y-58650000D01*
X127789000Y-75837000D02*
X127789000Y-68690000D01*
X127789000Y-65810000D02*
X127789000Y-58663000D01*
X127749000Y-75823000D02*
X127749000Y-68690000D01*
X127749000Y-65810000D02*
X127749000Y-58677000D01*
X127709000Y-75809000D02*
X127709000Y-68690000D01*
X127709000Y-65810000D02*
X127709000Y-58691000D01*
X127669000Y-75795000D02*
X127669000Y-68690000D01*
X127669000Y-65810000D02*
X127669000Y-58705000D01*
X127629000Y-75780000D02*
X127629000Y-68690000D01*
X127629000Y-65810000D02*
X127629000Y-58720000D01*
X127589000Y-75766000D02*
X127589000Y-68690000D01*
X127589000Y-65810000D02*
X127589000Y-58734000D01*
X127549000Y-75751000D02*
X127549000Y-68690000D01*
X127549000Y-65810000D02*
X127549000Y-58749000D01*
X127509000Y-75736000D02*
X127509000Y-68690000D01*
X127509000Y-65810000D02*
X127509000Y-58764000D01*
X127469000Y-75720000D02*
X127469000Y-68690000D01*
X127469000Y-65810000D02*
X127469000Y-58780000D01*
X127429000Y-75705000D02*
X127429000Y-68690000D01*
X127429000Y-65810000D02*
X127429000Y-58795000D01*
X127389000Y-75689000D02*
X127389000Y-68690000D01*
X127389000Y-65810000D02*
X127389000Y-58811000D01*
X127349000Y-75673000D02*
X127349000Y-68690000D01*
X127349000Y-65810000D02*
X127349000Y-58827000D01*
X127309000Y-75657000D02*
X127309000Y-68690000D01*
X127309000Y-65810000D02*
X127309000Y-58843000D01*
X127269000Y-75640000D02*
X127269000Y-68690000D01*
X127269000Y-65810000D02*
X127269000Y-58860000D01*
X127229000Y-75624000D02*
X127229000Y-68690000D01*
X127229000Y-65810000D02*
X127229000Y-58876000D01*
X127189000Y-75607000D02*
X127189000Y-68690000D01*
X127189000Y-65810000D02*
X127189000Y-58893000D01*
X127149000Y-75590000D02*
X127149000Y-68690000D01*
X127149000Y-65810000D02*
X127149000Y-58910000D01*
X127109000Y-75573000D02*
X127109000Y-68690000D01*
X127109000Y-65810000D02*
X127109000Y-58927000D01*
X127069000Y-75555000D02*
X127069000Y-68690000D01*
X127069000Y-65810000D02*
X127069000Y-58945000D01*
X127029000Y-75537000D02*
X127029000Y-68690000D01*
X127029000Y-65810000D02*
X127029000Y-58963000D01*
X126989000Y-75519000D02*
X126989000Y-68690000D01*
X126989000Y-65810000D02*
X126989000Y-58981000D01*
X126949000Y-75501000D02*
X126949000Y-68690000D01*
X126949000Y-65810000D02*
X126949000Y-58999000D01*
X126909000Y-75483000D02*
X126909000Y-68690000D01*
X126909000Y-65810000D02*
X126909000Y-59017000D01*
X126869000Y-75464000D02*
X126869000Y-68690000D01*
X126869000Y-65810000D02*
X126869000Y-59036000D01*
X126829000Y-75445000D02*
X126829000Y-68690000D01*
X126829000Y-65810000D02*
X126829000Y-59055000D01*
X126789000Y-75426000D02*
X126789000Y-68690000D01*
X126789000Y-65810000D02*
X126789000Y-59074000D01*
X126749000Y-75406000D02*
X126749000Y-68690000D01*
X126749000Y-65810000D02*
X126749000Y-59094000D01*
X126709000Y-75387000D02*
X126709000Y-68690000D01*
X126709000Y-65810000D02*
X126709000Y-59113000D01*
X126669000Y-75367000D02*
X126669000Y-68690000D01*
X126669000Y-65810000D02*
X126669000Y-59133000D01*
X126629000Y-75347000D02*
X126629000Y-68690000D01*
X126629000Y-65810000D02*
X126629000Y-59153000D01*
X126589000Y-75326000D02*
X126589000Y-68690000D01*
X126589000Y-65810000D02*
X126589000Y-59174000D01*
X126549000Y-75306000D02*
X126549000Y-68690000D01*
X126549000Y-65810000D02*
X126549000Y-59194000D01*
X126509000Y-75285000D02*
X126509000Y-68690000D01*
X126509000Y-65810000D02*
X126509000Y-59215000D01*
X126469000Y-75264000D02*
X126469000Y-68690000D01*
X126469000Y-65810000D02*
X126469000Y-59236000D01*
X126429000Y-75242000D02*
X126429000Y-68690000D01*
X126429000Y-65810000D02*
X126429000Y-59258000D01*
X126389000Y-75221000D02*
X126389000Y-68690000D01*
X126389000Y-65810000D02*
X126389000Y-59279000D01*
X126349000Y-75199000D02*
X126349000Y-68690000D01*
X126349000Y-65810000D02*
X126349000Y-59301000D01*
X126309000Y-75177000D02*
X126309000Y-68690000D01*
X126309000Y-65810000D02*
X126309000Y-59323000D01*
X126269000Y-75154000D02*
X126269000Y-68690000D01*
X126269000Y-65810000D02*
X126269000Y-59346000D01*
X126229000Y-75132000D02*
X126229000Y-68690000D01*
X126229000Y-65810000D02*
X126229000Y-59368000D01*
X126189000Y-75109000D02*
X126189000Y-68690000D01*
X126189000Y-65810000D02*
X126189000Y-59391000D01*
X126149000Y-75085000D02*
X126149000Y-68690000D01*
X126149000Y-65810000D02*
X126149000Y-59415000D01*
X126109000Y-75062000D02*
X126109000Y-68690000D01*
X126109000Y-65810000D02*
X126109000Y-59438000D01*
X126069000Y-75038000D02*
X126069000Y-68690000D01*
X126069000Y-65810000D02*
X126069000Y-59462000D01*
X126029000Y-75014000D02*
X126029000Y-68690000D01*
X126029000Y-65810000D02*
X126029000Y-59486000D01*
X125989000Y-74990000D02*
X125989000Y-68690000D01*
X125989000Y-65810000D02*
X125989000Y-59510000D01*
X125949000Y-74965000D02*
X125949000Y-68690000D01*
X125949000Y-65810000D02*
X125949000Y-59535000D01*
X125909000Y-74940000D02*
X125909000Y-68690000D01*
X125909000Y-65810000D02*
X125909000Y-59560000D01*
X125869000Y-74915000D02*
X125869000Y-68690000D01*
X125869000Y-65810000D02*
X125869000Y-59585000D01*
X125829000Y-74890000D02*
X125829000Y-68690000D01*
X125829000Y-65810000D02*
X125829000Y-59610000D01*
X125789000Y-74864000D02*
X125789000Y-68690000D01*
X125789000Y-65810000D02*
X125789000Y-59636000D01*
X125749000Y-74838000D02*
X125749000Y-68690000D01*
X125749000Y-65810000D02*
X125749000Y-59662000D01*
X125709000Y-74811000D02*
X125709000Y-68690000D01*
X125709000Y-65810000D02*
X125709000Y-59689000D01*
X125669000Y-74785000D02*
X125669000Y-68690000D01*
X125669000Y-65810000D02*
X125669000Y-59715000D01*
X125629000Y-74758000D02*
X125629000Y-68690000D01*
X125629000Y-65810000D02*
X125629000Y-59742000D01*
X125589000Y-74730000D02*
X125589000Y-68690000D01*
X125589000Y-65810000D02*
X125589000Y-59770000D01*
X125549000Y-74703000D02*
X125549000Y-59797000D01*
X125509000Y-74675000D02*
X125509000Y-59825000D01*
X125469000Y-74647000D02*
X125469000Y-59853000D01*
X125429000Y-74618000D02*
X125429000Y-59882000D01*
X125389000Y-74589000D02*
X125389000Y-59911000D01*
X125349000Y-74560000D02*
X125349000Y-59940000D01*
X125309000Y-74530000D02*
X125309000Y-59970000D01*
X125269000Y-74500000D02*
X125269000Y-60000000D01*
X125229000Y-74470000D02*
X125229000Y-60030000D01*
X125189000Y-74440000D02*
X125189000Y-60060000D01*
X125149000Y-74409000D02*
X125149000Y-60091000D01*
X125109000Y-74377000D02*
X125109000Y-60123000D01*
X125069000Y-74346000D02*
X125069000Y-60154000D01*
X125029000Y-74314000D02*
X125029000Y-60186000D01*
X124989000Y-74281000D02*
X124989000Y-60219000D01*
X124949000Y-74249000D02*
X124949000Y-60251000D01*
X124909000Y-74215000D02*
X124909000Y-60285000D01*
X124869000Y-74182000D02*
X124869000Y-60318000D01*
X124829000Y-74148000D02*
X124829000Y-60352000D01*
X124789000Y-74114000D02*
X124789000Y-60386000D01*
X124749000Y-74079000D02*
X124749000Y-60421000D01*
X124709000Y-74044000D02*
X124709000Y-60456000D01*
X124669000Y-74008000D02*
X124669000Y-60492000D01*
X124629000Y-73972000D02*
X124629000Y-60528000D01*
X124589000Y-73936000D02*
X124589000Y-60564000D01*
X124549000Y-73899000D02*
X124549000Y-60601000D01*
X124509000Y-73862000D02*
X124509000Y-60638000D01*
X124469000Y-73824000D02*
X124469000Y-60676000D01*
X124429000Y-73786000D02*
X124429000Y-60714000D01*
X124389000Y-73747000D02*
X124389000Y-60753000D01*
X124349000Y-73708000D02*
X124349000Y-60792000D01*
X124309000Y-73668000D02*
X124309000Y-60832000D01*
X124269000Y-73628000D02*
X124269000Y-60872000D01*
X124229000Y-73587000D02*
X124229000Y-60913000D01*
X124189000Y-73546000D02*
X124189000Y-60954000D01*
X124149000Y-73504000D02*
X124149000Y-60996000D01*
X124109000Y-73462000D02*
X124109000Y-61038000D01*
X124069000Y-73420000D02*
X124069000Y-61080000D01*
X124029000Y-73376000D02*
X124029000Y-61124000D01*
X123989000Y-73332000D02*
X123989000Y-61168000D01*
X123949000Y-73288000D02*
X123949000Y-61212000D01*
X123909000Y-73243000D02*
X123909000Y-61257000D01*
X123869000Y-73197000D02*
X123869000Y-61303000D01*
X123829000Y-73151000D02*
X123829000Y-61349000D01*
X123789000Y-73104000D02*
X123789000Y-61396000D01*
X123749000Y-73056000D02*
X123749000Y-61444000D01*
X123709000Y-73008000D02*
X123709000Y-61492000D01*
X123669000Y-72959000D02*
X123669000Y-61541000D01*
X123629000Y-72910000D02*
X123629000Y-61590000D01*
X123589000Y-72859000D02*
X123589000Y-61641000D01*
X123549000Y-72808000D02*
X123549000Y-61692000D01*
X123509000Y-72756000D02*
X123509000Y-61744000D01*
X123469000Y-72704000D02*
X123469000Y-61796000D01*
X123429000Y-72650000D02*
X123429000Y-61850000D01*
X123389000Y-72596000D02*
X123389000Y-61904000D01*
X123349000Y-72541000D02*
X123349000Y-61959000D01*
X123309000Y-72485000D02*
X123309000Y-62015000D01*
X123269000Y-72428000D02*
X123269000Y-62072000D01*
X123229000Y-72370000D02*
X123229000Y-62130000D01*
X123189000Y-72312000D02*
X123189000Y-62188000D01*
X123149000Y-72252000D02*
X123149000Y-62248000D01*
X123109000Y-72191000D02*
X123109000Y-62309000D01*
X123069000Y-72129000D02*
X123069000Y-62371000D01*
X123029000Y-72066000D02*
X123029000Y-62434000D01*
X122989000Y-72002000D02*
X122989000Y-62498000D01*
X122949000Y-71936000D02*
X122949000Y-62564000D01*
X122909000Y-71870000D02*
X122909000Y-62630000D01*
X122869000Y-71802000D02*
X122869000Y-62698000D01*
X122829000Y-71732000D02*
X122829000Y-62768000D01*
X122789000Y-71662000D02*
X122789000Y-62838000D01*
X122749000Y-71589000D02*
X122749000Y-62911000D01*
X122709000Y-71515000D02*
X122709000Y-62985000D01*
X122669000Y-71440000D02*
X122669000Y-63060000D01*
X122629000Y-71363000D02*
X122629000Y-63137000D01*
X122589000Y-71283000D02*
X122589000Y-63217000D01*
X122550000Y-71202000D02*
X122550000Y-63298000D01*
X122510000Y-71119000D02*
X122510000Y-63381000D01*
X122470000Y-71034000D02*
X122470000Y-63466000D01*
X122430000Y-70946000D02*
X122430000Y-63554000D01*
X122390000Y-70855000D02*
X122390000Y-63645000D01*
X122350000Y-70762000D02*
X122350000Y-63738000D01*
X122310000Y-70666000D02*
X122310000Y-63834000D01*
X122270000Y-70567000D02*
X122270000Y-63933000D01*
X122230000Y-70464000D02*
X122230000Y-64036000D01*
X122190000Y-70357000D02*
X122190000Y-64143000D01*
X122150000Y-70246000D02*
X122150000Y-64254000D01*
X122110000Y-70130000D02*
X122110000Y-64370000D01*
X122070000Y-70009000D02*
X122070000Y-64491000D01*
X122030000Y-69882000D02*
X122030000Y-64618000D01*
X121990000Y-69748000D02*
X121990000Y-64752000D01*
X121950000Y-69605000D02*
X121950000Y-64895000D01*
X121910000Y-69453000D02*
X121910000Y-65047000D01*
X121870000Y-69289000D02*
X121870000Y-65211000D01*
X121830000Y-69110000D02*
X121830000Y-65390000D01*
X121790000Y-68911000D02*
X121790000Y-65589000D01*
X121750000Y-68685000D02*
X121750000Y-65815000D01*
X121710000Y-68416000D02*
X121710000Y-66084000D01*
X121670000Y-68064000D02*
X121670000Y-66436000D01*
X121630000Y-67290000D02*
X121630000Y-67210000D01*
X140509440Y-72365000D02*
X138709440Y-72365000D01*
X139609440Y-73265000D02*
X139609440Y-71465000D01*
D10*
X120948571Y-74151428D02*
X120605714Y-74151428D01*
X120777142Y-74151428D02*
X120777142Y-73551428D01*
X120720000Y-73637142D01*
X120662857Y-73694285D01*
X120605714Y-73722857D01*
X121320000Y-73551428D02*
X121377142Y-73551428D01*
X121434285Y-73580000D01*
X121462857Y-73608571D01*
X121491428Y-73665714D01*
X121520000Y-73780000D01*
X121520000Y-73922857D01*
X121491428Y-74037142D01*
X121462857Y-74094285D01*
X121434285Y-74122857D01*
X121377142Y-74151428D01*
X121320000Y-74151428D01*
X121262857Y-74122857D01*
X121234285Y-74094285D01*
X121205714Y-74037142D01*
X121177142Y-73922857D01*
X121177142Y-73780000D01*
X121205714Y-73665714D01*
X121234285Y-73608571D01*
X121262857Y-73580000D01*
X121320000Y-73551428D01*
X121691428Y-73551428D02*
X121891428Y-74151428D01*
X122091428Y-73551428D01*
X103780000Y-57731428D02*
X103780000Y-58160000D01*
X103751428Y-58245714D01*
X103694285Y-58302857D01*
X103608571Y-58331428D01*
X103551428Y-58331428D01*
X104008571Y-57731428D02*
X104380000Y-57731428D01*
X104180000Y-57960000D01*
X104265714Y-57960000D01*
X104322857Y-57988571D01*
X104351428Y-58017142D01*
X104380000Y-58074285D01*
X104380000Y-58217142D01*
X104351428Y-58274285D01*
X104322857Y-58302857D01*
X104265714Y-58331428D01*
X104094285Y-58331428D01*
X104037142Y-58302857D01*
X104008571Y-58274285D01*
X150082857Y-68601428D02*
X150082857Y-69087142D01*
X150111428Y-69144285D01*
X150140000Y-69172857D01*
X150197142Y-69201428D01*
X150311428Y-69201428D01*
X150368571Y-69172857D01*
X150397142Y-69144285D01*
X150425714Y-69087142D01*
X150425714Y-68601428D01*
X151025714Y-69201428D02*
X150682857Y-69201428D01*
X150854285Y-69201428D02*
X150854285Y-68601428D01*
X150797142Y-68687142D01*
X150740000Y-68744285D01*
X150682857Y-68772857D01*
X137340000Y-76284285D02*
X137311428Y-76312857D01*
X137225714Y-76341428D01*
X137168571Y-76341428D01*
X137082857Y-76312857D01*
X137025714Y-76255714D01*
X136997142Y-76198571D01*
X136968571Y-76084285D01*
X136968571Y-75998571D01*
X136997142Y-75884285D01*
X137025714Y-75827142D01*
X137082857Y-75770000D01*
X137168571Y-75741428D01*
X137225714Y-75741428D01*
X137311428Y-75770000D01*
X137340000Y-75798571D01*
X137854285Y-75941428D02*
X137854285Y-76341428D01*
X137711428Y-75712857D02*
X137568571Y-76141428D01*
X137940000Y-76141428D01*
X140990000Y-67584285D02*
X140961428Y-67612857D01*
X140875714Y-67641428D01*
X140818571Y-67641428D01*
X140732857Y-67612857D01*
X140675714Y-67555714D01*
X140647142Y-67498571D01*
X140618571Y-67384285D01*
X140618571Y-67298571D01*
X140647142Y-67184285D01*
X140675714Y-67127142D01*
X140732857Y-67070000D01*
X140818571Y-67041428D01*
X140875714Y-67041428D01*
X140961428Y-67070000D01*
X140990000Y-67098571D01*
X141190000Y-67041428D02*
X141561428Y-67041428D01*
X141361428Y-67270000D01*
X141447142Y-67270000D01*
X141504285Y-67298571D01*
X141532857Y-67327142D01*
X141561428Y-67384285D01*
X141561428Y-67527142D01*
X141532857Y-67584285D01*
X141504285Y-67612857D01*
X141447142Y-67641428D01*
X141275714Y-67641428D01*
X141218571Y-67612857D01*
X141190000Y-67584285D01*
X133942857Y-120578571D02*
X133885714Y-120550000D01*
X133828571Y-120492857D01*
X133742857Y-120407142D01*
X133685714Y-120378571D01*
X133628571Y-120378571D01*
X133657142Y-120521428D02*
X133600000Y-120492857D01*
X133542857Y-120435714D01*
X133514285Y-120321428D01*
X133514285Y-120121428D01*
X133542857Y-120007142D01*
X133600000Y-119950000D01*
X133657142Y-119921428D01*
X133771428Y-119921428D01*
X133828571Y-119950000D01*
X133885714Y-120007142D01*
X133914285Y-120121428D01*
X133914285Y-120321428D01*
X133885714Y-120435714D01*
X133828571Y-120492857D01*
X133771428Y-120521428D01*
X133657142Y-120521428D01*
X134428571Y-120121428D02*
X134428571Y-120521428D01*
X134285714Y-119892857D02*
X134142857Y-120321428D01*
X134514285Y-120321428D01*
X133942857Y-109828571D02*
X133885714Y-109800000D01*
X133828571Y-109742857D01*
X133742857Y-109657142D01*
X133685714Y-109628571D01*
X133628571Y-109628571D01*
X133657142Y-109771428D02*
X133600000Y-109742857D01*
X133542857Y-109685714D01*
X133514285Y-109571428D01*
X133514285Y-109371428D01*
X133542857Y-109257142D01*
X133600000Y-109200000D01*
X133657142Y-109171428D01*
X133771428Y-109171428D01*
X133828571Y-109200000D01*
X133885714Y-109257142D01*
X133914285Y-109371428D01*
X133914285Y-109571428D01*
X133885714Y-109685714D01*
X133828571Y-109742857D01*
X133771428Y-109771428D01*
X133657142Y-109771428D01*
X134114285Y-109171428D02*
X134485714Y-109171428D01*
X134285714Y-109400000D01*
X134371428Y-109400000D01*
X134428571Y-109428571D01*
X134457142Y-109457142D01*
X134485714Y-109514285D01*
X134485714Y-109657142D01*
X134457142Y-109714285D01*
X134428571Y-109742857D01*
X134371428Y-109771428D01*
X134200000Y-109771428D01*
X134142857Y-109742857D01*
X134114285Y-109714285D01*
X133942857Y-97728571D02*
X133885714Y-97700000D01*
X133828571Y-97642857D01*
X133742857Y-97557142D01*
X133685714Y-97528571D01*
X133628571Y-97528571D01*
X133657142Y-97671428D02*
X133600000Y-97642857D01*
X133542857Y-97585714D01*
X133514285Y-97471428D01*
X133514285Y-97271428D01*
X133542857Y-97157142D01*
X133600000Y-97100000D01*
X133657142Y-97071428D01*
X133771428Y-97071428D01*
X133828571Y-97100000D01*
X133885714Y-97157142D01*
X133914285Y-97271428D01*
X133914285Y-97471428D01*
X133885714Y-97585714D01*
X133828571Y-97642857D01*
X133771428Y-97671428D01*
X133657142Y-97671428D01*
X134142857Y-97128571D02*
X134171428Y-97100000D01*
X134228571Y-97071428D01*
X134371428Y-97071428D01*
X134428571Y-97100000D01*
X134457142Y-97128571D01*
X134485714Y-97185714D01*
X134485714Y-97242857D01*
X134457142Y-97328571D01*
X134114285Y-97671428D01*
X134485714Y-97671428D01*
X133942857Y-87028571D02*
X133885714Y-87000000D01*
X133828571Y-86942857D01*
X133742857Y-86857142D01*
X133685714Y-86828571D01*
X133628571Y-86828571D01*
X133657142Y-86971428D02*
X133600000Y-86942857D01*
X133542857Y-86885714D01*
X133514285Y-86771428D01*
X133514285Y-86571428D01*
X133542857Y-86457142D01*
X133600000Y-86400000D01*
X133657142Y-86371428D01*
X133771428Y-86371428D01*
X133828571Y-86400000D01*
X133885714Y-86457142D01*
X133914285Y-86571428D01*
X133914285Y-86771428D01*
X133885714Y-86885714D01*
X133828571Y-86942857D01*
X133771428Y-86971428D01*
X133657142Y-86971428D01*
X134485714Y-86971428D02*
X134142857Y-86971428D01*
X134314285Y-86971428D02*
X134314285Y-86371428D01*
X134257142Y-86457142D01*
X134200000Y-86514285D01*
X134142857Y-86542857D01*
X97922857Y-91451428D02*
X97922857Y-91937142D01*
X97951428Y-91994285D01*
X97980000Y-92022857D01*
X98037142Y-92051428D01*
X98151428Y-92051428D01*
X98208571Y-92022857D01*
X98237142Y-91994285D01*
X98265714Y-91937142D01*
X98265714Y-91451428D01*
X98837142Y-91451428D02*
X98551428Y-91451428D01*
X98522857Y-91737142D01*
X98551428Y-91708571D01*
X98608571Y-91680000D01*
X98751428Y-91680000D01*
X98808571Y-91708571D01*
X98837142Y-91737142D01*
X98865714Y-91794285D01*
X98865714Y-91937142D01*
X98837142Y-91994285D01*
X98808571Y-92022857D01*
X98751428Y-92051428D01*
X98608571Y-92051428D01*
X98551428Y-92022857D01*
X98522857Y-91994285D01*
X110542857Y-80661428D02*
X110542857Y-81147142D01*
X110571428Y-81204285D01*
X110600000Y-81232857D01*
X110657142Y-81261428D01*
X110771428Y-81261428D01*
X110828571Y-81232857D01*
X110857142Y-81204285D01*
X110885714Y-81147142D01*
X110885714Y-80661428D01*
X111142857Y-80718571D02*
X111171428Y-80690000D01*
X111228571Y-80661428D01*
X111371428Y-80661428D01*
X111428571Y-80690000D01*
X111457142Y-80718571D01*
X111485714Y-80775714D01*
X111485714Y-80832857D01*
X111457142Y-80918571D01*
X111114285Y-81261428D01*
X111485714Y-81261428D01*
X170344285Y-82874285D02*
X170315714Y-82902857D01*
X170230000Y-82931428D01*
X170172857Y-82931428D01*
X170087142Y-82902857D01*
X170030000Y-82845714D01*
X170001428Y-82788571D01*
X169972857Y-82674285D01*
X169972857Y-82588571D01*
X170001428Y-82474285D01*
X170030000Y-82417142D01*
X170087142Y-82360000D01*
X170172857Y-82331428D01*
X170230000Y-82331428D01*
X170315714Y-82360000D01*
X170344285Y-82388571D01*
X170915714Y-82931428D02*
X170572857Y-82931428D01*
X170744285Y-82931428D02*
X170744285Y-82331428D01*
X170687142Y-82417142D01*
X170630000Y-82474285D01*
X170572857Y-82502857D01*
X171258571Y-82588571D02*
X171201428Y-82560000D01*
X171172857Y-82531428D01*
X171144285Y-82474285D01*
X171144285Y-82445714D01*
X171172857Y-82388571D01*
X171201428Y-82360000D01*
X171258571Y-82331428D01*
X171372857Y-82331428D01*
X171430000Y-82360000D01*
X171458571Y-82388571D01*
X171487142Y-82445714D01*
X171487142Y-82474285D01*
X171458571Y-82531428D01*
X171430000Y-82560000D01*
X171372857Y-82588571D01*
X171258571Y-82588571D01*
X171201428Y-82617142D01*
X171172857Y-82645714D01*
X171144285Y-82702857D01*
X171144285Y-82817142D01*
X171172857Y-82874285D01*
X171201428Y-82902857D01*
X171258571Y-82931428D01*
X171372857Y-82931428D01*
X171430000Y-82902857D01*
X171458571Y-82874285D01*
X171487142Y-82817142D01*
X171487142Y-82702857D01*
X171458571Y-82645714D01*
X171430000Y-82617142D01*
X171372857Y-82588571D01*
X120280000Y-79791428D02*
X120080000Y-79505714D01*
X119937142Y-79791428D02*
X119937142Y-79191428D01*
X120165714Y-79191428D01*
X120222857Y-79220000D01*
X120251428Y-79248571D01*
X120280000Y-79305714D01*
X120280000Y-79391428D01*
X120251428Y-79448571D01*
X120222857Y-79477142D01*
X120165714Y-79505714D01*
X119937142Y-79505714D01*
X120622857Y-79448571D02*
X120565714Y-79420000D01*
X120537142Y-79391428D01*
X120508571Y-79334285D01*
X120508571Y-79305714D01*
X120537142Y-79248571D01*
X120565714Y-79220000D01*
X120622857Y-79191428D01*
X120737142Y-79191428D01*
X120794285Y-79220000D01*
X120822857Y-79248571D01*
X120851428Y-79305714D01*
X120851428Y-79334285D01*
X120822857Y-79391428D01*
X120794285Y-79420000D01*
X120737142Y-79448571D01*
X120622857Y-79448571D01*
X120565714Y-79477142D01*
X120537142Y-79505714D01*
X120508571Y-79562857D01*
X120508571Y-79677142D01*
X120537142Y-79734285D01*
X120565714Y-79762857D01*
X120622857Y-79791428D01*
X120737142Y-79791428D01*
X120794285Y-79762857D01*
X120822857Y-79734285D01*
X120851428Y-79677142D01*
X120851428Y-79562857D01*
X120822857Y-79505714D01*
X120794285Y-79477142D01*
X120737142Y-79448571D01*
X109614285Y-87671428D02*
X109414285Y-87385714D01*
X109271428Y-87671428D02*
X109271428Y-87071428D01*
X109500000Y-87071428D01*
X109557142Y-87100000D01*
X109585714Y-87128571D01*
X109614285Y-87185714D01*
X109614285Y-87271428D01*
X109585714Y-87328571D01*
X109557142Y-87357142D01*
X109500000Y-87385714D01*
X109271428Y-87385714D01*
X110185714Y-87671428D02*
X109842857Y-87671428D01*
X110014285Y-87671428D02*
X110014285Y-87071428D01*
X109957142Y-87157142D01*
X109900000Y-87214285D01*
X109842857Y-87242857D01*
X110728571Y-87071428D02*
X110442857Y-87071428D01*
X110414285Y-87357142D01*
X110442857Y-87328571D01*
X110500000Y-87300000D01*
X110642857Y-87300000D01*
X110700000Y-87328571D01*
X110728571Y-87357142D01*
X110757142Y-87414285D01*
X110757142Y-87557142D01*
X110728571Y-87614285D01*
X110700000Y-87642857D01*
X110642857Y-87671428D01*
X110500000Y-87671428D01*
X110442857Y-87642857D01*
X110414285Y-87614285D01*
X114639285Y-90996428D02*
X114439285Y-90710714D01*
X114296428Y-90996428D02*
X114296428Y-90396428D01*
X114525000Y-90396428D01*
X114582142Y-90425000D01*
X114610714Y-90453571D01*
X114639285Y-90510714D01*
X114639285Y-90596428D01*
X114610714Y-90653571D01*
X114582142Y-90682142D01*
X114525000Y-90710714D01*
X114296428Y-90710714D01*
X115210714Y-90996428D02*
X114867857Y-90996428D01*
X115039285Y-90996428D02*
X115039285Y-90396428D01*
X114982142Y-90482142D01*
X114925000Y-90539285D01*
X114867857Y-90567857D01*
X115410714Y-90396428D02*
X115782142Y-90396428D01*
X115582142Y-90625000D01*
X115667857Y-90625000D01*
X115725000Y-90653571D01*
X115753571Y-90682142D01*
X115782142Y-90739285D01*
X115782142Y-90882142D01*
X115753571Y-90939285D01*
X115725000Y-90967857D01*
X115667857Y-90996428D01*
X115496428Y-90996428D01*
X115439285Y-90967857D01*
X115410714Y-90939285D01*
X103000000Y-77471428D02*
X102800000Y-77185714D01*
X102657142Y-77471428D02*
X102657142Y-76871428D01*
X102885714Y-76871428D01*
X102942857Y-76900000D01*
X102971428Y-76928571D01*
X103000000Y-76985714D01*
X103000000Y-77071428D01*
X102971428Y-77128571D01*
X102942857Y-77157142D01*
X102885714Y-77185714D01*
X102657142Y-77185714D01*
X103228571Y-76928571D02*
X103257142Y-76900000D01*
X103314285Y-76871428D01*
X103457142Y-76871428D01*
X103514285Y-76900000D01*
X103542857Y-76928571D01*
X103571428Y-76985714D01*
X103571428Y-77042857D01*
X103542857Y-77128571D01*
X103200000Y-77471428D01*
X103571428Y-77471428D01*
X106400000Y-77571428D02*
X106200000Y-77285714D01*
X106057142Y-77571428D02*
X106057142Y-76971428D01*
X106285714Y-76971428D01*
X106342857Y-77000000D01*
X106371428Y-77028571D01*
X106400000Y-77085714D01*
X106400000Y-77171428D01*
X106371428Y-77228571D01*
X106342857Y-77257142D01*
X106285714Y-77285714D01*
X106057142Y-77285714D01*
X106971428Y-77571428D02*
X106628571Y-77571428D01*
X106800000Y-77571428D02*
X106800000Y-76971428D01*
X106742857Y-77057142D01*
X106685714Y-77114285D01*
X106628571Y-77142857D01*
X98190000Y-84084285D02*
X98161428Y-84112857D01*
X98075714Y-84141428D01*
X98018571Y-84141428D01*
X97932857Y-84112857D01*
X97875714Y-84055714D01*
X97847142Y-83998571D01*
X97818571Y-83884285D01*
X97818571Y-83798571D01*
X97847142Y-83684285D01*
X97875714Y-83627142D01*
X97932857Y-83570000D01*
X98018571Y-83541428D01*
X98075714Y-83541428D01*
X98161428Y-83570000D01*
X98190000Y-83598571D01*
X98732857Y-83541428D02*
X98447142Y-83541428D01*
X98418571Y-83827142D01*
X98447142Y-83798571D01*
X98504285Y-83770000D01*
X98647142Y-83770000D01*
X98704285Y-83798571D01*
X98732857Y-83827142D01*
X98761428Y-83884285D01*
X98761428Y-84027142D01*
X98732857Y-84084285D01*
X98704285Y-84112857D01*
X98647142Y-84141428D01*
X98504285Y-84141428D01*
X98447142Y-84112857D01*
X98418571Y-84084285D01*
X103724285Y-101684285D02*
X103695714Y-101712857D01*
X103610000Y-101741428D01*
X103552857Y-101741428D01*
X103467142Y-101712857D01*
X103410000Y-101655714D01*
X103381428Y-101598571D01*
X103352857Y-101484285D01*
X103352857Y-101398571D01*
X103381428Y-101284285D01*
X103410000Y-101227142D01*
X103467142Y-101170000D01*
X103552857Y-101141428D01*
X103610000Y-101141428D01*
X103695714Y-101170000D01*
X103724285Y-101198571D01*
X104295714Y-101741428D02*
X103952857Y-101741428D01*
X104124285Y-101741428D02*
X104124285Y-101141428D01*
X104067142Y-101227142D01*
X104010000Y-101284285D01*
X103952857Y-101312857D01*
X104838571Y-101141428D02*
X104552857Y-101141428D01*
X104524285Y-101427142D01*
X104552857Y-101398571D01*
X104610000Y-101370000D01*
X104752857Y-101370000D01*
X104810000Y-101398571D01*
X104838571Y-101427142D01*
X104867142Y-101484285D01*
X104867142Y-101627142D01*
X104838571Y-101684285D01*
X104810000Y-101712857D01*
X104752857Y-101741428D01*
X104610000Y-101741428D01*
X104552857Y-101712857D01*
X104524285Y-101684285D01*
X107714285Y-92089285D02*
X107685714Y-92117857D01*
X107600000Y-92146428D01*
X107542857Y-92146428D01*
X107457142Y-92117857D01*
X107400000Y-92060714D01*
X107371428Y-92003571D01*
X107342857Y-91889285D01*
X107342857Y-91803571D01*
X107371428Y-91689285D01*
X107400000Y-91632142D01*
X107457142Y-91575000D01*
X107542857Y-91546428D01*
X107600000Y-91546428D01*
X107685714Y-91575000D01*
X107714285Y-91603571D01*
X108285714Y-92146428D02*
X107942857Y-92146428D01*
X108114285Y-92146428D02*
X108114285Y-91546428D01*
X108057142Y-91632142D01*
X108000000Y-91689285D01*
X107942857Y-91717857D01*
X108485714Y-91546428D02*
X108885714Y-91546428D01*
X108628571Y-92146428D01*
X98120000Y-80194285D02*
X98091428Y-80222857D01*
X98005714Y-80251428D01*
X97948571Y-80251428D01*
X97862857Y-80222857D01*
X97805714Y-80165714D01*
X97777142Y-80108571D01*
X97748571Y-79994285D01*
X97748571Y-79908571D01*
X97777142Y-79794285D01*
X97805714Y-79737142D01*
X97862857Y-79680000D01*
X97948571Y-79651428D01*
X98005714Y-79651428D01*
X98091428Y-79680000D01*
X98120000Y-79708571D01*
X98320000Y-79651428D02*
X98720000Y-79651428D01*
X98462857Y-80251428D01*
X97464285Y-100339285D02*
X97435714Y-100367857D01*
X97350000Y-100396428D01*
X97292857Y-100396428D01*
X97207142Y-100367857D01*
X97150000Y-100310714D01*
X97121428Y-100253571D01*
X97092857Y-100139285D01*
X97092857Y-100053571D01*
X97121428Y-99939285D01*
X97150000Y-99882142D01*
X97207142Y-99825000D01*
X97292857Y-99796428D01*
X97350000Y-99796428D01*
X97435714Y-99825000D01*
X97464285Y-99853571D01*
X98035714Y-100396428D02*
X97692857Y-100396428D01*
X97864285Y-100396428D02*
X97864285Y-99796428D01*
X97807142Y-99882142D01*
X97750000Y-99939285D01*
X97692857Y-99967857D01*
X98550000Y-99796428D02*
X98435714Y-99796428D01*
X98378571Y-99825000D01*
X98350000Y-99853571D01*
X98292857Y-99939285D01*
X98264285Y-100053571D01*
X98264285Y-100282142D01*
X98292857Y-100339285D01*
X98321428Y-100367857D01*
X98378571Y-100396428D01*
X98492857Y-100396428D01*
X98550000Y-100367857D01*
X98578571Y-100339285D01*
X98607142Y-100282142D01*
X98607142Y-100139285D01*
X98578571Y-100082142D01*
X98550000Y-100053571D01*
X98492857Y-100025000D01*
X98378571Y-100025000D01*
X98321428Y-100053571D01*
X98292857Y-100082142D01*
X98264285Y-100139285D01*
X108532142Y-76382142D02*
X108617857Y-76410714D01*
X108646428Y-76439285D01*
X108675000Y-76496428D01*
X108675000Y-76582142D01*
X108646428Y-76639285D01*
X108617857Y-76667857D01*
X108560714Y-76696428D01*
X108332142Y-76696428D01*
X108332142Y-76096428D01*
X108532142Y-76096428D01*
X108589285Y-76125000D01*
X108617857Y-76153571D01*
X108646428Y-76210714D01*
X108646428Y-76267857D01*
X108617857Y-76325000D01*
X108589285Y-76353571D01*
X108532142Y-76382142D01*
X108332142Y-76382142D01*
X108932142Y-76696428D02*
X108932142Y-76296428D01*
X108932142Y-76096428D02*
X108903571Y-76125000D01*
X108932142Y-76153571D01*
X108960714Y-76125000D01*
X108932142Y-76096428D01*
X108932142Y-76153571D01*
X109475000Y-76696428D02*
X109475000Y-76382142D01*
X109446428Y-76325000D01*
X109389285Y-76296428D01*
X109275000Y-76296428D01*
X109217857Y-76325000D01*
X109475000Y-76667857D02*
X109417857Y-76696428D01*
X109275000Y-76696428D01*
X109217857Y-76667857D01*
X109189285Y-76610714D01*
X109189285Y-76553571D01*
X109217857Y-76496428D01*
X109275000Y-76467857D01*
X109417857Y-76467857D01*
X109475000Y-76439285D01*
X109732142Y-76667857D02*
X109789285Y-76696428D01*
X109903571Y-76696428D01*
X109960714Y-76667857D01*
X109989285Y-76610714D01*
X109989285Y-76582142D01*
X109960714Y-76525000D01*
X109903571Y-76496428D01*
X109817857Y-76496428D01*
X109760714Y-76467857D01*
X109732142Y-76410714D01*
X109732142Y-76382142D01*
X109760714Y-76325000D01*
X109817857Y-76296428D01*
X109903571Y-76296428D01*
X109960714Y-76325000D01*
X110475000Y-76667857D02*
X110417857Y-76696428D01*
X110303571Y-76696428D01*
X110246428Y-76667857D01*
X110217857Y-76610714D01*
X110217857Y-76382142D01*
X110246428Y-76325000D01*
X110303571Y-76296428D01*
X110417857Y-76296428D01*
X110475000Y-76325000D01*
X110503571Y-76382142D01*
X110503571Y-76439285D01*
X110217857Y-76496428D01*
X111017857Y-76696428D02*
X111017857Y-76096428D01*
X111017857Y-76667857D02*
X110960714Y-76696428D01*
X110846428Y-76696428D01*
X110789285Y-76667857D01*
X110760714Y-76639285D01*
X110732142Y-76582142D01*
X110732142Y-76410714D01*
X110760714Y-76353571D01*
X110789285Y-76325000D01*
X110846428Y-76296428D01*
X110960714Y-76296428D01*
X111017857Y-76325000D01*
X113892857Y-93457142D02*
X113692857Y-93457142D01*
X113692857Y-93771428D02*
X113692857Y-93171428D01*
X113978571Y-93171428D01*
X114207142Y-93771428D02*
X114207142Y-93371428D01*
X114207142Y-93171428D02*
X114178571Y-93200000D01*
X114207142Y-93228571D01*
X114235714Y-93200000D01*
X114207142Y-93171428D01*
X114207142Y-93228571D01*
X114578571Y-93771428D02*
X114521428Y-93742857D01*
X114492857Y-93685714D01*
X114492857Y-93171428D01*
X114721428Y-93371428D02*
X114950000Y-93371428D01*
X114807142Y-93171428D02*
X114807142Y-93685714D01*
X114835714Y-93742857D01*
X114892857Y-93771428D01*
X114950000Y-93771428D01*
X115378571Y-93742857D02*
X115321428Y-93771428D01*
X115207142Y-93771428D01*
X115150000Y-93742857D01*
X115121428Y-93685714D01*
X115121428Y-93457142D01*
X115150000Y-93400000D01*
X115207142Y-93371428D01*
X115321428Y-93371428D01*
X115378571Y-93400000D01*
X115407142Y-93457142D01*
X115407142Y-93514285D01*
X115121428Y-93571428D01*
X115664285Y-93771428D02*
X115664285Y-93371428D01*
X115664285Y-93485714D02*
X115692857Y-93428571D01*
X115721428Y-93400000D01*
X115778571Y-93371428D01*
X115835714Y-93371428D01*
X116264285Y-93742857D02*
X116207142Y-93771428D01*
X116092857Y-93771428D01*
X116035714Y-93742857D01*
X116007142Y-93685714D01*
X116007142Y-93457142D01*
X116035714Y-93400000D01*
X116092857Y-93371428D01*
X116207142Y-93371428D01*
X116264285Y-93400000D01*
X116292857Y-93457142D01*
X116292857Y-93514285D01*
X116007142Y-93571428D01*
X116807142Y-93771428D02*
X116807142Y-93171428D01*
X116807142Y-93742857D02*
X116750000Y-93771428D01*
X116635714Y-93771428D01*
X116578571Y-93742857D01*
X116550000Y-93714285D01*
X116521428Y-93657142D01*
X116521428Y-93485714D01*
X116550000Y-93428571D01*
X116578571Y-93400000D01*
X116635714Y-93371428D01*
X116750000Y-93371428D01*
X116807142Y-93400000D01*
D12*
X187990476Y-108323809D02*
X188104761Y-108361904D01*
X188295238Y-108361904D01*
X188371428Y-108323809D01*
X188409523Y-108285714D01*
X188447619Y-108209523D01*
X188447619Y-108133333D01*
X188409523Y-108057142D01*
X188371428Y-108019047D01*
X188295238Y-107980952D01*
X188142857Y-107942857D01*
X188066666Y-107904761D01*
X188028571Y-107866666D01*
X187990476Y-107790476D01*
X187990476Y-107714285D01*
X188028571Y-107638095D01*
X188066666Y-107600000D01*
X188142857Y-107561904D01*
X188333333Y-107561904D01*
X188447619Y-107600000D01*
X188790476Y-107828571D02*
X188790476Y-108628571D01*
X188790476Y-107866666D02*
X188866666Y-107828571D01*
X189019047Y-107828571D01*
X189095238Y-107866666D01*
X189133333Y-107904761D01*
X189171428Y-107980952D01*
X189171428Y-108209523D01*
X189133333Y-108285714D01*
X189095238Y-108323809D01*
X189019047Y-108361904D01*
X188866666Y-108361904D01*
X188790476Y-108323809D01*
X189819047Y-108323809D02*
X189742857Y-108361904D01*
X189590476Y-108361904D01*
X189514285Y-108323809D01*
X189476190Y-108247619D01*
X189476190Y-107942857D01*
X189514285Y-107866666D01*
X189590476Y-107828571D01*
X189742857Y-107828571D01*
X189819047Y-107866666D01*
X189857142Y-107942857D01*
X189857142Y-108019047D01*
X189476190Y-108095238D01*
X190542857Y-108361904D02*
X190542857Y-107942857D01*
X190504761Y-107866666D01*
X190428571Y-107828571D01*
X190276190Y-107828571D01*
X190200000Y-107866666D01*
X190542857Y-108323809D02*
X190466666Y-108361904D01*
X190276190Y-108361904D01*
X190200000Y-108323809D01*
X190161904Y-108247619D01*
X190161904Y-108171428D01*
X190200000Y-108095238D01*
X190276190Y-108057142D01*
X190466666Y-108057142D01*
X190542857Y-108019047D01*
X190923809Y-108361904D02*
X190923809Y-107561904D01*
X191000000Y-108057142D02*
X191228571Y-108361904D01*
X191228571Y-107828571D02*
X190923809Y-108133333D01*
X191876190Y-108323809D02*
X191800000Y-108361904D01*
X191647619Y-108361904D01*
X191571428Y-108323809D01*
X191533333Y-108247619D01*
X191533333Y-107942857D01*
X191571428Y-107866666D01*
X191647619Y-107828571D01*
X191800000Y-107828571D01*
X191876190Y-107866666D01*
X191914285Y-107942857D01*
X191914285Y-108019047D01*
X191533333Y-108095238D01*
X192257142Y-108361904D02*
X192257142Y-107828571D01*
X192257142Y-107980952D02*
X192295238Y-107904761D01*
X192333333Y-107866666D01*
X192409523Y-107828571D01*
X192485714Y-107828571D01*
X193361904Y-108057142D02*
X193971428Y-108057142D01*
X187990476Y-90323809D02*
X188104761Y-90361904D01*
X188295238Y-90361904D01*
X188371428Y-90323809D01*
X188409523Y-90285714D01*
X188447619Y-90209523D01*
X188447619Y-90133333D01*
X188409523Y-90057142D01*
X188371428Y-90019047D01*
X188295238Y-89980952D01*
X188142857Y-89942857D01*
X188066666Y-89904761D01*
X188028571Y-89866666D01*
X187990476Y-89790476D01*
X187990476Y-89714285D01*
X188028571Y-89638095D01*
X188066666Y-89600000D01*
X188142857Y-89561904D01*
X188333333Y-89561904D01*
X188447619Y-89600000D01*
X188790476Y-89828571D02*
X188790476Y-90628571D01*
X188790476Y-89866666D02*
X188866666Y-89828571D01*
X189019047Y-89828571D01*
X189095238Y-89866666D01*
X189133333Y-89904761D01*
X189171428Y-89980952D01*
X189171428Y-90209523D01*
X189133333Y-90285714D01*
X189095238Y-90323809D01*
X189019047Y-90361904D01*
X188866666Y-90361904D01*
X188790476Y-90323809D01*
X189819047Y-90323809D02*
X189742857Y-90361904D01*
X189590476Y-90361904D01*
X189514285Y-90323809D01*
X189476190Y-90247619D01*
X189476190Y-89942857D01*
X189514285Y-89866666D01*
X189590476Y-89828571D01*
X189742857Y-89828571D01*
X189819047Y-89866666D01*
X189857142Y-89942857D01*
X189857142Y-90019047D01*
X189476190Y-90095238D01*
X190542857Y-90361904D02*
X190542857Y-89942857D01*
X190504761Y-89866666D01*
X190428571Y-89828571D01*
X190276190Y-89828571D01*
X190200000Y-89866666D01*
X190542857Y-90323809D02*
X190466666Y-90361904D01*
X190276190Y-90361904D01*
X190200000Y-90323809D01*
X190161904Y-90247619D01*
X190161904Y-90171428D01*
X190200000Y-90095238D01*
X190276190Y-90057142D01*
X190466666Y-90057142D01*
X190542857Y-90019047D01*
X190923809Y-90361904D02*
X190923809Y-89561904D01*
X191000000Y-90057142D02*
X191228571Y-90361904D01*
X191228571Y-89828571D02*
X190923809Y-90133333D01*
X191876190Y-90323809D02*
X191800000Y-90361904D01*
X191647619Y-90361904D01*
X191571428Y-90323809D01*
X191533333Y-90247619D01*
X191533333Y-89942857D01*
X191571428Y-89866666D01*
X191647619Y-89828571D01*
X191800000Y-89828571D01*
X191876190Y-89866666D01*
X191914285Y-89942857D01*
X191914285Y-90019047D01*
X191533333Y-90095238D01*
X192257142Y-90361904D02*
X192257142Y-89828571D01*
X192257142Y-89980952D02*
X192295238Y-89904761D01*
X192333333Y-89866666D01*
X192409523Y-89828571D01*
X192485714Y-89828571D01*
X193361904Y-90057142D02*
X193971428Y-90057142D01*
X193666666Y-90361904D02*
X193666666Y-89752380D01*
D10*
X105302857Y-96821428D02*
X105302857Y-97307142D01*
X105331428Y-97364285D01*
X105360000Y-97392857D01*
X105417142Y-97421428D01*
X105531428Y-97421428D01*
X105588571Y-97392857D01*
X105617142Y-97364285D01*
X105645714Y-97307142D01*
X105645714Y-96821428D01*
X106188571Y-96821428D02*
X106074285Y-96821428D01*
X106017142Y-96850000D01*
X105988571Y-96878571D01*
X105931428Y-96964285D01*
X105902857Y-97078571D01*
X105902857Y-97307142D01*
X105931428Y-97364285D01*
X105960000Y-97392857D01*
X106017142Y-97421428D01*
X106131428Y-97421428D01*
X106188571Y-97392857D01*
X106217142Y-97364285D01*
X106245714Y-97307142D01*
X106245714Y-97164285D01*
X106217142Y-97107142D01*
X106188571Y-97078571D01*
X106131428Y-97050000D01*
X106017142Y-97050000D01*
X105960000Y-97078571D01*
X105931428Y-97107142D01*
X105902857Y-97164285D01*
X112764285Y-106571428D02*
X112564285Y-106285714D01*
X112421428Y-106571428D02*
X112421428Y-105971428D01*
X112650000Y-105971428D01*
X112707142Y-106000000D01*
X112735714Y-106028571D01*
X112764285Y-106085714D01*
X112764285Y-106171428D01*
X112735714Y-106228571D01*
X112707142Y-106257142D01*
X112650000Y-106285714D01*
X112421428Y-106285714D01*
X112992857Y-106028571D02*
X113021428Y-106000000D01*
X113078571Y-105971428D01*
X113221428Y-105971428D01*
X113278571Y-106000000D01*
X113307142Y-106028571D01*
X113335714Y-106085714D01*
X113335714Y-106142857D01*
X113307142Y-106228571D01*
X112964285Y-106571428D01*
X113335714Y-106571428D01*
X113535714Y-105971428D02*
X113935714Y-105971428D01*
X113678571Y-106571428D01*
X107564285Y-95171428D02*
X107364285Y-94885714D01*
X107221428Y-95171428D02*
X107221428Y-94571428D01*
X107450000Y-94571428D01*
X107507142Y-94600000D01*
X107535714Y-94628571D01*
X107564285Y-94685714D01*
X107564285Y-94771428D01*
X107535714Y-94828571D01*
X107507142Y-94857142D01*
X107450000Y-94885714D01*
X107221428Y-94885714D01*
X107792857Y-94628571D02*
X107821428Y-94600000D01*
X107878571Y-94571428D01*
X108021428Y-94571428D01*
X108078571Y-94600000D01*
X108107142Y-94628571D01*
X108135714Y-94685714D01*
X108135714Y-94742857D01*
X108107142Y-94828571D01*
X107764285Y-95171428D01*
X108135714Y-95171428D01*
X108650000Y-94571428D02*
X108535714Y-94571428D01*
X108478571Y-94600000D01*
X108450000Y-94628571D01*
X108392857Y-94714285D01*
X108364285Y-94828571D01*
X108364285Y-95057142D01*
X108392857Y-95114285D01*
X108421428Y-95142857D01*
X108478571Y-95171428D01*
X108592857Y-95171428D01*
X108650000Y-95142857D01*
X108678571Y-95114285D01*
X108707142Y-95057142D01*
X108707142Y-94914285D01*
X108678571Y-94857142D01*
X108650000Y-94828571D01*
X108592857Y-94800000D01*
X108478571Y-94800000D01*
X108421428Y-94828571D01*
X108392857Y-94857142D01*
X108364285Y-94914285D01*
X97389285Y-101921428D02*
X97189285Y-101635714D01*
X97046428Y-101921428D02*
X97046428Y-101321428D01*
X97275000Y-101321428D01*
X97332142Y-101350000D01*
X97360714Y-101378571D01*
X97389285Y-101435714D01*
X97389285Y-101521428D01*
X97360714Y-101578571D01*
X97332142Y-101607142D01*
X97275000Y-101635714D01*
X97046428Y-101635714D01*
X97617857Y-101378571D02*
X97646428Y-101350000D01*
X97703571Y-101321428D01*
X97846428Y-101321428D01*
X97903571Y-101350000D01*
X97932142Y-101378571D01*
X97960714Y-101435714D01*
X97960714Y-101492857D01*
X97932142Y-101578571D01*
X97589285Y-101921428D01*
X97960714Y-101921428D01*
X98503571Y-101321428D02*
X98217857Y-101321428D01*
X98189285Y-101607142D01*
X98217857Y-101578571D01*
X98275000Y-101550000D01*
X98417857Y-101550000D01*
X98475000Y-101578571D01*
X98503571Y-101607142D01*
X98532142Y-101664285D01*
X98532142Y-101807142D01*
X98503571Y-101864285D01*
X98475000Y-101892857D01*
X98417857Y-101921428D01*
X98275000Y-101921428D01*
X98217857Y-101892857D01*
X98189285Y-101864285D01*
X97414285Y-103421428D02*
X97214285Y-103135714D01*
X97071428Y-103421428D02*
X97071428Y-102821428D01*
X97300000Y-102821428D01*
X97357142Y-102850000D01*
X97385714Y-102878571D01*
X97414285Y-102935714D01*
X97414285Y-103021428D01*
X97385714Y-103078571D01*
X97357142Y-103107142D01*
X97300000Y-103135714D01*
X97071428Y-103135714D01*
X97642857Y-102878571D02*
X97671428Y-102850000D01*
X97728571Y-102821428D01*
X97871428Y-102821428D01*
X97928571Y-102850000D01*
X97957142Y-102878571D01*
X97985714Y-102935714D01*
X97985714Y-102992857D01*
X97957142Y-103078571D01*
X97614285Y-103421428D01*
X97985714Y-103421428D01*
X98500000Y-103021428D02*
X98500000Y-103421428D01*
X98357142Y-102792857D02*
X98214285Y-103221428D01*
X98585714Y-103221428D01*
X103389285Y-91271428D02*
X103189285Y-90985714D01*
X103046428Y-91271428D02*
X103046428Y-90671428D01*
X103275000Y-90671428D01*
X103332142Y-90700000D01*
X103360714Y-90728571D01*
X103389285Y-90785714D01*
X103389285Y-90871428D01*
X103360714Y-90928571D01*
X103332142Y-90957142D01*
X103275000Y-90985714D01*
X103046428Y-90985714D01*
X103617857Y-90728571D02*
X103646428Y-90700000D01*
X103703571Y-90671428D01*
X103846428Y-90671428D01*
X103903571Y-90700000D01*
X103932142Y-90728571D01*
X103960714Y-90785714D01*
X103960714Y-90842857D01*
X103932142Y-90928571D01*
X103589285Y-91271428D01*
X103960714Y-91271428D01*
X104160714Y-90671428D02*
X104532142Y-90671428D01*
X104332142Y-90900000D01*
X104417857Y-90900000D01*
X104475000Y-90928571D01*
X104503571Y-90957142D01*
X104532142Y-91014285D01*
X104532142Y-91157142D01*
X104503571Y-91214285D01*
X104475000Y-91242857D01*
X104417857Y-91271428D01*
X104246428Y-91271428D01*
X104189285Y-91242857D01*
X104160714Y-91214285D01*
X103739285Y-94146428D02*
X103539285Y-93860714D01*
X103396428Y-94146428D02*
X103396428Y-93546428D01*
X103625000Y-93546428D01*
X103682142Y-93575000D01*
X103710714Y-93603571D01*
X103739285Y-93660714D01*
X103739285Y-93746428D01*
X103710714Y-93803571D01*
X103682142Y-93832142D01*
X103625000Y-93860714D01*
X103396428Y-93860714D01*
X103967857Y-93603571D02*
X103996428Y-93575000D01*
X104053571Y-93546428D01*
X104196428Y-93546428D01*
X104253571Y-93575000D01*
X104282142Y-93603571D01*
X104310714Y-93660714D01*
X104310714Y-93717857D01*
X104282142Y-93803571D01*
X103939285Y-94146428D01*
X104310714Y-94146428D01*
X104539285Y-93603571D02*
X104567857Y-93575000D01*
X104625000Y-93546428D01*
X104767857Y-93546428D01*
X104825000Y-93575000D01*
X104853571Y-93603571D01*
X104882142Y-93660714D01*
X104882142Y-93717857D01*
X104853571Y-93803571D01*
X104510714Y-94146428D01*
X104882142Y-94146428D01*
X126444285Y-111801428D02*
X126244285Y-111515714D01*
X126101428Y-111801428D02*
X126101428Y-111201428D01*
X126330000Y-111201428D01*
X126387142Y-111230000D01*
X126415714Y-111258571D01*
X126444285Y-111315714D01*
X126444285Y-111401428D01*
X126415714Y-111458571D01*
X126387142Y-111487142D01*
X126330000Y-111515714D01*
X126101428Y-111515714D01*
X126672857Y-111258571D02*
X126701428Y-111230000D01*
X126758571Y-111201428D01*
X126901428Y-111201428D01*
X126958571Y-111230000D01*
X126987142Y-111258571D01*
X127015714Y-111315714D01*
X127015714Y-111372857D01*
X126987142Y-111458571D01*
X126644285Y-111801428D01*
X127015714Y-111801428D01*
X127587142Y-111801428D02*
X127244285Y-111801428D01*
X127415714Y-111801428D02*
X127415714Y-111201428D01*
X127358571Y-111287142D01*
X127301428Y-111344285D01*
X127244285Y-111372857D01*
X117464285Y-103301428D02*
X117264285Y-103015714D01*
X117121428Y-103301428D02*
X117121428Y-102701428D01*
X117350000Y-102701428D01*
X117407142Y-102730000D01*
X117435714Y-102758571D01*
X117464285Y-102815714D01*
X117464285Y-102901428D01*
X117435714Y-102958571D01*
X117407142Y-102987142D01*
X117350000Y-103015714D01*
X117121428Y-103015714D01*
X117692857Y-102758571D02*
X117721428Y-102730000D01*
X117778571Y-102701428D01*
X117921428Y-102701428D01*
X117978571Y-102730000D01*
X118007142Y-102758571D01*
X118035714Y-102815714D01*
X118035714Y-102872857D01*
X118007142Y-102958571D01*
X117664285Y-103301428D01*
X118035714Y-103301428D01*
X118407142Y-102701428D02*
X118464285Y-102701428D01*
X118521428Y-102730000D01*
X118550000Y-102758571D01*
X118578571Y-102815714D01*
X118607142Y-102930000D01*
X118607142Y-103072857D01*
X118578571Y-103187142D01*
X118550000Y-103244285D01*
X118521428Y-103272857D01*
X118464285Y-103301428D01*
X118407142Y-103301428D01*
X118350000Y-103272857D01*
X118321428Y-103244285D01*
X118292857Y-103187142D01*
X118264285Y-103072857D01*
X118264285Y-102930000D01*
X118292857Y-102815714D01*
X118321428Y-102758571D01*
X118350000Y-102730000D01*
X118407142Y-102701428D01*
X126444285Y-101491428D02*
X126244285Y-101205714D01*
X126101428Y-101491428D02*
X126101428Y-100891428D01*
X126330000Y-100891428D01*
X126387142Y-100920000D01*
X126415714Y-100948571D01*
X126444285Y-101005714D01*
X126444285Y-101091428D01*
X126415714Y-101148571D01*
X126387142Y-101177142D01*
X126330000Y-101205714D01*
X126101428Y-101205714D01*
X127015714Y-101491428D02*
X126672857Y-101491428D01*
X126844285Y-101491428D02*
X126844285Y-100891428D01*
X126787142Y-100977142D01*
X126730000Y-101034285D01*
X126672857Y-101062857D01*
X127301428Y-101491428D02*
X127415714Y-101491428D01*
X127472857Y-101462857D01*
X127501428Y-101434285D01*
X127558571Y-101348571D01*
X127587142Y-101234285D01*
X127587142Y-101005714D01*
X127558571Y-100948571D01*
X127530000Y-100920000D01*
X127472857Y-100891428D01*
X127358571Y-100891428D01*
X127301428Y-100920000D01*
X127272857Y-100948571D01*
X127244285Y-101005714D01*
X127244285Y-101148571D01*
X127272857Y-101205714D01*
X127301428Y-101234285D01*
X127358571Y-101262857D01*
X127472857Y-101262857D01*
X127530000Y-101234285D01*
X127558571Y-101205714D01*
X127587142Y-101148571D01*
X126494285Y-89001428D02*
X126294285Y-88715714D01*
X126151428Y-89001428D02*
X126151428Y-88401428D01*
X126380000Y-88401428D01*
X126437142Y-88430000D01*
X126465714Y-88458571D01*
X126494285Y-88515714D01*
X126494285Y-88601428D01*
X126465714Y-88658571D01*
X126437142Y-88687142D01*
X126380000Y-88715714D01*
X126151428Y-88715714D01*
X127065714Y-89001428D02*
X126722857Y-89001428D01*
X126894285Y-89001428D02*
X126894285Y-88401428D01*
X126837142Y-88487142D01*
X126780000Y-88544285D01*
X126722857Y-88572857D01*
X127408571Y-88658571D02*
X127351428Y-88630000D01*
X127322857Y-88601428D01*
X127294285Y-88544285D01*
X127294285Y-88515714D01*
X127322857Y-88458571D01*
X127351428Y-88430000D01*
X127408571Y-88401428D01*
X127522857Y-88401428D01*
X127580000Y-88430000D01*
X127608571Y-88458571D01*
X127637142Y-88515714D01*
X127637142Y-88544285D01*
X127608571Y-88601428D01*
X127580000Y-88630000D01*
X127522857Y-88658571D01*
X127408571Y-88658571D01*
X127351428Y-88687142D01*
X127322857Y-88715714D01*
X127294285Y-88772857D01*
X127294285Y-88887142D01*
X127322857Y-88944285D01*
X127351428Y-88972857D01*
X127408571Y-89001428D01*
X127522857Y-89001428D01*
X127580000Y-88972857D01*
X127608571Y-88944285D01*
X127637142Y-88887142D01*
X127637142Y-88772857D01*
X127608571Y-88715714D01*
X127580000Y-88687142D01*
X127522857Y-88658571D01*
X117939285Y-91471428D02*
X117739285Y-91185714D01*
X117596428Y-91471428D02*
X117596428Y-90871428D01*
X117825000Y-90871428D01*
X117882142Y-90900000D01*
X117910714Y-90928571D01*
X117939285Y-90985714D01*
X117939285Y-91071428D01*
X117910714Y-91128571D01*
X117882142Y-91157142D01*
X117825000Y-91185714D01*
X117596428Y-91185714D01*
X118510714Y-91471428D02*
X118167857Y-91471428D01*
X118339285Y-91471428D02*
X118339285Y-90871428D01*
X118282142Y-90957142D01*
X118225000Y-91014285D01*
X118167857Y-91042857D01*
X118710714Y-90871428D02*
X119110714Y-90871428D01*
X118853571Y-91471428D01*
X126444285Y-78261428D02*
X126244285Y-77975714D01*
X126101428Y-78261428D02*
X126101428Y-77661428D01*
X126330000Y-77661428D01*
X126387142Y-77690000D01*
X126415714Y-77718571D01*
X126444285Y-77775714D01*
X126444285Y-77861428D01*
X126415714Y-77918571D01*
X126387142Y-77947142D01*
X126330000Y-77975714D01*
X126101428Y-77975714D01*
X127015714Y-78261428D02*
X126672857Y-78261428D01*
X126844285Y-78261428D02*
X126844285Y-77661428D01*
X126787142Y-77747142D01*
X126730000Y-77804285D01*
X126672857Y-77832857D01*
X127530000Y-77661428D02*
X127415714Y-77661428D01*
X127358571Y-77690000D01*
X127330000Y-77718571D01*
X127272857Y-77804285D01*
X127244285Y-77918571D01*
X127244285Y-78147142D01*
X127272857Y-78204285D01*
X127301428Y-78232857D01*
X127358571Y-78261428D01*
X127472857Y-78261428D01*
X127530000Y-78232857D01*
X127558571Y-78204285D01*
X127587142Y-78147142D01*
X127587142Y-78004285D01*
X127558571Y-77947142D01*
X127530000Y-77918571D01*
X127472857Y-77890000D01*
X127358571Y-77890000D01*
X127301428Y-77918571D01*
X127272857Y-77947142D01*
X127244285Y-78004285D01*
X98180000Y-81741428D02*
X97980000Y-81455714D01*
X97837142Y-81741428D02*
X97837142Y-81141428D01*
X98065714Y-81141428D01*
X98122857Y-81170000D01*
X98151428Y-81198571D01*
X98180000Y-81255714D01*
X98180000Y-81341428D01*
X98151428Y-81398571D01*
X98122857Y-81427142D01*
X98065714Y-81455714D01*
X97837142Y-81455714D01*
X98722857Y-81141428D02*
X98437142Y-81141428D01*
X98408571Y-81427142D01*
X98437142Y-81398571D01*
X98494285Y-81370000D01*
X98637142Y-81370000D01*
X98694285Y-81398571D01*
X98722857Y-81427142D01*
X98751428Y-81484285D01*
X98751428Y-81627142D01*
X98722857Y-81684285D01*
X98694285Y-81712857D01*
X98637142Y-81741428D01*
X98494285Y-81741428D01*
X98437142Y-81712857D01*
X98408571Y-81684285D01*
X119514285Y-84891428D02*
X119314285Y-84605714D01*
X119171428Y-84891428D02*
X119171428Y-84291428D01*
X119400000Y-84291428D01*
X119457142Y-84320000D01*
X119485714Y-84348571D01*
X119514285Y-84405714D01*
X119514285Y-84491428D01*
X119485714Y-84548571D01*
X119457142Y-84577142D01*
X119400000Y-84605714D01*
X119171428Y-84605714D01*
X120085714Y-84891428D02*
X119742857Y-84891428D01*
X119914285Y-84891428D02*
X119914285Y-84291428D01*
X119857142Y-84377142D01*
X119800000Y-84434285D01*
X119742857Y-84462857D01*
X120457142Y-84291428D02*
X120514285Y-84291428D01*
X120571428Y-84320000D01*
X120600000Y-84348571D01*
X120628571Y-84405714D01*
X120657142Y-84520000D01*
X120657142Y-84662857D01*
X120628571Y-84777142D01*
X120600000Y-84834285D01*
X120571428Y-84862857D01*
X120514285Y-84891428D01*
X120457142Y-84891428D01*
X120400000Y-84862857D01*
X120371428Y-84834285D01*
X120342857Y-84777142D01*
X120314285Y-84662857D01*
X120314285Y-84520000D01*
X120342857Y-84405714D01*
X120371428Y-84348571D01*
X120400000Y-84320000D01*
X120457142Y-84291428D01*
X113560000Y-86631428D02*
X113360000Y-86345714D01*
X113217142Y-86631428D02*
X113217142Y-86031428D01*
X113445714Y-86031428D01*
X113502857Y-86060000D01*
X113531428Y-86088571D01*
X113560000Y-86145714D01*
X113560000Y-86231428D01*
X113531428Y-86288571D01*
X113502857Y-86317142D01*
X113445714Y-86345714D01*
X113217142Y-86345714D01*
X113845714Y-86631428D02*
X113960000Y-86631428D01*
X114017142Y-86602857D01*
X114045714Y-86574285D01*
X114102857Y-86488571D01*
X114131428Y-86374285D01*
X114131428Y-86145714D01*
X114102857Y-86088571D01*
X114074285Y-86060000D01*
X114017142Y-86031428D01*
X113902857Y-86031428D01*
X113845714Y-86060000D01*
X113817142Y-86088571D01*
X113788571Y-86145714D01*
X113788571Y-86288571D01*
X113817142Y-86345714D01*
X113845714Y-86374285D01*
X113902857Y-86402857D01*
X114017142Y-86402857D01*
X114074285Y-86374285D01*
X114102857Y-86345714D01*
X114131428Y-86288571D01*
X99174285Y-86391428D02*
X98974285Y-86105714D01*
X98831428Y-86391428D02*
X98831428Y-85791428D01*
X99060000Y-85791428D01*
X99117142Y-85820000D01*
X99145714Y-85848571D01*
X99174285Y-85905714D01*
X99174285Y-85991428D01*
X99145714Y-86048571D01*
X99117142Y-86077142D01*
X99060000Y-86105714D01*
X98831428Y-86105714D01*
X99745714Y-86391428D02*
X99402857Y-86391428D01*
X99574285Y-86391428D02*
X99574285Y-85791428D01*
X99517142Y-85877142D01*
X99460000Y-85934285D01*
X99402857Y-85962857D01*
X100317142Y-86391428D02*
X99974285Y-86391428D01*
X100145714Y-86391428D02*
X100145714Y-85791428D01*
X100088571Y-85877142D01*
X100031428Y-85934285D01*
X99974285Y-85962857D01*
X113525000Y-82146428D02*
X113325000Y-81860714D01*
X113182142Y-82146428D02*
X113182142Y-81546428D01*
X113410714Y-81546428D01*
X113467857Y-81575000D01*
X113496428Y-81603571D01*
X113525000Y-81660714D01*
X113525000Y-81746428D01*
X113496428Y-81803571D01*
X113467857Y-81832142D01*
X113410714Y-81860714D01*
X113182142Y-81860714D01*
X113725000Y-81546428D02*
X114125000Y-81546428D01*
X113867857Y-82146428D01*
D16*
X100627142Y-87445714D02*
X100527142Y-87302857D01*
X100455714Y-87445714D02*
X100455714Y-87145714D01*
X100570000Y-87145714D01*
X100598571Y-87160000D01*
X100612857Y-87174285D01*
X100627142Y-87202857D01*
X100627142Y-87245714D01*
X100612857Y-87274285D01*
X100598571Y-87288571D01*
X100570000Y-87302857D01*
X100455714Y-87302857D01*
X100912857Y-87445714D02*
X100741428Y-87445714D01*
X100827142Y-87445714D02*
X100827142Y-87145714D01*
X100798571Y-87188571D01*
X100770000Y-87217142D01*
X100741428Y-87231428D01*
X101027142Y-87174285D02*
X101041428Y-87160000D01*
X101070000Y-87145714D01*
X101141428Y-87145714D01*
X101170000Y-87160000D01*
X101184285Y-87174285D01*
X101198571Y-87202857D01*
X101198571Y-87231428D01*
X101184285Y-87274285D01*
X101012857Y-87445714D01*
X101198571Y-87445714D01*
D10*
X97864285Y-87946428D02*
X97664285Y-87660714D01*
X97521428Y-87946428D02*
X97521428Y-87346428D01*
X97750000Y-87346428D01*
X97807142Y-87375000D01*
X97835714Y-87403571D01*
X97864285Y-87460714D01*
X97864285Y-87546428D01*
X97835714Y-87603571D01*
X97807142Y-87632142D01*
X97750000Y-87660714D01*
X97521428Y-87660714D01*
X98435714Y-87946428D02*
X98092857Y-87946428D01*
X98264285Y-87946428D02*
X98264285Y-87346428D01*
X98207142Y-87432142D01*
X98150000Y-87489285D01*
X98092857Y-87517857D01*
X98950000Y-87546428D02*
X98950000Y-87946428D01*
X98807142Y-87317857D02*
X98664285Y-87746428D01*
X99035714Y-87746428D01*
X117060000Y-76291428D02*
X116860000Y-76005714D01*
X116717142Y-76291428D02*
X116717142Y-75691428D01*
X116945714Y-75691428D01*
X117002857Y-75720000D01*
X117031428Y-75748571D01*
X117060000Y-75805714D01*
X117060000Y-75891428D01*
X117031428Y-75948571D01*
X117002857Y-75977142D01*
X116945714Y-76005714D01*
X116717142Y-76005714D01*
X117574285Y-75891428D02*
X117574285Y-76291428D01*
X117431428Y-75662857D02*
X117288571Y-76091428D01*
X117660000Y-76091428D01*
X113075000Y-76433928D02*
X112875000Y-76148214D01*
X112732142Y-76433928D02*
X112732142Y-75833928D01*
X112960714Y-75833928D01*
X113017857Y-75862500D01*
X113046428Y-75891071D01*
X113075000Y-75948214D01*
X113075000Y-76033928D01*
X113046428Y-76091071D01*
X113017857Y-76119642D01*
X112960714Y-76148214D01*
X112732142Y-76148214D01*
X113275000Y-75833928D02*
X113646428Y-75833928D01*
X113446428Y-76062500D01*
X113532142Y-76062500D01*
X113589285Y-76091071D01*
X113617857Y-76119642D01*
X113646428Y-76176785D01*
X113646428Y-76319642D01*
X113617857Y-76376785D01*
X113589285Y-76405357D01*
X113532142Y-76433928D01*
X113360714Y-76433928D01*
X113303571Y-76405357D01*
X113275000Y-76376785D01*
X99740000Y-84901428D02*
X99540000Y-84615714D01*
X99397142Y-84901428D02*
X99397142Y-84301428D01*
X99625714Y-84301428D01*
X99682857Y-84330000D01*
X99711428Y-84358571D01*
X99740000Y-84415714D01*
X99740000Y-84501428D01*
X99711428Y-84558571D01*
X99682857Y-84587142D01*
X99625714Y-84615714D01*
X99397142Y-84615714D01*
X100254285Y-84301428D02*
X100140000Y-84301428D01*
X100082857Y-84330000D01*
X100054285Y-84358571D01*
X99997142Y-84444285D01*
X99968571Y-84558571D01*
X99968571Y-84787142D01*
X99997142Y-84844285D01*
X100025714Y-84872857D01*
X100082857Y-84901428D01*
X100197142Y-84901428D01*
X100254285Y-84872857D01*
X100282857Y-84844285D01*
X100311428Y-84787142D01*
X100311428Y-84644285D01*
X100282857Y-84587142D01*
X100254285Y-84558571D01*
X100197142Y-84530000D01*
X100082857Y-84530000D01*
X100025714Y-84558571D01*
X99997142Y-84587142D01*
X99968571Y-84644285D01*
X152400000Y-99271428D02*
X152114285Y-99271428D01*
X152114285Y-98671428D01*
X152571428Y-98728571D02*
X152600000Y-98700000D01*
X152657142Y-98671428D01*
X152800000Y-98671428D01*
X152857142Y-98700000D01*
X152885714Y-98728571D01*
X152914285Y-98785714D01*
X152914285Y-98842857D01*
X152885714Y-98928571D01*
X152542857Y-99271428D01*
X152914285Y-99271428D01*
X152400000Y-64771428D02*
X152114285Y-64771428D01*
X152114285Y-64171428D01*
X152914285Y-64771428D02*
X152571428Y-64771428D01*
X152742857Y-64771428D02*
X152742857Y-64171428D01*
X152685714Y-64257142D01*
X152628571Y-64314285D01*
X152571428Y-64342857D01*
X95570000Y-65431428D02*
X95570000Y-65860000D01*
X95541428Y-65945714D01*
X95484285Y-66002857D01*
X95398571Y-66031428D01*
X95341428Y-66031428D01*
X96141428Y-65431428D02*
X95855714Y-65431428D01*
X95827142Y-65717142D01*
X95855714Y-65688571D01*
X95912857Y-65660000D01*
X96055714Y-65660000D01*
X96112857Y-65688571D01*
X96141428Y-65717142D01*
X96170000Y-65774285D01*
X96170000Y-65917142D01*
X96141428Y-65974285D01*
X96112857Y-66002857D01*
X96055714Y-66031428D01*
X95912857Y-66031428D01*
X95855714Y-66002857D01*
X95827142Y-65974285D01*
X103114285Y-74642857D02*
X103200000Y-74671428D01*
X103342857Y-74671428D01*
X103400000Y-74642857D01*
X103428571Y-74614285D01*
X103457142Y-74557142D01*
X103457142Y-74500000D01*
X103428571Y-74442857D01*
X103400000Y-74414285D01*
X103342857Y-74385714D01*
X103228571Y-74357142D01*
X103171428Y-74328571D01*
X103142857Y-74300000D01*
X103114285Y-74242857D01*
X103114285Y-74185714D01*
X103142857Y-74128571D01*
X103171428Y-74100000D01*
X103228571Y-74071428D01*
X103371428Y-74071428D01*
X103457142Y-74100000D01*
X103714285Y-74671428D02*
X103714285Y-74271428D01*
X103714285Y-74071428D02*
X103685714Y-74100000D01*
X103714285Y-74128571D01*
X103742857Y-74100000D01*
X103714285Y-74071428D01*
X103714285Y-74128571D01*
X104257142Y-74271428D02*
X104257142Y-74757142D01*
X104228571Y-74814285D01*
X104200000Y-74842857D01*
X104142857Y-74871428D01*
X104057142Y-74871428D01*
X104000000Y-74842857D01*
X104257142Y-74642857D02*
X104200000Y-74671428D01*
X104085714Y-74671428D01*
X104028571Y-74642857D01*
X104000000Y-74614285D01*
X103971428Y-74557142D01*
X103971428Y-74385714D01*
X104000000Y-74328571D01*
X104028571Y-74300000D01*
X104085714Y-74271428D01*
X104200000Y-74271428D01*
X104257142Y-74300000D01*
X104542857Y-74271428D02*
X104542857Y-74671428D01*
X104542857Y-74328571D02*
X104571428Y-74300000D01*
X104628571Y-74271428D01*
X104714285Y-74271428D01*
X104771428Y-74300000D01*
X104800000Y-74357142D01*
X104800000Y-74671428D01*
X105342857Y-74671428D02*
X105342857Y-74357142D01*
X105314285Y-74300000D01*
X105257142Y-74271428D01*
X105142857Y-74271428D01*
X105085714Y-74300000D01*
X105342857Y-74642857D02*
X105285714Y-74671428D01*
X105142857Y-74671428D01*
X105085714Y-74642857D01*
X105057142Y-74585714D01*
X105057142Y-74528571D01*
X105085714Y-74471428D01*
X105142857Y-74442857D01*
X105285714Y-74442857D01*
X105342857Y-74414285D01*
X105714285Y-74671428D02*
X105657142Y-74642857D01*
X105628571Y-74585714D01*
X105628571Y-74071428D01*
X187560000Y-92711428D02*
X187560000Y-93140000D01*
X187531428Y-93225714D01*
X187474285Y-93282857D01*
X187388571Y-93311428D01*
X187331428Y-93311428D01*
X188102857Y-92911428D02*
X188102857Y-93311428D01*
X187960000Y-92682857D02*
X187817142Y-93111428D01*
X188188571Y-93111428D01*
X95600000Y-106371428D02*
X95600000Y-106800000D01*
X95571428Y-106885714D01*
X95514285Y-106942857D01*
X95428571Y-106971428D01*
X95371428Y-106971428D01*
X95857142Y-106428571D02*
X95885714Y-106400000D01*
X95942857Y-106371428D01*
X96085714Y-106371428D01*
X96142857Y-106400000D01*
X96171428Y-106428571D01*
X96200000Y-106485714D01*
X96200000Y-106542857D01*
X96171428Y-106628571D01*
X95828571Y-106971428D01*
X96200000Y-106971428D01*
X106042857Y-119950000D02*
X105985714Y-119921428D01*
X105900000Y-119921428D01*
X105814285Y-119950000D01*
X105757142Y-120007142D01*
X105728571Y-120064285D01*
X105700000Y-120178571D01*
X105700000Y-120264285D01*
X105728571Y-120378571D01*
X105757142Y-120435714D01*
X105814285Y-120492857D01*
X105900000Y-120521428D01*
X105957142Y-120521428D01*
X106042857Y-120492857D01*
X106071428Y-120464285D01*
X106071428Y-120264285D01*
X105957142Y-120264285D01*
X106328571Y-120521428D02*
X106328571Y-119921428D01*
X106671428Y-120521428D01*
X106671428Y-119921428D01*
X106957142Y-120521428D02*
X106957142Y-119921428D01*
X107100000Y-119921428D01*
X107185714Y-119950000D01*
X107242857Y-120007142D01*
X107271428Y-120064285D01*
X107300000Y-120178571D01*
X107300000Y-120264285D01*
X107271428Y-120378571D01*
X107242857Y-120435714D01*
X107185714Y-120492857D01*
X107100000Y-120521428D01*
X106957142Y-120521428D01*
X140320000Y-57681428D02*
X140320000Y-58110000D01*
X140291428Y-58195714D01*
X140234285Y-58252857D01*
X140148571Y-58281428D01*
X140091428Y-58281428D01*
X140920000Y-58281428D02*
X140577142Y-58281428D01*
X140748571Y-58281428D02*
X140748571Y-57681428D01*
X140691428Y-57767142D01*
X140634285Y-57824285D01*
X140577142Y-57852857D01*
X151860000Y-59080000D02*
X151802857Y-59051428D01*
X151717142Y-59051428D01*
X151631428Y-59080000D01*
X151574285Y-59137142D01*
X151545714Y-59194285D01*
X151517142Y-59308571D01*
X151517142Y-59394285D01*
X151545714Y-59508571D01*
X151574285Y-59565714D01*
X151631428Y-59622857D01*
X151717142Y-59651428D01*
X151774285Y-59651428D01*
X151860000Y-59622857D01*
X151888571Y-59594285D01*
X151888571Y-59394285D01*
X151774285Y-59394285D01*
X152145714Y-59651428D02*
X152145714Y-59051428D01*
X152488571Y-59651428D01*
X152488571Y-59051428D01*
X152774285Y-59651428D02*
X152774285Y-59051428D01*
X152917142Y-59051428D01*
X153002857Y-59080000D01*
X153060000Y-59137142D01*
X153088571Y-59194285D01*
X153117142Y-59308571D01*
X153117142Y-59394285D01*
X153088571Y-59508571D01*
X153060000Y-59565714D01*
X153002857Y-59622857D01*
X152917142Y-59651428D01*
X152774285Y-59651428D01*
X153374285Y-59651428D02*
X153374285Y-59051428D01*
X153602857Y-59051428D01*
X153660000Y-59080000D01*
X153688571Y-59108571D01*
X153717142Y-59165714D01*
X153717142Y-59251428D01*
X153688571Y-59308571D01*
X153660000Y-59337142D01*
X153602857Y-59365714D01*
X153374285Y-59365714D01*
X153917142Y-59051428D02*
X154060000Y-59651428D01*
X154174285Y-59222857D01*
X154288571Y-59651428D01*
X154431428Y-59051428D01*
X155002857Y-59651428D02*
X154802857Y-59365714D01*
X154660000Y-59651428D02*
X154660000Y-59051428D01*
X154888571Y-59051428D01*
X154945714Y-59080000D01*
X154974285Y-59108571D01*
X155002857Y-59165714D01*
X155002857Y-59251428D01*
X154974285Y-59308571D01*
X154945714Y-59337142D01*
X154888571Y-59365714D01*
X154660000Y-59365714D01*
X138752857Y-59442857D02*
X139210000Y-59442857D01*
X138981428Y-59671428D02*
X138981428Y-59214285D01*
X139810000Y-59671428D02*
X139467142Y-59671428D01*
X139638571Y-59671428D02*
X139638571Y-59071428D01*
X139581428Y-59157142D01*
X139524285Y-59214285D01*
X139467142Y-59242857D01*
X140152857Y-59328571D02*
X140095714Y-59300000D01*
X140067142Y-59271428D01*
X140038571Y-59214285D01*
X140038571Y-59185714D01*
X140067142Y-59128571D01*
X140095714Y-59100000D01*
X140152857Y-59071428D01*
X140267142Y-59071428D01*
X140324285Y-59100000D01*
X140352857Y-59128571D01*
X140381428Y-59185714D01*
X140381428Y-59214285D01*
X140352857Y-59271428D01*
X140324285Y-59300000D01*
X140267142Y-59328571D01*
X140152857Y-59328571D01*
X140095714Y-59357142D01*
X140067142Y-59385714D01*
X140038571Y-59442857D01*
X140038571Y-59557142D01*
X140067142Y-59614285D01*
X140095714Y-59642857D01*
X140152857Y-59671428D01*
X140267142Y-59671428D01*
X140324285Y-59642857D01*
X140352857Y-59614285D01*
X140381428Y-59557142D01*
X140381428Y-59442857D01*
X140352857Y-59385714D01*
X140324285Y-59357142D01*
X140267142Y-59328571D01*
X140552857Y-59071428D02*
X140752857Y-59671428D01*
X140952857Y-59071428D01*
X116452857Y-108021428D02*
X116452857Y-108507142D01*
X116481428Y-108564285D01*
X116510000Y-108592857D01*
X116567142Y-108621428D01*
X116681428Y-108621428D01*
X116738571Y-108592857D01*
X116767142Y-108564285D01*
X116795714Y-108507142D01*
X116795714Y-108021428D01*
X117338571Y-108221428D02*
X117338571Y-108621428D01*
X117195714Y-107992857D02*
X117052857Y-108421428D01*
X117424285Y-108421428D01*
X116502857Y-96201428D02*
X116502857Y-96687142D01*
X116531428Y-96744285D01*
X116560000Y-96772857D01*
X116617142Y-96801428D01*
X116731428Y-96801428D01*
X116788571Y-96772857D01*
X116817142Y-96744285D01*
X116845714Y-96687142D01*
X116845714Y-96201428D01*
X117074285Y-96201428D02*
X117445714Y-96201428D01*
X117245714Y-96430000D01*
X117331428Y-96430000D01*
X117388571Y-96458571D01*
X117417142Y-96487142D01*
X117445714Y-96544285D01*
X117445714Y-96687142D01*
X117417142Y-96744285D01*
X117388571Y-96772857D01*
X117331428Y-96801428D01*
X117160000Y-96801428D01*
X117102857Y-96772857D01*
X117074285Y-96744285D01*
X170544285Y-117264285D02*
X170515714Y-117292857D01*
X170430000Y-117321428D01*
X170372857Y-117321428D01*
X170287142Y-117292857D01*
X170230000Y-117235714D01*
X170201428Y-117178571D01*
X170172857Y-117064285D01*
X170172857Y-116978571D01*
X170201428Y-116864285D01*
X170230000Y-116807142D01*
X170287142Y-116750000D01*
X170372857Y-116721428D01*
X170430000Y-116721428D01*
X170515714Y-116750000D01*
X170544285Y-116778571D01*
X170772857Y-116778571D02*
X170801428Y-116750000D01*
X170858571Y-116721428D01*
X171001428Y-116721428D01*
X171058571Y-116750000D01*
X171087142Y-116778571D01*
X171115714Y-116835714D01*
X171115714Y-116892857D01*
X171087142Y-116978571D01*
X170744285Y-117321428D01*
X171115714Y-117321428D01*
X171487142Y-116721428D02*
X171544285Y-116721428D01*
X171601428Y-116750000D01*
X171630000Y-116778571D01*
X171658571Y-116835714D01*
X171687142Y-116950000D01*
X171687142Y-117092857D01*
X171658571Y-117207142D01*
X171630000Y-117264285D01*
X171601428Y-117292857D01*
X171544285Y-117321428D01*
X171487142Y-117321428D01*
X171430000Y-117292857D01*
X171401428Y-117264285D01*
X171372857Y-117207142D01*
X171344285Y-117092857D01*
X171344285Y-116950000D01*
X171372857Y-116835714D01*
X171401428Y-116778571D01*
X171430000Y-116750000D01*
X171487142Y-116721428D01*
X170644285Y-72414285D02*
X170615714Y-72442857D01*
X170530000Y-72471428D01*
X170472857Y-72471428D01*
X170387142Y-72442857D01*
X170330000Y-72385714D01*
X170301428Y-72328571D01*
X170272857Y-72214285D01*
X170272857Y-72128571D01*
X170301428Y-72014285D01*
X170330000Y-71957142D01*
X170387142Y-71900000D01*
X170472857Y-71871428D01*
X170530000Y-71871428D01*
X170615714Y-71900000D01*
X170644285Y-71928571D01*
X171215714Y-72471428D02*
X170872857Y-72471428D01*
X171044285Y-72471428D02*
X171044285Y-71871428D01*
X170987142Y-71957142D01*
X170930000Y-72014285D01*
X170872857Y-72042857D01*
X171501428Y-72471428D02*
X171615714Y-72471428D01*
X171672857Y-72442857D01*
X171701428Y-72414285D01*
X171758571Y-72328571D01*
X171787142Y-72214285D01*
X171787142Y-71985714D01*
X171758571Y-71928571D01*
X171730000Y-71900000D01*
X171672857Y-71871428D01*
X171558571Y-71871428D01*
X171501428Y-71900000D01*
X171472857Y-71928571D01*
X171444285Y-71985714D01*
X171444285Y-72128571D01*
X171472857Y-72185714D01*
X171501428Y-72214285D01*
X171558571Y-72242857D01*
X171672857Y-72242857D01*
X171730000Y-72214285D01*
X171758571Y-72185714D01*
X171787142Y-72128571D01*
X123114285Y-110139285D02*
X123085714Y-110167857D01*
X123000000Y-110196428D01*
X122942857Y-110196428D01*
X122857142Y-110167857D01*
X122800000Y-110110714D01*
X122771428Y-110053571D01*
X122742857Y-109939285D01*
X122742857Y-109853571D01*
X122771428Y-109739285D01*
X122800000Y-109682142D01*
X122857142Y-109625000D01*
X122942857Y-109596428D01*
X123000000Y-109596428D01*
X123085714Y-109625000D01*
X123114285Y-109653571D01*
X123685714Y-110196428D02*
X123342857Y-110196428D01*
X123514285Y-110196428D02*
X123514285Y-109596428D01*
X123457142Y-109682142D01*
X123400000Y-109739285D01*
X123342857Y-109767857D01*
X124200000Y-109796428D02*
X124200000Y-110196428D01*
X124057142Y-109567857D02*
X123914285Y-109996428D01*
X124285714Y-109996428D01*
X119939285Y-114389285D02*
X119910714Y-114417857D01*
X119825000Y-114446428D01*
X119767857Y-114446428D01*
X119682142Y-114417857D01*
X119625000Y-114360714D01*
X119596428Y-114303571D01*
X119567857Y-114189285D01*
X119567857Y-114103571D01*
X119596428Y-113989285D01*
X119625000Y-113932142D01*
X119682142Y-113875000D01*
X119767857Y-113846428D01*
X119825000Y-113846428D01*
X119910714Y-113875000D01*
X119939285Y-113903571D01*
X120510714Y-114446428D02*
X120167857Y-114446428D01*
X120339285Y-114446428D02*
X120339285Y-113846428D01*
X120282142Y-113932142D01*
X120225000Y-113989285D01*
X120167857Y-114017857D01*
X120710714Y-113846428D02*
X121082142Y-113846428D01*
X120882142Y-114075000D01*
X120967857Y-114075000D01*
X121025000Y-114103571D01*
X121053571Y-114132142D01*
X121082142Y-114189285D01*
X121082142Y-114332142D01*
X121053571Y-114389285D01*
X121025000Y-114417857D01*
X120967857Y-114446428D01*
X120796428Y-114446428D01*
X120739285Y-114417857D01*
X120710714Y-114389285D01*
X123114285Y-98114285D02*
X123085714Y-98142857D01*
X123000000Y-98171428D01*
X122942857Y-98171428D01*
X122857142Y-98142857D01*
X122800000Y-98085714D01*
X122771428Y-98028571D01*
X122742857Y-97914285D01*
X122742857Y-97828571D01*
X122771428Y-97714285D01*
X122800000Y-97657142D01*
X122857142Y-97600000D01*
X122942857Y-97571428D01*
X123000000Y-97571428D01*
X123085714Y-97600000D01*
X123114285Y-97628571D01*
X123685714Y-98171428D02*
X123342857Y-98171428D01*
X123514285Y-98171428D02*
X123514285Y-97571428D01*
X123457142Y-97657142D01*
X123400000Y-97714285D01*
X123342857Y-97742857D01*
X123914285Y-97628571D02*
X123942857Y-97600000D01*
X124000000Y-97571428D01*
X124142857Y-97571428D01*
X124200000Y-97600000D01*
X124228571Y-97628571D01*
X124257142Y-97685714D01*
X124257142Y-97742857D01*
X124228571Y-97828571D01*
X123885714Y-98171428D01*
X124257142Y-98171428D01*
X118224285Y-101764285D02*
X118195714Y-101792857D01*
X118110000Y-101821428D01*
X118052857Y-101821428D01*
X117967142Y-101792857D01*
X117910000Y-101735714D01*
X117881428Y-101678571D01*
X117852857Y-101564285D01*
X117852857Y-101478571D01*
X117881428Y-101364285D01*
X117910000Y-101307142D01*
X117967142Y-101250000D01*
X118052857Y-101221428D01*
X118110000Y-101221428D01*
X118195714Y-101250000D01*
X118224285Y-101278571D01*
X118795714Y-101821428D02*
X118452857Y-101821428D01*
X118624285Y-101821428D02*
X118624285Y-101221428D01*
X118567142Y-101307142D01*
X118510000Y-101364285D01*
X118452857Y-101392857D01*
X119367142Y-101821428D02*
X119024285Y-101821428D01*
X119195714Y-101821428D02*
X119195714Y-101221428D01*
X119138571Y-101307142D01*
X119081428Y-101364285D01*
X119024285Y-101392857D01*
X113294285Y-85014285D02*
X113265714Y-85042857D01*
X113180000Y-85071428D01*
X113122857Y-85071428D01*
X113037142Y-85042857D01*
X112980000Y-84985714D01*
X112951428Y-84928571D01*
X112922857Y-84814285D01*
X112922857Y-84728571D01*
X112951428Y-84614285D01*
X112980000Y-84557142D01*
X113037142Y-84500000D01*
X113122857Y-84471428D01*
X113180000Y-84471428D01*
X113265714Y-84500000D01*
X113294285Y-84528571D01*
X113865714Y-85071428D02*
X113522857Y-85071428D01*
X113694285Y-85071428D02*
X113694285Y-84471428D01*
X113637142Y-84557142D01*
X113580000Y-84614285D01*
X113522857Y-84642857D01*
X114237142Y-84471428D02*
X114294285Y-84471428D01*
X114351428Y-84500000D01*
X114380000Y-84528571D01*
X114408571Y-84585714D01*
X114437142Y-84700000D01*
X114437142Y-84842857D01*
X114408571Y-84957142D01*
X114380000Y-85014285D01*
X114351428Y-85042857D01*
X114294285Y-85071428D01*
X114237142Y-85071428D01*
X114180000Y-85042857D01*
X114151428Y-85014285D01*
X114122857Y-84957142D01*
X114094285Y-84842857D01*
X114094285Y-84700000D01*
X114122857Y-84585714D01*
X114151428Y-84528571D01*
X114180000Y-84500000D01*
X114237142Y-84471428D01*
X114675000Y-89664285D02*
X114646428Y-89692857D01*
X114560714Y-89721428D01*
X114503571Y-89721428D01*
X114417857Y-89692857D01*
X114360714Y-89635714D01*
X114332142Y-89578571D01*
X114303571Y-89464285D01*
X114303571Y-89378571D01*
X114332142Y-89264285D01*
X114360714Y-89207142D01*
X114417857Y-89150000D01*
X114503571Y-89121428D01*
X114560714Y-89121428D01*
X114646428Y-89150000D01*
X114675000Y-89178571D01*
X114960714Y-89721428D02*
X115075000Y-89721428D01*
X115132142Y-89692857D01*
X115160714Y-89664285D01*
X115217857Y-89578571D01*
X115246428Y-89464285D01*
X115246428Y-89235714D01*
X115217857Y-89178571D01*
X115189285Y-89150000D01*
X115132142Y-89121428D01*
X115017857Y-89121428D01*
X114960714Y-89150000D01*
X114932142Y-89178571D01*
X114903571Y-89235714D01*
X114903571Y-89378571D01*
X114932142Y-89435714D01*
X114960714Y-89464285D01*
X115017857Y-89492857D01*
X115132142Y-89492857D01*
X115189285Y-89464285D01*
X115217857Y-89435714D01*
X115246428Y-89378571D01*
X113550000Y-83589285D02*
X113521428Y-83617857D01*
X113435714Y-83646428D01*
X113378571Y-83646428D01*
X113292857Y-83617857D01*
X113235714Y-83560714D01*
X113207142Y-83503571D01*
X113178571Y-83389285D01*
X113178571Y-83303571D01*
X113207142Y-83189285D01*
X113235714Y-83132142D01*
X113292857Y-83075000D01*
X113378571Y-83046428D01*
X113435714Y-83046428D01*
X113521428Y-83075000D01*
X113550000Y-83103571D01*
X113892857Y-83303571D02*
X113835714Y-83275000D01*
X113807142Y-83246428D01*
X113778571Y-83189285D01*
X113778571Y-83160714D01*
X113807142Y-83103571D01*
X113835714Y-83075000D01*
X113892857Y-83046428D01*
X114007142Y-83046428D01*
X114064285Y-83075000D01*
X114092857Y-83103571D01*
X114121428Y-83160714D01*
X114121428Y-83189285D01*
X114092857Y-83246428D01*
X114064285Y-83275000D01*
X114007142Y-83303571D01*
X113892857Y-83303571D01*
X113835714Y-83332142D01*
X113807142Y-83360714D01*
X113778571Y-83417857D01*
X113778571Y-83532142D01*
X113807142Y-83589285D01*
X113835714Y-83617857D01*
X113892857Y-83646428D01*
X114007142Y-83646428D01*
X114064285Y-83617857D01*
X114092857Y-83589285D01*
X114121428Y-83532142D01*
X114121428Y-83417857D01*
X114092857Y-83360714D01*
X114064285Y-83332142D01*
X114007142Y-83303571D01*
X113500000Y-80539285D02*
X113471428Y-80567857D01*
X113385714Y-80596428D01*
X113328571Y-80596428D01*
X113242857Y-80567857D01*
X113185714Y-80510714D01*
X113157142Y-80453571D01*
X113128571Y-80339285D01*
X113128571Y-80253571D01*
X113157142Y-80139285D01*
X113185714Y-80082142D01*
X113242857Y-80025000D01*
X113328571Y-79996428D01*
X113385714Y-79996428D01*
X113471428Y-80025000D01*
X113500000Y-80053571D01*
X114014285Y-79996428D02*
X113900000Y-79996428D01*
X113842857Y-80025000D01*
X113814285Y-80053571D01*
X113757142Y-80139285D01*
X113728571Y-80253571D01*
X113728571Y-80482142D01*
X113757142Y-80539285D01*
X113785714Y-80567857D01*
X113842857Y-80596428D01*
X113957142Y-80596428D01*
X114014285Y-80567857D01*
X114042857Y-80539285D01*
X114071428Y-80482142D01*
X114071428Y-80339285D01*
X114042857Y-80282142D01*
X114014285Y-80253571D01*
X113957142Y-80225000D01*
X113842857Y-80225000D01*
X113785714Y-80253571D01*
X113757142Y-80282142D01*
X113728571Y-80339285D01*
X125670000Y-58994285D02*
X125641428Y-59022857D01*
X125555714Y-59051428D01*
X125498571Y-59051428D01*
X125412857Y-59022857D01*
X125355714Y-58965714D01*
X125327142Y-58908571D01*
X125298571Y-58794285D01*
X125298571Y-58708571D01*
X125327142Y-58594285D01*
X125355714Y-58537142D01*
X125412857Y-58480000D01*
X125498571Y-58451428D01*
X125555714Y-58451428D01*
X125641428Y-58480000D01*
X125670000Y-58508571D01*
X125898571Y-58508571D02*
X125927142Y-58480000D01*
X125984285Y-58451428D01*
X126127142Y-58451428D01*
X126184285Y-58480000D01*
X126212857Y-58508571D01*
X126241428Y-58565714D01*
X126241428Y-58622857D01*
X126212857Y-58708571D01*
X125870000Y-59051428D01*
X126241428Y-59051428D01*
%LPC*%
D17*
X98970000Y-78220000D03*
X121320000Y-75650000D03*
D18*
X107170000Y-61500000D03*
D19*
X112250000Y-61500000D03*
D20*
X147655000Y-72885000D03*
D21*
X141355000Y-75165000D03*
X141355000Y-70605000D03*
G36*
G01*
X139327500Y-74417500D02*
X138852500Y-74417500D01*
G75*
G02*
X138615000Y-74180000I0J237500D01*
G01*
X138615000Y-73580000D01*
G75*
G02*
X138852500Y-73342500I237500J0D01*
G01*
X139327500Y-73342500D01*
G75*
G02*
X139565000Y-73580000I0J-237500D01*
G01*
X139565000Y-74180000D01*
G75*
G02*
X139327500Y-74417500I-237500J0D01*
G01*
G37*
G36*
G01*
X139327500Y-76142500D02*
X138852500Y-76142500D01*
G75*
G02*
X138615000Y-75905000I0J237500D01*
G01*
X138615000Y-75305000D01*
G75*
G02*
X138852500Y-75067500I237500J0D01*
G01*
X139327500Y-75067500D01*
G75*
G02*
X139565000Y-75305000I0J-237500D01*
G01*
X139565000Y-75905000D01*
G75*
G02*
X139327500Y-76142500I-237500J0D01*
G01*
G37*
G36*
G01*
X142575000Y-68757500D02*
X142575000Y-68282500D01*
G75*
G02*
X142812500Y-68045000I237500J0D01*
G01*
X143412500Y-68045000D01*
G75*
G02*
X143650000Y-68282500I0J-237500D01*
G01*
X143650000Y-68757500D01*
G75*
G02*
X143412500Y-68995000I-237500J0D01*
G01*
X142812500Y-68995000D01*
G75*
G02*
X142575000Y-68757500I0J237500D01*
G01*
G37*
G36*
G01*
X140850000Y-68757500D02*
X140850000Y-68282500D01*
G75*
G02*
X141087500Y-68045000I237500J0D01*
G01*
X141687500Y-68045000D01*
G75*
G02*
X141925000Y-68282500I0J-237500D01*
G01*
X141925000Y-68757500D01*
G75*
G02*
X141687500Y-68995000I-237500J0D01*
G01*
X141087500Y-68995000D01*
G75*
G02*
X140850000Y-68757500I0J237500D01*
G01*
G37*
D22*
X131400000Y-118080000D03*
X131400000Y-115540000D03*
D23*
X131400000Y-113000000D03*
D24*
X148060000Y-115540000D03*
D22*
X131400000Y-107280000D03*
X131400000Y-104740000D03*
D23*
X131400000Y-102200000D03*
D24*
X148060000Y-104740000D03*
D22*
X131400000Y-95180000D03*
X131400000Y-92640000D03*
D23*
X131400000Y-90100000D03*
D24*
X148060000Y-92640000D03*
D22*
X131400000Y-84480000D03*
X131400000Y-81940000D03*
D23*
X131400000Y-79400000D03*
D24*
X148060000Y-81940000D03*
D25*
X102395000Y-98654150D03*
X101125000Y-98654150D03*
X99855000Y-98654150D03*
X98585000Y-98654150D03*
X98585000Y-93205850D03*
X99855000Y-93205850D03*
X101125000Y-93205850D03*
X102395000Y-93205850D03*
D26*
X111948800Y-82180002D03*
X111948800Y-82830001D03*
X111948800Y-83480002D03*
X111948800Y-84130001D03*
X111948800Y-84780002D03*
X111948800Y-85430001D03*
X111948800Y-86080002D03*
X106310000Y-86080000D03*
X106310000Y-85430001D03*
X106310000Y-84780000D03*
X106310000Y-84130001D03*
X106310000Y-83480002D03*
X106310000Y-82830001D03*
X106310000Y-82180000D03*
D27*
X177500000Y-85250000D03*
X177500000Y-112750000D03*
G36*
G01*
X118812500Y-80437500D02*
X118812500Y-80912500D01*
G75*
G02*
X118575000Y-81150000I-237500J0D01*
G01*
X118075000Y-81150000D01*
G75*
G02*
X117837500Y-80912500I0J237500D01*
G01*
X117837500Y-80437500D01*
G75*
G02*
X118075000Y-80200000I237500J0D01*
G01*
X118575000Y-80200000D01*
G75*
G02*
X118812500Y-80437500I0J-237500D01*
G01*
G37*
G36*
G01*
X120637500Y-80437500D02*
X120637500Y-80912500D01*
G75*
G02*
X120400000Y-81150000I-237500J0D01*
G01*
X119900000Y-81150000D01*
G75*
G02*
X119662500Y-80912500I0J237500D01*
G01*
X119662500Y-80437500D01*
G75*
G02*
X119900000Y-80200000I237500J0D01*
G01*
X120400000Y-80200000D01*
G75*
G02*
X120637500Y-80437500I0J-237500D01*
G01*
G37*
G36*
G01*
X110237500Y-88975000D02*
X109762500Y-88975000D01*
G75*
G02*
X109525000Y-88737500I0J237500D01*
G01*
X109525000Y-88237500D01*
G75*
G02*
X109762500Y-88000000I237500J0D01*
G01*
X110237500Y-88000000D01*
G75*
G02*
X110475000Y-88237500I0J-237500D01*
G01*
X110475000Y-88737500D01*
G75*
G02*
X110237500Y-88975000I-237500J0D01*
G01*
G37*
G36*
G01*
X110237500Y-90800000D02*
X109762500Y-90800000D01*
G75*
G02*
X109525000Y-90562500I0J237500D01*
G01*
X109525000Y-90062500D01*
G75*
G02*
X109762500Y-89825000I237500J0D01*
G01*
X110237500Y-89825000D01*
G75*
G02*
X110475000Y-90062500I0J-237500D01*
G01*
X110475000Y-90562500D01*
G75*
G02*
X110237500Y-90800000I-237500J0D01*
G01*
G37*
G36*
G01*
X112062500Y-90087500D02*
X112062500Y-90562500D01*
G75*
G02*
X111825000Y-90800000I-237500J0D01*
G01*
X111325000Y-90800000D01*
G75*
G02*
X111087500Y-90562500I0J237500D01*
G01*
X111087500Y-90087500D01*
G75*
G02*
X111325000Y-89850000I237500J0D01*
G01*
X111825000Y-89850000D01*
G75*
G02*
X112062500Y-90087500I0J-237500D01*
G01*
G37*
G36*
G01*
X113887500Y-90087500D02*
X113887500Y-90562500D01*
G75*
G02*
X113650000Y-90800000I-237500J0D01*
G01*
X113150000Y-90800000D01*
G75*
G02*
X112912500Y-90562500I0J237500D01*
G01*
X112912500Y-90087500D01*
G75*
G02*
X113150000Y-89850000I237500J0D01*
G01*
X113650000Y-89850000D01*
G75*
G02*
X113887500Y-90087500I0J-237500D01*
G01*
G37*
D10*
G36*
X113125000Y-87550602D02*
G01*
X113149534Y-87550602D01*
X113198365Y-87555412D01*
X113246490Y-87564984D01*
X113293445Y-87579228D01*
X113338778Y-87598005D01*
X113382051Y-87621136D01*
X113422850Y-87648396D01*
X113460779Y-87679524D01*
X113495476Y-87714221D01*
X113526604Y-87752150D01*
X113553864Y-87792949D01*
X113576995Y-87836222D01*
X113595772Y-87881555D01*
X113610016Y-87928510D01*
X113619588Y-87976635D01*
X113624398Y-88025466D01*
X113624398Y-88050000D01*
X113625000Y-88050000D01*
X113625000Y-88550000D01*
X113624398Y-88550000D01*
X113624398Y-88574534D01*
X113619588Y-88623365D01*
X113610016Y-88671490D01*
X113595772Y-88718445D01*
X113576995Y-88763778D01*
X113553864Y-88807051D01*
X113526604Y-88847850D01*
X113495476Y-88885779D01*
X113460779Y-88920476D01*
X113422850Y-88951604D01*
X113382051Y-88978864D01*
X113338778Y-89001995D01*
X113293445Y-89020772D01*
X113246490Y-89035016D01*
X113198365Y-89044588D01*
X113149534Y-89049398D01*
X113125000Y-89049398D01*
X113125000Y-89050000D01*
X112625000Y-89050000D01*
X112625000Y-87550000D01*
X113125000Y-87550000D01*
X113125000Y-87550602D01*
G37*
G36*
X112325000Y-89050000D02*
G01*
X111825000Y-89050000D01*
X111825000Y-89049398D01*
X111800466Y-89049398D01*
X111751635Y-89044588D01*
X111703510Y-89035016D01*
X111656555Y-89020772D01*
X111611222Y-89001995D01*
X111567949Y-88978864D01*
X111527150Y-88951604D01*
X111489221Y-88920476D01*
X111454524Y-88885779D01*
X111423396Y-88847850D01*
X111396136Y-88807051D01*
X111373005Y-88763778D01*
X111354228Y-88718445D01*
X111339984Y-88671490D01*
X111330412Y-88623365D01*
X111325602Y-88574534D01*
X111325602Y-88550000D01*
X111325000Y-88550000D01*
X111325000Y-88050000D01*
X111325602Y-88050000D01*
X111325602Y-88025466D01*
X111330412Y-87976635D01*
X111339984Y-87928510D01*
X111354228Y-87881555D01*
X111373005Y-87836222D01*
X111396136Y-87792949D01*
X111423396Y-87752150D01*
X111454524Y-87714221D01*
X111489221Y-87679524D01*
X111527150Y-87648396D01*
X111567949Y-87621136D01*
X111611222Y-87598005D01*
X111656555Y-87579228D01*
X111703510Y-87564984D01*
X111751635Y-87555412D01*
X111800466Y-87550602D01*
X111825000Y-87550602D01*
X111825000Y-87550000D01*
X112325000Y-87550000D01*
X112325000Y-89050000D01*
G37*
G36*
G01*
X104375000Y-78612500D02*
X104375000Y-78137500D01*
G75*
G02*
X104612500Y-77900000I237500J0D01*
G01*
X105112500Y-77900000D01*
G75*
G02*
X105350000Y-78137500I0J-237500D01*
G01*
X105350000Y-78612500D01*
G75*
G02*
X105112500Y-78850000I-237500J0D01*
G01*
X104612500Y-78850000D01*
G75*
G02*
X104375000Y-78612500I0J237500D01*
G01*
G37*
G36*
G01*
X102550000Y-78612500D02*
X102550000Y-78137500D01*
G75*
G02*
X102787500Y-77900000I237500J0D01*
G01*
X103287500Y-77900000D01*
G75*
G02*
X103525000Y-78137500I0J-237500D01*
G01*
X103525000Y-78612500D01*
G75*
G02*
X103287500Y-78850000I-237500J0D01*
G01*
X102787500Y-78850000D01*
G75*
G02*
X102550000Y-78612500I0J237500D01*
G01*
G37*
G36*
G01*
X106162500Y-79725000D02*
X106637500Y-79725000D01*
G75*
G02*
X106875000Y-79962500I0J-237500D01*
G01*
X106875000Y-80462500D01*
G75*
G02*
X106637500Y-80700000I-237500J0D01*
G01*
X106162500Y-80700000D01*
G75*
G02*
X105925000Y-80462500I0J237500D01*
G01*
X105925000Y-79962500D01*
G75*
G02*
X106162500Y-79725000I237500J0D01*
G01*
G37*
G36*
G01*
X106162500Y-77900000D02*
X106637500Y-77900000D01*
G75*
G02*
X106875000Y-78137500I0J-237500D01*
G01*
X106875000Y-78637500D01*
G75*
G02*
X106637500Y-78875000I-237500J0D01*
G01*
X106162500Y-78875000D01*
G75*
G02*
X105925000Y-78637500I0J237500D01*
G01*
X105925000Y-78137500D01*
G75*
G02*
X106162500Y-77900000I237500J0D01*
G01*
G37*
G36*
X103300000Y-81199398D02*
G01*
X103275466Y-81199398D01*
X103226635Y-81194588D01*
X103178510Y-81185016D01*
X103131555Y-81170772D01*
X103086222Y-81151995D01*
X103042949Y-81128864D01*
X103002150Y-81101604D01*
X102964221Y-81070476D01*
X102929524Y-81035779D01*
X102898396Y-80997850D01*
X102871136Y-80957051D01*
X102848005Y-80913778D01*
X102829228Y-80868445D01*
X102814984Y-80821490D01*
X102805412Y-80773365D01*
X102800602Y-80724534D01*
X102800602Y-80700000D01*
X102800000Y-80700000D01*
X102800000Y-80200000D01*
X102800602Y-80200000D01*
X102800602Y-80175466D01*
X102805412Y-80126635D01*
X102814984Y-80078510D01*
X102829228Y-80031555D01*
X102848005Y-79986222D01*
X102871136Y-79942949D01*
X102898396Y-79902150D01*
X102929524Y-79864221D01*
X102964221Y-79829524D01*
X103002150Y-79798396D01*
X103042949Y-79771136D01*
X103086222Y-79748005D01*
X103131555Y-79729228D01*
X103178510Y-79714984D01*
X103226635Y-79705412D01*
X103275466Y-79700602D01*
X103300000Y-79700602D01*
X103300000Y-79700000D01*
X103800000Y-79700000D01*
X103800000Y-81200000D01*
X103300000Y-81200000D01*
X103300000Y-81199398D01*
G37*
G36*
X104100000Y-79700000D02*
G01*
X104600000Y-79700000D01*
X104600000Y-79700602D01*
X104624534Y-79700602D01*
X104673365Y-79705412D01*
X104721490Y-79714984D01*
X104768445Y-79729228D01*
X104813778Y-79748005D01*
X104857051Y-79771136D01*
X104897850Y-79798396D01*
X104935779Y-79829524D01*
X104970476Y-79864221D01*
X105001604Y-79902150D01*
X105028864Y-79942949D01*
X105051995Y-79986222D01*
X105070772Y-80031555D01*
X105085016Y-80078510D01*
X105094588Y-80126635D01*
X105099398Y-80175466D01*
X105099398Y-80200000D01*
X105100000Y-80200000D01*
X105100000Y-80700000D01*
X105099398Y-80700000D01*
X105099398Y-80724534D01*
X105094588Y-80773365D01*
X105085016Y-80821490D01*
X105070772Y-80868445D01*
X105051995Y-80913778D01*
X105028864Y-80957051D01*
X105001604Y-80997850D01*
X104970476Y-81035779D01*
X104935779Y-81070476D01*
X104897850Y-81101604D01*
X104857051Y-81128864D01*
X104813778Y-81151995D01*
X104768445Y-81170772D01*
X104721490Y-81185016D01*
X104673365Y-81194588D01*
X104624534Y-81199398D01*
X104600000Y-81199398D01*
X104600000Y-81200000D01*
X104100000Y-81200000D01*
X104100000Y-79700000D01*
G37*
G36*
G01*
X100225000Y-83192500D02*
X100225000Y-83667500D01*
G75*
G02*
X99987500Y-83905000I-237500J0D01*
G01*
X99387500Y-83905000D01*
G75*
G02*
X99150000Y-83667500I0J237500D01*
G01*
X99150000Y-83192500D01*
G75*
G02*
X99387500Y-82955000I237500J0D01*
G01*
X99987500Y-82955000D01*
G75*
G02*
X100225000Y-83192500I0J-237500D01*
G01*
G37*
G36*
G01*
X101950000Y-83192500D02*
X101950000Y-83667500D01*
G75*
G02*
X101712500Y-83905000I-237500J0D01*
G01*
X101112500Y-83905000D01*
G75*
G02*
X100875000Y-83667500I0J237500D01*
G01*
X100875000Y-83192500D01*
G75*
G02*
X101112500Y-82955000I237500J0D01*
G01*
X101712500Y-82955000D01*
G75*
G02*
X101950000Y-83192500I0J-237500D01*
G01*
G37*
G36*
G01*
X103802500Y-99625000D02*
X104277500Y-99625000D01*
G75*
G02*
X104515000Y-99862500I0J-237500D01*
G01*
X104515000Y-100462500D01*
G75*
G02*
X104277500Y-100700000I-237500J0D01*
G01*
X103802500Y-100700000D01*
G75*
G02*
X103565000Y-100462500I0J237500D01*
G01*
X103565000Y-99862500D01*
G75*
G02*
X103802500Y-99625000I237500J0D01*
G01*
G37*
G36*
G01*
X103802500Y-97900000D02*
X104277500Y-97900000D01*
G75*
G02*
X104515000Y-98137500I0J-237500D01*
G01*
X104515000Y-98737500D01*
G75*
G02*
X104277500Y-98975000I-237500J0D01*
G01*
X103802500Y-98975000D01*
G75*
G02*
X103565000Y-98737500I0J237500D01*
G01*
X103565000Y-98137500D01*
G75*
G02*
X103802500Y-97900000I237500J0D01*
G01*
G37*
G36*
G01*
X108625000Y-92787500D02*
X108625000Y-93262500D01*
G75*
G02*
X108387500Y-93500000I-237500J0D01*
G01*
X107787500Y-93500000D01*
G75*
G02*
X107550000Y-93262500I0J237500D01*
G01*
X107550000Y-92787500D01*
G75*
G02*
X107787500Y-92550000I237500J0D01*
G01*
X108387500Y-92550000D01*
G75*
G02*
X108625000Y-92787500I0J-237500D01*
G01*
G37*
G36*
G01*
X110350000Y-92787500D02*
X110350000Y-93262500D01*
G75*
G02*
X110112500Y-93500000I-237500J0D01*
G01*
X109512500Y-93500000D01*
G75*
G02*
X109275000Y-93262500I0J237500D01*
G01*
X109275000Y-92787500D01*
G75*
G02*
X109512500Y-92550000I237500J0D01*
G01*
X110112500Y-92550000D01*
G75*
G02*
X110350000Y-92787500I0J-237500D01*
G01*
G37*
G36*
G01*
X100215000Y-80112500D02*
X100215000Y-80587500D01*
G75*
G02*
X99977500Y-80825000I-237500J0D01*
G01*
X99377500Y-80825000D01*
G75*
G02*
X99140000Y-80587500I0J237500D01*
G01*
X99140000Y-80112500D01*
G75*
G02*
X99377500Y-79875000I237500J0D01*
G01*
X99977500Y-79875000D01*
G75*
G02*
X100215000Y-80112500I0J-237500D01*
G01*
G37*
G36*
G01*
X101940000Y-80112500D02*
X101940000Y-80587500D01*
G75*
G02*
X101702500Y-80825000I-237500J0D01*
G01*
X101102500Y-80825000D01*
G75*
G02*
X100865000Y-80587500I0J237500D01*
G01*
X100865000Y-80112500D01*
G75*
G02*
X101102500Y-79875000I237500J0D01*
G01*
X101702500Y-79875000D01*
G75*
G02*
X101940000Y-80112500I0J-237500D01*
G01*
G37*
G36*
G01*
X100025000Y-100187500D02*
X100025000Y-100662500D01*
G75*
G02*
X99787500Y-100900000I-237500J0D01*
G01*
X99187500Y-100900000D01*
G75*
G02*
X98950000Y-100662500I0J237500D01*
G01*
X98950000Y-100187500D01*
G75*
G02*
X99187500Y-99950000I237500J0D01*
G01*
X99787500Y-99950000D01*
G75*
G02*
X100025000Y-100187500I0J-237500D01*
G01*
G37*
G36*
G01*
X101750000Y-100187500D02*
X101750000Y-100662500D01*
G75*
G02*
X101512500Y-100900000I-237500J0D01*
G01*
X100912500Y-100900000D01*
G75*
G02*
X100675000Y-100662500I0J237500D01*
G01*
X100675000Y-100187500D01*
G75*
G02*
X100912500Y-99950000I237500J0D01*
G01*
X101512500Y-99950000D01*
G75*
G02*
X101750000Y-100187500I0J-237500D01*
G01*
G37*
D17*
X109675000Y-78325000D03*
X112400000Y-93500000D03*
X123400000Y-102675000D03*
X191000000Y-106000000D03*
X191000000Y-91750000D03*
X123325000Y-90850000D03*
X104850000Y-104450000D03*
X108250000Y-109650000D03*
X108750000Y-114950000D03*
X112210000Y-67400000D03*
G36*
G01*
X107365000Y-99075000D02*
X107065000Y-99075000D01*
G75*
G02*
X106915000Y-98925000I0J150000D01*
G01*
X106915000Y-97275000D01*
G75*
G02*
X107065000Y-97125000I150000J0D01*
G01*
X107365000Y-97125000D01*
G75*
G02*
X107515000Y-97275000I0J-150000D01*
G01*
X107515000Y-98925000D01*
G75*
G02*
X107365000Y-99075000I-150000J0D01*
G01*
G37*
G36*
G01*
X108635000Y-99075000D02*
X108335000Y-99075000D01*
G75*
G02*
X108185000Y-98925000I0J150000D01*
G01*
X108185000Y-97275000D01*
G75*
G02*
X108335000Y-97125000I150000J0D01*
G01*
X108635000Y-97125000D01*
G75*
G02*
X108785000Y-97275000I0J-150000D01*
G01*
X108785000Y-98925000D01*
G75*
G02*
X108635000Y-99075000I-150000J0D01*
G01*
G37*
G36*
G01*
X109905000Y-99075000D02*
X109605000Y-99075000D01*
G75*
G02*
X109455000Y-98925000I0J150000D01*
G01*
X109455000Y-97275000D01*
G75*
G02*
X109605000Y-97125000I150000J0D01*
G01*
X109905000Y-97125000D01*
G75*
G02*
X110055000Y-97275000I0J-150000D01*
G01*
X110055000Y-98925000D01*
G75*
G02*
X109905000Y-99075000I-150000J0D01*
G01*
G37*
G36*
G01*
X111175000Y-99075000D02*
X110875000Y-99075000D01*
G75*
G02*
X110725000Y-98925000I0J150000D01*
G01*
X110725000Y-97275000D01*
G75*
G02*
X110875000Y-97125000I150000J0D01*
G01*
X111175000Y-97125000D01*
G75*
G02*
X111325000Y-97275000I0J-150000D01*
G01*
X111325000Y-98925000D01*
G75*
G02*
X111175000Y-99075000I-150000J0D01*
G01*
G37*
G36*
G01*
X112445000Y-99075000D02*
X112145000Y-99075000D01*
G75*
G02*
X111995000Y-98925000I0J150000D01*
G01*
X111995000Y-97275000D01*
G75*
G02*
X112145000Y-97125000I150000J0D01*
G01*
X112445000Y-97125000D01*
G75*
G02*
X112595000Y-97275000I0J-150000D01*
G01*
X112595000Y-98925000D01*
G75*
G02*
X112445000Y-99075000I-150000J0D01*
G01*
G37*
G36*
G01*
X113715000Y-99075000D02*
X113415000Y-99075000D01*
G75*
G02*
X113265000Y-98925000I0J150000D01*
G01*
X113265000Y-97275000D01*
G75*
G02*
X113415000Y-97125000I150000J0D01*
G01*
X113715000Y-97125000D01*
G75*
G02*
X113865000Y-97275000I0J-150000D01*
G01*
X113865000Y-98925000D01*
G75*
G02*
X113715000Y-99075000I-150000J0D01*
G01*
G37*
G36*
G01*
X114985000Y-99075000D02*
X114685000Y-99075000D01*
G75*
G02*
X114535000Y-98925000I0J150000D01*
G01*
X114535000Y-97275000D01*
G75*
G02*
X114685000Y-97125000I150000J0D01*
G01*
X114985000Y-97125000D01*
G75*
G02*
X115135000Y-97275000I0J-150000D01*
G01*
X115135000Y-98925000D01*
G75*
G02*
X114985000Y-99075000I-150000J0D01*
G01*
G37*
G36*
G01*
X114985000Y-104025000D02*
X114685000Y-104025000D01*
G75*
G02*
X114535000Y-103875000I0J150000D01*
G01*
X114535000Y-102225000D01*
G75*
G02*
X114685000Y-102075000I150000J0D01*
G01*
X114985000Y-102075000D01*
G75*
G02*
X115135000Y-102225000I0J-150000D01*
G01*
X115135000Y-103875000D01*
G75*
G02*
X114985000Y-104025000I-150000J0D01*
G01*
G37*
G36*
G01*
X113715000Y-104025000D02*
X113415000Y-104025000D01*
G75*
G02*
X113265000Y-103875000I0J150000D01*
G01*
X113265000Y-102225000D01*
G75*
G02*
X113415000Y-102075000I150000J0D01*
G01*
X113715000Y-102075000D01*
G75*
G02*
X113865000Y-102225000I0J-150000D01*
G01*
X113865000Y-103875000D01*
G75*
G02*
X113715000Y-104025000I-150000J0D01*
G01*
G37*
G36*
G01*
X112445000Y-104025000D02*
X112145000Y-104025000D01*
G75*
G02*
X111995000Y-103875000I0J150000D01*
G01*
X111995000Y-102225000D01*
G75*
G02*
X112145000Y-102075000I150000J0D01*
G01*
X112445000Y-102075000D01*
G75*
G02*
X112595000Y-102225000I0J-150000D01*
G01*
X112595000Y-103875000D01*
G75*
G02*
X112445000Y-104025000I-150000J0D01*
G01*
G37*
G36*
G01*
X111175000Y-104025000D02*
X110875000Y-104025000D01*
G75*
G02*
X110725000Y-103875000I0J150000D01*
G01*
X110725000Y-102225000D01*
G75*
G02*
X110875000Y-102075000I150000J0D01*
G01*
X111175000Y-102075000D01*
G75*
G02*
X111325000Y-102225000I0J-150000D01*
G01*
X111325000Y-103875000D01*
G75*
G02*
X111175000Y-104025000I-150000J0D01*
G01*
G37*
G36*
G01*
X109905000Y-104025000D02*
X109605000Y-104025000D01*
G75*
G02*
X109455000Y-103875000I0J150000D01*
G01*
X109455000Y-102225000D01*
G75*
G02*
X109605000Y-102075000I150000J0D01*
G01*
X109905000Y-102075000D01*
G75*
G02*
X110055000Y-102225000I0J-150000D01*
G01*
X110055000Y-103875000D01*
G75*
G02*
X109905000Y-104025000I-150000J0D01*
G01*
G37*
G36*
G01*
X108635000Y-104025000D02*
X108335000Y-104025000D01*
G75*
G02*
X108185000Y-103875000I0J150000D01*
G01*
X108185000Y-102225000D01*
G75*
G02*
X108335000Y-102075000I150000J0D01*
G01*
X108635000Y-102075000D01*
G75*
G02*
X108785000Y-102225000I0J-150000D01*
G01*
X108785000Y-103875000D01*
G75*
G02*
X108635000Y-104025000I-150000J0D01*
G01*
G37*
G36*
G01*
X107365000Y-104025000D02*
X107065000Y-104025000D01*
G75*
G02*
X106915000Y-103875000I0J150000D01*
G01*
X106915000Y-102225000D01*
G75*
G02*
X107065000Y-102075000I150000J0D01*
G01*
X107365000Y-102075000D01*
G75*
G02*
X107515000Y-102225000I0J-150000D01*
G01*
X107515000Y-103875000D01*
G75*
G02*
X107365000Y-104025000I-150000J0D01*
G01*
G37*
G36*
G01*
X114362500Y-105312500D02*
X114362500Y-104837500D01*
G75*
G02*
X114600000Y-104600000I237500J0D01*
G01*
X115100000Y-104600000D01*
G75*
G02*
X115337500Y-104837500I0J-237500D01*
G01*
X115337500Y-105312500D01*
G75*
G02*
X115100000Y-105550000I-237500J0D01*
G01*
X114600000Y-105550000D01*
G75*
G02*
X114362500Y-105312500I0J237500D01*
G01*
G37*
G36*
G01*
X112537500Y-105312500D02*
X112537500Y-104837500D01*
G75*
G02*
X112775000Y-104600000I237500J0D01*
G01*
X113275000Y-104600000D01*
G75*
G02*
X113512500Y-104837500I0J-237500D01*
G01*
X113512500Y-105312500D01*
G75*
G02*
X113275000Y-105550000I-237500J0D01*
G01*
X112775000Y-105550000D01*
G75*
G02*
X112537500Y-105312500I0J237500D01*
G01*
G37*
G36*
G01*
X109250000Y-96312500D02*
X109250000Y-95837500D01*
G75*
G02*
X109487500Y-95600000I237500J0D01*
G01*
X109987500Y-95600000D01*
G75*
G02*
X110225000Y-95837500I0J-237500D01*
G01*
X110225000Y-96312500D01*
G75*
G02*
X109987500Y-96550000I-237500J0D01*
G01*
X109487500Y-96550000D01*
G75*
G02*
X109250000Y-96312500I0J237500D01*
G01*
G37*
G36*
G01*
X107425000Y-96312500D02*
X107425000Y-95837500D01*
G75*
G02*
X107662500Y-95600000I237500J0D01*
G01*
X108162500Y-95600000D01*
G75*
G02*
X108400000Y-95837500I0J-237500D01*
G01*
X108400000Y-96312500D01*
G75*
G02*
X108162500Y-96550000I-237500J0D01*
G01*
X107662500Y-96550000D01*
G75*
G02*
X107425000Y-96312500I0J237500D01*
G01*
G37*
G36*
G01*
X100762500Y-102187500D02*
X100762500Y-101712500D01*
G75*
G02*
X101000000Y-101475000I237500J0D01*
G01*
X101500000Y-101475000D01*
G75*
G02*
X101737500Y-101712500I0J-237500D01*
G01*
X101737500Y-102187500D01*
G75*
G02*
X101500000Y-102425000I-237500J0D01*
G01*
X101000000Y-102425000D01*
G75*
G02*
X100762500Y-102187500I0J237500D01*
G01*
G37*
G36*
G01*
X98937500Y-102187500D02*
X98937500Y-101712500D01*
G75*
G02*
X99175000Y-101475000I237500J0D01*
G01*
X99675000Y-101475000D01*
G75*
G02*
X99912500Y-101712500I0J-237500D01*
G01*
X99912500Y-102187500D01*
G75*
G02*
X99675000Y-102425000I-237500J0D01*
G01*
X99175000Y-102425000D01*
G75*
G02*
X98937500Y-102187500I0J237500D01*
G01*
G37*
G36*
G01*
X100762500Y-103712500D02*
X100762500Y-103237500D01*
G75*
G02*
X101000000Y-103000000I237500J0D01*
G01*
X101500000Y-103000000D01*
G75*
G02*
X101737500Y-103237500I0J-237500D01*
G01*
X101737500Y-103712500D01*
G75*
G02*
X101500000Y-103950000I-237500J0D01*
G01*
X101000000Y-103950000D01*
G75*
G02*
X100762500Y-103712500I0J237500D01*
G01*
G37*
G36*
G01*
X98937500Y-103712500D02*
X98937500Y-103237500D01*
G75*
G02*
X99175000Y-103000000I237500J0D01*
G01*
X99675000Y-103000000D01*
G75*
G02*
X99912500Y-103237500I0J-237500D01*
G01*
X99912500Y-103712500D01*
G75*
G02*
X99675000Y-103950000I-237500J0D01*
G01*
X99175000Y-103950000D01*
G75*
G02*
X98937500Y-103712500I0J237500D01*
G01*
G37*
G36*
G01*
X100850000Y-91137500D02*
X100850000Y-91612500D01*
G75*
G02*
X100612500Y-91850000I-237500J0D01*
G01*
X100112500Y-91850000D01*
G75*
G02*
X99875000Y-91612500I0J237500D01*
G01*
X99875000Y-91137500D01*
G75*
G02*
X100112500Y-90900000I237500J0D01*
G01*
X100612500Y-90900000D01*
G75*
G02*
X100850000Y-91137500I0J-237500D01*
G01*
G37*
G36*
G01*
X102675000Y-91137500D02*
X102675000Y-91612500D01*
G75*
G02*
X102437500Y-91850000I-237500J0D01*
G01*
X101937500Y-91850000D01*
G75*
G02*
X101700000Y-91612500I0J237500D01*
G01*
X101700000Y-91137500D01*
G75*
G02*
X101937500Y-90900000I237500J0D01*
G01*
X102437500Y-90900000D01*
G75*
G02*
X102675000Y-91137500I0J-237500D01*
G01*
G37*
G36*
G01*
X104287500Y-95487500D02*
X103812500Y-95487500D01*
G75*
G02*
X103575000Y-95250000I0J237500D01*
G01*
X103575000Y-94750000D01*
G75*
G02*
X103812500Y-94512500I237500J0D01*
G01*
X104287500Y-94512500D01*
G75*
G02*
X104525000Y-94750000I0J-237500D01*
G01*
X104525000Y-95250000D01*
G75*
G02*
X104287500Y-95487500I-237500J0D01*
G01*
G37*
G36*
G01*
X104287500Y-97312500D02*
X103812500Y-97312500D01*
G75*
G02*
X103575000Y-97075000I0J237500D01*
G01*
X103575000Y-96575000D01*
G75*
G02*
X103812500Y-96337500I237500J0D01*
G01*
X104287500Y-96337500D01*
G75*
G02*
X104525000Y-96575000I0J-237500D01*
G01*
X104525000Y-97075000D01*
G75*
G02*
X104287500Y-97312500I-237500J0D01*
G01*
G37*
G36*
G01*
X125424999Y-118400000D02*
X128275001Y-118400000D01*
G75*
G02*
X128525000Y-118649999I0J-249999D01*
G01*
X128525000Y-119550001D01*
G75*
G02*
X128275001Y-119800000I-249999J0D01*
G01*
X125424999Y-119800000D01*
G75*
G02*
X125175000Y-119550001I0J249999D01*
G01*
X125175000Y-118649999D01*
G75*
G02*
X125424999Y-118400000I249999J0D01*
G01*
G37*
G36*
G01*
X125424999Y-112300000D02*
X128275001Y-112300000D01*
G75*
G02*
X128525000Y-112549999I0J-249999D01*
G01*
X128525000Y-113450001D01*
G75*
G02*
X128275001Y-113700000I-249999J0D01*
G01*
X125424999Y-113700000D01*
G75*
G02*
X125175000Y-113450001I0J249999D01*
G01*
X125175000Y-112549999D01*
G75*
G02*
X125424999Y-112300000I249999J0D01*
G01*
G37*
G36*
G01*
X119650000Y-104462500D02*
X119650000Y-103987500D01*
G75*
G02*
X119887500Y-103750000I237500J0D01*
G01*
X120387500Y-103750000D01*
G75*
G02*
X120625000Y-103987500I0J-237500D01*
G01*
X120625000Y-104462500D01*
G75*
G02*
X120387500Y-104700000I-237500J0D01*
G01*
X119887500Y-104700000D01*
G75*
G02*
X119650000Y-104462500I0J237500D01*
G01*
G37*
G36*
G01*
X117825000Y-104462500D02*
X117825000Y-103987500D01*
G75*
G02*
X118062500Y-103750000I237500J0D01*
G01*
X118562500Y-103750000D01*
G75*
G02*
X118800000Y-103987500I0J-237500D01*
G01*
X118800000Y-104462500D01*
G75*
G02*
X118562500Y-104700000I-237500J0D01*
G01*
X118062500Y-104700000D01*
G75*
G02*
X117825000Y-104462500I0J237500D01*
G01*
G37*
G36*
G01*
X125424999Y-108125000D02*
X128275001Y-108125000D01*
G75*
G02*
X128525000Y-108374999I0J-249999D01*
G01*
X128525000Y-109275001D01*
G75*
G02*
X128275001Y-109525000I-249999J0D01*
G01*
X125424999Y-109525000D01*
G75*
G02*
X125175000Y-109275001I0J249999D01*
G01*
X125175000Y-108374999D01*
G75*
G02*
X125424999Y-108125000I249999J0D01*
G01*
G37*
G36*
G01*
X125424999Y-102025000D02*
X128275001Y-102025000D01*
G75*
G02*
X128525000Y-102274999I0J-249999D01*
G01*
X128525000Y-103175001D01*
G75*
G02*
X128275001Y-103425000I-249999J0D01*
G01*
X125424999Y-103425000D01*
G75*
G02*
X125175000Y-103175001I0J249999D01*
G01*
X125175000Y-102274999D01*
G75*
G02*
X125424999Y-102025000I249999J0D01*
G01*
G37*
G36*
G01*
X125424999Y-95600000D02*
X128275001Y-95600000D01*
G75*
G02*
X128525000Y-95849999I0J-249999D01*
G01*
X128525000Y-96750001D01*
G75*
G02*
X128275001Y-97000000I-249999J0D01*
G01*
X125424999Y-97000000D01*
G75*
G02*
X125175000Y-96750001I0J249999D01*
G01*
X125175000Y-95849999D01*
G75*
G02*
X125424999Y-95600000I249999J0D01*
G01*
G37*
G36*
G01*
X125424999Y-89500000D02*
X128275001Y-89500000D01*
G75*
G02*
X128525000Y-89749999I0J-249999D01*
G01*
X128525000Y-90650001D01*
G75*
G02*
X128275001Y-90900000I-249999J0D01*
G01*
X125424999Y-90900000D01*
G75*
G02*
X125175000Y-90650001I0J249999D01*
G01*
X125175000Y-89749999D01*
G75*
G02*
X125424999Y-89500000I249999J0D01*
G01*
G37*
G36*
G01*
X119650000Y-92612500D02*
X119650000Y-92137500D01*
G75*
G02*
X119887500Y-91900000I237500J0D01*
G01*
X120387500Y-91900000D01*
G75*
G02*
X120625000Y-92137500I0J-237500D01*
G01*
X120625000Y-92612500D01*
G75*
G02*
X120387500Y-92850000I-237500J0D01*
G01*
X119887500Y-92850000D01*
G75*
G02*
X119650000Y-92612500I0J237500D01*
G01*
G37*
G36*
G01*
X117825000Y-92612500D02*
X117825000Y-92137500D01*
G75*
G02*
X118062500Y-91900000I237500J0D01*
G01*
X118562500Y-91900000D01*
G75*
G02*
X118800000Y-92137500I0J-237500D01*
G01*
X118800000Y-92612500D01*
G75*
G02*
X118562500Y-92850000I-237500J0D01*
G01*
X118062500Y-92850000D01*
G75*
G02*
X117825000Y-92612500I0J237500D01*
G01*
G37*
G36*
G01*
X125424999Y-78750000D02*
X128275001Y-78750000D01*
G75*
G02*
X128525000Y-78999999I0J-249999D01*
G01*
X128525000Y-79900001D01*
G75*
G02*
X128275001Y-80150000I-249999J0D01*
G01*
X125424999Y-80150000D01*
G75*
G02*
X125175000Y-79900001I0J249999D01*
G01*
X125175000Y-78999999D01*
G75*
G02*
X125424999Y-78750000I249999J0D01*
G01*
G37*
G36*
G01*
X125424999Y-84850000D02*
X128275001Y-84850000D01*
G75*
G02*
X128525000Y-85099999I0J-249999D01*
G01*
X128525000Y-86000001D01*
G75*
G02*
X128275001Y-86250000I-249999J0D01*
G01*
X125424999Y-86250000D01*
G75*
G02*
X125175000Y-86000001I0J249999D01*
G01*
X125175000Y-85099999D01*
G75*
G02*
X125424999Y-84850000I249999J0D01*
G01*
G37*
G36*
G01*
X100982500Y-82127500D02*
X100982500Y-81652500D01*
G75*
G02*
X101220000Y-81415000I237500J0D01*
G01*
X101720000Y-81415000D01*
G75*
G02*
X101957500Y-81652500I0J-237500D01*
G01*
X101957500Y-82127500D01*
G75*
G02*
X101720000Y-82365000I-237500J0D01*
G01*
X101220000Y-82365000D01*
G75*
G02*
X100982500Y-82127500I0J237500D01*
G01*
G37*
G36*
G01*
X99157500Y-82127500D02*
X99157500Y-81652500D01*
G75*
G02*
X99395000Y-81415000I237500J0D01*
G01*
X99895000Y-81415000D01*
G75*
G02*
X100132500Y-81652500I0J-237500D01*
G01*
X100132500Y-82127500D01*
G75*
G02*
X99895000Y-82365000I-237500J0D01*
G01*
X99395000Y-82365000D01*
G75*
G02*
X99157500Y-82127500I0J237500D01*
G01*
G37*
G36*
G01*
X118087500Y-86287500D02*
X118562500Y-86287500D01*
G75*
G02*
X118800000Y-86525000I0J-237500D01*
G01*
X118800000Y-87025000D01*
G75*
G02*
X118562500Y-87262500I-237500J0D01*
G01*
X118087500Y-87262500D01*
G75*
G02*
X117850000Y-87025000I0J237500D01*
G01*
X117850000Y-86525000D01*
G75*
G02*
X118087500Y-86287500I237500J0D01*
G01*
G37*
G36*
G01*
X118087500Y-84462500D02*
X118562500Y-84462500D01*
G75*
G02*
X118800000Y-84700000I0J-237500D01*
G01*
X118800000Y-85200000D01*
G75*
G02*
X118562500Y-85437500I-237500J0D01*
G01*
X118087500Y-85437500D01*
G75*
G02*
X117850000Y-85200000I0J237500D01*
G01*
X117850000Y-84700000D01*
G75*
G02*
X118087500Y-84462500I237500J0D01*
G01*
G37*
G36*
G01*
X115425000Y-86537500D02*
X115425000Y-87012500D01*
G75*
G02*
X115187500Y-87250000I-237500J0D01*
G01*
X114687500Y-87250000D01*
G75*
G02*
X114450000Y-87012500I0J237500D01*
G01*
X114450000Y-86537500D01*
G75*
G02*
X114687500Y-86300000I237500J0D01*
G01*
X115187500Y-86300000D01*
G75*
G02*
X115425000Y-86537500I0J-237500D01*
G01*
G37*
G36*
G01*
X117250000Y-86537500D02*
X117250000Y-87012500D01*
G75*
G02*
X117012500Y-87250000I-237500J0D01*
G01*
X116512500Y-87250000D01*
G75*
G02*
X116275000Y-87012500I0J237500D01*
G01*
X116275000Y-86537500D01*
G75*
G02*
X116512500Y-86300000I237500J0D01*
G01*
X117012500Y-86300000D01*
G75*
G02*
X117250000Y-86537500I0J-237500D01*
G01*
G37*
G36*
G01*
X101662500Y-86237500D02*
X101662500Y-86712500D01*
G75*
G02*
X101425000Y-86950000I-237500J0D01*
G01*
X100925000Y-86950000D01*
G75*
G02*
X100687500Y-86712500I0J237500D01*
G01*
X100687500Y-86237500D01*
G75*
G02*
X100925000Y-86000000I237500J0D01*
G01*
X101425000Y-86000000D01*
G75*
G02*
X101662500Y-86237500I0J-237500D01*
G01*
G37*
G36*
G01*
X103487500Y-86237500D02*
X103487500Y-86712500D01*
G75*
G02*
X103250000Y-86950000I-237500J0D01*
G01*
X102750000Y-86950000D01*
G75*
G02*
X102512500Y-86712500I0J237500D01*
G01*
X102512500Y-86237500D01*
G75*
G02*
X102750000Y-86000000I237500J0D01*
G01*
X103250000Y-86000000D01*
G75*
G02*
X103487500Y-86237500I0J-237500D01*
G01*
G37*
G36*
G01*
X115450000Y-81962500D02*
X115450000Y-82437500D01*
G75*
G02*
X115212500Y-82675000I-237500J0D01*
G01*
X114712500Y-82675000D01*
G75*
G02*
X114475000Y-82437500I0J237500D01*
G01*
X114475000Y-81962500D01*
G75*
G02*
X114712500Y-81725000I237500J0D01*
G01*
X115212500Y-81725000D01*
G75*
G02*
X115450000Y-81962500I0J-237500D01*
G01*
G37*
G36*
G01*
X117275000Y-81962500D02*
X117275000Y-82437500D01*
G75*
G02*
X117037500Y-82675000I-237500J0D01*
G01*
X116537500Y-82675000D01*
G75*
G02*
X116300000Y-82437500I0J237500D01*
G01*
X116300000Y-81962500D01*
G75*
G02*
X116537500Y-81725000I237500J0D01*
G01*
X117037500Y-81725000D01*
G75*
G02*
X117275000Y-81962500I0J-237500D01*
G01*
G37*
G36*
G01*
X100862500Y-89325000D02*
X101337500Y-89325000D01*
G75*
G02*
X101575000Y-89562500I0J-237500D01*
G01*
X101575000Y-90062500D01*
G75*
G02*
X101337500Y-90300000I-237500J0D01*
G01*
X100862500Y-90300000D01*
G75*
G02*
X100625000Y-90062500I0J237500D01*
G01*
X100625000Y-89562500D01*
G75*
G02*
X100862500Y-89325000I237500J0D01*
G01*
G37*
G36*
G01*
X100862500Y-87500000D02*
X101337500Y-87500000D01*
G75*
G02*
X101575000Y-87737500I0J-237500D01*
G01*
X101575000Y-88237500D01*
G75*
G02*
X101337500Y-88475000I-237500J0D01*
G01*
X100862500Y-88475000D01*
G75*
G02*
X100625000Y-88237500I0J237500D01*
G01*
X100625000Y-87737500D01*
G75*
G02*
X100862500Y-87500000I237500J0D01*
G01*
G37*
G36*
G01*
X99812500Y-88475000D02*
X99337500Y-88475000D01*
G75*
G02*
X99100000Y-88237500I0J237500D01*
G01*
X99100000Y-87737500D01*
G75*
G02*
X99337500Y-87500000I237500J0D01*
G01*
X99812500Y-87500000D01*
G75*
G02*
X100050000Y-87737500I0J-237500D01*
G01*
X100050000Y-88237500D01*
G75*
G02*
X99812500Y-88475000I-237500J0D01*
G01*
G37*
G36*
G01*
X99812500Y-90300000D02*
X99337500Y-90300000D01*
G75*
G02*
X99100000Y-90062500I0J237500D01*
G01*
X99100000Y-89562500D01*
G75*
G02*
X99337500Y-89325000I237500J0D01*
G01*
X99812500Y-89325000D01*
G75*
G02*
X100050000Y-89562500I0J-237500D01*
G01*
X100050000Y-90062500D01*
G75*
G02*
X99812500Y-90300000I-237500J0D01*
G01*
G37*
G36*
G01*
X117252500Y-78645000D02*
X117727500Y-78645000D01*
G75*
G02*
X117965000Y-78882500I0J-237500D01*
G01*
X117965000Y-79382500D01*
G75*
G02*
X117727500Y-79620000I-237500J0D01*
G01*
X117252500Y-79620000D01*
G75*
G02*
X117015000Y-79382500I0J237500D01*
G01*
X117015000Y-78882500D01*
G75*
G02*
X117252500Y-78645000I237500J0D01*
G01*
G37*
G36*
G01*
X117252500Y-76820000D02*
X117727500Y-76820000D01*
G75*
G02*
X117965000Y-77057500I0J-237500D01*
G01*
X117965000Y-77557500D01*
G75*
G02*
X117727500Y-77795000I-237500J0D01*
G01*
X117252500Y-77795000D01*
G75*
G02*
X117015000Y-77557500I0J237500D01*
G01*
X117015000Y-77057500D01*
G75*
G02*
X117252500Y-76820000I237500J0D01*
G01*
G37*
G36*
G01*
X113637500Y-77787500D02*
X113162500Y-77787500D01*
G75*
G02*
X112925000Y-77550000I0J237500D01*
G01*
X112925000Y-77050000D01*
G75*
G02*
X113162500Y-76812500I237500J0D01*
G01*
X113637500Y-76812500D01*
G75*
G02*
X113875000Y-77050000I0J-237500D01*
G01*
X113875000Y-77550000D01*
G75*
G02*
X113637500Y-77787500I-237500J0D01*
G01*
G37*
G36*
G01*
X113637500Y-79612500D02*
X113162500Y-79612500D01*
G75*
G02*
X112925000Y-79375000I0J237500D01*
G01*
X112925000Y-78875000D01*
G75*
G02*
X113162500Y-78637500I237500J0D01*
G01*
X113637500Y-78637500D01*
G75*
G02*
X113875000Y-78875000I0J-237500D01*
G01*
X113875000Y-79375000D01*
G75*
G02*
X113637500Y-79612500I-237500J0D01*
G01*
G37*
G36*
G01*
X102512500Y-85187500D02*
X102512500Y-84712500D01*
G75*
G02*
X102750000Y-84475000I237500J0D01*
G01*
X103250000Y-84475000D01*
G75*
G02*
X103487500Y-84712500I0J-237500D01*
G01*
X103487500Y-85187500D01*
G75*
G02*
X103250000Y-85425000I-237500J0D01*
G01*
X102750000Y-85425000D01*
G75*
G02*
X102512500Y-85187500I0J237500D01*
G01*
G37*
G36*
G01*
X100687500Y-85187500D02*
X100687500Y-84712500D01*
G75*
G02*
X100925000Y-84475000I237500J0D01*
G01*
X101425000Y-84475000D01*
G75*
G02*
X101662500Y-84712500I0J-237500D01*
G01*
X101662500Y-85187500D01*
G75*
G02*
X101425000Y-85425000I-237500J0D01*
G01*
X100925000Y-85425000D01*
G75*
G02*
X100687500Y-85187500I0J237500D01*
G01*
G37*
D28*
X153088000Y-116000000D03*
X167312000Y-116000000D03*
X167312000Y-81500000D03*
X153088000Y-81500000D03*
D10*
G36*
X102375602Y-88250000D02*
G01*
X102375602Y-88225466D01*
X102380412Y-88176635D01*
X102389984Y-88128510D01*
X102404228Y-88081555D01*
X102423005Y-88036222D01*
X102446136Y-87992949D01*
X102473396Y-87952150D01*
X102504524Y-87914221D01*
X102539221Y-87879524D01*
X102577150Y-87848396D01*
X102617949Y-87821136D01*
X102661222Y-87798005D01*
X102706555Y-87779228D01*
X102753510Y-87764984D01*
X102801635Y-87755412D01*
X102850466Y-87750602D01*
X102875000Y-87750602D01*
X102875000Y-87750000D01*
X103375000Y-87750000D01*
X103375000Y-87750602D01*
X103399534Y-87750602D01*
X103448365Y-87755412D01*
X103496490Y-87764984D01*
X103543445Y-87779228D01*
X103588778Y-87798005D01*
X103632051Y-87821136D01*
X103672850Y-87848396D01*
X103710779Y-87879524D01*
X103745476Y-87914221D01*
X103776604Y-87952150D01*
X103803864Y-87992949D01*
X103826995Y-88036222D01*
X103845772Y-88081555D01*
X103860016Y-88128510D01*
X103869588Y-88176635D01*
X103874398Y-88225466D01*
X103874398Y-88250000D01*
X103875000Y-88250000D01*
X103875000Y-88750000D01*
X102375000Y-88750000D01*
X102375000Y-88250000D01*
X102375602Y-88250000D01*
G37*
G36*
X103875000Y-89050000D02*
G01*
X103875000Y-89550000D01*
X103874398Y-89550000D01*
X103874398Y-89574534D01*
X103869588Y-89623365D01*
X103860016Y-89671490D01*
X103845772Y-89718445D01*
X103826995Y-89763778D01*
X103803864Y-89807051D01*
X103776604Y-89847850D01*
X103745476Y-89885779D01*
X103710779Y-89920476D01*
X103672850Y-89951604D01*
X103632051Y-89978864D01*
X103588778Y-90001995D01*
X103543445Y-90020772D01*
X103496490Y-90035016D01*
X103448365Y-90044588D01*
X103399534Y-90049398D01*
X103375000Y-90049398D01*
X103375000Y-90050000D01*
X102875000Y-90050000D01*
X102875000Y-90049398D01*
X102850466Y-90049398D01*
X102801635Y-90044588D01*
X102753510Y-90035016D01*
X102706555Y-90020772D01*
X102661222Y-90001995D01*
X102617949Y-89978864D01*
X102577150Y-89951604D01*
X102539221Y-89920476D01*
X102504524Y-89885779D01*
X102473396Y-89847850D01*
X102446136Y-89807051D01*
X102423005Y-89763778D01*
X102404228Y-89718445D01*
X102389984Y-89671490D01*
X102380412Y-89623365D01*
X102375602Y-89574534D01*
X102375602Y-89550000D01*
X102375000Y-89550000D01*
X102375000Y-89050000D01*
X103875000Y-89050000D01*
G37*
G36*
X116199398Y-78875000D02*
G01*
X116199398Y-78899534D01*
X116194588Y-78948365D01*
X116185016Y-78996490D01*
X116170772Y-79043445D01*
X116151995Y-79088778D01*
X116128864Y-79132051D01*
X116101604Y-79172850D01*
X116070476Y-79210779D01*
X116035779Y-79245476D01*
X115997850Y-79276604D01*
X115957051Y-79303864D01*
X115913778Y-79326995D01*
X115868445Y-79345772D01*
X115821490Y-79360016D01*
X115773365Y-79369588D01*
X115724534Y-79374398D01*
X115700000Y-79374398D01*
X115700000Y-79375000D01*
X115200000Y-79375000D01*
X115200000Y-79374398D01*
X115175466Y-79374398D01*
X115126635Y-79369588D01*
X115078510Y-79360016D01*
X115031555Y-79345772D01*
X114986222Y-79326995D01*
X114942949Y-79303864D01*
X114902150Y-79276604D01*
X114864221Y-79245476D01*
X114829524Y-79210779D01*
X114798396Y-79172850D01*
X114771136Y-79132051D01*
X114748005Y-79088778D01*
X114729228Y-79043445D01*
X114714984Y-78996490D01*
X114705412Y-78948365D01*
X114700602Y-78899534D01*
X114700602Y-78875000D01*
X114700000Y-78875000D01*
X114700000Y-78375000D01*
X116200000Y-78375000D01*
X116200000Y-78875000D01*
X116199398Y-78875000D01*
G37*
G36*
X114700000Y-78075000D02*
G01*
X114700000Y-77575000D01*
X114700602Y-77575000D01*
X114700602Y-77550466D01*
X114705412Y-77501635D01*
X114714984Y-77453510D01*
X114729228Y-77406555D01*
X114748005Y-77361222D01*
X114771136Y-77317949D01*
X114798396Y-77277150D01*
X114829524Y-77239221D01*
X114864221Y-77204524D01*
X114902150Y-77173396D01*
X114942949Y-77146136D01*
X114986222Y-77123005D01*
X115031555Y-77104228D01*
X115078510Y-77089984D01*
X115126635Y-77080412D01*
X115175466Y-77075602D01*
X115200000Y-77075602D01*
X115200000Y-77075000D01*
X115700000Y-77075000D01*
X115700000Y-77075602D01*
X115724534Y-77075602D01*
X115773365Y-77080412D01*
X115821490Y-77089984D01*
X115868445Y-77104228D01*
X115913778Y-77123005D01*
X115957051Y-77146136D01*
X115997850Y-77173396D01*
X116035779Y-77204524D01*
X116070476Y-77239221D01*
X116101604Y-77277150D01*
X116128864Y-77317949D01*
X116151995Y-77361222D01*
X116170772Y-77406555D01*
X116185016Y-77453510D01*
X116194588Y-77501635D01*
X116199398Y-77550466D01*
X116199398Y-77575000D01*
X116200000Y-77575000D01*
X116200000Y-78075000D01*
X114700000Y-78075000D01*
G37*
D18*
X98975000Y-74100000D03*
D19*
X98975000Y-69020000D03*
D18*
X191000000Y-96170000D03*
D19*
X191000000Y-101250000D03*
D18*
X99025000Y-120030000D03*
X99025000Y-114950000D03*
D19*
X99025000Y-109870000D03*
D18*
X143670000Y-61500000D03*
D19*
X148750000Y-61500000D03*
D29*
X119700000Y-106850000D03*
D30*
X118250000Y-107850000D03*
X118250000Y-107350000D03*
X118250000Y-106850000D03*
X118250000Y-106350000D03*
X118250000Y-105850000D03*
X121150000Y-105850000D03*
X121150000Y-106350000D03*
X121150000Y-106850000D03*
X121150000Y-107350000D03*
X121150000Y-107850000D03*
D29*
X119700000Y-95000000D03*
D30*
X118250000Y-96000000D03*
X118250000Y-95500000D03*
X118250000Y-95000000D03*
X118250000Y-94500000D03*
X118250000Y-94000000D03*
X121150000Y-94000000D03*
X121150000Y-94500000D03*
X121150000Y-95000000D03*
X121150000Y-95500000D03*
X121150000Y-96000000D03*
D31*
X173700000Y-123000000D03*
D32*
X173700000Y-119500000D03*
D31*
X173700000Y-75000000D03*
D32*
X173700000Y-78500000D03*
G36*
G01*
X122449997Y-107900000D02*
X123750003Y-107900000D01*
G75*
G02*
X124000000Y-108149997I0J-249997D01*
G01*
X124000000Y-108975003D01*
G75*
G02*
X123750003Y-109225000I-249997J0D01*
G01*
X122449997Y-109225000D01*
G75*
G02*
X122200000Y-108975003I0J249997D01*
G01*
X122200000Y-108149997D01*
G75*
G02*
X122449997Y-107900000I249997J0D01*
G01*
G37*
G36*
G01*
X122449997Y-104775000D02*
X123750003Y-104775000D01*
G75*
G02*
X124000000Y-105024997I0J-249997D01*
G01*
X124000000Y-105850003D01*
G75*
G02*
X123750003Y-106100000I-249997J0D01*
G01*
X122449997Y-106100000D01*
G75*
G02*
X122200000Y-105850003I0J249997D01*
G01*
X122200000Y-105024997D01*
G75*
G02*
X122449997Y-104775000I249997J0D01*
G01*
G37*
G36*
G01*
X121350003Y-110300000D02*
X120049997Y-110300000D01*
G75*
G02*
X119800000Y-110050003I0J249997D01*
G01*
X119800000Y-109224997D01*
G75*
G02*
X120049997Y-108975000I249997J0D01*
G01*
X121350003Y-108975000D01*
G75*
G02*
X121600000Y-109224997I0J-249997D01*
G01*
X121600000Y-110050003D01*
G75*
G02*
X121350003Y-110300000I-249997J0D01*
G01*
G37*
G36*
G01*
X121350003Y-113425000D02*
X120049997Y-113425000D01*
G75*
G02*
X119800000Y-113175003I0J249997D01*
G01*
X119800000Y-112349997D01*
G75*
G02*
X120049997Y-112100000I249997J0D01*
G01*
X121350003Y-112100000D01*
G75*
G02*
X121600000Y-112349997I0J-249997D01*
G01*
X121600000Y-113175003D01*
G75*
G02*
X121350003Y-113425000I-249997J0D01*
G01*
G37*
G36*
G01*
X122449997Y-95837500D02*
X123750003Y-95837500D01*
G75*
G02*
X124000000Y-96087497I0J-249997D01*
G01*
X124000000Y-96912503D01*
G75*
G02*
X123750003Y-97162500I-249997J0D01*
G01*
X122449997Y-97162500D01*
G75*
G02*
X122200000Y-96912503I0J249997D01*
G01*
X122200000Y-96087497D01*
G75*
G02*
X122449997Y-95837500I249997J0D01*
G01*
G37*
G36*
G01*
X122449997Y-92712500D02*
X123750003Y-92712500D01*
G75*
G02*
X124000000Y-92962497I0J-249997D01*
G01*
X124000000Y-93787503D01*
G75*
G02*
X123750003Y-94037500I-249997J0D01*
G01*
X122449997Y-94037500D01*
G75*
G02*
X122200000Y-93787503I0J249997D01*
G01*
X122200000Y-92962497D01*
G75*
G02*
X122449997Y-92712500I249997J0D01*
G01*
G37*
G36*
G01*
X121350003Y-98500000D02*
X120049997Y-98500000D01*
G75*
G02*
X119800000Y-98250003I0J249997D01*
G01*
X119800000Y-97424997D01*
G75*
G02*
X120049997Y-97175000I249997J0D01*
G01*
X121350003Y-97175000D01*
G75*
G02*
X121600000Y-97424997I0J-249997D01*
G01*
X121600000Y-98250003D01*
G75*
G02*
X121350003Y-98500000I-249997J0D01*
G01*
G37*
G36*
G01*
X121350003Y-101625000D02*
X120049997Y-101625000D01*
G75*
G02*
X119800000Y-101375003I0J249997D01*
G01*
X119800000Y-100549997D01*
G75*
G02*
X120049997Y-100300000I249997J0D01*
G01*
X121350003Y-100300000D01*
G75*
G02*
X121600000Y-100549997I0J-249997D01*
G01*
X121600000Y-101375003D01*
G75*
G02*
X121350003Y-101625000I-249997J0D01*
G01*
G37*
G36*
G01*
X116200000Y-85462500D02*
X116200000Y-84987500D01*
G75*
G02*
X116437500Y-84750000I237500J0D01*
G01*
X117037500Y-84750000D01*
G75*
G02*
X117275000Y-84987500I0J-237500D01*
G01*
X117275000Y-85462500D01*
G75*
G02*
X117037500Y-85700000I-237500J0D01*
G01*
X116437500Y-85700000D01*
G75*
G02*
X116200000Y-85462500I0J237500D01*
G01*
G37*
G36*
G01*
X114475000Y-85462500D02*
X114475000Y-84987500D01*
G75*
G02*
X114712500Y-84750000I237500J0D01*
G01*
X115312500Y-84750000D01*
G75*
G02*
X115550000Y-84987500I0J-237500D01*
G01*
X115550000Y-85462500D01*
G75*
G02*
X115312500Y-85700000I-237500J0D01*
G01*
X114712500Y-85700000D01*
G75*
G02*
X114475000Y-85462500I0J237500D01*
G01*
G37*
G36*
G01*
X115537500Y-88062500D02*
X115537500Y-88537500D01*
G75*
G02*
X115300000Y-88775000I-237500J0D01*
G01*
X114700000Y-88775000D01*
G75*
G02*
X114462500Y-88537500I0J237500D01*
G01*
X114462500Y-88062500D01*
G75*
G02*
X114700000Y-87825000I237500J0D01*
G01*
X115300000Y-87825000D01*
G75*
G02*
X115537500Y-88062500I0J-237500D01*
G01*
G37*
G36*
G01*
X117262500Y-88062500D02*
X117262500Y-88537500D01*
G75*
G02*
X117025000Y-88775000I-237500J0D01*
G01*
X116425000Y-88775000D01*
G75*
G02*
X116187500Y-88537500I0J237500D01*
G01*
X116187500Y-88062500D01*
G75*
G02*
X116425000Y-87825000I237500J0D01*
G01*
X117025000Y-87825000D01*
G75*
G02*
X117262500Y-88062500I0J-237500D01*
G01*
G37*
G36*
G01*
X116200000Y-83962500D02*
X116200000Y-83487500D01*
G75*
G02*
X116437500Y-83250000I237500J0D01*
G01*
X117037500Y-83250000D01*
G75*
G02*
X117275000Y-83487500I0J-237500D01*
G01*
X117275000Y-83962500D01*
G75*
G02*
X117037500Y-84200000I-237500J0D01*
G01*
X116437500Y-84200000D01*
G75*
G02*
X116200000Y-83962500I0J237500D01*
G01*
G37*
G36*
G01*
X114475000Y-83962500D02*
X114475000Y-83487500D01*
G75*
G02*
X114712500Y-83250000I237500J0D01*
G01*
X115312500Y-83250000D01*
G75*
G02*
X115550000Y-83487500I0J-237500D01*
G01*
X115550000Y-83962500D01*
G75*
G02*
X115312500Y-84200000I-237500J0D01*
G01*
X114712500Y-84200000D01*
G75*
G02*
X114475000Y-83962500I0J237500D01*
G01*
G37*
G36*
G01*
X116187500Y-80912500D02*
X116187500Y-80437500D01*
G75*
G02*
X116425000Y-80200000I237500J0D01*
G01*
X117025000Y-80200000D01*
G75*
G02*
X117262500Y-80437500I0J-237500D01*
G01*
X117262500Y-80912500D01*
G75*
G02*
X117025000Y-81150000I-237500J0D01*
G01*
X116425000Y-81150000D01*
G75*
G02*
X116187500Y-80912500I0J237500D01*
G01*
G37*
G36*
G01*
X114462500Y-80912500D02*
X114462500Y-80437500D01*
G75*
G02*
X114700000Y-80200000I237500J0D01*
G01*
X115300000Y-80200000D01*
G75*
G02*
X115537500Y-80437500I0J-237500D01*
G01*
X115537500Y-80912500D01*
G75*
G02*
X115300000Y-81150000I-237500J0D01*
G01*
X114700000Y-81150000D01*
G75*
G02*
X114462500Y-80912500I0J237500D01*
G01*
G37*
D33*
X127000000Y-67250000D03*
D34*
X134500000Y-67250000D03*
D35*
X190000000Y-127500000D03*
X100000000Y-127500000D03*
X190000000Y-62500000D03*
X100000000Y-62500000D03*
M02*
