G04 #@! TF.GenerationSoftware,KiCad,Pcbnew,5.1.10*
G04 #@! TF.CreationDate,2021-08-16T10:52:11+12:00*
G04 #@! TF.ProjectId,DClassAmplifier,44436c61-7373-4416-9d70-6c6966696572,rev?*
G04 #@! TF.SameCoordinates,Original*
G04 #@! TF.FileFunction,Paste,Top*
G04 #@! TF.FilePolarity,Positive*
%FSLAX46Y46*%
G04 Gerber Fmt 4.6, Leading zero omitted, Abs format (unit mm)*
G04 Created by KiCad (PCBNEW 5.1.10) date 2021-08-16 10:52:11*
%MOMM*%
%LPD*%
G01*
G04 APERTURE LIST*
%ADD10R,3.050000X2.750000*%
%ADD11R,2.200000X1.200000*%
%ADD12R,0.533400X1.460500*%
%ADD13R,1.473200X0.355600*%
%ADD14R,1.650000X2.600000*%
%ADD15R,0.850000X0.300000*%
G04 APERTURE END LIST*
D10*
X145980000Y-74410000D03*
X149330000Y-71360000D03*
X145980000Y-71360000D03*
X149330000Y-74410000D03*
D11*
X141355000Y-75165000D03*
X141355000Y-70605000D03*
G36*
G01*
X139327500Y-74417500D02*
X138852500Y-74417500D01*
G75*
G02*
X138615000Y-74180000I0J237500D01*
G01*
X138615000Y-73580000D01*
G75*
G02*
X138852500Y-73342500I237500J0D01*
G01*
X139327500Y-73342500D01*
G75*
G02*
X139565000Y-73580000I0J-237500D01*
G01*
X139565000Y-74180000D01*
G75*
G02*
X139327500Y-74417500I-237500J0D01*
G01*
G37*
G36*
G01*
X139327500Y-76142500D02*
X138852500Y-76142500D01*
G75*
G02*
X138615000Y-75905000I0J237500D01*
G01*
X138615000Y-75305000D01*
G75*
G02*
X138852500Y-75067500I237500J0D01*
G01*
X139327500Y-75067500D01*
G75*
G02*
X139565000Y-75305000I0J-237500D01*
G01*
X139565000Y-75905000D01*
G75*
G02*
X139327500Y-76142500I-237500J0D01*
G01*
G37*
G36*
G01*
X142575000Y-68757500D02*
X142575000Y-68282500D01*
G75*
G02*
X142812500Y-68045000I237500J0D01*
G01*
X143412500Y-68045000D01*
G75*
G02*
X143650000Y-68282500I0J-237500D01*
G01*
X143650000Y-68757500D01*
G75*
G02*
X143412500Y-68995000I-237500J0D01*
G01*
X142812500Y-68995000D01*
G75*
G02*
X142575000Y-68757500I0J237500D01*
G01*
G37*
G36*
G01*
X140850000Y-68757500D02*
X140850000Y-68282500D01*
G75*
G02*
X141087500Y-68045000I237500J0D01*
G01*
X141687500Y-68045000D01*
G75*
G02*
X141925000Y-68282500I0J-237500D01*
G01*
X141925000Y-68757500D01*
G75*
G02*
X141687500Y-68995000I-237500J0D01*
G01*
X141087500Y-68995000D01*
G75*
G02*
X140850000Y-68757500I0J237500D01*
G01*
G37*
D12*
X102395000Y-98654150D03*
X101125000Y-98654150D03*
X99855000Y-98654150D03*
X98585000Y-98654150D03*
X98585000Y-93205850D03*
X99855000Y-93205850D03*
X101125000Y-93205850D03*
X102395000Y-93205850D03*
D13*
X111948800Y-82180002D03*
X111948800Y-82830001D03*
X111948800Y-83480002D03*
X111948800Y-84130001D03*
X111948800Y-84780002D03*
X111948800Y-85430001D03*
X111948800Y-86080002D03*
X106310000Y-86080000D03*
X106310000Y-85430001D03*
X106310000Y-84780000D03*
X106310000Y-84130001D03*
X106310000Y-83480002D03*
X106310000Y-82830001D03*
X106310000Y-82180000D03*
G36*
G01*
X118812500Y-80437500D02*
X118812500Y-80912500D01*
G75*
G02*
X118575000Y-81150000I-237500J0D01*
G01*
X118075000Y-81150000D01*
G75*
G02*
X117837500Y-80912500I0J237500D01*
G01*
X117837500Y-80437500D01*
G75*
G02*
X118075000Y-80200000I237500J0D01*
G01*
X118575000Y-80200000D01*
G75*
G02*
X118812500Y-80437500I0J-237500D01*
G01*
G37*
G36*
G01*
X120637500Y-80437500D02*
X120637500Y-80912500D01*
G75*
G02*
X120400000Y-81150000I-237500J0D01*
G01*
X119900000Y-81150000D01*
G75*
G02*
X119662500Y-80912500I0J237500D01*
G01*
X119662500Y-80437500D01*
G75*
G02*
X119900000Y-80200000I237500J0D01*
G01*
X120400000Y-80200000D01*
G75*
G02*
X120637500Y-80437500I0J-237500D01*
G01*
G37*
G36*
G01*
X110237500Y-88975000D02*
X109762500Y-88975000D01*
G75*
G02*
X109525000Y-88737500I0J237500D01*
G01*
X109525000Y-88237500D01*
G75*
G02*
X109762500Y-88000000I237500J0D01*
G01*
X110237500Y-88000000D01*
G75*
G02*
X110475000Y-88237500I0J-237500D01*
G01*
X110475000Y-88737500D01*
G75*
G02*
X110237500Y-88975000I-237500J0D01*
G01*
G37*
G36*
G01*
X110237500Y-90800000D02*
X109762500Y-90800000D01*
G75*
G02*
X109525000Y-90562500I0J237500D01*
G01*
X109525000Y-90062500D01*
G75*
G02*
X109762500Y-89825000I237500J0D01*
G01*
X110237500Y-89825000D01*
G75*
G02*
X110475000Y-90062500I0J-237500D01*
G01*
X110475000Y-90562500D01*
G75*
G02*
X110237500Y-90800000I-237500J0D01*
G01*
G37*
G36*
G01*
X112062500Y-90087500D02*
X112062500Y-90562500D01*
G75*
G02*
X111825000Y-90800000I-237500J0D01*
G01*
X111325000Y-90800000D01*
G75*
G02*
X111087500Y-90562500I0J237500D01*
G01*
X111087500Y-90087500D01*
G75*
G02*
X111325000Y-89850000I237500J0D01*
G01*
X111825000Y-89850000D01*
G75*
G02*
X112062500Y-90087500I0J-237500D01*
G01*
G37*
G36*
G01*
X113887500Y-90087500D02*
X113887500Y-90562500D01*
G75*
G02*
X113650000Y-90800000I-237500J0D01*
G01*
X113150000Y-90800000D01*
G75*
G02*
X112912500Y-90562500I0J237500D01*
G01*
X112912500Y-90087500D01*
G75*
G02*
X113150000Y-89850000I237500J0D01*
G01*
X113650000Y-89850000D01*
G75*
G02*
X113887500Y-90087500I0J-237500D01*
G01*
G37*
G36*
G01*
X104375000Y-78612500D02*
X104375000Y-78137500D01*
G75*
G02*
X104612500Y-77900000I237500J0D01*
G01*
X105112500Y-77900000D01*
G75*
G02*
X105350000Y-78137500I0J-237500D01*
G01*
X105350000Y-78612500D01*
G75*
G02*
X105112500Y-78850000I-237500J0D01*
G01*
X104612500Y-78850000D01*
G75*
G02*
X104375000Y-78612500I0J237500D01*
G01*
G37*
G36*
G01*
X102550000Y-78612500D02*
X102550000Y-78137500D01*
G75*
G02*
X102787500Y-77900000I237500J0D01*
G01*
X103287500Y-77900000D01*
G75*
G02*
X103525000Y-78137500I0J-237500D01*
G01*
X103525000Y-78612500D01*
G75*
G02*
X103287500Y-78850000I-237500J0D01*
G01*
X102787500Y-78850000D01*
G75*
G02*
X102550000Y-78612500I0J237500D01*
G01*
G37*
G36*
G01*
X106162500Y-79725000D02*
X106637500Y-79725000D01*
G75*
G02*
X106875000Y-79962500I0J-237500D01*
G01*
X106875000Y-80462500D01*
G75*
G02*
X106637500Y-80700000I-237500J0D01*
G01*
X106162500Y-80700000D01*
G75*
G02*
X105925000Y-80462500I0J237500D01*
G01*
X105925000Y-79962500D01*
G75*
G02*
X106162500Y-79725000I237500J0D01*
G01*
G37*
G36*
G01*
X106162500Y-77900000D02*
X106637500Y-77900000D01*
G75*
G02*
X106875000Y-78137500I0J-237500D01*
G01*
X106875000Y-78637500D01*
G75*
G02*
X106637500Y-78875000I-237500J0D01*
G01*
X106162500Y-78875000D01*
G75*
G02*
X105925000Y-78637500I0J237500D01*
G01*
X105925000Y-78137500D01*
G75*
G02*
X106162500Y-77900000I237500J0D01*
G01*
G37*
G36*
G01*
X100225000Y-83192500D02*
X100225000Y-83667500D01*
G75*
G02*
X99987500Y-83905000I-237500J0D01*
G01*
X99387500Y-83905000D01*
G75*
G02*
X99150000Y-83667500I0J237500D01*
G01*
X99150000Y-83192500D01*
G75*
G02*
X99387500Y-82955000I237500J0D01*
G01*
X99987500Y-82955000D01*
G75*
G02*
X100225000Y-83192500I0J-237500D01*
G01*
G37*
G36*
G01*
X101950000Y-83192500D02*
X101950000Y-83667500D01*
G75*
G02*
X101712500Y-83905000I-237500J0D01*
G01*
X101112500Y-83905000D01*
G75*
G02*
X100875000Y-83667500I0J237500D01*
G01*
X100875000Y-83192500D01*
G75*
G02*
X101112500Y-82955000I237500J0D01*
G01*
X101712500Y-82955000D01*
G75*
G02*
X101950000Y-83192500I0J-237500D01*
G01*
G37*
G36*
G01*
X103802500Y-99625000D02*
X104277500Y-99625000D01*
G75*
G02*
X104515000Y-99862500I0J-237500D01*
G01*
X104515000Y-100462500D01*
G75*
G02*
X104277500Y-100700000I-237500J0D01*
G01*
X103802500Y-100700000D01*
G75*
G02*
X103565000Y-100462500I0J237500D01*
G01*
X103565000Y-99862500D01*
G75*
G02*
X103802500Y-99625000I237500J0D01*
G01*
G37*
G36*
G01*
X103802500Y-97900000D02*
X104277500Y-97900000D01*
G75*
G02*
X104515000Y-98137500I0J-237500D01*
G01*
X104515000Y-98737500D01*
G75*
G02*
X104277500Y-98975000I-237500J0D01*
G01*
X103802500Y-98975000D01*
G75*
G02*
X103565000Y-98737500I0J237500D01*
G01*
X103565000Y-98137500D01*
G75*
G02*
X103802500Y-97900000I237500J0D01*
G01*
G37*
G36*
G01*
X108625000Y-92787500D02*
X108625000Y-93262500D01*
G75*
G02*
X108387500Y-93500000I-237500J0D01*
G01*
X107787500Y-93500000D01*
G75*
G02*
X107550000Y-93262500I0J237500D01*
G01*
X107550000Y-92787500D01*
G75*
G02*
X107787500Y-92550000I237500J0D01*
G01*
X108387500Y-92550000D01*
G75*
G02*
X108625000Y-92787500I0J-237500D01*
G01*
G37*
G36*
G01*
X110350000Y-92787500D02*
X110350000Y-93262500D01*
G75*
G02*
X110112500Y-93500000I-237500J0D01*
G01*
X109512500Y-93500000D01*
G75*
G02*
X109275000Y-93262500I0J237500D01*
G01*
X109275000Y-92787500D01*
G75*
G02*
X109512500Y-92550000I237500J0D01*
G01*
X110112500Y-92550000D01*
G75*
G02*
X110350000Y-92787500I0J-237500D01*
G01*
G37*
G36*
G01*
X100215000Y-80112500D02*
X100215000Y-80587500D01*
G75*
G02*
X99977500Y-80825000I-237500J0D01*
G01*
X99377500Y-80825000D01*
G75*
G02*
X99140000Y-80587500I0J237500D01*
G01*
X99140000Y-80112500D01*
G75*
G02*
X99377500Y-79875000I237500J0D01*
G01*
X99977500Y-79875000D01*
G75*
G02*
X100215000Y-80112500I0J-237500D01*
G01*
G37*
G36*
G01*
X101940000Y-80112500D02*
X101940000Y-80587500D01*
G75*
G02*
X101702500Y-80825000I-237500J0D01*
G01*
X101102500Y-80825000D01*
G75*
G02*
X100865000Y-80587500I0J237500D01*
G01*
X100865000Y-80112500D01*
G75*
G02*
X101102500Y-79875000I237500J0D01*
G01*
X101702500Y-79875000D01*
G75*
G02*
X101940000Y-80112500I0J-237500D01*
G01*
G37*
G36*
G01*
X100025000Y-100187500D02*
X100025000Y-100662500D01*
G75*
G02*
X99787500Y-100900000I-237500J0D01*
G01*
X99187500Y-100900000D01*
G75*
G02*
X98950000Y-100662500I0J237500D01*
G01*
X98950000Y-100187500D01*
G75*
G02*
X99187500Y-99950000I237500J0D01*
G01*
X99787500Y-99950000D01*
G75*
G02*
X100025000Y-100187500I0J-237500D01*
G01*
G37*
G36*
G01*
X101750000Y-100187500D02*
X101750000Y-100662500D01*
G75*
G02*
X101512500Y-100900000I-237500J0D01*
G01*
X100912500Y-100900000D01*
G75*
G02*
X100675000Y-100662500I0J237500D01*
G01*
X100675000Y-100187500D01*
G75*
G02*
X100912500Y-99950000I237500J0D01*
G01*
X101512500Y-99950000D01*
G75*
G02*
X101750000Y-100187500I0J-237500D01*
G01*
G37*
G36*
G01*
X107365000Y-99075000D02*
X107065000Y-99075000D01*
G75*
G02*
X106915000Y-98925000I0J150000D01*
G01*
X106915000Y-97275000D01*
G75*
G02*
X107065000Y-97125000I150000J0D01*
G01*
X107365000Y-97125000D01*
G75*
G02*
X107515000Y-97275000I0J-150000D01*
G01*
X107515000Y-98925000D01*
G75*
G02*
X107365000Y-99075000I-150000J0D01*
G01*
G37*
G36*
G01*
X108635000Y-99075000D02*
X108335000Y-99075000D01*
G75*
G02*
X108185000Y-98925000I0J150000D01*
G01*
X108185000Y-97275000D01*
G75*
G02*
X108335000Y-97125000I150000J0D01*
G01*
X108635000Y-97125000D01*
G75*
G02*
X108785000Y-97275000I0J-150000D01*
G01*
X108785000Y-98925000D01*
G75*
G02*
X108635000Y-99075000I-150000J0D01*
G01*
G37*
G36*
G01*
X109905000Y-99075000D02*
X109605000Y-99075000D01*
G75*
G02*
X109455000Y-98925000I0J150000D01*
G01*
X109455000Y-97275000D01*
G75*
G02*
X109605000Y-97125000I150000J0D01*
G01*
X109905000Y-97125000D01*
G75*
G02*
X110055000Y-97275000I0J-150000D01*
G01*
X110055000Y-98925000D01*
G75*
G02*
X109905000Y-99075000I-150000J0D01*
G01*
G37*
G36*
G01*
X111175000Y-99075000D02*
X110875000Y-99075000D01*
G75*
G02*
X110725000Y-98925000I0J150000D01*
G01*
X110725000Y-97275000D01*
G75*
G02*
X110875000Y-97125000I150000J0D01*
G01*
X111175000Y-97125000D01*
G75*
G02*
X111325000Y-97275000I0J-150000D01*
G01*
X111325000Y-98925000D01*
G75*
G02*
X111175000Y-99075000I-150000J0D01*
G01*
G37*
G36*
G01*
X112445000Y-99075000D02*
X112145000Y-99075000D01*
G75*
G02*
X111995000Y-98925000I0J150000D01*
G01*
X111995000Y-97275000D01*
G75*
G02*
X112145000Y-97125000I150000J0D01*
G01*
X112445000Y-97125000D01*
G75*
G02*
X112595000Y-97275000I0J-150000D01*
G01*
X112595000Y-98925000D01*
G75*
G02*
X112445000Y-99075000I-150000J0D01*
G01*
G37*
G36*
G01*
X113715000Y-99075000D02*
X113415000Y-99075000D01*
G75*
G02*
X113265000Y-98925000I0J150000D01*
G01*
X113265000Y-97275000D01*
G75*
G02*
X113415000Y-97125000I150000J0D01*
G01*
X113715000Y-97125000D01*
G75*
G02*
X113865000Y-97275000I0J-150000D01*
G01*
X113865000Y-98925000D01*
G75*
G02*
X113715000Y-99075000I-150000J0D01*
G01*
G37*
G36*
G01*
X114985000Y-99075000D02*
X114685000Y-99075000D01*
G75*
G02*
X114535000Y-98925000I0J150000D01*
G01*
X114535000Y-97275000D01*
G75*
G02*
X114685000Y-97125000I150000J0D01*
G01*
X114985000Y-97125000D01*
G75*
G02*
X115135000Y-97275000I0J-150000D01*
G01*
X115135000Y-98925000D01*
G75*
G02*
X114985000Y-99075000I-150000J0D01*
G01*
G37*
G36*
G01*
X114985000Y-104025000D02*
X114685000Y-104025000D01*
G75*
G02*
X114535000Y-103875000I0J150000D01*
G01*
X114535000Y-102225000D01*
G75*
G02*
X114685000Y-102075000I150000J0D01*
G01*
X114985000Y-102075000D01*
G75*
G02*
X115135000Y-102225000I0J-150000D01*
G01*
X115135000Y-103875000D01*
G75*
G02*
X114985000Y-104025000I-150000J0D01*
G01*
G37*
G36*
G01*
X113715000Y-104025000D02*
X113415000Y-104025000D01*
G75*
G02*
X113265000Y-103875000I0J150000D01*
G01*
X113265000Y-102225000D01*
G75*
G02*
X113415000Y-102075000I150000J0D01*
G01*
X113715000Y-102075000D01*
G75*
G02*
X113865000Y-102225000I0J-150000D01*
G01*
X113865000Y-103875000D01*
G75*
G02*
X113715000Y-104025000I-150000J0D01*
G01*
G37*
G36*
G01*
X112445000Y-104025000D02*
X112145000Y-104025000D01*
G75*
G02*
X111995000Y-103875000I0J150000D01*
G01*
X111995000Y-102225000D01*
G75*
G02*
X112145000Y-102075000I150000J0D01*
G01*
X112445000Y-102075000D01*
G75*
G02*
X112595000Y-102225000I0J-150000D01*
G01*
X112595000Y-103875000D01*
G75*
G02*
X112445000Y-104025000I-150000J0D01*
G01*
G37*
G36*
G01*
X111175000Y-104025000D02*
X110875000Y-104025000D01*
G75*
G02*
X110725000Y-103875000I0J150000D01*
G01*
X110725000Y-102225000D01*
G75*
G02*
X110875000Y-102075000I150000J0D01*
G01*
X111175000Y-102075000D01*
G75*
G02*
X111325000Y-102225000I0J-150000D01*
G01*
X111325000Y-103875000D01*
G75*
G02*
X111175000Y-104025000I-150000J0D01*
G01*
G37*
G36*
G01*
X109905000Y-104025000D02*
X109605000Y-104025000D01*
G75*
G02*
X109455000Y-103875000I0J150000D01*
G01*
X109455000Y-102225000D01*
G75*
G02*
X109605000Y-102075000I150000J0D01*
G01*
X109905000Y-102075000D01*
G75*
G02*
X110055000Y-102225000I0J-150000D01*
G01*
X110055000Y-103875000D01*
G75*
G02*
X109905000Y-104025000I-150000J0D01*
G01*
G37*
G36*
G01*
X108635000Y-104025000D02*
X108335000Y-104025000D01*
G75*
G02*
X108185000Y-103875000I0J150000D01*
G01*
X108185000Y-102225000D01*
G75*
G02*
X108335000Y-102075000I150000J0D01*
G01*
X108635000Y-102075000D01*
G75*
G02*
X108785000Y-102225000I0J-150000D01*
G01*
X108785000Y-103875000D01*
G75*
G02*
X108635000Y-104025000I-150000J0D01*
G01*
G37*
G36*
G01*
X107365000Y-104025000D02*
X107065000Y-104025000D01*
G75*
G02*
X106915000Y-103875000I0J150000D01*
G01*
X106915000Y-102225000D01*
G75*
G02*
X107065000Y-102075000I150000J0D01*
G01*
X107365000Y-102075000D01*
G75*
G02*
X107515000Y-102225000I0J-150000D01*
G01*
X107515000Y-103875000D01*
G75*
G02*
X107365000Y-104025000I-150000J0D01*
G01*
G37*
G36*
G01*
X114362500Y-105312500D02*
X114362500Y-104837500D01*
G75*
G02*
X114600000Y-104600000I237500J0D01*
G01*
X115100000Y-104600000D01*
G75*
G02*
X115337500Y-104837500I0J-237500D01*
G01*
X115337500Y-105312500D01*
G75*
G02*
X115100000Y-105550000I-237500J0D01*
G01*
X114600000Y-105550000D01*
G75*
G02*
X114362500Y-105312500I0J237500D01*
G01*
G37*
G36*
G01*
X112537500Y-105312500D02*
X112537500Y-104837500D01*
G75*
G02*
X112775000Y-104600000I237500J0D01*
G01*
X113275000Y-104600000D01*
G75*
G02*
X113512500Y-104837500I0J-237500D01*
G01*
X113512500Y-105312500D01*
G75*
G02*
X113275000Y-105550000I-237500J0D01*
G01*
X112775000Y-105550000D01*
G75*
G02*
X112537500Y-105312500I0J237500D01*
G01*
G37*
G36*
G01*
X109250000Y-96312500D02*
X109250000Y-95837500D01*
G75*
G02*
X109487500Y-95600000I237500J0D01*
G01*
X109987500Y-95600000D01*
G75*
G02*
X110225000Y-95837500I0J-237500D01*
G01*
X110225000Y-96312500D01*
G75*
G02*
X109987500Y-96550000I-237500J0D01*
G01*
X109487500Y-96550000D01*
G75*
G02*
X109250000Y-96312500I0J237500D01*
G01*
G37*
G36*
G01*
X107425000Y-96312500D02*
X107425000Y-95837500D01*
G75*
G02*
X107662500Y-95600000I237500J0D01*
G01*
X108162500Y-95600000D01*
G75*
G02*
X108400000Y-95837500I0J-237500D01*
G01*
X108400000Y-96312500D01*
G75*
G02*
X108162500Y-96550000I-237500J0D01*
G01*
X107662500Y-96550000D01*
G75*
G02*
X107425000Y-96312500I0J237500D01*
G01*
G37*
G36*
G01*
X100762500Y-102187500D02*
X100762500Y-101712500D01*
G75*
G02*
X101000000Y-101475000I237500J0D01*
G01*
X101500000Y-101475000D01*
G75*
G02*
X101737500Y-101712500I0J-237500D01*
G01*
X101737500Y-102187500D01*
G75*
G02*
X101500000Y-102425000I-237500J0D01*
G01*
X101000000Y-102425000D01*
G75*
G02*
X100762500Y-102187500I0J237500D01*
G01*
G37*
G36*
G01*
X98937500Y-102187500D02*
X98937500Y-101712500D01*
G75*
G02*
X99175000Y-101475000I237500J0D01*
G01*
X99675000Y-101475000D01*
G75*
G02*
X99912500Y-101712500I0J-237500D01*
G01*
X99912500Y-102187500D01*
G75*
G02*
X99675000Y-102425000I-237500J0D01*
G01*
X99175000Y-102425000D01*
G75*
G02*
X98937500Y-102187500I0J237500D01*
G01*
G37*
G36*
G01*
X100762500Y-103712500D02*
X100762500Y-103237500D01*
G75*
G02*
X101000000Y-103000000I237500J0D01*
G01*
X101500000Y-103000000D01*
G75*
G02*
X101737500Y-103237500I0J-237500D01*
G01*
X101737500Y-103712500D01*
G75*
G02*
X101500000Y-103950000I-237500J0D01*
G01*
X101000000Y-103950000D01*
G75*
G02*
X100762500Y-103712500I0J237500D01*
G01*
G37*
G36*
G01*
X98937500Y-103712500D02*
X98937500Y-103237500D01*
G75*
G02*
X99175000Y-103000000I237500J0D01*
G01*
X99675000Y-103000000D01*
G75*
G02*
X99912500Y-103237500I0J-237500D01*
G01*
X99912500Y-103712500D01*
G75*
G02*
X99675000Y-103950000I-237500J0D01*
G01*
X99175000Y-103950000D01*
G75*
G02*
X98937500Y-103712500I0J237500D01*
G01*
G37*
G36*
G01*
X100850000Y-91137500D02*
X100850000Y-91612500D01*
G75*
G02*
X100612500Y-91850000I-237500J0D01*
G01*
X100112500Y-91850000D01*
G75*
G02*
X99875000Y-91612500I0J237500D01*
G01*
X99875000Y-91137500D01*
G75*
G02*
X100112500Y-90900000I237500J0D01*
G01*
X100612500Y-90900000D01*
G75*
G02*
X100850000Y-91137500I0J-237500D01*
G01*
G37*
G36*
G01*
X102675000Y-91137500D02*
X102675000Y-91612500D01*
G75*
G02*
X102437500Y-91850000I-237500J0D01*
G01*
X101937500Y-91850000D01*
G75*
G02*
X101700000Y-91612500I0J237500D01*
G01*
X101700000Y-91137500D01*
G75*
G02*
X101937500Y-90900000I237500J0D01*
G01*
X102437500Y-90900000D01*
G75*
G02*
X102675000Y-91137500I0J-237500D01*
G01*
G37*
G36*
G01*
X104287500Y-95487500D02*
X103812500Y-95487500D01*
G75*
G02*
X103575000Y-95250000I0J237500D01*
G01*
X103575000Y-94750000D01*
G75*
G02*
X103812500Y-94512500I237500J0D01*
G01*
X104287500Y-94512500D01*
G75*
G02*
X104525000Y-94750000I0J-237500D01*
G01*
X104525000Y-95250000D01*
G75*
G02*
X104287500Y-95487500I-237500J0D01*
G01*
G37*
G36*
G01*
X104287500Y-97312500D02*
X103812500Y-97312500D01*
G75*
G02*
X103575000Y-97075000I0J237500D01*
G01*
X103575000Y-96575000D01*
G75*
G02*
X103812500Y-96337500I237500J0D01*
G01*
X104287500Y-96337500D01*
G75*
G02*
X104525000Y-96575000I0J-237500D01*
G01*
X104525000Y-97075000D01*
G75*
G02*
X104287500Y-97312500I-237500J0D01*
G01*
G37*
G36*
G01*
X125424999Y-118400000D02*
X128275001Y-118400000D01*
G75*
G02*
X128525000Y-118649999I0J-249999D01*
G01*
X128525000Y-119550001D01*
G75*
G02*
X128275001Y-119800000I-249999J0D01*
G01*
X125424999Y-119800000D01*
G75*
G02*
X125175000Y-119550001I0J249999D01*
G01*
X125175000Y-118649999D01*
G75*
G02*
X125424999Y-118400000I249999J0D01*
G01*
G37*
G36*
G01*
X125424999Y-112300000D02*
X128275001Y-112300000D01*
G75*
G02*
X128525000Y-112549999I0J-249999D01*
G01*
X128525000Y-113450001D01*
G75*
G02*
X128275001Y-113700000I-249999J0D01*
G01*
X125424999Y-113700000D01*
G75*
G02*
X125175000Y-113450001I0J249999D01*
G01*
X125175000Y-112549999D01*
G75*
G02*
X125424999Y-112300000I249999J0D01*
G01*
G37*
G36*
G01*
X119650000Y-104462500D02*
X119650000Y-103987500D01*
G75*
G02*
X119887500Y-103750000I237500J0D01*
G01*
X120387500Y-103750000D01*
G75*
G02*
X120625000Y-103987500I0J-237500D01*
G01*
X120625000Y-104462500D01*
G75*
G02*
X120387500Y-104700000I-237500J0D01*
G01*
X119887500Y-104700000D01*
G75*
G02*
X119650000Y-104462500I0J237500D01*
G01*
G37*
G36*
G01*
X117825000Y-104462500D02*
X117825000Y-103987500D01*
G75*
G02*
X118062500Y-103750000I237500J0D01*
G01*
X118562500Y-103750000D01*
G75*
G02*
X118800000Y-103987500I0J-237500D01*
G01*
X118800000Y-104462500D01*
G75*
G02*
X118562500Y-104700000I-237500J0D01*
G01*
X118062500Y-104700000D01*
G75*
G02*
X117825000Y-104462500I0J237500D01*
G01*
G37*
G36*
G01*
X125424999Y-108125000D02*
X128275001Y-108125000D01*
G75*
G02*
X128525000Y-108374999I0J-249999D01*
G01*
X128525000Y-109275001D01*
G75*
G02*
X128275001Y-109525000I-249999J0D01*
G01*
X125424999Y-109525000D01*
G75*
G02*
X125175000Y-109275001I0J249999D01*
G01*
X125175000Y-108374999D01*
G75*
G02*
X125424999Y-108125000I249999J0D01*
G01*
G37*
G36*
G01*
X125424999Y-102025000D02*
X128275001Y-102025000D01*
G75*
G02*
X128525000Y-102274999I0J-249999D01*
G01*
X128525000Y-103175001D01*
G75*
G02*
X128275001Y-103425000I-249999J0D01*
G01*
X125424999Y-103425000D01*
G75*
G02*
X125175000Y-103175001I0J249999D01*
G01*
X125175000Y-102274999D01*
G75*
G02*
X125424999Y-102025000I249999J0D01*
G01*
G37*
G36*
G01*
X125424999Y-95600000D02*
X128275001Y-95600000D01*
G75*
G02*
X128525000Y-95849999I0J-249999D01*
G01*
X128525000Y-96750001D01*
G75*
G02*
X128275001Y-97000000I-249999J0D01*
G01*
X125424999Y-97000000D01*
G75*
G02*
X125175000Y-96750001I0J249999D01*
G01*
X125175000Y-95849999D01*
G75*
G02*
X125424999Y-95600000I249999J0D01*
G01*
G37*
G36*
G01*
X125424999Y-89500000D02*
X128275001Y-89500000D01*
G75*
G02*
X128525000Y-89749999I0J-249999D01*
G01*
X128525000Y-90650001D01*
G75*
G02*
X128275001Y-90900000I-249999J0D01*
G01*
X125424999Y-90900000D01*
G75*
G02*
X125175000Y-90650001I0J249999D01*
G01*
X125175000Y-89749999D01*
G75*
G02*
X125424999Y-89500000I249999J0D01*
G01*
G37*
G36*
G01*
X119650000Y-92612500D02*
X119650000Y-92137500D01*
G75*
G02*
X119887500Y-91900000I237500J0D01*
G01*
X120387500Y-91900000D01*
G75*
G02*
X120625000Y-92137500I0J-237500D01*
G01*
X120625000Y-92612500D01*
G75*
G02*
X120387500Y-92850000I-237500J0D01*
G01*
X119887500Y-92850000D01*
G75*
G02*
X119650000Y-92612500I0J237500D01*
G01*
G37*
G36*
G01*
X117825000Y-92612500D02*
X117825000Y-92137500D01*
G75*
G02*
X118062500Y-91900000I237500J0D01*
G01*
X118562500Y-91900000D01*
G75*
G02*
X118800000Y-92137500I0J-237500D01*
G01*
X118800000Y-92612500D01*
G75*
G02*
X118562500Y-92850000I-237500J0D01*
G01*
X118062500Y-92850000D01*
G75*
G02*
X117825000Y-92612500I0J237500D01*
G01*
G37*
G36*
G01*
X125424999Y-78750000D02*
X128275001Y-78750000D01*
G75*
G02*
X128525000Y-78999999I0J-249999D01*
G01*
X128525000Y-79900001D01*
G75*
G02*
X128275001Y-80150000I-249999J0D01*
G01*
X125424999Y-80150000D01*
G75*
G02*
X125175000Y-79900001I0J249999D01*
G01*
X125175000Y-78999999D01*
G75*
G02*
X125424999Y-78750000I249999J0D01*
G01*
G37*
G36*
G01*
X125424999Y-84850000D02*
X128275001Y-84850000D01*
G75*
G02*
X128525000Y-85099999I0J-249999D01*
G01*
X128525000Y-86000001D01*
G75*
G02*
X128275001Y-86250000I-249999J0D01*
G01*
X125424999Y-86250000D01*
G75*
G02*
X125175000Y-86000001I0J249999D01*
G01*
X125175000Y-85099999D01*
G75*
G02*
X125424999Y-84850000I249999J0D01*
G01*
G37*
G36*
G01*
X100982500Y-82127500D02*
X100982500Y-81652500D01*
G75*
G02*
X101220000Y-81415000I237500J0D01*
G01*
X101720000Y-81415000D01*
G75*
G02*
X101957500Y-81652500I0J-237500D01*
G01*
X101957500Y-82127500D01*
G75*
G02*
X101720000Y-82365000I-237500J0D01*
G01*
X101220000Y-82365000D01*
G75*
G02*
X100982500Y-82127500I0J237500D01*
G01*
G37*
G36*
G01*
X99157500Y-82127500D02*
X99157500Y-81652500D01*
G75*
G02*
X99395000Y-81415000I237500J0D01*
G01*
X99895000Y-81415000D01*
G75*
G02*
X100132500Y-81652500I0J-237500D01*
G01*
X100132500Y-82127500D01*
G75*
G02*
X99895000Y-82365000I-237500J0D01*
G01*
X99395000Y-82365000D01*
G75*
G02*
X99157500Y-82127500I0J237500D01*
G01*
G37*
G36*
G01*
X118087500Y-86287500D02*
X118562500Y-86287500D01*
G75*
G02*
X118800000Y-86525000I0J-237500D01*
G01*
X118800000Y-87025000D01*
G75*
G02*
X118562500Y-87262500I-237500J0D01*
G01*
X118087500Y-87262500D01*
G75*
G02*
X117850000Y-87025000I0J237500D01*
G01*
X117850000Y-86525000D01*
G75*
G02*
X118087500Y-86287500I237500J0D01*
G01*
G37*
G36*
G01*
X118087500Y-84462500D02*
X118562500Y-84462500D01*
G75*
G02*
X118800000Y-84700000I0J-237500D01*
G01*
X118800000Y-85200000D01*
G75*
G02*
X118562500Y-85437500I-237500J0D01*
G01*
X118087500Y-85437500D01*
G75*
G02*
X117850000Y-85200000I0J237500D01*
G01*
X117850000Y-84700000D01*
G75*
G02*
X118087500Y-84462500I237500J0D01*
G01*
G37*
G36*
G01*
X115425000Y-86537500D02*
X115425000Y-87012500D01*
G75*
G02*
X115187500Y-87250000I-237500J0D01*
G01*
X114687500Y-87250000D01*
G75*
G02*
X114450000Y-87012500I0J237500D01*
G01*
X114450000Y-86537500D01*
G75*
G02*
X114687500Y-86300000I237500J0D01*
G01*
X115187500Y-86300000D01*
G75*
G02*
X115425000Y-86537500I0J-237500D01*
G01*
G37*
G36*
G01*
X117250000Y-86537500D02*
X117250000Y-87012500D01*
G75*
G02*
X117012500Y-87250000I-237500J0D01*
G01*
X116512500Y-87250000D01*
G75*
G02*
X116275000Y-87012500I0J237500D01*
G01*
X116275000Y-86537500D01*
G75*
G02*
X116512500Y-86300000I237500J0D01*
G01*
X117012500Y-86300000D01*
G75*
G02*
X117250000Y-86537500I0J-237500D01*
G01*
G37*
G36*
G01*
X101662500Y-86237500D02*
X101662500Y-86712500D01*
G75*
G02*
X101425000Y-86950000I-237500J0D01*
G01*
X100925000Y-86950000D01*
G75*
G02*
X100687500Y-86712500I0J237500D01*
G01*
X100687500Y-86237500D01*
G75*
G02*
X100925000Y-86000000I237500J0D01*
G01*
X101425000Y-86000000D01*
G75*
G02*
X101662500Y-86237500I0J-237500D01*
G01*
G37*
G36*
G01*
X103487500Y-86237500D02*
X103487500Y-86712500D01*
G75*
G02*
X103250000Y-86950000I-237500J0D01*
G01*
X102750000Y-86950000D01*
G75*
G02*
X102512500Y-86712500I0J237500D01*
G01*
X102512500Y-86237500D01*
G75*
G02*
X102750000Y-86000000I237500J0D01*
G01*
X103250000Y-86000000D01*
G75*
G02*
X103487500Y-86237500I0J-237500D01*
G01*
G37*
G36*
G01*
X115450000Y-81962500D02*
X115450000Y-82437500D01*
G75*
G02*
X115212500Y-82675000I-237500J0D01*
G01*
X114712500Y-82675000D01*
G75*
G02*
X114475000Y-82437500I0J237500D01*
G01*
X114475000Y-81962500D01*
G75*
G02*
X114712500Y-81725000I237500J0D01*
G01*
X115212500Y-81725000D01*
G75*
G02*
X115450000Y-81962500I0J-237500D01*
G01*
G37*
G36*
G01*
X117275000Y-81962500D02*
X117275000Y-82437500D01*
G75*
G02*
X117037500Y-82675000I-237500J0D01*
G01*
X116537500Y-82675000D01*
G75*
G02*
X116300000Y-82437500I0J237500D01*
G01*
X116300000Y-81962500D01*
G75*
G02*
X116537500Y-81725000I237500J0D01*
G01*
X117037500Y-81725000D01*
G75*
G02*
X117275000Y-81962500I0J-237500D01*
G01*
G37*
G36*
G01*
X100862500Y-89325000D02*
X101337500Y-89325000D01*
G75*
G02*
X101575000Y-89562500I0J-237500D01*
G01*
X101575000Y-90062500D01*
G75*
G02*
X101337500Y-90300000I-237500J0D01*
G01*
X100862500Y-90300000D01*
G75*
G02*
X100625000Y-90062500I0J237500D01*
G01*
X100625000Y-89562500D01*
G75*
G02*
X100862500Y-89325000I237500J0D01*
G01*
G37*
G36*
G01*
X100862500Y-87500000D02*
X101337500Y-87500000D01*
G75*
G02*
X101575000Y-87737500I0J-237500D01*
G01*
X101575000Y-88237500D01*
G75*
G02*
X101337500Y-88475000I-237500J0D01*
G01*
X100862500Y-88475000D01*
G75*
G02*
X100625000Y-88237500I0J237500D01*
G01*
X100625000Y-87737500D01*
G75*
G02*
X100862500Y-87500000I237500J0D01*
G01*
G37*
G36*
G01*
X99812500Y-88475000D02*
X99337500Y-88475000D01*
G75*
G02*
X99100000Y-88237500I0J237500D01*
G01*
X99100000Y-87737500D01*
G75*
G02*
X99337500Y-87500000I237500J0D01*
G01*
X99812500Y-87500000D01*
G75*
G02*
X100050000Y-87737500I0J-237500D01*
G01*
X100050000Y-88237500D01*
G75*
G02*
X99812500Y-88475000I-237500J0D01*
G01*
G37*
G36*
G01*
X99812500Y-90300000D02*
X99337500Y-90300000D01*
G75*
G02*
X99100000Y-90062500I0J237500D01*
G01*
X99100000Y-89562500D01*
G75*
G02*
X99337500Y-89325000I237500J0D01*
G01*
X99812500Y-89325000D01*
G75*
G02*
X100050000Y-89562500I0J-237500D01*
G01*
X100050000Y-90062500D01*
G75*
G02*
X99812500Y-90300000I-237500J0D01*
G01*
G37*
G36*
G01*
X117252500Y-78645000D02*
X117727500Y-78645000D01*
G75*
G02*
X117965000Y-78882500I0J-237500D01*
G01*
X117965000Y-79382500D01*
G75*
G02*
X117727500Y-79620000I-237500J0D01*
G01*
X117252500Y-79620000D01*
G75*
G02*
X117015000Y-79382500I0J237500D01*
G01*
X117015000Y-78882500D01*
G75*
G02*
X117252500Y-78645000I237500J0D01*
G01*
G37*
G36*
G01*
X117252500Y-76820000D02*
X117727500Y-76820000D01*
G75*
G02*
X117965000Y-77057500I0J-237500D01*
G01*
X117965000Y-77557500D01*
G75*
G02*
X117727500Y-77795000I-237500J0D01*
G01*
X117252500Y-77795000D01*
G75*
G02*
X117015000Y-77557500I0J237500D01*
G01*
X117015000Y-77057500D01*
G75*
G02*
X117252500Y-76820000I237500J0D01*
G01*
G37*
G36*
G01*
X113637500Y-77787500D02*
X113162500Y-77787500D01*
G75*
G02*
X112925000Y-77550000I0J237500D01*
G01*
X112925000Y-77050000D01*
G75*
G02*
X113162500Y-76812500I237500J0D01*
G01*
X113637500Y-76812500D01*
G75*
G02*
X113875000Y-77050000I0J-237500D01*
G01*
X113875000Y-77550000D01*
G75*
G02*
X113637500Y-77787500I-237500J0D01*
G01*
G37*
G36*
G01*
X113637500Y-79612500D02*
X113162500Y-79612500D01*
G75*
G02*
X112925000Y-79375000I0J237500D01*
G01*
X112925000Y-78875000D01*
G75*
G02*
X113162500Y-78637500I237500J0D01*
G01*
X113637500Y-78637500D01*
G75*
G02*
X113875000Y-78875000I0J-237500D01*
G01*
X113875000Y-79375000D01*
G75*
G02*
X113637500Y-79612500I-237500J0D01*
G01*
G37*
G36*
G01*
X102512500Y-85187500D02*
X102512500Y-84712500D01*
G75*
G02*
X102750000Y-84475000I237500J0D01*
G01*
X103250000Y-84475000D01*
G75*
G02*
X103487500Y-84712500I0J-237500D01*
G01*
X103487500Y-85187500D01*
G75*
G02*
X103250000Y-85425000I-237500J0D01*
G01*
X102750000Y-85425000D01*
G75*
G02*
X102512500Y-85187500I0J237500D01*
G01*
G37*
G36*
G01*
X100687500Y-85187500D02*
X100687500Y-84712500D01*
G75*
G02*
X100925000Y-84475000I237500J0D01*
G01*
X101425000Y-84475000D01*
G75*
G02*
X101662500Y-84712500I0J-237500D01*
G01*
X101662500Y-85187500D01*
G75*
G02*
X101425000Y-85425000I-237500J0D01*
G01*
X100925000Y-85425000D01*
G75*
G02*
X100687500Y-85187500I0J237500D01*
G01*
G37*
D14*
X119700000Y-106850000D03*
D15*
X118250000Y-107850000D03*
X118250000Y-107350000D03*
X118250000Y-106850000D03*
X118250000Y-106350000D03*
X118250000Y-105850000D03*
X121150000Y-105850000D03*
X121150000Y-106350000D03*
X121150000Y-106850000D03*
X121150000Y-107350000D03*
X121150000Y-107850000D03*
D14*
X119700000Y-95000000D03*
D15*
X118250000Y-96000000D03*
X118250000Y-95500000D03*
X118250000Y-95000000D03*
X118250000Y-94500000D03*
X118250000Y-94000000D03*
X121150000Y-94000000D03*
X121150000Y-94500000D03*
X121150000Y-95000000D03*
X121150000Y-95500000D03*
X121150000Y-96000000D03*
G36*
G01*
X122449997Y-107900000D02*
X123750003Y-107900000D01*
G75*
G02*
X124000000Y-108149997I0J-249997D01*
G01*
X124000000Y-108975003D01*
G75*
G02*
X123750003Y-109225000I-249997J0D01*
G01*
X122449997Y-109225000D01*
G75*
G02*
X122200000Y-108975003I0J249997D01*
G01*
X122200000Y-108149997D01*
G75*
G02*
X122449997Y-107900000I249997J0D01*
G01*
G37*
G36*
G01*
X122449997Y-104775000D02*
X123750003Y-104775000D01*
G75*
G02*
X124000000Y-105024997I0J-249997D01*
G01*
X124000000Y-105850003D01*
G75*
G02*
X123750003Y-106100000I-249997J0D01*
G01*
X122449997Y-106100000D01*
G75*
G02*
X122200000Y-105850003I0J249997D01*
G01*
X122200000Y-105024997D01*
G75*
G02*
X122449997Y-104775000I249997J0D01*
G01*
G37*
G36*
G01*
X121350003Y-110300000D02*
X120049997Y-110300000D01*
G75*
G02*
X119800000Y-110050003I0J249997D01*
G01*
X119800000Y-109224997D01*
G75*
G02*
X120049997Y-108975000I249997J0D01*
G01*
X121350003Y-108975000D01*
G75*
G02*
X121600000Y-109224997I0J-249997D01*
G01*
X121600000Y-110050003D01*
G75*
G02*
X121350003Y-110300000I-249997J0D01*
G01*
G37*
G36*
G01*
X121350003Y-113425000D02*
X120049997Y-113425000D01*
G75*
G02*
X119800000Y-113175003I0J249997D01*
G01*
X119800000Y-112349997D01*
G75*
G02*
X120049997Y-112100000I249997J0D01*
G01*
X121350003Y-112100000D01*
G75*
G02*
X121600000Y-112349997I0J-249997D01*
G01*
X121600000Y-113175003D01*
G75*
G02*
X121350003Y-113425000I-249997J0D01*
G01*
G37*
G36*
G01*
X122449997Y-95837500D02*
X123750003Y-95837500D01*
G75*
G02*
X124000000Y-96087497I0J-249997D01*
G01*
X124000000Y-96912503D01*
G75*
G02*
X123750003Y-97162500I-249997J0D01*
G01*
X122449997Y-97162500D01*
G75*
G02*
X122200000Y-96912503I0J249997D01*
G01*
X122200000Y-96087497D01*
G75*
G02*
X122449997Y-95837500I249997J0D01*
G01*
G37*
G36*
G01*
X122449997Y-92712500D02*
X123750003Y-92712500D01*
G75*
G02*
X124000000Y-92962497I0J-249997D01*
G01*
X124000000Y-93787503D01*
G75*
G02*
X123750003Y-94037500I-249997J0D01*
G01*
X122449997Y-94037500D01*
G75*
G02*
X122200000Y-93787503I0J249997D01*
G01*
X122200000Y-92962497D01*
G75*
G02*
X122449997Y-92712500I249997J0D01*
G01*
G37*
G36*
G01*
X121350003Y-98500000D02*
X120049997Y-98500000D01*
G75*
G02*
X119800000Y-98250003I0J249997D01*
G01*
X119800000Y-97424997D01*
G75*
G02*
X120049997Y-97175000I249997J0D01*
G01*
X121350003Y-97175000D01*
G75*
G02*
X121600000Y-97424997I0J-249997D01*
G01*
X121600000Y-98250003D01*
G75*
G02*
X121350003Y-98500000I-249997J0D01*
G01*
G37*
G36*
G01*
X121350003Y-101625000D02*
X120049997Y-101625000D01*
G75*
G02*
X119800000Y-101375003I0J249997D01*
G01*
X119800000Y-100549997D01*
G75*
G02*
X120049997Y-100300000I249997J0D01*
G01*
X121350003Y-100300000D01*
G75*
G02*
X121600000Y-100549997I0J-249997D01*
G01*
X121600000Y-101375003D01*
G75*
G02*
X121350003Y-101625000I-249997J0D01*
G01*
G37*
G36*
G01*
X116200000Y-85462500D02*
X116200000Y-84987500D01*
G75*
G02*
X116437500Y-84750000I237500J0D01*
G01*
X117037500Y-84750000D01*
G75*
G02*
X117275000Y-84987500I0J-237500D01*
G01*
X117275000Y-85462500D01*
G75*
G02*
X117037500Y-85700000I-237500J0D01*
G01*
X116437500Y-85700000D01*
G75*
G02*
X116200000Y-85462500I0J237500D01*
G01*
G37*
G36*
G01*
X114475000Y-85462500D02*
X114475000Y-84987500D01*
G75*
G02*
X114712500Y-84750000I237500J0D01*
G01*
X115312500Y-84750000D01*
G75*
G02*
X115550000Y-84987500I0J-237500D01*
G01*
X115550000Y-85462500D01*
G75*
G02*
X115312500Y-85700000I-237500J0D01*
G01*
X114712500Y-85700000D01*
G75*
G02*
X114475000Y-85462500I0J237500D01*
G01*
G37*
G36*
G01*
X115537500Y-88062500D02*
X115537500Y-88537500D01*
G75*
G02*
X115300000Y-88775000I-237500J0D01*
G01*
X114700000Y-88775000D01*
G75*
G02*
X114462500Y-88537500I0J237500D01*
G01*
X114462500Y-88062500D01*
G75*
G02*
X114700000Y-87825000I237500J0D01*
G01*
X115300000Y-87825000D01*
G75*
G02*
X115537500Y-88062500I0J-237500D01*
G01*
G37*
G36*
G01*
X117262500Y-88062500D02*
X117262500Y-88537500D01*
G75*
G02*
X117025000Y-88775000I-237500J0D01*
G01*
X116425000Y-88775000D01*
G75*
G02*
X116187500Y-88537500I0J237500D01*
G01*
X116187500Y-88062500D01*
G75*
G02*
X116425000Y-87825000I237500J0D01*
G01*
X117025000Y-87825000D01*
G75*
G02*
X117262500Y-88062500I0J-237500D01*
G01*
G37*
G36*
G01*
X116200000Y-83962500D02*
X116200000Y-83487500D01*
G75*
G02*
X116437500Y-83250000I237500J0D01*
G01*
X117037500Y-83250000D01*
G75*
G02*
X117275000Y-83487500I0J-237500D01*
G01*
X117275000Y-83962500D01*
G75*
G02*
X117037500Y-84200000I-237500J0D01*
G01*
X116437500Y-84200000D01*
G75*
G02*
X116200000Y-83962500I0J237500D01*
G01*
G37*
G36*
G01*
X114475000Y-83962500D02*
X114475000Y-83487500D01*
G75*
G02*
X114712500Y-83250000I237500J0D01*
G01*
X115312500Y-83250000D01*
G75*
G02*
X115550000Y-83487500I0J-237500D01*
G01*
X115550000Y-83962500D01*
G75*
G02*
X115312500Y-84200000I-237500J0D01*
G01*
X114712500Y-84200000D01*
G75*
G02*
X114475000Y-83962500I0J237500D01*
G01*
G37*
G36*
G01*
X116187500Y-80912500D02*
X116187500Y-80437500D01*
G75*
G02*
X116425000Y-80200000I237500J0D01*
G01*
X117025000Y-80200000D01*
G75*
G02*
X117262500Y-80437500I0J-237500D01*
G01*
X117262500Y-80912500D01*
G75*
G02*
X117025000Y-81150000I-237500J0D01*
G01*
X116425000Y-81150000D01*
G75*
G02*
X116187500Y-80912500I0J237500D01*
G01*
G37*
G36*
G01*
X114462500Y-80912500D02*
X114462500Y-80437500D01*
G75*
G02*
X114700000Y-80200000I237500J0D01*
G01*
X115300000Y-80200000D01*
G75*
G02*
X115537500Y-80437500I0J-237500D01*
G01*
X115537500Y-80912500D01*
G75*
G02*
X115300000Y-81150000I-237500J0D01*
G01*
X114700000Y-81150000D01*
G75*
G02*
X114462500Y-80912500I0J237500D01*
G01*
G37*
M02*
