G04 #@! TF.GenerationSoftware,KiCad,Pcbnew,5.1.10*
G04 #@! TF.CreationDate,2021-08-16T10:49:45+12:00*
G04 #@! TF.ProjectId,Output,4f757470-7574-42e6-9b69-6361645f7063,rev?*
G04 #@! TF.SameCoordinates,Original*
G04 #@! TF.FileFunction,Copper,L2,Bot*
G04 #@! TF.FilePolarity,Positive*
%FSLAX46Y46*%
G04 Gerber Fmt 4.6, Leading zero omitted, Abs format (unit mm)*
G04 Created by KiCad (PCBNEW 5.1.10) date 2021-08-16 10:49:45*
%MOMM*%
%LPD*%
G01*
G04 APERTURE LIST*
G04 #@! TA.AperFunction,ComponentPad*
%ADD10C,2.000000*%
G04 #@! TD*
G04 #@! TA.AperFunction,ComponentPad*
%ADD11C,1.905000*%
G04 #@! TD*
G04 #@! TA.AperFunction,ComponentPad*
%ADD12C,5.700000*%
G04 #@! TD*
G04 #@! TA.AperFunction,ComponentPad*
%ADD13C,3.000000*%
G04 #@! TD*
G04 #@! TA.AperFunction,ComponentPad*
%ADD14R,3.000000X3.000000*%
G04 #@! TD*
G04 #@! TA.AperFunction,ComponentPad*
%ADD15C,1.600000*%
G04 #@! TD*
G04 #@! TA.AperFunction,ComponentPad*
%ADD16R,1.600000X1.600000*%
G04 #@! TD*
G04 #@! TA.AperFunction,Conductor*
%ADD17C,0.254000*%
G04 #@! TD*
G04 #@! TA.AperFunction,Conductor*
%ADD18C,0.100000*%
G04 #@! TD*
G04 APERTURE END LIST*
D10*
X166450000Y-103800000D03*
X138950000Y-103800000D03*
D11*
X119888000Y-97282000D03*
X134112000Y-97282000D03*
X171138000Y-97650000D03*
X185362000Y-97650000D03*
D12*
X120500000Y-76440000D03*
D13*
X147320000Y-80772000D03*
X152400000Y-80772000D03*
D14*
X157480000Y-80772000D03*
D12*
X185000000Y-76350000D03*
D13*
X149860000Y-123444000D03*
D14*
X154940000Y-123444000D03*
D12*
X120500000Y-123240000D03*
X185000000Y-123290000D03*
D15*
X140000000Y-118500000D03*
D16*
X140000000Y-115000000D03*
D15*
X164500000Y-118500000D03*
D16*
X164500000Y-115000000D03*
D17*
X185768083Y-71981173D02*
X186511891Y-72184656D01*
X187207905Y-72516638D01*
X187834130Y-72966626D01*
X188370777Y-73520403D01*
X188800871Y-74160451D01*
X189110829Y-74866553D01*
X189292065Y-75621457D01*
X189340001Y-76274220D01*
X189340000Y-123220608D01*
X189268827Y-124018083D01*
X189065344Y-124761890D01*
X188733363Y-125457904D01*
X188283374Y-126084130D01*
X187729597Y-126620777D01*
X187089549Y-127050871D01*
X186383447Y-127360829D01*
X185628543Y-127542065D01*
X184975793Y-127590000D01*
X120529392Y-127590000D01*
X119731917Y-127518827D01*
X118988110Y-127315344D01*
X118292096Y-126983363D01*
X117665870Y-126533374D01*
X117129223Y-125979597D01*
X116699129Y-125339549D01*
X116389171Y-124633447D01*
X116207935Y-123878543D01*
X116160000Y-123225793D01*
X116160000Y-122896758D01*
X117015000Y-122896758D01*
X117015000Y-123583242D01*
X117148927Y-124256537D01*
X117411633Y-124890766D01*
X117793024Y-125461558D01*
X118278442Y-125946976D01*
X118849234Y-126328367D01*
X119483463Y-126591073D01*
X120156758Y-126725000D01*
X120843242Y-126725000D01*
X121516537Y-126591073D01*
X122150766Y-126328367D01*
X122721558Y-125946976D01*
X123206976Y-125461558D01*
X123588367Y-124890766D01*
X123851073Y-124256537D01*
X123985000Y-123583242D01*
X123985000Y-123233721D01*
X147725000Y-123233721D01*
X147725000Y-123654279D01*
X147807047Y-124066756D01*
X147967988Y-124455302D01*
X148201637Y-124804983D01*
X148499017Y-125102363D01*
X148848698Y-125336012D01*
X149237244Y-125496953D01*
X149649721Y-125579000D01*
X150070279Y-125579000D01*
X150482756Y-125496953D01*
X150871302Y-125336012D01*
X151220983Y-125102363D01*
X151518363Y-124804983D01*
X151752012Y-124455302D01*
X151912953Y-124066756D01*
X151995000Y-123654279D01*
X151995000Y-123233721D01*
X151912953Y-122821244D01*
X151752012Y-122432698D01*
X151518363Y-122083017D01*
X151379346Y-121944000D01*
X152801928Y-121944000D01*
X152801928Y-124944000D01*
X152814188Y-125068482D01*
X152850498Y-125188180D01*
X152909463Y-125298494D01*
X152988815Y-125395185D01*
X153085506Y-125474537D01*
X153195820Y-125533502D01*
X153315518Y-125569812D01*
X153440000Y-125582072D01*
X156440000Y-125582072D01*
X156564482Y-125569812D01*
X156684180Y-125533502D01*
X156794494Y-125474537D01*
X156891185Y-125395185D01*
X156970537Y-125298494D01*
X157029502Y-125188180D01*
X157065812Y-125068482D01*
X157078072Y-124944000D01*
X157078072Y-122946758D01*
X181515000Y-122946758D01*
X181515000Y-123633242D01*
X181648927Y-124306537D01*
X181911633Y-124940766D01*
X182293024Y-125511558D01*
X182778442Y-125996976D01*
X183349234Y-126378367D01*
X183983463Y-126641073D01*
X184656758Y-126775000D01*
X185343242Y-126775000D01*
X186016537Y-126641073D01*
X186650766Y-126378367D01*
X187221558Y-125996976D01*
X187706976Y-125511558D01*
X188088367Y-124940766D01*
X188351073Y-124306537D01*
X188485000Y-123633242D01*
X188485000Y-122946758D01*
X188351073Y-122273463D01*
X188088367Y-121639234D01*
X187706976Y-121068442D01*
X187221558Y-120583024D01*
X186650766Y-120201633D01*
X186016537Y-119938927D01*
X185343242Y-119805000D01*
X184656758Y-119805000D01*
X183983463Y-119938927D01*
X183349234Y-120201633D01*
X182778442Y-120583024D01*
X182293024Y-121068442D01*
X181911633Y-121639234D01*
X181648927Y-122273463D01*
X181515000Y-122946758D01*
X157078072Y-122946758D01*
X157078072Y-121944000D01*
X157065812Y-121819518D01*
X157029502Y-121699820D01*
X156970537Y-121589506D01*
X156891185Y-121492815D01*
X156794494Y-121413463D01*
X156684180Y-121354498D01*
X156564482Y-121318188D01*
X156440000Y-121305928D01*
X153440000Y-121305928D01*
X153315518Y-121318188D01*
X153195820Y-121354498D01*
X153085506Y-121413463D01*
X152988815Y-121492815D01*
X152909463Y-121589506D01*
X152850498Y-121699820D01*
X152814188Y-121819518D01*
X152801928Y-121944000D01*
X151379346Y-121944000D01*
X151220983Y-121785637D01*
X150871302Y-121551988D01*
X150482756Y-121391047D01*
X150070279Y-121309000D01*
X149649721Y-121309000D01*
X149237244Y-121391047D01*
X148848698Y-121551988D01*
X148499017Y-121785637D01*
X148201637Y-122083017D01*
X147967988Y-122432698D01*
X147807047Y-122821244D01*
X147725000Y-123233721D01*
X123985000Y-123233721D01*
X123985000Y-122896758D01*
X123851073Y-122223463D01*
X123588367Y-121589234D01*
X123206976Y-121018442D01*
X122721558Y-120533024D01*
X122150766Y-120151633D01*
X121516537Y-119888927D01*
X120843242Y-119755000D01*
X120156758Y-119755000D01*
X119483463Y-119888927D01*
X118849234Y-120151633D01*
X118278442Y-120533024D01*
X117793024Y-121018442D01*
X117411633Y-121589234D01*
X117148927Y-122223463D01*
X117015000Y-122896758D01*
X116160000Y-122896758D01*
X116160000Y-114200000D01*
X138561928Y-114200000D01*
X138561928Y-115800000D01*
X138574188Y-115924482D01*
X138610498Y-116044180D01*
X138669463Y-116154494D01*
X138748815Y-116251185D01*
X138845506Y-116330537D01*
X138955820Y-116389502D01*
X139075518Y-116425812D01*
X139200000Y-116438072D01*
X140800000Y-116438072D01*
X140924482Y-116425812D01*
X141044180Y-116389502D01*
X141154494Y-116330537D01*
X141251185Y-116251185D01*
X141330537Y-116154494D01*
X141389502Y-116044180D01*
X141425812Y-115924482D01*
X141438072Y-115800000D01*
X141438072Y-114200000D01*
X163061928Y-114200000D01*
X163061928Y-115800000D01*
X163074188Y-115924482D01*
X163110498Y-116044180D01*
X163169463Y-116154494D01*
X163248815Y-116251185D01*
X163345506Y-116330537D01*
X163455820Y-116389502D01*
X163575518Y-116425812D01*
X163700000Y-116438072D01*
X165300000Y-116438072D01*
X165424482Y-116425812D01*
X165544180Y-116389502D01*
X165654494Y-116330537D01*
X165751185Y-116251185D01*
X165830537Y-116154494D01*
X165889502Y-116044180D01*
X165925812Y-115924482D01*
X165938072Y-115800000D01*
X165938072Y-114200000D01*
X165925812Y-114075518D01*
X165889502Y-113955820D01*
X165830537Y-113845506D01*
X165751185Y-113748815D01*
X165654494Y-113669463D01*
X165544180Y-113610498D01*
X165424482Y-113574188D01*
X165300000Y-113561928D01*
X163700000Y-113561928D01*
X163575518Y-113574188D01*
X163455820Y-113610498D01*
X163345506Y-113669463D01*
X163248815Y-113748815D01*
X163169463Y-113845506D01*
X163110498Y-113955820D01*
X163074188Y-114075518D01*
X163061928Y-114200000D01*
X141438072Y-114200000D01*
X141425812Y-114075518D01*
X141389502Y-113955820D01*
X141330537Y-113845506D01*
X141251185Y-113748815D01*
X141154494Y-113669463D01*
X141044180Y-113610498D01*
X140924482Y-113574188D01*
X140800000Y-113561928D01*
X139200000Y-113561928D01*
X139075518Y-113574188D01*
X138955820Y-113610498D01*
X138845506Y-113669463D01*
X138748815Y-113748815D01*
X138669463Y-113845506D01*
X138610498Y-113955820D01*
X138574188Y-114075518D01*
X138561928Y-114200000D01*
X116160000Y-114200000D01*
X116160000Y-103638967D01*
X137315000Y-103638967D01*
X137315000Y-103961033D01*
X137377832Y-104276912D01*
X137501082Y-104574463D01*
X137680013Y-104842252D01*
X137907748Y-105069987D01*
X138175537Y-105248918D01*
X138473088Y-105372168D01*
X138788967Y-105435000D01*
X139111033Y-105435000D01*
X139426912Y-105372168D01*
X139724463Y-105248918D01*
X139992252Y-105069987D01*
X140219987Y-104842252D01*
X140398918Y-104574463D01*
X140522168Y-104276912D01*
X140585000Y-103961033D01*
X140585000Y-103638967D01*
X164815000Y-103638967D01*
X164815000Y-103961033D01*
X164877832Y-104276912D01*
X165001082Y-104574463D01*
X165180013Y-104842252D01*
X165407748Y-105069987D01*
X165675537Y-105248918D01*
X165973088Y-105372168D01*
X166288967Y-105435000D01*
X166611033Y-105435000D01*
X166926912Y-105372168D01*
X167224463Y-105248918D01*
X167492252Y-105069987D01*
X167719987Y-104842252D01*
X167898918Y-104574463D01*
X168022168Y-104276912D01*
X168085000Y-103961033D01*
X168085000Y-103638967D01*
X168022168Y-103323088D01*
X167898918Y-103025537D01*
X167719987Y-102757748D01*
X167492252Y-102530013D01*
X167224463Y-102351082D01*
X166926912Y-102227832D01*
X166611033Y-102165000D01*
X166288967Y-102165000D01*
X165973088Y-102227832D01*
X165675537Y-102351082D01*
X165407748Y-102530013D01*
X165180013Y-102757748D01*
X165001082Y-103025537D01*
X164877832Y-103323088D01*
X164815000Y-103638967D01*
X140585000Y-103638967D01*
X140522168Y-103323088D01*
X140398918Y-103025537D01*
X140219987Y-102757748D01*
X139992252Y-102530013D01*
X139724463Y-102351082D01*
X139426912Y-102227832D01*
X139111033Y-102165000D01*
X138788967Y-102165000D01*
X138473088Y-102227832D01*
X138175537Y-102351082D01*
X137907748Y-102530013D01*
X137680013Y-102757748D01*
X137501082Y-103025537D01*
X137377832Y-103323088D01*
X137315000Y-103638967D01*
X116160000Y-103638967D01*
X116160000Y-97125645D01*
X118300500Y-97125645D01*
X118300500Y-97438355D01*
X118361507Y-97745057D01*
X118481176Y-98033963D01*
X118654908Y-98293972D01*
X118876028Y-98515092D01*
X119136037Y-98688824D01*
X119424943Y-98808493D01*
X119731645Y-98869500D01*
X120044355Y-98869500D01*
X120351057Y-98808493D01*
X120639963Y-98688824D01*
X120899972Y-98515092D01*
X121121092Y-98293972D01*
X121294824Y-98033963D01*
X121414493Y-97745057D01*
X121475500Y-97438355D01*
X121475500Y-97125645D01*
X132524500Y-97125645D01*
X132524500Y-97438355D01*
X132585507Y-97745057D01*
X132705176Y-98033963D01*
X132878908Y-98293972D01*
X133100028Y-98515092D01*
X133360037Y-98688824D01*
X133648943Y-98808493D01*
X133955645Y-98869500D01*
X134268355Y-98869500D01*
X134575057Y-98808493D01*
X134863963Y-98688824D01*
X135123972Y-98515092D01*
X135345092Y-98293972D01*
X135518824Y-98033963D01*
X135638493Y-97745057D01*
X135688502Y-97493645D01*
X169550500Y-97493645D01*
X169550500Y-97806355D01*
X169611507Y-98113057D01*
X169731176Y-98401963D01*
X169904908Y-98661972D01*
X170126028Y-98883092D01*
X170386037Y-99056824D01*
X170674943Y-99176493D01*
X170981645Y-99237500D01*
X171294355Y-99237500D01*
X171601057Y-99176493D01*
X171889963Y-99056824D01*
X172149972Y-98883092D01*
X172371092Y-98661972D01*
X172544824Y-98401963D01*
X172664493Y-98113057D01*
X172725500Y-97806355D01*
X172725500Y-97493645D01*
X183774500Y-97493645D01*
X183774500Y-97806355D01*
X183835507Y-98113057D01*
X183955176Y-98401963D01*
X184128908Y-98661972D01*
X184350028Y-98883092D01*
X184610037Y-99056824D01*
X184898943Y-99176493D01*
X185205645Y-99237500D01*
X185518355Y-99237500D01*
X185825057Y-99176493D01*
X186113963Y-99056824D01*
X186373972Y-98883092D01*
X186595092Y-98661972D01*
X186768824Y-98401963D01*
X186888493Y-98113057D01*
X186949500Y-97806355D01*
X186949500Y-97493645D01*
X186888493Y-97186943D01*
X186768824Y-96898037D01*
X186595092Y-96638028D01*
X186373972Y-96416908D01*
X186113963Y-96243176D01*
X185825057Y-96123507D01*
X185518355Y-96062500D01*
X185205645Y-96062500D01*
X184898943Y-96123507D01*
X184610037Y-96243176D01*
X184350028Y-96416908D01*
X184128908Y-96638028D01*
X183955176Y-96898037D01*
X183835507Y-97186943D01*
X183774500Y-97493645D01*
X172725500Y-97493645D01*
X172664493Y-97186943D01*
X172544824Y-96898037D01*
X172371092Y-96638028D01*
X172149972Y-96416908D01*
X171889963Y-96243176D01*
X171601057Y-96123507D01*
X171294355Y-96062500D01*
X170981645Y-96062500D01*
X170674943Y-96123507D01*
X170386037Y-96243176D01*
X170126028Y-96416908D01*
X169904908Y-96638028D01*
X169731176Y-96898037D01*
X169611507Y-97186943D01*
X169550500Y-97493645D01*
X135688502Y-97493645D01*
X135699500Y-97438355D01*
X135699500Y-97125645D01*
X135638493Y-96818943D01*
X135518824Y-96530037D01*
X135345092Y-96270028D01*
X135123972Y-96048908D01*
X134863963Y-95875176D01*
X134575057Y-95755507D01*
X134268355Y-95694500D01*
X133955645Y-95694500D01*
X133648943Y-95755507D01*
X133360037Y-95875176D01*
X133100028Y-96048908D01*
X132878908Y-96270028D01*
X132705176Y-96530037D01*
X132585507Y-96818943D01*
X132524500Y-97125645D01*
X121475500Y-97125645D01*
X121414493Y-96818943D01*
X121294824Y-96530037D01*
X121121092Y-96270028D01*
X120899972Y-96048908D01*
X120639963Y-95875176D01*
X120351057Y-95755507D01*
X120044355Y-95694500D01*
X119731645Y-95694500D01*
X119424943Y-95755507D01*
X119136037Y-95875176D01*
X118876028Y-96048908D01*
X118654908Y-96270028D01*
X118481176Y-96530037D01*
X118361507Y-96818943D01*
X118300500Y-97125645D01*
X116160000Y-97125645D01*
X116160000Y-80561721D01*
X150265000Y-80561721D01*
X150265000Y-80982279D01*
X150347047Y-81394756D01*
X150507988Y-81783302D01*
X150741637Y-82132983D01*
X151039017Y-82430363D01*
X151388698Y-82664012D01*
X151777244Y-82824953D01*
X152189721Y-82907000D01*
X152610279Y-82907000D01*
X153022756Y-82824953D01*
X153411302Y-82664012D01*
X153760983Y-82430363D01*
X154058363Y-82132983D01*
X154292012Y-81783302D01*
X154452953Y-81394756D01*
X154535000Y-80982279D01*
X154535000Y-80561721D01*
X154452953Y-80149244D01*
X154292012Y-79760698D01*
X154058363Y-79411017D01*
X153919346Y-79272000D01*
X155341928Y-79272000D01*
X155341928Y-82272000D01*
X155354188Y-82396482D01*
X155390498Y-82516180D01*
X155449463Y-82626494D01*
X155528815Y-82723185D01*
X155625506Y-82802537D01*
X155735820Y-82861502D01*
X155855518Y-82897812D01*
X155980000Y-82910072D01*
X158980000Y-82910072D01*
X159104482Y-82897812D01*
X159224180Y-82861502D01*
X159334494Y-82802537D01*
X159431185Y-82723185D01*
X159510537Y-82626494D01*
X159569502Y-82516180D01*
X159605812Y-82396482D01*
X159618072Y-82272000D01*
X159618072Y-79272000D01*
X159605812Y-79147518D01*
X159569502Y-79027820D01*
X159510537Y-78917506D01*
X159431185Y-78820815D01*
X159334494Y-78741463D01*
X159224180Y-78682498D01*
X159104482Y-78646188D01*
X158980000Y-78633928D01*
X155980000Y-78633928D01*
X155855518Y-78646188D01*
X155735820Y-78682498D01*
X155625506Y-78741463D01*
X155528815Y-78820815D01*
X155449463Y-78917506D01*
X155390498Y-79027820D01*
X155354188Y-79147518D01*
X155341928Y-79272000D01*
X153919346Y-79272000D01*
X153760983Y-79113637D01*
X153411302Y-78879988D01*
X153022756Y-78719047D01*
X152610279Y-78637000D01*
X152189721Y-78637000D01*
X151777244Y-78719047D01*
X151388698Y-78879988D01*
X151039017Y-79113637D01*
X150741637Y-79411017D01*
X150507988Y-79760698D01*
X150347047Y-80149244D01*
X150265000Y-80561721D01*
X116160000Y-80561721D01*
X116160000Y-76279392D01*
X116176299Y-76096758D01*
X117015000Y-76096758D01*
X117015000Y-76783242D01*
X117148927Y-77456537D01*
X117411633Y-78090766D01*
X117793024Y-78661558D01*
X118278442Y-79146976D01*
X118849234Y-79528367D01*
X119483463Y-79791073D01*
X120156758Y-79925000D01*
X120843242Y-79925000D01*
X121516537Y-79791073D01*
X122150766Y-79528367D01*
X122721558Y-79146976D01*
X123206976Y-78661558D01*
X123588367Y-78090766D01*
X123851073Y-77456537D01*
X123985000Y-76783242D01*
X123985000Y-76096758D01*
X123967098Y-76006758D01*
X181515000Y-76006758D01*
X181515000Y-76693242D01*
X181648927Y-77366537D01*
X181911633Y-78000766D01*
X182293024Y-78571558D01*
X182778442Y-79056976D01*
X183349234Y-79438367D01*
X183983463Y-79701073D01*
X184656758Y-79835000D01*
X185343242Y-79835000D01*
X186016537Y-79701073D01*
X186650766Y-79438367D01*
X187221558Y-79056976D01*
X187706976Y-78571558D01*
X188088367Y-78000766D01*
X188351073Y-77366537D01*
X188485000Y-76693242D01*
X188485000Y-76006758D01*
X188351073Y-75333463D01*
X188088367Y-74699234D01*
X187706976Y-74128442D01*
X187221558Y-73643024D01*
X186650766Y-73261633D01*
X186016537Y-72998927D01*
X185343242Y-72865000D01*
X184656758Y-72865000D01*
X183983463Y-72998927D01*
X183349234Y-73261633D01*
X182778442Y-73643024D01*
X182293024Y-74128442D01*
X181911633Y-74699234D01*
X181648927Y-75333463D01*
X181515000Y-76006758D01*
X123967098Y-76006758D01*
X123851073Y-75423463D01*
X123588367Y-74789234D01*
X123206976Y-74218442D01*
X122721558Y-73733024D01*
X122150766Y-73351633D01*
X121516537Y-73088927D01*
X120843242Y-72955000D01*
X120156758Y-72955000D01*
X119483463Y-73088927D01*
X118849234Y-73351633D01*
X118278442Y-73733024D01*
X117793024Y-74218442D01*
X117411633Y-74789234D01*
X117148927Y-75423463D01*
X117015000Y-76096758D01*
X116176299Y-76096758D01*
X116231173Y-75481917D01*
X116434656Y-74738109D01*
X116766638Y-74042095D01*
X117216626Y-73415870D01*
X117770403Y-72879223D01*
X118410451Y-72449129D01*
X119116553Y-72139171D01*
X119871457Y-71957935D01*
X120524207Y-71910000D01*
X184970608Y-71910000D01*
X185768083Y-71981173D01*
G04 #@! TA.AperFunction,Conductor*
D18*
G36*
X185768083Y-71981173D02*
G01*
X186511891Y-72184656D01*
X187207905Y-72516638D01*
X187834130Y-72966626D01*
X188370777Y-73520403D01*
X188800871Y-74160451D01*
X189110829Y-74866553D01*
X189292065Y-75621457D01*
X189340001Y-76274220D01*
X189340000Y-123220608D01*
X189268827Y-124018083D01*
X189065344Y-124761890D01*
X188733363Y-125457904D01*
X188283374Y-126084130D01*
X187729597Y-126620777D01*
X187089549Y-127050871D01*
X186383447Y-127360829D01*
X185628543Y-127542065D01*
X184975793Y-127590000D01*
X120529392Y-127590000D01*
X119731917Y-127518827D01*
X118988110Y-127315344D01*
X118292096Y-126983363D01*
X117665870Y-126533374D01*
X117129223Y-125979597D01*
X116699129Y-125339549D01*
X116389171Y-124633447D01*
X116207935Y-123878543D01*
X116160000Y-123225793D01*
X116160000Y-122896758D01*
X117015000Y-122896758D01*
X117015000Y-123583242D01*
X117148927Y-124256537D01*
X117411633Y-124890766D01*
X117793024Y-125461558D01*
X118278442Y-125946976D01*
X118849234Y-126328367D01*
X119483463Y-126591073D01*
X120156758Y-126725000D01*
X120843242Y-126725000D01*
X121516537Y-126591073D01*
X122150766Y-126328367D01*
X122721558Y-125946976D01*
X123206976Y-125461558D01*
X123588367Y-124890766D01*
X123851073Y-124256537D01*
X123985000Y-123583242D01*
X123985000Y-123233721D01*
X147725000Y-123233721D01*
X147725000Y-123654279D01*
X147807047Y-124066756D01*
X147967988Y-124455302D01*
X148201637Y-124804983D01*
X148499017Y-125102363D01*
X148848698Y-125336012D01*
X149237244Y-125496953D01*
X149649721Y-125579000D01*
X150070279Y-125579000D01*
X150482756Y-125496953D01*
X150871302Y-125336012D01*
X151220983Y-125102363D01*
X151518363Y-124804983D01*
X151752012Y-124455302D01*
X151912953Y-124066756D01*
X151995000Y-123654279D01*
X151995000Y-123233721D01*
X151912953Y-122821244D01*
X151752012Y-122432698D01*
X151518363Y-122083017D01*
X151379346Y-121944000D01*
X152801928Y-121944000D01*
X152801928Y-124944000D01*
X152814188Y-125068482D01*
X152850498Y-125188180D01*
X152909463Y-125298494D01*
X152988815Y-125395185D01*
X153085506Y-125474537D01*
X153195820Y-125533502D01*
X153315518Y-125569812D01*
X153440000Y-125582072D01*
X156440000Y-125582072D01*
X156564482Y-125569812D01*
X156684180Y-125533502D01*
X156794494Y-125474537D01*
X156891185Y-125395185D01*
X156970537Y-125298494D01*
X157029502Y-125188180D01*
X157065812Y-125068482D01*
X157078072Y-124944000D01*
X157078072Y-122946758D01*
X181515000Y-122946758D01*
X181515000Y-123633242D01*
X181648927Y-124306537D01*
X181911633Y-124940766D01*
X182293024Y-125511558D01*
X182778442Y-125996976D01*
X183349234Y-126378367D01*
X183983463Y-126641073D01*
X184656758Y-126775000D01*
X185343242Y-126775000D01*
X186016537Y-126641073D01*
X186650766Y-126378367D01*
X187221558Y-125996976D01*
X187706976Y-125511558D01*
X188088367Y-124940766D01*
X188351073Y-124306537D01*
X188485000Y-123633242D01*
X188485000Y-122946758D01*
X188351073Y-122273463D01*
X188088367Y-121639234D01*
X187706976Y-121068442D01*
X187221558Y-120583024D01*
X186650766Y-120201633D01*
X186016537Y-119938927D01*
X185343242Y-119805000D01*
X184656758Y-119805000D01*
X183983463Y-119938927D01*
X183349234Y-120201633D01*
X182778442Y-120583024D01*
X182293024Y-121068442D01*
X181911633Y-121639234D01*
X181648927Y-122273463D01*
X181515000Y-122946758D01*
X157078072Y-122946758D01*
X157078072Y-121944000D01*
X157065812Y-121819518D01*
X157029502Y-121699820D01*
X156970537Y-121589506D01*
X156891185Y-121492815D01*
X156794494Y-121413463D01*
X156684180Y-121354498D01*
X156564482Y-121318188D01*
X156440000Y-121305928D01*
X153440000Y-121305928D01*
X153315518Y-121318188D01*
X153195820Y-121354498D01*
X153085506Y-121413463D01*
X152988815Y-121492815D01*
X152909463Y-121589506D01*
X152850498Y-121699820D01*
X152814188Y-121819518D01*
X152801928Y-121944000D01*
X151379346Y-121944000D01*
X151220983Y-121785637D01*
X150871302Y-121551988D01*
X150482756Y-121391047D01*
X150070279Y-121309000D01*
X149649721Y-121309000D01*
X149237244Y-121391047D01*
X148848698Y-121551988D01*
X148499017Y-121785637D01*
X148201637Y-122083017D01*
X147967988Y-122432698D01*
X147807047Y-122821244D01*
X147725000Y-123233721D01*
X123985000Y-123233721D01*
X123985000Y-122896758D01*
X123851073Y-122223463D01*
X123588367Y-121589234D01*
X123206976Y-121018442D01*
X122721558Y-120533024D01*
X122150766Y-120151633D01*
X121516537Y-119888927D01*
X120843242Y-119755000D01*
X120156758Y-119755000D01*
X119483463Y-119888927D01*
X118849234Y-120151633D01*
X118278442Y-120533024D01*
X117793024Y-121018442D01*
X117411633Y-121589234D01*
X117148927Y-122223463D01*
X117015000Y-122896758D01*
X116160000Y-122896758D01*
X116160000Y-114200000D01*
X138561928Y-114200000D01*
X138561928Y-115800000D01*
X138574188Y-115924482D01*
X138610498Y-116044180D01*
X138669463Y-116154494D01*
X138748815Y-116251185D01*
X138845506Y-116330537D01*
X138955820Y-116389502D01*
X139075518Y-116425812D01*
X139200000Y-116438072D01*
X140800000Y-116438072D01*
X140924482Y-116425812D01*
X141044180Y-116389502D01*
X141154494Y-116330537D01*
X141251185Y-116251185D01*
X141330537Y-116154494D01*
X141389502Y-116044180D01*
X141425812Y-115924482D01*
X141438072Y-115800000D01*
X141438072Y-114200000D01*
X163061928Y-114200000D01*
X163061928Y-115800000D01*
X163074188Y-115924482D01*
X163110498Y-116044180D01*
X163169463Y-116154494D01*
X163248815Y-116251185D01*
X163345506Y-116330537D01*
X163455820Y-116389502D01*
X163575518Y-116425812D01*
X163700000Y-116438072D01*
X165300000Y-116438072D01*
X165424482Y-116425812D01*
X165544180Y-116389502D01*
X165654494Y-116330537D01*
X165751185Y-116251185D01*
X165830537Y-116154494D01*
X165889502Y-116044180D01*
X165925812Y-115924482D01*
X165938072Y-115800000D01*
X165938072Y-114200000D01*
X165925812Y-114075518D01*
X165889502Y-113955820D01*
X165830537Y-113845506D01*
X165751185Y-113748815D01*
X165654494Y-113669463D01*
X165544180Y-113610498D01*
X165424482Y-113574188D01*
X165300000Y-113561928D01*
X163700000Y-113561928D01*
X163575518Y-113574188D01*
X163455820Y-113610498D01*
X163345506Y-113669463D01*
X163248815Y-113748815D01*
X163169463Y-113845506D01*
X163110498Y-113955820D01*
X163074188Y-114075518D01*
X163061928Y-114200000D01*
X141438072Y-114200000D01*
X141425812Y-114075518D01*
X141389502Y-113955820D01*
X141330537Y-113845506D01*
X141251185Y-113748815D01*
X141154494Y-113669463D01*
X141044180Y-113610498D01*
X140924482Y-113574188D01*
X140800000Y-113561928D01*
X139200000Y-113561928D01*
X139075518Y-113574188D01*
X138955820Y-113610498D01*
X138845506Y-113669463D01*
X138748815Y-113748815D01*
X138669463Y-113845506D01*
X138610498Y-113955820D01*
X138574188Y-114075518D01*
X138561928Y-114200000D01*
X116160000Y-114200000D01*
X116160000Y-103638967D01*
X137315000Y-103638967D01*
X137315000Y-103961033D01*
X137377832Y-104276912D01*
X137501082Y-104574463D01*
X137680013Y-104842252D01*
X137907748Y-105069987D01*
X138175537Y-105248918D01*
X138473088Y-105372168D01*
X138788967Y-105435000D01*
X139111033Y-105435000D01*
X139426912Y-105372168D01*
X139724463Y-105248918D01*
X139992252Y-105069987D01*
X140219987Y-104842252D01*
X140398918Y-104574463D01*
X140522168Y-104276912D01*
X140585000Y-103961033D01*
X140585000Y-103638967D01*
X164815000Y-103638967D01*
X164815000Y-103961033D01*
X164877832Y-104276912D01*
X165001082Y-104574463D01*
X165180013Y-104842252D01*
X165407748Y-105069987D01*
X165675537Y-105248918D01*
X165973088Y-105372168D01*
X166288967Y-105435000D01*
X166611033Y-105435000D01*
X166926912Y-105372168D01*
X167224463Y-105248918D01*
X167492252Y-105069987D01*
X167719987Y-104842252D01*
X167898918Y-104574463D01*
X168022168Y-104276912D01*
X168085000Y-103961033D01*
X168085000Y-103638967D01*
X168022168Y-103323088D01*
X167898918Y-103025537D01*
X167719987Y-102757748D01*
X167492252Y-102530013D01*
X167224463Y-102351082D01*
X166926912Y-102227832D01*
X166611033Y-102165000D01*
X166288967Y-102165000D01*
X165973088Y-102227832D01*
X165675537Y-102351082D01*
X165407748Y-102530013D01*
X165180013Y-102757748D01*
X165001082Y-103025537D01*
X164877832Y-103323088D01*
X164815000Y-103638967D01*
X140585000Y-103638967D01*
X140522168Y-103323088D01*
X140398918Y-103025537D01*
X140219987Y-102757748D01*
X139992252Y-102530013D01*
X139724463Y-102351082D01*
X139426912Y-102227832D01*
X139111033Y-102165000D01*
X138788967Y-102165000D01*
X138473088Y-102227832D01*
X138175537Y-102351082D01*
X137907748Y-102530013D01*
X137680013Y-102757748D01*
X137501082Y-103025537D01*
X137377832Y-103323088D01*
X137315000Y-103638967D01*
X116160000Y-103638967D01*
X116160000Y-97125645D01*
X118300500Y-97125645D01*
X118300500Y-97438355D01*
X118361507Y-97745057D01*
X118481176Y-98033963D01*
X118654908Y-98293972D01*
X118876028Y-98515092D01*
X119136037Y-98688824D01*
X119424943Y-98808493D01*
X119731645Y-98869500D01*
X120044355Y-98869500D01*
X120351057Y-98808493D01*
X120639963Y-98688824D01*
X120899972Y-98515092D01*
X121121092Y-98293972D01*
X121294824Y-98033963D01*
X121414493Y-97745057D01*
X121475500Y-97438355D01*
X121475500Y-97125645D01*
X132524500Y-97125645D01*
X132524500Y-97438355D01*
X132585507Y-97745057D01*
X132705176Y-98033963D01*
X132878908Y-98293972D01*
X133100028Y-98515092D01*
X133360037Y-98688824D01*
X133648943Y-98808493D01*
X133955645Y-98869500D01*
X134268355Y-98869500D01*
X134575057Y-98808493D01*
X134863963Y-98688824D01*
X135123972Y-98515092D01*
X135345092Y-98293972D01*
X135518824Y-98033963D01*
X135638493Y-97745057D01*
X135688502Y-97493645D01*
X169550500Y-97493645D01*
X169550500Y-97806355D01*
X169611507Y-98113057D01*
X169731176Y-98401963D01*
X169904908Y-98661972D01*
X170126028Y-98883092D01*
X170386037Y-99056824D01*
X170674943Y-99176493D01*
X170981645Y-99237500D01*
X171294355Y-99237500D01*
X171601057Y-99176493D01*
X171889963Y-99056824D01*
X172149972Y-98883092D01*
X172371092Y-98661972D01*
X172544824Y-98401963D01*
X172664493Y-98113057D01*
X172725500Y-97806355D01*
X172725500Y-97493645D01*
X183774500Y-97493645D01*
X183774500Y-97806355D01*
X183835507Y-98113057D01*
X183955176Y-98401963D01*
X184128908Y-98661972D01*
X184350028Y-98883092D01*
X184610037Y-99056824D01*
X184898943Y-99176493D01*
X185205645Y-99237500D01*
X185518355Y-99237500D01*
X185825057Y-99176493D01*
X186113963Y-99056824D01*
X186373972Y-98883092D01*
X186595092Y-98661972D01*
X186768824Y-98401963D01*
X186888493Y-98113057D01*
X186949500Y-97806355D01*
X186949500Y-97493645D01*
X186888493Y-97186943D01*
X186768824Y-96898037D01*
X186595092Y-96638028D01*
X186373972Y-96416908D01*
X186113963Y-96243176D01*
X185825057Y-96123507D01*
X185518355Y-96062500D01*
X185205645Y-96062500D01*
X184898943Y-96123507D01*
X184610037Y-96243176D01*
X184350028Y-96416908D01*
X184128908Y-96638028D01*
X183955176Y-96898037D01*
X183835507Y-97186943D01*
X183774500Y-97493645D01*
X172725500Y-97493645D01*
X172664493Y-97186943D01*
X172544824Y-96898037D01*
X172371092Y-96638028D01*
X172149972Y-96416908D01*
X171889963Y-96243176D01*
X171601057Y-96123507D01*
X171294355Y-96062500D01*
X170981645Y-96062500D01*
X170674943Y-96123507D01*
X170386037Y-96243176D01*
X170126028Y-96416908D01*
X169904908Y-96638028D01*
X169731176Y-96898037D01*
X169611507Y-97186943D01*
X169550500Y-97493645D01*
X135688502Y-97493645D01*
X135699500Y-97438355D01*
X135699500Y-97125645D01*
X135638493Y-96818943D01*
X135518824Y-96530037D01*
X135345092Y-96270028D01*
X135123972Y-96048908D01*
X134863963Y-95875176D01*
X134575057Y-95755507D01*
X134268355Y-95694500D01*
X133955645Y-95694500D01*
X133648943Y-95755507D01*
X133360037Y-95875176D01*
X133100028Y-96048908D01*
X132878908Y-96270028D01*
X132705176Y-96530037D01*
X132585507Y-96818943D01*
X132524500Y-97125645D01*
X121475500Y-97125645D01*
X121414493Y-96818943D01*
X121294824Y-96530037D01*
X121121092Y-96270028D01*
X120899972Y-96048908D01*
X120639963Y-95875176D01*
X120351057Y-95755507D01*
X120044355Y-95694500D01*
X119731645Y-95694500D01*
X119424943Y-95755507D01*
X119136037Y-95875176D01*
X118876028Y-96048908D01*
X118654908Y-96270028D01*
X118481176Y-96530037D01*
X118361507Y-96818943D01*
X118300500Y-97125645D01*
X116160000Y-97125645D01*
X116160000Y-80561721D01*
X150265000Y-80561721D01*
X150265000Y-80982279D01*
X150347047Y-81394756D01*
X150507988Y-81783302D01*
X150741637Y-82132983D01*
X151039017Y-82430363D01*
X151388698Y-82664012D01*
X151777244Y-82824953D01*
X152189721Y-82907000D01*
X152610279Y-82907000D01*
X153022756Y-82824953D01*
X153411302Y-82664012D01*
X153760983Y-82430363D01*
X154058363Y-82132983D01*
X154292012Y-81783302D01*
X154452953Y-81394756D01*
X154535000Y-80982279D01*
X154535000Y-80561721D01*
X154452953Y-80149244D01*
X154292012Y-79760698D01*
X154058363Y-79411017D01*
X153919346Y-79272000D01*
X155341928Y-79272000D01*
X155341928Y-82272000D01*
X155354188Y-82396482D01*
X155390498Y-82516180D01*
X155449463Y-82626494D01*
X155528815Y-82723185D01*
X155625506Y-82802537D01*
X155735820Y-82861502D01*
X155855518Y-82897812D01*
X155980000Y-82910072D01*
X158980000Y-82910072D01*
X159104482Y-82897812D01*
X159224180Y-82861502D01*
X159334494Y-82802537D01*
X159431185Y-82723185D01*
X159510537Y-82626494D01*
X159569502Y-82516180D01*
X159605812Y-82396482D01*
X159618072Y-82272000D01*
X159618072Y-79272000D01*
X159605812Y-79147518D01*
X159569502Y-79027820D01*
X159510537Y-78917506D01*
X159431185Y-78820815D01*
X159334494Y-78741463D01*
X159224180Y-78682498D01*
X159104482Y-78646188D01*
X158980000Y-78633928D01*
X155980000Y-78633928D01*
X155855518Y-78646188D01*
X155735820Y-78682498D01*
X155625506Y-78741463D01*
X155528815Y-78820815D01*
X155449463Y-78917506D01*
X155390498Y-79027820D01*
X155354188Y-79147518D01*
X155341928Y-79272000D01*
X153919346Y-79272000D01*
X153760983Y-79113637D01*
X153411302Y-78879988D01*
X153022756Y-78719047D01*
X152610279Y-78637000D01*
X152189721Y-78637000D01*
X151777244Y-78719047D01*
X151388698Y-78879988D01*
X151039017Y-79113637D01*
X150741637Y-79411017D01*
X150507988Y-79760698D01*
X150347047Y-80149244D01*
X150265000Y-80561721D01*
X116160000Y-80561721D01*
X116160000Y-76279392D01*
X116176299Y-76096758D01*
X117015000Y-76096758D01*
X117015000Y-76783242D01*
X117148927Y-77456537D01*
X117411633Y-78090766D01*
X117793024Y-78661558D01*
X118278442Y-79146976D01*
X118849234Y-79528367D01*
X119483463Y-79791073D01*
X120156758Y-79925000D01*
X120843242Y-79925000D01*
X121516537Y-79791073D01*
X122150766Y-79528367D01*
X122721558Y-79146976D01*
X123206976Y-78661558D01*
X123588367Y-78090766D01*
X123851073Y-77456537D01*
X123985000Y-76783242D01*
X123985000Y-76096758D01*
X123967098Y-76006758D01*
X181515000Y-76006758D01*
X181515000Y-76693242D01*
X181648927Y-77366537D01*
X181911633Y-78000766D01*
X182293024Y-78571558D01*
X182778442Y-79056976D01*
X183349234Y-79438367D01*
X183983463Y-79701073D01*
X184656758Y-79835000D01*
X185343242Y-79835000D01*
X186016537Y-79701073D01*
X186650766Y-79438367D01*
X187221558Y-79056976D01*
X187706976Y-78571558D01*
X188088367Y-78000766D01*
X188351073Y-77366537D01*
X188485000Y-76693242D01*
X188485000Y-76006758D01*
X188351073Y-75333463D01*
X188088367Y-74699234D01*
X187706976Y-74128442D01*
X187221558Y-73643024D01*
X186650766Y-73261633D01*
X186016537Y-72998927D01*
X185343242Y-72865000D01*
X184656758Y-72865000D01*
X183983463Y-72998927D01*
X183349234Y-73261633D01*
X182778442Y-73643024D01*
X182293024Y-74128442D01*
X181911633Y-74699234D01*
X181648927Y-75333463D01*
X181515000Y-76006758D01*
X123967098Y-76006758D01*
X123851073Y-75423463D01*
X123588367Y-74789234D01*
X123206976Y-74218442D01*
X122721558Y-73733024D01*
X122150766Y-73351633D01*
X121516537Y-73088927D01*
X120843242Y-72955000D01*
X120156758Y-72955000D01*
X119483463Y-73088927D01*
X118849234Y-73351633D01*
X118278442Y-73733024D01*
X117793024Y-74218442D01*
X117411633Y-74789234D01*
X117148927Y-75423463D01*
X117015000Y-76096758D01*
X116176299Y-76096758D01*
X116231173Y-75481917D01*
X116434656Y-74738109D01*
X116766638Y-74042095D01*
X117216626Y-73415870D01*
X117770403Y-72879223D01*
X118410451Y-72449129D01*
X119116553Y-72139171D01*
X119871457Y-71957935D01*
X120524207Y-71910000D01*
X184970608Y-71910000D01*
X185768083Y-71981173D01*
G37*
G04 #@! TD.AperFunction*
M02*
