%FSLAX45Y45*%
G04 Gerber Fmt 4.5, Leading zero omitted, Abs format (unit mm)*
G04 Created by KiCad (PCBNEW 5.1.10) date 2021-08-16 10:49:48*
%MOMM*%
%LPD*%
G01*
G04 APERTURE LIST*
%TA.AperFunction,Profile*%
%ADD10C,0.050000*%
%TD*%
%ADD11C,0.200000*%
%ADD12C,0.300000*%
G04 APERTURE END LIST*
D10*
X11550000Y-7625000D02*
G75*
G02*
X12050000Y-7125000I500000J0D01*
G01*
X19000000Y-12325000D02*
G75*
G02*
X18500000Y-12825000I-500000J0D01*
G01*
X12050000Y-12825000D02*
G75*
G02*
X11550000Y-12325000I0J500000D01*
G01*
X18500000Y-7125000D02*
G75*
G02*
X19000000Y-7625000I0J-500000D01*
G01*
X11550000Y-12325000D02*
X11550000Y-7625000D01*
X18500000Y-7125000D02*
X12050000Y-7125000D01*
X19000000Y-12325000D02*
X19000000Y-7625000D01*
X12050000Y-12825000D02*
X18500000Y-12825000D01*
D11*
D12*
X11833928Y-13293214D02*
X11833928Y-12993214D01*
X11905357Y-12993214D01*
X11948214Y-13007500D01*
X11976786Y-13036071D01*
X11991071Y-13064643D01*
X12005357Y-13121786D01*
X12005357Y-13164643D01*
X11991071Y-13221786D01*
X11976786Y-13250357D01*
X11948214Y-13278929D01*
X11905357Y-13293214D01*
X11833928Y-13293214D01*
X12133928Y-13293214D02*
X12133928Y-13093214D01*
X12133928Y-13150357D02*
X12148214Y-13121786D01*
X12162500Y-13107500D01*
X12191071Y-13093214D01*
X12219643Y-13093214D01*
X12319643Y-13293214D02*
X12319643Y-13093214D01*
X12319643Y-12993214D02*
X12305357Y-13007500D01*
X12319643Y-13021786D01*
X12333928Y-13007500D01*
X12319643Y-12993214D01*
X12319643Y-13021786D01*
X12505357Y-13293214D02*
X12476786Y-13278929D01*
X12462500Y-13250357D01*
X12462500Y-12993214D01*
X12662500Y-13293214D02*
X12633928Y-13278929D01*
X12619643Y-13250357D01*
X12619643Y-12993214D01*
X13005357Y-13293214D02*
X13005357Y-12993214D01*
X13105357Y-13207500D01*
X13205357Y-12993214D01*
X13205357Y-13293214D01*
X13476786Y-13293214D02*
X13476786Y-13136071D01*
X13462500Y-13107500D01*
X13433928Y-13093214D01*
X13376786Y-13093214D01*
X13348214Y-13107500D01*
X13476786Y-13278929D02*
X13448214Y-13293214D01*
X13376786Y-13293214D01*
X13348214Y-13278929D01*
X13333928Y-13250357D01*
X13333928Y-13221786D01*
X13348214Y-13193214D01*
X13376786Y-13178929D01*
X13448214Y-13178929D01*
X13476786Y-13164643D01*
X13619643Y-13093214D02*
X13619643Y-13393214D01*
X13619643Y-13107500D02*
X13648214Y-13093214D01*
X13705357Y-13093214D01*
X13733928Y-13107500D01*
X13748214Y-13121786D01*
X13762500Y-13150357D01*
X13762500Y-13236071D01*
X13748214Y-13264643D01*
X13733928Y-13278929D01*
X13705357Y-13293214D01*
X13648214Y-13293214D01*
X13619643Y-13278929D01*
X13891071Y-13264643D02*
X13905357Y-13278929D01*
X13891071Y-13293214D01*
X13876786Y-13278929D01*
X13891071Y-13264643D01*
X13891071Y-13293214D01*
X13891071Y-13107500D02*
X13905357Y-13121786D01*
X13891071Y-13136071D01*
X13876786Y-13121786D01*
X13891071Y-13107500D01*
X13891071Y-13136071D01*
M02*
